<?xml version="1.0" encoding="UTF-8"?>
<svg id="Layer_1" data-name="Layer 1" xmlns="http://www.w3.org/2000/svg" version="1.1" viewBox="0 0 1080 1080">
  <defs>
    <style>
      .cls-1 {
        fill: #fdf8c4;
        stroke-width: 0px;
      }
    </style>
  </defs>
  <g id="numeri">
    <path class="cls-1" d="M73.4,979.6h-.8l-.2-.2c0,0,0-.2,0-.3s0-.2,0-.3v-1.6h0v-1.7c0,0,0-.2,0-.3s0-.2,0-.3v-2.7h0v-2.3c.2,0,.2-.2.3-.2s0,0,.2-.2h.4s.2,0,.2,0c.2,0,.3.2.3.4v.2c0,0,.2,0,.2.2v1.9h0v.2h0v.7c0,0,0,0,0,0h0v1.4h0v.4c0,.1,0,0,0,0v2.1h0v1.5h0c0,.2,0,0,0,0v.2c0,.2-.3.3-.6.5h0,.3ZM57.2,738.7h-1c0,0-.3,0-.4,0h0c-.2,0-.3-.3-.4-.4v-.4h0c0-.4.2-.6.3-.8l.2-.2s.2-.2.3-.2.2,0,.3-.2c0,0,.2,0,.3-.2.2,0,.4-.3.6-.4.2,0,.4-.3.5-.4.3-.2.5-.5.7-.9,0-.2.2-.5.3-.7,0-.2.2-.4.2-.6s0-.4.2-.5c0-.2,0-.4.2-.5,0-.2,0-.3,0-.5s0-.3,0-.5v-.6s0,0-.2-.2h-.6c-.3,0-.6.3-.8.5h0c0,0,0,0,0,0,0,.2-.2.3-.3.4,0,0,0,0-.2.2s0,0-.2.2c0,0-.2.3-.3.5,0,.2-.2.4-.4.5,0,0-.2.2-.3.3,0,0-.2.2-.3.3h-.3l-.2-.2s0,0-.2-.2,0-.2-.2-.2h0v-.4h0v-.5h0v-.2c0-.2.2-.4.4-.6.3-.3.7-.6,1-.8h.3c.2,0,.3-.2.4-.3s.3-.2.4-.3c0,0,.2-.2.3-.3s.2-.2.4-.2.3-.2.4-.2c.2,0,.3,0,.5,0h.4c.2,0,.3,0,.4,0,.2,0,.4.2.6.3h0c0,0,.2.2.3.4,0,0,.2.3.2.5v1c0,.4,0,.8-.2,1.2v.8c0,0,0,.2,0,.3,0,.2,0,.3-.2.4s0,.3-.2.4c0,0,0,.3,0,.4v.4c-.2.2-.2.3-.3.5s0,.3-.2.5c-.2.3-.4.6-.6.8h-.2c0,0-.2.3-.2.3h1.4c.2,0,.3,0,.4,0h2.4c.3,0,.6,0,.9.3.2.2.2.3.3.5h0c0,.4,0,.6,0,.8,0,0,0,0,0,.2h-1c-.2,0-.4,0-.6,0h-4.9ZM69.8,561.4h-.4c0,0-.3,0-.4-.2h0s0,0-.2,0,0,0-.2-.2l-.3-.3h0v-.2h0v-.2s0-.2.2-.2c0,0,0,0,0,0s0-.2.2-.3c0,0,.2,0,.3-.2.2,0,.3,0,.5,0h.8c0,0,.3,0,.4,0l.4-.2.6-.2c.2,0,.3,0,.4-.2,0,0,.2,0,.3,0l.3-.2s.2,0,.2-.2,0,0,.2-.2l.2-.2c0,0,0-.3,0-.4v-.9h0s-.2-.2-.2-.3,0-.2-.2-.3c0,0,0,0-.2-.2,0,0,0,0-.2,0h-.8c-.2,0-.3,0-.5,0h-.5c-.2,0-.3-.2-.5-.2s-.2,0-.3,0h0s-.2,0-.4,0h-.5v-.8h0c0-.2,0,0,0,0v-.4c.2-.2.4-.4.5-.6.2-.2.3-.5.5-.7s.3-.4.5-.7c0,0,.2-.2.2-.3l.2-.2s0,0,0-.2h0v-.6h-2c-.2,0-.4,0-.6.2s-.4,0-.6.2h-.9c0,0-.3,0-.4.2h-.6c0,0-.2,0-.3,0h0v-.9s0,0,0-.2,0,0,.2-.2c.2-.2.4-.2.6-.3h5.9c0,0,0,.2,0,.2h0c0,0,.2.2.3.2s0,.2.2.3c.2.2.2.4,0,.6v.4c0,.1,0,.3-.2.4l-.3.6v.4l-.3.3c0,0-.2.3-.2.4s-.2.3-.3.4h0v.2c0,.1,0,0,0,0h.5c.2,0,.3,0,.5,0,.2,0,.4,0,.6.2s.4.2.5.3c.3.2.6.5.8.8,0,0,.2.3.3.4s.2.3.3.5l.3.5c.2.4.3.8.3,1.2v.8c0,0,0,.3-.2.4s0,.2-.2.4c0,0-.2.2-.2.3s-.2.2-.3.3h0s0,0-.2.2c0,0,0,0-.2.2,0,0,0,0-.2,0s0,0-.2,0c-.2.2-.4.2-.6.2h-.5l-.5.2h-.4c0,0-.3,0-.4,0,0,0-.3,0-.4,0s-.3,0-.4.2l-.2.2h0c0,0-.2,0-.3,0h0l-.9-.2ZM318.3,397.8h-.3c-.1,0-.2,0-.3-.1h-.1c-.1,0-.2-.1-.2-.2h0c-.1-.3-.1-.5-.1-.8h0v-.8h0v-.3h0v-1h0v-.7h0v-.4s0-.1-.1-.1h-2.7c-.2,0-.4,0-.5.2,0,0-.1,0-.2.1,0,0-.1,0-.2.1,0,0-.1.1-.1.2v.4c0,.1,0,.2-.1.3,0,0-.1.1-.3.1s-.2,0-.3-.1c0,0,0-.1-.1-.2v-.6c-.1,0-.1-.2-.2-.3v-.2c-.3-.3-.4-.5-.4-.8s0-.2,0-.2v-.2s.1-.1.1-.2v-.2c0-.2,0-.5.1-.7,0-.2.1-.5.2-.8s.1-.5.2-.8v-.4c.2-.1.2-.3.2-.4,0-.2.1-.4.2-.6s.1-.4.2-.6h0c0-.3.1-.4.2-.6,0-.2.1-.3.2-.5h0v-.3h0c0-.1.1-.2.2-.3s.1,0,.2-.1h.8s.1,0,.2.1c0,0,.2.1.3.2.2.2.3.5.3.8s0,.5-.2.7c0,.1-.1.2-.1.4s0,.3-.1.4v.3c-.1.1-.2.2-.2.3h0v.2h0s-.1.2-.1.3v.8c0,.1-.1.2-.2.4v.9c-.1,0,0,0,0,0h2.8v-1.5h0v-3.8c0-.1,0-.2.2-.4,0,0,0-.2.2-.2s.1-.1.2-.2h.7v.3h0c0,.2.1.3.1.5h0v.2s.1.1,0,.2h0v.6h0v.2h0v.4h0v.2h0v2.2h0v1.2h0c0,.1.5.1.5.1h2s.2,0,.3.1l.2.2h0s0,.1.1.2,0,.1,0,.2h0v.4h0c0,.1-.1.1-.2.2h-.1c0,.2-.1.2-.2.3h-2.5c0,.2,0,.3-.1.3h0v.2h0v.2h0v.2h0v.3h0v.5h0s0,.1.1.2v.2c0,.1,0,0,0,0h0v.3h0v.7c0,0,0,0,0,0h0v.2h-.2q0,.1-.1.2h-.2l-.3,1.2ZM319.1,397.3h0ZM458.1,322.3s-.2,0-.2-.1h0s0-.1-.1-.2h0c0-.1-.1-.2-.2-.2h0v-.3h0v-.5h0c0-.3,0-.4.1-.5h.1c0-.2.1-.2.2-.3h.8c.1,0,.2,0,.3.1h.1c0,.1.1.1.2,0,.2,0,.4-.1.5-.2.2,0,.4-.1.5-.2l1.1-.4c.4-.1.8-.3,1.2-.5,0,0,.2-.1.3-.2.1-.1.3-.3.3-.4v-2.7c0-.2-.2-.3-.3-.4h-1.4c-.2,0-.5,0-.7.2,0,0-.2.1-.3.2,0,0-.2.1-.3.2v.2c-.1,0-.1.2-.1.2h-.1c-.1.2,0,.1,0,.2-.1.1-.3.2-.4.1-.1,0-.2-.1-.2-.2v-.8c-.2-.1-.3-.2-.3-.4v-.8h0v-1c0-.2,0-.1,0-.1v-3.9h0v-.2s0-.2.2-.3.2-.2.4-.2h4.7l.6.2c.2,0,.3.1.5.2h.2c0,.2.1.3.2.4,0,0,0,.1.1.2h0v.2h0s0,.1-.1.2c0,0,0,.1-.1.1,0,0-.1,0-.2.1h-3.8c-.1,0-.2,0-.3.1s0,.1,0,.2v2.2h.1c.1,0,0,0,0,0h1.7q0,.1.1.1h.5s.1,0,.2.1h0c0,.1.1.1.3.1h.2s.2.1.3.2h.1c0,.1.1.3.1.4s0,.2.1.4v.9c.1,0,.1.2.1.2,0,.2,0,.5.1.8s0,.5.1.7v1.2c0,.2-.1.4-.2.6h0c-.2.4-.4.6-.6.8h-.1c-.1.2-.3.3-.4.4s-.3.2-.5.3l-.5.3h-.2c-.2,0-.4.1-.5.2-.2,0-.4.1-.5.2h-.4c-.2,0-.3,0-.5.1-.1,0-.3.1-.5.2h-.5c-.2.2-.3.2-.5.3h-.7l-.9,1ZM495.4,169.2c-.2,0-.4,0-.6-.2s-.4-.1-.6-.2c0,0-.2-.1-.3-.2s-.2-.1-.3-.2l-.6-.4h-.1q0-.1-.1-.2h-.1c0-.1,0-.2-.1-.2h-.5c-.1,0-.3-.1-.4-.2s-.2-.2-.4-.2c-.5-.4-.9-.8-1.2-1.2h-.1c0-.1-.2-.5-.2-.5,0-.1-.1-.2-.2-.4l-.3-.6c0-.1-.2-.3-.2-.5s-.1-.3-.2-.5h0v-.2c0-.1,0-.2-.1-.4h0v-.2h0v-.2h0v-1.4h0v-1h0c.1-.1.2-.3.2-.5v-.2h0v-.2c0-.1,0-.2.1-.2h.1v-.5c0-.1,0-.3.1-.4,0-.2.1-.3.3-.4l.2-.2c.1,0,.2-.2.2-.3h.1c0-.1,0-.2.1-.2s0,0,0-.1.1-.2.3-.3c.1,0,.2,0,.3-.1.1,0,.2-.1.3-.2h.2c.1-.1.2-.2.4-.3s.2-.1.4-.2h1.7s.1,0,.2.1c.1,0,.2.1.3.3.2.3.2.6,0,.8h-.1c-.1.1-.2.2-.3.3-.1,0-.2.1-.3.2h-.1c-.1.1-.3.2-.5.3,0,0-.1,0-.2.1s-.1,0-.2.1c-.2.1-.4.3-.6.5-.4.4-.8.9-1,1.4,0,.1-.1.3-.2.4s-.1.2-.2.4h0c0,.2,0,.3-.1.5s-.1.3-.1.5v.2c-.1.2-.1.4-.1.7v1.1c.1.2.1.4.2.6s.1.4.2.5h0v.2s.1.2.2.3.1.2.2.3h0v-1h0v-.2l.2-.4c0-.1.1-.2.2-.3,0-.1.1-.2.2-.3s.2-.2.2-.3l.4-.4s.2-.2.3-.2.2-.1.3-.2h.4c.1-.2.2-.2.4-.3s.3-.1.4-.2c0,0,.2-.1.3-.2h.1c.1,0,0,0,0,0h1.2c.2,0,.5.2.7.4l.4.4h0s0,.1.1.2,0,.1.1.2h0c0,.2.1.2.2.3,0,0,0,.2.1.2h0v.5c0,.1,0,.2.1.3v.5h0v1.7c0,.1,0,.3.1.4h0s.1.1.1.2v.7c0,.1,0,.2-.1.4,0,.2-.2.3-.4.5,0,0-.2.2-.2.3s-.2.2-.2.3l-.6.7c-.1.2-.2.3-.3.5h0c0,.1,0,.2-.1.2h-1.4l1.1-1.3ZM495.5,167.3h.2s.1,0,.1-.1h.1c.2-.3.3-.4.5-.6s.3-.3.5-.5h.1v-.3h0v-.7c0-.1,0-.3.1-.5v-.5q.1,0,.1-.1v-.7c0-.1,0-.2-.1-.3,0-.1-.1-.3-.2-.4,0-.1-.1-.2-.2-.4h-.6c-.1.2-.3.2-.4.2h-.4c-.1,0-.2,0-.4.1h0c-.2,0-.3.1-.4.2s-.3.2-.4.4c0,0-.1.1-.2.2s-.1.1-.1.2-.1.2-.1.4v.9c.1.3.3.6.4.9,0,0,0,.1.1.2s0,.1.1.2h0s0,.1.1.1,0,.1.1.1c.1.1.2.2.4.4.2.2.5.3.8.4h0l-.2.2ZM566,71.3h-.3c0,0,0,0,0,0h-.2q0-.2-.2-.3s0,0,0-.2,0-.2,0-.4v-.6h0c0,0,0-.2.2-.3s0-.2,0-.3c0-.2,0-.4.2-.6,0-.2,0-.4,0-.5v-2.1s0,0,0,0h-.2s-.2,0-.2,0h-.2s-.2,0-.3,0-.2,0-.3.2h0c-.2,0-.4,0-.5,0-.2-.2-.4-.4-.5-.6v-.4c0-.3,0-.5,0-.8s.2-.2.2-.3h2.5s0,0,0,0h0c0-.2,0-.4,0-.5l.2-.5v-.7c0-.2.2-.5.2-.7v-.4l.2-.7h-.4c-.1,0-.2,0-.4,0h-.2c0,0-.3.2-.4.2s-.3,0-.4.2h-.5s-.2,0-.3.2l-.2.2s0,0-.2.2c0,0,0,.2-.2.3,0,0-.2.2-.3.2h-1s-.2,0-.2-.2h0c0-.2,0-.3-.2-.4h0v-.6c0-.2.2-.5.4-.6h0l.2-.2h.6c.3,0,.6,0,.9,0h.8c.2,0,.4-.2.6-.2s.4-.2.6-.2h0c0,0,.3,0,.4-.2s.3,0,.4-.2h0c0,0,0,0,0,0v-.2q.2,0,.3,0c.2-.2.5-.3.9-.3s.3,0,.4.2c0,0,.2.2.3.3,0,0,0,.2,0,.3s0,.2,0,.3c0,.2,0,.3,0,.5v.8q0,.1,0,.2v.4s0,0,0,.2h0v.2h0v.5h0v.5h-.2c0,0,0,.3,0,.4h0v.7h0v.2h0q0,0,0,0h.4s.2,0,.2.2h0c0,0,.2.3.2.4h0v.6h0v.2h-.4s0,0-.2.2c0,0,0,0-.3,0h-.8c-.1,0,0,0,0,0h0v1h0v.3h0v.3h0v.5h0v.5h0v.6h0v.2h0v1.2h0q0,.2,0,.3c0,.1,0,0-.2,0h0s0,0-.2,0,0,0-.2,0h-1ZM682.1,39.1h-.9s-.2,0-.2,0c0,0-.3-.2-.4-.3s-.2-.2-.3-.4h0c0,0-.4-.7-.4-.7h0c0,0-.2-.6-.2-.6h0v-2.1c-.2-.2-.2-.4,0-.6,0-.4.2-.8.4-1.1,0-.2.3-.4.5-.6h0v-.2c0-.2.3-.4.5-.5h.2q0-.2.2-.3l.4-.4c0,0,.2-.2.2-.3v-.2l-.2-.2s-.2-.1-.2-.2h0c0-.1-.2-.1-.2-.1-.2-.2-.4-.4-.6-.5h0c0-.2-.2-.3-.3-.4s0-.3-.2-.4h0v-.6c0-.2.2-.4.3-.5s.2-.2.3-.3.2-.2.3-.2.3-.1.4-.2.3-.1.4-.2c.2,0,.5-.2.8-.3s.5-.2.8-.2h.3c0-.1.2-.1.3-.2h1.5c.2.2.4.3.5.5s.2.3.3.4c0,.2.2.4.2.7h0v.4h.2c.4.4.5.9.4,1.4,0,0,0,.2,0,.2s0,.1-.2.2c0,0-.2.1-.3.2s-.2.2-.3.3c0,0,0,.1-.2.2s0,.1-.2.2c0,0,0,.2-.2.2,0,0-.2.1-.3.2v.4h0c0,.1.2.3.2.3.3.2.5.4.7.7v.2c.3.2.3.3.4.6v.8h0v1.7h0l-.2.5c0,0,0,.2,0,.3h0c0,.2,0,.3,0,.4,0,0,0,.2-.2.2-.2.4-.5.7-.8,1.1,0,0,0,0-.2.2s0,0-.2.2c0,0-.2.2-.3.2-.2,0-.3,0-.5.2-.2,0-.3,0-.5,0h-1l-.5-.3ZM682.8,36.9c.2,0,.3,0,.4-.2h0c0-.2.2-.3.4-.4s.2-.3.4-.4h0c0-.2.2-.3.2-.4s0-.2.2-.4c0-.2,0-.3,0-.5v-1.1c0-.2,0-.3-.2-.5,0,0-.2-.3-.4-.3h0c0,0-.2-.2-.3-.2s-.2-.2-.3-.3h0c0,0-.2-.2-.3-.2h-.2s-.2,0-.2.2,0,0-.2.2h-.2v.2h0c0,0,0,0-.2.2h0v.2h0v.5h0v.4h0v.8h0v.3h0c0,0,0,.3.2.3,0,0,.2.2.3.3h.9l-.6,1.3ZM683.5,29.2h.2l.3-.2v-.4l-.2-.2s0-.1-.2-.2c0,0,0-.2-.2-.3,0-.1,0-.2-.2-.3h-1.1c-.1,0,0,0,0,0h0c.3.3.5.4.7.6,0,0,0,.1.2.2,0,0,0,.1.2.2,0,0,0,.1.2.2h0l.2.4ZM794.5,94.4h-.3c0,0-.2,0-.2,0,0,0,0,0-.2-.2,0,0,0-.2,0-.2h0v-.8h0v-1.4h0v-1.5c0-.2,0-.5.2-.7v-.7c0,0,0-.3,0-.3v-.2h0v-1h0c0,0-.3.2-.4.2s-.3,0-.4.2c-.3,0-.6.2-.8.3s-.6,0-.9.2h-.8c-.3.2-.5.2-.8,0h0s0,0-.2,0h-.2v-.5h0s0,0-.2,0c0,0,0,0-.2-.2,0,0,0-.2-.2-.2,0,0,0-.2-.2-.2h0v-.9l-.2-.5v-.7h0v-.4c0,0,0-.2,0-.4,0,0,0-.2.2-.3s0-.2.2-.3c0-.2.2-.3.3-.4s.2-.3.2-.4l.2-.2s0-.2.2-.2h0l.3-.2h2.3c0,0,.3,0,.5.2.2,0,.5.2.7.3s.4.2.7.3h0v-.6s0-.2,0-.2h.2c.1,0,0,0,0,0h0c.2,0,.4,0,.5,0h0c.2,0,.4.2.5.4h0v5.2h0v4.1h0v1.1h0v.8l-.2.6v.7c0,0-.2.2-.3.3,0,0,0,0,0,0h0c0,.2,0,0-.2,0h0l-.5-.9ZM791.2,86.2h2.3c.2,0,.3-.2.3-.5h0v-1.4c0-.2,0-.3-.2-.4,0,0-.2-.2-.4-.3h0c-.2,0-.3-.2-.5-.3-.2,0-.3,0-.5-.2h-1.2c-.2,0-.3,0-.4.3v.2s0,0,0,0h0s0,0-.2.2c0,0,0,0,0,.2s0,0,0,.2v.2h0v.4c0,0,.2.2.2.3v.3q0,.1.2.2h0c0,.2.2.3.3.4h0c0,.2,0,0,.2.2h.2-.1ZM854.2,177h-.8s-.2-.1-.2-.2,0-.2,0-.3,0-.2,0-.3v-1.6h0v-1.7c0-.1,0-.2,0-.3s0-.2,0-.3v-2.7h0v-.2h0v-2.1c.2,0,.2-.2.3-.2s0-.1.2-.2h.4s.2,0,.2.1c.2,0,.3.2.3.4v.2c0,0,.2.1.2.2v1.9h0v.3h0v.9h0v.2h0v1.3h0v.4h0v2.2h0v1.4h0c0,.2,0,.1,0,.1v.2c0,.2-.3.3-.5.4h0,.2ZM861.6,177.9h-.8c-.3,0-.7-.1-.9-.2h-.2c0,0-.2-.1-.3-.2s-.2,0-.3-.1c0,0-.2-.1-.3-.1s-.2,0-.3-.1h0c0-.1-.2-.2-.3-.2s-.2,0-.3-.1c0,0-.2-.1-.3-.2,0,0-.2-.1-.3-.2h0c0-.1,0-.2-.2-.3s0-.2-.2-.3v-.3c-.2,0-.2-.1-.2-.2v-2.2h0v-.6h0v-.2c0-.1,0-.2,0-.3s0-.2,0-.3v-.2h0v-.2h.2v-.6c0-.2,0-.3.2-.5,0,0,0-.1,0-.2h0c0-.1.2-.3.2-.4s0-.3.2-.5h0s0-.2.2-.2h0s0-.1,0-.2h0v-.4h0s0-.1.2-.2,0,0,0-.1h0c0-.1,0-.2.2-.3h0c0-.1,0-.2-.2-.3s0-.1-.2-.2h-.2c0-.1,0-.2,0-.3h0v-.4h0v-.2h0q0-.1,0-.1s0,0,0-.1h.6c0,0,.2.1.3.1s.2,0,.3.1h.4s0-.1.2-.1h0c0-.2.2-.3.4-.3h.6s.2,0,.3.1h0s0,.1.2.1h.4q.2,0,.2.1h0c0,.1,0,.2,0,.2h0c0,.2,0,.1,0,.1v.2c0,.2-.2.4-.4.5h-.5s.2.1.2.2,0,.1.2.2c0,0,0,.2.2.2s0,.1.2.2c0,0,0,.2.2.2l.2.2.2.3s0,.2.2.3,0,.2.2.3c0,.2.2.3.3.5,0,.2.2.3.3.5.2.4.3.7.5,1,0,.2.2.5.3.8s0,.5.2.8l.2.8v.6c0,.2,0,.4-.2.6,0,.2-.2.5-.3.7,0,.2,0,.3-.2.5s-.2.3-.2.5c0,.2-.2.4-.4.6,0,0,0,.1,0,.2s0,.1,0,.2c0,0,0,.1-.2.2,0,0,0,.1-.2.2l-.2.2s-.2.1-.3.2-.2.1-.3.2c-.2,0-.4.2-.6.2s-.5.1-.8.1h-.4l1.3-1.1ZM861,176h1.2c0,0,.3-.1.5-.2,0,0,0,0,.2-.1,0-.1.2-.2.4-.3h0c0-.1,0-.2.2-.3,0,0,0-.1,0-.2l.2-.5c0-.2.2-.3.2-.5s0-.4,0-.5h0v-.5c0-.2,0-.3,0-.5v-.5c0-.2-.2-.4-.3-.7s-.2-.4-.3-.6c0-.2-.2-.3-.3-.5s-.2-.3-.3-.5c0,0,0-.2,0-.2,0-.1,0-.2-.2-.3,0-.1,0-.2-.2-.3l-.5-.7c0-.1,0-.2-.2-.3s-.2-.2-.2-.2h0l-.5.7c-.4.5-.7,1.1-1,1.8,0,.2-.2.4-.3.7s-.2.5-.3.7c0,.2-.2.5-.3.8s-.2.5-.2.8c0,.4-.2.7-.2,1h0v.7c0,.2.2.4.3.6l.4.3c0,0,.2.2.4.3s.3.2.4.2c.2,0,.3.1.5.2h.5v-.4ZM899.5,268.4h-.8s-.2-.1-.2-.2,0-.2,0-.3,0-.2,0-.3v-1.6h0v-1.7c0-.1,0-.2,0-.3s0-.2,0-.3v-2.7h0v-.2h0v-2.1c.2,0,.2-.2.3-.2s0-.1.2-.2h.4s.2,0,.2.1c.2,0,.3.2.3.4v.2c0,0,.2.1.2.2v1.9h0v.3h0v.9h0v.2h0v1.3h0v.4h0v2.2h0v1.4h0c0,.2,0,.1,0,.1v.2c0,.2-.3.3-.5.5h0l.2-.2ZM904.3,268.4h-.8s-.2-.1-.2-.2,0-.2,0-.3,0-.2,0-.3v-1.6h0v-1.7c0-.1,0-.2,0-.3s0-.2,0-.3v-2.7h0v-.2h0v-2.1c.2,0,.2-.2.3-.2s0-.1.2-.2h.4s.2,0,.2.1c.2,0,.3.2.3.4v.2c0,0,.2.1.2.2v1.9h0v.3h0v.9h0v.2h0v1.3h0v.4h0v2.2h0v1.4h0c0,.2,0,.1,0,.1v.2c0,.2-.3.3-.5.5h0l.2-.2ZM924,386.3h-.8s-.2-.1-.2-.2,0-.2,0-.3,0-.2,0-.3v-1.6h0v-1.7c0-.1,0-.2,0-.3s0-.2,0-.3v-2.7h0v-.2h0v-2.1c.2,0,.2-.2.3-.2s0-.1.2-.2h.4s.2,0,.2.1c.2,0,.3.2.3.4v.2c0,0,.2.1.2.2v1.9h0v.3h0v.9h0v.2h0v1.3h0v.4h0v2.2h0v1.4h0c0,.2,0,.1,0,.1v.2c0,.2-.3.3-.5.5h0l.2-.2ZM929.5,386.6h-.2c0-.1,0,0,0,0h-.7c0,0-.3,0-.4-.1h0c-.2-.1-.3-.3-.4-.4h0v-.2h0c0-.4.2-.6.3-.8l.2-.2s.2-.2.3-.2.2-.1.3-.2c0,0,.2-.1.3-.2.2-.1.4-.3.6-.4s.4-.3.5-.4c.3-.2.5-.5.7-.9,0-.2.2-.5.3-.7s.2-.4.2-.6,0-.4.2-.5,0-.4.2-.5c0-.1,0-.3,0-.5v-1.1s0-.1-.2-.2h-.6c-.3.1-.6.3-.8.5h0c0,.1,0,.1,0,.1,0,.2-.2.3-.3.4,0,0,0,.1-.2.2s0,.1-.2.2c0,.1-.2.3-.3.5,0,.2-.2.4-.4.5,0,0-.2.2-.3.3,0,.1-.2.2-.3.3h-.3l-.2-.2s0-.1-.2-.2c0,0,0-.1-.2-.2h0v-.5h0v-.2h0v-.3h0c0-.4.2-.5.4-.7.3-.3.7-.6,1-.8h0c0-.2,0-.1.2-.2s.3-.2.4-.3c0-.1.3-.2.4-.3,0,0,.2-.2.3-.3s.2-.2.4-.2.3-.1.4-.2.3-.1.5-.1h.4c.1,0,.3,0,.4.1.2,0,.4.2.6.3h0c0,.1.2.2.3.4s.2.3.2.5v.6h0v.3c0,.4,0,.8-.2,1.2v.8c0,0,0,.2,0,.3,0,.1,0,.3-.2.4s0,.3-.2.4c0,.1,0,.3,0,.4v.4c-.2.1-.2.3-.3.5,0,.1,0,.3-.2.5-.2.3-.4.6-.6.8h-.2c0,.1-.2.1-.2.1v.2h1.4c.2-.1.3-.1.4-.1h2.4c.3,0,.6,0,.9.3.2.1.2.3.3.5h0c0,.4,0,.6,0,.8,0,0,0,.1,0,.2h-1c-.2,0-.4-.1-.6-.1h-5ZM942.7,580.4h-.8l-.2-.2c0,0,0-.2,0-.3s0-.2,0-.3v-1.6h0v-1.7c0,0,0-.2,0-.3s0-.2,0-.3v-2.7h0v-.2h0v-2.1c.2,0,.2-.2.3-.2s0,0,.2-.2h.4s.2,0,.2,0c.2,0,.3.2.3.4v.2c0,0,.2,0,.2.2v1.9h0v.2h0v.7h0v.2h0v1.3h0v.4c0,.1,0,0,0,0v2.1h0v1.5h0c0,.2,0,0,0,0v.2c0,.2-.3.3-.5.5h0,.2ZM949.8,581.5h-.4c-.1,0-.3,0-.4-.2h0s0,0-.2,0c0,0,0,0-.2-.2l-.3-.3h0v-.2h0v-.2s0-.2.2-.2c0,0,0,0,0,0s0-.2.2-.3c0,0,.2,0,.3-.2.2,0,.3,0,.5,0h.8c.1,0,.3,0,.5,0l.5-.2.6-.2c.2,0,.3,0,.4-.2,0,0,.2,0,.3,0l.3-.2s.2,0,.2-.2,0,0,.2-.2l.2-.2c0,0,0-.3,0-.4v-.9h0s-.2-.2-.2-.3c0,0,0-.2-.2-.3l-.2-.2c-.1-.1,0,0-.2,0h-.8c-.2,0-.3,0-.5,0h-.5c-.2,0-.3-.2-.5-.2s-.2,0-.3,0h0s-.2,0-.4,0h-.5v-.8h0c0-.2,0,0,0,0v-.4l.6-.6c.2-.2.3-.5.5-.7s.3-.4.5-.7c0,0,.2-.2.2-.3l.2-.2s0,0,0-.2h0v-.6h-2c-.2,0-.4,0-.6.2-.2,0-.4,0-.6.2h-.8c-.1,0,0,0,0,0s-.3,0-.4.2h-.6c0,0-.2,0-.3,0h0v-.9s0,0,0-.2,0,0,.2-.2c.2-.2.4-.2.6-.3h5.9c0,0,0,.2,0,.2h0c0,0,.2.2.3.2s0,.2.2.3c.2.2.2.4,0,.6v.4c0,.1,0,.3-.2.4l-.3.6v.4l-.3.3c0,0-.2.3-.2.4s-.2.3-.3.4h0v.2c0,.1,0,0,0,0h.5c.2,0,.3,0,.5,0,.2,0,.4,0,.6.2s.4.2.5.3c.3.2.6.5.8.8,0,0,.2.3.3.4,0,.2.2.3.3.5l.3.5c.2.4.3.8.3,1.2v.8c0,0,0,.3-.2.4s0,.2-.2.4c0,0-.2.2-.2.3s-.2.2-.3.3h0s0,0-.2.2c0,0,0,0-.2.2,0,0,0,0-.2,0s0,0-.2,0c-.2.2-.4.2-.6.2h-.5l-.5.2h-.4c0,0-.3,0-.4,0,0,0-.3,0-.4,0s-.3,0-.4.2l-.2.2h0c0,0-.2,0-.3,0h0l-1.2-.2ZM966.5,743.5h-.8l-.2-.2c0,0,0-.2,0-.3s0-.2,0-.3v-1.6h0v-1.7c0,0,0-.2,0-.3s0-.2,0-.3v-2.7h0v-.2h0v-2.1c.2,0,.2-.2.3-.2s0,0,.2-.2h.4s.2,0,.2,0c.2,0,.3.2.3.4v.2c0,0,.2,0,.2.2v1.9h0v.2h0v.7h0v.2h0v1.3h0v.4c0,.1,0,0,0,0v2.1h0v1.5h0c0,.2,0,0,0,0v.2c0,.2-.3.3-.5.5h0,.2ZM976,743.8h-.3c0,0-.2,0-.3,0h0c0,0-.2,0-.2-.2h0c0-.3,0-.5,0-.8h0v-1.2h0v-1h0v-.6h0v-.2h0q0-.2,0-.2h-2.6c-.2,0-.4,0-.5.2h-.4s0,0,0,.2v.4s0,.2,0,.3c0,0,0,0-.3,0s-.2,0-.3,0c0,0,0,0,0-.2v-.6s-.2-.2-.2-.3v-.2c-.3-.3-.4-.5-.4-.8s0-.2,0-.2v-.2s0,0,0-.2v-.2c0-.2,0-.5,0-.7,0-.2,0-.5.2-.8s0-.5.2-.8v-.4c.2,0,.2-.3.2-.4,0-.2,0-.4.2-.6s0-.4.2-.6h0c0-.3,0-.4.2-.6s0-.3.2-.5h0v-.3h0c0,0,0-.2.2-.3s0,0,.2,0h1s.2,0,.3.2c.2.2.3.5.3.8s0,.5-.2.7c0,0,0,.2-.2.4s0,.3,0,.4v.3c0,0-.2.2-.2.3h0v.2h0s0,.2,0,.3v.8c0,0,0,.2-.2.4v.9h2.8v-5.3c0,0,0-.2.2-.4,0,0,0-.2.2-.2s0,0,.2-.2h.7v.3h0c0,.2,0,.3,0,.5h0v.2s0,0,0,.2h0v.6h0v.2h0v.4h0v.2h0v2.2c0,.1,0,0,0,0h0v1.1h2.8c0,0,.2,0,.2.2h0v.4h0v.4h-.2c0,.3,0,.3-.2.4h-2.5s0,.2,0,.2h0v.2q0,.1,0,0h0v.3h0v.3h0v.5h0v.4h0v.3h0v.6h0v.2h0q0,0,0,.2h-.2l-.3,1.9ZM976.8,743.3h0ZM868.9,834.1h-.8l-.2-.2c0,0,0-.2,0-.3s0-.2,0-.3v-1.6h0v-1.7c0,0,0-.2,0-.3s0-.2,0-.3v-2.7h0v-.2h0v-2.1c.2,0,.2-.2.3-.2s0,0,.2-.2h.4s.2,0,.2,0c.2,0,.3.2.3.4v.2c0,0,.2,0,.2.2v1.9h0v.2h0v.7h0v.2h0v1.3h0v.4c0,.1,0,0,0,0v2.1h0v1.5h0c0,.2,0,0,0,0v.2c0,.2-.3.3-.5.5h0,.2ZM874,836h0s-.2,0-.2,0l-.2-.2h0l-.2-.2v-.6c0-.2,0-.3.2-.4.2-.2.4-.3.7-.3h.8c.2,0,.4,0,.6-.2s.4,0,.6-.2c.3-.2.6-.3,1-.4s.6-.3.9-.5c0,0,.3,0,.4-.2s.2,0,.3-.2c.3-.2.5-.5.7-.7,0-.2.2-.4,0-.7v-.4c0,0,0-.2-.2-.3,0,0,0-.2-.2-.3,0,0,0,0,0-.2s0,0,0-.2c0,0,0,0-.2-.2h-.2q0-.2,0-.2h-3.7s-.2,0-.2.2h-.6c-.2,0-.3.3-.4.5v.2c0,0-.2.2-.3.2h-.3s0,0,0-.2v-.8c0-.2,0-.3,0-.5v-3.8h0v-2.9h0c.2-.3.3-.4.5-.5h6.7c0,0,0,.2,0,.3s0,0,0,.2h0v.3h0v.2h0v.2c0,0-.2.2-.4.3,0,0,0,0-.2,0,0,0,0,0-.2,0h-4.4v3.5h4.4c.2,0,.5.2.7.3l.5.4c0,0,.2,0,.3.2l.4.4c.1.1.2.3.3.4v.2c.2.3.4.6.4,1v1.8c-.2.3-.4.5-.6.8l-.2.2-.2.2h-.2c0,0-.2,0-.2.3l-.2.2c-.1.1-.2,0-.3,0h0c0,0-.2,0-.2.2s-.2,0-.2.2h-.2c0,.2-.2.2-.3.3s-.2,0-.3.2l-.9.4h-.6c-.2,0-.3,0-.5.2-.2,0-.3,0-.5.2h-.8l-1.7.9ZM853.8,630.4h-.8l-.2-.2c0,0,0-.2,0-.3s0-.2,0-.3v-1.6h0v-1.7c0,0,0-.2,0-.3s0-.2,0-.3v-2.7h0v-.2h0v-2.1c.2,0,.2-.2.3-.2s0,0,.2-.2h.4s.2,0,.2,0c.2,0,.3.2.3.4v.2c0,0,.2,0,.2.2v1.9h0v.2h0v.7h0v.2h0v1.3h0v.4c0,.1,0,0,0,0v2.1h0v1.5h0c0,.2,0,0,0,0v.2c0,.2-.3.3-.5.5h0,.2ZM863.3,632c-.2,0-.4,0-.6-.2-.2,0-.4,0-.6-.2,0,0-.2,0-.3-.2s-.2,0-.3-.2l-.6-.4h-.3v-.2h-.5c0,0-.3,0-.4-.2s-.2-.2-.4-.2c-.5-.4-.9-.8-1.2-1.2h0c0,0-.2-.5-.2-.5,0,0-.2-.2-.2-.4l-.3-.6c0-.2-.2-.3-.2-.5s0-.3-.2-.5h0v-.2c0,0,0-.2,0-.4h0v-.2h0v-.3c0-.2,0,0,0,0h0v-1.3h0v-.8h0c0-.2.2-.3.2-.5v-.6c0,0,0-.2,0-.2h0v-.5c0,0,0-.3,0-.4,0-.2.2-.3.3-.4l.2-.2c0,0,.2-.2.2-.3h0q0,0,0-.2c0,0,0,0,0,0s0-.2.3-.3c0,0,.2,0,.3-.2s.2,0,.3-.2h.2c0,0,.2-.2.4-.3s.2,0,.4-.2h2s0,0,.2,0c0,0,.2,0,.3.3.2.3.2.5,0,.8h0c0,0-.2,0-.3.2s-.2,0-.3.2h0c-.2.2-.3.2-.5.3,0,0,0,0-.2,0s0,0-.2,0c-.2,0-.4.3-.6.5-.4.4-.8.9-1,1.4,0,0,0,.3-.2.4s0,.2-.2.4h0c0,.2,0,.4-.2.5,0,.2,0,.3,0,.5v.2c0,.2,0,.5,0,.7v1.1c0,.2,0,.4.2.5s0,.4.2.5v.2h0c0,0,0,.3.2.4s0,.2.2.3h0v-1h0v-.2l.2-.4c0,0,0-.2.2-.3,0,0,0-.2.2-.3s.2-.2.2-.3l.4-.4s.2-.2.3-.2.2,0,.3-.2l.4-.2c0,0,.2,0,.4,0s.3,0,.4-.2c0,0,.2-.2.3-.2h0c0,0,0,0,0,0h1.2c.2,0,.5.2.7.4l.4.4h0s0,0,0,.2,0,0,0,.2h0c0,0,0,.2.2.3s0,.2,0,.2h0v.4c0,0,0,.2,0,.3v.5h0v1.7c0,.2,0,.3,0,.4h0s0,0,0,.2v.7c0,.1,0,.2-.2.4,0,.2-.2.3-.4.5,0,0-.2.2-.2.3s-.2.2-.2.3l-.6.7c0,.2-.2.3-.3.5h0c0,0,0,.2,0,.3s0,0-.2,0h-1.2l.9-1.3ZM863.3,630.2h.3c0,0,0,0,0,0,.2-.3.3-.4.5-.6l.5-.5h0v-.3h0c0-.2,0,0,0,0v-1.5h0v-.7s0-.2,0-.3c0,0,0-.3-.2-.4s0-.2-.2-.4h-.6c0,.2-.3.2-.4.2h-.4c-.1,0-.2,0-.4.2h0c-.2,0-.3,0-.4.2s-.3.2-.4.3l-.2.2c-.1.1,0,.2,0,.2,0,0,0,.2,0,.4s0,.2,0,.3v.6c0,.3.3.6.4.9,0,0,0,0,0,.2s0,0,0,.2h0v.2c0,.2,0,0,0,.2l.4.4c.2.2.5.3.8.4h0v-.2ZM788,567.3h-.8l-.2-.2c0,0,0-.2,0-.3s0-.2,0-.3v-1.6h0v-1.7c0,0,0-.2,0-.3s0-.2,0-.3v-2.7h0v-.2h0v-2.1c.2,0,.2-.2.3-.2s0,0,.2-.2h.4s.2,0,.2,0c.2,0,.3.2.3.4v.2c0,0,.2,0,.2.2v1.9h0v.2h0v.7h0v.2h0v1.3h0v.4c0,.1,0,0,0,0v2.1h0v1.5h0c0,.2,0,0,0,0v.2c0,.2-.3.3-.5.5h0,.2ZM794,568.2h-.9s-.2,0-.2,0c0,0-.3-.2-.4-.3,0,0-.2-.2-.3-.4h0c0,0-.4-.7-.4-.7h0c0,0-.2-.6-.2-.6h0v-2.1c-.2-.2-.2-.4,0-.6,0-.4.2-.8.4-1.1,0-.2.3-.4.5-.6h0v-.2c0-.2.3-.3.5-.5h.2q0-.2.2-.3l.4-.4c0,0,.2-.2.2-.3v-.2l-.2-.2-.2-.2h0c0,0-.2,0-.2,0-.2-.2-.4-.4-.6-.5h0c0-.2-.2-.3-.3-.4,0,0,0-.3-.2-.4h0v-.6c0-.2.2-.3.3-.5l.3-.3c0,0,.2-.2.3-.2s.3,0,.4-.2.3,0,.4-.2c.2,0,.5-.2.8-.3s.5-.2.8-.2h.3c0,0,.2-.2.3-.2h1.5c.2.2.4.3.5.5s.2.3.3.4c0,.2.2.4.2.7h0v.4h.2c.4.4.5.9.4,1.4,0,0,0,.2,0,.2s0,0-.2.2c0,0-.2,0-.3.2s-.2.2-.3.3l-.2.2-.2.2s0,.2-.2.2c0,0-.2,0-.3.2v.4h0l.2.2c.3.2.5.4.7.7v.2c.3.2.3.3.4.6v.8h0v1.7h0l-.2.5c0,0,0,.2,0,.3h0c0,.2,0,.3,0,.4s0,.2-.2.2c-.2.4-.5.7-.8,1.1,0,0,0,0-.2.2,0,0,0,0-.2.2,0,0-.2.2-.3.2-.2,0-.3,0-.5.2-.2,0-.3,0-.5,0h-1l-.5-.2ZM794.7,566.1c.2,0,.3,0,.4-.2h0c0-.2.2-.3.4-.4,0,0,.2-.3.4-.4h0c0-.2.2-.3.2-.4s0-.2.2-.4c0-.2,0-.3,0-.5s0-.3,0-.5v-.6c0-.2,0-.3-.2-.5,0,0-.2-.3-.4-.3h0c0,0-.2-.2-.3-.2s-.2-.2-.3-.3h0c0,0-.2-.2-.3-.2h-.2s-.2,0-.2.2,0,0-.2.2,0,0-.2,0h0v.2h0c0,0,0,0-.2.2h0v.2h0v.5h0v.4h0v.8h0v.3h0c0,0,0,.3.2.3,0,0,.2.2.3.3h.9l-.6,1.3ZM795.4,558.3h.2l.3-.2v-.4l-.2-.2s0,0-.2-.2c0,0,0-.2-.2-.3,0,0,0-.2-.2-.3h-1.1c-.1,0,0,0,0,0h0c.3.2.5.3.7.5l.2.2.2.2.2.2h0l.2.5ZM761.1,817.6h-.8l-.2-.2c0,0,0-.2,0-.3s0-.2,0-.3v-1.6h0v-1.7c0,0,0-.2,0-.3s0-.2,0-.3v-2.7h0v-.2h0v-2.1c.2,0,.2-.2.3-.2s0,0,.2-.2h.4s.2,0,.2,0c.2,0,.3.2.3.4v.2c0,0,.2,0,.2.2v1.9h0v.2h0v.7h0v.2h0v1.3h0v.4c0,.1,0,0,0,0v2.1h0v1.5h0c0,.2,0,0,0,0v.2c0,.2-.3.3-.5.5h0,.2ZM770.9,818.6h-.7c0,0,0,0,0,0s0,0,0-.2h0v-.3h0v-3.6h0v-2.6h0c0-.2,0,0,0-.3v-.4h-.3l-.4.2c0,0-.2,0-.4.2h-2.3s0,0-.2,0h-.2v-.2s0,0-.2-.2c0,0,0,0-.2-.2h0s-.2,0-.2-.2-.2-.2-.2-.2h0v-.2h0c0-.2,0-.3-.2-.3s0-.2-.2-.2v-.6c-.2-.2-.2-.3-.2-.5v-.5c0-.4,0-.8.4-1.1,0-.2.2-.3.3-.4l.4-.4c.4-.3.8-.7,1.2-.9,0,0,.2-.2.3-.2s.2,0,.4,0h.2s.2,0,.2-.2.2,0,.2,0c.2,0,.4-.2.6-.2s.4,0,.6,0h1.6v-.2c0-.2.2-.3.3-.5h0s.2,0,.3-.2.2,0,.3,0h.4c.2,0,.4.2.5.4s0,.2.2.2v1h0v1.7h0v.7c0,.4,0,.8,0,1.2v2.6h0v6.8h0v.2q-.2,0-.3,0h-.5l-1.3.2ZM767.3,809.8c.3,0,.5,0,.7-.2h0l.2-.3s.2,0,.3-.2h0c0,0,0-.4,0-.4,0-.2.2-.3.2-.5s.2-.3.2-.5h0v-.7h0q0-.2-.2-.3l-.2-.2c0,0-.2-.2-.2-.3h-.4c0,0-.2,0-.3,0l-.4.2c-.2,0-.4.2-.6.4h0l-.4.4-.3.3-.3.3c0,.2-.2.3-.3.5v.5q0,.1,0,.2l.5.5c.2,0,.4.2.6.3h.6ZM762.8,988.2h-1c0,0-.3,0-.4,0h0c-.2,0-.3-.3-.4-.4v-.4h0c0-.4.2-.6.3-.8l.2-.2s.2-.2.3-.2.2,0,.3-.2.2,0,.3-.2c.2,0,.4-.3.6-.4s.4-.3.5-.4c.3-.2.5-.5.7-.9,0-.2.2-.5.3-.7,0-.2.2-.4.2-.6s0-.4.2-.5,0-.4.2-.5c0-.2,0-.3,0-.5s0-.3,0-.5v-.6s0,0-.2-.2h-.6c-.3,0-.6.3-.8.5h0c0,0,0,0,0,0,0,.2-.2.3-.3.4l-.2.2-.2.2c0,0-.2.3-.3.5,0,.2-.2.4-.4.5,0,0-.2.2-.3.3,0,0-.2.2-.3.3h-.3l-.2-.2-.2-.2-.2-.2h0v-.4h0v-.5h0v-.2c0-.2.2-.4.4-.6.3-.3.7-.6,1-.8h.3c.2,0,.3-.2.4-.3,0,0,.3-.2.4-.3,0,0,.2-.2.3-.3s.2-.2.4-.2.3-.2.4-.2.3,0,.5,0h.4c.2,0,.3,0,.4,0,.2,0,.4.2.6.3h0c0,0,.2.2.3.4s.2.3.2.5v1c0,.4,0,.8-.2,1.2v.8c0,0,0,.2,0,.3,0,.2,0,.3-.2.4s0,.3-.2.4c0,0,0,.3,0,.4v.4c-.2.2-.2.3-.3.5s0,.3-.2.5c-.2.3-.4.6-.6.8h-.2c0,0-.2.3-.2.3h1.4c.2,0,.3,0,.4,0h2.4c.3,0,.6,0,.9.3.2.2.2.3.3.5h0c0,.4,0,.6,0,.8,0,0,0,0,0,.2h-1c-.2,0-.4,0-.6,0h-4.9ZM776.6,988.8h-.8c-.3,0-.7,0-.9-.2h-.2c0,0-.2,0-.3-.2s-.2,0-.3,0c0,0-.2,0-.3,0,0,0-.2,0-.3,0h0c0,0-.2-.2-.3-.2s-.2,0-.3,0c0,0-.2,0-.3-.2,0,0-.2-.2-.3-.2h0c0,0,0-.2-.2-.3s0-.2-.2-.3v-.3c-.2,0-.2,0-.2-.2v-2.2h0v-.6h0v-.2c0,0,0-.2,0-.3s0-.2,0-.3v-.2h0v-.2h.2v-.6c0-.2,0-.3.2-.5,0,0,0,0,0-.2h0c0-.2.2-.3.2-.5s0-.3.2-.5h0s0-.2.2-.2h0s0,0,0-.2h0v-.4h0l.2-.2c.1-.1,0,0,0,0h0c0,0,0-.2.2-.3h0l-.2-.2-.2-.2-.2-.2s0,0,0-.2h0v-.4h0v-.2h0q0,0,0,0s0,0,0,0h.6c0,0,.2,0,.3,0,0,0,.2,0,.3,0h.6c.2-.2,0,0,0-.2s.2-.2.4-.2h.9s0,0,.2,0h.4q.2,0,.2,0h0c0,0,0,.2,0,.2h0v.2c0,.2-.2.4-.4.5h-.5s.2,0,.2.2,0,0,.2.2c0,0,0,.2.2.2s0,.2.2.2c0,0,0,.2.2.2l.2.2.2.3s0,.2.2.3,0,.2.2.3c0,.2.2.3.3.5,0,.2.2.3.3.5.2.3.3.7.5,1,0,.2.2.5.3.8s0,.5.2.8l.2.8v.6c0,.2,0,.4-.2.6,0,.2-.2.5-.3.7,0,.2,0,.3-.2.5s-.2.3-.2.5c0,.2-.2.4-.4.6,0,0,0,0,0,.2,0,0,0,0,0,.2l-.2.2-.2.2-.2.2s-.2,0-.3.2-.2,0-.3.2c-.2,0-.4.2-.6.2s-.5,0-.8,0h-.3l1.2-.8ZM776.1,986.8h1.2c0,0,.3,0,.5-.2,0,0,0,0,.2,0,0,0,.2-.2.4-.3h0c0,0,0-.2.2-.3,0,0,0,0,0-.2l.2-.5c0-.2.2-.3.2-.5s0-.4,0-.5h0v-.5c0-.2,0-.3,0-.5v-.5c0-.2-.2-.5-.3-.7s-.2-.4-.3-.7c0-.2-.2-.3-.3-.5s-.2-.3-.3-.5c0,0,0-.2,0-.2,0,0,0-.2-.2-.3s0-.2-.2-.3l-.5-.7c0,0,0-.2-.2-.3s-.2-.2-.2-.2h0l-.5.7c-.4.5-.7,1.1-1,1.8,0,.2-.2.4-.3.7s-.2.5-.3.7c0,.2-.2.5-.3.8s-.2.5-.2.8c0,.3-.2.7-.2,1h0v.7c0,.2.2.4.3.6l.4.3c0,0,.2.2.4.3s.3.2.4.2c.2,0,.3,0,.5.2s.3,0,.5,0h0v-.3ZM704.3,1022.5h-1c0,0-.3,0-.4,0h0c-.2,0-.3-.3-.4-.4v-.4h0c0-.4.2-.6.3-.8l.2-.2s.2-.2.3-.2.2,0,.3-.2.2,0,.3-.2c.2,0,.4-.3.6-.4s.4-.3.5-.4c.3-.2.5-.5.7-.9,0-.2.2-.5.3-.7,0-.2.2-.4.2-.6s0-.4.2-.5,0-.4.2-.5c0-.2,0-.3,0-.5s0-.3,0-.5v-.6s0,0-.2-.2h-.6c-.3,0-.6.3-.8.5h0c0,0,0,0,0,0,0,.2-.2.3-.3.4l-.2.2-.2.2c0,0-.2.3-.3.5,0,.2-.2.4-.4.5,0,0-.2.2-.3.3,0,0-.2.2-.3.3h-.3l-.2-.2-.2-.2-.2-.2h0v-.4h0v-.5h0v-.2c0-.2.2-.4.4-.6.3-.3.7-.6,1-.8h.3c.2,0,.3-.2.4-.3,0,0,.3-.2.4-.3,0,0,.2-.2.3-.3s.2-.2.4-.2.3-.2.4-.2.3,0,.5,0h.4c.2,0,.3,0,.4,0,.2,0,.4.2.6.3h0c0,0,.2.2.3.4s.2.3.2.5v1c0,.4,0,.8-.2,1.2v.8c0,0,0,.2,0,.3,0,.2,0,.3-.2.4s0,.3-.2.4c0,0,0,.3,0,.4v.4c-.2.2-.2.3-.3.5s0,.3-.2.5c-.2.3-.4.6-.6.8h-.2c0,0-.2.3-.2.3h1.4c.2,0,.3,0,.4,0h2.4c.3,0,.6,0,.9.3.2.2.2.3.3.5h0c0,.4,0,.6,0,.8,0,0,0,0,0,.2h-1c-.2,0-.4,0-.6,0h-4.9ZM714.9,1023.2h-.5c0,0,0,0,0,0h0s0,0,0,0v-5.4h0v-3.1h0v-1.6c0-.2,0-.5,0-.7,0,0,0-.2,0-.3h0c0-.2,0,0,0,0h.4s0,0,.2.2c0,0,0,.2,0,.3s0,.2,0,.3v1.3h0v2.1h0v3.5h0v.3h0v1.9h0v.8h0v.3s0,0,0,.2h0s-.2,0-.2.2c0,0-.2,0-.4,0h.5ZM666,828.3h-1c0,0-.3,0-.4,0h0c-.2,0-.3-.3-.4-.4v-.4h0c0-.4.2-.6.3-.8l.2-.2s.2-.2.3-.2.2,0,.3-.2.2,0,.3-.2c.2,0,.4-.3.6-.4s.4-.3.5-.4c.3-.2.5-.5.7-.9,0-.2.2-.5.3-.7,0-.2.2-.4.2-.6s0-.4.2-.5,0-.4.2-.5c0-.2,0-.3,0-.5s0-.3,0-.5v-.6s0,0-.2-.2h-.6c-.3,0-.6.3-.8.5h0c0,0,0,0,0,0,0,.2-.2.3-.3.4l-.2.2-.2.2c0,0-.2.3-.3.5,0,.2-.2.4-.4.5,0,0-.2.2-.3.3,0,0-.2.2-.3.3h-.3l-.2-.2-.2-.2-.2-.2h0v-.4h0v-.5h0v-.2c0-.2.2-.4.4-.6.3-.3.7-.6,1-.8h.3c.2,0,.3-.2.4-.3,0,0,.3-.2.4-.3,0,0,.2-.2.3-.3s.2-.2.4-.2.3-.2.4-.2.3,0,.5,0h.4c.2,0,.3,0,.4,0,.2,0,.4.2.6.3h0c0,0,.2.2.3.4s.2.3.2.5v1c0,.4,0,.8-.2,1.2v.8c0,0,0,.2,0,.3,0,.2,0,.3-.2.4s0,.3-.2.4c0,0,0,.3,0,.4v.4c-.2.2-.2.3-.3.5s0,.3-.2.5c-.2.3-.4.6-.6.8h-.2c0,0-.2.3-.2.3h1.4c.2,0,.3,0,.4,0h2.4c.3,0,.6,0,.9.3.2.2.2.3.3.5h0c0,.4,0,.6,0,.8,0,0,0,0,0,.2h-1c-.2,0-.4,0-.6,0h-4.9ZM677.7,828.3h-1c0,0-.3,0-.4,0h0c-.2,0-.3-.3-.4-.4v-.4h0c0-.4.2-.6.3-.8l.2-.2s.2-.2.3-.2.2,0,.3-.2.2,0,.3-.2c.2,0,.4-.3.6-.4s.4-.3.5-.4c.3-.2.5-.5.7-.9,0-.2.2-.5.3-.7,0-.2.2-.4.2-.6s0-.4.2-.5,0-.4.2-.5c0-.2,0-.3,0-.5s0-.3,0-.5v-.6s0,0-.2-.2h-.6c-.3,0-.6.3-.8.5h0c0,0,0,0,0,0,0,.2-.2.3-.3.4l-.2.2-.2.2c0,0-.2.3-.3.5,0,.2-.2.4-.4.5,0,0-.2.2-.3.3,0,0-.2.2-.3.3h-.3l-.2-.2-.2-.2-.2-.2h0v-.4h0v-.5h0v-.2c0-.2.2-.4.4-.6.3-.3.7-.6,1-.8h.3c.2,0,.3-.2.4-.3,0,0,.3-.2.4-.3,0,0,.2-.2.3-.3s.2-.2.4-.2.3-.2.4-.2.3,0,.5,0h.4c.2,0,.3,0,.4,0,.2,0,.4.2.6.3h0c0,0,.2.2.3.4s.2.3.2.5v1c0,.4,0,.8-.2,1.2v.8c0,0,0,.2,0,.3,0,.2,0,.3-.2.4s0,.3-.2.4c0,0,0,.3,0,.4v.4c-.2.2-.2.3-.3.5s0,.3-.2.5c-.2.3-.4.6-.6.8h-.2c0,0-.2.3-.2.3h1.4c.2,0,.3,0,.4,0h2.4c.3,0,.6,0,.9.3.2.2.2.3.3.5h0c0,.4,0,.6,0,.8,0,0,0,0,0,.2h-1c-.2,0-.4,0-.6,0h-4.9ZM650.4,786.5h-1c0,0-.3,0-.4,0h0c-.2,0-.3-.3-.4-.4v-.4h0c0-.4.2-.6.3-.8l.2-.2s.2-.2.3-.2.2,0,.3-.2.2,0,.3-.2c.2,0,.4-.3.6-.4s.4-.3.5-.4c.3-.2.5-.5.7-.9,0-.2.2-.5.3-.7,0-.2.2-.4.2-.6s0-.4.2-.5,0-.4.2-.5c0-.2,0-.3,0-.5s0-.3,0-.5v-.6s0,0-.2-.2h-.6c-.3,0-.6.3-.8.5h0c0,0,0,0,0,0,0,.2-.2.3-.3.4l-.2.2-.2.2c0,0-.2.3-.3.5,0,.2-.2.4-.4.5,0,0-.2.2-.3.3,0,0-.2.2-.3.3h-.3l-.2-.2-.2-.2-.2-.2h0v-.4h0v-.5h0v-.2c0-.2.2-.4.4-.6.3-.3.7-.6,1-.8h.3c.2,0,.3-.2.4-.3,0,0,.3-.2.4-.3,0,0,.2-.2.3-.3s.2-.2.4-.2.3-.2.4-.2.3,0,.5,0h.4c.2,0,.3,0,.4,0,.2,0,.4.2.6.3h0c0,0,.2.2.3.4s.2.3.2.5v1c0,.4,0,.8-.2,1.2v.8c0,0,0,.2,0,.3,0,.2,0,.3-.2.4s0,.3-.2.4c0,0,0,.3,0,.4v.4c-.2.2-.2.3-.3.5s0,.3-.2.5c-.2.3-.4.6-.6.8h-.2c0,0-.2.3-.2.3h1.4c.2,0,.3,0,.4,0h2.4c.3,0,.6,0,.9.3.2.2.2.3.3.5h0c0,.4,0,.6,0,.8,0,0,0,0,0,.2h-1c-.2,0-.4,0-.6,0h-4.9ZM665.6,786.5h-.3c0,0-.2,0-.3,0h0c0,0-.2,0-.2-.2h0c0-.3,0-.5,0-.8h0v-1.2h0v-1h0v-.6h0v-.2h0q0-.2,0-.2h-2.6c-.2,0-.4,0-.5.2h-.4s0,0,0,.2v.4s0,.2,0,.3c0,0,0,0-.3,0s-.2,0-.3,0c0,0,0,0,0-.2v-.6s-.2-.2-.2-.3v-.2c-.3-.3-.4-.5-.4-.8s0-.2,0-.2v-.2s0,0,0-.2v-.2c0-.2,0-.5,0-.7,0-.2,0-.5.2-.8s0-.5.2-.8v-.4c.2,0,.2-.3.2-.4,0-.2,0-.4.2-.6s0-.4.2-.6h0c0-.3,0-.4.2-.6s0-.3.2-.5h0v-.3h0c0,0,0-.2.2-.3s0,0,.2,0h1s.2,0,.3.2c.2.2.3.5.3.8s0,.5-.2.7c0,0,0,.2-.2.4s0,.3,0,.4v.3c0,0-.2.2-.2.3h0v.2h0s0,.2,0,.3v.8c0,0,0,.2-.2.4v.9h2.8v-5.3c0,0,0-.2.2-.4,0,0,0-.2.2-.2s0,0,.2-.2h.7v.3h0c0,.2,0,.3,0,.5h0v.2s0,0,0,.2h0v.6h0v.2h0v.4h0v.2h0v2.2c0,.1,0,0,0,0h0v1.1h2.8c0,0,.2,0,.2.2h0v.4h0v.4h-.2c0,.3,0,.3-.2.4h-2.5s0,.2,0,.2h0v.2q0,.1,0,0h0v.3h0v.3h0v.5h0v.4h0v.3h0v.6h0v.2h0q0,0,0,.2h-.2l-.3,1.9ZM666.4,786h0ZM666.8,1037h-1c0,0-.3,0-.4,0h0c-.2,0-.3-.3-.4-.4v-.4h0c0-.4.2-.6.3-.8l.2-.2s.2-.2.3-.2.2,0,.3-.2.2,0,.3-.2c.2,0,.4-.3.6-.4s.4-.3.5-.4c.3-.2.5-.6.7-.9,0-.2.2-.4.3-.7,0-.2.2-.4.2-.6s0-.4.2-.6,0-.4.2-.5c0-.2,0-.3,0-.4v-1s0,0-.2-.2h-.6c-.3,0-.6.3-.8.5h0c0,0,0,0,0,0,0,.2-.2.3-.3.3,0,0,0,0-.2.2,0,0,0,0-.2.2,0,0-.2.3-.3.5,0,.2-.2.4-.4.5,0,0-.2.2-.3.3,0,0-.2.2-.3.3h-.3l-.2-.2s0,0-.2-.2c0,0,0,0-.2-.2h0v-.4h0v-.5h0v-.2c0-.2.2-.4.4-.6.3-.3.7-.6,1-.8h.3c.2,0,.3-.2.4-.3,0,0,.3-.2.4-.3,0,0,.2-.2.3-.3s.2-.2.4-.2.3-.2.4-.2c.2,0,.3,0,.5,0h.4c.1,0,.3,0,.4,0,.2,0,.4.2.6.3h0c0,0,.2.2.3.4s.2.3.2.5v1c0,.4,0,.8-.2,1.2v.8c0,.1,0,.2,0,.3,0,.2,0,.3-.2.4s0,.3-.2.4c0,0,0,.3,0,.4v.4c-.2.2-.2.3-.3.4s0,.3-.2.4c-.2.3-.4.6-.6.8h-.2c0,0-.2.3-.2.3h1.4c.2,0,.3,0,.4,0h2.4c.3,0,.6,0,.9.3.2.2.2.3.3.5h0c0,.4,0,.6,0,.8,0,0,0,0,0,.2h-1c-.2,0-.4,0-.6,0h-4.9ZM676.5,1038.7h-.2q0,0,0-.2h0c0,0,0-.2-.2-.2h0v-.3h0v-.4h0v-.5h0c0-.2,0-.2.2-.3h.8c0,0,.2,0,.3,0h0c0,0,0,0,.2,0,.2,0,.3,0,.5-.2.2,0,.3,0,.5-.2l1.1-.4c.4,0,.8-.3,1.2-.5,0,0,.2,0,.3-.2s.3-.3.3-.4v-2.7c0-.2-.2-.3-.3-.4h-1.2c-.2,0-.5,0-.7.2,0,0-.2,0-.3.2s-.2,0-.3.2v.2c0,0,0,.2,0,.2h0c0,.2,0,0,0,.2,0,0-.3.2-.4,0,0,0-.2,0-.2-.2v-.8c-.2,0-.3-.2-.3-.4v-.8h0v-1c0-.2,0,0,0,0v-3.9h0v-.2s0-.2.2-.3.2-.2.3-.2h4.7l.6.2c.2,0,.3,0,.5.2h.2c0,.3,0,.3.2.4v.2h0v.2h0s0,0,0,.2c0,0,0,0,0,0,0,0,0,0-.2,0h-3.9q-.2,0-.3,0c0,0,0,0,0,.2v2.2h2.4s0,0,.2,0h0c0,0,.2,0,.3,0h.2s.2,0,.3.2h0s0,.2,0,.3v1.1s0,.2,0,.2v.2c0,.2,0,.5,0,.8s0,.5,0,.7v1.2c0,.2,0,.4-.2.6h0c-.2.4-.4.6-.6.8h0c0,0-.3.2-.4.3-.2,0-.3.2-.5.3l-.5.3h-.2c-.2,0-.3,0-.5.2-.2,0-.3,0-.5.2h-.4c-.2,0-.3,0-.5,0-.2,0-.3,0-.5.2l-.5.2c-.2,0-.3,0-.5,0h-.8l-.6,1.1ZM581.8,1024.2h-1c0,0-.3,0-.4,0h0c-.2,0-.3-.3-.4-.4v-.4h0c0-.4.2-.6.3-.8l.2-.2s.2-.2.3-.2.2,0,.3-.2.2,0,.3-.2c.2,0,.4-.3.6-.4s.4-.3.5-.4c.3-.2.5-.5.7-.9,0-.2.2-.5.3-.7,0-.2.2-.4.2-.6s0-.4.2-.5,0-.4.2-.5c0-.2,0-.3,0-.5s0-.3,0-.5v-.6s0,0-.2-.2h-.6c-.3,0-.6.3-.8.5h0c0,0,0,0,0,0,0,.2-.2.3-.3.4l-.2.2-.2.2c0,0-.2.3-.3.5,0,.2-.2.4-.4.5,0,0-.2.2-.3.3,0,0-.2.2-.3.3h-.3l-.2-.2-.2-.2-.2-.2h0v-.4h0v-.5h0v-.2c0-.2.2-.4.4-.6.3-.3.7-.6,1-.8h.3c.2,0,.3-.2.4-.3,0,0,.3-.2.4-.3,0,0,.2-.2.3-.3s.2-.2.4-.2.3-.2.4-.2.3,0,.5,0h.4c.2,0,.3,0,.4,0,.2,0,.4.2.6.3h0c0,0,.2.2.3.4s.2.3.2.5v1c0,.4,0,.8-.2,1.2v.8c0,0,0,.2,0,.3,0,.2,0,.3-.2.4s0,.3-.2.4c0,0,0,.3,0,.4v.4c-.2.2-.2.3-.3.5s0,.3-.2.5c-.2.3-.4.6-.6.8h-.2c0,0-.2.3-.2.3h1.4c.2,0,.3,0,.4,0h2.4c.3,0,.6,0,.9.3.2.2.2.3.3.5h0c0,.4,0,.6,0,.8,0,0,0,0,0,.2h-1c-.2,0-.4,0-.6,0h-4.9ZM597.8,1025.4c-.2,0-.4,0-.6-.2-.2,0-.4,0-.6-.2,0,0-.2,0-.3-.2s-.2,0-.3-.2l-.6-.4h-.3v-.2h-.5c0,0-.3,0-.4-.2s-.2-.2-.4-.2c-.5-.4-.9-.8-1.2-1.2h0c0,0-.2-.5-.2-.5,0,0-.2-.2-.2-.4l-.3-.6c0-.2-.2-.3-.2-.5s0-.3-.2-.5h0v-.2c0,0,0-.2,0-.4h0v-.2h0v-.3c0-.2,0,0,0,0h0v-1.3h0v-.8h0c0-.2.2-.3.2-.5v-.6c0,0,0-.2,0-.2h0v-.5c0,0,0-.3,0-.4,0-.2.2-.3.3-.4l.2-.2c0,0,.2-.2.2-.3h0q0,0,0-.2c0,0,0,0,0,0s0-.2.3-.3c0,0,.2,0,.3-.2s.2,0,.3-.2h.2c0,0,.2-.2.4-.3s.2,0,.4-.2h2s0,0,.2,0c0,0,.2,0,.3.3.2.3.2.5,0,.8h0c0,0-.2,0-.3.2s-.2,0-.3.2h0c-.2.2-.3.2-.5.3,0,0,0,0-.2,0s0,0-.2,0c-.2,0-.4.3-.6.5-.4.4-.8.9-1,1.4,0,0,0,.3-.2.4s0,.2-.2.4h0c0,.2,0,.4-.2.5,0,.2,0,.3,0,.5v.2c0,.2,0,.5,0,.7v1.1c0,.2,0,.4.2.5s0,.4.2.5v.2h0c0,0,0,.3.2.4s0,.2.2.3h0v-1h0v-.2l.2-.4c0,0,0-.2.2-.3,0,0,0-.2.2-.3s.2-.2.2-.3l.4-.4s.2-.2.3-.2.2,0,.3-.2l.4-.2c0,0,.2,0,.4,0s.3,0,.4-.2c0,0,.2-.2.3-.2h0c0,0,0,0,0,0h1.2c.2,0,.5.2.7.4l.4.4h0s0,0,0,.2,0,0,0,.2h0c0,0,0,.2.2.3s0,.2,0,.2h0v.4c0,0,0,.2,0,.3v.5h0v1.7c0,.2,0,.3,0,.4h0s0,0,0,.2v.7c0,.1,0,.2-.2.4,0,.2-.2.3-.4.5,0,0-.2.2-.2.3s-.2.2-.2.3l-.6.7c0,.2-.2.3-.3.5h0c0,0,0,.2,0,.3s0,0-.2,0h-1.2l.9-1.3ZM597.8,1023.6h.3c0,0,0,0,0,0,.2-.3.3-.4.5-.6l.5-.5h0v-.3h0c0-.2,0,0,0,0v-1.5h0v-.7s0-.2,0-.3c0,0,0-.3-.2-.4s0-.2-.2-.4h-.6c0,.2-.3.2-.4.2h-.4c-.1,0-.2,0-.4.2h0c-.2,0-.3,0-.4.2s-.3.2-.4.3l-.2.2c-.1.1,0,.2,0,.2,0,0,0,.2,0,.4s0,.2,0,.3v.6c0,.3.3.6.4.9,0,0,0,0,0,.2s0,0,0,.2h0v.2c0,.2,0,0,0,.2l.4.4c.2.2.5.3.8.4h0v-.2ZM554.4,795.2h-1c0,0-.3,0-.4,0h0c-.2,0-.3-.3-.4-.4v-.4h0c0-.4.2-.6.3-.8l.2-.2s.2-.2.3-.2.2,0,.3-.2.2,0,.3-.2c.2,0,.4-.3.6-.4s.4-.3.5-.4c.3-.2.5-.5.7-.9,0-.2.2-.5.3-.7,0-.2.2-.4.2-.6s0-.4.2-.5,0-.4.2-.5c0-.2,0-.3,0-.5s0-.3,0-.5v-.6s0,0-.2-.2h-.6c-.3,0-.6.3-.8.5h0c0,0,0,0,0,0,0,.2-.2.3-.3.4l-.2.2-.2.2c0,0-.2.3-.3.5,0,.2-.2.4-.4.5,0,0-.2.2-.3.3,0,0-.2.2-.3.3h-.3l-.2-.2-.2-.2-.2-.2h0v-.4h0v-.5h0v-.2c0-.2.2-.4.4-.6.3-.3.7-.6,1-.8h.3c.2,0,.3-.2.4-.3,0,0,.3-.2.4-.3,0,0,.2-.2.3-.3s.2-.2.4-.2.3-.2.4-.2.3,0,.5,0h.4c.2,0,.3,0,.4,0,.2,0,.4.2.6.3h0c0,0,.2.2.3.4s.2.3.2.5v1c0,.4,0,.8-.2,1.2v.8c0,0,0,.2,0,.3,0,.2,0,.3-.2.4s0,.3-.2.4c0,0,0,.3,0,.4v.4c-.2.2-.2.3-.3.5s0,.3-.2.5c-.2.3-.4.6-.6.8h-.2c0,0-.2.3-.2.3h1.4c.2,0,.3,0,.4,0h2.4c.3,0,.6,0,.9.3.2.2.2.3.3.5h0c0,.4,0,.6,0,.8,0,0,0,0,0,.2h-1c-.2,0-.4,0-.6,0h-4.9ZM566.3,795.8h-.5q0-.2-.2-.3s0,0,0-.2,0-.2,0-.4v-.6h0c0,0,0-.2.2-.3s0-.2,0-.3c0-.2,0-.4.2-.5,0-.2,0-.4,0-.5v-2.1s0,0,0,0h-.2s-.2,0-.2,0h-.2s-.2,0-.3,0-.2,0-.3.2h0c-.2,0-.4,0-.5,0-.2-.2-.4-.4-.5-.6v-.4c0-.3,0-.5,0-.8s.2-.2.2-.3h2.5s0,0,0,0h0c0-.2,0-.4,0-.5l.2-.5v-.7c0-.2.2-.5.2-.7v-.4l.2-.7h-.4c-.1,0-.2,0-.4,0h-.2c0,0-.3.2-.4.2s-.3,0-.4.2h-.5s-.2,0-.3.2l-.2.2-.2.2s0,.2-.2.3c0,0-.2.2-.3.2h-1s-.2,0-.2-.2h0c0-.2,0-.3-.2-.4h0v-.6c0-.2.2-.5.4-.6h0l.2-.2h.6c.3,0,.6,0,.9,0h.8c.2,0,.4-.2.6-.2s.4-.2.6-.2h0c0,0,.3,0,.4-.2s.3,0,.4-.2h0c0,0,0,0,0,0v-.2q.2,0,.3,0c.2-.2.5-.3.9-.3s.3,0,.4.2c0,0,.2.2.3.3,0,0,0,.2,0,.3s0,.2,0,.3c0,.2,0,.3,0,.5v.8q0,.1,0,.2v.4s0,0,0,.2h0v.2h0c0,.2,0,0,0,0h0v.4h0v.5c0,.2,0,0-.2,0h0s0,.2,0,.3h0v.7h0v.2c0,.1,0,0,0,0h.5s.2,0,.2.2h0s.2.2.2.3h0v.6h0v.2h-.4s0,0-.2.2c0,0,0,0-.3,0h-.8c-.1,0,0,0,0,0h0v1h0v.3h0v.3h0v.5h0v.5h0v.6h0v.2h0v1.2h0q0,.2,0,.3c0,0,0,0-.2,0h0s0,0-.2,0h-1.1ZM539.7,616.7h-1c0,0-.3,0-.4,0h0c-.2,0-.3-.3-.4-.4v-.4h0c0-.4.2-.6.3-.8l.2-.2s.2-.2.3-.2.2,0,.3-.2.2,0,.3-.2c.2,0,.4-.3.6-.4s.4-.3.5-.4c.3-.2.5-.5.7-.9,0-.2.2-.5.3-.7,0-.2.2-.4.2-.6s0-.4.2-.5,0-.4.2-.5c0-.2,0-.3,0-.5s0-.3,0-.5v-.6s0,0-.2-.2h-.6c-.3,0-.6.3-.8.5h0c0,0,0,0,0,0,0,.2-.2.3-.3.4l-.2.2-.2.2c0,0-.2.3-.3.5,0,.2-.2.4-.4.5,0,0-.2.2-.3.3,0,0-.2.2-.3.3h-.3l-.2-.2-.2-.2-.2-.2h0v-.4h0v-.5h0v-.2c0-.2.2-.4.4-.6.3-.3.7-.6,1-.8h.3c.2,0,.3-.2.4-.3,0,0,.3-.2.4-.3,0,0,.2-.2.3-.3s.2-.2.4-.2.3-.2.4-.2.3,0,.5,0h.4c.2,0,.3,0,.4,0,.2,0,.4.2.6.3h0c0,0,.2.2.3.4s.2.3.2.5v1c0,.4,0,.8-.2,1.2v.8c0,0,0,.2,0,.3,0,.2,0,.3-.2.4s0,.3-.2.4c0,0,0,.3,0,.4v.4c-.2.2-.2.3-.3.5s0,.3-.2.5c-.2.3-.4.6-.6.8h-.2c0,0-.2.3-.2.3h1.4c.2,0,.3,0,.4,0h2.4c.3,0,.6,0,.9.3.2.2.2.3.3.5h0c0,.4,0,.6,0,.8,0,0,0,0,0,.2h-1c-.2,0-.4,0-.6,0h-4.9ZM551.8,617.3h-.9s-.2,0-.2,0c0,0-.3-.2-.4-.3,0,0-.2-.2-.3-.4h0c0,0-.4-.7-.4-.7h0c0,0-.2-.6-.2-.6h0v-2.1c-.2-.2-.2-.4,0-.6,0-.4.2-.8.4-1.1,0-.2.3-.4.5-.6h0v-.2c0-.2.3-.3.5-.5h.2q0-.2.2-.3l.4-.4c0,0,.2-.2.2-.3v-.2l-.2-.2-.2-.2h0c0,0-.2,0-.2,0-.2-.2-.4-.4-.6-.5h0c0-.2-.2-.3-.3-.4,0,0,0-.3-.2-.4h0v-.6c0-.2.2-.3.3-.5l.3-.3c0,0,.2-.2.3-.2s.3,0,.4-.2.3,0,.4-.2c.2,0,.5-.2.8-.3s.5-.2.8-.2h.3c0,0,.2-.2.3-.2h1.5c.2.2.4.3.5.5s.2.3.3.4c0,.2.2.4.2.7h0v.4h.2c.4.4.5.9.4,1.4,0,0,0,.2,0,.2s0,0-.2.2c0,0-.2,0-.3.2s-.2.2-.3.3l-.2.2-.2.2s0,.2-.2.2c0,0-.2,0-.3.2v.4h0l.2.2c.3.2.5.4.7.7v.2c.3.2.3.3.4.6v.8h0v1.7h0l-.2.5c0,0,0,.2,0,.3h0c0,.2,0,.3,0,.4s0,.2-.2.2c-.2.4-.5.7-.8,1.1,0,0,0,0-.2.2,0,0,0,0-.2.2,0,0-.2.2-.3.2-.2,0-.3,0-.5.2-.2,0-.3,0-.5,0h-1l-.5-.2ZM552.5,615.1c.2,0,.3,0,.4-.2h0c0-.2.2-.3.4-.4,0,0,.2-.3.4-.4h0c0-.2.2-.3.2-.4s0-.2.2-.4c0-.2,0-.3,0-.5s0-.3,0-.5v-.6c0-.2,0-.3-.2-.5,0,0-.2-.3-.4-.3h0c0,0-.2-.2-.3-.2s-.2-.2-.3-.3h0c0,0-.2-.2-.3-.2h-.2s-.2,0-.2.2,0,0-.2.2,0,0-.2,0h0v.2h0c0,0,0,0-.2.2h0v.2h0v.5h0v.4h0v.8h0v.3h0c0,0,0,.3.2.3,0,0,.2.2.3.3h.9l-.6,1.3ZM553.2,607.4h.2l.3-.2v-.4l-.2-.2s0,0-.2-.2c0,0,0-.2-.2-.3,0,0,0-.2-.2-.3h-1.1c-.1,0,0,0,0,0h0c.3.2.5.3.7.5l.2.2.2.2.2.2h0l.2.5ZM362.3,604.4h-1.1c-.1,0-.3,0-.4,0h-.1c-.2,0-.3-.3-.4-.4v-.4h0c0-.4.1-.6.3-.8l.2-.2s.2-.2.3-.2.2,0,.3-.2.2,0,.3-.2c.2,0,.4-.3.6-.4s.4-.3.5-.4c.3-.2.5-.5.7-.9,0-.2.2-.5.3-.7,0-.2.2-.4.2-.6s.1-.4.2-.5.1-.4.2-.5c0-.2.1-.3.1-.5v-1.1s0,0-.2-.2h-.6c-.3,0-.6.3-.8.5h-.1c0,0-.1,0-.1,0,0,.2-.2.3-.3.4,0,0-.1,0-.2.2s-.1,0-.2.2c-.1,0-.2.3-.3.5,0,.2-.2.4-.4.5-.1,0-.2.2-.3.3,0,0-.2.2-.3.3h-.3l-.2-.2s-.1,0-.2-.2-.1-.2-.2-.2h0v-.4h0v-.5h0v-.2c0-.2.2-.4.4-.6.3-.3.7-.6,1-.8h.2c.1,0,.3-.2.4-.3s.3-.2.4-.3c.1,0,.2-.2.4-.3s.2-.2.4-.2.3-.2.4-.2.3,0,.5,0h.6c.1,0,.3,0,.4,0,.2,0,.4.2.6.3h.1c.1,0,.2.2.4.4.1,0,.2.3.2.5,0,0,0,.2.1.3s0,.2,0,.3v.4c0,.4,0,.8-.2,1.2v.8c0,0,0,.2-.1.3,0,.2-.1.3-.2.4s-.1.3-.2.4c0,0-.1.3-.1.4v.4c-.2.2-.2.3-.3.5s-.1.3-.2.5c-.2.3-.4.6-.6.8,0,0-.1,0-.1,0v.2h-.1,1.4c.1,0,.3,0,.4,0h2.5c.3,0,.6,0,.9.3.1.2.2.3.3.5h0c0,.4,0,.6-.1.8,0,0-.1,0-.1.2h-1.2c-.2,0-.4,0-.6,0h-5.4ZM377.8,605h-.3c-.1,0-.2,0-.2,0,0,0-.1,0-.2-.2s0-.2-.1-.2h0v-.8h0v-1.4h0v-1.5c.1-.2.1-.5.2-.7v-.7c.1,0,.1-.3.1-.3v-.2h0v-1h0c-.1,0-.3.2-.4.2s-.3,0-.4.2c-.3,0-.6.2-.9.3s-.6,0-.9.2h-.8c-.3.2-.5.2-.8,0h0s-.1,0-.2,0h-.2v-.5h0s-.1,0-.2,0c0,0-.1,0-.2-.2,0,0-.1-.2-.2-.2,0,0-.1-.2-.2-.2h0v-.9l-.2-.5v-.7h0v-.5q0-.2.1-.4c0,0,.1-.2.2-.3s.1-.2.2-.3c0-.2.2-.3.3-.4s.2-.3.2-.4v-.2c.2,0,.2-.2.3-.2h.1l.3-.2h2.3c.2,0,.4,0,.5.2.2,0,.5.2.7.3s.4.2.6.3h0v-.6s0-.2.1-.2h.3q0,0,.1,0c.2,0,.4,0,.5,0h.1c.2,0,.4.2.5.4h0v5.2h0v4.1h0v1.1h0v.7l-.2.6v.7c-.1,0-.2.2-.3.3,0,0-.1,0-.1,0h-.1c0,0-.1,0-.2,0h0l-.4-.7ZM374.5,596.7h2.1c.2,0,.3-.2.3-.5h0v-1c0-.1,0-.2-.1-.4,0-.2-.1-.3-.2-.4s-.2-.2-.4-.3h-.1c-.1,0-.3-.2-.5-.3-.2,0-.3,0-.5-.2h-1.2c-.2,0-.3,0-.4.3v.2q-.1,0-.1,0h0s-.1,0-.2.2c0,0,0,0-.1.2s0,0-.1.2v.2h0v.4c.1,0,.1.2.2.3v.3q0,0,.2.2h.1c.1.2.2.3.3.4h.1c0,0,.1,0,.2.2h.4ZM168.3,581.8h-.4c0,0-.3,0-.4-.2h0s-.1,0-.2,0-.1,0-.2-.2l-.3-.3h0v-.2h0v-.2s0-.2.2-.2c0,0,.1,0,.1,0s0-.2.2-.3c0,0,.2,0,.3-.2.1,0,.3,0,.5,0h.8c0,0,.3,0,.4,0l.4-.2.6-.2c.2,0,.3,0,.4-.2.1,0,.2,0,.3,0l.3-.2s.2,0,.2-.2.1,0,.2-.2c0,0,.1-.2.2-.2,0,0,.1-.3,0-.4v-.4s0-.2-.1-.2,0-.2-.1-.3h0s-.1-.2-.2-.3-.1-.2-.2-.3c0,0-.1,0-.2-.2,0,0-.1,0-.2,0h-.6c-.2,0-.4,0-.5,0h-.5c-.2,0-.3-.2-.5-.2s-.2,0-.3,0h-.1s-.2,0-.4,0h-.5v-.8h0c0-.2,0,0,0,0v-.4c.2-.2.4-.4.6-.6.2-.2.4-.5.5-.7s.4-.4.5-.7c0,0,.2-.2.2-.3v-.2c.2,0,.2,0,.3-.2h0v-.6h-2c-.2,0-.4,0-.6.2-.2,0-.4,0-.6.2h-.9c-.1,0-.3,0-.4.2h-.6c-.1,0-.2,0-.3,0h-.1v-.4c0-.2,0-.4.1-.5,0,0,0,0,.1-.2s.1,0,.2-.2c.2-.2.4-.2.6-.3h5.9c0,0,.1.2.1.2h.1c.1,0,.2.2.3.2,0,0,.1.2.2.3.1.2.2.4.1.6v.4c0,.1,0,.3-.1.4l-.3.6v.4l-.3.3c0,0-.2.3-.2.4s-.2.3-.3.4h0v.2h.6c.2,0,.3,0,.5,0,.2,0,.4,0,.6.2s.4.2.5.3c.3.2.6.5.8.8.1,0,.2.3.3.4s.2.3.3.5l.3.5c.2.4.3.8.3,1.2v.8c0,0,0,.3-.1.4s-.1.2-.2.4c0,0-.2.2-.2.3s-.1.2-.3.3h0s-.1,0-.2.2c0,0-.1,0-.2.2,0,0-.1,0-.2,0s-.1,0-.2,0c-.2.2-.4.2-.6.2h-.5l-.5.2h-.4c-.1,0-.3,0-.4,0-.1,0-.3,0-.4,0s-.3,0-.4.2l-.2.2s-.1,0-.1,0h-.3l-1.1-.2ZM180.4,581.6h-.8c-.3,0-.6,0-.9-.2h-.2c-.1,0-.2,0-.3-.2-.1,0-.2,0-.3,0,0,0-.2,0-.3,0s-.2,0-.3,0h0c0,0-.2-.2-.3-.2,0,0-.2,0-.3,0-.1,0-.2,0-.3-.2s-.2-.2-.3-.2h0c0,0-.1-.2-.2-.3s-.1-.2-.2-.3v-.3c-.1,0-.2,0-.2-.2v-2.2h0v-.6h0v-.2c0,0,0-.2.1-.3s0-.2.1-.3v-.2h0v-.2h.2v-.6c0-.2,0-.3.2-.5,0,0,.1,0,.1-.2h0v-.2c.1-.2.2-.3.2-.5s.1-.3.2-.5h0s0-.2.2-.2h0s.1,0,0-.2h0c0-.3,0-.4.1-.4h.1s.1,0,.2-.2,0,0,.1,0h0c0,0,0-.2.2-.3h0s-.1,0-.2-.2c0,0-.1,0-.2-.2,0,0-.1,0-.1-.2,0,0,0,0-.1-.2h0v-.3h0v-.3h0v-.2h.1s.1,0,.1,0h.7c.1,0,.2,0,.3,0,.1,0,.2,0,.3,0h.4s.1,0,.1,0h.1c.1-.2.2-.3.4-.3h.9s0,0,.1,0h.4c0,0,.2,0,.2,0h0c0,0,0,.2.1.2h0v.2c0,.2-.2.4-.4.5h-.3s.1,0,.2.2c0,0,.1,0,.2.2,0,0,.1.2.2.2,0,0,.1.2.2.2,0,0,0,.2.1.2l.2.2.2.3s.1.2.2.3.1.2.2.3c.1.2.2.3.3.5s.2.3.3.5c.2.3.3.7.5,1,.1.2.2.5.3.8s.1.5.2.8l.2.8v.6c0,.2-.1.4-.2.6,0,.2-.2.5-.3.7,0,.2-.1.3-.2.5s-.1.3-.2.5c-.1.2-.2.4-.4.6,0,0-.1,0-.1.2s0,0-.1.2c0,0-.1,0-.2.2,0,0-.1,0-.2.2l-.2.2s-.2,0-.3.2-.2,0-.3.2c-.2,0-.4.2-.6.2s-.5,0-.8,0h-.5l1.1-.5ZM179.9,579.7h1.2c.1,0,.3,0,.5-.2,0,0,.1,0,.2,0,0,0,.2-.2.4-.3h.1c0,0,.1-.2.1-.3,0,0,0,0,.1-.2l.2-.5c0-.2.1-.3.2-.5,0-.2.1-.4.1-.5h0v-.5c0-.2,0-.3-.1-.5v-.5c-.1-.2-.2-.5-.3-.7s-.2-.4-.3-.7c0-.2-.2-.3-.3-.5,0-.2-.2-.3-.3-.5,0,0,0-.2-.1-.2,0,0-.1-.2-.2-.3,0,0-.1-.2-.2-.3l-.5-.7c0,0-.1-.2-.2-.3s-.1-.2-.2-.2h-.1l-.5.7c-.4.5-.7,1.1-1,1.8,0,.2-.2.4-.3.7s-.2.5-.3.7c0,.2-.2.5-.3.8s-.2.5-.2.8c-.1.3-.2.7-.2,1h0v.7c0,.2.2.4.3.6l.4.3c.1,0,.2.2.4.3s.3.2.4.2c.2,0,.3,0,.5.2s.4,0,.5,0h0v-.3ZM164.4,738.6h-.4c0,0-.3,0-.4-.2h0s-.1,0-.2,0-.1,0-.2-.2l-.3-.3h0v-.2h0v-.2s0-.2.2-.2c0,0,.1,0,.1,0s0-.2.2-.3c0,0,.2,0,.3-.2.1,0,.3,0,.5,0h.8c0,0,.3,0,.4,0l.4-.2.6-.2c.2,0,.3,0,.4-.2.1,0,.2,0,.3,0l.3-.2s.2,0,.2-.2.1,0,.2-.2c0,0,.1-.2.2-.2,0,0,.1-.3,0-.4v-.4s0-.2-.1-.2,0-.2-.1-.3h0s-.1-.2-.2-.3-.1-.2-.2-.3c0,0-.1,0-.2-.2,0,0-.1,0-.2,0h-.6c-.2,0-.4,0-.5,0h-.5c-.2,0-.3-.2-.5-.2s-.2,0-.3,0h-.1s-.2,0-.4,0h-.5v-.8h0c0-.2,0,0,0,0v-.4c.2-.2.4-.4.6-.6.2-.2.4-.5.5-.7s.4-.4.5-.7c0,0,.2-.2.2-.3v-.2c.2,0,.2,0,.3-.2h0v-.6h-2c-.2,0-.4,0-.6.2-.2,0-.4,0-.6.2h-.9c-.1,0-.3,0-.4.2h-.6c-.1,0-.2,0-.3,0h-.1v-.4c0-.2,0-.4.1-.5,0,0,0,0,.1-.2s.1,0,.2-.2c.2-.2.4-.2.6-.3h5.9c0,0,.1.2.1.2h.1c.1,0,.2.2.3.2,0,0,.1.2.2.3.1.2.2.4.1.6v.4c0,.1,0,.3-.1.4l-.3.6v.4l-.3.3c0,0-.2.3-.2.4s-.2.3-.3.4h0v.2h.6c.2,0,.3,0,.5,0,.2,0,.4,0,.6.2s.4.2.5.3c.3.2.6.5.8.8.1,0,.2.3.3.4s.2.3.3.5l.3.5c.2.4.3.8.3,1.2v.8c0,0,0,.3-.1.4s-.1.2-.2.4c0,0-.2.2-.2.3s-.1.2-.3.3h0s-.1,0-.2.2c0,0-.1,0-.2.2,0,0-.1,0-.2,0s-.1,0-.2,0c-.2.2-.4.2-.6.2h-.5l-.5.2h-.4c-.1,0-.3,0-.4,0-.1,0-.3,0-.4,0s-.3,0-.4.2l-.2.2s-.1,0-.1,0h-.3l-1.1-.2ZM173.4,738.6h-.5c-.1,0,0,0,0,0h0s-.1,0-.1,0v-1.4h0v-3.9h0v-3.1h0v-1.7c0-.2-.1-.5,0-.7,0,0,0-.2.1-.3h0s.1,0,.1,0,0,0,0,0h.5s.1,0,.2.2c0,0,0,.2.1.3s0,.2,0,.3v1.3h0v2.1h0v3.5h0v.3h0v1.9h0v.8h0v.3s0,0-.1.2h0s-.2,0-.2.2c-.1,0-.2,0-.4,0h.3ZM151.5,982.5h-.4c0,0-.3,0-.4-.2h0s-.1,0-.2,0-.1,0-.2-.2l-.3-.3h0v-.2h0v-.2s0-.2.2-.2c0,0,.1,0,.1,0s0-.2.2-.3c0,0,.2,0,.3-.2.1,0,.3,0,.5,0h.8c0,0,.3,0,.4,0l.4-.2.6-.2c.2,0,.3,0,.4-.2.1,0,.2,0,.3,0l.3-.2s.2,0,.2-.2.1,0,.2-.2c0,0,.1-.2.2-.2,0,0,.1-.3,0-.4v-.4s0-.2-.1-.2,0-.2-.1-.3h0s-.1-.2-.2-.3-.1-.2-.2-.3c0,0-.1,0-.2-.2,0,0-.1,0-.2,0h-.6c-.2,0-.4,0-.5,0h-.5c-.2,0-.3-.2-.5-.2s-.2,0-.3,0h-.1s-.2,0-.4,0h-.5v-.8h0c0-.2,0,0,0,0v-.4c.2-.2.4-.4.6-.6.2-.2.4-.5.5-.7s.4-.4.5-.7c0,0,.2-.2.2-.3v-.2c.2,0,.2,0,.3-.2h0v-.6h-2c-.2,0-.4,0-.6.2-.2,0-.4,0-.6.2h-.9c-.1,0-.3,0-.4.2h-.6c-.1,0-.2,0-.3,0h-.1v-.4c0-.2,0-.4.1-.5,0,0,0,0,.1-.2s.1,0,.2-.2c.2-.2.4-.2.6-.3h5.9c0,0,.1.2.1.2h.1c.1,0,.2.2.3.2,0,0,.1.2.2.3.1.2.2.4.1.6v.4c0,.1,0,.3-.1.4l-.3.6v.4l-.3.3c0,0-.2.3-.2.4s-.2.3-.3.4h0v.2h.6c.2,0,.3,0,.5,0,.2,0,.4,0,.6.2s.4.2.5.3c.3.2.6.5.8.8.1,0,.2.3.3.4s.2.3.3.5l.3.5c.2.4.3.8.3,1.2v.8c0,0,0,.3-.1.4s-.1.2-.2.4c0,0-.2.2-.2.3s-.1.2-.3.3h0s-.1,0-.2.2c0,0-.1,0-.2.2,0,0-.1,0-.2,0s-.1,0-.2,0c-.2.2-.4.2-.6.2h-.5l-.5.2h-.4c-.1,0-.3,0-.4,0-.1,0-.3,0-.4,0s-.3,0-.4.2l-.2.2s-.1,0-.1,0h-.3l-1.1-.2ZM161.3,981.7h-1.1c-.1,0-.3,0-.4,0h-.1c-.2,0-.3-.3-.4-.4v-.4h0c0-.4.1-.6.3-.8l.2-.2s.2-.2.3-.2.2,0,.3-.2c.1,0,.2,0,.3-.2.2,0,.4-.3.6-.4s.4-.3.5-.4c.3-.2.6-.5.7-.9,0-.2.2-.5.3-.7,0-.2.2-.4.2-.6s.1-.4.2-.5.1-.4.2-.5c0-.2.1-.3.1-.5v-1.1s0,0-.2-.2h-.6c-.3,0-.6.3-.8.5h-.1c0,0-.1,0-.1,0,0,.2-.2.3-.3.4,0,0-.1,0-.2.2s-.1,0-.2.2c-.1,0-.2.3-.3.5,0,.2-.2.4-.4.5-.1,0-.2.2-.3.3,0,0-.2.2-.3.3h-.3l-.2-.2s-.1,0-.2-.2-.1-.2-.2-.2h0v-.4h0v-.5h0v-.2c0-.2.2-.4.4-.6.3-.3.7-.6,1-.8h.2c.1,0,.3-.2.4-.3s.3-.2.4-.3c.1,0,.2-.2.4-.3s.2-.2.4-.2.3-.2.4-.2.3,0,.5,0h.6c.1,0,.3,0,.4,0,.2,0,.4.2.6.3h.1c.1,0,.2.2.4.4s.2.3.2.5c0,0,0,.2.1.3v.7c0,.4,0,.8-.2,1.2v.8c0,0,0,.2-.1.3,0,.2-.1.3-.2.4s-.1.3-.2.4c0,0-.1.3-.1.4v.4c-.2.2-.2.3-.3.5,0,.2-.1.3-.2.5-.2.3-.4.6-.6.8,0,0-.1,0-.1,0v.2h-.1,1.4c.1,0,.3,0,.4,0h2.5c.3,0,.6,0,.9.3.1.2.2.3.3.5h0c0,.4,0,.6-.1.8,0,0-.1,0-.1.2h-1.2c-.2,0-.4,0-.6,0h-5.4ZM654.1,611.2h-1c0,0-.3,0-.4,0h0c-.2,0-.3-.3-.4-.4v-.4h0c0-.4.2-.6.3-.8l.2-.2s.2-.2.3-.2.2,0,.3-.2.2,0,.3-.2c.2,0,.4-.3.6-.4s.4-.3.5-.4c.3-.2.5-.5.7-.9,0-.2.2-.5.3-.7,0-.2.2-.4.2-.6s0-.4.2-.5,0-.4.2-.5c0-.2,0-.3,0-.5s0-.3,0-.5v-.6s0,0-.2-.2h-.6c-.3,0-.6.3-.8.5h0c0,0,0,0,0,0,0,.2-.2.3-.3.4l-.2.2-.2.2c0,0-.2.3-.3.5,0,.2-.2.4-.4.5,0,0-.2.2-.3.3,0,0-.2.2-.3.3h-.3l-.2-.2-.2-.2-.2-.2h0v-.4h0v-.5h0v-.2c0-.2.2-.4.4-.6.3-.3.7-.6,1-.8h.3c.2,0,.3-.2.4-.3,0,0,.3-.2.4-.3,0,0,.2-.2.3-.3s.2-.2.4-.2.3-.2.4-.2.3,0,.5,0h.4c.2,0,.3,0,.4,0,.2,0,.4.2.6.3h0c0,0,.2.2.3.4s.2.3.2.5v1c0,.4,0,.8-.2,1.2v.8c0,0,0,.2,0,.3,0,.2,0,.3-.2.4s0,.3-.2.4c0,0,0,.3,0,.4v.4c-.2.2-.2.3-.3.5s0,.3-.2.5c-.2.3-.4.6-.6.8h-.2c0,0-.2.3-.2.3h1.4c.2,0,.3,0,.4,0h2.4c.3,0,.6,0,.9.3.2.2.2.3.3.5h0c0,.4,0,.6,0,.8,0,0,0,0,0,.2h-1c-.2,0-.4,0-.6,0h-4.9ZM666.6,612h-.4c-.1,0-.3,0-.4-.2h0s0,0-.2,0c0,0,0,0-.2-.2l-.3-.3h0v-.2h0v-.2s0-.2.2-.2c0,0,0,0,0,0s0-.2.2-.3c0,0,.2,0,.3-.2.2,0,.3,0,.5,0h.8c.1,0,.3,0,.5,0l.5-.2.6-.2c.2,0,.3,0,.4-.2,0,0,.2,0,.3,0l.3-.2s.2,0,.2-.2,0,0,.2-.2l.2-.2c0,0,0-.3,0-.4v-.9h0s-.2-.2-.2-.3c0,0,0-.2-.2-.3l-.2-.2c-.1-.1,0,0-.2,0h-.8c-.2,0-.3,0-.5,0h-.5c-.2,0-.3-.2-.5-.2s-.2,0-.3,0h0s-.2,0-.4,0h-.5v-.8h0c0-.2,0,0,0,0v-.4l.6-.6c.2-.2.3-.5.5-.7s.3-.4.5-.7c0,0,.2-.2.2-.3l.2-.2s0,0,0-.2h0v-.6h-2c-.2,0-.4,0-.6.2-.2,0-.4,0-.6.2h-.8c-.1,0,0,0,0,0s-.3,0-.4.2h-.6c0,0-.2,0-.3,0h0v-.9s0,0,0-.2,0,0,.2-.2c.2-.2.4-.2.6-.3h5.9c0,0,0,.2,0,.2h0c0,0,.2.2.3.2s0,.2.2.3c.2.2.2.4,0,.6v.4c0,.1,0,.3-.2.4l-.3.6v.4l-.3.3c0,0-.2.3-.2.4s-.2.3-.3.4h0v.2c0,.1,0,0,0,0h.5c.2,0,.3,0,.5,0,.2,0,.4,0,.6.2s.4.2.5.3c.3.2.6.5.8.8,0,0,.2.3.3.4,0,.2.2.3.3.5l.3.5c.2.4.3.8.3,1.2v.8c0,0,0,.3-.2.4s0,.2-.2.4c0,0-.2.2-.2.3s-.2.2-.3.3h0s0,0-.2.2c0,0,0,0-.2.2,0,0,0,0-.2,0s0,0-.2,0c-.2.2-.4.2-.6.2h-.5l-.5.2h-.4c0,0-.3,0-.4,0,0,0-.3,0-.4,0s-.3,0-.4.2l-.2.2h0c0,0-.2,0-.3,0h0l-1.2-.2ZM837.5,400.4h-.8s-.2-.1-.2-.2,0-.2,0-.3,0-.2,0-.3v-1.6h0v-1.7c0-.1,0-.2,0-.3s0-.2,0-.3v-2.7h0v-.2h0v-2.1c.2,0,.2-.2.3-.2s0-.1.2-.2h.4s.2,0,.2.1c.2,0,.3.2.3.4v.2c0,0,.2.1.2.2v1.9h0v.3h0v.9h0v.2h0v1.3h0v.4h0v2.2h0v1.4h0c0,.2,0,.1,0,.1v.2c0,.2-.3.3-.5.5h0l.2-.2ZM843.9,401.4h-.3c0,0,0,0,0,0h-.2q0-.2-.2-.3s0,0,0-.2,0-.2,0-.4v-.6h0c0-.1,0-.2.2-.3v-.3c0-.2,0-.4.2-.5,0-.2,0-.4,0-.5v-2.2s0-.1,0-.1h-.2s-.2,0-.2.1-.2,0-.2,0c0,0-.2,0-.3.1s-.2.1-.3.2h0c-.2.1-.4.1-.5,0-.2-.2-.4-.4-.5-.6h0v-.2c0-.3,0-.5,0-.8s.2-.2.2-.3h0s0-.1.2-.1h2.3s0,0,0-.1h0c0-.3,0-.5,0-.6l.2-.5v-.7c0-.2.2-.5.2-.7v-.4l.2-.7h0c0,0-.3,0-.4.1s-.2,0-.4.1h-.2c0,.1-.3.1-.4.2s-.3.1-.4.2h-.5c0,0,0,0,0,0,0,0-.2.1-.3.2l-.2.2s0,.1-.2.2c0,0,0,.2-.2.3,0,.1-.2.2-.3.2s-.3,0-.4.1-.3,0-.4,0h-.2s-.2,0-.2-.2c0,0,0-.1,0-.1,0-.1,0-.2-.2-.3h0v-.6c0-.2.2-.5.4-.6h0l.2-.2h.6c.3,0,.6,0,.9-.1h.8c.2,0,.4-.2.6-.2s.4-.2.6-.2h0v-.2c0,0,.3-.1.4-.2s.3-.1.4-.2h0c0,0,0,0,0,0h0q0-.2,0-.3c.2-.2.5-.3.9-.3s.3,0,.4.2c0,0,.2.2.3.3,0,0,0,.2,0,.3s0,.2,0,.3c0,.1,0,.3,0,.5v.8q0,.1,0,.2v.4s0,.1,0,.2h0v.3h0v.2h0v.4h0q0,.1-.2.2h0s0,.2,0,.3h0v.6h0v.2h0q0,.1,0,.1h.4s.2,0,.2.2h0c0,.1.2.3.2.4h0v.6h0v.2h0s-.2.1-.3,0h0s0,.1-.2.2c0,0,0,.1-.3.1h-.8c-.1,0,0,0,0,0h0v1h0v.3h0v.3h0v.6h0c0,.1,0,.6,0,.6h0v.7h0v.2h0v1.2h0q0,.2,0,.3c0,0,0,0-.2.1h0s0,0-.2.1,0,0-.2,0h-.9Z"/>
  </g>
  <g id="palle">
    <circle class="cls-1" cx="487.6" cy="315.2" r="6"/>
    <circle class="cls-1" cx="513.5" cy="168.5" r="6"/>
    <circle class="cls-1" cx="580.2" cy="83.4" r="6"/>
    <circle class="cls-1" cx="678.2" cy="59" r="6"/>
    <circle class="cls-1" cx="774.4" cy="105.5" r="6"/>
    <circle class="cls-1" cx="837.5" cy="180.4" r="6"/>
    <circle class="cls-1" cx="877.7" cy="269.3" r="6"/>
    <circle class="cls-1" cx="902.8" cy="387.2" r="6"/>
    <circle class="cls-1" cx="924.8" cy="581.2" r="6"/>
    <circle class="cls-1" cx="944.2" cy="744.4" r="6"/>
    <circle class="cls-1" cx="896.9" cy="824.5" r="6"/>
    <circle class="cls-1" cx="875.6" cy="605" r="6"/>
    <circle class="cls-1" cx="857.5" cy="420.4" r="6"/>
    <circle class="cls-1" cx="791.3" cy="587.1" r="6"/>
    <circle class="cls-1" cx="743.5" cy="812.6" r="6"/>
    <circle class="cls-1" cx="743.5" cy="986.9" r="6"/>
    <circle class="cls-1" cx="716.4" cy="998.8" r="6"/>
    <circle class="cls-1" cx="690.5" cy="812.6" r="6"/>
    <circle class="cls-1" cx="662.5" cy="625.5" r="6"/>
    <circle class="cls-1" cx="635.8" cy="789.9" r="6"/>
    <circle class="cls-1" cx="656.5" cy="1016" r="6"/>
    <circle class="cls-1" cx="613.5" cy="1004.8" r="6"/>
    <circle class="cls-1" cx="583.5" cy="783.9" r="6"/>
    <circle class="cls-1" cx="567.3" cy="599" r="6"/>
    <circle class="cls-1" cx="104.1" cy="544.4" r="6"/>
    <circle class="cls-1" cx="333.2" cy="407.9" r="6"/>
    <circle class="cls-1" cx="156.8" cy="556.3" r="6"/>
    <circle class="cls-1" cx="371.9" cy="575.4" r="6"/>
    <circle class="cls-1" cx="144.9" cy="728.5" r="6"/>
    <circle class="cls-1" cx="133.4" cy="971.1" r="6"/>
    <circle class="cls-1" cx="98.1" cy="962.4" r="6"/>
    <circle class="cls-1" cx="94.9" cy="728.5" r="6"/>
  </g>
</svg>