<?xml version="1.0" encoding="UTF-8"?>
<svg id="Layer_1" data-name="Layer 1" xmlns="http://www.w3.org/2000/svg" version="1.1" viewBox="0 0 1080 1080">
  <defs>
    <style>
      .cls-1 {
        fill: #10069f;
        stroke-width: 0px;
      }
    </style>
  </defs>
  <g id="numeri">
    <path class="cls-1" d="M227.6,781.2h-.8s-.1-.2-.2-.2c0,0,0-.2-.1-.3s0-.2,0-.3v-1.6h0v-1.7c0,0,0-.2-.1-.3v-3h0v-1.8s0-.2.1-.3v-.2c.1,0,.2-.2.3-.2s.1,0,.2-.2h.4s.1,0,.2,0c.2,0,.3.2.3.4v.2c.1,0,.2,0,.2.2v1.9h0v.2h0v.7c0,0,0,0,0,0h0v1.3h0v.4c0,.1,0,0,0,0v2.1h0v1.5h0v.3c-.1.2-.3.3-.6.5h-.1l.2.2ZM229.6,562h-1.1c-.1,0-.3,0-.4,0h-.1c-.2,0-.3-.3-.4-.4v-.4h0c0-.4.1-.6.3-.8l.2-.2s.2-.2.3-.2.2,0,.3-.2c.1,0,.2,0,.3-.2.2,0,.4-.3.6-.4s.4-.3.5-.4c.3-.2.6-.5.7-.9,0-.2.2-.5.3-.7,0-.2.2-.4.2-.6s.1-.4.2-.5.1-.4.2-.5c0-.2.1-.3.1-.5v-1.1s0,0-.2-.2h-.6c-.3,0-.6.3-.8.5h-.1c0,0-.1,0-.1,0,0,.2-.2.3-.3.4,0,0-.1,0-.2.2s-.1,0-.2.2c-.1,0-.2.3-.3.5,0,.2-.2.4-.4.5-.1,0-.2.2-.3.3,0,0-.2.2-.3.3h-.3l-.2-.2s-.1,0-.2-.2-.1-.2-.2-.2h0v-.4h0v-.5h0v-.2c0-.2.2-.4.4-.6.3-.3.7-.6,1-.8h.2c.1,0,.3-.2.4-.3s.3-.2.4-.3c.1,0,.2-.2.4-.3s.2-.2.4-.2.3-.2.4-.2.3,0,.5,0h.6c.1,0,.3,0,.4,0,.2,0,.4.2.6.3h.1c.1,0,.2.2.4.4s.2.3.2.5c0,0,0,.2.1.3v.7c0,.4,0,.8-.2,1.2v.8c0,0,0,.2-.1.3,0,.2-.1.3-.2.4s-.1.3-.2.4c0,0-.1.3-.1.4v.4c-.2.2-.2.3-.3.5s-.1.3-.2.5c-.2.3-.4.6-.6.8,0,0-.1,0-.1,0v.2h-.1,1.4c.1,0,.3,0,.4,0h2.5c.3,0,.6,0,.9.3.1.2.2.3.3.5h0c0,.4,0,.6-.1.8,0,0-.1,0-.1.2h-1.2c-.2,0-.4,0-.6,0h-5.4ZM242.5,360.9h-.4c0,0-.3,0-.4-.2h0s-.1,0-.2-.1c0,0-.1-.1-.2-.1l-.3-.3h0v-.2h0v-.2s0-.1.2-.2c0,0,.1,0,.1-.1s0-.2.2-.3c0,0,.2-.1.3-.2.1,0,.3-.1.5-.1h.8c0,0,.3,0,.4-.1h.4c0-.1.6-.4.6-.4.2,0,.3-.1.4-.2.1,0,.2,0,.3-.1h.3c0-.2.2-.2.2-.3s.1-.1.2-.2c0,0,.1-.2.2-.2,0-.1.1-.3,0-.4v-.4c0-.1,0-.2-.1-.2s0-.2-.1-.3h0c0-.1-.1-.3-.2-.4s-.1-.2-.2-.3c0,0-.1-.1-.2-.2,0,0-.1,0-.2-.1h-.6c-.2,0-.4,0-.5-.1h-.5c-.2-.1-.3-.2-.5-.2s-.2-.1-.3-.1h-.1s-.2,0-.4-.1h-.5v-.8h0c0-.2,0-.1,0-.1v-.2h0c.1-.4.3-.5.5-.7s.4-.5.5-.7.4-.4.5-.6c0-.1.2-.2.2-.3v-.2c.2,0,.2-.1.3-.2h0v-.6h-2c-.2,0-.4.1-.6.2-.2,0-.4.1-.6.2,0,0-.2,0-.3.1s-.2,0-.3,0h-.3c-.1,0-.3.1-.4.2h-.6c-.1,0-.2,0-.3-.1h-.1v-.4c0-.2,0-.4.1-.5,0,0,0-.1.1-.2,0,0,.1-.1.2-.2.2-.1.4-.2.6-.3h4c.1,0,.2,0,.3-.1s.1,0,.2,0h1.4c0,.1.1.2.1.2h.1c.1,0,.2.2.3.2s.1.2.2.3c.1.2.2.4.1.6v.4c0,.1,0,.3-.1.4l-.3.6v.4l-.3.3c0,.1-.2.3-.2.4s-.2.3-.3.4h0v.2h.1c.2,0,.3,0,.5.1.2,0,.3.1.5.1s.4.1.6.2.4.2.5.3c.3.2.6.5.8.8.1.1.2.3.3.4s.2.3.3.5l.3.5c.2.4.3.8.3,1.2v.9c0,.1,0,.3-.1.4s-.1.2-.2.4c0,0-.2.2-.2.3s-.1.2-.3.3h0s-.1.1-.2.1-.1.1-.2.1c0,0-.1,0-.2.1s-.1,0-.2.1c-.2.1-.4.2-.6.2h-.5l-.5.2h-.4c-.1,0-.3.1-.4.1s-.3,0-.4.1-.3.1-.4.2l-.2.2s-.1,0-.1.1h-.3l-1-.5ZM277.3,197.6h-.3c-.1,0-.2,0-.3-.1h-.1c-.1,0-.2-.1-.2-.2h0c-.1-.3-.1-.5-.1-.8h0v-1.1h0v-1h0v-.7h0v-.2h0q0-.2-.1-.2h-2.7c-.2,0-.4,0-.5.2,0,0-.1,0-.2.1,0,0-.1,0-.2.1,0,0-.1.1-.1.2v.4c0,0,0,.2-.1.3,0,0-.1.1-.3.1s-.2,0-.3-.1c0,0,0-.1-.1-.2v-.6c-.1,0-.1-.2-.2-.3v-.2c-.3-.3-.4-.6-.4-.8v-.4s.1-.1.1-.2v-.2c0-.2,0-.5.1-.7,0-.2.1-.5.2-.8s.1-.5.2-.8v-.4c.2-.1.2-.3.2-.4,0-.2.1-.4.2-.6s.1-.4.2-.6h0c0-.3.1-.4.2-.6s.1-.3.2-.5h0v-.3h0c0-.1.1-.2.2-.3s.1,0,.2-.1h.8s.1,0,.2.1c0,0,.2.1.3.2.2.2.3.5.3.8s0,.5-.2.7c0,.1-.1.2-.1.4s0,.3-.1.4v.3c-.1.1-.2.2-.2.3h0v.2h0s-.1.2-.1.3v.8c0,.1-.1.2-.2.4v.9c-.1,0,0,0,0,0h2.8v-5.2c0-.1,0-.2.2-.4,0,0,0-.2.2-.2s.1-.1.2-.2h.8v.3h0c0,.2.1.3.1.5h0v.2s.1.1,0,.2h0v.6h0v.2h0v.4h0v.2h0v3.4h0c0,.1.5.1.5.1h2s.2,0,.3.1.1.1.2.2h0s0,.1.1.2,0,.1,0,.2h0v.4h0c0,.1-.1.1-.2.2h-.1c0,.2-.1.2-.2.3h-2.5c0,.2,0,.3-.1.3h0v.2h0v.2h0v.2h0v.3h0v.5h0s0,.1.1.2,0,.1,0,.2,0,0,0,0h0v.3h0v.9h-.2q0,.1-.1.2h-.2l-.4,1ZM278.1,197.1h0ZM335.3,103.3h0s-.2,0-.2,0l-.2-.2h0l-.2-.2v-.6c0-.2,0-.3.2-.4.2-.2.4-.3.7-.3h.8c.2,0,.4,0,.6-.2.2,0,.4,0,.6-.2.3-.2.6-.3,1-.4s.6-.3.9-.5c.1,0,.3,0,.4-.2s.2,0,.4-.2c.3-.2.5-.4.7-.7.1-.2.2-.4.1-.7v-.4c0,0-.1-.2-.2-.3,0,0-.1-.2-.2-.3,0,0-.1,0-.1-.2,0,0,0,0-.1-.2,0,0,0,0-.1-.2h-.1q0-.2-.1-.2h-3.7s-.2,0-.2.2h-.6c-.2,0-.3.3-.4.5v.2c-.1,0-.2.2-.3.2h-.3s-.1,0-.1-.2v-.4c0-.2,0-.3-.1-.4,0-.2-.1-.3-.1-.5v-3.8h0v-2.8h0c.1-.3.3-.4.5-.5h6.4c0,0,0,.2.1.3,0,0,0,0,.1.2h0v.2c0,0,0,0,0,0h0v.2h0v.2c-.1,0-.2.2-.4.3,0,0-.1,0-.2,0,0,0-.1,0-.2,0h-4.4v3.3h4.4c.2,0,.5.2.7.3l.5.4c.1,0,.2,0,.3.2.1,0,.3.3.4.4s.2.3.3.4c0,0,0,0,.1.2.2.3.4.6.4,1v1.8c-.2.3-.4.5-.6.8l-.2.2-.2.2h-.2c0,0-.1,0-.2.3l-.2.2c-.1,0-.2,0-.3,0h-.1c0,0-.2,0-.2.2s-.1,0-.2.2h-.2c-.1.2-.2.2-.4.3-.1,0-.2,0-.4.2l-.9.4h-.6c-.2,0-.4,0-.5.2-.2,0-.4,0-.5.2h-.6l-1.6,1.1ZM479.6,79.2c-.2,0-.4,0-.6-.2-.2,0-.4,0-.6-.2,0,0-.2,0-.3-.2s-.2,0-.3-.2l-.6-.4h-.3c0,0,0-.2-.1-.2h-.5c-.1,0-.3,0-.4-.2s-.2-.2-.4-.2c-.5-.4-.9-.8-1.2-1.2h-.1c0,0-.2-.5-.2-.5,0,0-.1-.2-.2-.4l-.3-.6c0-.2-.2-.3-.2-.5s-.1-.3-.2-.5h0v-.2c0,0,0-.2-.1-.4h0v-.2h0v-.2h0v-1.4h0v-1h0c.1-.2.2-.3.2-.5v-.6c0,0,0-.2.1-.2h.1v-.5c0,0,0-.3.1-.4,0-.2.1-.3.3-.4l.2-.2c.1,0,.2-.2.2-.3h.1q0,0,.1-.2c.1,0,0,0,0,0s.1-.2.3-.3c.1,0,.2,0,.3-.2.1,0,.2,0,.3-.2h.2c.1,0,.2-.2.4-.3s.2,0,.4-.2h1.7s.1,0,.2,0c.1,0,.2,0,.3.3.2.3.2.6,0,.8h-.1c-.1,0-.2,0-.3.2-.1,0-.2,0-.3.2h-.1c-.1,0-.3.2-.5.3,0,0-.1,0-.2,0s-.1,0-.2,0c-.2,0-.4.3-.6.5-.4.4-.8.9-1,1.4,0,0-.1.3-.2.4s-.1.2-.2.4h0c0,.2,0,.3-.1.5s-.1.3-.1.5v.2c-.1.2-.1.4-.1.7v1.1c.1.2.1.4.2.6s.1.4.2.5v.2h0c0,0,.1.3.2.4s.1.2.2.3h0v-1h0v-.2l.2-.4c0,0,.1-.2.2-.3,0,0,.1-.2.2-.3s.2-.2.2-.3l.4-.4s.2-.2.3-.2.2,0,.3-.2l.4-.2c.1,0,.2,0,.4,0s.3,0,.4-.2c0,0,.2-.2.3-.2h.1c.1,0,0,0,0,0h1.2c.2,0,.5.2.7.4l.4.4h0s0,0,.1.2,0,0,.1.2h0c0,.2.1.2.2.3s0,.2.1.2h0v.4c0,0,0,.2.1.3v.5h0v1.7c0,.2,0,.3.1.4h0s.1,0,.1.2v.7c0,0,0,.2-.1.4,0,.2-.2.3-.4.5,0,0-.2.2-.2.3s-.2.2-.2.3l-.6.7c-.1.2-.2.3-.3.5h0c0,0,0,.2-.1.3s-.1,0-.2,0h-1.2l1.1-1.2ZM479.7,77.4h.2s.1,0,.1,0h.1c.2-.3.3-.4.5-.6s.3-.3.5-.5h.1v-.3h0c0-.2,0,0,0,0v-.5c0,0,0-.3.1-.5v-.5h.1v-.7c0-.1,0-.2-.1-.3,0,0-.1-.3-.2-.4,0,0-.1-.2-.2-.4h-.6c-.1.2-.3.2-.4.2h-.4c-.1,0-.2,0-.4.2h0c-.2,0-.3,0-.4.2s-.3.2-.4.3l-.2.2c-.1,0-.1.2-.1.2,0,0-.1.2-.1.4v.9c.1.3.3.6.4.9,0,0,0,0,.1.2s0,0,.1.2h0v.2c.2.2.1,0,.2.2.1,0,.2.2.4.4.2.2.5.3.8.4h0l-.2-.2ZM551.8,186.3h-.5q0-.2-.2-.3s0,0,0-.2,0-.2,0-.4v-.6h0c0-.1,0-.2.2-.3s0-.2,0-.3c0-.2,0-.4.2-.6,0-.2,0-.4,0-.5v-2.2s0-.1,0-.1h-.2s-.2,0-.2.1-.2,0-.2,0c0,0-.2,0-.3.1s-.2.1-.3.2h0c-.2.1-.4.1-.5,0-.2-.2-.4-.4-.5-.6h0v-.2c0-.3,0-.5,0-.8s.2-.2.2-.3h0s0-.1.2-.1h2.3s0,0,0-.1h0c0-.3,0-.5,0-.6l.2-.5v-.7c0-.2.2-.5.2-.7v-.4l.2-.7h0c0,0-.3,0-.4.1s-.2,0-.4.1h-.2c0,0-.3.1-.4.2s-.3.1-.4.2h-.5c0,0,0,0,0,0,0,0-.2.1-.3.2l-.2.2s0,.1-.2.2c0,0,0,.2-.2.3,0,.1-.2.2-.3.2s-.3,0-.4.1-.3,0-.4,0h-.2s-.2,0-.2-.2c0,0,0-.1,0-.1,0-.1,0-.2-.2-.3h0v-.6c0-.2.2-.4.4-.6h0l.2-.2h.6c.3,0,.6,0,.9-.1h.8c.2,0,.4-.2.6-.2s.4-.2.6-.2h0v-.2c0,0,.3-.1.4-.2,0,0,.3-.1.4-.2h0c0,0,0,0,0,0h0q0-.2,0-.3c.2-.2.5-.3.9-.3s.3,0,.4.2c0,0,.2.2.3.3,0,0,0,.2,0,.3s0,.2,0,.3c0,.1,0,.3,0,.5v.8q0,0,0,.2v.4s0,.1,0,.2h0v.3h0v.2h0v.5h0q0,.1-.2.2h0s0,.2,0,.3h0v.6h0v.2h0v.2h.5s.2,0,.2.2h0c0,.1.2.3.2.4h0v.6h0v.2h0s-.2.1-.3,0h0s0,.1-.2.2c0,0,0,.1-.3.1h-.8c-.1,0,0,0,0,0h0v1h0v.3h0v.3h0v.6h0c0,.1,0,.6,0,.6h0v.7h0v.2h0v1.2h0q0,.2,0,.3c0,.1,0,0-.2.1h0s0,0-.2.1h-1.1ZM577.4,339.6h-.5s-.2,0-.2-.1,0,0-.2-.1c0,0-.2,0-.2-.1,0-.1-.3-.2-.4-.3s-.2-.2-.3-.4h0c0-.1-.4-.7-.4-.7h0c0-.1-.2-.6-.2-.6h0v-2.1c-.2-.2-.2-.4,0-.6,0-.4.2-.8.4-1.1,0-.2.3-.4.5-.6h0v-.2c0-.2.3-.4.5-.5h.2q0-.2.2-.3l.4-.4c0,0,.2-.2.2-.3v-.2l-.2-.2s-.2-.1-.2-.2h0c0-.1-.2-.1-.2-.1-.2-.2-.4-.4-.6-.5h0c0-.2-.2-.3-.3-.4,0-.1,0-.3-.2-.4h0v-.6c0-.2.2-.4.3-.5s.2-.2.3-.3.2-.2.3-.2.3-.1.4-.2.3-.1.4-.2c.2,0,.5-.2.8-.3s.5-.2.8-.2h.3c0-.1.2-.1.3-.2h1.5c.2.2.4.3.5.5s.2.3.3.4c0,.2.2.4.2.7h0v.4h.2c.4.4.5.9.4,1.4,0,0,0,.2,0,.2,0,0,0,.1-.2.2,0,0-.2.1-.3.2s-.2.2-.3.3c0,0,0,.1-.2.2s0,.1-.2.2c0,0,0,.2-.2.2s-.2.1-.3.2v.4h0c0,.1.2.3.2.3.3.2.5.4.7.7v.2c.3.2.3.4.4.6v.8h0v1.7h0v.2l-.2.5c0,.1,0,.2,0,.3h0c0,.2,0,.3,0,.4,0,0,0,.2-.2.2-.2.4-.5.7-.8,1.1,0,0,0,.1-.2.2,0,0,0,.1-.2.2,0,0-.2.2-.3.2-.2,0-.3.1-.5.2-.2,0-.3,0-.5.1h-1l-.5-.3ZM578.1,337.4c.2,0,.3,0,.4-.2h0c0-.1.2-.3.4-.4s.2-.3.4-.4h0c0-.2.2-.3.2-.4s0-.2.2-.4c0-.2,0-.3,0-.5v-1.1c0-.2,0-.3-.2-.5,0-.1-.2-.3-.4-.4h0c0,0-.2-.2-.3-.2s-.2-.2-.3-.3h0c0-.1-.2-.2-.3-.2h0c0,.2,0,.1,0,.2h-.2c0,.1,0,.2-.2.3s0,0-.2.1h0v.2h0c0,.1,0,.1-.2.2h0v.2h0c0,.2,0,.1,0,.1h0v.5h0v.4h0v.8h0v.3h0c0,.1,0,.3.2.3,0,.1.2.2.3.3h.9l-.6,1.1ZM578.8,329.7h.2l.3-.2v-.4l-.2-.2s0-.1-.2-.2c0,0,0-.2-.2-.3,0-.1,0-.2-.2-.3h-1.1c-.1,0,0,0,0,0h0c.3.3.5.4.7.6,0,0,0,.1.2.2s0,.1.2.2c0,0,0,.1.2.2h0l.2.4ZM578.9,476.4h-.3c0,0-.2-.1-.2-.1,0,0,0-.1-.2-.2s0-.2,0-.2h0v-.8h0v-1.4h0v-1.5c0-.2,0-.5.2-.7v-.7c0,0,0-.3,0-.3v-.2h0v-1h0c0,0-.3.1-.4.2,0,0-.3.1-.4.2-.3.1-.6.2-.8.3s-.6.1-.9.2h-.8c-.3.2-.5.1-.8,0h0s0,0-.2-.1c0,0,0,0-.2-.1h0v-.6h0c0-.1,0-.1-.2-.2,0,0,0-.1-.2-.2,0,0,0-.2-.2-.2,0,0,0-.2-.2-.2h0v-.8l-.2-.5v-.7h0v-.5q0-.2,0-.4c0-.1,0-.2.2-.3s0-.2.2-.3c0-.1.2-.3.3-.4,0-.1.2-.3.2-.4l.2-.2s0-.1.2-.2h0l.3-.2s0,0,.2-.1,0,0,.2,0h1.9c0,0,.3,0,.5.2.2,0,.5.2.7.3s.4.2.7.3h0v-.6s0-.1,0-.2h.2c.1,0,0,0,0-.1h0c.2-.1.4-.2.5-.2h0c.2,0,.4.2.5.4h0v5.2h0v4.1h0v1.2h0v.7l-.2.6v.7c0,.1-.2.2-.3.3,0,0,0,0,0,.1,0,0,0,.1,0,.1s0,0-.2.1h0l-.5-.4ZM575.6,468.1h1.9s0,0,.2-.1.2,0,.2-.1c.2,0,.3-.2.3-.5h0v-1.4c0-.1,0-.3-.2-.4s-.2-.2-.4-.3h0c-.2-.1-.3-.2-.5-.3s-.3-.1-.5-.2h-1.2c-.2,0-.3.1-.4.3v.2s0,0,0,.1h0s0,.1-.2.2c0,0,0,.1,0,.2s0,.1,0,.2v.2h0v.4c0,.1.2.2.2.3v.3q0,0,.2.2h0c0,.2.2.3.3.4,0,0,0,.1,0,.1s0,0,.2.1h.2-.1ZM822.5,499.2h-.8s-.2-.1-.2-.2,0-.2,0-.3,0-.2,0-.3v-1.6h0v-1.7c0-.1,0-.2,0-.3s0-.2,0-.3v-2.7h0v-.2h0v-2.1c.2,0,.2-.2.3-.2s0-.1.2-.2h.4s.2,0,.2.1c.2,0,.3.2.3.4v.2c0,0,.2.1.2.2v1.9h0v.3h0v1.1h0v1.3h0v.4h0v2.2h0v1.5h0v.3c0,.2-.3.3-.5.5h0l.2-.3ZM829.8,500.2h-.8c-.3,0-.7-.1-.9-.2h-.2c0-.1-.2-.1-.3-.2s-.2,0-.3-.1c0,0-.2-.1-.3-.1s-.2,0-.3-.1h0c0-.1-.2-.2-.3-.2s-.2,0-.3-.1c0,0-.2-.1-.3-.2,0,0-.2-.1-.3-.2h0c0-.1,0-.2-.2-.3s0-.2-.2-.3v-.3c-.2,0-.2-.1-.2-.2v-2.2h0v-.6h0v-.2c0-.1,0-.2,0-.3s0-.2,0-.3v-.2h0v-.2h.2v-.6c0-.2,0-.3.2-.5,0,0,0-.1,0-.2h0c0-.1.2-.3.2-.5s0-.3.2-.5h0s0-.2.2-.2h0s0-.1,0-.2h0v-.4h0s0-.1.2-.2,0,0,0-.1h0c0-.1,0-.2.2-.3h0c0-.1,0-.2-.2-.3,0,0,0-.1-.2-.2h-.2c0-.1,0-.2,0-.3h0v-.4h0v-.2h0q0-.1,0-.1s0,0,0-.1h.6c0,0,.2.1.3.1s.2,0,.3.1h.4s0-.1.2-.1,0,0,0-.1.2-.2.4-.2h.6c0,0,.2,0,.3.1h0s0,.1.2.1h.4q.2,0,.2.1h0c0,.1,0,.2,0,.2h0c0,.2,0,.1,0,.1v.2c0,.2-.2.4-.4.5h-.5s.2.1.2.2c0,0,0,.1.2.2,0,0,0,.2.2.2s0,.1.2.2c0,0,0,.2.2.2l.2.2.2.3s0,.2.2.3,0,.2.2.3c0,.2.2.3.3.5,0,.2.2.3.3.5.2.4.3.7.5,1,0,.2.2.5.3.8s0,.5.2.8l.2.8v.6c0,.2,0,.4-.2.6,0,.2-.2.5-.3.7,0,.2,0,.3-.2.5s-.2.3-.2.5c0,.2-.2.4-.4.6,0,0,0,.1,0,.2,0,0,0,.1,0,.2,0,0,0,.1-.2.2s0,.1-.2.2l-.2.2s-.2.1-.3.2-.2.1-.3.2c-.2,0-.4.2-.6.2s-.5.1-.8.1h-.3l1.2-1ZM829.3,498.2h1.2c0,0,.3-.1.5-.2,0,0,0,0,.2-.1,0-.1.2-.2.4-.3h0c0-.1,0-.2.2-.3,0,0,0-.1,0-.2l.2-.5c0-.2.2-.3.2-.5s0-.4,0-.5h0v-.5c0-.2,0-.3,0-.5v-.5c0-.2-.2-.5-.3-.7s-.2-.4-.3-.6c0-.2-.2-.3-.3-.5s-.2-.3-.3-.5c0,0,0-.2,0-.2,0-.1,0-.2-.2-.3s0-.2-.2-.3l-.5-.7c0-.1,0-.2-.2-.3s-.2-.2-.2-.2h0c0,.1-.5.8-.5.8-.4.5-.7,1.1-1,1.8,0,.2-.2.4-.3.7s-.2.5-.3.7c0,.2-.2.5-.3.8s-.2.5-.2.8c0,.4-.2.7-.2,1h0v.7c0,.2.2.4.3.6l.4.3c0,0,.2.2.4.3s.3.2.4.2c.2,0,.3.1.5.2s.3,0,.5,0h0v-.5ZM831.1,735.5h-.5c0,0,0,0,0,0h0s0,0,0,0v-1.4h0v-3.9h0v-3.1h0v-1.7c0-.2,0-.5,0-.7,0,0,0-.2,0-.3h0c0-.2,0,0,0,0h.4s0,0,.2.2c0,0,0,.2,0,.3s0,.2,0,.3v1.3h0v2.1h0v3.5h0v.3h0v1.9h0v.8h0v.3s0,0,0,.2h0s-.2,0-.2.2c0,0-.2,0-.4,0h.5ZM836,734.4h-.8l-.2-.2c0,0,0-.2,0-.3s0-.2,0-.3v-1.6h0v-1.7c0,0,0-.2,0-.3v-3h0v-2.3c.2,0,.2-.2.3-.2s0,0,.2-.2h.4s.2,0,.2,0c.2,0,.3.2.3.4v.2c0,0,.2,0,.2.2v1.9h0v.2h0v.7c0,0,0,0,0,0h0v1.3h0v.4c0,.1,0,0,0,0v2.1h0v1.5h0v.3c0,.2-.3.3-.5.5h0l.2.2ZM846.3,964.4h-.5c0,0,0,0,0,0h0s0,0,0,0v-1.4h0v-3.9h0v-3.1h0v-1.7c0-.2,0-.5,0-.7,0,0,0-.2,0-.3h0c0-.2,0,0,0,0h.4s0,0,.2.2c0,0,0,.2,0,.3s0,.2,0,.3v1.3h0v2.1h0v3.5h0v.3h0v1.9h0v.8h0v.3s0,0,0,.2h0s-.2,0-.2.2c0,0-.2,0-.4,0h.5ZM851.8,963.6h-1c0,0-.3,0-.4,0h0c-.2,0-.3-.3-.4-.4v-.4h0c0-.4.2-.6.3-.8l.2-.2s.2-.2.3-.2.2,0,.3-.2.2,0,.3-.2c.2,0,.4-.3.6-.4s.4-.3.5-.4c.3-.2.5-.5.7-.9,0-.2.2-.5.3-.7,0-.2.2-.4.2-.6s0-.4.2-.5,0-.4.2-.5c0-.2,0-.3,0-.5s0-.3,0-.5v-.6s0,0-.2-.2h-.6c-.3,0-.6.3-.8.5h0c0,0,0,0,0,0,0,.2-.2.3-.3.4l-.2.2-.2.2c0,0-.2.3-.3.5,0,.2-.2.4-.4.5,0,0-.2.2-.3.3,0,0-.2.2-.3.3h-.3l-.2-.2-.2-.2-.2-.2h0v-.4h0v-.5h0v-.2c0-.2.2-.4.4-.6.3-.3.7-.6,1-.8h.3c.2,0,.3-.2.4-.3,0,0,.3-.2.4-.3,0,0,.2-.2.3-.3s.2-.2.4-.2.3-.2.4-.2.3,0,.5,0h.4c.2,0,.3,0,.4,0,.2,0,.4.2.6.3h0c0,0,.2.2.3.4s.2.3.2.5v1c0,.4,0,.8-.2,1.2v.8c0,0,0,.2,0,.3,0,.2,0,.3-.2.4s0,.3-.2.4c0,0,0,.3,0,.4v.4c-.2.2-.2.3-.3.5s0,.3-.2.5c-.2.3-.4.6-.6.8h-.2c0,0-.2.3-.2.3h1.4c.2,0,.3,0,.4,0h2.4c.3,0,.6,0,.9.3.2.2.2.3.3.5h0c0,.4,0,.6,0,.8,0,0,0,0,0,.2h-1c-.2,0-.4,0-.6,0h-4.9ZM752,969.2h-.8l-.2-.2c0,0,0-.2,0-.3s0-.2,0-.3v-1.6h0v-1.7c0,0,0-.2,0-.3s0-.2,0-.3v-2.7h0v-2.3c.2,0,.2-.2.3-.2s0,0,.2-.2h.4s.2,0,.2,0c.2,0,.3.2.3.4v.2c0,0,.2,0,.2.2v1.9h0v.2h0v.7c0,0,0,0,0,0h0v1.4h0v.4c0,.1,0,0,0,0v2.1h0v1.5h0v.3c0,.2-.3.3-.5.5h0,.2ZM759.2,970.3h-.4c-.1,0-.3,0-.4-.2h0s0,0-.2,0c0,0,0,0-.2-.2l-.3-.3h0v-.2h0v-.2s0-.2.2-.2c0,0,0,0,0,0s0-.2.2-.3c0,0,.2,0,.3-.2.2,0,.3,0,.5,0h.8c.2,0,.3,0,.5,0l.5-.2.6-.2c.2,0,.3,0,.4-.2,0,0,.2,0,.3,0l.3-.2s.2,0,.2-.2,0,0,.2-.2l.2-.2c0,0,0-.3,0-.4v-.9h0s-.2-.2-.2-.3,0-.2-.2-.3l-.2-.2c-.1-.1,0,0-.2,0h-.8c-.2,0-.3,0-.5,0h-.5c-.2,0-.3-.2-.5-.2s-.2,0-.3,0h0s-.2,0-.4,0h-.5v-.8h0c0-.2,0,0,0,0v-.4l.6-.6c.2-.2.3-.5.5-.7s.3-.4.5-.7c0,0,.2-.2.2-.3l.2-.2s0,0,0-.2h0v-.6h-2c-.2,0-.4,0-.6.2s-.4,0-.6.2h-.8c-.1,0,0,0,0,0s-.3,0-.4.2h-.6c0,0-.2,0-.3,0h0v-.9s0,0,0-.2,0,0,.2-.2c.2-.2.4-.2.6-.3h5.9c0,0,0,.2,0,.2h0c0,0,.2.2.3.2s0,.2.2.3c.2.2.2.4,0,.6v.4c0,.1,0,.3-.2.4l-.3.6v.4l-.3.3c0,0-.2.3-.2.4s-.2.3-.3.4h0v.2c0,.1,0,0,0,0h.5c.2,0,.3,0,.5,0,.2,0,.4,0,.6.2s.4.2.5.3c.3.2.6.5.8.8,0,0,.2.3.3.4,0,.2.2.3.3.5l.3.5c.2.4.3.8.3,1.2v.8c0,0,0,.3-.2.4s0,.2-.2.4c0,0-.2.2-.2.3s-.2.2-.3.3h0s0,0-.2.2c0,0,0,0-.2.2,0,0,0,0-.2,0s0,0-.2,0c-.2.2-.4.2-.6.2h-.5l-.5.2h-.4c0,0-.3,0-.4,0,0,0-.3,0-.4,0-.2,0-.3,0-.4.2l-.2.2h0c0,0-.2,0-.3,0h0l-1.2-.2ZM740.6,753.7h-.5c0,0,0,0,0,0h0s0,0,0,0v-1.4h0v-3.9h0v-3.1h0v-1.7c0-.2,0-.5,0-.7,0,0,0-.2,0-.3h0c0-.2,0,0,0,0h.4s0,0,.2.2c0,0,0,.2,0,.3v1.6h0v2.1h0v3.5h0v.3h0v1.9h0v.8h0v.3s0,0,0,.2h0s-.2,0-.2.2c0,0-.2,0-.4,0h.5ZM750.1,752.8h-.3c0,0-.2,0-.3,0h0c0,0-.2,0-.2-.2h0c0-.3,0-.5,0-.8h0v-1.2h0v-1h0v-.6h0v-.4h-2.7c-.2,0-.4,0-.5.2h-.4s0,0,0,.2v.4s0,.2,0,.3c0,0,0,0-.3,0s-.2,0-.3,0c0,0,0,0,0-.2v-.6s-.2-.2-.2-.3v-.2c-.3-.3-.4-.5-.4-.8s0-.2,0-.2v-.2s0,0,0-.2v-.2c0-.2,0-.5,0-.7,0-.2,0-.5.2-.8s0-.5.2-.8v-.4c.2,0,.2-.3.2-.4,0-.2,0-.4.2-.6s0-.4.2-.6h0c0-.3,0-.4.2-.6s0-.3.2-.5h0v-.3h0c0,0,0-.2.2-.3s0,0,.2,0h1s.2,0,.3.2c.2.2.3.5.3.8s0,.5-.2.7c0,0,0,.2-.2.4,0,0,0,.3,0,.4v.3c0,0-.2.2-.2.3h0v.2h0s0,.2,0,.3v.8c0,0,0,.2-.2.4v.9h2.8v-1.4h0v-3.8c0,0,0-.2.2-.4,0,0,0-.2.2-.2s0,0,.2-.2h.7v.3c0,.1,0,0,0,0s0,.2,0,.4h0v.2s0,0,0,.2h0v.6h0v.2h0v.4h0v.2h0v3.3h2.8c0,0,.2,0,.2.2h0v.4h0v.4h-.2c0,.3,0,.3-.2.4h-2.5s0,.2,0,.2h0v.2q0,.1,0,0h0v.3h0v.3h0v.5h0v.4h0v.3h0v.6c0,0,0,0,0,0h0q0,0,0,.2h-.2l-.3,2.1ZM750.9,752.3h0ZM755.1,572.6h-.5c0,0,0,0,0,0h0s0,0,0,0v-1.4h0v-3.9h0v-3.1h0v-1.7c0-.2,0-.5,0-.7,0,0,0-.2,0-.3h0c0-.2,0,0,0,0h.4s0,0,.2.2c0,0,0,.2,0,.3v1.6h0v2.1h0v3.5h0v.3h0v1.9h0v.8h0v.3s0,0,0,.2h0s-.2,0-.2.2c0,0-.2,0-.4,0h.5ZM760.2,573.3h0s-.2,0-.2,0l-.2-.2h0l-.2-.2v-.6c0-.2,0-.3.2-.4.2-.2.4-.3.7-.3h.8c.2,0,.4,0,.6-.2s.4,0,.6-.2c.3-.2.6-.3,1-.4s.6-.3.9-.5c0,0,.3,0,.4-.2s.2,0,.3-.2c.3-.2.5-.5.7-.7,0-.2.2-.4,0-.7v-.4c0,0,0-.2-.2-.3s0-.2-.2-.3c0,0,0,0,0-.2s0,0,0-.2c0,0,0,0-.2-.2h-.2q0-.2,0-.2h-3.7s-.2,0-.2.2h-.6c-.2,0-.3.3-.4.5v.2c0,0-.2.2-.3.2h-.3s0,0,0-.2v-.8c0-.2,0-.3,0-.5v-3.8h0v-2.9h0c.2-.3.3-.4.5-.5h6.7c0,0,0,.2,0,.3s0,0,0,.2h0v.3h0v.2h0v.2c0,0-.2.2-.4.3,0,0,0,0-.2,0,0,0,0,0-.2,0h-4.4v3.5h4.4c.2,0,.5.2.7.3l.5.4c0,0,.2,0,.3.2l.4.4c.1.1.2.3.3.4v.2c.2.3.4.6.4,1v1.8c-.2.3-.4.5-.6.8l-.2.2-.2.2h-.2c0,0-.2,0-.2.3l-.2.2c-.1.1-.2,0-.3,0h0c0,0-.2,0-.2.2s-.2,0-.2.2h-.2c0,.2-.2.2-.3.3s-.2,0-.3.2l-.9.4h-.6c-.2,0-.3,0-.5.2-.2,0-.3,0-.5.2h-.8l-1.7.9ZM643.2,565.9h-.5c0,0,0,0,0,0h0s0,0,0,0v-1.4h0v-3.9h0v-3.1h0v-1.7c0-.2,0-.5,0-.7,0,0,0-.2,0-.3h0c0-.2,0,0,0,0h.4s0,0,.2.2c0,0,0,.2,0,.3s0,.2,0,.3v1.3h0v2.1h0v3.5h0v.3h0v1.9h0v.8h0v.3s0,0,0,.2h0s-.2,0-.2.2c0,0-.2,0-.4,0h.5ZM652.6,566.3c-.2,0-.4,0-.6-.2-.2,0-.4,0-.6-.2,0,0-.2,0-.3-.2s-.2,0-.3-.2l-.6-.4h-.3v-.2h-.5c0,0-.3,0-.4-.2s-.2-.2-.4-.2c-.5-.4-.9-.8-1.2-1.2h0c0,0-.2-.5-.2-.5,0,0-.2-.2-.2-.4l-.3-.6c0-.2-.2-.3-.2-.5s0-.3-.2-.5h0v-.2c0,0,0-.2,0-.4h0v-.2h0v-.2h0v-1.4h0v-1h0c0-.2.2-.3.2-.5v-.6c0,0,0-.2,0-.2h0v-.5c0,0,0-.3,0-.4,0-.2.2-.3.3-.4l.2-.2c0,0,.2-.2.2-.3h0q0,0,0-.2c0,0,0,0,0,0s0-.2.3-.3c0,0,.2,0,.3-.2s.2,0,.3-.2h.2c0,0,.2-.2.4-.3s.2,0,.4-.2h2s0,0,.2,0c0,0,.2,0,.3.3.2.3.2.5,0,.8h0c0,0-.2,0-.3.2s-.2,0-.3.2h0c-.2.2-.3.2-.5.3,0,0,0,0-.2,0s0,0-.2,0c-.2,0-.4.3-.6.5-.4.4-.8.9-1,1.4,0,0,0,.3-.2.4s0,.2-.2.4h0c0,.2,0,.4-.2.5,0,.2,0,.3,0,.5v.2c0,.2,0,.5,0,.7v1.1c0,.2,0,.4.2.5s0,.4.2.5v.2h0c0,0,0,.3.2.4s0,.2.2.3h0v-1h0v-.2l.2-.4c0,0,0-.2.2-.3,0,0,0-.2.2-.3s.2-.2.2-.3l.4-.4s.2-.2.3-.2.2,0,.3-.2l.4-.2c0,0,.2,0,.4,0s.3,0,.4-.2c0,0,.2-.2.3-.2h0c0,0,0,0,0,0h1.2c.2,0,.5.2.7.4l.4.4h0s0,0,0,.2,0,0,0,.2h0c0,0,0,.2.2.3s0,.2,0,.2h0v.4c0,0,0,.2,0,.3v.5h0v1.7c0,.2,0,.3,0,.4h0s0,0,0,.2v.7c0,.1,0,.2-.2.4,0,.2-.2.3-.4.5,0,0-.2.2-.2.3s-.2.2-.2.3l-.6.7c0,.2-.2.3-.3.5h0c0,0,0,.2,0,.3s0,0-.2,0h-1.2l.9-1.1ZM652.7,564.5h.3c0,0,0,0,0,0,.2-.3.3-.4.5-.6l.5-.5h0v-.3h0c0-.2,0,0,0,0v-1.5h0v-.7c0,0,0-.2,0-.3,0,0,0-.3-.2-.4s0-.2-.2-.4h-.6c0,.2-.3.2-.4.2h-.4c-.1,0-.2,0-.4.2h0c-.2,0-.3,0-.4.2s-.3.2-.4.3l-.2.2c-.1.1,0,.2,0,.2,0,0,0,.2,0,.4s0,.2,0,.3v.6c0,.3.3.6.4.9,0,0,0,0,0,.2s0,0,0,.2h0v.2c0,.2,0,0,0,.2l.4.4c.2.2.5.3.8.4h0v-.2ZM663.5,787.3h-.5c0,0,0,0,0,0h0s0,0,0,0v-1.4h0v-3.9h0v-3.1h0v-1.7c0-.2,0-.5,0-.7,0,0,0-.2,0-.3h0c0-.2,0,0,0,0h.4s0,0,.2.2c0,0,0,.2,0,.3s0,.2,0,.3v1.3h0v2.1h0v3.5h0v.3h0v1.9h0v.8h0v.3s0,0,0,.2h0s-.2,0-.2.2c0,0-.2,0-.4,0h.5ZM669.8,787.1h-.5q0-.2-.2-.3s0,0,0-.2,0-.2,0-.4v-.6h0c0,0,0-.2.2-.3s0-.2,0-.3c0-.2,0-.4.2-.5,0-.2,0-.4,0-.5v-2.1s0,0,0,0h-.2s-.2,0-.2,0h-.2s-.2,0-.3,0-.2,0-.3.2h0c-.2,0-.4,0-.5,0-.2-.2-.4-.4-.5-.6v-.4c0-.3,0-.5,0-.8s.2-.2.2-.3h2.5s0,0,0,0h0c0-.2,0-.4,0-.5l.2-.5v-.7c0-.2.2-.5.2-.7v-.4l.2-.7h-.4c-.1,0-.2,0-.4,0h-.2c0,0-.3.2-.4.2s-.3,0-.4.2h-.5s-.2,0-.3.2l-.2.2-.2.2s0,.2-.2.3c0,0-.2.2-.3.2h-1s-.2,0-.2-.2h0c0-.2,0-.3-.2-.4h0v-.6c0-.2.2-.5.4-.6h0l.2-.2h.6c.3,0,.6,0,.9,0h.8c.2,0,.4-.2.6-.2s.4-.2.6-.2h0c0,0,.3,0,.4-.2s.3,0,.4-.2h0c0,0,0,0,0,0v-.2q.2,0,.3,0c.2-.2.5-.3.9-.3s.3,0,.4.2c0,0,.2.2.3.3,0,0,0,.2,0,.3s0,.2,0,.3c0,.2,0,.3,0,.5v.8q0,.1,0,.2v.4s0,0,0,.2h0v.2h0c0,.2,0,0,0,0h0v.4h0v.5h-.2c0,0,0,.3,0,.4h0v.7h0v.2c0,.1,0,0,0,0h.5s.2,0,.2.2h0s.2.2.2.3h0v.6h0v.2h-.4s0,0-.2.2c0,0,0,0-.3,0h-.8c-.1,0,0,0,0,0h0v1h0v.3h0v.3h0v.5h0v.5h0v.6h0v.2h0v1.2h0q0,.2,0,.3s0,0-.2,0h0s0,0-.2,0h-1.1ZM676,970.5h-.5c0,0,0,0,0,0h0s0,0,0,0v-5.4h0v-3.1h0v-1.7c0-.2,0-.5,0-.7,0,0,0-.2,0-.3h0c0-.2,0,0,0,0h.4s0,0,.2.2c0,0,0,.2,0,.3v1.6h0v2.1h0v3.5h0v.3h0v1.9h0v.8h0v.3s0,0,0,.2h0s-.2,0-.2.2c0,0-.2,0-.4,0h.5ZM682,970.3h-.9s-.2,0-.2,0c0,0-.3-.2-.4-.3,0,0-.2-.2-.3-.4h0c0,0-.4-.7-.4-.7h0c0,0-.2-.6-.2-.6h0v-2.1c-.2-.2-.2-.4,0-.6,0-.4.2-.8.4-1.1,0-.2.3-.4.5-.6h0v-.2c0-.2.3-.3.5-.5h.2q0-.2.2-.3l.4-.4c0,0,.2-.2.2-.3v-.2l-.2-.2-.2-.2h0c0,0-.2,0-.2,0-.2-.2-.4-.4-.6-.5h0c0-.2-.2-.3-.3-.4,0,0,0-.3-.2-.4h0v-.6c0-.2.2-.3.3-.5l.3-.3c0,0,.2-.2.3-.2s.3,0,.4-.2.3,0,.4-.2c.2,0,.5-.2.8-.3s.5-.2.8-.2h.3c0,0,.2-.2.3-.2h1.5c.2.2.4.3.5.5s.2.3.3.4c0,.2.2.4.2.7h0v.4h.2c.4.4.5.9.4,1.4,0,0,0,.2,0,.2s0,0-.2.2c0,0-.2,0-.3.2s-.2.2-.3.3l-.2.2-.2.2s0,.2-.2.2-.2,0-.3.2v.4h0l.2.2c.3.2.5.4.7.7v.2c.3.2.3.3.4.6v.8h0v1.7h0l-.2.5c0,0,0,.2,0,.3h0c0,.2,0,.3,0,.4s0,.2-.2.2c-.2.4-.5.7-.8,1.1,0,0,0,0-.2.2,0,0,0,0-.2.2,0,0-.2.2-.3.2-.2,0-.3,0-.5.2-.2,0-.3,0-.5,0h-1l-.5-.2ZM682.7,968.2c.2,0,.3,0,.4-.2h0c0-.2.2-.3.4-.4,0,0,.2-.3.4-.4h0c0-.2.2-.3.2-.4s0-.2.2-.4c0-.2,0-.3,0-.5v-1.1c0-.2,0-.3-.2-.5,0,0-.2-.3-.4-.3h0c0,0-.2-.2-.3-.2s-.2-.2-.3-.3h0c0,0-.2-.2-.3-.2h-.2s-.2,0-.2.2,0,0-.2.2,0,0-.2,0h0v.2h0c0,0,0,0-.2.2h0v.2h0v.5h0v.4h0v.8h0v.3h0c0,0,0,.3.2.3,0,0,.2.2.3.3h.9l-.6,1.3ZM683.4,960.5h.2l.3-.2v-.4l-.2-.2s0,0-.2-.2c0,0,0-.2-.2-.3,0,0,0-.2-.2-.3h-1.1c-.1,0,0,0,0,0h0c.3.2.5.3.7.5l.2.2.2.2.2.2h0l.2.5ZM566.7,969.6h-.8l-.2-.2c0,0,0-.2,0-.3s0-.2,0-.3v-1.6h0v-1.7c0,0,0-.2,0-.3v-3h0v-.2h0v-2.1c.2,0,.2-.2.3-.2s0,0,.2-.2h.4s.2,0,.2,0c.2,0,.3.2.3.4v.2c0,0,.2,0,.2.2v1.9h0v.2h0v.9h0v1.3h0v.4c0,.1,0,0,0,0v2.1h0v1.5h0v.3c0,.2-.3.3-.5.5h0,.2ZM575.8,970.5h-.3c0,0-.2,0-.2,0l-.2-.2c-.1-.1,0-.2,0-.2h0v-.8h0v-1.4h0v-1.5c0-.2,0-.5.2-.7v-.7c0,0,0-.3,0-.3v-.2h0v-1h0c0,0-.3.2-.4.2s-.3,0-.4.2c-.3,0-.6.2-.8.3s-.6,0-.9.2h-.8c-.3.2-.5.2-.8,0h0s0,0-.2,0h-.2v-.5h0s0,0-.2,0l-.2-.2s0-.2-.2-.2c0,0,0-.2-.2-.2h0v-.9l-.2-.5v-.7h0v-.5q0-.2,0-.4c0,0,0-.2.2-.3s0-.2.2-.3c0-.2.2-.3.3-.4s.2-.3.2-.4l.2-.2s0-.2.2-.2h0l.3-.2h2.3c.2,0,.3,0,.5.2.2,0,.5.2.7.3s.4.2.7.3h0v-.6s0-.2,0-.2h.2c.1,0,0,0,0,0h0c.2,0,.4,0,.5,0h0c.2,0,.4.2.5.4h0v5.2h0v4.1h0v1.2h0v.7l-.2.6v.7l-.3.3s0,0,0,0h0q0,0-.2,0h0l-.5-.8ZM572.5,962.3h2.3c.2,0,.3-.2.3-.5h0v-1.4c0-.2,0-.3-.2-.4,0,0-.2-.2-.4-.3h0c-.2,0-.3-.2-.5-.3s-.3,0-.5-.2h-1.2c-.2,0-.3,0-.4.3v.2s0,0,0,0h0l-.2.2s0,0,0,.2,0,0,0,.2v.2h0v.4c0,0,.2.2.2.3v.3q0,0,.2.2h0c0,.2.2.3.3.4h0c0,0,0,0,.2.2h.2-.1ZM553.9,792.5h-1c0,0-.3,0-.4,0h0c-.2,0-.3-.3-.4-.4v-.4h0c0-.4.2-.6.3-.8l.2-.2s.2-.2.3-.2.2,0,.3-.2.2,0,.3-.2c.2,0,.4-.3.6-.4s.4-.3.5-.4c.3-.2.5-.5.7-.9,0-.2.2-.5.3-.7,0-.2.2-.4.2-.6s0-.4.2-.5,0-.4.2-.5c0-.2,0-.3,0-.5s0-.3,0-.5v-.6s0,0-.2-.2h-.6c-.3,0-.6.3-.8.5h0c0,0,0,0,0,0,0,.2-.2.3-.3.4l-.2.2-.2.2c0,0-.2.3-.3.5,0,.2-.2.4-.4.5,0,0-.2.2-.3.3,0,0-.2.2-.3.3h-.3l-.2-.2-.2-.2-.2-.2h0v-.4h0v-.5h0v-.2c0-.2.2-.4.4-.6.3-.3.7-.6,1-.8h.3c.2,0,.3-.2.4-.3,0,0,.3-.2.4-.3,0,0,.2-.2.3-.3s.2-.2.4-.2.3-.2.4-.2.3,0,.5,0h.4c.2,0,.3,0,.4,0,.2,0,.4.2.6.3h0c0,0,.2.2.3.4s.2.3.2.5v1c0,.4,0,.8-.2,1.2v.8c0,0,0,.2,0,.3,0,.2,0,.3-.2.4s0,.3-.2.4c0,0,0,.3,0,.4v.4c-.2.2-.2.3-.3.5s0,.3-.2.5c-.2.3-.4.6-.6.8h-.2c0,0-.2.3-.2.3h1.4c.2,0,.3,0,.4,0h2.4c.3,0,.6,0,.9.3.2.2.2.3.3.5h0c0,.4,0,.6,0,.8,0,0,0,0,0,.2h-1c-.2,0-.4,0-.6,0h-4.9ZM567.7,793.1h-.8c-.3,0-.7,0-.9-.2h-.2c0,0-.2,0-.3-.2s-.2,0-.3,0c0,0-.2,0-.3,0,0,0-.2,0-.3,0h0c0,0-.2-.2-.3-.2s-.2,0-.3,0c0,0-.2,0-.3-.2,0,0-.2-.2-.3-.2h0c0,0,0-.2-.2-.3s0-.2-.2-.3v-.3c-.2,0-.2,0-.2-.2v-2.2h0v-.6h0v-.2c0,0,0-.2,0-.3s0-.2,0-.3v-.2h0v-.2h.2v-.6c0-.2,0-.3.2-.5,0,0,0,0,0-.2h0c0-.2.2-.3.2-.5s0-.3.2-.5h0s0-.2.2-.2h0s0,0,0-.2h0v-.4h0l.2-.2c.1-.1,0,0,0,0h0c0,0,0-.2.2-.3h0l-.2-.2-.2-.2-.2-.2s0,0,0-.2h0v-.4h0v-.2h0q0,0,0,0s0,0,0,0h.6c0,0,.2,0,.3,0,0,0,.2,0,.3,0h.6c.2-.2,0,0,0-.2s.2-.2.4-.2h.9s0,0,.2,0h.4q.2,0,.2,0h0c0,0,0,.2,0,.2h0v.2c0,.2-.2.4-.4.5h-.5s.2,0,.2.2,0,0,.2.2c0,0,0,.2.2.2s0,.2.2.2c0,0,0,.2.2.2l.2.2.2.3s0,.2.2.3,0,.2.2.3c0,.2.2.3.3.5,0,.2.2.3.3.5.2.3.3.7.5,1,0,.2.2.5.3.8s0,.5.2.8l.2.8v.6c0,.2,0,.4-.2.6,0,.2-.2.5-.3.7,0,.2,0,.3-.2.5s-.2.3-.2.5c0,.2-.2.4-.4.6,0,0,0,0,0,.2,0,0,0,0,0,.2l-.2.2-.2.2-.2.2s-.2,0-.3.2-.2,0-.3.2c-.2,0-.4.2-.6.2s-.5,0-.8,0h-.3l1.2-.8ZM567.2,791.1h1.2c0,0,.3,0,.5-.2,0,0,0,0,.2,0,0,0,.2-.2.4-.3h0c0,0,0-.2.2-.3,0,0,0,0,0-.2l.2-.5c0-.2.2-.3.2-.5s0-.4,0-.5h0v-.5c0-.2,0-.3,0-.5v-.5c0-.2-.2-.5-.3-.7s-.2-.4-.3-.7c0-.2-.2-.3-.3-.5s-.2-.3-.3-.5c0,0,0-.2,0-.2,0,0,0-.2-.2-.3s0-.2-.2-.3l-.5-.7c0,0,0-.2-.2-.3s-.2-.2-.2-.2h0l-.5.7c-.4.5-.7,1.1-1,1.8,0,.2-.2.4-.3.7s-.2.5-.3.7c0,.2-.2.5-.3.8s-.2.5-.2.8c0,.3-.2.7-.2,1h0v.7c0,.2.2.4.3.6l.4.3c0,0,.2.2.4.3s.3.2.4.2c.2,0,.3,0,.5.2s.3,0,.5,0h0v-.3ZM554.5,629.3h-1c0,0-.3,0-.4,0h0c-.2,0-.3-.3-.4-.4v-.4h0c0-.4.2-.6.3-.8l.2-.2s.2-.2.3-.2.2,0,.3-.2.2,0,.3-.2c.2,0,.4-.3.6-.4s.4-.3.5-.4c.3-.2.5-.5.7-.9,0-.2.2-.5.3-.7,0-.2.2-.4.2-.6s0-.4.2-.5,0-.4.2-.5c0-.2,0-.3,0-.5s0-.3,0-.5v-.6s0,0-.2-.2h-.6c-.3,0-.6.3-.8.5h0c0,0,0,0,0,0,0,.2-.2.3-.3.4l-.2.2-.2.2c0,0-.2.3-.3.5,0,.2-.2.4-.4.5,0,0-.2.2-.3.3,0,0-.2.2-.3.3h-.3l-.2-.2-.2-.2-.2-.2h0v-.4h0v-.5h0v-.2c0-.2.2-.4.4-.6.3-.3.7-.6,1-.8h.3c.2,0,.3-.2.4-.3,0,0,.3-.2.4-.3,0,0,.2-.2.3-.3s.2-.2.4-.2.3-.2.4-.2.3,0,.5,0h.4c.2,0,.3,0,.4,0,.2,0,.4.2.6.3h0c0,0,.2.2.3.4s.2.3.2.5v1c0,.4,0,.8-.2,1.2v.8c0,0,0,.2,0,.3,0,.2,0,.3-.2.4s0,.3-.2.4c0,0,0,.3,0,.4v.4c-.2.2-.2.3-.3.5s0,.3-.2.5c-.2.3-.4.6-.6.8h-.2c0,0-.2.3-.2.3h1.4c.2,0,.3,0,.4,0h2.4c.3,0,.6,0,.9.3.2.2.2.3.3.5h0c0,.4,0,.6,0,.8,0,0,0,0,0,.2h-1c-.2,0-.4,0-.6,0h-4.9ZM565,630.1h-.5c0,0,0,0,0,0h0s0,0,0,0v-5.4h0v-3.1h0v-1.7c0-.2,0-.5,0-.7,0,0,0-.2,0-.3h0c0-.2,0,0,0,0h.4s0,0,.2.2c0,0,0,.2,0,.3v1.6h0v2.1h0v3.5h0v.3h0v1.9h0v.8h0v.3s0,0,0,.2h0s-.2,0-.2.2c0,0-.2,0-.4,0h.5ZM366.3,466.2h-.3c0-.1,0,0,0,0h-.8c-.1,0-.3,0-.4-.1h-.1c-.2-.1-.3-.3-.4-.4h0v-.2h0c0-.4.1-.6.3-.8l.2-.2s.2-.2.3-.2.2-.1.3-.2c.1,0,.2-.1.3-.2.2-.1.4-.3.6-.4s.4-.3.5-.4c.3-.2.5-.5.7-.9,0-.2.2-.5.3-.7,0-.2.2-.4.2-.6s.1-.4.2-.5.1-.4.2-.5c0-.1.1-.3.1-.5v-1.1s0-.1-.2-.2h-.6c-.3.1-.6.3-.8.5h-.1c0,.1-.1.1-.1.1,0,.2-.2.3-.3.4l-.2.2-.2.2c-.1.1-.2.3-.3.5,0,.2-.2.4-.4.5-.1,0-.2.2-.3.3,0,.1-.2.2-.3.3h-.3l-.2-.2-.2-.2-.2-.2h0v-.5h0v-.2h0v-.3h0c0-.4.2-.5.4-.7.3-.3.7-.6,1-.8h.1c0-.1.1-.1.1-.2.1-.1.3-.2.4-.3s.3-.2.4-.3c.1,0,.2-.2.4-.3s.2-.2.4-.2.3-.1.4-.2.3-.1.5-.1h.6c.1,0,.3,0,.4.1.2,0,.4.2.6.3h.1l.4.4c.1.1.2.3.2.5,0,0,0,.2.1.3s0,.2,0,.3h0v.3c0,.4,0,.8-.2,1.2v.8c0,0,0,.2-.1.3,0,.1-.1.3-.2.4s-.1.3-.2.4c0,.1-.1.3-.1.4v.4c-.2.1-.2.3-.3.5,0,.1-.1.3-.2.5-.2.3-.4.6-.6.8,0,0-.1,0-.1.1h-.1v.2h1.4c.1-.1.3-.1.4-.1h2.5c.3,0,.6,0,.9.3s.2.3.3.5h0c0,.4,0,.6-.1.8,0,0-.1.1-.1.2h-1.2c-.2,0-.4-.1-.6-.1h-5.4ZM378,466.2h-.3c0-.1,0,0,0,0h-.8c-.1,0-.3,0-.4-.1h-.1c-.2-.1-.3-.3-.4-.4h0v-.2h0c0-.4.1-.6.3-.8l.2-.2s.2-.2.3-.2.2-.1.3-.2.2-.1.3-.2c.2-.1.4-.3.6-.4s.4-.3.5-.4c.3-.2.5-.5.7-.9,0-.2.2-.5.3-.7,0-.2.2-.4.2-.6s.1-.4.2-.5.1-.4.2-.5c0-.1.1-.3.1-.5v-1.1s0-.1-.2-.2h-.6c-.3.1-.6.3-.8.5h-.1c0,.1-.1.1-.1.1,0,.2-.2.3-.3.4l-.2.2-.2.2c-.1.1-.2.3-.3.5,0,.2-.2.4-.4.5-.1,0-.2.2-.3.3,0,.1-.2.2-.3.3h-.3l-.2-.2-.2-.2-.2-.2h0v-.5h0v-.2h0v-.3h0c0-.3.2-.5.4-.7.3-.3.7-.6,1-.8h.1c.1-.2.1-.1.1-.2.1-.1.3-.2.4-.3s.3-.2.4-.3c.1,0,.2-.2.4-.3s.2-.2.4-.2.3-.1.4-.2.3-.1.5-.1h.6c.1,0,.3,0,.4.1.2,0,.4.2.6.3h.1l.4.4c.1.1.2.3.2.5,0,0,0,.2.1.3s0,.2,0,.3h0v.3c0,.4,0,.8-.2,1.2v.8c0,0,0,.2-.1.3,0,.1-.1.3-.2.4s-.1.3-.2.4c0,.1-.1.3-.1.4v.4c-.2.1-.2.3-.3.5s-.1.3-.2.5c-.2.3-.4.6-.6.8,0,0-.1,0-.1.1h-.1v.2h1.4c.1-.1.3-.1.4-.1h2.5c.3,0,.6,0,.9.3s.2.3.3.5h0c0,.4,0,.6-.1.8,0,0-.1.1-.1.2h-1.2c-.2,0-.4-.1-.6-.1h-5.4ZM395.3,657.7h-1.1c-.1,0-.3,0-.4,0h-.1c-.2,0-.3-.3-.4-.4v-.4h0c0-.4.1-.6.3-.8l.2-.2s.2-.2.3-.2.2,0,.3-.2.2,0,.3-.2c.2,0,.4-.3.6-.4s.4-.3.5-.4c.3-.2.5-.5.7-.9,0-.2.2-.5.3-.7,0-.2.2-.4.2-.6s.1-.4.2-.5.1-.4.2-.5c0-.2.1-.3.1-.5v-1.1s0,0-.2-.2h-.6c-.3,0-.6.3-.8.5h-.1c0,0-.1,0-.1,0,0,.2-.2.3-.3.4,0,0-.1,0-.2.2,0,0-.1,0-.2.2-.1,0-.2.3-.3.5,0,.2-.2.4-.4.5-.1,0-.2.2-.3.3,0,0-.2.2-.3.3h-.3l-.2-.2s-.1,0-.2-.2c0,0-.1,0-.2-.2h0v-.4h0v-.5h0v-.2c0-.2.2-.4.4-.6.3-.3.7-.6,1-.8h.2c.1,0,.3-.2.4-.3s.3-.2.4-.3c.1,0,.2-.2.4-.3s.2-.2.4-.2.3-.2.4-.2.3,0,.5,0h.6c.1,0,.3,0,.4,0,.2,0,.4.2.6.3h.1c.1,0,.2.2.4.4.1,0,.2.3.2.5,0,0,0,.2.1.3s0,.2,0,.3v.4c0,.4,0,.8-.2,1.2v.8c0,0,0,.2-.1.3,0,.2-.1.3-.2.4s-.1.3-.2.4c0,0-.1.3-.1.4v.4c-.2.2-.2.3-.3.5s-.1.3-.2.5c-.2.3-.4.6-.6.8,0,0-.1,0-.1,0v.2h-.1,1.4c.1,0,.3,0,.4,0h2.5c.3,0,.6,0,.9.3.1.2.2.3.3.5h0c0,.4,0,.6-.1.8,0,0-.1,0-.1.2h-1.2c-.2,0-.4,0-.6,0h-5.4ZM407.9,658.5h-.4c-.1,0-.3,0-.4-.2h0s-.1,0-.2,0c0,0-.1,0-.2-.2l-.3-.3h0v-.2h0v-.2s0-.2.2-.2c0,0,.1,0,.1,0s0-.2.2-.3c0,0,.2,0,.3-.2.1,0,.3,0,.5,0h.8c.1,0,.3,0,.5,0l.5-.2.6-.2c.2,0,.3,0,.4-.2.1,0,.2,0,.3,0l.3-.2s.2,0,.2-.2.1,0,.2-.2c0,0,.1-.2.2-.2,0,0,.1-.3,0-.4v-.4s0-.2-.1-.2,0-.2-.1-.3h0s-.1-.2-.2-.3-.1-.2-.2-.3c0,0-.1,0-.2-.2s-.1,0-.2,0h-.6c-.2,0-.4,0-.5,0h-.5c-.2,0-.3-.2-.5-.2s-.2,0-.3,0h-.1s-.2,0-.4,0h-.5v-.8h0c0-.2,0,0,0,0v-.4c.2-.2.4-.4.5-.6.2-.2.4-.5.5-.7.2-.2.4-.4.5-.7,0,0,.2-.2.2-.3v-.2c.2,0,.2,0,.3-.2h0v-.6h-2c-.2,0-.4,0-.6.2s-.4,0-.6.2h-.9c-.1,0-.3,0-.4.2h-.6c-.1,0-.2,0-.3,0h-.1v-.4c0-.2,0-.4.1-.5,0,0,0,0,.1-.2s.1,0,.2-.2c.2-.2.4-.2.6-.3h5.9c0,0,.1.2.1.2h.1c.1,0,.2.2.3.2s.1.2.2.3c.1.2.2.4.1.6v.4c0,.1,0,.3-.1.4l-.3.6v.4l-.3.3c0,0-.2.3-.2.4s-.2.3-.3.4h0v.2h.6c.2,0,.3,0,.5,0,.2,0,.4,0,.6.2s.4.2.5.3c.3.2.6.5.8.8.1,0,.2.3.3.4s.2.3.3.5l.3.5c.2.4.3.8.3,1.2v.8c0,0,0,.3-.1.4s-.1.2-.2.4c0,0-.2.2-.2.3s-.1.2-.3.3h0s-.1,0-.2.2c0,0-.1,0-.2.2,0,0-.1,0-.2,0,0,0-.1,0-.2,0-.2.2-.4.2-.6.2h-.5l-.5.2h-.4c-.1,0-.3,0-.4,0-.1,0-.3,0-.4,0s-.3,0-.4.2l-.2.2s-.1,0-.1,0h-.3l-1.2-.2ZM410.8,850.7h-1.1c-.1,0-.3,0-.4,0h-.1c-.2,0-.3-.3-.4-.4v-.4h0c0-.4.1-.6.3-.8l.2-.2s.2-.2.3-.2.2,0,.3-.2.2,0,.3-.2c.2,0,.4-.3.6-.4s.4-.3.5-.4c.3-.2.5-.5.7-.9,0-.2.2-.5.3-.7,0-.2.2-.4.2-.6s.1-.4.2-.5.1-.4.2-.5c0-.2.1-.3.1-.5v-1.1s0,0-.2-.2h-.6c-.3,0-.6.3-.8.5h-.1c0,0-.1,0-.1,0,0,.2-.2.3-.3.4,0,0-.1,0-.2.2,0,0-.1,0-.2.2-.1,0-.2.3-.3.5,0,.2-.2.4-.4.5-.1,0-.2.2-.3.3,0,0-.2.2-.3.3h-.3l-.2-.2s-.1,0-.2-.2c0,0-.1,0-.2-.2h0v-.4h0v-.5h0v-.2c0-.2.2-.4.4-.6.3-.3.7-.6,1-.8h.2c.1,0,.3-.2.4-.3s.3-.2.4-.3c.1,0,.2-.2.4-.3s.2-.2.4-.2.3-.2.4-.2.3,0,.5,0h.6c.1,0,.3,0,.4,0,.2,0,.4.2.6.3h.1c.1,0,.2.2.4.4.1,0,.2.3.2.5,0,0,0,.2.1.3s0,.2,0,.3v.4c0,.4,0,.8-.2,1.2v.8c0,0,0,.2-.1.3,0,.2-.1.3-.2.4s-.1.3-.2.4c0,0-.1.3-.1.4v.4c-.2.2-.2.3-.3.5s-.1.3-.2.5c-.2.3-.4.6-.6.8,0,0-.1,0-.1,0v.2h-.1,1.4c.1,0,.3,0,.4,0h2.5c.3,0,.6,0,.9.3.1.2.2.3.3.5h0c0,.4,0,.6-.1.8,0,0-.1,0-.1.2h-1.2c-.2,0-.4,0-.6,0h-5.4ZM426.1,850.7h-.3c-.1,0-.2,0-.3,0h-.1c-.1,0-.2,0-.2-.2h0c-.1-.3-.1-.5-.1-.8h0v-1.1h0v-1h0v-.6h0v-.2h0q0-.2-.1-.2h-2.7c-.2,0-.4,0-.5.2h-.4s-.1,0-.1.2v.4s0,.2-.1.3c0,0-.1,0-.3,0s-.2,0-.3,0c0,0,0,0-.1-.2v-.6c-.1,0-.1-.2-.2-.3v-.2c-.3-.3-.4-.5-.4-.8s0-.2,0-.2v-.2s.1,0,.1-.2v-.2c0-.2,0-.5.1-.7,0-.2.1-.5.2-.8s.1-.5.2-.8v-.4c.2,0,.2-.3.2-.4,0-.2.1-.4.2-.6s.1-.4.2-.6h0c0-.3.1-.4.2-.6s.1-.3.2-.5h0v-.3h0c0,0,.1-.2.2-.3s.1,0,.2,0h1s.2,0,.3.2c.2.2.3.5.3.8s0,.5-.2.7c0,0-.1.2-.1.4s0,.3-.1.4v.3c-.1,0-.2.2-.2.3h0v.2h0s-.1.2-.1.3v.8c0,0-.1.2-.2.4v.9c-.1,0,0,0,0,0h2.8v-5.2c0,0,0-.2.2-.4,0,0,0-.2.2-.2s.1,0,.2-.2h.8v.3h0c0,.2.1.3.1.5h0v.2s.1,0,0,.2h0v.6h0v.2h0v.4h0v.2h0v3.3h2.8q0,0,.2.2h0s0,.2.1.2v.2h0v.4h0s-.1,0-.2,0h-.1c0,.2-.1.2-.2.3h-2.5s0,.2-.1.2h0v.2q0,.1,0,0h0v.3h0v.3h0v.5h0s0,0,.1.2,0,.2,0,.2h0v.3h0v.8h-.2q0,0-.1.2h-.2l-.4,1.8ZM426.9,850.2h0ZM306.5,844.2h-1.1c-.1,0-.3,0-.4,0h-.1c-.2,0-.3-.3-.4-.4v-.4h0c0-.4.1-.6.3-.8l.2-.2s.2-.2.3-.2.2,0,.3-.2.2,0,.3-.2c.2,0,.4-.3.6-.4s.4-.3.5-.4c.3-.2.5-.5.7-.9,0-.2.2-.5.3-.7,0-.2.2-.4.2-.6s.1-.4.2-.5.1-.4.2-.5c0-.2.1-.3.1-.5v-1.1s0,0-.2-.2h-.6c-.3,0-.6.3-.8.5h-.1c0,0-.1,0-.1,0,0,.2-.2.3-.3.4,0,0-.1,0-.2.2,0,0-.1,0-.2.2-.1,0-.2.3-.3.5,0,.2-.2.4-.4.5-.1,0-.2.2-.3.3,0,0-.2.2-.3.3h-.3l-.2-.2s-.1,0-.2-.2c0,0-.1,0-.2-.2h0v-.4h0v-.5h0v-.2c0-.2.2-.4.4-.6.3-.3.7-.6,1-.8h.2c.1,0,.3-.2.4-.3s.3-.2.4-.3c.1,0,.2-.2.4-.3s.2-.2.4-.2.3-.2.4-.2.3,0,.5,0h.6c.1,0,.3,0,.4,0,.2,0,.4.2.6.3h.1c.1,0,.2.2.4.4.1,0,.2.3.2.5,0,0,0,.2.1.3s0,.2,0,.3v.4c0,.4,0,.8-.2,1.2v.8c0,0,0,.2-.1.3,0,.2-.1.3-.2.4s-.1.3-.2.4c0,0-.1.3-.1.4v.4c-.2.2-.2.3-.3.5s-.1.3-.2.5c-.2.3-.4.6-.6.8,0,0-.1,0-.1,0v.2h-.1,1.4c.1,0,.3,0,.4,0h2.5c.3,0,.6,0,.9.3.1.2.2.3.3.5h0c0,.4,0,.6-.1.8,0,0-.1,0-.1.2h-1.2c-.2,0-.4,0-.6,0h-5.4ZM317.2,845.7h0s-.2,0-.2,0c0,0-.1,0-.2-.2h0s-.1,0-.2-.2v-.6c0-.2,0-.3.2-.4.2-.2.4-.3.7-.3h.8c.2,0,.4,0,.6-.2s.4,0,.6-.2c.3-.2.6-.3,1-.4s.6-.3.9-.5c.1,0,.3,0,.4-.2s.2,0,.4-.2c.3-.2.5-.5.7-.7.1-.2.2-.4.1-.7v-.4c0,0-.1-.2-.2-.3s-.1-.2-.2-.3c0,0-.1,0-.1-.2s0,0-.1-.2c0,0-.1,0-.1-.2h-.1q0-.2-.1-.2h-3.7s-.2,0-.2.2h-.6c-.2,0-.3.3-.4.5v.2c-.1,0-.2.2-.3.2h-.3s-.1,0-.1-.2v-.4c0-.2,0-.3-.1-.4,0-.2-.1-.3-.1-.5v-3.8h0v-2.9c0-.1,0,0,0,0,.1-.2.3-.3.5-.4h6.4c0,0,0,.2.1.3,0,0,0,0,.1.2h0v.3h0v.2h0v.2c-.1,0-.2.2-.4.3,0,0-.1,0-.2,0,0,0-.1,0-.2,0h-4.4v3.5h4.4c.2,0,.5.2.7.3l.5.4c.1,0,.2,0,.3.2.1,0,.3.3.4.4s.2.3.3.4c0,0,0,0,.1.2.2.3.4.6.4,1v1.8c-.2.3-.4.5-.6.8,0,0-.1,0-.2.2,0,0-.1,0-.2.2h-.2c0,0-.1,0-.2.3,0,0-.1,0-.2.2s-.2,0-.3,0h-.1c0,0-.2,0-.2.2s-.1,0-.2.2h-.2c-.1.2-.2.2-.4.3-.1,0-.2,0-.4.2l-.9.4h-.6c-.2,0-.4,0-.5.2-.2,0-.4,0-.5.2h-.6l-1.6.9ZM309.3,680.5h-1.1c-.1,0-.3,0-.4,0h-.1c-.2,0-.3-.3-.4-.4v-.4h0c0-.4.1-.6.3-.8l.2-.2s.2-.2.3-.2.2,0,.3-.2.2,0,.3-.2c.2,0,.4-.3.6-.4s.4-.3.5-.4c.3-.2.5-.5.7-.9,0-.2.2-.5.3-.7,0-.2.2-.4.2-.6s.1-.4.2-.5.1-.4.2-.5c0-.2.1-.3.1-.5v-1.1s0,0-.2-.2h-.6c-.3,0-.6.3-.8.5h-.1c0,0-.1,0-.1,0,0,.2-.2.3-.3.4,0,0-.1,0-.2.2s-.1,0-.2.2c-.1,0-.2.3-.3.5,0,.2-.2.4-.4.5-.1,0-.2.2-.3.3,0,0-.2.2-.3.3h-.3l-.2-.2s-.1,0-.2-.2-.1-.2-.2-.2h0v-.4h0v-.5h0v-.2c0-.2.2-.4.4-.6.3-.3.7-.6,1-.8h.2c.1,0,.3-.2.4-.3s.3-.2.4-.3c.1,0,.2-.2.4-.3s.2-.2.4-.2.3-.2.4-.2.3,0,.5,0h.6c.1,0,.3,0,.4,0,.2,0,.4.2.6.3h.1c.1,0,.2.2.4.4.1,0,.2.3.2.5,0,0,0,.2.1.3s0,.2,0,.3v.4c0,.4,0,.8-.2,1.2v.8c0,0,0,.2-.1.3,0,.2-.1.3-.2.4s-.1.3-.2.4c0,0-.1.3-.1.4v.4c-.2.2-.2.3-.3.5s-.1.3-.2.5c-.2.3-.4.6-.6.8,0,0-.1,0-.1,0v.2h-.1,1.4c.1,0,.3,0,.4,0h2.5c.3,0,.6,0,.9.3.1.2.2.3.3.5h0c0,.4,0,.6-.1.8,0,0-.1,0-.1.2h-1.2c-.2,0-.4,0-.6,0h-5.4ZM325.2,681.8c-.2,0-.4,0-.6-.2-.2,0-.4,0-.6-.2,0,0-.2,0-.3-.2s-.2,0-.3-.2l-.6-.4h-.3c0,0,0-.2-.1-.2h-.5c-.1,0-.3,0-.4-.2s-.2-.2-.4-.2c-.5-.4-.9-.8-1.2-1.2h-.1c0,0-.2-.5-.2-.5,0,0-.1-.2-.2-.4l-.3-.6c0-.2-.2-.3-.2-.5s-.1-.3-.2-.5h0v-.2c0,0,0-.2-.1-.4h0v-.2h0v-1.5h0v-1h0c.1-.2.2-.3.2-.5v-.6c0,0,0-.2.1-.2h.1v-.5c0,0,0-.3.1-.4,0-.2.1-.3.3-.4l.2-.2c.1,0,.2-.2.2-.3h.1q0,0,.1-.2c.1,0,0,0,0,0s.1-.2.3-.3c.1,0,.2,0,.3-.2.1,0,.2,0,.3-.2h.2c.1,0,.2-.2.4-.3s.2,0,.4-.2h1.7s.1,0,.2,0c.1,0,.2,0,.3.3.2.3.2.5,0,.8h-.1c-.1,0-.2,0-.3.2-.1,0-.2,0-.3.2h-.1c-.1.2-.3.2-.5.3,0,0-.1,0-.2,0s-.1,0-.2,0c-.2,0-.4.3-.6.5-.4.4-.8.9-1,1.4,0,0-.1.3-.2.4s-.1.2-.2.4h0c0,.2,0,.4-.1.5,0,.2-.1.3-.1.5v.2c-.1.2-.1.5-.1.7v1.1c.1.2.1.4.2.5s.1.4.2.5v.2h0c0,0,.1.3.2.4s.1.2.2.3h0v-1h0v-.2l.2-.4c0,0,.1-.2.2-.3,0,0,.1-.2.2-.3s.2-.2.2-.3l.4-.4s.2-.2.3-.2.2,0,.3-.2l.4-.2c.1,0,.2,0,.4,0s.3,0,.4-.2c0,0,.2-.2.3-.2h.1c.1,0,0,0,0,0h1.2c.2,0,.5.2.7.4l.4.4h0s0,0,.1.2,0,0,.1.2h0c0,0,.1.2.2.3s0,.2.1.2h0v.4c0,0,0,.2.1.3v.5h0v1.7c0,.2,0,.3.1.4h0s.1,0,.1.2v.7c0,.1,0,.2-.1.4,0,.2-.2.3-.4.5,0,0-.2.2-.2.3s-.2.2-.2.3l-.6.7c-.1.2-.2.3-.3.5h0c0,0,0,.2-.1.3s-.1,0-.2,0h-1.2l1.1-1.2ZM325.3,680h.2s.1,0,.1,0h.1c.2-.3.3-.4.5-.6s.3-.3.5-.5h.1v-.3h0c0-.2,0,0,0,0v-.5c0,0,0-.3.1-.5v-.5h.1v-.7s0-.2-.1-.3c0,0-.1-.3-.2-.4l-.2-.4h-.6c-.1.2-.3.2-.4.2h-.4c-.1,0-.2,0-.4.2h0c-.2,0-.3,0-.4.2s-.3.2-.4.3c0,0-.1,0-.2.2s-.1.2-.1.2c0,0-.1.2-.1.4v.9c.1.3.3.6.4.9,0,0,0,0,.1.2s0,0,.1.2h0v.2c.2.2.1,0,.2.2.1,0,.2.2.4.4.2.2.5.3.8.4h0l-.2-.2ZM326.2,491.8h-.3c0-.1,0,0,0,0h-.8c-.1,0-.3,0-.4-.1h-.1c-.2-.1-.3-.3-.4-.4h0v-.2h0c0-.4.1-.6.3-.8l.2-.2s.2-.2.3-.2.2-.1.3-.2.2-.1.3-.2c.2-.1.4-.3.6-.4s.4-.3.5-.4c.3-.2.5-.5.7-.9,0-.2.2-.5.3-.7,0-.2.2-.4.2-.6s.1-.4.2-.5.1-.4.2-.5c0-.1.1-.3.1-.5v-1.1s0-.1-.2-.2h-.6c-.3.1-.6.3-.8.5h-.1c0,.1-.1.1-.1.1,0,.2-.2.3-.3.4l-.2.2-.2.2c-.1.1-.2.3-.3.5,0,.2-.2.4-.4.5-.1,0-.2.2-.3.3,0,.1-.2.2-.3.3h-.3l-.2-.2-.2-.2-.2-.2h0v-.5h0v-.2h0v-.3h0c0-.3.2-.5.4-.7.3-.3.7-.6,1-.8h.1c.1-.2.1-.1.1-.2.1-.1.3-.2.4-.3s.3-.2.4-.3c.1,0,.2-.2.4-.3s.2-.2.4-.2.3-.1.4-.2.3-.1.5-.1h.6c.1,0,.3,0,.4.1.2,0,.4.2.6.3h.1l.4.4c.1.1.2.3.2.5,0,0,0,.2.1.3s0,.2,0,.3h0v.3c0,.4,0,.8-.2,1.2v.8c0,0,0,.2-.1.3,0,.1-.1.3-.2.4s-.1.3-.2.4c0,.1-.1.3-.1.4v.4c-.2.1-.2.3-.3.5,0,.1-.1.3-.2.5-.2.3-.4.6-.6.8,0,0-.1,0-.1.1h-.1v.2h1.4c.1-.1.3-.1.4-.1h2.5c.3,0,.6,0,.9.3s.2.3.3.5h0c0,.4,0,.6-.1.8,0,0-.1.1-.1.2h-1.2c-.2,0-.4-.1-.6-.1h-5.4ZM338.2,492.3h-.4c0-.2-.1-.2-.1-.3,0,0-.1,0-.1-.2s-.1-.2-.1-.4,0-.4.1-.6h0c0-.1.1-.2.2-.3,0-.1,0-.2.1-.3,0-.2.1-.4.1-.5s0-.4.1-.5v-2.2s0-.1-.1-.1h-.2s-.2,0-.2.1-.1,0-.2,0c0,0-.2,0-.3.1s-.2.1-.3.2h-.1c-.2.1-.4.1-.5,0-.2-.2-.4-.4-.5-.6h0v-.2c-.1-.3,0-.5,0-.8s.1-.2.2-.3h0s.1-.1.2-.1h2.3s.1,0,.1-.1h0c0-.3,0-.5.1-.6v-.5c.2,0,.2-.1.2-.2v-.2c0-.1,0-.2.1-.3.1-.2.2-.5.2-.7v-.4l.2-.7h0c-.1,0-.3,0-.4.1s-.2,0-.4.1h-.2c-.1.1-.3.1-.4.2s-.3.1-.4.2h-.6s-.2.1-.3.2l-.2.2-.2.2s-.1.2-.2.3-.2.2-.3.2-.3,0-.4.1-.3,0-.4,0h-.2s-.2,0-.2-.2c0,0,0-.1-.1-.1,0-.1-.1-.2-.2-.3h0v-.6c0-.2.2-.5.4-.6h.1v-.2h.6c.3,0,.6,0,.9-.1h.8c.2,0,.4-.2.6-.2s.4-.2.6-.2h.1q0-.1.1-.2c.1,0,.3-.1.4-.2s.3-.1.4-.2h.2q0-.2.1-.3c.2-.2.5-.3.9-.3s.3,0,.4.2c.1,0,.2.2.3.3,0,0,0,.2.1.3s0,.2.1.3c0,.1.1.3,0,.5v.3c0,0,0,.2-.1.3v.2q0,.1-.1.2v.2c-.1,0-.1.1-.1.2s0,.1-.1.2h0v.3h0c0,.2,0,.1,0,.1h0q0,.3-.1.4v.2h0q0,.1-.2.2h0s-.1.2,0,.3h0v.6h0v.2h0q0,.1.1.1h.5s.2,0,.2.2h0c0,.1.1.3.2.4h0v.4s0,.1.1.2h0v.2h0s-.2.1-.3,0h-.1l-.2.2s-.1.1-.3.1h-.6c-.1,0,0,0,0,0h-.1v1h0v.3h0v.3h0v.6h0c0,.1-.1.6-.1.6h0v.7h0v.2h0s0,.2-.1.3v.9h0q0,.2-.1.3c-.1,0-.1,0-.2.1h0s-.1,0-.2.1h-1.2ZM284.4,466.2h-.3c0-.1,0,0,0,0h-.8c-.1,0-.3,0-.4-.1h-.1c-.2-.1-.3-.3-.4-.4h0v-.2h0c0-.4.1-.6.3-.8l.2-.2s.2-.2.3-.2.2-.1.3-.2c.1,0,.2-.1.3-.2.2-.1.4-.3.6-.4s.4-.3.5-.4c.3-.2.5-.5.7-.9,0-.2.2-.5.3-.7,0-.2.2-.4.2-.6s.1-.4.2-.5.1-.4.2-.5c0-.1.1-.3.1-.5v-1.1s0-.1-.2-.2h-.6c-.3.1-.6.3-.8.5h-.1c0,.1-.1.1-.1.1,0,.2-.2.3-.3.4l-.2.2-.2.2c-.1.1-.2.3-.3.5,0,.2-.2.4-.4.5-.1,0-.2.2-.3.3,0,.1-.2.2-.3.3h-.3l-.2-.2-.2-.2-.2-.2h0v-.5h0v-.2h0v-.3h0c0-.3.2-.5.4-.7.3-.3.7-.6,1-.8h.1c0-.1.1-.1.1-.2.1-.1.3-.2.4-.3s.3-.2.4-.3c.1,0,.2-.2.4-.3s.2-.2.4-.2.3-.1.4-.2.3-.1.5-.1h.6c.1,0,.3,0,.4.1.2,0,.4.2.6.3h.1l.4.4c.1.1.2.3.2.5,0,0,0,.2.1.3s0,.2,0,.3h0v.3c0,.4,0,.8-.2,1.2v.8c0,0,0,.2-.1.3,0,.1-.1.3-.2.4s-.1.3-.2.4c0,.1-.1.3-.1.4v.4c-.2.1-.2.3-.3.5s-.1.3-.2.5c-.2.3-.4.6-.6.8,0,0-.1,0-.1.1h-.1v.2h1.4c.1-.1.3-.1.4-.1h2.5c.3,0,.6,0,.9.3s.2.3.3.5h0c0,.4,0,.6-.1.8,0,0-.1.1-.1.2h-1.2c-.2,0-.4-.1-.6-.1h-5.4ZM296.5,466.8h-.5s-.2,0-.2-.1-.1,0-.2-.1c0,0-.2,0-.2-.1-.1-.1-.3-.2-.4-.3s-.2-.2-.3-.4h0c0-.1-.4-.7-.4-.7h0c0-.1-.2-.6-.2-.6h0v-2.1c-.2-.2-.2-.4-.1-.6,0-.4.2-.8.4-1.1.1-.2.3-.4.5-.6h.1v-.2c.1-.2.3-.4.5-.5h.1c0-.2.1-.2.1-.3l.4-.4c.1,0,.2-.2.2-.3v-.2c0-.1-.2-.2-.2-.2l-.2-.2h-.1c0-.1-.1-.1-.1-.1-.2-.2-.4-.4-.6-.5h0c0-.2-.2-.3-.3-.4,0-.1-.1-.3-.2-.4h0v-.6c0-.2.1-.4.3-.5l.3-.3c0,0,.2-.2.4-.2s.3-.1.4-.2.3-.1.4-.2c.2,0,.5-.2.8-.3s.5-.2.8-.2h.3c.1-.1.2-.1.4-.2h1.5c.2.2.4.3.5.5s.2.3.3.4c.1.2.2.4.2.7h0c0,.2,0,.3.1.4h.2c.4.4.5.9.4,1.4,0,0,0,.2-.1.2l-.2.2c-.1,0-.2.1-.3.2s-.2.2-.3.3l-.2.2-.2.2s-.1.2-.2.2-.2.1-.3.2c0,0,0,.1-.1.2v.2h0c0,.1.2.3.2.3.3.2.5.4.7.7v.2c.3.2.3.4.4.6v.8h0v1.7h0v.2l-.2.5c0,.1,0,.2-.1.3h0c0,.2,0,.3-.1.4s-.1.2-.2.2c-.2.4-.5.7-.8,1.1,0,0-.1.1-.1.2l-.2.2s-.2.2-.3.2-.3.1-.5.2-.3,0-.5.1h-1l-.8-.3ZM297.2,464.6c.1,0,.3,0,.4-.2h0c.1-.1.2-.3.4-.4s.2-.3.4-.4h0c0-.2.2-.3.2-.4s.1-.2.2-.4c0-.2,0-.3.1-.5s0-.3,0-.5v-.6c0-.2-.1-.3-.2-.5,0-.1-.2-.3-.4-.4h0c-.1,0-.2-.2-.3-.2s-.2-.2-.3-.3h0c0-.1-.1-.2-.3-.2h-.2c-.1.2,0,.1-.1.2h-.2c0,.1-.1.2-.2.3,0,0-.1,0-.2.1h0v.2h0c0,.1-.1.1-.2.2h0v.2h0c0,.2,0,.1,0,.1h0v.5h0v.4h0v.8h0v.3h0c0,.1.1.3.2.3,0,.1.2.2.3.3h.9l-.5,1.1ZM297.9,456.9h.2l.3-.2v-.4c-.1,0-.2-.2-.2-.2l-.2-.2s-.1-.2-.2-.3c0-.1-.1-.2-.2-.3h-1.2c.3.3.5.4.7.6l.2.2.2.2.2.2h.1v.4ZM293.3,640.8h-1.1c-.1,0-.3,0-.4,0h-.1c-.2,0-.3-.3-.4-.4v-.4h0c0-.4.1-.6.3-.8l.2-.2s.2-.2.3-.2.2,0,.3-.2.2,0,.3-.2c.2,0,.4-.3.6-.4s.4-.3.5-.4c.3-.2.5-.5.7-.9,0-.2.2-.5.3-.7,0-.2.2-.4.2-.6s.1-.4.2-.5.1-.4.2-.5c0-.2.1-.3.1-.5v-1.1s0,0-.2-.2h-.6c-.3,0-.6.3-.8.5h-.1c0,0-.1,0-.1,0,0,.2-.2.3-.3.4,0,0-.1,0-.2.2,0,0-.1,0-.2.2-.1,0-.2.3-.3.5,0,.2-.2.4-.4.5-.1,0-.2.2-.3.3,0,0-.2.2-.3.3h-.3l-.2-.2s-.1,0-.2-.2c0,0-.1,0-.2-.2h0v-.4h0v-.5h0v-.2c0-.2.2-.4.4-.6.3-.3.7-.6,1-.8h.2c.1,0,.3-.2.4-.3s.3-.2.4-.3c.1,0,.2-.2.4-.3s.2-.2.4-.2.3-.2.4-.2.3,0,.5,0h.6c.1,0,.3,0,.4,0,.2,0,.4.2.6.3h.1c.1,0,.2.2.4.4.1,0,.2.3.2.5,0,0,0,.2.1.3s0,.2,0,.3v.4c0,.4,0,.8-.2,1.2v.8c0,0,0,.2-.1.3,0,.2-.1.3-.2.4s-.1.3-.2.4c0,0-.1.3-.1.4v.4c-.2.2-.2.3-.3.5s-.1.3-.2.5c-.2.3-.4.6-.6.8,0,0-.1,0-.1,0v.2h-.1,1.4c.1,0,.3,0,.4,0h2.5c.3,0,.6,0,.9.3.1.2.2.3.3.5h0c0,.4,0,.6-.1.8,0,0-.1,0-.1.2h-1.2c-.2,0-.4,0-.6,0h-5.4ZM308.4,641.5h-.7c-.1,0,0,0-.1,0,0,0,0,0-.1-.2h0v-.3h0v-3.6h0v-2.5h0v-.7h-.3l-.4.2c-.1,0-.2,0-.4.2h-2.3s-.1,0-.2,0h-.2q0-.2-.1-.2s-.1,0-.2-.2c0,0-.1,0-.1-.2h0s-.2,0-.2-.2c0,0-.1-.2-.2-.2h-.1c-.1-.2,0,0-.1-.2h-.1c0-.2-.1-.3-.2-.3s-.1-.2-.2-.2c0,0,0-.2-.1-.3v-.3c-.2-.2-.2-.3-.2-.5v-.5c0-.4.1-.8.4-1.1.1-.2.2-.3.4-.4l.4-.4c.4-.3.8-.7,1.2-.9.1,0,.2-.2.3-.2s.2,0,.4,0h.2s.2,0,.2-.2.1,0,.2,0c.2,0,.4-.2.6-.2s.4,0,.6,0h1.6v-.2c0-.2.2-.3.3-.5h0s.2,0,.3-.2.2,0,.3,0h.4c.2,0,.4.2.5.4,0,0,.1.2.2.2v1h0v1.7h0v.7c0,.4,0,.8-.1,1.2v2.7h0v6.8h0v.2q-.2,0-.3,0h-1.6ZM304.8,632.7c.3,0,.5,0,.7-.2h.1l.2-.3s.2,0,.3-.2h.1c0,0,.1-.4.1-.4,0-.2.2-.3.2-.5s.1-.3.2-.5h0v-.7h0c0-.2-.1-.2-.1-.3v-.2c-.2,0-.3-.2-.4-.3h-.5c-.1,0-.2,0-.3,0l-.4.2c-.2,0-.4.2-.6.4h-.1l-.4.4-.3.3-.3.3c-.1.2-.2.3-.3.5v.5q0,.1.1.2l.5.5c.2,0,.4.2.6.3h.6ZM296.2,806.9h-.4c-.1,0-.3,0-.4-.2h0s-.1,0-.2,0c0,0-.1,0-.2-.2l-.3-.3h0v-.2h0v-.2s0-.2.2-.2c0,0,.1,0,.1,0s0-.2.2-.3c0,0,.2,0,.3-.2.1,0,.3,0,.5,0h.8c.1,0,.3,0,.5,0l.5-.2.6-.2c.2,0,.3,0,.4-.2.1,0,.2,0,.3,0l.3-.2s.2,0,.2-.2.1,0,.2-.2c0,0,.1-.2.2-.2,0,0,.1-.3,0-.4v-.4s0-.2-.1-.2,0-.2-.1-.3h0s-.1-.2-.2-.3-.1-.2-.2-.3c0,0-.1,0-.2-.2s-.1,0-.2,0h-.6c-.2,0-.4,0-.5,0h-.5c-.2,0-.3-.2-.5-.2s-.2,0-.3,0h-.1s-.2,0-.4,0h-.5v-.8h0c0-.2,0,0,0,0v-.4c.2-.2.4-.4.5-.6.2-.2.4-.5.5-.7.2-.2.4-.4.5-.7,0,0,.2-.2.2-.3v-.2c.2,0,.2,0,.3-.2h0v-.6h-2c-.2,0-.4,0-.6.2s-.4,0-.6.2h-.9c-.1,0-.3,0-.4.2h-.6c-.1,0-.2,0-.3,0h-.1v-.4c0-.2,0-.4.1-.5,0,0,0,0,.1-.2s.1,0,.2-.2c.2-.2.4-.2.6-.3h5.9c0,0,.1.2.1.2h.1c.1,0,.2.2.3.2s.1.2.2.3c.1.2.2.4.1.6v.4c0,.1,0,.3-.1.4l-.3.6v.4l-.3.3c0,0-.2.3-.2.4s-.2.3-.3.4h0v.2h.6c.2,0,.3,0,.5,0,.2,0,.4,0,.6.2s.4.2.5.3c.3.2.6.5.8.8.1,0,.2.3.3.4s.2.3.3.5l.3.5c.2.4.3.8.3,1.2v.8c0,0,0,.3-.1.4s-.1.2-.2.4c0,0-.2.2-.2.3s-.1.2-.3.3h0s-.1,0-.2.2c0,0-.1,0-.2.2,0,0-.1,0-.2,0,0,0-.1,0-.2,0-.2.2-.4.2-.6.2h-.5l-.5.2h-.4c-.1,0-.3,0-.4,0-.1,0-.3,0-.4,0s-.3,0-.4.2l-.2.2s-.1,0-.1,0h-.3l-1.2-.2ZM308.3,806.7h-.8c-.3,0-.6,0-.9-.2h-.2c-.1,0-.2,0-.3-.2s-.2,0-.3,0c0,0-.2,0-.3,0,0,0-.2,0-.3,0h0c0,0-.2-.2-.3-.2s-.2,0-.3,0c-.1,0-.2,0-.3-.2s-.2-.2-.3-.2h0c0,0-.1-.2-.2-.3s-.1-.2-.2-.3v-.3c-.1,0-.2,0-.2-.2v-2.2h0v-.6h0v-.2c0,0,.1-.2.1-.3s0-.2.1-.3v-.2h0v-.3h.2v-.6c0-.2,0-.3.2-.5,0,0,.1,0,.1-.2h0c.1-.2.2-.3.2-.5s.1-.3.2-.5h0s0-.2.2-.2h0s.1,0,0-.2h0v-.2c0,0,0-.2.1-.2h.1s.1,0,.2-.2,0,0,.1,0h0c0,0,0-.2.2-.3h0s-.1,0-.2-.2c0,0-.1,0-.2-.2,0,0-.1,0-.1-.2s0,0-.1-.2h0v-.3h0v-.3h0v-.2h.1s.1,0,.1,0h.7c.1,0,.2,0,.3,0,.1,0,.2,0,.3,0h.4s.1,0,.1,0,0,0,.1,0,.2-.2.4-.2h.9s0,0,.1,0h.4c.1,0,.2,0,.2,0h0c0,0,0,.2.1.2h0v.2c0,.2-.2.4-.4.5h-.3c0,0,.1.2.2.3s.1,0,.2.2c0,0,.1.2.2.2s.1.2.2.2c0,0,0,.2.1.2l.2.2.2.3s.1.2.2.3.1.2.2.3c.1.2.2.3.3.5s.2.3.3.5c.2.3.3.7.5,1,.1.2.2.5.3.8s.1.5.2.8l.2.8v.6c0,.2-.1.4-.2.6,0,.2-.2.5-.3.7,0,.2-.1.3-.2.5s-.1.3-.2.5-.2.4-.4.6c0,0-.1,0-.1.2s0,0-.1.2c0,0-.1,0-.2.2s-.1,0-.2.2l-.2.2s-.2,0-.3.2-.2,0-.3.2c-.2,0-.4.2-.6.2s-.5,0-.8,0h-.5l1.1-.7ZM307.8,804.8h1.2c.1,0,.3,0,.5-.2,0,0,.1,0,.2,0,0,0,.2-.2.4-.3h.1c0,0,.1-.2.1-.3s0,0,.1-.2l.2-.5c0-.2.1-.3.2-.5,0-.2.1-.4.1-.5h0v-.5c0-.2,0-.3-.1-.5v-.5c-.1-.2-.2-.5-.3-.7,0-.2-.2-.4-.3-.7,0-.2-.2-.3-.3-.5s-.2-.3-.3-.5c0,0,0-.2-.1-.2,0,0-.1-.2-.2-.3s-.1-.2-.2-.3l-.5-.7c0,0-.1-.2-.2-.3s-.1-.2-.2-.2h-.1l-.5.7c-.4.5-.7,1.1-1,1.8,0,.2-.2.4-.3.7s-.2.5-.3.7c0,.2-.2.5-.3.8s-.2.5-.2.8c-.1.3-.2.7-.2,1h0v.7c0,.2.2.4.3.6l.4.3c.1,0,.2.2.4.3s.3.2.4.2c.2,0,.3,0,.5.2s.4,0,.5,0h0v-.3Z"/>
  </g>
  <g id="palle">
    <circle class="cls-1" cx="241.7" cy="768" r="6"/>
    <circle class="cls-1" cx="286.9" cy="812.6" r="6"/>
    <circle class="cls-1" cx="286.9" cy="648.9" r="6"/>
    <circle class="cls-1" cx="286.9" cy="477.4" r="6"/>
    <circle class="cls-1" cx="323.7" cy="502.9" r="6"/>
    <circle class="cls-1" cx="332.6" cy="660.9" r="6"/>
    <circle class="cls-1" cx="335.6" cy="836" r="6"/>
    <circle class="cls-1" cx="394.8" cy="841.9" r="6"/>
    <circle class="cls-1" cx="377.9" cy="654.9" r="6"/>
    <circle class="cls-1" cx="372" cy="483.4" r="6"/>
    <circle class="cls-1" cx="579.5" cy="615.1" r="6"/>
    <circle class="cls-1" cx="585.4" cy="787.1" r="6"/>
    <circle class="cls-1" cx="591.4" cy="964.2" r="6"/>
    <circle class="cls-1" cx="661.1" cy="964.2" r="6"/>
    <circle class="cls-1" cx="649.2" cy="781.2" r="6"/>
    <circle class="cls-1" cx="649.2" cy="578.4" r="6"/>
    <circle class="cls-1" cx="758.7" cy="584.3" r="6"/>
    <circle class="cls-1" cx="764.6" cy="743.5" r="6"/>
    <circle class="cls-1" cx="776.5" cy="964.2" r="6"/>
    <circle class="cls-1" cx="832.7" cy="958.2" r="6"/>
    <circle class="cls-1" cx="816.9" cy="731.5" r="6"/>
    <circle class="cls-1" cx="810.9" cy="506.1" r="6"/>
    <circle class="cls-1" cx="560.9" cy="483.4" r="6"/>
    <circle class="cls-1" cx="560.9" cy="336.5" r="6"/>
    <circle class="cls-1" cx="535.9" cy="186.3" r="6"/>
    <circle class="cls-1" cx="471.8" cy="90.3" r="6"/>
    <circle class="cls-1" cx="351.1" cy="108.3" r="6"/>
    <circle class="cls-1" cx="292.8" cy="198.2" r="6"/>
    <circle class="cls-1" cx="260.3" cy="354.8" r="6"/>
    <circle class="cls-1" cx="247.6" cy="556.7" r="6"/>
  </g>
</svg>