<?xml version="1.0" encoding="UTF-8"?>
<svg id="Layer_1" data-name="Layer 1" xmlns="http://www.w3.org/2000/svg" version="1.1" viewBox="0 0 711.3 974.3">
  <defs>
    <style>
      .cls-1 {
        fill: #fffbc1;
        stroke-width: 0px;
      }
    </style>
  </defs>
  <g id="numeri">
    <path class="cls-1" d="M49.4,454.4h-.8s0-.1-.2-.2c0-.1,0-.2,0-.3s0-.2,0-.3v-1.6h0v-1.7c0-.1,0-.2,0-.3v-3h0v-1.8s0-.2,0-.3v-.2c0,0,.2-.2.3-.2s0-.1.2-.2h.4s0,0,.2.1c.2,0,.3.2.3.4v.2c0,0,.2.1.2.2v1.9h0v.3h0v1.1h0v1.3h0v.4h0v2.2h0v1.5h0c0,.2,0,.1,0,.1v.2c0,.2-.3.3-.5.5h0v-.3ZM74.1,347.8h-.3c0-.1,0,0,0,0h-.8c0,0-.3,0-.4-.1h0c-.2-.1-.3-.3-.4-.4h0v-.2h0c0-.4,0-.6.3-.8l.2-.2s.2-.2.3-.2.2-.1.3-.2c0,0,.2-.1.3-.2.2-.1.4-.3.6-.4s.4-.3.5-.4c.3-.2.5-.5.7-.9,0-.2.2-.5.3-.7,0-.2.2-.4.2-.6s0-.4.2-.5,0-.4.2-.5c0-.1,0-.3,0-.5v-1.1s0-.1-.2-.2h-.6c-.3.1-.6.3-.8.5h0c0,.1,0,.1,0,.1,0,.2-.2.3-.3.4l-.2.2-.2.2c0,.1-.2.3-.3.5,0,.2-.2.4-.4.5,0,0-.2.2-.3.3,0,.1-.2.2-.3.3h-.3l-.2-.2-.2-.2-.2-.2h0v-.5h0v-.2h0v-.3h0c0-.4.2-.5.4-.7.3-.3.7-.6,1-.8h0c0-.1,0-.1,0-.2,0-.1.3-.2.4-.3s.3-.2.4-.3c0,0,.2-.2.4-.3s.2-.2.4-.2.3-.1.4-.2.3-.1.5-.1h.6c0,0,.3,0,.4.1.2,0,.4.2.6.3h0c0,.1.2.2.4.4,0,.1.2.3.2.5,0,0,0,.2,0,.3s0,.2,0,.3h0v.3c0,.4,0,.8-.2,1.2v.8c0,0,0,.2,0,.3,0,.1,0,.3-.2.4s0,.3-.2.4c0,.1,0,.3,0,.4v.4c-.2.1-.2.3-.3.5,0,.1,0,.3-.2.5-.2.3-.4.6-.6.8,0,0,0,0,0,.1h0v.2h1.4c0-.1.3-.1.4-.1h2.5c.3,0,.6,0,.9.3,0,.1.2.3.3.5h0c0,.4,0,.6,0,.8,0,0,0,.1,0,.2h-1.2c-.2,0-.4-.1-.6-.1h-5.4ZM168.2,273.4h-.4c0,0-.3,0-.4-.2h0s-.1,0-.2-.1-.1-.1-.2-.1l-.3-.3h0v-.2h0v-.2s0-.1.2-.2c0,0,.1,0,.1-.1s0-.2.2-.3c0,0,.2-.1.3-.2.1,0,.3-.1.5-.1h.8c.1,0,.3,0,.5-.1h.5c0-.1.6-.4.6-.4.2,0,.3-.1.4-.2.1,0,.2,0,.3-.1h.3c0-.2.2-.2.2-.3s.1-.1.2-.2c0,0,.1-.2.2-.2,0-.1.1-.3,0-.4v-.4c0-.1,0-.2-.1-.2s0-.2-.1-.3h0c0-.1-.1-.3-.2-.4s-.1-.2-.2-.3c0,0-.1-.1-.2-.2s-.1,0-.2-.1h-.6c-.2,0-.4,0-.5-.1h-.5c-.2-.1-.3-.2-.5-.2s-.2-.1-.3-.1h-.1s-.2,0-.4-.1h-.5v-.8h0c0-.2,0-.1,0-.1v-.2h0c.1-.4.3-.5.5-.7s.4-.5.5-.7c.2-.2.4-.4.5-.6,0-.1.2-.2.2-.3v-.2c.2,0,.2-.1.3-.2h0v-.6h-2c-.2,0-.4.1-.6.2-.2,0-.4.1-.6.2,0,0-.2,0-.3.1h-.6c-.1,0-.3.1-.4.2h-.6c-.1,0-.2,0-.3-.1h-.1v-.4c0-.2,0-.4.1-.5,0,0,0-.1.1-.2,0,0,.1-.1.2-.2.2-.1.4-.2.6-.3h4c.1,0,.2,0,.3-.1s.1,0,.2,0h1.4c0,.1.1.2.1.2h.1c.1,0,.2.2.3.2s.1.2.2.3c.1.2.2.4.1.6v.4c0,.1,0,.3-.1.4l-.3.6v.4l-.3.3c0,.1-.2.3-.2.4s-.2.3-.3.4h0v.2h.1c.2,0,.3,0,.5.1.2,0,.3.1.5.1s.4.1.6.2.4.2.5.3c.3.2.6.5.8.8.1.1.2.3.3.4s.2.3.3.5l.3.5c.2.4.3.8.3,1.2v.9c0,.1,0,.3-.1.4s-.1.2-.2.4c0,0-.2.2-.2.3s-.1.2-.3.3h0s-.1.1-.2.1c0,0-.1.1-.2.1,0,0-.1,0-.2.1s-.1,0-.2.1c-.2.1-.4.2-.6.2h-.5l-.5.2h-.4c-.1,0-.3.1-.4.1s-.3,0-.4.1-.3.1-.4.2l-.2.2s-.1,0-.1.1h-.3l-1.2-.5ZM312.4,305h-.3c-.1,0-.2,0-.3-.1h-.1c-.1,0-.2-.1-.2-.2h0c-.1-.3-.1-.5-.1-.8h0v-.9h0v-1.1h0v-.7h0v-.2h0q0-.2-.1-.2h-2.6c-.2,0-.4,0-.5.2,0,0-.1,0-.2.1s-.1,0-.2.1c0,0-.1.1-.1.2v.4c0,.1,0,.2-.1.3,0,0-.1.1-.3.1s-.2,0-.3-.1c0,0,0-.1-.1-.2v-.6s-.2-.2-.2-.3v-.2c-.3-.3-.4-.5-.4-.8s0-.2,0-.2v-.2s.1-.1.1-.2v-.2c0-.2,0-.5.1-.7,0-.2.1-.5.2-.8s.1-.5.2-.8v-.4c.2-.1.2-.3.2-.4,0-.2.1-.4.2-.6s.1-.4.2-.6h0c0-.3.1-.4.2-.6,0-.2.1-.3.2-.5h0v-.3h0c0-.1.1-.2.2-.3,0,0,.1,0,.2-.1h.8s.2,0,.2.1c0,0,.2.1.3.2.2.2.3.5.3.8s0,.5-.2.7c0,.1,0,.2-.2.4s0,.3-.1.4v.3c-.1.1-.2.2-.2.3h0v.2h0s-.1.2-.1.3v.8c0,.1-.1.2-.2.4v.9h2.8v-1.4h0v-3.8c0-.1,0-.2.2-.4,0,0,0-.2.2-.2s.1-.1.2-.2h.7v.3h0c0,.2.1.3,0,.5h0v.2s.1.1,0,.2h0v.6h0v.2h0v.4h0v.2h0v2.2h0v1.2h0c0,.1.5.1.5.1h2s.2,0,.3.1.2.1.2.2h0v.4h0v.4h0v.2h-.2c0,.3-.1.3-.2.4h-2.5c0,.2,0,.3-.1.3h0v.2h0v.2h0v.2h0v.3h0v.5h0v.4c0,.1,0,0,0,0h0v.3h0v.7c0,0,0,0,0,0h0v.2h0q0,.1-.1.2h-.2l-.3.8ZM313.2,304.4h0ZM290,168.4h0s-.2,0-.2-.1c0,0-.1-.1-.2-.2h0s-.1-.1-.2-.2,0-.2,0-.3v-.3c0-.2,0-.3.2-.4.2-.2.4-.3.7-.3h.8c.2,0,.4-.1.6-.2s.4-.1.6-.2c.3-.1.6-.3,1-.4.3-.1.6-.3.9-.5.1,0,.3-.1.4-.2.1,0,.2-.1.3-.2.3-.2.5-.4.7-.7.1-.2.2-.4.1-.7v-.4c0-.1-.1-.2-.2-.3s-.1-.2-.2-.3c0,0,0-.1-.1-.2s0-.1-.1-.2c0,0,0-.1-.2-.2h-.2c0-.1,0-.2-.1-.2h-3.5q-.1,0-.2.1h0s-.2,0-.2.2h0s-.1,0-.2.1c0,0-.1,0-.2.1h0q0-.1-.1-.1h-.1c-.2.1-.3.3-.4.5v.2c0,.1-.2.2-.3.2h-.3s-.1-.1-.1-.2v-.4c0-.1,0-.3-.1-.4,0-.2-.1-.3-.1-.5v-3.8h0v-3h0c.1-.3.3-.4.5-.5h6.7c0,.2,0,.1,0,.1,0,0,0,.1.1.2,0,0,0,.1.1.2h0v.2c0,.1,0,0,0,0h0v.2h0c0,.1,0,.2-.1.3,0,0-.1.2-.3.3,0,0-.1.1-.2.1,0,0-.1.1-.2.1h-4.4v3.4h0c.2.1.3.1.5,0s.3,0,.5-.1h3.4c.2,0,.5.2.7.3l.5.4c.1,0,.2.1.3.2.1.1.3.3.4.4s.2.3.3.4v.2c.2.3.4.6.4,1v1.8c-.2.3-.4.5-.6.8,0,0-.1.1-.2.2,0,0-.1.1-.2.2h-.2c0,.1-.2.1-.2.3,0,0-.1.1-.2.2s-.2.1-.3.1h0c0,.1-.2.1-.2.2s-.2.1-.2.1h-.2c-.1.2-.2.2-.3.3s-.2.1-.3.2l-.9.4h-.6c-.2,0-.3.1-.5.2-.2,0-.3.1-.5.2h-.8l-1.6,1.1ZM200.2,226.2c-.2,0-.4,0-.6-.2s-.4-.1-.6-.2c0,0-.2-.1-.3-.2,0,0-.2-.1-.3-.2l-.6-.4h-.1c-.1-.2,0-.1-.1-.2h-.1c0-.1,0-.2-.1-.2h-.5c-.1,0-.3-.1-.4-.2-.1,0-.2-.2-.4-.2-.5-.4-.9-.8-1.2-1.2h-.1c0-.1-.2-.5-.2-.5,0-.1-.1-.2-.2-.4l-.3-.6c0-.1-.2-.3-.2-.5s-.1-.3-.2-.5h0v-.2c0-.1,0-.2-.1-.4h0v-.2h0v-.2h0v-1.4h0v-1h0c.1-.1.2-.3.2-.5v-.2h0v-.2c0-.1,0-.2.1-.2h.1v-.5c0-.1,0-.3.1-.4,0-.2.1-.3.3-.4l.2-.2c.1,0,.2-.2.2-.3h.1c0-.1,0-.2.1-.2s0,0,0-.1.1-.2.3-.3c.1,0,.2,0,.3-.1.1,0,.2-.1.3-.2h.2c.1-.1.2-.2.4-.3s.2-.1.4-.2h1.7s.1,0,.2.1c.1,0,.2.1.3.3.2.3.2.6,0,.8h-.1c-.1.1-.2.2-.3.3-.1,0-.2.1-.3.2h-.1c-.1.1-.3.2-.5.3,0,0-.1,0-.2.1s-.1,0-.2.1c-.2.1-.4.3-.6.5-.4.4-.8.9-1,1.4,0,.1-.1.3-.2.4s-.1.2-.2.4h0c0,.2,0,.4-.1.5s-.1.3-.1.5v.2c-.1.2-.1.5-.1.7v1.1c.1.2.1.4.2.5s.1.4.2.5h0v.2s.1.2.2.3.1.2.2.3h0v-1h0v-.2l.2-.4c0-.1.1-.2.2-.3,0-.1.1-.2.2-.3s.2-.2.2-.3l.4-.4s.2-.2.3-.2.2-.1.3-.2h.4c.1-.2.2-.2.4-.3s.3-.1.4-.2c0,0,.2-.1.3-.2h.1c.1,0,0,0,0,0h1.2c.2,0,.5.2.7.4l.4.4h0s0,.1.1.2,0,.1.1.2h0c0,.1.1.2.2.3s0,.2.1.2h0v.5c0,.1,0,.2.1.3v.5h0v1.7c0,.1,0,.3.1.4h0s.1.1.1.2v.7c0,0,0,.2-.1.4,0,.2-.2.3-.4.5,0,0-.2.2-.2.3s-.2.2-.2.3l-.6.7c-.1.2-.2.3-.3.5h0c0,.1,0,.2-.1.2h-1.4l1.1-1.2ZM200.2,224.4h.2s.1,0,.1-.1h.1c.2-.3.3-.4.5-.6s.3-.3.5-.5h.1v-.3h0v-.7c0-.1,0-.3.1-.5v-.5q.1,0,.1-.1v-.7c0-.1,0-.2-.1-.3,0-.1-.1-.3-.2-.4l-.2-.4h-.6c-.1.2-.3.2-.4.2h-.4c0,0-.2,0-.4.1h0c-.2,0-.3.1-.4.2s-.3.2-.4.4l-.2.2q0,0-.1.2c0,.1-.1.2-.1.4v.9c.1.3.3.6.4.9,0,0,0,.1.1.2s0,.1.1.2h0s0,.1.1.1,0,.1.1.1l.4.4c.2.2.5.3.8.4h0l-.2.2ZM60.3,242.4h-.4c0-.2,0-.2,0-.3,0,0,0,0,0-.2s0-.2,0-.4,0-.4,0-.6h0c0-.1,0-.2.2-.3,0-.1,0-.2,0-.3,0-.2,0-.4,0-.5s0-.4,0-.5v-2.2s0-.1,0-.1h-.2s-.2,0-.2.1,0,0-.2,0c0,0-.2,0-.3.1s-.2.1-.3.2h0c-.2.1-.4.1-.5,0-.2-.2-.4-.4-.5-.6h0v-.2c0-.3,0-.5,0-.8s0-.2.2-.3h0s0-.1.2-.1h2.3s0,0,0-.1h0c0-.3,0-.5,0-.6v-.5c.2,0,.2-.1.2-.2v-.2c0-.1,0-.2,0-.3,0-.2.2-.5.2-.7v-.4l.2-.7h0c0,0-.3,0-.4.1s-.2,0-.4.1h-.2c0,.1-.3.1-.4.2s-.3.1-.4.2h-.6s-.2.1-.3.2l-.2.2s0,.1-.2.2c0,0,0,.2-.2.3s-.2.2-.3.2-.3,0-.4.1-.3,0-.4,0h-.2s-.2,0-.2-.2c0,0,0-.1,0-.1,0-.1,0-.2-.2-.3h0v-.6c0-.2.2-.5.4-.6h0v-.2h.6c.3,0,.6,0,.9-.1h.8c.2,0,.4-.2.6-.2s.4-.2.6-.2h0q0-.1,0-.2c0,0,.3-.1.4-.2s.3-.1.4-.2h.2q0-.2,0-.3c.2-.2.5-.3.9-.3s.3,0,.4.2c0,0,.2.2.3.3,0,0,0,.2,0,.3,0,0,0,.2,0,.3,0,.1,0,.3,0,.5v.3c0,.1,0,.2,0,.3v.2q0,0,0,.2v.2c0,0,0,.1,0,.2s0,.1,0,.2h0v.3h0c0,.2,0,.1,0,.1h0q0,.3,0,.4v.2h0q0,.1-.2.2h0s0,.2,0,.3h0v.6h0v.2h0q0,.1,0,.1h.5s.2,0,.2.2h0c0,.1,0,.3.2.4h0v.4s0,.1,0,.2h0v.2h0s-.2.1-.3,0h0s0,.1-.2.2c0,0,0,.1-.3.1h-.6c-.1,0,0,0,0,0h0v1h0v.3h0v.3h0v.6h0c0,.1,0,.6,0,.6h0v.7h0v.2h0s0,.2,0,.3v.9h0q0,.2,0,.3s0,0-.2.1h0s0,0-.2.1h-1.2ZM3.1,146.2h-.5s-.2,0-.2-.1c0,0,0,0-.2-.1,0,0-.2,0-.2-.1-.1-.1-.3-.2-.4-.3s-.2-.2-.3-.4h0c0-.1-.4-.7-.4-.7h0c0-.1-.2-.6-.2-.6h0v-2.1c-.2-.2-.2-.4-.1-.6,0-.4.2-.8.4-1.1.1-.2.3-.4.5-.6h.1v-.2c.1-.2.3-.4.5-.5h0c0-.2,0-.2,0-.3l.4-.4c0,0,.2-.2.2-.3v-.2c0,0-.2-.2-.2-.2,0,0,0-.1-.2-.2h0c0-.1,0-.1,0-.1-.2-.2-.4-.4-.6-.5h0c0-.2-.2-.3-.3-.4,0-.1-.1-.3-.2-.4h0v-.6c0-.2.1-.4.3-.5.1-.1.2-.2.3-.3s.2-.2.4-.2.3-.1.4-.2.3-.1.4-.2c.2,0,.5-.2.8-.3.2-.1.5-.2.8-.2h.3c0-.1.2-.1.4-.2h1.5c.2.2.4.3.5.5s.2.3.3.4c0,.2.2.4.2.7h0c0,.2,0,.3,0,.4h.2c.4.4.5.9.4,1.4,0,0,0,.2-.1.2s-.1.1-.2.2c-.1,0-.2.1-.3.2s-.2.2-.3.3c0,0,0,.1-.2.2s0,.1-.2.2c0,0,0,.2-.2.2s-.2.1-.3.2c0,0,0,.1,0,.2v.2h0c0,.1.2.3.2.3.3.2.5.4.7.7v.2c.3.2.3.4.4.6v.8h0v1.7h0v.2l-.2.5c0,.1,0,.2,0,.3h0c0,.2,0,.3,0,.4s0,.2-.2.2c-.2.4-.5.7-.8,1.1,0,0,0,.1,0,.2,0,0,0,.1-.2.2,0,0-.2.2-.3.2s-.3.1-.5.2c-.2,0-.3,0-.5.1h-1l-.8-.3ZM3.8,144.1c0,0,.3,0,.4-.2h0c0-.2.2-.3.4-.4,0-.1.2-.3.4-.4h0c0-.2.2-.3.2-.4s0-.2.2-.4c0-.2,0-.3,0-.5s0-.3,0-.5v-.6c0-.2,0-.3-.2-.5,0-.1-.2-.3-.4-.4h0c0,0-.2-.2-.3-.2s-.2-.2-.3-.3h0c0-.1,0-.2-.3-.2h-.2c0,.2,0,.1,0,.2h-.2c0,.1,0,.2-.2.3,0,0,0,0-.2.1h0v.2h0c0,.1,0,.1-.2.2h0v.2h0v.6h0v.4h0v.8h0v.3h0c0,.1,0,.3.2.3,0,.1.2.2.3.3h.9l-.5,1.1ZM4.4,136.3h.2l.3-.2v-.4c0,0-.2-.2-.2-.2,0,0,0-.1-.2-.2,0,0,0-.2-.2-.3,0-.1,0-.2-.2-.3h-1.1q-.1,0,0,0h0c.3.3.5.4.7.6,0,0,0,.1.2.2s0,.1.2.2c0,0,0,.1.2.2h0v.4ZM81.7,68h-.7c0,0,0,0,0,0,0,0,0,0,0-.2h0v-.3c0-.1,0,0,0,0v-3.5h0v-2.3h0v-.7h-.3l-.4.2c0,0-.2,0-.4.2h-2.3s0,0-.2,0h-.2q0-.2,0-.2s0,0-.2-.2c0,0,0,0,0-.2h0s-.2,0-.2-.2,0-.2-.2-.2h0c0-.2,0,0,0-.2h0c0-.2,0-.3-.2-.3,0,0,0-.2-.2-.2,0,0,0-.2,0-.3v-.3c-.2-.2-.2-.3-.2-.4v-.5c0-.4,0-.8.4-1.1,0-.2.2-.3.4-.4l.4-.4c.4-.3.8-.7,1.2-.9,0,0,.2-.2.3-.2s.2,0,.4,0h.2s.2,0,.2-.2,0,0,.2,0c.2,0,.4-.2.6-.2s.4,0,.6,0h1.6v-.2c0-.2.2-.3.3-.5h0s.2,0,.3-.2.2,0,.3,0h.4c.2,0,.4.2.5.4,0,0,0,.2.2.2s0,.2,0,.3v.7h0v1.7h0v.7c0,.4,0,.8,0,1.2v2.7h0v6.8h0v.2q-.2,0-.3,0h-.5l-1.1-.3ZM78.1,59.2c.3,0,.5,0,.7-.2h0l.2-.3s.2,0,.3-.2h0c0,0,0-.4,0-.4,0-.2.2-.3.2-.5s0-.3.2-.5h0v-.7h0c0-.2,0-.2,0-.3v-.2c-.2,0-.3-.2-.4-.3h-.5c0,0-.2,0-.3,0l-.4.2c-.2,0-.4.2-.6.4h0l-.4.4s-.2.2-.3.3-.2.2-.3.3c0,.2-.2.3-.3.5v.5q0,.1,0,.2c.2.2.3.3.5.5l.6.3h.6ZM359.3,12.6h-.8l-.2-.2c0-.1,0-.2-.1-.3s0-.2,0-.3v-1.6h0v-1.7c0-.1,0-.2-.1-.3s0-.2,0-.3v-2.7h0v-2.3c.2,0,.2-.2.3-.2s.1,0,.2-.2h.4s.2,0,.2,0c.2,0,.3.2.3.4v.2c.1,0,.2,0,.2.2v1.9h0v.2h0v.9h0v1.3h0v.4h0v2.2h0v1.5h0c0,.2,0,.1,0,.1v.2c-.1.2-.3.3-.5.5h-.1.2ZM366.7,13.6h-.8c-.3,0-.7-.1-.9-.2h-.2c-.1-.1-.2-.1-.3-.2s-.2,0-.3-.1c0,0-.2,0-.3-.1s-.2,0-.3-.1h0c0-.1-.2-.2-.3-.2s-.2,0-.3-.1c-.1,0-.2-.1-.3-.2,0,0-.2-.2-.3-.2h0c0-.1-.1-.2-.2-.3s-.1-.2-.2-.3v-.3c-.2,0-.2-.1-.2-.2v-2.2h0v-.6h0v-.2c0-.1,0-.2.1-.3s0-.2.1-.3v-.2h0v-.2h.2v-.6c0-.2,0-.3.2-.5,0,0,.1,0,.1-.2h0c.1-.2.2-.3.2-.5s.1-.3.2-.5h0s0-.2.2-.2h0s.1,0,0-.2h0v-.4h.1s.1,0,.2-.2,0,0,0,0h0c0,0,0-.2.2-.3h0s-.1,0-.2-.2c0,0-.1,0-.2-.2l-.2-.2s0,0-.1-.2h0v-.3h0v-.3h0v-.2h.1s.1,0,.1-.1h.6c.1,0,.2,0,.3.1s.2,0,.3.1h.6c.2-.2,0-.1.1-.2s.2-.2.4-.2h.9s0,.1.2.1h.4q.2,0,.2.1h0c0,.1,0,.2.1.2h0v.2c0,.2-.2.4-.4.5h-.5s.2,0,.2.2c0,0,.1,0,.2.2,0,0,.1.2.2.2s.1.2.2.2c0,0,0,.2.2.2l.2.2.2.3s.1.2.2.3.1.2.2.3c.1.2.2.3.3.5s.2.3.3.5c.2.3.3.7.5,1,.1.2.2.5.3.8s.1.5.2.8l.2.8v.6c0,.2,0,.4-.2.6,0,.2-.2.5-.3.7,0,.2-.1.3-.2.5s-.2.3-.2.5c-.1.2-.2.4-.4.6,0,0,0,.1-.1.2,0,0,0,.1-.1.2,0,0-.1.1-.2.2s-.1.1-.2.2l-.2.2s-.2.1-.3.2c-.1,0-.2.1-.3.2-.2,0-.4.2-.6.2s-.5.1-.8.1h-.3l1.2-.7ZM366.2,11.6h1.2c.1,0,.3-.1.5-.2,0,0,.1,0,.2-.1,0-.1.2-.2.4-.3h.1c0-.1,0-.2.2-.3,0,0,0-.1.1-.2l.2-.5c0-.2.2-.3.2-.5s.1-.4,0-.5h0v-.5c0-.2,0-.3-.1-.5v-.5c-.1-.2-.2-.5-.3-.7,0-.2-.2-.4-.3-.7,0-.2-.2-.3-.3-.5s-.2-.3-.3-.5c0,0,0-.2-.1-.2,0,0-.1-.2-.2-.3,0,0-.1-.2-.2-.3l-.5-.7c0,0-.1-.2-.2-.3l-.2-.2h0c0,0-.5.8-.5.8-.4.5-.7,1.1-1,1.8,0,.2-.2.4-.3.7s-.2.5-.3.7c0,.2-.2.5-.3.8s-.2.5-.2.8c-.1.3-.2.7-.2,1h0v.7c0,.2.2.4.3.6l.4.3c.1,0,.2.2.4.3s.3.2.4.2c.2,0,.3.1.5.2s.3,0,.5,0h0v-.4ZM474.1,47.2h-.8l-.2-.2c0,0,0-.2-.1-.3s0-.2,0-.3v-1.6h0v-1.7c0,0,0-.2-.1-.3s0-.2,0-.3v-2.7h0v-2.3c.2,0,.2-.2.3-.2s.1,0,.2-.2h.4s.2,0,.2,0c.2,0,.3.2.3.4v.2c.1,0,.2,0,.2.2v1.9h0v.2h0v.7c0,0,0,0,0,0h0v1.4h0v.4c0,.1,0,0,0,0v2.1h0v1.5h0v.3c-.1.2-.3.3-.5.4h-.1l.2.2ZM478.8,48.4h-.5c-.1,0,0,0,0,0h0s-.1,0-.1,0v-5.4h0v-3.1h0v-1.7c0-.2-.1-.4,0-.7,0,0,0-.2.1-.3h0c0-.2,0,0,0,0h.4s.1,0,.2.2c0,0,0,.2.1.3v1.6h0v2.1h0v3.5h0v.3h0v1.9h0v.8h0v.3s0,0-.1.2h0s-.2,0-.2.2c-.1,0-.2,0-.4,0h.5ZM377.2,174.6h-.8s-.2-.1-.2-.2,0-.2-.1-.3,0-.2,0-.3v-1.6h0v-1.7c0-.1,0-.2-.1-.3s0-.2,0-.3v-2.7h0v-2.3c.2,0,.2-.2.3-.2s.1-.1.2-.2h.4s.2,0,.2.1c.2,0,.3.2.3.4v.2c.1,0,.2.1.2.2v1.9h0v.3h0v1.1h0v1.3h0v.4h0v2.2h0v1.5h0c0,.2,0,.1,0,.1v.2c-.1.2-.3.3-.5.4h-.1l.2-.2ZM382.7,175h-.3c0-.1,0,0,0,0h-.7c-.1,0-.3,0-.4-.1h-.1c-.2-.1-.3-.3-.4-.4h0v-.2h0c0-.4.2-.6.3-.8l.2-.2s.2-.2.3-.2.2-.1.3-.2.2-.1.3-.2c.2-.1.4-.3.6-.4s.4-.3.5-.4c.3-.2.5-.6.7-.9,0-.2.2-.4.3-.7s.2-.4.2-.6.1-.4.2-.6c0-.2.1-.4.2-.5,0-.1,0-.3.1-.4s0-.3,0-.4v-.6s0-.1-.2-.2h-.6c-.3.1-.6.3-.8.5h-.1c0,.1-.1.1-.1.1,0,.2-.2.3-.3.3,0,0-.1.1-.2.2s-.1.1-.2.2c-.1.1-.2.3-.3.5,0,.2-.2.4-.4.5-.1,0-.2.2-.3.3,0,.1-.2.2-.3.3h-.3l-.2-.2s-.1-.1-.2-.2-.1-.1-.2-.2h0v-.5h0v-.2h0v-.3h0c0-.3.2-.5.4-.7.3-.3.7-.6,1-.8h.1q0-.1.2-.2c.2-.1.3-.2.4-.3s.3-.2.4-.3c.1,0,.2-.2.3-.3s.2-.2.4-.2.3-.1.4-.2c.2,0,.3-.1.5-.1h.4c.1,0,.3,0,.4.1.2,0,.4.2.6.3h0c.1.1.2.2.3.4s.2.3.2.5v.6h0v.3c0,.4,0,.8-.2,1.2v.8c0,.1,0,.2-.1.3,0,.1-.1.3-.2.4s-.1.3-.2.4c0,.1,0,.3-.1.4v.4c-.2.1-.2.3-.3.4s-.1.3-.2.4c-.2.3-.4.6-.6.8h-.2c0,.1-.2.1-.2.1v.2h1.4c.2-.1.3-.1.4-.1h2.4c.3,0,.6,0,.9.3.2.1.2.3.3.5h0c0,.4,0,.6-.1.8,0,0,0,.1-.1.2h-1c-.2,0-.4-.1-.6-.1h-4.6l-.3.2ZM395.1,250.4h-.8s-.2-.1-.2-.2,0-.2-.1-.3,0-.2,0-.3v-1.6h0v-1.7c0-.1,0-.2-.1-.3v-3h0v-.2h0v-2.1c.2,0,.2-.2.3-.2s.1-.1.2-.2h.4s.2,0,.2.1c.2,0,.3.2.3.4v.2c.1,0,.2.1.2.2v1.9h0v.3h0v1.1h0v1.3h0v.4h0v2.2h0v1.5h0v.3c-.1.2-.3.3-.5.5h-.1l.2-.3ZM402.2,251.5h-.4c-.1,0-.3,0-.4-.2h0s-.1,0-.2-.1-.1-.1-.2-.1l-.3-.3h0v-.2h0v-.2s0-.1.2-.2c0,0,.1,0,.1-.1s0-.2.2-.3c0,0,.2-.1.3-.2.2,0,.3-.1.5-.1h.8c.2,0,.3,0,.5-.1h.5c0-.1.6-.4.6-.4.2,0,.3-.1.4-.2.1,0,.2,0,.3-.1h.3c0-.2.2-.2.2-.3s.1-.1.2-.2l.2-.2c0-.1.1-.3,0-.4v-.9h0c0-.1-.2-.3-.2-.4,0,0-.1-.2-.2-.3,0,0-.1-.1-.2-.2s-.1,0-.2-.1h-.8c-.2,0-.3,0-.5-.1h-.5c-.2-.1-.3-.2-.5-.2s-.2-.1-.3-.1h0s-.2,0-.4-.1h-.5v-.8h0c0-.2,0-.1,0-.1v-.2h0c.1-.4.3-.5.5-.7s.3-.5.5-.7.3-.4.5-.6c0-.1.2-.2.2-.3l.2-.2s0-.1.1-.2h0v-.6h-2c-.2,0-.4.1-.6.2-.2,0-.4.1-.6.2,0,0-.2,0-.3.1s-.2,0-.3,0h-.3c-.1,0-.3.1-.4.2h-.6c-.1,0-.2,0-.3-.1h0v-.9s0-.1.1-.2c0,0,0-.1.2-.2l.6-.3h4c.1,0,.2,0,.3-.1s.1,0,.2,0h1.4c0,.1,0,.2.1.2h.1c.1,0,.2.2.3.2s.1.2.2.3c.2.2.2.4.1.6v.4c0,0,0,.3-.2.4l-.3.6v.4l-.3.3c0,.1-.2.3-.2.4s-.2.3-.3.4h0v.2h.1c.2,0,.3,0,.5.1.2,0,.3.1.5.1s.4.1.6.2.4.2.5.3c.3.2.6.5.8.8.1.1.2.3.3.4,0,.2.2.3.3.5l.3.5c.2.4.3.8.3,1.2v.9c0,.1,0,.3-.2.4s-.1.2-.2.4c0,0-.2.2-.2.3s-.2.2-.3.3h0s-.1.1-.2.1-.1.1-.2.1c0,0-.1,0-.2.1s-.1,0-.2.1c-.2.1-.4.2-.6.2h-.5l-.5.2h-.4c-.1,0-.3.1-.4.1s-.3,0-.4.1c-.2,0-.3.1-.4.2l-.2.2h-.1c0,.1-.2.1-.3.1h0l-1.1-.5ZM514.6,256h-.8s-.2-.1-.2-.2,0-.2,0-.3,0-.2,0-.3v-1.6h0v-1.7c0-.1,0-.2,0-.3s0-.2,0-.3v-2.7h0v-2.3c.2,0,.2-.2.3-.2s0-.1.2-.2h.4s.2,0,.2.1c.2,0,.3.2.3.4v.2c0,0,.2.1.2.2v1.9h0v.3h0v.9c0,.2,0,0,0,0h0v1.4h0v.4h0v2.2h0v1.5h0v.3c0,.2-.3.3-.5.5h0l.2-.2ZM524.1,256.3h-.3c0,0-.2,0-.3-.1h0c0,0-.2-.1-.2-.2h0c0-.3,0-.5,0-.8h0v-1.1h0v-1h0v-.7h0v-.2h0q0-.2,0-.2h-2.6c-.2,0-.4,0-.5.2,0,0,0,0-.2.1s0,0-.2.1c0,0,0,.1,0,.2v.4c0,0,0,.2,0,.3,0,0,0,.1-.3.1s-.2,0-.3-.1c0,0,0-.1,0-.2v-.6s-.2-.2-.2-.3v-.2c-.3-.3-.4-.5-.4-.8s0-.2,0-.2v-.2s0-.1,0-.2v-.2c0-.2,0-.5,0-.7,0-.2,0-.5.2-.8s0-.5.2-.8v-.4c.2-.1.2-.3.2-.4,0-.2,0-.4.2-.6s0-.4.2-.6h0c0-.3,0-.4.2-.6,0-.2,0-.3.2-.5h0v-.3h0c0-.1,0-.2.2-.3,0,0,0,0,.2-.1h.8s.2,0,.2.1c0,0,.2.1.3.2.2.2.3.5.3.8s0,.5-.2.7c0,.1,0,.2-.2.4,0,.1,0,.3,0,.4v.3c0,.1-.2.2-.2.3h0v.2h0s0,.2,0,.3v.8c0,.1,0,.2-.2.4v.9h2.8v-5.3c0-.1,0-.2.2-.4,0,0,0-.2.2-.2s0-.1.2-.2h.7v.3h0c0,.2,0,.3,0,.5h0v.2s0,.1,0,.2h0v.6h0v.2h0v.4h0v.2h0v3.4h0c0,.1.5.1.5.1h2s.2,0,.3.1.2.1.2.2h0v.4h0v.4h0q0,.1-.2.2h0c0,.2,0,.2-.2.3h-2.5c0,.2,0,.3,0,.3h0v.2h0v.2h0v.2h0v.3h0v.5h0v.4c0,0,0,0,0,0h0v.3h0v.9h0q0,.1,0,.2h-.2l-.3,1.1ZM524.9,255.7h0ZM620.6,311.5h-.8s-.2-.1-.2-.2,0-.2,0-.3,0-.2,0-.3v-1.6h0v-1.7c0-.1,0-.2,0-.3s0-.2,0-.3v-2.7h0v-2.3c.2,0,.2-.2.3-.2s0-.1.2-.2h.4s.2,0,.2.1c.2,0,.3.2.3.4v.2c0,0,.2.1.2.2v1.9h0v.3h0v.9c0,.2,0,0,0,0h0v1.4h0v.4h0v2.2h0v1.5h0v.3c0,.2-.3.3-.5.5h0l.2-.2ZM625.8,313.3h0s-.2,0-.2-.1c0,0,0-.1-.2-.2h0s0-.1-.2-.2,0-.2,0-.3v-.3c0-.2,0-.3.2-.4.2-.2.4-.3.7-.3h.8c.2,0,.4-.1.6-.2s.4-.1.6-.2c.3-.1.6-.3,1-.4s.6-.3.9-.5c0,0,.3-.1.4-.2s.2-.1.3-.2c.3-.2.5-.5.7-.7,0-.2.2-.4,0-.7v-.4c0-.1,0-.2-.2-.3s0-.2-.2-.3c0,0,0-.1,0-.2s0-.1,0-.2c0,0,0-.1-.2-.2h-.2c0-.1,0-.2,0-.2h-3.5q-.1,0-.2.1h0s-.2,0-.2.2h0s0,0-.2.1,0,0-.2.1h0q0-.1,0-.1h0c-.2.1-.3.3-.4.5v.2c0,.1-.2.2-.3.2h-.3s0-.1,0-.2v-.8c0-.2,0-.3,0-.5v-3.8h0v-3.1h0c.2-.3.3-.4.5-.5h6.7c0,.2,0,.1,0,.1,0,0,0,.1,0,.2s0,.1,0,.2h0v.2c0,.1,0,0,0,0h0v.2h0c0,.1,0,.2,0,.3,0,0,0,.2-.3.3,0,0,0,.1-.2.1,0,0,0,.1-.2.1h-4.4v3.6h0c.2.1.3.1.5,0s.3,0,.5-.1h3.4c.2,0,.5.2.7.3l.5.4c0,0,.2.1.3.2s.3.3.4.4.2.3.3.4v.2c.2.3.4.6.4,1v1.8c-.2.3-.4.5-.6.8,0,0,0,.1-.2.2s0,.1-.2.2h-.2c0,.1-.2.1-.2.3,0,0,0,.1-.2.2s-.2.1-.3.1h0c0,.1-.2.1-.2.2s-.2.1-.2.1h-.2c0,.2-.2.2-.3.3,0,0-.2.1-.3.2l-.9.4h-.6c-.2,0-.3.1-.5.2-.2,0-.3.1-.5.2h-.8l-1.7,1ZM643.2,386.6h-.8s-.2-.1-.2-.2,0-.2,0-.3,0-.2,0-.3v-1.6h0v-1.7c0-.1,0-.2,0-.3s0-.2,0-.3v-2.7h0v-2.3c.2,0,.2-.2.3-.2s0-.1.2-.2h.4s.2,0,.2.1c.2,0,.3.2.3.4v.2c0,0,.2.1.2.2v1.9h0v.3h0v.9c0,.2,0,0,0,0h0v1.4h0v.4h0v2.2h0v1.5h0v.3c0,.2-.3.3-.5.5h0l.2-.2ZM652.6,388.2c-.2,0-.4,0-.6-.2s-.4-.1-.6-.2c0,0-.2-.1-.3-.2,0,0-.2-.1-.3-.2l-.6-.4h0q0-.1,0-.2h0v-.2h-.5c0,0-.3-.1-.4-.2,0,0-.2-.2-.4-.2-.5-.4-.9-.8-1.2-1.2h0c0-.1-.2-.5-.2-.5,0-.1-.2-.2-.2-.4l-.3-.6c0-.1-.2-.3-.2-.5s0-.3-.2-.5h0v-.2c0-.1,0-.2,0-.4h0v-.2h0v-.2h0v-1.5h0v-1h0c0-.1.2-.3.2-.5v-.2h0v-.2c0-.1,0-.2,0-.2h0v-.5c0-.1,0-.3,0-.4,0-.2.2-.3.3-.4l.2-.2c0,0,.2-.2.2-.3h0c0-.1,0-.2,0-.2s0,0,0-.1,0-.2.3-.3c0,0,.2,0,.3-.1s.2-.1.3-.2h.2c0-.1.2-.2.4-.3s.2-.1.4-.2h2s0,0,.2.1c0,0,.2.1.3.3.2.3.2.5,0,.8h0c0,.1-.2.2-.3.3s-.2.1-.3.2h0c-.2.1-.3.2-.5.3,0,0,0,0-.2.1s0,0-.2.1c-.2.1-.4.3-.6.5-.4.4-.8.9-1,1.4,0,.1,0,.3-.2.4s0,.2-.2.4h0c0,.2,0,.4-.2.5s0,.3,0,.5v.2c0,.2,0,.5,0,.7v1.1c0,.2,0,.4.2.5s0,.4.2.5h0v.2s0,.2.2.3,0,.2.2.3h0v-1h0v-.2l.2-.4c0-.1,0-.2.2-.3,0-.1,0-.2.2-.3s.2-.2.2-.3l.4-.4s.2-.2.3-.2.2-.1.3-.2h.4c0-.2.2-.2.4-.3s.3-.1.4-.2c0,0,.2-.1.3-.2h0c0,0,0,0,0,0h1.2c.2,0,.5.2.7.4l.4.4h0s0,.1,0,.2,0,.1,0,.2h0c0,.1,0,.2.2.3s0,.2,0,.2h0v.5c0,.1,0,.2,0,.3v.5h0v1.7c0,.1,0,.3,0,.4h0s0,.1,0,.2v.7c0,.1,0,.2-.2.4,0,.2-.2.3-.4.5,0,0-.2.2-.2.3s-.2.2-.2.3l-.6.7c0,.2-.2.3-.3.5h0c0,.1,0,.2,0,.2h-1.4l.9-1.1ZM652.7,386.3h.3c0-.1,0-.1,0-.1.2-.3.3-.4.5-.6l.5-.5h0v-.3h0v-1.7q0,0,0-.1v-.7c0,0,0-.2,0-.3,0-.1,0-.3-.2-.4s0-.2-.2-.4h-.6c0,.2-.3.2-.4.2h-.4c-.1,0-.2,0-.4.1h0c-.2,0-.3.1-.4.2s-.3.2-.4.4c0,0,0,.1-.2.2,0,0,0,.1,0,.2,0,.1,0,.2,0,.4s0,.2,0,.3v.6c0,.3.3.6.4.9,0,0,0,.1,0,.2s0,.1,0,.2h0c0,.1,0,.2,0,.2,0,.1.2.2.4.4.2.2.5.3.8.4h0v.2ZM617.7,484.2h-.8l-.2-.2c0-.1,0-.2,0-.3s0-.2,0-.3v-1.6h0v-1.7c0-.1,0-.2,0-.3s0-.2,0-.3v-2.7h0v-2.3c.2,0,.2-.2.3-.2s0-.1.2-.2h.4s.2,0,.2.1c.2,0,.3.2.3.4v.2c0,0,.2.1.2.2v1.9h0v.2h0v.7c0,0,0,0,0,0h0v1.4h0v.4h0v2.2h0v1.5h0v.3c0,.2-.3.3-.5.5h0,.2ZM624.1,485.1h-.5q0-.2-.2-.3s0,0,0-.2,0-.2,0-.4v-.6h0c0-.1,0-.2.2-.3s0-.2,0-.3c0-.2,0-.4.2-.5,0-.2,0-.4,0-.5v-2s0-.1,0,0h-.2s-.2,0-.2.1h-.2s-.2,0-.3.1-.2.1-.3.2h0c-.2.1-.4.1-.5,0-.2-.2-.4-.4-.5-.6v-.4c0-.3,0-.5,0-.8s.2-.2.2-.3h2.5s0,0,0-.1h0c0-.2,0-.4,0-.5l.2-.5v-.7c0-.2.2-.5.2-.7v-.4l.2-.7h-.4c-.1,0-.2,0-.4.1h-.2c0,0-.3.2-.4.2s-.3.1-.4.2h-.5s-.2.1-.3.2l-.2.2s0,.1-.2.2c0,0,0,.2-.2.3,0,.1-.2.2-.3.2h-1s-.2,0-.2-.2h0c0-.2,0-.3-.2-.4h0v-.6c0-.2.2-.5.4-.6h0l.2-.2h.6c.3,0,.6,0,.9-.1h.8c.2,0,.4-.2.6-.2s.4-.2.6-.2h0v-.2c0,0,.3-.1.4-.2s.3-.1.4-.2h.2q0-.2,0-.3c.2-.2.5-.3.9-.3s.3,0,.4.2c0,0,.2.2.3.3,0,0,0,.2,0,.3s0,.2,0,.3c0,.1,0,.3,0,.5v.8q0,.1,0,.2v.4s0,.1,0,.2h0v.2h0c0,.2,0,.1,0,.1h0v.4h0v.5h-.2c0,.1,0,.3,0,.4h0v.7h0v.2h0q0,.1,0,.1h.4s.2,0,.2.2h0s.2.2.2.3h0v.6h0v.2h-.4s0,0-.2.2c0,0,0,.1-.3.1h-.8c-.1,0,0,0,0,0h0v1h0v.3h0v.3h0v.5h0v.5h0v.6h0v.2h0v1.2h0q0,.2,0,.3s0,0-.2.1h0s0,0-.2.1h-1ZM577.6,526.6h-.8l-.2-.2c0,0,0-.2,0-.3s0-.2,0-.3v-1.6h0v-1.7c0,0,0-.2,0-.3s0-.2,0-.3v-2.7h0v-2.3c.2,0,.2-.2.3-.2s0,0,.2-.2h.4s.2,0,.2,0c.2,0,.3.2.3.4v.2c0,0,.2,0,.2.2v1.9h0v.2h0v.7c0,0,0,0,0,0h0v1.4h0v.4c0,.1,0,0,0,0v2.1h0v1.5h0v.3c0,.2-.3.3-.5.5h0,.2ZM583.6,527.5h-.9s-.2,0-.2,0c0,0-.3-.2-.4-.3,0,0-.2-.2-.3-.4h0c0,0-.4-.7-.4-.7h0c0,0-.2-.6-.2-.6h0v-2.1c-.2-.2-.2-.4,0-.6,0-.4.2-.8.4-1.1,0-.2.3-.4.5-.6h0v-.2c0-.2.3-.3.5-.5h.2q0-.2.2-.3l.4-.4c0,0,.2-.2.2-.3v-.2l-.2-.2-.2-.2h0c0,0-.2,0-.2,0-.2-.2-.4-.4-.6-.5h0c0-.2-.2-.3-.3-.4,0,0,0-.3-.2-.4h0v-.6c0-.2.2-.3.3-.5l.3-.3c0,0,.2-.2.3-.2s.3,0,.4-.2.3,0,.4-.2c.2,0,.5-.2.8-.3s.5-.2.8-.2h.3c0,0,.2-.2.3-.2h1.5c.2.2.4.3.5.5s.2.3.3.4c0,.2.2.4.2.7h0v.4h.2c.4.4.5.9.4,1.4,0,0,0,.2,0,.2s0,0-.2.2c0,0-.2,0-.3.2s-.2.2-.3.3l-.2.2-.2.2s0,.2-.2.2-.2,0-.3.2v.4h0l.2.2c.3.2.5.4.7.7v.2c.3.2.3.3.4.6v.8h0v1.7h0l-.2.5c0,0,0,.2,0,.3h0c0,.2,0,.3,0,.4s0,.2-.2.2c-.2.4-.5.7-.8,1.1,0,0,0,0-.2.2,0,0,0,0-.2.2,0,0-.2.2-.3.2-.2,0-.3,0-.5.2-.2,0-.3,0-.5,0h-1l-.5-.2ZM584.4,525.4c.2,0,.3,0,.4-.2h0c0-.2.2-.3.4-.4,0,0,.2-.3.4-.4h0c0-.2.2-.3.2-.4s0-.2.2-.4c0-.2,0-.3,0-.5v-1.1c0-.2,0-.3-.2-.5,0,0-.2-.3-.4-.3h0c0,0-.2-.2-.3-.2s-.2-.2-.3-.3h0c0,0-.2-.2-.3-.2h-.2s-.2,0-.2.2,0,0-.2.2,0,0-.2,0h0v.2h0c0,0,0,0-.2.2h0v.2h0v.5h0v.4h0v.8h0v.3h0c0,0,0,.3.2.3,0,0,.2.2.3.3h.9l-.6,1.3ZM585,517.7h.2l.3-.2v-.4l-.2-.2s0,0-.2-.2c0,0,0-.2-.2-.3,0,0,0-.2-.2-.3h-1.1c-.1,0,0,0,0,0h0c.3.2.5.3.7.5l.2.2.2.2.2.2h0l.2.5ZM644,732.8h-.8l-.2-.2c0,0,0-.2,0-.3s0-.2,0-.3v-1.6h0v-1.7c0,0,0-.2,0-.3s0-.2,0-.3v-2.7h0v-.2h0v-2.1c.2,0,.2-.2.3-.2s0,0,.2-.2h.4s.2,0,.2,0c.2,0,.3.2.3.4v.2c0,0,.2,0,.2.2v1.9h0v.2h0v.9h0v1.3h0v.4c0,.1,0,0,0,0v2.1h0v1.5h0v.3c0,.2-.3.3-.5.5h0,.2ZM653.8,733.7h-.7c0,0,0,0,0,0s0,0,0-.2h0v-.3h0v-3.6h0v-2.5h0v-.7h-.3l-.4.2c0,0-.2,0-.4.2h-2.3s0,0-.2,0h-.2v-.2s0,0-.2-.2c0,0,0,0-.2-.2h0s-.2,0-.2-.2-.2-.2-.2-.2h0v-.2h0c0-.2,0-.3-.2-.3,0,0,0-.2-.2-.2v-.6c-.2-.2-.2-.3-.2-.5v-.5c0-.4,0-.8.4-1.1,0-.2.2-.3.3-.4l.4-.4c.4-.3.8-.7,1.2-.9,0,0,.2-.2.3-.2s.2,0,.4,0h.2s.2,0,.2-.2.2,0,.2,0c.2,0,.4-.2.6-.2s.4,0,.6,0h1.6v-.2c0-.2.2-.3.3-.5h0s.2,0,.3-.2.2,0,.3,0h.4c.2,0,.4.2.5.4s0,.2.2.2v1h0v1.7h0v.7c0,.4,0,.8,0,1.2v2.7h0v6.8h0v.2q-.2,0-.3,0h-1.9ZM650.2,724.9c.3,0,.5,0,.7-.2h0l.2-.3s.2,0,.3-.2h0c0,0,0-.4,0-.4,0-.2.2-.3.2-.5s.2-.3.2-.5h0v-.7h0q0-.2-.2-.3l-.2-.2c0,0-.2-.2-.2-.3h-.4c0,0-.2,0-.3,0l-.4.2c-.2,0-.4.2-.6.4h0l-.4.4-.3.3-.3.3c0,.2-.2.3-.3.5v.5q0,.1,0,.2l.5.5c.2,0,.4.2.6.3h.6ZM692.8,902.7h-1c0,0-.3,0-.4,0h0c-.2,0-.3-.3-.4-.4v-.4h0c0-.4.2-.6.3-.8l.2-.2s.2-.2.3-.2.2,0,.3-.2.2,0,.3-.2c.2,0,.4-.3.6-.4s.4-.3.5-.4c.3-.2.5-.5.7-.9,0-.2.2-.5.3-.7,0-.2.2-.4.2-.6s0-.4.2-.5,0-.4.2-.5c0-.2,0-.3,0-.5s0-.3,0-.5v-.6s0,0-.2-.2h-.6c-.3,0-.6.3-.8.5h0c0,0,0,0,0,0,0,.2-.2.3-.3.4l-.2.2-.2.2c0,0-.2.3-.3.5,0,.2-.2.4-.4.5,0,0-.2.2-.3.3,0,0-.2.2-.3.3h-.3l-.2-.2-.2-.2-.2-.2h0v-.4h0v-.5h0v-.2c0-.2.2-.4.4-.6.3-.3.7-.6,1-.8h.3c.2,0,.3-.2.4-.3,0,0,.3-.2.4-.3,0,0,.2-.2.3-.3s.2-.2.4-.2.3-.2.4-.2.3,0,.5,0h.4c.2,0,.3,0,.4,0,.2,0,.4.2.6.3h0c0,0,.2.2.3.4s.2.3.2.5v1c0,.4,0,.8-.2,1.2v.8c0,0,0,.2,0,.3,0,.2,0,.3-.2.4s0,.3-.2.4c0,0,0,.3,0,.4v.4c-.2.2-.2.3-.3.5s0,.3-.2.5c-.2.3-.4.6-.6.8h-.2c0,0-.2.3-.2.3h1.4c.2,0,.3,0,.4,0h2.4c.3,0,.6,0,.9.3.2.2.2.3.3.5h0c0,.4,0,.6,0,.8,0,0,0,0,0,.2h-1c-.2,0-.4,0-.6,0h-4.9ZM706.6,903.3h-.8c-.3,0-.7,0-.9-.2h-.2c0,0-.2,0-.3-.2s-.2,0-.3,0c0,0-.2,0-.3,0,0,0-.2,0-.3,0h0c0,0-.2-.2-.3-.2s-.2,0-.3,0c0,0-.2,0-.3-.2,0,0-.2-.2-.3-.2h0c0,0,0-.2-.2-.3s0-.2-.2-.3v-.3c-.2,0-.2,0-.2-.2v-2.2h0v-.6h0v-.2c0,0,0-.2,0-.3s0-.2,0-.3v-.2h0v-.2h.2v-.6c0-.2,0-.3.2-.5,0,0,0,0,0-.2h0c0-.2.2-.3.2-.5s0-.3.2-.5h0s0-.2.2-.2h0s0,0,0-.2h0v-.4h0l.2-.2c.1-.1,0,0,0,0h0c0,0,0-.2.2-.3h0l-.2-.2-.2-.2-.2-.2s0,0,0-.2h0v-.3h0v-.3h0v-.2h0s0,0,0,0h.6c0,0,.2,0,.3,0s.2,0,.3,0h.6q0,0,0-.2c0,0,.2-.2.4-.2h.9s0,0,.2,0h.4q.2,0,.2,0h0c0,0,0,.2,0,.2h0v.2c0,.2-.2.4-.4.5h-.5c0,0,.2.2.2.3s0,0,.2.2c0,0,0,.2.2.2s0,.2.2.2c0,0,0,.2.2.2l.2.2.2.3s0,.2.2.3,0,.2.2.3c0,.2.2.3.3.5,0,.2.2.3.3.5.2.3.3.7.5,1,0,.2.2.5.3.8s0,.5.2.8l.2.8v.6c0,.2,0,.4-.2.6,0,.2-.2.5-.3.7,0,.2,0,.3-.2.5s-.2.3-.2.5c0,.2-.2.4-.4.6,0,0,0,0,0,.2,0,0,0,0,0,.2l-.2.2-.2.2-.2.2s-.2,0-.3.2-.2,0-.3.2c-.2,0-.4.2-.6.2s-.5,0-.8,0h-.3l1.2-.8ZM706.1,901.3h1.2c0,0,.3,0,.5-.2,0,0,0,0,.2,0,0,0,.2-.2.4-.3h0c0,0,0-.2.2-.3,0,0,0,0,0-.2l.2-.5c0-.2.2-.3.2-.5s0-.4,0-.5h0v-.5c0-.2,0-.3,0-.5v-.5c0-.2-.2-.5-.3-.7s-.2-.4-.3-.7c0-.2-.2-.3-.3-.5s-.2-.3-.3-.5c0,0,0-.2,0-.2,0,0,0-.2-.2-.3s0-.2-.2-.3l-.5-.7c0,0,0-.2-.2-.3s-.2-.2-.2-.2h0l-.5.7c-.4.5-.7,1.1-1,1.8,0,.2-.2.4-.3.7s-.2.5-.3.7c0,.2-.2.5-.3.8s-.2.5-.2.8c0,.3-.2.7-.2,1h0v.7c0,.2.2.4.3.6l.4.3c0,0,.2.2.4.3s.3.2.4.2c.2,0,.3,0,.5.2s.3,0,.5,0h0v-.3ZM632.3,933h-1c0,0-.3,0-.4,0h0c-.2,0-.3-.3-.4-.4v-.4h0c0-.4.2-.6.3-.8l.2-.2s.2-.2.3-.2.2,0,.3-.2.2,0,.3-.2c.2,0,.4-.3.6-.4s.4-.3.5-.4c.3-.2.5-.5.7-.9,0-.2.2-.5.3-.7,0-.2.2-.4.2-.6s0-.4.2-.5,0-.4.2-.5c0-.2,0-.3,0-.5s0-.3,0-.5v-.6s0,0-.2-.2h-.6c-.3,0-.6.3-.8.5h0c0,0,0,0,0,0,0,.2-.2.3-.3.4l-.2.2-.2.2c0,0-.2.3-.3.5,0,.2-.2.4-.4.5,0,0-.2.2-.3.3,0,0-.2.2-.3.3h-.3l-.2-.2-.2-.2-.2-.2h0v-.4h0v-.5h0v-.2c0-.2.2-.4.4-.6.3-.3.7-.6,1-.8h.3c.2,0,.3-.2.4-.3,0,0,.3-.2.4-.3,0,0,.2-.2.3-.3s.2-.2.4-.2.3-.2.4-.2.3,0,.5,0h.4c.2,0,.3,0,.4,0,.2,0,.4.2.6.3h0c0,0,.2.2.3.4s.2.3.2.5v1c0,.4,0,.8-.2,1.2v.8c0,0,0,.2,0,.3,0,.2,0,.3-.2.4s0,.3-.2.4c0,0,0,.3,0,.4v.4c-.2.2-.2.3-.3.5s0,.3-.2.5c-.2.3-.4.6-.6.8h-.2c0,0-.2.3-.2.3h1.4c.2,0,.3,0,.4,0h2.4c.3,0,.6,0,.9.3.2.2.2.3.3.5h0c0,.4,0,.6,0,.8,0,0,0,0,0,.2h-1c-.2,0-.4,0-.6,0h-4.9ZM642.8,933.8h-.5c0,0,0,0,0,0h0s0,0,0,0v-5.4h0v-3.1h0v-1.7c0-.2,0-.5,0-.7,0,0,0-.2,0-.3h0c0-.2,0,0,0,0h.4s0,0,.2.2c0,0,0,.2,0,.3v1.6h0v2.1h0v3.5h0v.3h0v1.9h0v.8h0v.3s0,0,0,.2h0s-.2,0-.2.2c0,0-.2,0-.4,0h.5ZM570.6,781.9h-1c0,0-.3,0-.4,0h0c-.2,0-.3-.3-.4-.4v-.4h0c0-.4.2-.6.3-.8l.2-.2s.2-.2.3-.2.2,0,.3-.2.2,0,.3-.2c.2,0,.4-.3.6-.4s.4-.3.5-.4c.3-.2.5-.5.7-.9,0-.2.2-.5.3-.7,0-.2.2-.4.2-.6s0-.4.2-.5,0-.4.2-.5c0-.2,0-.3,0-.5s0-.3,0-.5v-.6s0,0-.2-.2h-.6c-.3,0-.6.3-.8.5h0c0,0,0,0,0,0,0,.2-.2.3-.3.4l-.2.2-.2.2c0,0-.2.3-.3.5,0,.2-.2.4-.4.5,0,0-.2.2-.3.3,0,0-.2.2-.3.3h-.3l-.2-.2-.2-.2-.2-.2h0v-.4h0v-.5h0v-.2c0-.2.2-.4.4-.6.3-.3.7-.6,1-.8h.3c.2,0,.3-.2.4-.3,0,0,.3-.2.4-.3,0,0,.2-.2.3-.3s.2-.2.4-.2.3-.2.4-.2.3,0,.5,0h.4c.2,0,.3,0,.4,0,.2,0,.4.2.6.3h0c0,0,.2.2.3.4s.2.3.2.5v1c0,.4,0,.8-.2,1.2v.8c0,0,0,.2,0,.3,0,.2,0,.3-.2.4s0,.3-.2.4c0,0,0,.3,0,.4v.4c-.2.2-.2.3-.3.5s0,.3-.2.5c-.2.3-.4.6-.6.8h-.2c0,0-.2.3-.2.3h1.4c.2,0,.3,0,.4,0h2.4c.3,0,.6,0,.9.3.2.2.2.3.3.5h0c0,.4,0,.6,0,.8,0,0,0,0,0,.2h-1c-.2,0-.4,0-.6,0h-4.9ZM582.3,781.9h-1c0,0-.3,0-.4,0h0c-.2,0-.3-.3-.4-.4v-.4h0c0-.4.2-.6.3-.8l.2-.2s.2-.2.3-.2.2,0,.3-.2.2,0,.3-.2c.2,0,.4-.3.6-.4s.4-.3.5-.4c.3-.2.5-.5.7-.9,0-.2.2-.5.3-.7,0-.2.2-.4.2-.6s0-.4.2-.5,0-.4.2-.5c0-.2,0-.3,0-.5s0-.3,0-.5v-.6s0,0-.2-.2h-.6c-.3,0-.6.3-.8.5h0c0,0,0,0,0,0,0,.2-.2.3-.3.4l-.2.2-.2.2c0,0-.2.3-.3.5,0,.2-.2.4-.4.5,0,0-.2.2-.3.3,0,0-.2.2-.3.3h-.3l-.2-.2-.2-.2-.2-.2h0v-.4h0v-.5h0v-.2c0-.2.2-.4.4-.6.3-.3.7-.6,1-.8h.3c.2,0,.3-.2.4-.3,0,0,.3-.2.4-.3,0,0,.2-.2.3-.3s.2-.2.4-.2.3-.2.4-.2.3,0,.5,0h.4c.2,0,.3,0,.4,0,.2,0,.4.2.6.3h0c0,0,.2.2.3.4s.2.3.2.5v1c0,.4,0,.8-.2,1.2v.8c0,0,0,.2,0,.3,0,.2,0,.3-.2.4s0,.3-.2.4c0,0,0,.3,0,.4v.4c-.2.2-.2.3-.3.5s0,.3-.2.5c-.2.3-.4.6-.6.8h-.2c0,0-.2.3-.2.3h1.4c.2,0,.3,0,.4,0h2.4c.3,0,.6,0,.9.3.2.2.2.3.3.5h0c0,.4,0,.6,0,.8,0,0,0,0,0,.2h-1c-.2,0-.4,0-.6,0h-4.9ZM533.4,490.5h-1c0,0-.3,0-.4-.1h0c-.2-.1-.3-.3-.4-.4v-.4h0c0-.4.2-.6.3-.8l.2-.2s.2-.2.3-.2.2-.1.3-.2.2-.1.3-.2c.2-.1.4-.3.6-.4s.4-.3.5-.4c.3-.2.5-.5.7-.9,0-.2.2-.5.3-.7,0-.2.2-.4.2-.6s0-.4.2-.5,0-.4.2-.5c0-.2,0-.3,0-.5s0-.3,0-.5v-.6s0-.1-.2-.2h-.6c-.3.1-.6.3-.8.5h0c0,.1,0,.1,0,.1,0,.2-.2.3-.3.4,0,0,0,.1-.2.2s0,.1-.2.2c0,.1-.2.3-.3.5,0,.2-.2.4-.4.5,0,0-.2.2-.3.3,0,.1-.2.2-.3.3h-.3l-.2-.2s0-.1-.2-.2c0,0,0-.1-.2-.2h0v-.4h0v-.5h0v-.2c0-.2.2-.4.4-.6.3-.3.7-.6,1-.8h.3c.2-.1.3-.2.4-.3,0,0,.3-.2.4-.3,0,0,.2-.2.3-.3s.2-.2.4-.2.3-.2.4-.2.3,0,.5-.1h.4c.2,0,.3,0,.4.1.2,0,.4.2.6.3h0c0,.1.2.2.3.4s.2.3.2.5v1c0,.4,0,.8-.2,1.2v.8c0,0,0,.2,0,.3,0,.2,0,.3-.2.4s0,.3-.2.4c0,.1,0,.3,0,.4v.4c-.2.2-.2.3-.3.5s0,.3-.2.5c-.2.3-.4.6-.6.8h-.2c0,.1-.2.3-.2.3h1.4c.2-.1.3-.1.4-.1h2.4c.3,0,.6,0,.9.3.2.2.2.3.3.5h0c0,.4,0,.6,0,.8,0,0,0,.1,0,.2h-1c-.2,0-.4-.1-.6-.1h-4.9ZM545.9,491.3h-.4c-.1,0-.3,0-.4-.2h0s0,0-.2-.1c0,0,0,0-.2-.2l-.3-.3h0v-.2h0v-.2s0-.2.2-.2c0,0,0,0,0-.1s0-.2.2-.3c0,0,.2-.1.3-.2.2,0,.3-.1.5-.1h.8c.1,0,.3,0,.5-.1l.5-.2.6-.2c.2,0,.3-.1.4-.2,0,0,.2,0,.3-.1l.3-.2s.2,0,.2-.2,0-.1.2-.2l.2-.2c0-.1,0-.3,0-.4v-.9h0s-.2-.2-.2-.3c0,0,0-.2-.2-.3,0,0,0-.1-.2-.2,0,0,0,0-.2-.1h-.8c-.2,0-.3,0-.5-.1h-.5c-.2-.1-.3-.2-.5-.2s-.2-.1-.3-.1h0s-.2,0-.4-.1h-.5v-.8h0c0-.2,0-.1,0-.1v-.4c.2-.2.4-.4.6-.6.2-.2.3-.5.5-.7s.3-.4.5-.7c0-.1.2-.2.2-.3l.2-.2s0-.1,0-.2h0v-.6h-2c-.2,0-.4.1-.6.2-.2,0-.4.1-.6.2h-.8c-.1,0,0,0,0,0s-.3.1-.4.2h-.6c0,0-.2,0-.3-.1h0v-.9s0-.1,0-.2,0-.1.2-.2c.2-.2.4-.2.6-.3h5.9c0,.1,0,.2,0,.2h0c0,0,.2.2.3.2s0,.2.2.3c.2.2.2.4,0,.6v.4c0,.1,0,.3-.2.4l-.3.6v.4l-.3.3c0,.1-.2.3-.2.4s-.2.3-.3.4h0v.2c0,.1,0,0,0,0h.5c.2,0,.3,0,.5.1.2,0,.4,0,.6.2s.4.2.5.3c.3.2.6.5.8.8,0,.1.2.3.3.4,0,.2.2.3.3.5l.3.5c.2.4.3.8.3,1.2v.8c0,.1,0,.3-.2.4s0,.2-.2.4c0,0-.2.2-.2.3s-.2.2-.3.3h0s0,0-.2.2c0,0,0,0-.2.2,0,0,0,0-.2.1s0,0-.2.1c-.2.2-.4.2-.6.2h-.5l-.5.2h-.4c0,0-.3,0-.4.1,0,0-.3,0-.4.1s-.3.1-.4.2l-.2.2h0c0,.1-.2.1-.3.1h0l-1.2-.2ZM390,460.7h-.3c0-.1,0,0,0,0h-.7c-.1,0-.3,0-.4-.1h-.1c-.2-.1-.3-.3-.4-.4h0v-.2h0c0-.4.2-.6.3-.8l.2-.2s.2-.2.3-.2.2-.1.3-.2c0,0,.2-.1.3-.2.2-.1.4-.3.6-.4s.4-.3.5-.4c.3-.2.5-.5.7-.9,0-.2.2-.5.3-.7s.2-.4.2-.6.1-.4.2-.5.1-.4.2-.5c0-.1,0-.3.1-.5s0-.3,0-.5v-.6s0-.1-.2-.2h-.6c-.3.1-.6.3-.8.5h-.1c0,.1-.1.1-.1.1,0,.2-.2.3-.3.4l-.2.2-.2.2c-.1.1-.2.3-.3.5,0,.2-.2.4-.4.5-.1,0-.2.2-.3.3,0,.1-.2.2-.3.3h-.3l-.2-.2-.2-.2-.2-.2h0v-.5h0v-.2h0v-.3h0c0-.3.2-.5.4-.7.3-.3.7-.6,1-.8h.1c.1-.2,0-.1.2-.2s.3-.2.4-.3c.1-.1.3-.2.4-.3.1,0,.2-.2.3-.3s.2-.2.4-.2.3-.1.4-.2.3-.1.5-.1h.4c.1,0,.3,0,.4.1.2,0,.4.2.6.3h0c.1.1.2.2.3.4s.2.3.2.5v.6h0v.3c0,.4,0,.8-.2,1.2v.8c0,0,0,.2-.1.3,0,.1-.1.3-.2.4s-.1.3-.2.4c0,.1,0,.3-.1.4v.4c-.2.1-.2.3-.3.5s-.1.3-.2.5c-.2.3-.4.6-.6.8h-.2c0,.1-.2.1-.2.1v.2h1.4c.2-.1.3-.1.4-.1h2.4c.3,0,.6,0,.9.3.2.1.2.3.3.5h0c0,.4,0,.6-.1.8,0,0,0,.1-.1.2h-1c-.2,0-.4-.1-.6-.1h-4.9ZM405.2,460.7h-.3c-.1,0-.2,0-.3-.1h-.1c-.1,0-.2-.1-.2-.2h0c-.1-.3-.1-.5-.1-.8h0v-1.1h0v-1h0v-.7h0v-.4s0-.1-.1-.1h-2.6c-.2,0-.4,0-.5.2,0,0-.1,0-.2.1s-.1,0-.2.1c0,0-.1.1-.1.2v.4c0,.1,0,.2-.1.3,0,0-.1.1-.3.1s-.2,0-.3-.1c0,0,0-.1-.1-.2v-.6s-.2-.2-.2-.3v-.2c-.3-.3-.4-.5-.4-.8s0-.2,0-.2v-.2s.1-.1.1-.2v-.2c0-.2,0-.5.1-.7,0-.2.1-.5.2-.8s.1-.5.2-.8v-.4c.2-.1.2-.3.2-.4,0-.2.1-.4.2-.6s.1-.4.2-.6h0c0-.3.1-.4.2-.6,0-.2.1-.3.2-.5h0v-.3h0c0-.1.1-.2.2-.3,0,0,.1,0,.2-.1h.8s.2,0,.2.1c0,0,.2.1.3.2.2.2.3.5.3.8s0,.5-.2.7c0,.1,0,.2-.2.4s0,.3-.1.4v.3c-.1.1-.2.2-.2.3h0v.2h0s-.1.2-.1.3v.8c0,.1-.1.2-.2.4v.9h2.8v-5.3c0-.1,0-.2.2-.4,0,0,0-.2.2-.2s.1-.1.2-.2h.7v.3h0c0,.2.1.3,0,.5h0v.2s.1.1,0,.2h0v.6h0v.2h0v.4h0v.2h0v2.2h0v1.2h0c0,.1.5.1.5.1h2s.2,0,.3.1.2.1.2.2h0v.4h0v.4h0v.2h-.2c0,.3-.1.3-.2.4h-2.5c0,.2,0,.3-.1.3h0v.2h0v.2h0v.2h0v.3h0v.5h0v.4c0,.1,0,0,0,0h0v.3h0v.9h0q0,.1-.1.2h-.2l-.3,1.1ZM406,460.2h0ZM416.1,622.1h-1c-.1,0-.3,0-.4,0h-.1c-.2,0-.3-.3-.4-.4v-.4h0c0-.4.2-.6.3-.8l.2-.2s.2-.2.3-.2.2,0,.3-.2.2,0,.3-.2c.2,0,.4-.3.6-.4s.4-.3.5-.4c.3-.2.5-.5.7-.9,0-.2.2-.5.3-.7,0-.2.2-.4.2-.6s.1-.4.2-.5.1-.4.2-.5c0-.2,0-.3.1-.5s0-.3,0-.5v-.6s0,0-.2-.2h-.6c-.3,0-.6.3-.8.5h-.1c0,0-.1,0-.1,0,0,.2-.2.3-.3.4,0,0-.1,0-.2.2s-.1,0-.2.2c-.1,0-.2.3-.3.5,0,.2-.2.4-.4.5-.1,0-.2.2-.3.3,0,0-.2.2-.3.3h-.3l-.2-.2s-.1,0-.2-.2c0,0-.1,0-.2-.2h0v-.4h0v-.5h0v-.2c0-.2.2-.4.4-.6.3-.3.7-.6,1-.8h.3c.2,0,.3-.2.4-.3.1,0,.3-.2.4-.3.1,0,.2-.2.3-.3s.2-.2.4-.2.3-.2.4-.2.3,0,.5,0h.4c.2,0,.3,0,.4,0,.2,0,.4.2.6.3h0c.1,0,.2.2.3.4s.2.3.2.5v1c0,.4,0,.8-.2,1.2v.8c0,0,0,.2-.1.3,0,.2-.1.3-.2.4s-.1.3-.2.4c0,0,0,.3-.1.4v.4c-.2.2-.2.3-.3.5s-.1.3-.2.5c-.2.3-.4.6-.6.8h-.2c0,0-.2.3-.2.3h1.4c.2,0,.3,0,.4,0h2.4c.3,0,.6,0,.9.3s.2.3.3.5h0c0,.4,0,.6-.1.8,0,0,0,0-.1.2h-1c-.2,0-.4,0-.6,0h-4.9ZM426.8,623.5h0s-.2,0-.2,0c0,0-.1,0-.2-.2h0s-.1,0-.2-.2v-.6c0-.2,0-.3.2-.4.2-.2.4-.3.7-.3h.8c.2,0,.4,0,.6-.2s.4,0,.6-.2c.3-.2.6-.3,1-.4s.6-.3.9-.5c.1,0,.3,0,.4-.2s.2,0,.3-.2c.3-.2.5-.5.7-.7.1-.2.2-.4.1-.7v-.4c0,0-.1-.2-.2-.3s-.1-.2-.2-.3c0,0,0,0-.1-.2s0,0-.1-.2c0,0,0,0-.2-.2h-.2q0-.2-.1-.2h-3.7s-.2,0-.2.2h-.6c-.2,0-.3.3-.4.5v.2c0,0-.2.2-.3.2h-.3s-.1,0-.1-.2v-.8c0-.2-.1-.3-.1-.5v-3.8h0v-2.9h0c.2-.3.3-.4.5-.5h6.7c0,0,0,.2.1.3s0,0,.1.2h0v.3h0v.2h0v.2c-.1,0-.2.2-.4.3,0,0-.1,0-.2,0,0,0-.1,0-.2,0h-4.4v3.5h4.4c.2,0,.5.2.7.3l.5.4c.1,0,.2,0,.3.2.1,0,.3.3.4.4s.2.3.3.4v.2c.2.3.4.6.4,1v1.8c-.2.3-.4.5-.6.8,0,0-.1,0-.2.2s-.1,0-.2.2h-.2c0,0-.2,0-.2.3,0,0-.1,0-.2.2s-.2,0-.3,0h0c0,0-.2,0-.2.2s-.2,0-.2.2h-.2c-.1.2-.2.2-.3.3s-.2,0-.3.2l-.9.4h-.6c-.2,0-.3,0-.5.2-.2,0-.3,0-.5.2h-.8l-1.7.9ZM438.1,942.7h-1c-.1,0-.3,0-.4,0h-.1c-.2,0-.3-.3-.4-.4v-.4h0c0-.4.2-.6.3-.8l.2-.2s.2-.2.3-.2.2,0,.3-.2.2,0,.3-.2c.2,0,.4-.3.6-.4s.4-.3.5-.4c.3-.2.5-.5.7-.9,0-.2.2-.5.3-.7,0-.2.2-.4.2-.6s.1-.4.2-.5.1-.4.2-.5c0-.2,0-.3.1-.5s0-.3,0-.5v-.6s0,0-.2-.2h-.6c-.3,0-.6.3-.8.5h-.1c0,0-.1,0-.1,0,0,.2-.2.3-.3.4,0,0-.1,0-.2.2s-.1,0-.2.2c-.1,0-.2.3-.3.5,0,.2-.2.4-.4.5-.1,0-.2.2-.3.3,0,0-.2.2-.3.3h-.3l-.2-.2s-.1,0-.2-.2c0,0-.1,0-.2-.2h0v-.4h0v-.5h0v-.2c0-.2.2-.4.4-.6.3-.3.7-.6,1-.8h.3c.2,0,.3-.2.4-.3.1,0,.3-.2.4-.3.1,0,.2-.2.3-.3s.2-.2.4-.2.3-.2.4-.2.3,0,.5,0h.4c.2,0,.3,0,.4,0,.2,0,.4.2.6.3h0c.1,0,.2.2.3.4s.2.3.2.5v1c0,.4,0,.8-.2,1.2v.8c0,0,0,.2-.1.3,0,.2-.1.3-.2.4s-.1.3-.2.4c0,0,0,.3-.1.4v.4c-.2.2-.2.3-.3.5s-.1.3-.2.5c-.2.3-.4.6-.6.8h-.2c0,0-.2.3-.2.3h1.4c.2,0,.3,0,.4,0h2.4c.3,0,.6,0,.9.3s.2.3.3.5h0c0,.4,0,.6-.1.8,0,0,0,0-.1.2h-1c-.2,0-.4,0-.6,0h-4.9ZM454,943.9c-.2,0-.4,0-.6-.2-.2,0-.4,0-.6-.2,0,0-.2,0-.3-.2s-.2,0-.3-.2l-.6-.4h-.3v-.2h-.5c-.1,0-.3,0-.4-.2s-.2-.2-.4-.2c-.5-.4-.9-.8-1.2-1.2h0c0,0-.2-.5-.2-.5,0,0-.2-.2-.2-.4l-.3-.6c0-.2-.2-.3-.2-.5s-.1-.3-.2-.5h0v-.2c0,0,0-.2-.1-.4h0v-.2h0v-1.5h0v-1h0c.1-.2.2-.3.2-.5v-.6c0,0,0-.2.1-.2h0v-.5c0,0,0-.3.1-.4,0-.2.2-.3.3-.4l.2-.2c.1,0,.2-.2.2-.3h0q0,0,.1-.2c.1,0,0,0,0,0s.1-.2.3-.3c.1,0,.2,0,.3-.2s.2,0,.3-.2h.2c.1,0,.2-.2.4-.3s.2,0,.4-.2h2s.1,0,.2,0c.1,0,.2,0,.3.3.2.3.2.5,0,.8h0c-.1,0-.2,0-.3.2s-.2,0-.3.2h-.1c-.2.2-.3.2-.5.3,0,0-.1,0-.2,0s-.1,0-.2,0c-.2,0-.4.3-.6.5-.4.4-.8.9-1,1.4,0,0-.1.3-.2.4s-.1.2-.2.4h0c0,.2,0,.3-.2.5,0,.2,0,.3-.1.5v.2c0,.2-.1.5-.1.7v1.1c0,.2.1.4.2.5s0,.4.2.5v.2h0c0,0,.1.3.2.4s.1.2.2.3h0v-1h0v-.2l.2-.4c0,0,.1-.2.2-.3,0,0,.1-.2.2-.3s.2-.2.2-.3l.4-.4s.2-.2.3-.2.2,0,.3-.2l.4-.2c.1,0,.2,0,.4,0s.3,0,.4-.2c0,0,.2-.2.3-.2h.1c.1,0,0,0,0,0h1.2c.2,0,.5.2.7.4l.4.4h0s0,0,.1.2,0,0,.1.2h0c0,0,.1.2.2.3s0,.2.1.2h0v.4c0,0,0,.2.1.3v.5h0v1.7c0,.2,0,.3.1.4h0s.1,0,.1.2v.7c0,0,0,.2-.2.4,0,.2-.2.3-.4.5,0,0-.2.2-.2.3s-.2.2-.2.3l-.6.7c-.1.2-.2.3-.3.5h0c0,0,0,.2-.1.3s-.1,0-.2,0h-1.2l.9-1.2ZM454.1,942.1h.3c0,0,.1,0,.1,0,.2-.3.3-.4.5-.6l.5-.5h0v-.3h0c0-.2,0,0,0,0v-1.5h.1v-.7s0-.2-.1-.3c0,0-.1-.3-.2-.4,0,0-.1-.2-.2-.4h-.6c-.1.2-.3.2-.4.2h-.4c-.1,0-.2,0-.4.2h0c-.2,0-.3,0-.4.2s-.3.2-.4.3c0,0-.1,0-.2.2s0,.2-.1.2c0,0,0,.2-.1.4s0,.2,0,.3v.6c.1.3.3.6.4.9,0,0,0,0,.1.2s0,0,.1.2h0v.2c0,.2,0,0,.1.2.1,0,.2.2.4.4.2.2.5.3.8.4h0v-.2ZM354.3,942.7h-1c-.1,0-.3,0-.4,0h-.1c-.2,0-.3-.3-.4-.4v-.4h0c0-.4.2-.6.3-.8l.2-.2s.2-.2.3-.2.2,0,.3-.2.2,0,.3-.2c.2,0,.4-.3.6-.4s.4-.3.5-.4c.3-.2.5-.5.7-.9,0-.2.2-.5.3-.7,0-.2.2-.4.2-.6s.1-.4.2-.5.1-.4.2-.5c0-.2,0-.3.1-.5s0-.3,0-.5v-.6s0,0-.2-.2h-.6c-.3,0-.6.3-.8.5h-.1c0,0-.1,0-.1,0,0,.2-.2.3-.3.4,0,0-.1,0-.2.2s-.1,0-.2.2c-.1,0-.2.3-.3.5,0,.2-.2.4-.4.5-.1,0-.2.2-.3.3,0,0-.2.2-.3.3h-.3l-.2-.2s-.1,0-.2-.2c0,0-.1,0-.2-.2h0v-.4h0v-.5h0v-.2c0-.2.2-.4.4-.6.3-.3.7-.6,1-.8h.3c.2,0,.3-.2.4-.3.1,0,.3-.2.4-.3.1,0,.2-.2.3-.3s.2-.2.4-.2.3-.2.4-.2.3,0,.5,0h.4c.2,0,.3,0,.4,0,.2,0,.4.2.6.3h0c.1,0,.2.2.3.4s.2.3.2.5v1c0,.4,0,.8-.2,1.2v.8c0,0,0,.2-.1.3,0,.2-.1.3-.2.4s-.1.3-.2.4c0,0,0,.3-.1.4v.4c-.2.2-.2.3-.3.5s-.1.3-.2.5c-.2.3-.4.6-.6.8h-.2c0,0-.2.3-.2.3h1.4c.2,0,.3,0,.4,0h2.4c.3,0,.6,0,.9.3s.2.3.3.5h0c0,.4,0,.6-.1.8,0,0,0,0-.1.2h-1c-.2,0-.4,0-.6,0h-4.9ZM366.2,943.2h-.5q0-.2-.2-.3s-.1,0-.1-.2,0-.2-.1-.4v-.6h0c0,0,.1-.2.2-.3s0-.2,0-.3c0-.2,0-.4.2-.5,0-.2,0-.4.1-.5v-2s0,0-.1,0h-.2s-.2,0-.2,0h-.2s-.2,0-.3,0-.2,0-.3.2h-.1c-.2,0-.4,0-.5,0-.2-.2-.4-.4-.5-.6v-.4c-.1-.3,0-.5,0-.8s.2-.2.2-.3h2.5s.1,0,.1,0h0c0-.2,0-.4.1-.5l.2-.5v-.7c.1-.2.2-.5.2-.7v-.4l.2-.7h-.4c-.1,0-.2,0-.4,0h-.2c-.1,0-.3.2-.4.2s-.3,0-.4.2h-.5s-.2,0-.3.2l-.2.2s-.1,0-.2.2c0,0-.1.2-.2.3s-.2.2-.3.2h-1s-.2,0-.2-.2h-.1c0-.2-.1-.3-.2-.4h0v-.6c0-.2.2-.5.4-.6h.1l.2-.2h.6c.3,0,.6,0,.9,0h.8c.2,0,.4-.2.6-.2s.4-.2.6-.2h.1c.1,0,.3,0,.4-.2s.3,0,.4-.2h.1c.1,0,0,0,0,0v-.2q.2,0,.3,0c.2-.2.5-.3.9-.3s.3,0,.4.2c.1,0,.2.2.3.3,0,0,0,.2.1.3s0,.2.1.3c0,.2.1.3,0,.5v.8q0,.1-.1.2v.4q0,.1-.1.2h0v.2h0c0,.2,0,0,0,0h0v.4h0v.5h-.2c0,0-.1.3,0,.4h0v.7h0v.2c0,.1,0,0,0,0h.5s.2,0,.2.2h0s.2.2.2.3h0v.6h0v.2h-.4s-.1,0-.2.2c0,0-.1,0-.3,0h-.8c-.1,0,0,0,0,0h0v1h0v.3h0v.3h0v.5h0v.5h-.1v.6h0v.2h0v1.2h0q0,.2-.1.3s-.1,0-.2,0h0s-.1,0-.2,0h-.2l-1-.2ZM335.7,470.8h-.3c0-.1,0,0,0,0h-.7c-.1,0-.3,0-.4-.1h-.1c-.2-.1-.3-.3-.4-.4h0v-.2h0c0-.4.2-.6.3-.8l.2-.2s.2-.2.3-.2.2-.1.3-.2c0,0,.2-.1.3-.2.2-.1.4-.3.6-.4s.4-.3.5-.4c.3-.2.5-.5.7-.9,0-.2.2-.5.3-.7s.2-.4.2-.6.1-.4.2-.5.1-.4.2-.5c0-.1,0-.3.1-.5s0-.3,0-.5v-.6s0-.1-.2-.2h-.6c-.3.1-.6.3-.8.5h-.1c0,.1-.1.1-.1.1,0,.2-.2.3-.3.4l-.2.2-.2.2c-.1.1-.2.3-.3.5,0,.2-.2.4-.4.5-.1,0-.2.2-.3.3,0,.1-.2.2-.3.3h-.3l-.2-.2-.2-.2-.2-.2h0v-.5h0v-.2h0v-.3h0c0-.3.2-.5.4-.7.3-.3.7-.6,1-.8h.1c.1-.2,0-.1.2-.2s.3-.2.4-.3c.1-.1.3-.2.4-.3.1,0,.2-.2.3-.3s.2-.2.4-.2.3-.1.4-.2.3-.1.5-.1h.4c.1,0,.3,0,.4.1.2,0,.4.2.6.3h0c.1.1.2.2.3.4s.2.3.2.5v.6h0v.3c0,.4,0,.8-.2,1.2v.8c0,0,0,.2-.1.3,0,.1-.1.3-.2.4s-.1.3-.2.4c0,.1,0,.3-.1.4v.4c-.2.1-.2.3-.3.5s-.1.3-.2.5c-.2.3-.4.6-.6.8h-.2c0,.1-.2.1-.2.1v.2h1.4c.2-.1.3-.1.4-.1h2.4c.3,0,.6,0,.9.3.2.1.2.3.3.5h0c0,.4,0,.6-.1.8,0,0,0,.1-.1.2h-1c-.2,0-.4-.1-.6-.1h-4.9ZM347.8,471.4h-.5s-.2,0-.2-.1-.1,0-.2-.1c0,0-.2,0-.2-.1-.1-.1-.3-.2-.4-.3s-.2-.2-.3-.4h0c0-.1-.4-.7-.4-.7h0c0-.1-.2-.6-.2-.6h0v-2.1c-.2-.2-.2-.4-.1-.6,0-.4.2-.8.4-1.1.1-.2.3-.4.5-.6h0v-.2c.1-.2.3-.4.5-.5h.2q0-.2.2-.3l.4-.4c.1,0,.2-.2.2-.3v-.2l-.2-.2s-.1-.2-.2-.2h-.1c0-.1-.2-.1-.2-.1-.2-.2-.4-.4-.6-.5h0c0-.2-.2-.3-.3-.4,0-.1-.1-.3-.2-.4h0v-.6c0-.2.2-.4.3-.5l.3-.3c0,0,.2-.2.3-.2s.3-.1.4-.2.3-.1.4-.2c.2,0,.5-.2.8-.3s.5-.2.8-.2h.3c.1-.1.2-.1.3-.2h1.5c.2.2.4.3.5.5s.2.3.3.4c.1.2.2.4.2.7h0v.4h.2c.4.4.5.9.4,1.4,0,0,0,.2-.1.2l-.2.2c-.1,0-.2.1-.3.2s-.2.2-.3.3l-.2.2-.2.2s-.1.2-.2.2-.2.1-.3.2v.4h0c0,.1.2.3.2.3.3.2.5.4.7.7v.2c.3.2.3.4.4.6v.8h0v1.7h0v.2l-.2.5c0,.1,0,.2-.1.3h0c0,.2,0,.3-.1.4,0,0-.1.2-.2.2-.2.4-.5.7-.8,1.1,0,0,0,.1-.2.2,0,0,0,.1-.2.2,0,0-.2.2-.3.2-.2,0-.3.1-.5.2-.2,0-.3,0-.5.1h-1l-.5-.3ZM348.6,469.3c.2,0,.3,0,.4-.2h0c.1-.1.2-.3.4-.4s.2-.3.4-.4h0c0-.2.2-.3.2-.4s.1-.2.2-.4c0-.2,0-.3.1-.5v-1.1c0-.2,0-.3-.2-.5,0-.1-.2-.3-.4-.4h0c-.1,0-.2-.2-.3-.2s-.2-.2-.3-.3h0c0-.1-.2-.2-.3-.2h-.1c-.1.2,0,.1-.1.2h-.2c0,.1-.1.2-.2.3s-.1,0-.2.1h0v.2h0c0,.1-.1.1-.2.2h0v.2h0c0,.2,0,.1,0,.1h0v.5h0v.4h0v.8h0v.3h0c0,.1.1.3.2.3,0,.1.2.2.3.3h.9l-.6,1.1ZM349.2,461.5h.2l.3-.2v-.4l-.2-.2s0-.1-.2-.2c0,0-.1-.2-.2-.3,0-.1-.1-.2-.2-.3h-1.2c.3.3.5.4.7.6l.2.2.2.2.2.2h0l.2.4ZM268.7,470.8h-.3c0-.1,0,0,0,0h-.8c-.1,0-.3,0-.4-.1h-.1c-.2-.1-.3-.3-.4-.4h0v-.2h0c0-.4.1-.6.3-.8l.2-.2s.2-.2.3-.2.2-.1.3-.2c.1,0,.2-.1.3-.2.2-.1.4-.3.6-.4s.4-.3.5-.4c.3-.2.5-.5.7-.9,0-.2.2-.5.3-.7,0-.2.2-.4.2-.6s.1-.4.2-.5.1-.4.2-.5c0-.1.1-.3.1-.5v-1.1s0-.1-.2-.2h-.6c-.3.1-.6.3-.8.5h-.1c0,.1-.1.1-.1.1,0,.2-.2.3-.3.4l-.2.2-.2.2c-.1.1-.2.3-.3.5,0,.2-.2.4-.4.5-.1,0-.2.2-.3.3,0,.1-.2.2-.3.3h-.3l-.2-.2-.2-.2-.2-.2h0v-.5h0v-.2h0v-.3h0c0-.3.2-.5.4-.7.3-.3.7-.6,1-.8h.1c0-.1.1-.1.1-.2.1-.1.3-.2.4-.3s.3-.2.4-.3c.1,0,.2-.2.4-.3s.2-.2.4-.2.3-.1.4-.2.3-.1.5-.1h.6c.1,0,.3,0,.4.1.2,0,.4.2.6.3h.1l.4.4c.1.1.2.3.2.5,0,0,0,.2.1.3s0,.2,0,.3h0v.3c0,.4,0,.8-.2,1.2v.8c0,0,0,.2-.1.3,0,.1-.1.3-.2.4s-.1.3-.2.4c0,.1-.1.3-.1.4v.4c-.2.1-.2.3-.3.5s-.1.3-.2.5c-.2.3-.4.6-.6.8,0,0-.1,0-.1.1h-.1v.2h1.4c.1-.1.3-.1.4-.1h2.5c.3,0,.6,0,.9.3s.2.3.3.5h0c0,.4,0,.6-.1.8,0,0-.1.1-.1.2h-1.2c-.2,0-.4-.1-.6-.1h-5.4ZM284.2,471.4h-.3c-.1,0-.2-.1-.2-.1l-.2-.2c-.1-.1,0-.2-.1-.2h0v-.8h0v-1.4h0v-1.5c.1-.2.1-.5.2-.7v-.7c.1,0,.1-.3.1-.3v-.2h0v-1h0c-.1,0-.3.1-.4.2s-.3.1-.4.2c-.3.1-.6.2-.9.3s-.6.1-.9.2h-.8c-.3.2-.5.1-.8,0h0s-.1,0-.2-.1c0,0-.1,0-.2-.1h0v-.6h0c0-.1-.1-.1-.2-.2l-.2-.2s-.1-.2-.2-.2c0,0-.1-.2-.2-.2h0v-.8l-.2-.5v-.7h0v-.5q0-.2.1-.4c0-.1.1-.2.2-.3s.1-.2.2-.3c0-.1.2-.3.3-.4,0-.1.2-.3.2-.4v-.2c.2,0,.2-.1.3-.2h.1l.3-.2s.1,0,.2-.1.1,0,.2,0h1.9c.1,0,.4,0,.5.2.2,0,.5.2.7.3s.4.2.6.3h0v-.6s0-.1.1-.2h.3q0-.1.1-.2c.2,0,.4-.1.5-.1h.1c.2,0,.4.2.5.4h0v5.2h0v4.1h0v1.2h0v.7l-.2.6v.7l-.3.3s-.1,0-.1.1c0,0,0,.1-.1.1s-.1,0-.2.1h0l-.4-.4ZM280.9,463.1h1.7s.1,0,.2-.1c0,0,.1,0,.2-.1.2,0,.3-.2.3-.5h0v-1c0-.1,0-.2-.1-.4,0-.1-.1-.3-.2-.4s-.2-.2-.4-.3h-.1c-.1-.1-.3-.2-.5-.3s-.3-.1-.5-.2h-1.2c-.2,0-.3.1-.4.3v.2q-.1,0-.1.1h0l-.2.2s0,.1-.1.2,0,.1-.1.2v.2h0v.4c.1.1.1.2.2.3v.3q0,0,.2.2h.1c.1.2.2.3.3.4,0,0,0,.1.1.1s.1,0,.2.1h.4ZM203.9,446.4h-.4c0,0-.3,0-.4-.2h0s-.1,0-.2-.1c0,0-.1-.1-.2-.1l-.3-.3h0v-.2h0v-.2s0-.1.2-.2c0,0,.1,0,.1-.1s0-.2.2-.3c0,0,.2-.1.3-.2.1,0,.3-.1.5-.1h.8c.1,0,.3,0,.5-.1h.5c0-.1.6-.4.6-.4.2,0,.3-.1.4-.2.1,0,.2,0,.3-.1h.3c0-.2.2-.2.2-.3s.1-.1.2-.2c0,0,.1-.2.2-.2,0-.1.1-.3,0-.4v-.4s0-.2-.1-.2,0-.2-.1-.3h0c0-.1-.1-.3-.2-.4s-.1-.2-.2-.3c0,0-.1-.1-.2-.2,0,0-.1,0-.2-.1h-.6c-.2,0-.4,0-.5-.1h-.5c-.2-.1-.3-.2-.5-.2s-.2-.1-.3-.1h-.1s-.2,0-.4-.1h-.5v-.8h0c0-.2,0-.1,0-.1v-.2h0c.1-.4.3-.5.5-.7s.4-.5.5-.7c.2-.2.4-.4.5-.6,0-.1.2-.2.2-.3v-.2c.2,0,.2-.1.3-.2h0v-.6h-2c-.2,0-.4.1-.6.2s-.4.1-.6.2c0,0-.2,0-.3.1h-.6c-.1,0-.3.1-.4.2h-.6c-.1,0-.2,0-.3-.1h-.1v-.4c0-.2,0-.4.1-.5,0,0,0-.1.1-.2,0,0,.1-.1.2-.2.2-.1.4-.2.6-.3h4c.1,0,.2,0,.3-.1s.1,0,.2,0h1.4c0,.1.1.2.1.2h.1c.1,0,.2.2.3.2s.1.2.2.3c.1.2.2.4.1.6v.4c0,.1,0,.3-.1.4l-.3.6v.4l-.3.3c0,.1-.2.3-.2.4s-.2.3-.3.4h0v.2h.1c.2,0,.3,0,.5.1.2,0,.3.1.5.1s.4.1.6.2.4.2.5.3c.3.2.6.5.8.8.1.1.2.3.3.4s.2.3.3.5l.3.5c.2.4.3.8.3,1.2v.9c0,.1,0,.3-.1.4s-.1.2-.2.4c0,0-.2.2-.2.3s-.1.2-.3.3h0s-.1.1-.2.1c0,0-.1.1-.2.1,0,0-.1,0-.2.1,0,0-.1,0-.2.1-.2.1-.4.2-.6.2h-.5l-.5.2h-.4c-.1,0-.3.1-.4.1s-.3,0-.4.1-.3.1-.4.2l-.2.2s-.1,0-.1.1h-.3l-1.2-.5ZM216.1,446.2h-.8c-.3,0-.6-.1-.9-.2h-.2c-.1-.1-.2-.1-.3-.2s-.2,0-.3-.1c0,0-.2-.1-.3-.1s-.2,0-.3-.1h0c0-.1-.2-.2-.3-.2s-.2,0-.3-.1c-.1,0-.2-.1-.3-.2s-.2-.1-.3-.2h0c0-.1-.1-.2-.2-.3s-.1-.2-.2-.3v-.3c-.1,0-.2-.1-.2-.2v-2.2h0v-.6h0v-.2c0-.1.1-.2.1-.3s0-.2.1-.3v-.2h0v-.3h.2v-.6c0-.2,0-.3.2-.5,0,0,.1-.1.1-.2h0c.1-.1.2-.3.2-.5s.1-.3.2-.5h0s0-.2.2-.2h0s.1-.1,0-.2h0c0-.3,0-.4.1-.4h.1s.1-.1.2-.2,0,0,.1-.1h0c0-.1,0-.2.2-.3h0c0-.1-.1-.2-.2-.3,0,0-.1-.1-.2-.2,0,0-.1,0-.1-.1s0-.1-.1-.2h0v-.4h0v-.2h0q0-.1.1-.1s.1,0,.1-.1h.7c.1,0,.2.1.3.1s.2,0,.3.1h.5q0-.1.1-.2c.1-.1.2-.2.4-.2h.6c.1,0,.2,0,.3.1h0s0,.1.1.1h.4c0,0,.2,0,.2.1h0c0,.1,0,.2.1.2h0c0,.2,0,.1,0,.1v.2c0,.2-.2.4-.4.5h-.3s.1.1.2.2c0,0,.1.1.2.2,0,0,.1.2.2.2s.1.1.2.2c0,0,0,.2.1.2l.2.2.2.3s.1.2.2.3.1.2.2.3c.1.2.2.3.3.5l.3.5c.2.4.3.7.5,1,.1.2.2.5.3.8s.1.5.2.8l.2.8v.6c0,.2-.1.4-.2.6,0,.2-.2.5-.3.7,0,.2-.1.3-.2.5s-.1.3-.2.5c-.1.2-.2.4-.4.6,0,0-.1.1-.1.2,0,0,0,.1-.1.2,0,0-.1.1-.2.2s-.1.1-.2.2l-.2.2s-.2.1-.3.2-.2.1-.3.2c-.2,0-.4.2-.6.2s-.5.1-.8.1h-.5l1.1-.9ZM215.5,444.3h1.2c.1,0,.3-.1.5-.2,0,0,.1,0,.2-.1,0-.1.2-.2.4-.3h.1c0-.1.1-.2.1-.3s0-.1.1-.2l.2-.5c0-.2.1-.3.2-.5,0-.2.1-.4.1-.5h0v-.5c0-.2,0-.3-.1-.5v-.5c-.1-.2-.2-.5-.3-.7,0-.2-.2-.4-.3-.6,0-.2-.2-.3-.3-.5s-.2-.3-.3-.5c0,0,0-.2-.1-.2,0-.1-.1-.2-.2-.3s-.1-.2-.2-.3l-.5-.7c0-.1-.1-.2-.2-.3s-.1-.2-.2-.2h-.1c0,.1-.5.8-.5.8-.4.5-.7,1.1-1,1.8,0,.2-.2.4-.3.7s-.2.5-.3.7c0,.2-.2.5-.3.8s-.2.5-.2.8c-.1.4-.2.7-.2,1h0v.7c0,.2.2.4.3.6l.4.3c.1,0,.2.2.4.3s.3.2.4.2c.2,0,.3.1.5.2s.4,0,.5,0h0v-.5ZM219.4,623.7h-.4c0,0-.3,0-.4-.2h0s-.1,0-.2,0c0,0-.1,0-.2-.2l-.3-.3h0v-.2h0v-.2s0-.2.2-.2c0,0,.1,0,.1,0s0-.2.2-.3c0,0,.2,0,.3-.2.1,0,.3,0,.5,0h.8c.1,0,.3,0,.5,0l.5-.2.6-.2c.2,0,.3,0,.4-.2.1,0,.2,0,.3,0l.3-.2s.2,0,.2-.2.1,0,.2-.2c0,0,.1-.2.2-.2,0,0,.1-.3,0-.4v-.4s0-.2-.1-.2,0-.2-.1-.3h0s-.1-.2-.2-.3-.1-.2-.2-.3c0,0-.1,0-.2-.2s-.1,0-.2,0h-.6c-.2,0-.4,0-.5,0h-.5c-.2,0-.3-.2-.5-.2s-.2,0-.3,0h-.1s-.2,0-.4,0h-.5v-.8h0c0-.2,0,0,0,0v-.4c.2-.2.4-.4.5-.6.2-.2.4-.5.5-.7.2-.2.4-.4.5-.7,0,0,.2-.2.2-.3v-.2c.2,0,.2,0,.3-.2h0v-.6h-2c-.2,0-.4,0-.6.2s-.4,0-.6.2h-.9c-.1,0-.3,0-.4.2h-.6c-.1,0-.2,0-.3,0h-.1v-.4c0-.2,0-.4.1-.5,0,0,0,0,.1-.2s.1,0,.2-.2c.2-.2.4-.2.6-.3h5.9c0,0,.1.2.1.2h.1c.1,0,.2.2.3.2s.1.2.2.3c.1.2.2.4.1.6v.4c0,.1,0,.3-.1.4l-.3.6v.4l-.3.3c0,0-.2.3-.2.4s-.2.3-.3.4h0v.2h.6c.2,0,.3,0,.5,0,.2,0,.4,0,.6.2s.4.2.5.3c.3.2.6.5.8.8.1,0,.2.3.3.4s.2.3.3.5l.3.5c.2.4.3.8.3,1.2v.8c0,0,0,.3-.1.4s-.1.2-.2.4c0,0-.2.2-.2.3s-.1.2-.3.3h0s-.1,0-.2.2c0,0-.1,0-.2.2,0,0-.1,0-.2,0,0,0-.1,0-.2,0-.2.2-.4.2-.6.2h-.5l-.5.2h-.4c-.1,0-.3,0-.4,0-.1,0-.3,0-.4,0s-.3,0-.4.2l-.2.2s-.1,0-.1,0h-.3l-1.2-.2ZM228.4,623.7h-.5c-.1,0,0,0,0,0h0s-.1,0-.1,0v-1.4h0v-3.9h0v-3.1h0v-1.7c-.1-.2-.1-.5,0-.7,0,0,0-.2.1-.3h0s.1,0,.1,0,0,0,0,0h.5s.1,0,.2.2c0,0,0,.2.1.3s0,.2,0,.3v1.3h0v2.1h0v3.5h0v.3h0v1.9h0v.8h0v.3s0,0-.1.2h0s-.2,0-.2.2c-.1,0-.2,0-.4,0h.3ZM229.7,805.5h-.4c0,0-.3,0-.4-.2h0s-.1,0-.2,0c0,0-.1,0-.2-.2l-.3-.3h0v-.2h0v-.2s0-.2.2-.2c0,0,.1,0,.1,0s0-.2.2-.3c0,0,.2,0,.3-.2.1,0,.3,0,.5,0h.8c.1,0,.3,0,.5,0l.5-.2.6-.2c.2,0,.3,0,.4-.2.1,0,.2,0,.3,0l.3-.2s.2,0,.2-.2.1,0,.2-.2c0,0,.1-.2.2-.2,0,0,.1-.3,0-.4v-.4s0-.2-.1-.2,0-.2-.1-.3h0s-.1-.2-.2-.3-.1-.2-.2-.3c0,0-.1,0-.2-.2s-.1,0-.2,0h-.6c-.2,0-.4,0-.5,0h-.5c-.2,0-.3-.2-.5-.2s-.2,0-.3,0h-.1s-.2,0-.4,0h-.5v-.8h0c0-.2,0,0,0,0v-.4c.2-.2.4-.4.5-.6.2-.2.4-.5.5-.7.2-.2.4-.4.5-.7,0,0,.2-.2.2-.3v-.2c.2,0,.2,0,.3-.2h0v-.6h-2c-.2,0-.4,0-.6.2s-.4,0-.6.2h-.9c-.1,0-.3,0-.4.2h-.6c-.1,0-.2,0-.3,0h-.1v-.4c0-.2,0-.4.1-.5,0,0,0,0,.1-.2s.1,0,.2-.2c.2-.2.4-.2.6-.3h5.9c0,0,.1.2.1.2h.1c.1,0,.2.2.3.2s.1.2.2.3c.1.2.2.4.1.6v.4c0,.1,0,.3-.1.4l-.3.6v.4l-.3.3c0,0-.2.3-.2.4s-.2.3-.3.4h0v.2h.6c.2,0,.3,0,.5,0,.2,0,.4,0,.6.2s.4.2.5.3c.3.2.6.5.8.8.1,0,.2.3.3.4s.2.3.3.5l.3.5c.2.4.3.8.3,1.2v.8c0,0,0,.3-.1.4s-.1.2-.2.4c0,0-.2.2-.2.3s-.1.2-.3.3h0s-.1,0-.2.2c0,0-.1,0-.2.2,0,0-.1,0-.2,0,0,0-.1,0-.2,0-.2.2-.4.2-.6.2h-.5l-.5.2h-.4c-.1,0-.3,0-.4,0-.1,0-.3,0-.4,0s-.3,0-.4.2l-.2.2s-.1,0-.1,0h-.3l-1.2-.2ZM239.5,804.7h-1.1c-.1,0-.3,0-.4,0h-.1c-.2,0-.3-.3-.4-.4v-.4h0c0-.4.1-.6.3-.8l.2-.2s.2-.2.3-.2.2,0,.3-.2.2,0,.3-.2c.2,0,.4-.3.6-.4s.4-.3.5-.4c.3-.2.5-.5.7-.9,0-.2.2-.5.3-.7,0-.2.2-.4.2-.6s.1-.4.2-.5.1-.4.2-.5c0-.2.1-.3.1-.5v-1.1s0,0-.2-.2h-.6c-.3,0-.6.3-.8.5h-.1c0,0-.1,0-.1,0,0,.2-.2.3-.3.4,0,0-.1,0-.2.2,0,0-.1,0-.2.2-.1,0-.2.3-.3.5,0,.2-.2.4-.4.5-.1,0-.2.2-.3.3,0,0-.2.2-.3.3h-.3l-.2-.2s-.1,0-.2-.2c0,0-.1,0-.2-.2h0v-.4h0v-.5h0v-.2c0-.2.2-.4.4-.6.3-.3.7-.6,1-.8h.2c.1,0,.3-.2.4-.3s.3-.2.4-.3c.1,0,.2-.2.4-.3s.2-.2.4-.2.3-.2.4-.2.3,0,.5,0h.6c.1,0,.3,0,.4,0,.2,0,.4.2.6.3h.1c.1,0,.2.2.4.4.1,0,.2.3.2.5,0,0,0,.2.1.3s0,.2,0,.3v.4c0,.4,0,.8-.2,1.2v.8c0,0,0,.2-.1.3,0,.2-.1.3-.2.4s-.1.3-.2.4c0,0-.1.3-.1.4v.4c-.2.2-.2.3-.3.5s-.1.3-.2.5c-.2.3-.4.6-.6.8,0,0-.1,0-.1,0v.2h-.1,1.4c.1,0,.3,0,.4,0h2.5c.3,0,.6,0,.9.3.1.2.2.3.3.5h0c0,.4,0,.6-.1.8,0,0-.1,0-.1.2h-1.2c-.2,0-.4,0-.6,0h-5.4ZM236.4,945.1h-.4c0,0-.3,0-.4-.2h0s-.1,0-.2,0c0,0-.1,0-.2-.2l-.3-.3h0v-.2h0v-.2s0-.2.2-.2c0,0,.1,0,.1,0s0-.2.2-.3c0,0,.2,0,.3-.2.1,0,.3,0,.5,0h.8c.1,0,.3,0,.5,0l.5-.2.6-.2c.2,0,.3,0,.4-.2.1,0,.2,0,.3,0l.3-.2s.2,0,.2-.2.1,0,.2-.2c0,0,.1-.2.2-.2,0,0,.1-.3,0-.4v-.4s0-.2-.1-.2,0-.2-.1-.3h0s-.1-.2-.2-.3-.1-.2-.2-.3c0,0-.1,0-.2-.2s-.1,0-.2,0h-.6c-.2,0-.4,0-.5,0h-.5c-.2,0-.3-.2-.5-.2s-.2,0-.3,0h-.1s-.2,0-.4,0h-.5v-.8h0c0-.2,0,0,0,0v-.4c.2-.2.4-.4.5-.6.2-.2.4-.5.5-.7.2-.2.4-.4.5-.7,0,0,.2-.2.2-.3v-.2c.2,0,.2,0,.3-.2h0v-.6h-2c-.2,0-.4,0-.6.2s-.4,0-.6.2h-.9c-.1,0-.3,0-.4.2h-.6c-.1,0-.2,0-.3,0h-.1v-.4c0-.2,0-.4.1-.5,0,0,0,0,.1-.2s.1,0,.2-.2c.2-.2.4-.2.6-.3h5.9c0,0,.1.2.1.2h.1c.1,0,.2.2.3.2s.1.2.2.3c.1.2.2.4.1.6v.4c0,.1,0,.3-.1.4l-.3.6v.4l-.3.3c0,0-.2.3-.2.4s-.2.3-.3.4h0v.2h.6c.2,0,.3,0,.5,0,.2,0,.4,0,.6.2s.4.2.5.3c.3.2.6.5.8.8.1,0,.2.3.3.4s.2.3.3.5l.3.5c.2.4.3.8.3,1.2v.8c0,0,0,.3-.1.4s-.1.2-.2.4c0,0-.2.2-.2.3s-.1.2-.3.3h0s-.1,0-.2.2c0,0-.1,0-.2.2,0,0-.1,0-.2,0,0,0-.1,0-.2,0-.2.2-.4.2-.6.2h-.5l-.5.2h-.4c-.1,0-.3,0-.4,0-.1,0-.3,0-.4,0s-.3,0-.4.2l-.2.2s-.1,0-.1,0h-.3l-1.2-.2ZM247.5,945.1h-.4c0,0-.3,0-.4-.2h0s-.1,0-.2,0c0,0-.1,0-.2-.2l-.3-.3h0v-.2h0v-.2s0-.2.2-.2c0,0,.1,0,.1,0s0-.2.2-.3c0,0,.2,0,.3-.2.1,0,.3,0,.5,0h.8c.1,0,.3,0,.5,0l.5-.2.6-.2c.2,0,.3,0,.4-.2.1,0,.2,0,.3,0l.3-.2s.2,0,.2-.2.1,0,.2-.2c0,0,.1-.2.2-.2,0,0,.1-.3,0-.4v-.4s0-.2-.1-.2,0-.2-.1-.3h0s-.1-.2-.2-.3-.1-.2-.2-.3c0,0-.1,0-.2-.2s-.1,0-.2,0h-.6c-.2,0-.4,0-.5,0h-.5c-.2,0-.3-.2-.5-.2s-.2,0-.3,0h-.1s-.2,0-.4,0h-.5v-.8h0c0-.2,0,0,0,0v-.4c.2-.2.4-.4.5-.6.2-.2.4-.5.5-.7.2-.2.4-.4.5-.7,0,0,.2-.2.2-.3v-.2c.2,0,.2,0,.3-.2h0v-.6h-2c-.2,0-.4,0-.6.2s-.4,0-.6.2h-.9c-.1,0-.3,0-.4.2h-.6c-.1,0-.2,0-.3,0h-.1v-.4c0-.2,0-.4.1-.5,0,0,0,0,.1-.2s.1,0,.2-.2c.2-.2.4-.2.6-.3h5.9c0,0,.1.2.1.2h.1c.1,0,.2.2.3.2s.1.2.2.3c.1.2.2.4.1.6v.4c0,.1,0,.3-.1.4l-.3.6v.4l-.3.3c0,0-.2.3-.2.4s-.2.3-.3.4h0v.2h.6c.2,0,.3,0,.5,0,.2,0,.4,0,.6.2s.4.2.5.3c.3.2.6.5.8.8.1,0,.2.3.3.4s.2.3.3.5l.3.5c.2.4.3.8.3,1.2v.8c0,0,0,.3-.1.4s-.1.2-.2.4c0,0-.2.2-.2.3s-.1.2-.3.3h0s-.1,0-.2.2c0,0-.1,0-.2.2,0,0-.1,0-.2,0,0,0-.1,0-.2,0-.2.2-.4.2-.6.2h-.5l-.5.2h-.4c-.1,0-.3,0-.4,0-.1,0-.3,0-.4,0s-.3,0-.4.2l-.2.2s-.1,0-.1,0h-.3l-1.2-.2ZM171.2,974.3h-.4c0,0-.3,0-.4-.2h0s-.1,0-.2,0c0,0-.1,0-.2-.2l-.3-.3h0v-.2h0v-.2s0-.2.2-.2c0,0,.1,0,.1,0s0-.2.2-.3c0,0,.2,0,.3-.2.1,0,.3,0,.5,0h.8c.1,0,.3,0,.5,0l.5-.2.6-.2c.2,0,.3,0,.4-.2.1,0,.2,0,.3,0l.3-.2s.2,0,.2-.2.1,0,.2-.2c0,0,.1-.2.2-.2,0,0,.1-.3,0-.4v-.4s0-.2-.1-.2,0-.2-.1-.3h0s-.1-.2-.2-.3-.1-.2-.2-.3c0,0-.1,0-.2-.2,0,0-.1,0-.2,0h-.6c-.2,0-.4,0-.5,0h-.5c-.2,0-.3-.2-.5-.2s-.2,0-.3,0h-.1s-.2,0-.4,0h-.5v-.8h0c0-.2,0,0,0,0v-.4c.2-.2.4-.4.5-.6.2-.2.4-.5.5-.7.2-.2.4-.4.5-.7,0,0,.2-.2.2-.3v-.2c.2,0,.2,0,.3-.2h0v-.6h-2c-.2,0-.4,0-.6.2s-.4,0-.6.2h-.9c-.1,0-.3,0-.4.2h-.6c-.1,0-.2,0-.3,0h-.1v-.4c0-.2,0-.4.1-.5,0,0,0,0,.1-.2s.1,0,.2-.2c.2-.2.4-.2.6-.3h5.9c0,0,.1.2.1.2h.1c.1,0,.2.2.3.2s.1.2.2.3c.1.2.2.4.1.6v.4c0,.1,0,.3-.1.4l-.3.6v.4l-.3.3c0,0-.2.3-.2.4s-.2.3-.3.4h0v.2h.6c.2,0,.3,0,.5,0,.2,0,.4,0,.6.2s.4.2.5.3c.3.2.6.5.8.8.1,0,.2.3.3.4s.2.3.3.5l.3.5c.2.4.3.8.3,1.2v.8c0,0,0,.3-.1.4s-.1.2-.2.4c0,0-.2.2-.2.3s-.1.2-.3.3h0s-.1,0-.2.2c0,0-.1,0-.2.2,0,0-.1,0-.2,0,0,0-.1,0-.2,0-.2.2-.4.2-.6.2h-.5l-.5.2h-.4c-.1,0-.3,0-.4,0-.1,0-.3,0-.4,0s-.3,0-.4.2l-.2.2s-.1,0-.1,0h-.3l-1.2-.2ZM185.3,973.5h-.3c-.1,0-.2,0-.3,0h-.1c-.1,0-.2,0-.2-.2h0c-.1-.3-.1-.5-.1-.8h0v-1.1h0v-1h0v-.6h0v-.2h0q0-.2-.1-.2h-2.7c-.2,0-.4,0-.5.2h-.4s-.1,0-.1.2v.4s0,.2-.1.3c0,0-.1,0-.3,0s-.2,0-.3,0c0,0,0,0-.1-.2v-.6c-.1,0-.1-.2-.2-.3v-.2c-.3-.3-.4-.5-.4-.8s0-.2,0-.2v-.2s.1,0,.1-.2v-.2c0-.2,0-.5.1-.7,0-.2.1-.5.2-.8s.1-.5.2-.8v-.4c.2,0,.2-.3.2-.4,0-.2.1-.4.2-.6s.1-.4.2-.6h0c0-.3.1-.4.2-.6s.1-.3.2-.5h0v-.3h0c0,0,.1-.2.2-.3s.1,0,.2,0h1s.2,0,.3.2c.2.2.3.5.3.8s0,.5-.2.7c0,0-.1.2-.1.4s0,.3-.1.4v.3c-.1,0-.2.2-.2.3h0v.2h0s-.1.2-.1.3v.8c0,0-.1.2-.2.4v.9c-.1,0,0,0,0,0h2.8v-1.3h0v-3.8c0,0,0-.2.2-.4,0,0,0-.2.2-.2s.1,0,.2-.2h.8v.3h0c0,.2.1.3.1.5h0v.2s.1,0,0,.2h0v.6h0v.2h0v.4h0v.2h0v3.3h2.8s.1,0,.2.2h0s0,.2.1.2v.2h0v.4h0v.2h0s-.1,0-.2,0h-.1c0,.2-.1.2-.2.3h-2.5s0,.2-.1.2h0v.2q0,.1,0,0h0v.3h0v.3h0v.5h0s0,0,.1.2,0,.2,0,.2h0v.3h0v.6c0,0,0,0,0,0h0v.2h-.2q0,0-.1.2h-.3l-.3,1.5ZM186.1,972.9h0ZM156.3,439.4h-.4c0,0-.3,0-.4-.2h0s-.1,0-.2-.1-.1-.1-.2-.1l-.3-.3h0v-.2h0v-.2s0-.1.2-.2c0,0,.1,0,.1-.1s0-.2.2-.3c0,0,.2-.1.3-.2.1,0,.3-.1.5-.1h.8c.1,0,.3,0,.5-.1h.5c0-.1.6-.4.6-.4.2,0,.3-.1.4-.2.1,0,.2,0,.3-.1h.3c0-.2.2-.2.2-.3s.1-.1.2-.2c0,0,.1-.2.2-.2,0-.1.1-.3,0-.4v-.4c0-.1,0-.2-.1-.2s0-.2-.1-.3h0c0-.1-.1-.3-.2-.4s-.1-.2-.2-.3c0,0-.1-.1-.2-.2s-.1,0-.2-.1h-.6c-.2,0-.4,0-.5-.1h-.5c-.2-.1-.3-.2-.5-.2s-.2-.1-.3-.1h-.1s-.2,0-.4-.1h-.5v-.8h0c0-.2,0-.1,0-.1v-.2h0c.1-.4.3-.5.5-.7s.4-.5.5-.7c.2-.2.4-.4.5-.6,0-.1.2-.2.2-.3v-.2c.2,0,.2-.1.3-.2h0v-.6h-2c-.2,0-.4.1-.6.2-.2,0-.4.1-.6.2,0,0-.2,0-.3.1h-.6c-.1,0-.3.1-.4.2h-.6c-.1,0-.2,0-.3-.1h-.1v-.4c0-.2,0-.4.1-.5,0,0,0-.1.1-.2,0,0,.1-.1.2-.2.2-.1.4-.2.6-.3h4c.1,0,.2,0,.3-.1s.1,0,.2,0h1.4c0,.1.1.2.1.2h.1c.1,0,.2.2.3.2s.1.2.2.3c.1.2.2.4.1.6v.4c0,.1,0,.3-.1.4l-.3.6v.4l-.3.3c0,.1-.2.3-.2.4s-.2.3-.3.4h0v.2h.1c.2,0,.3,0,.5.1.2,0,.3.1.5.1s.4.1.6.2.4.2.5.3c.3.2.6.5.8.8.1.1.2.3.3.4s.2.3.3.5l.3.5c.2.4.3.8.3,1.2v.9c0,.1,0,.3-.1.4s-.1.2-.2.4c0,0-.2.2-.2.3s-.1.2-.3.3h0s-.1.1-.2.1c0,0-.1.1-.2.1,0,0-.1,0-.2.1s-.1,0-.2.1c-.2.1-.4.2-.6.2h-.5l-.5.2h-.4c-.1,0-.3.1-.4.1s-.3,0-.4.1-.3.1-.4.2l-.2.2s-.1,0-.1.1h-.3l-1.2-.5ZM165.8,440h0s-.2,0-.2-.1c0,0-.1-.1-.2-.2h0s-.1-.1-.2-.2,0-.2,0-.3v-.3c0-.2,0-.3.2-.4.2-.2.4-.3.7-.3h.8c.2,0,.4-.1.6-.2s.4-.1.6-.2c.3-.1.6-.3,1-.4s.6-.3.9-.5c.1,0,.3-.1.4-.2s.2-.1.4-.2c.3-.2.5-.5.7-.7.1-.2.2-.4.1-.7v-.4c0-.1-.1-.2-.2-.3,0-.1-.1-.2-.2-.3,0,0-.1-.1-.1-.2,0,0,0-.1-.1-.2,0,0-.1-.1-.1-.2h-.1c0-.1,0-.2-.1-.2h-3.5q0,0-.2.1h0s-.2,0-.2.2h0s-.1,0-.2.1-.1,0-.2.1h0q0-.1-.1-.1h-.1c-.2.1-.3.3-.4.5v.2c-.1.1-.2.2-.3.2h-.3s-.1-.1-.1-.2v-.4c0-.1,0-.3-.1-.4,0-.2-.1-.3-.1-.5v-3.8h0v-3.1h0c.1-.3.3-.4.5-.5h6.4c0,.2,0,.1,0,.1,0,0,0,.1.1.2,0,0,0,.1.1.2h0v.3h0v.2h0c0,.1,0,.2-.1.3,0,0-.1.2-.3.3,0,0-.1.1-.2.1,0,0-.1.1-.2.1h-4.4v3.6h0c.2.1.3.1.5,0s.3,0,.5-.1h3.4c.2,0,.5.2.7.3l.5.4c.1,0,.2.1.3.2s.3.3.4.4c.1.1.2.3.3.4,0,0,0,.1.1.2.2.3.4.6.4,1v1.8c-.2.3-.4.5-.6.8,0,0-.1.1-.2.2,0,0-.1.1-.2.2h-.2c0,.1-.1.1-.2.3,0,0-.1.1-.2.2s-.2.1-.3.1h-.1c0,.1-.2.1-.2.2s-.1.1-.2.1h-.2c-.1.2-.2.2-.4.3-.1,0-.2.1-.4.2l-.9.4h-.6c-.2,0-.4.1-.5.2-.2,0-.4.1-.5.2h-.6l-1.6.9ZM111.3,440.3h-.4c0,0-.3,0-.4-.2h0s0,0-.2-.1c0,0,0-.1-.2-.1l-.3-.3h0v-.2h0v-.2s0-.1.2-.2c0,0,0,0,0-.1s0-.2.2-.3c0,0,.2-.1.3-.2,0,0,.3-.1.5-.1h.8c0,0,.3,0,.5-.1h.5c0-.1.6-.4.6-.4.2,0,.3-.1.4-.2,0,0,.2,0,.3-.1h.3c0-.2.2-.2.2-.3s0-.1.2-.2c0,0,0-.2.2-.2,0-.1,0-.3,0-.4v-.4s0-.2,0-.2,0-.2,0-.3h0c0-.1,0-.3-.2-.4s0-.2-.2-.3l-.2-.2c0-.1,0,0-.2-.1h-.6c-.2,0-.4,0-.5-.1h-.5c-.2-.1-.3-.2-.5-.2s-.2-.1-.3-.1h0s-.2,0-.4-.1h-.5v-.8h0c0-.2,0-.1,0-.1v-.2h0c0-.4.3-.5.5-.7s.4-.5.5-.7c.2-.2.4-.4.5-.6,0-.1.2-.2.2-.3v-.2c.2,0,.2-.1.3-.2h0v-.6h-2c-.2,0-.4.1-.6.2s-.4.1-.6.2c0,0-.2,0-.3.1h-.6c0,0-.3.1-.4.2h-.6c0,0-.2,0-.3-.1h0v-.4c0-.2,0-.4,0-.5,0,0,0-.1,0-.2l.2-.2c.2-.1.4-.2.6-.3h4c0,0,.2,0,.3-.1s0,0,.2,0h1.4c0,.1,0,.2,0,.2h0c0,0,.2.2.3.2s0,.2.2.3c0,.2.2.4,0,.6v.4c0,.1,0,.3,0,.4l-.3.6v.4l-.3.3c0,.1-.2.3-.2.4s-.2.3-.3.4h0v.2h0c.2,0,.3,0,.5.1.2,0,.3.1.5.1s.4.1.6.2.4.2.5.3c.3.2.6.5.8.8,0,.1.2.3.3.4s.2.3.3.5l.3.5c.2.4.3.8.3,1.2v.9c0,.1,0,.3,0,.4s0,.2-.2.4c0,0-.2.2-.2.3s0,.2-.3.3h0s0,.1-.2.1c0,0,0,.1-.2.1,0,0,0,0-.2.1,0,0,0,0-.2.1-.2.1-.4.2-.6.2h-.5l-.5.2h-.4c0,0-.3.1-.4.1s-.3,0-.4.1-.3.1-.4.2l-.2.2s0,0,0,.1h-.3l-1.2-.5ZM125.5,440.7c-.2,0-.4,0-.6-.2s-.4-.1-.6-.2c0,0-.2-.1-.3-.2,0,0-.2-.1-.3-.2l-.6-.4h0c0-.2,0-.1,0-.2h0c0-.1,0-.2,0-.2h-.5c0,0-.3-.1-.4-.2s-.2-.2-.4-.2c-.5-.4-.9-.8-1.2-1.2h0c0-.1-.2-.5-.2-.5,0-.1,0-.2-.2-.4l-.3-.6c0-.1-.2-.3-.2-.5s0-.3-.2-.5h0v-.2c0-.1,0-.2,0-.4h0v-.2h0v-.2h0v-1.4h0v-1h0c0-.1.2-.3.2-.5v-.2h0v-.2c0-.1,0-.2,0-.2h0v-.5c0-.1,0-.3,0-.4,0-.2,0-.3.3-.4l.2-.2c0,0,.2-.2.2-.3h0c0-.1,0-.2,0-.2s0,0,0-.1,0-.2.3-.3c0,0,.2,0,.3-.1,0,0,.2-.1.3-.2h.2c0-.1.2-.2.4-.3s.2-.1.4-.2h1.7s0,0,.2.1c0,0,.2.1.3.3.2.3.2.5,0,.8h0c0,.1-.2.2-.3.3,0,0-.2.1-.3.2h0c0,.1-.3.2-.5.3,0,0,0,0-.2.1s0,0-.2.1c-.2.1-.4.3-.6.5-.4.4-.8.9-1,1.4,0,.1,0,.3-.2.4s0,.2-.2.4h0c0,.2,0,.3,0,.5s0,.3,0,.5v.2c0,.2,0,.5,0,.7v1.1c0,.2,0,.4.2.5s0,.4.2.5h0v.2s0,.2.2.3,0,.2.2.3h0v-1h0v-.2l.2-.4c0-.1,0-.2.2-.3,0-.1,0-.2.2-.3s.2-.2.2-.3l.4-.4s.2-.2.3-.2.2-.1.3-.2h.4c0-.2.2-.2.4-.3s.3-.1.4-.2c0,0,.2-.1.3-.2h0c0,0,0,0,0,0h1.2c.2,0,.5.2.7.4l.4.4h0s0,.1,0,.2,0,.1,0,.2h0c0,.1,0,.2.2.3s0,.2,0,.2h0v.5c0,.1,0,.2,0,.3v.5h0v1.7c0,.1,0,.3,0,.4h0s0,.1,0,.2v.7c0,.1,0,.2,0,.4,0,.2-.2.3-.4.5,0,0-.2.2-.2.3s-.2.2-.2.3l-.6.7c0,.2-.2.3-.3.5h0c0,.1,0,.2,0,.2h-1.4l1.1-1.2ZM125.6,438.9h.2s0,0,0-.1h0c.2-.3.3-.4.5-.6s.3-.3.5-.5h0v-.3h0v-.7c0-.1,0-.3,0-.5v-.5q0,0,0-.1v-.7c0,0,0-.2,0-.3,0-.1,0-.3-.2-.4,0-.1,0-.2-.2-.4h-.6c0,.2-.3.2-.4.2h-.4c0,0-.2,0-.4.1h0c-.2,0-.3.1-.4.2s-.3.2-.4.4l-.2.2s0,.1,0,.2,0,.2,0,.4v.9c0,.3.3.6.4.9,0,0,0,.1,0,.2s0,.1,0,.2h0s0,.1,0,.1,0,.1,0,.1c0,.1.2.2.4.4.2.2.5.3.8.4h0l-.2.2ZM104.2,646.6h-.4c0,0-.3,0-.4-.2h0s0,0-.2,0c0,0,0,0-.2-.2l-.3-.3h0v-.2h0v-.2s0-.2.2-.2c0,0,0,0,0,0s0-.2.2-.3c0,0,.2,0,.3-.2,0,0,.3,0,.5,0h.8c0,0,.3,0,.5,0l.5-.2.6-.2c.2,0,.3,0,.4-.2,0,0,.2,0,.3,0l.3-.2s.2,0,.2-.2,0,0,.2-.2c0,0,0-.2.2-.2,0,0,0-.3,0-.4v-.4s0-.2,0-.2,0-.2,0-.3h0s0-.2-.2-.3,0-.2-.2-.3c0,0,0,0-.2-.2,0,0,0,0-.2,0h-.6c-.2,0-.4,0-.5,0h-.5c-.2,0-.3-.2-.5-.2s-.2,0-.3,0h0s-.2,0-.4,0h-.5v-.8h0c0-.2,0,0,0,0v-.4c.2-.2.4-.4.5-.6.2-.2.4-.5.5-.7.2-.2.4-.4.5-.7,0,0,.2-.2.2-.3v-.2c.2,0,.2,0,.3-.2h0v-.6h-2c-.2,0-.4,0-.6.2s-.4,0-.6.2h-.9c0,0-.3,0-.4.2h-.6c0,0-.2,0-.3,0h0v-.4c0-.2,0-.4,0-.5,0,0,0,0,0-.2s0,0,.2-.2c.2-.2.4-.2.6-.3h5.9c0,0,0,.2,0,.2h0c0,0,.2.2.3.2s0,.2.2.3c0,.2.2.4,0,.6v.4c0,.1,0,.3,0,.4l-.3.6v.4l-.3.3c0,0-.2.3-.2.4s-.2.3-.3.4h0v.2h.6c.2,0,.3,0,.5,0,.2,0,.4,0,.6.2s.4.2.5.3c.3.2.6.5.8.8,0,0,.2.3.3.4s.2.3.3.5l.3.5c.2.4.3.8.3,1.2v.8c0,0,0,.3,0,.4s0,.2-.2.4c0,0-.2.2-.2.3s0,.2-.3.3h0s0,0-.2.2c0,0,0,0-.2.2,0,0,0,0-.2,0,0,0,0,0-.2,0-.2.2-.4.2-.6.2h-.5l-.5.2h-.4c0,0-.3,0-.4,0,0,0-.3,0-.4,0s-.3,0-.4.2l-.2.2s0,0,0,0h-.3l-1.2-.2ZM114.9,646.4h-.4c0-.2,0-.2,0-.3,0,0,0,0,0-.2s0-.2,0-.4,0-.4,0-.6h0c0,0,0-.2.2-.3s0-.2,0-.3c0-.2,0-.4,0-.5s0-.4,0-.5v-2s0,0,0,0h-.2s-.2,0-.2,0h-.2s-.2,0-.3,0-.2,0-.3.2h0c-.2,0-.4,0-.5,0-.2-.2-.4-.4-.5-.6v-.4c0-.3,0-.5,0-.8s0-.2.2-.3h2.5s0,0,0,0h0c0-.2,0-.4,0-.5v-.5c.2,0,.2,0,.2-.2v-.2c0,0,0-.2,0-.3,0-.2.2-.5.2-.7v-.4l.2-.7h-.4c0,0-.2,0-.4,0h-.2c0,0-.3.2-.4.2s-.3,0-.4.2h-.6s-.2,0-.3.2l-.2.2s0,0-.2.2c0,0,0,.2-.2.3s-.2.2-.3.2h-1s-.2,0-.2-.2h0c0-.2,0-.3-.2-.4h0v-.6c0-.2.2-.5.4-.6h0v-.2h.6c.3,0,.6,0,.9,0h.8c.2,0,.4-.2.6-.2s.4-.2.6-.2h.2c0,0,.3,0,.4-.2s.3,0,.4-.2h0c0,0,0,0,0,0v-.2q.2,0,.3,0c.2-.2.5-.3.9-.3s.3,0,.4.2c0,0,.2.2.3.3,0,0,0,.2,0,.3s0,.2,0,.3c0,.2,0,.3,0,.5v.3c0,0,0,.2,0,.3v.2q0,.1,0,.2v.2c0,0,0,0,0,.2s0,0,0,.2h0v.2h0v.5h0v.5h-.2c0,0,0,.3,0,.4h0v.7h0v.2c0,.1,0,0,0,0h.6s.2,0,.2.2h0s0,.2.2.3h0v.4s0,0,0,.2h0v.2h-.4s0,0-.2.2c0,0,0,0-.3,0h-.6c0,0,0,0,0,0h0v1h0v.3h0v.3h0v.5h0v.5h0v.6h0v.2h0s0,.2,0,.3v.9h0q0,.2,0,.3s0,0-.2,0h0s0,0-.2,0h-.2l-1.1-.2ZM133.6,974.3h-.4c0,0-.3,0-.4-.2h0s-.1,0-.2,0c0,0-.1,0-.2-.2l-.3-.3h0v-.2h0v-.2s0-.2.2-.2c0,0,.1,0,.1,0s0-.2.2-.3c0,0,.2,0,.3-.2.1,0,.3,0,.5,0h.8c0,0,.3,0,.5,0l.5-.2.6-.2c.2,0,.3,0,.4-.2.1,0,.2,0,.3,0l.3-.2s.2,0,.2-.2.1,0,.2-.2c0,0,.1-.2.2-.2,0,0,.1-.3,0-.4v-.4s0-.2-.1-.2,0-.2-.1-.3h0s-.1-.2-.2-.3-.1-.2-.2-.3c0,0-.1,0-.2-.2,0,0-.1,0-.2,0h-.6c-.2,0-.4,0-.5,0h-.5c-.2,0-.3-.2-.5-.2s-.2,0-.3,0h-.1s-.2,0-.4,0h-.5v-.8h0c0-.2,0,0,0,0v-.4c.2-.2.4-.4.5-.6.2-.2.4-.5.5-.7.2-.2.4-.4.5-.7,0,0,.2-.2.2-.3v-.2c.2,0,.2,0,.3-.2h0v-.6h-2c-.2,0-.4,0-.6.2s-.4,0-.6.2h-.9c-.1,0-.3,0-.4.2h-.6c-.1,0-.2,0-.3,0h-.1v-.4c0-.2,0-.4.1-.5,0,0,0,0,.1-.2s.1,0,.2-.2c.2-.2.4-.2.6-.3h5.9c0,0,.1.2.1.2h.1c.1,0,.2.2.3.2s.1.2.2.3c.1.2.2.4.1.6v.4c0,.1,0,.3-.1.4l-.3.6v.4l-.3.3c0,0-.2.3-.2.4s-.2.3-.3.4h0v.2h.6c.2,0,.3,0,.5,0,.2,0,.4,0,.6.2s.4.2.5.3c.3.2.6.5.8.8.1,0,.2.3.3.4s.2.3.3.5l.3.5c.2.4.3.8.3,1.2v.8c0,0,0,.3-.1.4s-.1.2-.2.4c0,0-.2.2-.2.3s-.1.2-.3.3h0s-.1,0-.2.2c0,0-.1,0-.2.2,0,0-.1,0-.2,0,0,0-.1,0-.2,0-.2.2-.4.2-.6.2h-.5l-.5.2h-.4c-.1,0-.3,0-.4,0-.1,0-.3,0-.4,0s-.3,0-.4.2l-.2.2s-.1,0-.1,0h-.3l-1.2-.2ZM144.1,974.1h-.9s-.2,0-.2,0c-.1,0-.3-.2-.4-.3-.1,0-.2-.2-.3-.4h0c0,0-.4-.7-.4-.7h0c0,0-.2-.6-.2-.6h0v-2.1c-.2-.2-.2-.4-.1-.6,0-.4.2-.8.4-1.1.1-.2.3-.4.5-.6h.1v-.2c.1-.2.3-.3.5-.5h.1c0-.2.1-.2.1-.3l.4-.4c.1,0,.2-.2.2-.3v-.2l-.2-.2s-.1-.2-.2-.2h-.1c0,0-.1,0-.1,0-.2-.2-.4-.4-.6-.5h0c0-.2-.2-.3-.3-.4,0,0-.1-.3-.2-.4h0v-.6c0-.2.1-.3.3-.5.1,0,.2-.2.3-.3s.2-.2.4-.2.3,0,.4-.2.3,0,.4-.2c.2,0,.5-.2.8-.3s.5-.2.8-.2h.3c.1,0,.2-.2.4-.2h1.5c.2.2.4.3.5.5s.2.3.3.4c.1.2.2.4.2.7h0c0,.2,0,.3.1.4h.2c.4.4.5.9.4,1.4,0,0,0,.2-.1.2,0,0-.1,0-.2.2-.1,0-.2,0-.3.2s-.2.2-.3.3c0,0-.1,0-.2.2,0,0-.1,0-.2.2,0,0-.1.2-.2.2s-.2,0-.3.2c0,0,0,0-.1.2v.2h0l.2.2c.3.2.5.4.7.7v.2c.3.2.3.3.4.6v.8h0v1.7h0l-.2.5c0,0,0,.2-.1.3h0c0,.2,0,.3-.1.4,0,0-.1.2-.2.2-.2.4-.5.7-.8,1.1,0,0-.1,0-.1.2s-.1,0-.2.2c0,0-.2.2-.3.2s-.3,0-.5.2-.3,0-.5,0h-1l-.8-.2ZM144.9,972c.1,0,.3,0,.4-.2h0c.1-.2.2-.3.4-.4.1,0,.2-.3.4-.4h0c0-.2.2-.3.2-.4s.1-.2.2-.4c0-.2,0-.3.1-.5s0-.3,0-.5v-.6c0-.2-.1-.3-.2-.5,0,0-.2-.3-.4-.3h0c-.1,0-.2-.2-.3-.2s-.2-.2-.3-.3h0c0,0-.1-.2-.3-.2h-.3s-.2,0-.2.2-.1,0-.2.2h-.2v.2h0c0,0-.1,0-.2.2h0v.2h0v.5h0v.4h0v.8h0v.3h0c0,0,.1.3.2.3,0,0,.2.2.3.3h.9l-.5,1.3ZM145.5,964.2h.2l.3-.2v-.4c-.1,0-.2-.2-.2-.2,0,0-.1,0-.2-.2,0,0-.1-.2-.2-.3,0,0-.1-.2-.2-.3h-1.2c.3.2.5.3.7.5,0,0,.1,0,.2.2s.1,0,.2.2c0,0,.1,0,.2.2h.1v.5ZM57.2,965.7h-.4c-.1,0-.3,0-.4-.2h0s0,0-.2,0c0,0,0,0-.2-.2l-.3-.3h0v-.2h0v-.2s0-.2.2-.2c0,0,0,0,0,0s0-.2.2-.3c0,0,.2,0,.3-.2,0,0,.3,0,.5,0h.8c0,0,.3,0,.5,0l.5-.2.6-.2c.2,0,.3,0,.4-.2,0,0,.2,0,.3,0l.3-.2s.2,0,.2-.2,0,0,.2-.2c0,0,0-.2.2-.2,0,0,0-.3,0-.4v-.4s0-.2,0-.2,0-.2,0-.3h0s0-.2-.2-.3,0-.2-.2-.3c0,0,0,0-.2-.2,0,0,0,0-.2,0h-.6c-.2,0-.4,0-.5,0h-.5c-.2,0-.3-.2-.5-.2s-.2,0-.3,0h0s-.2,0-.4,0h-.5v-.8h0c0-.2,0,0,0,0v-.4c.2-.2.4-.4.5-.6.2-.2.4-.5.5-.7.2-.2.4-.4.5-.7,0,0,.2-.2.2-.3v-.2c.2,0,.2,0,.3-.2h0v-.6h-2c-.2,0-.4,0-.6.2s-.4,0-.6.2h-.8q-.1,0,0,0c0,0-.3,0-.4.2h-.6c0,0-.2,0-.3,0h0v-.4c0-.2,0-.4,0-.5,0,0,0,0,0-.2s0,0,.2-.2c.2-.2.4-.2.6-.3h5.9c0,0,0,.2,0,.2h0c0,0,.2.2.3.2s0,.2.2.3c0,.2.2.4,0,.6v.4c0,.1,0,.3,0,.4l-.3.6v.4l-.3.3c0,0-.2.3-.2.4s-.2.3-.3.4h0v.2h.6c.2,0,.3,0,.5,0,.2,0,.4,0,.6.2s.4.2.5.3c.3.2.6.5.8.8,0,0,.2.3.3.4s.2.3.3.5l.3.5c.2.4.3.8.3,1.2v.8c0,0,0,.3,0,.4s0,.2-.2.4c0,0-.2.2-.2.3s0,.2-.3.3h0s0,0-.2.2c0,0,0,0-.2.2,0,0,0,0-.2,0,0,0,0,0-.2,0-.2.2-.4.2-.6.2h-.5l-.5.2h-.4c0,0-.3,0-.4,0,0,0-.3,0-.4,0s-.3,0-.4.2l-.2.2s0,0,0,0h-.3l-1.2-.2ZM71,965.5h-.3c0,0-.2,0-.2,0,0,0,0,0-.2-.2s0-.2,0-.2h0v-.8h0v-1.4h0v-1.5c0-.2,0-.5.2-.7v-.7c0,0,0-.3,0-.3v-.2h0v-1h0c0,0-.3.2-.4.2s-.3,0-.4.2c-.3,0-.6.2-.9.3s-.6,0-.9.2h-.8c-.3.2-.5.2-.8,0h0s0,0-.2,0,0,0-.2,0h0v-.5h0s0,0-.2,0c0,0,0,0-.2-.2,0,0,0-.2-.2-.2,0,0,0-.2-.2-.2h0v-.9l-.2-.5v-.7h0v-.5q0-.2,0-.4c0,0,0-.2.2-.3s0-.2.2-.3c0-.2.2-.3.3-.4s.2-.3.2-.4v-.2c.2,0,.2-.2.3-.2h0l.3-.2h2.3c.2,0,.4,0,.5.2.2,0,.5.2.7.3s.4.2.6.3h0v-.6s0-.2,0-.2h.3q0,0,0,0c.2,0,.4,0,.5,0h0c.2,0,.4.2.5.4h0v5.2h0v4.1h0v1.1h0v.7l-.2.6v.7c0,0-.2.2-.3.3,0,0,0,0,0,0h0c0,.2,0,0-.2,0h0l-.4-.7ZM67.8,957.2h2.1c.2,0,.3-.2.3-.5h0v-1c0-.1,0-.2,0-.4,0-.2,0-.3-.2-.4s-.2-.2-.4-.3h0c0,0-.3-.2-.5-.3-.2,0-.3,0-.5-.2h-1.2c-.2,0-.3,0-.4.3v.2q0,0,0,0h0s0,0-.2.2c0,0,0,0,0,.2s0,0,0,.2v.2h0v.4c0,0,0,.2.2.3v.3q0,0,.2.2h0c0,.2.2.3.3.4h0c0,0,0,0,.2.2h.4ZM48.3,713h-.3c0,0-.2,0-.3,0h0c0,0-.2,0-.2-.2h0c0-.3,0-.5,0-.8h0v-1.1h0v-1h0v-.6h0v-.2h0q0-.2,0-.2h-2.7c-.2,0-.4,0-.5.2h-.4s0,0,0,.2v.4s0,.2,0,.3c0,0,0,0-.3,0s-.2,0-.3,0c0,0,0,0,0-.2v-.6c0,0,0-.2-.2-.3v-.2c-.3-.3-.4-.5-.4-.8s0-.2,0-.2v-.2s0,0,0-.2v-.2c0-.2,0-.5,0-.7,0-.2,0-.5.2-.8s0-.5.2-.8v-.4c.2,0,.2-.3.2-.4,0-.2,0-.4.2-.6s0-.4.2-.6h0c0-.3,0-.4.2-.6s0-.3.2-.5h0v-.3h0c0,0,0-.2.2-.3s0,0,.2,0h1s.2,0,.3.2c.2.2.3.5.3.8s0,.5-.2.7c0,0,0,.2,0,.4s0,.3,0,.4v.3c0,0-.2.2-.2.3h0v.2h0s0,.2,0,.3v.8c0,0,0,.2-.2.4v.9c0,0,0,0,0,0h2.8v-5.3c0,0,0-.2.2-.4,0,0,0-.2.2-.2s0,0,.2-.2h.8v.3h0c0,.2,0,.3,0,.5h0v.2s0,0,0,.2h0v.6h0v.2h0v.4h0v.2h0v2.1h0v1.2h2.8q0,0,.2.2h0s0,.2,0,.2v.2h0v.4h0v.2h0s0,0-.2,0h0c0,.2,0,.2-.2.3h-2.5s0,.2,0,.2h0v.2q0,.1,0,0h0v.3h0v.3h0v.5h0s0,0,0,.2,0,.2,0,.2h0v.3h0v.8h-.2q0,0,0,.2h-.2l-.4,1.7ZM49.1,712.5h0ZM58.7,713.6h-.8c-.3,0-.6,0-.9-.2h-.2c0,0-.2,0-.3-.2s-.2,0-.3,0c0,0-.2,0-.3,0s-.2,0-.3,0h0c0,0-.2-.2-.3-.2s-.2,0-.3,0c0,0-.2,0-.3-.2s-.2-.2-.3-.2h0c0,0,0-.2-.2-.3s0-.2-.2-.3v-.3c0,0-.2,0-.2-.2v-2.2h0v-.6h0v-.2c0,0,0-.2,0-.3s0-.2,0-.3v-.2h0v-.2h.2v-.6c0-.2,0-.3.2-.5,0,0,0,0,0-.2h0c0-.2.2-.3.2-.5s0-.3.2-.5h0s0-.2.2-.2h0s0,0,0-.2h0c0-.3,0-.4,0-.4h0s0,0,.2-.2,0,0,0,0h0c0,0,0-.2.2-.3h0s0,0-.2-.2c0,0,0,0-.2-.2,0,0,0,0,0-.2s0,0,0-.2h0v-.4h0v-.2h0q0,0,0,0s0,0,0,0h.7c0,0,.2,0,.3,0,0,0,.2,0,.3,0h.4s0,0,0,0h0c0-.2.2-.3.4-.3h.9s0,0,0,0h.4c.1,0,.2,0,.2,0h0c0,0,0,.2,0,.2h0v.2c0,.2-.2.4-.4.5h-.3c0,0,0,.2.2.3s0,0,.2.2l.2.2s0,.2.2.2c0,0,0,.2,0,.2l.2.2.2.3s0,.2.2.3,0,.2.2.3c0,.2.2.3.3.5s.2.3.3.5c.2.3.3.7.5,1,0,.2.2.5.3.8s0,.5.2.8l.2.8v.6c0,.2,0,.4-.2.6,0,.2-.2.5-.3.7,0,.2,0,.3-.2.5s0,.3-.2.5c0,.2-.2.4-.4.6,0,0,0,0,0,.2s0,0,0,.2c0,0,0,0-.2.2s0,0-.2.2l-.2.2s-.2,0-.3.2-.2,0-.3.2c-.2,0-.4.2-.6.2s-.5,0-.8,0h-.5l1.1-.9ZM58.2,711.7h1.2c0,0,.3,0,.5-.2,0,0,0,0,.2,0,0,0,.2-.2.4-.3h0c0,0,0-.2,0-.3s0,0,0-.2l.2-.5c0-.2,0-.3.2-.5,0-.2,0-.4,0-.5h0v-.5c0-.2,0-.3,0-.5v-.5c0-.2-.2-.5-.3-.7,0-.2-.2-.4-.3-.7,0-.2-.2-.3-.3-.5s-.2-.3-.3-.5c0,0,0-.2,0-.2,0,0,0-.2-.2-.3s0-.2-.2-.3l-.5-.7c0,0,0-.2-.2-.3s0-.2-.2-.2h0l-.5.7c-.4.5-.7,1.1-1,1.8,0,.2-.2.4-.3.7s-.2.5-.3.7c0,.2-.2.5-.3.8s-.2.5-.2.8c0,.3-.2.7-.2,1h0v.7c0,.2.2.4.3.6l.4.3c0,0,.2.2.4.3s.3.2.4.2c.2,0,.3,0,.5.2s.4,0,.5,0h0v-.3Z"/>
  </g>
  <g id="palle">
    <circle class="cls-1" cx="67.6" cy="451.2" r="6"/>
    <circle class="cls-1" cx="92.6" cy="348.4" r="6"/>
    <circle class="cls-1" cx="174.5" cy="285.2" r="6"/>
    <circle class="cls-1" cx="298.9" cy="279.2" r="6"/>
    <circle class="cls-1" cx="287" cy="181.5" r="6"/>
    <circle class="cls-1" cx="186.4" cy="205.2" r="6"/>
    <circle class="cls-1" cx="55.7" cy="217.1" r="6"/>
    <circle class="cls-1" cx="19" cy="146.2" r="6"/>
    <circle class="cls-1" cx="80.7" cy="84" r="6"/>
    <circle class="cls-1" cx="368.6" cy="26.4" r="6"/>
    <circle class="cls-1" cx="459" cy="48.2" r="6"/>
    <circle class="cls-1" cx="362.7" cy="158.1" r="6"/>
    <circle class="cls-1" cx="380.6" cy="267.3" r="6"/>
    <circle class="cls-1" cx="512" cy="273.2" r="6"/>
    <circle class="cls-1" cx="609.1" cy="322.3" r="6"/>
    <circle class="cls-1" cx="627" cy="387.5" r="6"/>
    <circle class="cls-1" cx="603.1" cy="467.3" r="6"/>
    <circle class="cls-1" cx="561" cy="521.6" r="6"/>
    <circle class="cls-1" cx="632.9" cy="739.7" r="6"/>
    <circle class="cls-1" cx="677" cy="900.2" r="6"/>
    <circle class="cls-1" cx="651.5" cy="912.1" r="6"/>
    <circle class="cls-1" cx="597.2" cy="766.7" r="6"/>
    <circle class="cls-1" cx="523.9" cy="503.3" r="6"/>
    <circle class="cls-1" cx="392.5" cy="473.2" r="6"/>
    <circle class="cls-1" cx="398.4" cy="622.7" r="6"/>
    <circle class="cls-1" cx="422.5" cy="937.3" r="6"/>
    <circle class="cls-1" cx="386.5" cy="937.3" r="6"/>
    <circle class="cls-1" cx="346.8" cy="485.2" r="6"/>
    <circle class="cls-1" cx="275.1" cy="485.2" r="6"/>
    <circle class="cls-1" cx="198.3" cy="461.3" r="6"/>
    <circle class="cls-1" cx="204.3" cy="622.7" r="6"/>
    <circle class="cls-1" cx="216.2" cy="805.3" r="6"/>
    <circle class="cls-1" cx="222.2" cy="943.3" r="6"/>
    <circle class="cls-1" cx="174.5" cy="949.2" r="6"/>
    <circle class="cls-1" cx="156.6" cy="451.2" r="6"/>
    <circle class="cls-1" cx="122.8" cy="451.2" r="6"/>
    <circle class="cls-1" cx="128.8" cy="652.4" r="6"/>
    <circle class="cls-1" cx="144.7" cy="949.2" r="6"/>
    <circle class="cls-1" cx="86.7" cy="949.2" r="6"/>
    <circle class="cls-1" cx="74.8" cy="702.3" r="6"/>
  </g>
</svg>