<?xml version="1.0" encoding="UTF-8"?>
<svg id="Layer_1" data-name="Layer 1" xmlns="http://www.w3.org/2000/svg" version="1.1" viewBox="0 0 860.9 756.1">
  <defs>
    <style>
      .cls-1 {
        fill: #10069f;
        stroke-width: 0px;
      }
    </style>
  </defs>
  <g id="numeri">
    <path class="cls-1" d="M15.4,434c0,0-.2,0-.3,0,0,0-.2,0-.3,0,0,0,0,0-.1,0s0,0-.1,0c0,0-.2-.2-.2-.2,0-.1,0-.2-.1-.3s0-.2,0-.3v-.2c0,0,0-.2,0-.2,0-.2,0-.3,0-.5,0-.2,0-.3,0-.5,0,0,0-.1,0-.2h0c0-.2,0-.3,0-.4,0,0,0-.2,0-.3,0-.2,0-.4,0-.6v-.4c0-.1,0-.2-.1-.3s0-.2,0-.3v-.5s0-.5,0-.5c0,0,0-.2,0-.3v-.2c0,0,0-.2,0-.2,0,0,0-.1,0-.2v-.5c0,0,0-.2,0-.3,0,0,0,0,0-.1v-.5c0,0,0-.1,0-.2,0-.2,0-.3,0-.4,0-.1,0-.3,0-.4s0-.1,0-.2c0,0,0-.2,0-.3v-.2c.2,0,.2-.2.3-.2s.1-.1.2-.2c0,0,.2,0,.2,0h.2c0,0,.2,0,.2.1.2,0,.3.2.3.4v.2c.1,0,.2.1.2.2s0,.2,0,.2c0,.1,0,.2,0,.4,0,.2,0,.3,0,.5,0,0,0,0,0,.2,0,0,0,.1,0,.2s0,.2,0,.2c0,0,0,.2,0,.2,0,0,0,0,0,0h0c0,.1,0,.2,0,.2s0,0,0,.1c0,.1,0,.2,0,.3s0,.2,0,.3,0,0,0,0h0c0,0,0,.2,0,.2,0,0,0,.2,0,.2s0,.2,0,.2c0,.1,0,.3,0,.4s0,.3,0,.4c0,0,0,0,0,.1s0,0,0,.1c0,0,0,.1,0,.2s0,0,0,.1c0,0,0,.1,0,.2,0,0,0,.1,0,.2v.5c0,.1,0,.2,0,.4,0,.1,0,.2,0,.4s0,.2,0,.4c0,0,0,0,0,0h0c0,.2,0,.2,0,.3v.2c0,0,0,.2,0,.3s0,.2,0,.3c0,.2,0,.3,0,.4,0,0,0,0,0,.1,0,0,0,0,0,0,0,0,0,.1,0,.2-.1.2-.3.3-.6.5h-.1c0,0,0,0,0,0ZM87.5,418.3s0,0,0,0h-.3c0,0,0,0,0,0,0,0,0,0-.1,0,0,0,0,0-.1,0h-.2c-.1,0-.3,0-.4,0-.1,0-.3,0-.4-.1h-.1c-.2-.1-.3-.3-.4-.4,0,0,0,0,0-.2,0,0,0,0,0-.2,0,0,0,0,0-.1,0-.3.1-.5.3-.7,0,0,.2-.2.2-.2s.2-.2.3-.2.2-.1.3-.2.2-.1.3-.2c.2-.1.4-.3.6-.4s.4-.3.5-.4c.3-.2.6-.5.7-.9,0-.2.2-.5.3-.7,0-.2.2-.4.2-.6,0-.2.1-.4.2-.5s.1-.4.2-.5c0-.2.1-.3.1-.5s0-.3,0-.5c0-.2,0-.4,0-.6,0,0,0-.1-.2-.2,0,0-.1,0-.2,0,0,0-.1,0-.2,0,0,0-.1,0-.2,0,0,0,0,0,0,0s0,0,0,0c-.3.1-.6.3-.8.5,0,0,0,0-.1.1h-.1c0,.2-.2.3-.3.4,0,0-.1.1-.2.2s-.1.1-.2.2c-.1.1-.2.3-.3.5,0,.2-.2.4-.4.5-.1,0-.2.2-.3.3,0,.1-.2.2-.3.3-.1,0-.2,0-.3,0l-.2-.2c0,0-.1-.1-.2-.2,0,0-.1-.1-.2-.2,0,0,0,0,0,0s0,0,0,0c0,0,0-.1,0-.2s0-.1,0-.2c0,0,0,0,0-.1,0,0,0,0,0-.2v-.2h0c0-.2,0-.2,0-.2,0-.2.2-.4.4-.6.3-.3.7-.6,1-.8,0,0,0,0,.1,0s.1,0,.1,0c.1-.1.3-.2.4-.3s.3-.2.4-.3c.1,0,.2-.2.4-.3s.2-.2.4-.2c.1,0,.3-.2.4-.2.1,0,.3,0,.5-.1,0,0,0,0,.1,0h.1c.1,0,.3,0,.4,0,.1,0,.3,0,.4.1.2,0,.4.2.6.3,0,0,0,0,.1,0,.1.1.2.2.4.4s.2.3.2.5c0,0,0,.2.1.3,0,0,0,.2,0,.3v.2s0,0,0,.2c0,.4,0,.8-.2,1.2,0,0,0,.2,0,.2s0,.2,0,.3,0,.2,0,.3,0,.2-.1.3c0,.2-.1.3-.2.4s-.1.3-.2.4c0,.1-.1.3-.1.4v.4c-.2.2-.2.3-.3.5s-.1.3-.2.5c-.2.3-.4.6-.6.8,0,0-.1,0-.1.1v.2c-.1,0-.1,0-.1,0,0,0,0,0,0,0h.3s.2,0,.2,0h.9c0-.1,0-.1,0-.1.1,0,.3,0,.4,0,.1,0,.3,0,.4,0h.1c.2,0,.3,0,.5,0h.7c0,0,.2,0,.2,0,0,0,.1,0,.2,0,0,0,.1,0,.2,0,0,0,.1,0,.2,0,.3,0,.6,0,.9.3.1.2.2.3.3.5h0c0,.4,0,.6-.1.8,0,0-.1.1-.1.2,0,0,0,0-.1,0s-.1,0-.2,0-.1,0-.2,0c0,0,0,0,0,0s0,0,0,0c-.1,0-.2,0-.4,0-.1,0-.2,0-.3,0-.2,0-.4-.1-.6-.1h-.2c0,0-.1,0-.2,0h-.1s-.6,0-.6,0c0,0-.1,0-.2,0,0,0-.2,0-.2,0s-.2,0-.2,0c0,0,0,0-.1,0,0,0,0,0-.1,0h0s0,0-.1,0c-.1,0-.2,0-.2,0,0,0-.1,0-.3,0h-.2c0,0-.1,0-.2,0,0,0-.1,0-.2,0,0,0-.1,0-.1,0s0,0-.1,0c-.1,0-.3,0-.4,0,0,0,0,0-.1,0s0,0-.1,0c0,0,0,0,0,0,0,0,0,0,0,0,0,0,0,0-.1,0,0,0,0,0,0,0s0,0,0,0h-.2c0,0-.1,0-.2,0,0,0-.1,0-.2,0h0ZM207.4,239.3c-.1,0-.3,0-.4,0s-.3,0-.4-.2c0,0,0,0,0,0,0,0,0,0,0,0,0,0-.1,0-.2-.1s-.1-.1-.2-.1l-.3-.3h0c0-.1,0-.2,0-.2,0,0,0,0,0-.1s0,0,0-.1c0,0,0-.1.2-.2,0,0,.1,0,.1-.1,0-.1,0-.2.2-.3,0,0,.2-.1.3-.2.1,0,.3-.1.5-.1h.1s0,0,.1,0h.1s0,0,.1,0c.1,0,.3,0,.4,0s.3,0,.5-.1h.5c0-.1.6-.4.6-.4.2,0,.3-.1.4-.2.1,0,.2,0,.3-.1h.3c0-.2.2-.2.2-.3s.1-.1.2-.2c0,0,.1-.2.2-.2,0-.1.1-.3,0-.4,0,0,0-.2,0-.2,0,0,0-.2,0-.2,0,0,0-.2-.1-.2s0-.2-.1-.3c0,0,0,0,0-.1,0,0-.1-.2-.2-.3s-.1-.2-.2-.3c0,0-.1-.1-.2-.2,0,0-.1,0-.2-.1,0,0-.1,0-.1,0s-.1,0-.1,0c0,0-.1,0-.2,0,0,0-.1,0-.2,0-.2,0-.4,0-.5-.1h-.5c-.2-.1-.3-.2-.5-.2-.2,0-.2-.1-.3-.1h-.1s-.2,0-.4-.1c0,0-.1,0-.2,0s-.1,0-.3,0c0,0,0,0,0-.1s0,0,0-.1c0,0,0-.1,0-.2,0,0,0-.1,0-.2,0,0,0-.1,0-.2,0,0,0,0,0,0,0,0,0,0,0-.1s0,0,0,0c0,0,0-.1,0-.2h0c.1-.4.3-.5.5-.7.2-.2.4-.5.5-.7.2-.2.4-.4.5-.6,0-.1.2-.2.2-.3v-.2c.2,0,.2-.1.3-.2,0,0,0,0,0-.1,0,0,0,0,0-.1,0,0,0-.1,0-.2,0,0,0-.1,0-.2,0,0,0,0,0,0h0s0,0,0,0c-.1,0-.2,0-.4,0s-.2,0-.4,0h-.2s-.1,0-.1,0,0,0-.1,0c-.1,0-.3,0-.4,0s-.3,0-.4,0h0c-.2,0-.4.1-.6.2-.2,0-.4.1-.6.2,0,0-.2,0-.3.1,0,0-.2,0-.3,0,0,0-.1,0-.2,0s-.1,0-.1,0c-.1,0-.3.1-.4.2,0,0,0,0,0,0-.1,0-.2,0-.3,0s-.2,0-.3,0c-.1,0-.2,0-.3-.1,0,0,0,0-.1,0,0,0,0,0,0,0,0,0,0,0,0,0,0,0,0,0,0-.1s0-.1,0-.1c0,0,0-.1,0-.2,0-.2,0-.4.1-.5,0,0,0-.1.1-.2,0,0,.1-.1.2-.2.2-.1.4-.2.6-.3h.5c.1,0,.2,0,.3,0,0,0,.2,0,.3,0,.2,0,.3,0,.5,0s.3,0,.5,0c.2,0,.3,0,.5,0s.3,0,.5,0c.1,0,.2,0,.4,0h.5c.1,0,.2,0,.3-.1,0,0,.1,0,.2,0,0,0,.2,0,.2,0s.2,0,.2,0c.1,0,.2,0,.3,0s.2,0,.3,0h.4c0,.1.1.2.1.2s0,0,.1,0c.1,0,.2.2.3.2s.1.2.2.3c.1.2.2.4.1.6,0,.1,0,.3,0,.4s0,.3-.1.4l-.3.6s0,.1,0,.2v.2c0,0-.3.3-.3.3,0,.1-.2.3-.2.4s-.2.3-.3.4h0c0,0,0,.1,0,.2,0,0,.1,0,.1,0,.2,0,.3,0,.5.1.2,0,.3.1.5.1.2,0,.4.1.6.2s.4.2.5.3c.3.2.6.5.8.8.1.1.2.3.3.4s.2.3.3.5l.3.5c.2.4.3.8.3,1.2,0,.1,0,.2,0,.4s0,.2,0,.3c0,0,0,.1,0,.2,0,.1,0,.3-.1.4s-.1.2-.2.4c0,0-.2.2-.2.3,0,.1-.1.2-.3.3,0,0,0,0,0,0,0,0-.1.1-.2.1,0,0-.1.1-.2.1,0,0-.1,0-.2.1s-.1,0-.2.1c-.2.1-.4.2-.6.2-.2,0-.4,0-.5,0l-.5.2s-.1,0-.2,0c0,0-.1,0-.2,0-.1,0-.3.1-.4.1s-.3,0-.4.1-.3.1-.4.2l-.2.2s-.1,0-.1.1c0,0-.2,0-.3,0h0ZM371.8,96.8h-.3c-.1,0-.2,0-.3-.1,0,0,0,0-.1,0-.1,0-.2-.1-.2-.2h0c-.1-.3-.1-.5-.1-.8h0c0-.1,0-.2,0-.2v-.3s0-.4,0-.4c0,0,0-.1,0-.1,0,0,0,0,0-.1v-.5c0-.1,0-.3,0-.4,0,0,0,0,0-.1v-.4c0,0,0-.2,0-.2,0,0,0,0,0-.1s0,0,0-.1h0c0-.2,0-.2-.1-.2h-.2c0,0-.1,0-.2,0h-.2c0,0-.2,0-.2,0h-.4c-.1,0-.2,0-.4,0h-.1c-.1,0-.2,0-.4,0-.1,0-.2,0-.4,0,0,0-.1,0-.2,0-.2,0-.4,0-.5.2,0,0-.1,0-.2.1s-.1,0-.2.1c0,0-.1.1-.1.2,0,0,0,.1,0,.2s0,.1,0,.2,0,.2-.1.3c0,0-.1.1-.3.1s-.2,0-.3-.1c0,0,0-.1-.1-.2,0-.1,0-.2,0-.3v-.3c-.1,0-.1-.2-.2-.3v-.2c-.3-.3-.4-.6-.4-.8s0-.2,0-.2v-.2c0,0,.1-.1.1-.2,0,0,0-.1,0-.2,0-.2,0-.5.1-.7,0-.2.1-.5.2-.8s.1-.5.2-.8v-.4c.2-.1.2-.3.2-.4,0-.2.1-.4.2-.6s.1-.4.2-.6c0,0,0,0,0-.1,0-.2.1-.3.2-.5s.1-.3.2-.5h0c0-.2,0-.2,0-.3s0,0,0-.1c0,0,.1-.1.2-.2s.1,0,.2-.1c0,0,.2,0,.3,0s.2,0,.3,0c0,0,.2,0,.2,0s.1,0,.2.1c0,0,.2.1.3.2.2.2.3.5.3.8,0,.2,0,.5-.2.7,0,.1-.1.2-.1.4s0,.3-.1.4v.3c-.1.1-.2.2-.2.3,0,0,0,0,0,.1s0,0,0,.1c0,0,0,0,0,0,0,0,0,0,0,0,0,0-.1.2-.1.3,0,0,0,.1,0,.2s0,.1,0,.2c0,0,0,.1,0,.2,0,0,0,.1,0,.2,0,.1-.1.2-.2.4,0,0,0,.2,0,.2s0,.1,0,.2v.5c-.1,0,0,0,0,0h.3c0,0,.1,0,.2,0h.2c0,0,.2,0,.3,0,.1,0,.2,0,.3,0s.2,0,.3,0c0,0,0,0,.1,0h.4c0,0,.2,0,.3,0h.1s0,0,.1,0h.2s0,0,0,0v-1.5s0,0,0,0c0,0,0-.1,0-.2v-.2c0,0,0-.1,0-.2v-.2c0-.2,0-.5,0-.7,0-.2,0-.5,0-.7,0-.2,0-.4,0-.5,0-.2,0-.4,0-.5,0-.1,0-.2,0-.3,0-.1,0-.2,0-.3,0-.1,0-.2.2-.4,0,0,0-.2.2-.2s.1-.1.2-.2h.1s0,0,0,0c0,0,0,0,0,0,0,0,.2,0,.3,0h.4c0,0,0,.1,0,.1h0c0,.1,0,.2,0,.2,0,0,0,0,0,.1,0,.1.1.2.1.4h0c0,.1,0,.2,0,.2,0,0,.1.1,0,.2h0c0,.1,0,.2,0,.3s0,.2,0,.3c0,0,0,0,0,0h0s0,0,0,0h0c0,.1,0,.2,0,.2,0,0,0,0,0,0,0,0,0,0,0,0v.2c0,0,0,.1,0,.2,0,0,0,0,0,0h0c0,.1,0,.2,0,.2,0,0,0,0,0,.1v1.5c0,0,0,.1,0,.2,0,0,0,.1,0,.2,0,0,0,.1,0,.2h0c0,.1,0,.2,0,.2,0,0,0,.1,0,.2,0,0,0,.1,0,.2,0,0,0,.2,0,.2v.4c0,0,0,0,0,.1,0,0,0,0,0,0s0,0,0,0h.5c0,0,.2,0,.3,0h.6c.2,0,.4,0,.6,0h.4c0,0,.1,0,.1,0,0,0,.2,0,.3.1s.1.1.2.2c0,0,0,0,0,0,0,0,0,.1.1.2s0,.1,0,.2h0c0,.2,0,.3,0,.4h0c0,.1,0,.2,0,.2,0,0,0,0,0,0s0,0,0,0c0,0,0,0,0,0s0,0,0,0c0,0-.1,0-.2.1,0,0,0,0,0,0s0,0,0,0c0,0,0,0,0,0,0,0,0,0-.1,0h0c0,.2-.1.2-.2.3,0,0-.2,0-.3,0h-.3c-.1,0-.3,0-.5,0h-.5c0,0-.2,0-.2,0s-.1,0-.2,0c0,0,0,0-.1,0,0,0,0,0-.1,0,0,0,0,0-.1,0h-.1s0,0-.1.1h0c0,.1,0,.2-.1.2h0s0,.1,0,.2,0,.1,0,.1c0,0,0,0,0,.1,0,0,0,0,0,0s0,0,0,0c0,0,0,0,0,0,0,0,0,0,0,0,0,0,0,.1,0,.2h0c0,.2,0,.2,0,.3h0s0,.1,0,.1c0,0,0,0,0,0s0,0,0,0v.4s0,0,0,0c0,0,0,0,0,0,0,0,0,.1.1.2s0,.1,0,.2,0,0,0,0h0s0,0,0,0c0,0,0,0,0,0s0,0,0,0c0,.1,0,.2,0,.3,0,0,0,0,0,0,0,0,0,0,0,0,0,0,0,0,0,0,0,0,0,0,0,.1,0,.1,0,.2,0,.3,0,.1,0,.2,0,.3s0,0,0,0h0c0,.1,0,.1,0,.2,0,0,0,0-.1,0,0,0,0,0,0,0h0c0,0,0,0-.1.1,0,0,0,0,0,0s0,0,0,0c0,0,0,0-.1.1h-.1s0,0,0,0,0,0,0,0h0s0,0,0,0c0,0-.1,0-.1,0h0ZM372.6,96.2s0,0,0,0c0,0,0,0,0,0h0ZM497.9,44s0,0,0,0c0,0,0,0,0,0,0,0,0,0,0,0,0,0-.2,0-.2-.1,0,0-.1-.1-.2-.2,0,0,0,0,0,0,0,0-.1-.1-.2-.2,0,0,0-.2,0-.3v-.3c0-.2,0-.3.2-.4.2-.2.4-.3.7-.3,0,0,.1,0,.2,0,0,0,.1,0,.2,0,0,0,.2,0,.2,0s.2,0,.2,0c.2,0,.4-.1.6-.2s.4-.1.6-.2c.3-.1.6-.3,1-.4.3-.1.6-.3.9-.5.1,0,.3-.1.4-.2.1,0,.2-.1.3-.2.3-.2.5-.4.7-.7.1-.2.2-.4.1-.7,0,0,0-.1,0-.2,0,0,0-.1,0-.2,0-.1-.1-.2-.2-.3s-.1-.2-.2-.3c0,0,0-.1-.1-.2s0-.1-.1-.2c0,0,0-.1-.2-.2h-.2c0-.1,0-.2-.1-.2,0,0,0,0-.1,0-.1,0-.2,0-.3,0-.1,0-.2,0-.4,0h-.4c-.1,0-.3,0-.4,0h-.1c-.2,0-.3,0-.4,0-.1,0-.3,0-.4,0-.1,0-.2,0-.4,0s-.2,0-.4,0c0,0-.1,0-.2,0s-.1,0-.2.1h0s0,0,0,0c0,0,0,0,0,0,0,0-.2,0-.2.2,0,0,0,0,0,0,0,0-.1,0-.2.1,0,0-.1,0-.2.1,0,0,0,0,0,0,0,0,0,0,0,0,0,0,0,0,0,0,0,0,0,0,0-.1h0s0,0,0,0c0,0,0,0-.1,0s0,0-.1,0c-.2.1-.3.3-.4.5v.2c0,.1-.2.2-.3.2s-.2,0-.3,0c0,0-.1-.1-.1-.2,0,0,0-.1,0-.2,0,0,0-.1,0-.2,0-.1,0-.3,0-.4,0-.2-.1-.3-.1-.5s0-.4,0-.5c0,0,0-.1,0-.2,0,0,0-.1,0-.2,0,0,0-.1,0-.2v-.2c0,0,0-.1,0-.2v-.2c0-.7,0-1.4,0-2.1h0c0-.3,0-.5,0-.7v-.3c0-.1,0-.2,0-.3,0-.1,0-.2,0-.4,0-.1,0-.2,0-.4,0,0,0-.2,0-.3v-.4c0,0,0-.1,0-.2,0,0,0,0,0-.1.2-.2.3-.3.5-.4.2,0,.4,0,.6,0,.2,0,.3,0,.5,0,0,0,.2,0,.3,0s.2,0,.3,0h1.2c0,0,0,0,.2,0h.2c.2,0,.3,0,.4,0s.3,0,.4,0c0,0,.1,0,.2,0h.2c.1,0,.3,0,.4,0h.4c.2,0,.4,0,.5,0s.3,0,.5,0c0,0,0,0,.2,0,0,0,0,0,.1,0h.1c0,0,0,0,0,.1s0,0,0,0c0,0,0,.1.1.2,0,0,0,.1.1.2,0,0,0,0,0,0h0c0,.1,0,.1,0,.1v.2h0c0,0,0,.2,0,.2,0,0,0,0,0,.1,0,0,0,.1-.1.2,0,0-.1.2-.3.3,0,0-.1.1-.2.1,0,0-.1.1-.2.1-.1,0-.2,0-.3,0h-.2s-.2,0-.2,0c-.1,0-.2,0-.4,0s-.2,0-.4,0c-.1,0-.3,0-.4,0h-.4c-.1,0-.3,0-.4,0h-.2c0,0-.1,0-.2,0,0,0,0,0,0,0,0,0,0,0,0,0,0,0-.1,0-.1,0,0,0,0,0,0,0h0s0,0,0,0,0,0,0,0h-.5c0,0-.2,0-.2,0s-.2,0-.2,0c0,0-.2,0-.3,0,0,0,0,0,0,0,0,0,0,0,0,.1,0,0,0,0,0,.1,0,.2,0,.4,0,.6s0,.4,0,.6,0,.3,0,.4v.4s0,1.2,0,1.2c0,0,0,0,0,.1,0,0,0,0,0,0,0,0,0,0,0,0h0c.2,0,.3,0,.5-.1.2,0,.3,0,.5-.1,0,0,.2,0,.3,0s.2,0,.3,0c.1,0,.2,0,.3,0h.3s.2,0,.2,0c0,0,.2,0,.2,0,.3,0,.6,0,1,0,.1,0,.3,0,.4,0s.2,0,.4,0c.2,0,.5.2.7.3l.5.4c.1,0,.2.1.3.2.1.1.3.3.4.4s.2.3.3.4c0,0,0,.1,0,.2.2.3.4.6.4,1,0,.2,0,.4,0,.6,0,.1,0,.3,0,.4,0,.1,0,.3,0,.4v.4c-.2.3-.4.5-.6.8,0,0-.1.1-.2.2,0,0-.1.1-.2.2,0,0,0,0-.2.1,0,0-.2,0-.2.2,0,0-.1.1-.2.2s-.2.1-.3.1h0c0,0,0,.1,0,.1,0,0-.2,0-.2.1s-.2.1-.2.1h-.2c-.1.2-.2.2-.3.3s-.2.1-.3.2l-.9.4s0,0,0,0,0,0,0,0c0,0-.1,0-.2,0s-.1,0-.2,0c0,0,0,0-.1,0s0,0-.1,0c-.2,0-.3.1-.5.2-.2,0-.3.1-.5.2h0s0,0-.1,0,0,0-.1,0-.1,0-.2,0c0,0,0,0-.2,0s0,0-.2,0h0ZM648.3,14.7c-.2,0-.4,0-.6-.2-.2,0-.4-.1-.6-.2,0,0-.2-.1-.3-.2s-.2-.1-.3-.2l-.6-.4s0,0-.1,0c0,0,0,0-.1,0h-.1c0-.1,0-.2,0-.2,0,0,0,0-.1,0,0,0-.1,0-.2,0s-.1,0-.2,0c-.1,0-.3-.1-.4-.2s-.2-.2-.4-.2c-.5-.4-.9-.8-1.2-1.2,0,0,0,0,0-.1l-.2-.4c0-.1-.2-.2-.2-.4l-.3-.6c0-.2-.2-.3-.2-.5s-.1-.3-.2-.5c0,0,0,0,0-.1,0,0,0,0,0-.1,0-.1,0-.2-.1-.4,0,0,0,0,0-.1,0,0,0,0,0-.1,0,0,0,0,0,0,0,0,0,0,0,0,0,0,0,0,0,0s0,0,0,0,0,0,0,0c0,0,0,0,0,0h0s0,0,0,0c0,0,0,0,0-.1h0c0,0,0-.1,0-.1,0-.1,0-.3,0-.4,0-.1,0-.3,0-.4,0,0,0-.2,0-.2,0,0,0-.2,0-.3,0,0,0,0,0-.1h0c0-.1,0-.1,0-.2,0-.1,0-.2,0-.3,0,0,0-.1,0-.2,0,0,0-.2,0-.2,0,0,0,0,0,0,.1-.2.2-.3.2-.5s0,0,0-.2c0,0,0,0,0-.2,0,0,0,0,0-.2,0-.1,0-.2.1-.2,0,0,0,0,0,0h0c0-.2,0-.4,0-.5,0-.1,0-.3.1-.4,0-.2.2-.3.3-.4l.2-.2c.1,0,.2-.2.2-.3,0,0,0,0,0-.1,0,0,0,0,.1-.1s0,0,0-.1c0-.1.1-.2.3-.3.1,0,.2,0,.3-.2.1,0,.2-.1.3-.2h.2c.1-.1.2-.2.4-.3s.2-.1.4-.2c0,0,0,0,.1,0s0,0,.2,0c0,0,0,0,.2,0s0,0,.2,0c0,0,.1,0,.2,0,0,0,.1,0,.2,0h.2c0,0,.1,0,.2,0,.1,0,.2,0,.3,0,0,0,.1,0,.2,0,0,0,.1,0,.2.1.1,0,.2.1.3.3.2.3.2.6,0,.8,0,0,0,0,0,0-.1,0-.2.1-.3.2s-.2.1-.3.2h-.1c-.2.1-.3.2-.5.3,0,0-.1,0-.2.1s-.1,0-.2.1c-.2.1-.4.3-.6.5-.4.4-.8.9-1,1.4,0,.1-.1.3-.2.4s-.1.2-.2.4h0c0,.2,0,.4-.2.5s0,.3-.1.5v.2c0,.2-.1.4-.1.7s0,.4,0,.7v.4c0,.2.1.4.2.6s0,.4.2.5c0,0,0,0,0,.2s0,0,0,.1c0,0,.1.2.2.3s.1.2.2.3c0,0,0,0,0,0h0s0-.4,0-.4c0-.1,0-.2,0-.3,0-.1,0-.2,0-.3,0,0,0,0,0-.1s0,0,0-.1l.2-.4c0-.1.1-.2.2-.3,0-.1.1-.2.2-.3s.2-.2.2-.3l.4-.4c0,0,.2-.2.3-.2s.2-.1.3-.2l.4-.2c.1,0,.2,0,.4-.1s.3-.1.4-.2c0,0,.2-.2.3-.2,0,0,0,0,.1,0s0,0,0,0c.1,0,.2,0,.3,0,.1,0,.2,0,.3,0,0,0,.2,0,.3,0s.2,0,.3,0c.2,0,.5.2.7.4l.4.4s0,0,0,0c0,0,0,.1.1.2s0,.1.1.2h0c0,.2.1.2.2.3s0,.2.1.2c0,0,0,0,0,0,0,0,0,.1,0,.2s0,.1,0,.2c0,.1,0,.2.1.3,0,0,0,.2,0,.3,0,0,0,.1,0,.2,0,0,0,0,0,.1v1.6c0,.2,0,.3.1.4,0,0,0,0,0,0,0,0,.1.1.1.2,0,0,0,.2,0,.3,0,.1,0,.3,0,.4,0,.1,0,.2-.2.4,0,.2-.2.3-.4.5,0,0-.2.2-.2.3s-.2.2-.2.3l-.6.7c-.1.2-.2.3-.3.5,0,0,0,0,0,.1h0s0,0,0,0c0,0,0,.1-.1.2s-.1,0-.2,0c0,0-.2,0-.3,0s-.2,0-.3,0c-.2,0-.4,0-.6,0h0ZM648.4,12.9c0,0,.2,0,.2,0,0,0,0,0,.1-.1h.1c.2-.3.3-.4.5-.6.2-.2.3-.3.5-.5,0,0,0,0,0-.1,0,0,0-.1,0-.2,0,0,0,0,0-.1s0,0,0,0c0-.2,0-.4,0-.5s0-.3,0-.5v-.5c.1,0,.1,0,.1,0v-.4c0-.1,0-.2,0-.3,0,0,0-.2-.1-.3,0-.1-.1-.3-.2-.4l-.2-.4s0,0,0,0c0,0,0,0,0,0s0,0,0,0h-.2c0,0-.1,0-.2,0h-.2c-.1.2-.3.2-.4.2-.1,0-.3,0-.4,0s-.2,0-.4.2c0,0,0,0,0,0s0,0,0,0c-.2,0-.3.1-.4.2s-.3.2-.4.3c0,0-.1.1-.2.2s0,.2-.1.2c0,.1,0,.2-.1.4,0,.1,0,.2,0,.3v.2c0,0,0,.1,0,.2v.2c.1.3.3.6.4.9,0,0,0,.1.1.2s0,.1.1.2c0,0,0,0,0,0,0,0,0,0,0,0,0,0,0,0,0,.2s0,0,.1.2c.1.1.2.2.4.4.2.2.5.3.8.4h0ZM760.3,34.9c0,0-.2,0-.2,0,0,0,0,0-.1,0,0,0,0,0,0,0h-.2c0-.2,0-.2-.2-.3,0,0-.1,0-.1-.2,0-.1,0-.2-.1-.4,0-.2,0-.4,0-.6,0,0,0,0,0,0,0-.1.1-.2.2-.3s0-.2,0-.3c0-.2,0-.4.2-.6,0-.2,0-.4.1-.5,0-.1,0-.3,0-.4s0-.3,0-.4c0-.1,0-.2,0-.4s0-.2,0-.4c0,0,0-.1,0-.2v-.3c0,0,0-.1-.1-.1h-.2c0,0-.2,0-.2.1s-.2,0-.2,0c0,0-.2,0-.3.1s-.2.1-.3.2c0,0,0,0-.1,0-.2.1-.4.1-.5,0-.2-.2-.4-.4-.5-.6,0,0,0-.1,0-.1,0,0,0-.1,0-.1-.1-.3,0-.5,0-.8,0-.1.2-.2.2-.3,0,0,0,0,0,0,0,0,0,0,0,0,0,0,0,0,0,0,0,0,.1-.1.2-.1.1,0,.2,0,.4,0s.2,0,.4,0h.1c.1,0,.3,0,.4,0s.3,0,.4,0h.2c0,0,.1,0,.2,0,0,0,.2,0,.2,0,0,0,.1,0,.1-.1,0,0,0,0,0-.1,0-.2,0-.4.1-.5l.2-.5c0,0,0-.1,0-.2,0,0,0-.1,0-.2,0-.1,0-.2,0-.3.1-.2.2-.5.2-.7,0,0,0-.1,0-.2s0-.1,0-.2l.2-.7s0,0,0,0,0,0,0,0c0,0,0,0,0,0-.1,0-.3,0-.4.1s-.2,0-.4.1h-.2c-.1,0-.3.1-.4.2s-.3.1-.4.2c0,0-.1,0-.2,0s-.1,0-.2,0c0,0,0,0-.1,0s0,0,0,0c0,0-.2.1-.3.2l-.2.2c0,0-.1.1-.2.2,0,0-.1.2-.2.3-.1.1-.2.2-.3.2-.1,0-.3,0-.4.1s-.3,0-.4,0c0,0,0,0-.1,0s0,0-.1,0c0,0-.2,0-.2-.2,0,0,0-.1-.1-.1,0-.1-.1-.2-.2-.3,0,0,0,0,0,0s0,0,0,0c0,0,0-.2,0-.3,0,0,0-.2,0-.3,0-.2.2-.4.4-.6h.1c0,0,.2-.2.2-.2,0,0,0,0,.2,0,.1,0,.2,0,.4,0,.3,0,.6,0,.9-.1,0,0,.1,0,.2,0s.1,0,.2,0,.1,0,.2,0c0,0,.1,0,.2,0,.2,0,.4-.2.6-.2s.4-.2.6-.2c0,0,0,0,.1,0,0,0,0,0,0-.1,0,0,0,0,0-.1.1,0,.3-.1.4-.2.1,0,.3-.1.4-.2,0,0,0,0,0,0s0,0,0,0c0,0,0,0,.1,0s0,0,0,0h.1c0-.2,0-.2.1-.3.2-.2.5-.3.9-.3.2,0,.3,0,.4.2.1,0,.2.2.3.3,0,0,0,.2.1.3,0,0,0,.2.1.3,0,.1.1.3,0,.5,0,.1,0,.2,0,.3s0,.2,0,.3c0,0,0,.1,0,.2s0,.1-.1.2c0,0,0,0,0,.2,0,0,0,.1,0,.2,0,0,0,.1-.1.2,0,0,0,0,0,.1,0,0,0,.1,0,.2,0,0,0,0,0,.1,0,0,0,0,0,0,0,0,0,0,0,0s0,0,0,0c0,0,0,.1,0,.1h0c0,.2,0,.2,0,.3,0,0,0,.1,0,.2,0,0,0,.1,0,.1s0,0-.2.1h0c0,0-.1.2,0,.3,0,0,0,.1,0,.1s0,0,0,.1c0,0,0,.1,0,.2,0,0,0,.1,0,.2h0c0,0,0,.1,0,.2,0,0,0,0,0,.1,0,0,0,0,0,.1,0,0,0,0,0,0,0,0,0,0,0,0,0,0,0,0,0,0s0,0,.1,0c0,0,0,0,0,0,0,0,0,0,0,0,0,0,.2,0,.2,0s.2,0,.2,0c0,0,.2,0,.2.2,0,0,0,0,0,.1,0,0,.2.2.2.3,0,0,0,0,0,.1s0,0,0,.1c0,0,0,.1,0,.2,0,0,0,.1,0,.2,0,0,0,0,0,0,0,0,0,0,0,0,0,0,0,0,0,0h0c0,.1,0,.2,0,.2,0,0,0,0,0,0,0,0-.2.1-.3,0,0,0,0,0-.1,0,0,0-.1.1-.2.2,0,0-.1.1-.3.1,0,0,0,0-.2,0,0,0,0,0-.2,0-.1,0-.3,0-.4,0s0,0,0,0c0,0,0,0,0,0v.2c0,0,0,.1,0,.2,0,0,0,.1,0,.2v.2c0,0,0,.1,0,.2h0c0,.1,0,.2,0,.3h0v.3s0,0,0,0c0,0,0,0,0,.1h0c0,.2,0,.2,0,.3,0,0,0,.1,0,.2,0,0,0,0,0,.1h0c0,0-.1.5-.1.5,0,0,0,0,0,.1,0,0,0,.2,0,.3s0,.2,0,.3h0c0,.1,0,.2,0,.2,0,0,0,0,0,0,0,0,0,.2,0,.3,0,0,0,.2,0,.3,0,0,0,.1,0,.2,0,0,0,.1,0,.2,0,0,0,.1,0,.2h0c0,.2,0,.2-.1.3s-.1,0-.2.1c0,0,0,0,0,0,0,0,0,0,0,0,0,0-.1,0-.2.1,0,0-.1,0-.2,0h0ZM833.4,103.4h0s-.2,0-.2,0c0,0-.2,0-.3,0,0,0-.2,0-.2-.1,0,0-.1,0-.2-.1,0,0-.2,0-.2-.1-.1-.1-.3-.2-.4-.3s-.2-.2-.3-.4c0,0,0,0,0,0s0,0,0-.1l-.4-.6s0,0,0-.1l-.2-.5s0,0,0-.1c0-.1,0-.3,0-.4s0-.3,0-.4v-1.2c-.2-.2-.2-.4-.1-.6,0-.4.2-.8.4-1.1.1-.2.3-.4.5-.6,0,0,0,0,0-.1,0,0,0,0,0-.1.1-.2.3-.4.5-.5h.2c0-.2,0-.2.2-.3l.4-.4c.1,0,.2-.2.2-.3,0,0,0-.1,0-.2,0,0-.2-.2-.2-.2s-.2-.1-.2-.2c0,0,0,0-.1-.1h-.2c-.2-.2-.4-.4-.6-.5h0c0-.2-.2-.3-.3-.4,0-.1-.1-.3-.2-.4,0,0,0,0,0,0s0,0,0,0c0-.2,0-.4,0-.6s.2-.4.3-.5c.1-.1.2-.2.3-.3s.2-.2.3-.2c.1,0,.3-.1.4-.2s.3-.1.4-.2c.2,0,.5-.2.8-.3.2-.1.5-.2.8-.2h.3c.1-.1.2-.1.3-.2.1,0,.3,0,.4,0,.1,0,.3,0,.4,0,.1,0,.3,0,.4,0h.3c.2.2.4.3.5.5.1.2.2.3.3.4.1.2.2.4.2.7h0c0,.2,0,.3,0,.4h.2c.4.4.5.9.4,1.4,0,0,0,.2-.1.2s-.1.1-.2.2c-.1,0-.2.1-.3.2s-.2.2-.3.3c0,0-.1.1-.2.2s-.1.1-.2.2c0,0-.1.2-.2.2s-.2.1-.3.2c0,0,0,.1,0,.2,0,0,0,.1,0,.2,0,0,0,0,0,0,0,0,0,0,0,0,0,0,0,0,0,.1,0,0,0,0,0,0h0s.2.2.2.2c.3.2.5.4.7.7v.2c.3.2.3.4.4.6,0,.1,0,.3,0,.4s0,.3,0,.4h0c0,.4,0,.8,0,1.2v.5c0,0,0,0,0,.1,0,0,0,0,0,.1l-.2.5c0,.1,0,.2-.1.3h0c0,.2,0,.3-.1.4s-.1.2-.2.2c-.2.4-.5.7-.8,1.1,0,0,0,.1-.2.2,0,0,0,.1-.2.2,0,0-.2.2-.3.2-.2,0-.3.1-.5.2-.2,0-.3,0-.5.1,0,0-.1,0-.2,0s-.1,0-.2,0c0,0,0,0-.1,0,0,0,0,0-.1,0s-.1,0-.2,0h-.2ZM834.1,101.3c.2,0,.3,0,.4-.2h0c.1-.2.2-.3.4-.4s.2-.3.4-.4h0c0-.2.2-.3.2-.4s.1-.2.2-.4c0-.2,0-.3.1-.5s0-.3,0-.5v-.3c0,0,0-.2,0-.3,0-.2,0-.3-.2-.5,0-.1-.2-.3-.4-.4h0c-.1,0-.2-.2-.3-.2-.1,0-.2-.2-.3-.3h0c0-.1-.2-.2-.3-.2,0,0,0,0,0,0,0,0,0,0,0,0s0,0,0,0c0,0,0,0-.1.1s0,0-.1.1c0,0-.2.1-.2.1s-.1.1-.2.2c0,0-.1,0-.2.1,0,0,0,0,0,0,0,0,0,0,0,0,0,0,0,.1,0,.2,0,0,0,0,0,.1,0,0-.1,0-.2.1,0,0,0,.1,0,.1,0,0,0,0,0,.1,0,0,0,0,0,.1,0,0,0,0,0,0,0,0,0,0,0,0,0,.1,0,.2,0,.3,0,0,0,.1,0,.2,0,0,0,0,0,.1,0,0,0,0,0,.1s0,.1,0,.2c0,0,0,0,0,0s0,0,0,0v.2c0,.1,0,.2,0,.3,0,.1,0,.2,0,.3h0c0,.2,0,.2,0,.3,0,0,0,0,0,.1,0,0,.1.2.2.2,0,.1.2.2.3.3,0,0,0,0,.1,0,0,0,0,0,.1,0s0,0,.1,0h.2c0,0,.1,0,.2,0,0,0,.1,0,.2,0h0ZM834.7,93.5c0,0,.2,0,.2,0l.3-.2c0,0,0-.1,0-.2v-.2c0,0-.2-.2-.2-.2,0,0,0-.1-.2-.2,0,0-.1-.2-.2-.3,0-.1-.1-.2-.2-.3,0,0-.1,0-.2,0,0,0-.1,0-.2,0-.1,0-.2,0-.3,0,0,0-.1,0-.2,0,0,0-.1,0-.2,0s0,0-.1,0c0,0,0,0,0,.1h0s0,0,0,0c.3.2.5.3.7.5,0,0,.1.1.2.2s.1.1.2.2c0,0,.1.1.2.2,0,0,0,0,0,0h0ZM848.8,182s0,0-.2,0c0,0,0,0-.1,0-.1,0-.2-.1-.2-.1,0,0-.1-.1-.2-.2s0-.2-.1-.2h0c0-.1,0-.3,0-.4s0-.2,0-.4c0,0,0,0,0,0v-.3c0,0,0-.2,0-.3,0-.1,0-.2,0-.4,0-.1,0-.2,0-.4h0c0-.1,0-.4,0-.4v-.3c0-.1,0-.2,0-.4v-.4c0-.2.1-.5.2-.7v-.7c.1,0,.1-.3.1-.3,0,0,0-.1,0-.2,0,0,0-.1,0-.1,0,0,0,0,0,0,0,0,0-.1,0-.2,0,0,0-.1,0-.2,0-.1,0-.3,0-.5,0,0,0,0,0,0h0c-.1,0-.3.1-.4.2-.1,0-.3.1-.4.2-.3.1-.6.2-.8.3-.3,0-.6.1-.9.2h-.8c-.3.2-.5.1-.8,0,0,0,0,0,0,0,0,0,0,0,0,0,0,0-.1,0-.2-.1,0,0-.1,0-.2-.1,0,0,0,0,0-.1,0,0,0,0,0,0s0,0,0-.1c0,0,0-.1,0-.2,0,0,0-.1,0-.2,0,0,0,0,0-.1,0,0-.1,0-.2-.1,0,0-.1-.1-.2-.2,0,0-.1-.2-.2-.2,0,0-.1-.2-.2-.2,0,0,0,0,0-.1,0,0,0-.1,0-.1,0-.1,0-.2,0-.3s0-.2,0-.3l-.2-.5c0-.1,0-.2,0-.3,0-.1,0-.2,0-.4h0c0-.2,0-.3,0-.5s0-.2.1-.4c0-.1.1-.2.2-.3s.1-.2.2-.3c0-.1.2-.3.3-.4,0-.1.2-.3.2-.4l.2-.2c0,0,0-.1.2-.2,0,0,0,0,0,0,0,0,0,0,0,0,0,0,0,0,0,0,0,0,.1,0,.1,0l.3-.2c0,0,.1,0,.2-.1s.1,0,.2,0c.1,0,.3,0,.4,0s.3,0,.4,0h.3c0,0,.2,0,.3,0,.2,0,.4,0,.5,0,.2,0,.3,0,.5.2.2,0,.5.2.7.3s.4.2.7.3c0,0,0,0,0,0s0,0,0,0,0,0,0,0c0,0,0,0,0,0,0,0,0,0,0,0,0-.1,0-.2,0-.3,0-.1,0-.2,0-.3,0,0,0-.1.1-.2,0,0,.1,0,.2,0s0,0,.1-.1c0,0,0,0,0-.1.2,0,.4-.1.5-.1,0,0,0,0,0,0,.2,0,.4.2.5.4,0,0,0,0,0,0s0,0,0,0c0,.2,0,.3,0,.5v4.7s0,0,0,.1c0,.1,0,.3,0,.4s0,.3,0,.4v.4c0,.1,0,.3,0,.4v.8c0,0,0,.3,0,.3,0,0,0,.2,0,.3,0,.2,0,.3,0,.5s0,.3,0,.5c0,0,0,0,0,.1h0c0,.2,0,.3,0,.4s0,.2,0,.2v.2s0,.2,0,.2c0,0,0,0,0,0,0,0,0,0,0,.1v.6c0,0-.2.6-.2.6,0,0,0,.1,0,.2,0,0,0,.1,0,.2v.3c-.1.1-.2.2-.3.3,0,0-.1,0-.1.1,0,0,0,.1-.1.1s0,0-.2.1h0s0,0,0,0c0,0,0,0,0,0h0ZM845.5,173.7c.1,0,.2,0,.3,0h.5s.1,0,.2,0,.1,0,.2,0c.1,0,.2,0,.3,0,0,0,0,0,.2,0,0,0,0,0,.2,0,0,0,.1,0,.2-.1s.2,0,.2-.1c.2,0,.3-.2.3-.5h0c0-.2,0-.2,0-.3v-.3c0-.1,0-.3,0-.4s0-.2,0-.4c0-.1-.1-.3-.2-.4s-.2-.2-.4-.3h-.1c-.2-.1-.3-.2-.5-.3-.2,0-.3-.1-.5-.2,0,0-.2,0-.3,0,0,0-.2,0-.3,0,0,0-.2,0-.3,0,0,0-.2,0-.3,0-.2,0-.3.1-.4.3v.2c0,0-.1,0-.1.1,0,0,0,0,0,0,0,0-.1.1-.2.2,0,0,0,.1-.1.2s0,.1-.1.2c0,0,0,.1,0,.2,0,0,0,.1,0,.1v.3c.1.1.2.2.2.3,0,.1,0,.2,0,.3s0,.1.2.2h.1c.1.2.2.3.3.4,0,0,0,.1.1.1s.1,0,.2.1c0,0,.1,0,.2,0h0ZM848.8,273.8c0,0-.2,0-.3,0,0,0-.2,0-.3,0,0,0,0,0-.1,0,0,0,0,0-.1,0,0,0-.2-.1-.2-.2,0-.1,0-.2-.1-.3s0-.2,0-.3v-.2c0,0,0-.1,0-.2,0-.2,0-.3,0-.5s0-.3,0-.5,0-.1,0-.2h0c0-.2,0-.3,0-.4,0,0,0-.2,0-.3,0-.2,0-.4,0-.6v-.4c0-.1,0-.2-.1-.3s0-.2,0-.3v-.5s0-.5,0-.5c0,0,0-.2,0-.3v-.2c0,0,0-.1,0-.2,0,0,0-.1,0-.2v-.5c0-.1,0-.2,0-.3,0,0,0-.1,0-.1v-.5s0-.2,0-.2c0-.1,0-.3,0-.4s0-.3,0-.4,0-.1,0-.2c0,0,0-.2,0-.3v-.2c.2,0,.2-.2.3-.2s.1-.1.2-.2c0,0,.2,0,.2,0h.2c0,0,.2,0,.2.1.2,0,.3.2.3.4v.2c.1,0,.2.1.2.2,0,0,0,.1,0,.2,0,.1,0,.2,0,.4,0,.2,0,.3,0,.5,0,0,0,.1,0,.2,0,0,0,.1,0,.2s0,.2,0,.2c0,0,0,.1,0,.2,0,0,0,0,0,.1h0c0,.1,0,.2,0,.2s0,0,0,.1c0,.1,0,.2,0,.4,0,.1,0,.2,0,.4s0,0,0,0h0c0,0,0,.2,0,.2,0,0,0,.2,0,.2v.2c0,.1,0,.3,0,.4,0,.1,0,.3,0,.4,0,0,0,0,0,.1,0,0,0,0,0,.1,0,0,0,.1,0,.2s0,0,0,.1c0,0,0,.1,0,.2,0,0,0,.1,0,.2v.5c0,.1,0,.2,0,.4,0,.1,0,.2,0,.4s0,.2,0,.4c0,0,0,0,0,0h0c0,.1,0,.2,0,.3v.2c0,0,0,.2,0,.3,0,0,0,.2,0,.3,0,.2,0,.3,0,.4,0,0,0,0,0,.1s0,0,0,0c0,0,0,.1,0,.2-.1.2-.3.3-.5.5h-.1c0,0,0,0,0,0ZM856.2,274.7c-.1,0-.3,0-.4,0s-.3,0-.4,0c-.3,0-.7-.1-.9-.2h-.2c-.1-.1-.2-.1-.3-.2s-.2,0-.3-.1c0,0-.2-.1-.3-.1s-.2,0-.3-.1h0c0-.1-.2-.2-.3-.2s-.2,0-.3-.1c-.1,0-.2-.1-.3-.2,0,0-.2-.1-.3-.2,0,0,0,0,0,0,0-.1-.1-.2-.2-.3s-.1-.2-.2-.3v-.3c-.2,0-.2-.1-.2-.2s0-.1,0-.2c0-.1,0-.3,0-.4v-.3c0,0,0-.2,0-.3,0,0,0-.1,0-.2,0,0,0-.1,0-.2v-.2c0,0,0-.1,0-.2,0,0,0-.1,0-.2,0,0,0,0,0,0s0,0,0,0c0,0,0,0,0-.1,0,0,0,0,0-.1,0-.1,0-.3,0-.4,0,0,0,0,0,0s0,0,0,0v-.2c0-.1,0-.2.1-.3s0-.2.1-.3c0,0,0-.1,0-.2,0,0,0,0,0,0s0,0,0,0c0,0,0-.2,0-.2,0,0,0,0,.2-.1,0,0,0,0,0,0,0,0,0,0,0,0h0c0-.1,0-.2,0-.3s0-.1,0-.2c0-.2,0-.3.2-.5,0,0,.1-.1.1-.2,0,0,0,0,0,0s0,0,0,0c.1-.1.2-.3.2-.5s.1-.3.2-.5c0,0,0,0,0,0,0,0,0-.2.2-.2,0,0,0,0,0,0s0,0,0,0c0,0,.1-.1,0-.2,0,0,0,0,0-.1h0c0-.2,0-.3,0-.3h.1c0,0,.1-.1.2-.2s0,0,0-.1c0,0,0,0,0,0,0,0,0,0,0,0,0-.1,0-.2.2-.3,0,0,0,0,0-.1,0,0-.1-.1-.2-.2,0,0-.1-.1-.2-.2,0,0,0,0-.2-.1,0,0,0-.1-.1-.2,0,0,0,0,0,0v-.4s0,0,0-.1c0,0,0-.1,0-.1s0,0,0-.1c0,0,0,0,0,0,0,0,0,0,0,0,0,0,0,0,.1,0,0,0,.1,0,.1-.1,0,0,0,0,0,0,0,0,.2,0,.2,0,0,0,.2,0,.2,0s.2,0,.2,0c.1,0,.2.1.3.1s.2,0,.3.1h.2c0,0,.2,0,.2,0,0,0,0-.1.2-.1,0,0,0,0,.1-.1.1-.1.2-.2.4-.2,0,0,0,0,0,0h.3c.1,0,.2,0,.3,0s.2,0,.3.1c0,0,0,0,0,0,0,0,0,.1.2.1,0,0,.1,0,.2,0,0,0,0,0,.2,0s.2,0,.2.1c0,0,0,0,0,.1,0,0,0,.1.1.1,0,0,0,0,0,.1s0,0,0,0c0,0,0,.1,0,.2,0,.2-.2.4-.4.5,0,0,0,0-.1,0h-.2s0,0-.2,0c0,0,0,0,0,0,0,0,0,0,0,0h0c0,0,0,.1,0,.1s0,0,0,0c0,0,.2.1.2.2s.1.1.2.2l.2.2c0,0,.1.1.2.2,0,0,0,.2.2.2l.2.2.2.3c0,0,.1.2.2.3s.1.2.2.3c.1.2.2.3.3.5s.2.3.3.5c.2.4.3.7.5,1,.1.2.2.5.3.8s.1.5.2.8l.2.8c0,0,0,.2,0,.3s0,.2,0,.3c0,.2,0,.4-.2.6,0,.2-.2.5-.3.7,0,.2-.1.3-.2.5s-.2.3-.2.5c-.1.2-.2.4-.4.6,0,0,0,.1-.1.2,0,0,0,.1-.1.2,0,0-.1.1-.2.2s-.1.1-.2.2l-.2.2c0,0-.2.1-.3.2s-.2.1-.3.2c-.2,0-.4.2-.6.2-.2,0-.5.1-.8.1h0s0,0,0,0h-.3ZM855.7,272.8h.2c0,0,.1,0,.2,0,0,0,.2,0,.2,0,0,0,.2,0,.2,0s.2,0,.2,0c0,0,.1,0,.2,0,.1,0,.3-.1.5-.2,0,0,.1,0,.2-.1,0-.1.2-.2.4-.3,0,0,0,0,.1-.1,0,0,0-.1.2-.2,0,0,0-.1.1-.2l.2-.5c0-.2.2-.3.2-.5,0-.2.1-.4,0-.5h0c0-.2,0-.3,0-.3,0,0,0-.1,0-.2,0-.2,0-.3-.1-.5v-.5c-.1-.2-.2-.5-.3-.7s-.2-.4-.3-.6c0-.2-.2-.3-.3-.5s-.2-.3-.3-.5c0,0,0-.2-.1-.2,0-.1-.1-.2-.2-.3s-.1-.2-.2-.3l-.5-.7c0-.1-.1-.2-.2-.3s-.2-.2-.2-.2c0,0,0,0,0,0,0,0,0,0,0,0h0s0,.1,0,.1l-.5.7c-.4.5-.7,1.1-1,1.8,0,.2-.2.4-.3.7s-.2.5-.3.7c0,.2-.2.5-.3.8s-.2.5-.2.8c-.1.4-.2.7-.2,1,0,0,0,0,0,.1,0,0,0,.2,0,.3s0,.2,0,.3c0,.2.2.4.3.6l.4.3c.1,0,.2.2.4.3s.3.2.4.2c.2,0,.3.1.5.2s.3,0,.5,0h0ZM842,383.2c0,0-.2,0-.3,0,0,0-.2,0-.3,0,0,0,0,0-.1,0,0,0,0,0-.1,0,0,0-.2-.1-.2-.2,0-.1,0-.2-.1-.3s0-.2,0-.3v-.2c0,0,0-.1,0-.2,0-.2,0-.3,0-.5s0-.3,0-.5,0-.1,0-.2h0c0-.2,0-.3,0-.4,0,0,0-.2,0-.3,0-.2,0-.4,0-.6v-.4c0-.1,0-.2-.1-.3s0-.2,0-.3v-.5s0-.5,0-.5c0,0,0-.2,0-.3v-.2s0-.2,0-.2c0,0,0-.1,0-.2v-.5c0-.1,0-.2,0-.3,0,0,0-.1,0-.1v-.5c0,0,0-.1,0-.2,0-.1,0-.3,0-.4s0-.3,0-.4,0-.1,0-.2c0,0,0-.2,0-.3v-.2c.2,0,.2-.2.3-.2s.1-.1.2-.2c0,0,.2,0,.2,0h.2c0,0,.2,0,.2.1.2,0,.3.2.3.4v.2c.1,0,.2.1.2.2,0,0,0,.1,0,.2,0,.1,0,.2,0,.4,0,.2,0,.3,0,.5,0,0,0,.1,0,.2,0,0,0,.1,0,.2v.2c0,0,0,.1,0,.2,0,0,0,0,0,.1h0c0,.1,0,.2,0,.2s0,0,0,.1c0,.1,0,.2,0,.4,0,.1,0,.2,0,.4v.2h0c0,.2,0,.2,0,.3s0,.2,0,.2c0,.1,0,.3,0,.4,0,.1,0,.3,0,.4,0,0,0,0,0,.1,0,0,0,0,0,.1,0,0,0,.1,0,.2s0,0,0,.1c0,0,0,.1,0,.2,0,0,0,.1,0,.2v.5c0,.1,0,.2,0,.4,0,.1,0,.2,0,.4s0,.2,0,.4c0,0,0,0,0,0h0c0,.1,0,.2,0,.3v.2c0,0,0,.2,0,.3,0,0,0,.2,0,.3,0,.2,0,.3,0,.4,0,0,0,0,0,.1s0,0,0,0c0,0,0,.1,0,.2-.1.2-.3.3-.5.5h-.1c0,0,0,0,0,0ZM846.7,384.4c0,0-.1,0-.2,0,0,0,0,0-.1,0,0,0,0,0-.1,0,0,0,0,0-.1,0s0,0,0-.1c0,0,0,0,0,0,0,0-.1,0-.1-.1,0,0,0-.2,0-.2,0,0,0-.2,0-.2v-.4c0-.1,0-.2,0-.3v-.5c0,0,0-.1,0-.2,0-.2,0-.5,0-.7,0,0,0-.1,0-.2s0-.1,0-.2v-.4c0-.1,0-.3,0-.4v-.6c0,0,0-.2,0-.3v-.4c0-.1,0-.2,0-.4,0,0,0,0,0-.1v-.2c0,0,0-.1,0-.2v-1c0,0,0-.3,0-.3v-.8c0-.2,0-.3,0-.5h0c0-.1,0-.1,0-.1,0-.2,0-.3,0-.5,0-.2,0-.3,0-.5v-.6c0-.2-.1-.5,0-.7,0-.1,0-.2.1-.3,0,0,0,0,0,0s0,0,0,0c0,0,0,0,0-.1s0,0,0,0h0s0,0,0,0h0s0,0,0,0,0,0,0,0c0,0,0,0,0,0,0,0,0,0,0,0,0,0,0,0,0,0,0,0,.1,0,.2,0s.1,0,.2,0c0,0,.1,0,.2.2,0,.1,0,.2.1.4s0,.2,0,.4v.2c0,0,0,.2,0,.3v.6c0,0,0,.2,0,.2h0c0,.1,0,.2,0,.2v.2c0,0,0,.2,0,.3,0,.1,0,.3,0,.5s0,.3,0,.5v.2c0,0,0,.1,0,.2,0,0,0,0,0,.1v.5c0,0,0,.1,0,.2,0,0,0,.2,0,.3s0,.2,0,.3v.9c0,0,0,.4,0,.4v.6c0,0,0,.1,0,.2,0,0,0,0,0,.1h0c0,.1,0,.2,0,.2h0c0,.2,0,.3,0,.4v.7c0,0,0,.1,0,.2v.2c0,0,0,.1,0,.2s0,.1,0,.2c0,0,0,0,0,0,0,.1,0,.3,0,.4,0,.1,0,.3,0,.4,0,0,0,0,0,.1h0c0,.1,0,.2,0,.2,0,0,0,.1-.1.2,0,0,0,0,0,.1,0,0-.2,0-.2.2-.1,0-.2.1-.4.1h0ZM836.1,461.9c0,0-.2,0-.3,0,0,0-.2,0-.3,0,0,0,0,0-.1,0,0,0,0,0-.1,0,0,0-.2-.2-.2-.2,0-.1,0-.2-.1-.3s0-.2,0-.3v-.2c0,0,0-.2,0-.2,0-.2,0-.3,0-.5s0-.3,0-.5,0-.1,0-.2h0c0-.2,0-.3,0-.4,0,0,0-.2,0-.3,0-.2,0-.4,0-.6v-.4c0-.1,0-.2-.1-.3s0-.2,0-.3v-.5s0-.5,0-.5c0,0,0-.2,0-.3v-.2c0,0,0-.2,0-.2,0,0,0-.1,0-.2v-.5c0,0,0-.2,0-.3,0,0,0,0,0-.1v-.5s0-.2,0-.2c0-.2,0-.3,0-.4,0-.1,0-.3,0-.4s0-.1,0-.2c0,0,0-.2,0-.3v-.2c.2,0,.2-.2.3-.2s.1-.1.2-.2c0,0,.2,0,.2,0h.2c0,0,.2,0,.2.1.2,0,.3.2.3.4v.2c.1,0,.2.1.2.2s0,.2,0,.2c0,.1,0,.2,0,.4,0,.2,0,.3,0,.5,0,0,0,0,0,.2,0,0,0,.1,0,.2s0,.2,0,.2c0,0,0,.2,0,.2,0,0,0,0,0,0h0c0,.1,0,.2,0,.2s0,0,0,.1c0,.1,0,.2,0,.3,0,.1,0,.2,0,.3s0,0,0,0h0c0,0,0,.2,0,.2,0,0,0,.2,0,.2v.2c0,.1,0,.3,0,.4,0,.1,0,.3,0,.4,0,0,0,0,0,.1,0,0,0,0,0,.1,0,0,0,.1,0,.2s0,0,0,.1c0,0,0,.1,0,.2,0,0,0,.1,0,.2v.5c0,.1,0,.2,0,.4,0,.1,0,.2,0,.4s0,.2,0,.4c0,0,0,0,0,0h0c0,.2,0,.2,0,.3v.2c0,0,0,.2,0,.3,0,0,0,.2,0,.3,0,.2,0,.3,0,.4,0,0,0,0,0,.1s0,0,0,0c0,0,0,.1,0,.2-.1.2-.3.3-.5.5h-.1c0,0,0,0,0,0ZM841.6,462.3s0,0,0,0h-.3c0,0,0,0,0,0,0,0,0,0,0,0,0,0,0,0-.1,0s-.1,0-.2,0c-.1,0-.3,0-.4,0-.1,0-.3,0-.4-.1h-.1c-.2-.1-.3-.3-.4-.4,0,0,0,0,0-.2,0,0,0,0,0-.2,0,0,0,0,0-.1,0-.3.2-.5.3-.7,0,0,.2-.2.2-.2s.2-.2.3-.2.2-.1.3-.2.2-.1.3-.2c.2-.1.4-.3.6-.4s.4-.3.5-.4c.3-.2.5-.5.7-.9,0-.2.2-.5.3-.7,0-.2.2-.4.2-.6,0-.2.1-.4.2-.5s.1-.4.2-.5c0-.2,0-.3.1-.5s0-.3,0-.5c0-.2,0-.4,0-.6,0,0,0-.1-.2-.2,0,0-.1,0-.2,0,0,0-.1,0-.2,0,0,0-.1,0-.2,0,0,0,0,0,0,0s0,0,0,0c-.3.1-.6.3-.8.5,0,0,0,0-.1.1h-.1c0,.2-.2.3-.3.4,0,0-.1.1-.2.2s-.1.1-.2.2c-.1.1-.2.3-.3.5,0,.2-.2.4-.4.5-.1,0-.2.2-.3.3,0,.1-.2.2-.3.3-.1,0-.2,0-.3,0l-.2-.2c0,0-.1-.1-.2-.2s-.1-.2-.2-.2c0,0,0,0,0,0,0,0,0,0,0,0,0,0,0-.1,0-.2s0-.1,0-.2c0,0,0,0,0-.1,0,0,0,0,0-.2v-.2h0c0-.2,0-.2,0-.2,0-.2.2-.4.4-.6.3-.3.7-.6,1-.8,0,0,0,0,.1,0s0,0,.2,0c.2-.1.3-.2.4-.3.1,0,.3-.2.4-.3.1,0,.2-.2.3-.3s.2-.2.4-.2c.2,0,.3-.2.4-.2s.3,0,.5-.1c0,0,0,0,0,0h0c.2,0,.3,0,.4,0,.2,0,.3,0,.4.1.2,0,.4.2.6.3,0,0,0,0,0,0,.1.1.2.2.3.4s.2.3.2.5c0,0,0,.2,0,.3s0,.2,0,.3v.2s0,0,0,.2c0,.4,0,.8-.2,1.2,0,0,0,.2,0,.2,0,0,0,.2,0,.3s0,.2,0,.3,0,.2-.1.3c0,.2-.1.3-.2.4s-.1.3-.2.4c0,.1,0,.3-.1.4v.4c-.2.2-.2.3-.3.5s-.1.3-.2.5c-.2.3-.4.6-.6.8,0,0,0,0-.2.1l-.2.2h0c0,0,0,0,0,0h.3s.2,0,.2,0h.9c0-.1,0-.1,0-.1.2,0,.3,0,.4,0,.2,0,.3,0,.4,0h0c.2,0,.3,0,.5,0h.7c0,0,.2,0,.2,0,0,0,.1,0,.2,0,0,0,.1,0,.2,0,0,0,.1,0,.2,0,.3,0,.6,0,.9.3.2.2.2.3.3.5h0c0,.4,0,.6-.1.8,0,0,0,.1-.1.2,0,0,0,0,0,0s-.1,0-.2,0-.1,0-.2,0c0,0,0,0,0,0s0,0,0,0c-.1,0-.2,0-.3,0-.1,0-.2,0-.3,0-.2,0-.4-.1-.6-.1h-.2s-.1,0-.2,0h-.1s-.6,0-.6,0c0,0-.1,0-.2,0,0,0-.2,0-.2,0s-.2,0-.2,0c0,0,0,0-.1,0,0,0,0,0-.1,0h0s0,0-.1,0c-.1,0-.2,0-.2,0,0,0-.1,0-.3,0h-.2c0,0-.1,0-.2,0,0,0-.1,0-.2,0,0,0,0,0-.1,0s0,0-.1,0c-.1,0-.3,0-.4,0,0,0,0,0-.1,0s0,0-.1,0c0,0,0,0,0,0,0,0,0,0,0,0,0,0,0,0-.1,0,0,0,0,0,0,0s0,0,0,0h-.2s-.1,0-.2,0-.2,0-.2,0h0ZM814.2,563.2c0,0-.2,0-.3,0,0,0-.2,0-.3,0,0,0,0,0-.1,0,0,0,0,0-.1,0,0,0-.2-.2-.2-.2,0-.1,0-.2-.1-.3s0-.2,0-.3v-.2c0,0,0-.2,0-.2,0-.2,0-.3,0-.5,0-.2,0-.3,0-.5,0,0,0-.1,0-.2h0c0-.2,0-.3,0-.4,0,0,0-.2,0-.3,0-.2,0-.4,0-.6v-.4c0-.1,0-.2-.1-.3,0-.1,0-.2,0-.3v-.5c0-.2,0-.3,0-.5,0,0,0-.2,0-.3v-.2c0,0,0-.2,0-.2,0,0,0-.1,0-.2v-.5c0,0,0-.2,0-.3,0,0,0,0,0-.1s0,0,0-.1h0c0-.1,0-.4,0-.4v-.2c0-.2,0-.3,0-.4,0-.1,0-.3,0-.4s0-.1,0-.2c0,0,0-.2,0-.3v-.2c.2,0,.2-.2.3-.2s.1-.1.2-.2c0,0,.2,0,.2,0h.2c0,0,.2,0,.2.1.2,0,.3.2.3.4v.2c.1,0,.2.1.2.2s0,.2,0,.2c0,.1,0,.2,0,.4,0,.2,0,.3,0,.5,0,0,0,0,0,.2,0,0,0,.1,0,.2v.2c0,0,0,.2,0,.2,0,0,0,0,0,0h0c0,.1,0,.2,0,.2s0,0,0,.1c0,.1,0,.2,0,.3s0,.2,0,.3v.2h0c0,.2,0,.2,0,.3s0,.2,0,.2c0,.1,0,.3,0,.4,0,.1,0,.3,0,.4,0,0,0,0,0,.1,0,0,0,0,0,.1,0,0,0,.1,0,.2s0,0,0,.1c0,0,0,.1,0,.2,0,0,0,.1,0,.2v.5c0,.1,0,.2,0,.4,0,.1,0,.2,0,.4s0,.2,0,.4c0,0,0,0,0,0h0c0,.2,0,.2,0,.3v.2c0,0,0,.2,0,.3,0,0,0,.2,0,.3,0,.2,0,.3,0,.4,0,0,0,0,0,.1,0,0,0,0,0,0,0,0,0,.1,0,.2-.1.2-.3.3-.5.5h-.1c0,0,0,0,0,0ZM821.3,564.3c-.1,0-.3,0-.4,0s-.3,0-.4-.2c0,0,0,0,0,0,0,0,0,0,0,0,0,0-.1,0-.2-.1s-.1,0-.2-.2l-.3-.3h0c0-.1,0-.2,0-.2,0,0,0,0,0-.1s0,0,0-.1c0,0,0-.2.2-.2,0,0,.1,0,.1-.1,0-.1,0-.2.2-.3,0,0,.2-.1.3-.2.2,0,.3-.1.5-.1h.1s0,0,.1,0h.1s0,0,.1,0c.1,0,.3,0,.4,0,.2,0,.3,0,.5-.1l.5-.2.6-.2c.2,0,.3-.1.4-.2.1,0,.2,0,.3-.1l.3-.2c0,0,.2,0,.2-.2s.1-.1.2-.2c0,0,.2-.2.2-.2,0-.1.1-.3,0-.4,0,0,0-.2,0-.2,0,0,0-.2,0-.2s0-.2,0-.2,0-.2,0-.3c0,0,0,0,0,0,0,0-.2-.2-.2-.3,0,0-.1-.2-.2-.3,0,0-.1-.1-.2-.2s-.1,0-.2-.1c0,0,0,0-.2,0,0,0,0,0-.2,0,0,0-.1,0-.2,0,0,0-.1,0-.2,0-.2,0-.3,0-.5-.1h-.5c-.2-.1-.3-.2-.5-.2-.2,0-.2-.1-.3-.1h0s-.2,0-.4-.1c0,0-.2,0-.2,0s-.2,0-.3,0c0,0,0,0,0-.1s0,0,0-.1c0,0,0-.1,0-.2,0,0,0-.1,0-.2,0,0,0-.1,0-.2,0,0,0,0,0,0,0,0,0,0,0-.1s0,0,0,0c0,0,0-.1,0-.2v-.2c.2-.2.4-.4.6-.6.2-.2.3-.5.5-.7.2-.2.3-.4.5-.7,0-.1.2-.2.2-.3l.2-.2c0,0,0-.1.1-.2,0,0,0,0,0-.1,0,0,0,0,0-.1,0,0,0-.1,0-.2,0,0,0-.1,0-.2,0,0,0,0,0,0h0s0,0,0,0c-.1,0-.2,0-.4,0s-.2,0-.4,0h-.2s0,0-.1,0,0,0-.1,0c-.1,0-.3,0-.4,0s-.3,0-.4,0h0c-.2,0-.4.1-.6.2-.2,0-.4.1-.6.2,0,0-.2,0-.3,0,0,0-.2,0-.3,0,0,0-.1,0-.2,0s0,0-.1,0c-.1,0-.3.1-.4.2,0,0,0,0,0,0-.1,0-.2,0-.3,0s-.2,0-.3,0c-.1,0-.2,0-.3-.1,0,0,0,0,0,0,0,0,0,0,0,0,0,0,0,0,0,0,0,0,0,0,0-.1s0,0,0-.1c0,0,0-.1,0-.2,0-.2,0-.4,0-.5,0,0,0-.1.1-.2s0-.1.2-.2c.2-.2.4-.2.6-.3h.5c.1,0,.2,0,.3,0,0,0,.2,0,.3,0,.2,0,.3,0,.5,0s.3,0,.5,0c.2,0,.3,0,.5,0s.3,0,.5,0c.1,0,.2,0,.4,0h.5c.1,0,.2,0,.3,0s.1,0,.2,0c0,0,.2,0,.2,0,0,0,.2,0,.2,0,.1,0,.2,0,.3,0,0,0,.2,0,.3,0h.4c0,.1,0,.2.1.2s0,0,.1,0c.1,0,.2.2.3.2s.1.2.2.3c.2.2.2.4.1.6,0,.2,0,.3,0,.4s0,.3-.2.4l-.3.6s0,.1,0,.2v.2c0,0-.3.3-.3.3,0,.1-.2.3-.2.4,0,.1-.2.3-.3.4h0c0,0,0,.1,0,.2s0,0,.1,0c.2,0,.3,0,.5,0s.3,0,.5.1c.2,0,.4,0,.6.2s.4.2.5.3c.3.2.6.5.8.8.1.1.2.3.3.4,0,.2.2.3.3.5l.3.5c.2.4.3.8.3,1.2,0,.1,0,.2,0,.3,0,.1,0,.2,0,.3,0,0,0,.1,0,.2,0,.1,0,.3-.2.4s-.1.2-.2.4c0,0-.2.2-.2.3s-.2.2-.3.3c0,0,0,0,0,0,0,0-.1,0-.2.2,0,0-.1,0-.2.2,0,0-.1,0-.2.1s-.1,0-.2.1c-.2.2-.4.2-.6.2-.2,0-.4,0-.5,0l-.5.2s-.1,0-.2,0c0,0-.1,0-.2,0-.1,0-.3,0-.4.1-.1,0-.3,0-.4.1-.2,0-.3.1-.4.2l-.2.2s0,0-.1.1c0,0-.2,0-.3,0h0ZM717,570.6c0,0-.2,0-.3,0,0,0-.2,0-.3,0,0,0,0,0-.1,0,0,0,0,0-.1,0,0,0-.2-.2-.2-.2,0-.1,0-.2-.1-.3s0-.2,0-.3v-.2c0,0,0-.2,0-.2,0-.2,0-.3,0-.5s0-.3,0-.5,0-.1,0-.2h0c0-.2,0-.3,0-.4,0,0,0-.2,0-.3,0-.2,0-.4,0-.6v-.4c0-.1,0-.2-.1-.3s0-.2,0-.3v-.5s0-.5,0-.5c0,0,0-.2,0-.3v-.2s0-.2,0-.2c0,0,0-.1,0-.2v-.5c0,0,0-.2,0-.3,0,0,0,0,0-.1v-.5c0,0,0-.1,0-.2,0-.2,0-.3,0-.4,0-.1,0-.3,0-.4s0-.1,0-.2c0,0,0-.2,0-.3v-.2c.2,0,.2-.2.3-.2s.1-.1.2-.2c0,0,.2,0,.2,0h.2c0,0,.2,0,.2.1.2,0,.3.2.3.4v.2c.1,0,.2.1.2.2s0,.2,0,.2c0,.1,0,.2,0,.4,0,.2,0,.3,0,.5,0,0,0,0,0,.2,0,0,0,.1,0,.2v.2c0,0,0,.2,0,.2,0,0,0,0,0,0h0c0,.1,0,.2,0,.2s0,0,0,.1c0,.1,0,.2,0,.3,0,.1,0,.2,0,.3v.2h0c0,.2,0,.2,0,.3s0,.2,0,.2c0,.1,0,.3,0,.4,0,.1,0,.3,0,.4,0,0,0,0,0,.1,0,0,0,0,0,.1,0,0,0,.1,0,.2s0,0,0,.1c0,0,0,.1,0,.2,0,0,0,.1,0,.2v.5c0,.1,0,.2,0,.4,0,.1,0,.2,0,.4s0,.2,0,.4c0,0,0,0,0,0h0c0,.2,0,.2,0,.3v.2c0,0,0,.2,0,.3,0,0,0,.2,0,.3,0,.2,0,.3,0,.4,0,0,0,0,0,.1s0,0,0,0c0,0,0,.1,0,.2-.1.2-.3.3-.5.5h-.1c0,0,0,0,0,0ZM726.5,570.9h-.3c-.1,0-.2,0-.3-.1,0,0,0,0-.1,0-.1,0-.2-.1-.2-.2h0c-.1-.3-.1-.5-.1-.8h0c0-.1,0-.2,0-.2v-.3s0-.6,0-.6c0,0,0,0,0-.1v-.5c0-.1,0-.3,0-.4,0,0,0,0,0-.1v-.3c0,0,0-.2,0-.2,0,0,0,0,0-.1h0c0-.1,0-.3,0-.3,0,0,0,0-.1,0h-.2c0,0-.2,0-.2,0h-.2c0,0-.2,0-.2,0h-.4c-.1,0-.2,0-.4,0h0c-.1,0-.2,0-.4,0-.1,0-.2,0-.4,0,0,0-.2,0-.2,0-.2,0-.4,0-.5.2,0,0-.1,0-.2,0s-.1,0-.2,0c0,0-.1.1-.1.2,0,0,0,.1,0,.2,0,0,0,.2,0,.2s0,.2-.1.3c0,0-.1.1-.3.1s-.2,0-.3-.1c0,0,0-.1-.1-.2,0-.1,0-.2,0-.3v-.3c0,0-.2-.2-.2-.3v-.2c-.3-.3-.4-.5-.4-.8s0-.2,0-.2v-.2c0,0,.1-.1.1-.2s0-.1,0-.2c0-.2,0-.5.1-.7,0-.2.1-.5.2-.8s.1-.5.2-.8v-.4c.2-.1.2-.3.2-.4,0-.2.1-.4.2-.6s.1-.4.2-.6c0,0,0,0,0-.1,0-.2.1-.3.2-.5s.1-.3.2-.5h0c0-.2,0-.2,0-.3,0,0,0,0,0-.1,0,0,.1-.1.2-.2s.1,0,.2-.1c0,0,.2,0,.3,0s.2,0,.3,0c0,0,.2,0,.2,0s.2,0,.2,0c0,0,.2,0,.3.2.2.2.3.5.3.8,0,.2,0,.5-.2.7,0,.1,0,.2-.2.4s0,.3-.1.4v.3c-.1.1-.2.2-.2.3,0,0,0,0,0,.1,0,0,0,0,0,.1,0,0,0,0,0,0,0,0,0,0,0,0,0,0-.1.2-.1.3,0,0,0,.1,0,.2,0,0,0,.1,0,.2,0,0,0,.1,0,.2,0,0,0,.1,0,.2,0,.1-.1.2-.2.4,0,0,0,.2,0,.2,0,0,0,.2,0,.2v.5c0,0,0,0,0,0h.3c0,0,.1,0,.2,0h.2c0,0,.2,0,.3,0,.1,0,.2,0,.3,0s.2,0,.3,0c0,0,0,0,.1,0h.4c0,0,.2,0,.3,0h.1s0,0,.1,0h.2s0,0,0,0h0c0,0,0,0,0,0v-1.4c0,0,0-.1,0-.2v-.2c0,0,0-.1,0-.2v-.2c0-.2,0-.5,0-.7,0-.2,0-.5,0-.7,0-.2,0-.3,0-.5,0-.2,0-.3,0-.5,0-.1,0-.2,0-.3s0-.2,0-.3c0-.1,0-.2.2-.4,0,0,0-.2.2-.2s.1-.1.2-.2h0s0,0,0,0c0,0,0,0,0,0,0,0,.2,0,.3,0h.4c0,0,0,.1,0,.1h0c0,.1,0,.2,0,.2s0,0,0,.1c0,.1.1.2,0,.4h0c0,.1,0,.2,0,.2,0,0,.1.1,0,.2h0c0,.1,0,.2,0,.3s0,.2,0,.3c0,0,0,0,0,0h0s0,0,0,0h0c0,.1,0,.2,0,.2,0,0,0,0,0,0,0,0,0,0,0,0v.2s0,.1,0,.2c0,0,0,0,0,0h0c0,.1,0,.2,0,.2,0,0,0,0,0,0v.3c0,.1,0,.2,0,.3v.9c0,0,0,.1,0,.2,0,0,0,.1,0,.2,0,0,0,.1,0,.2h0c0,.1,0,.2,0,.2,0,0,0,.1,0,.2v.2c0,0,0,.2,0,.2v.4s0,0,0,0c0,0,0,0,0,0h.5c0,0,.2,0,.3,0h.6c.2,0,.4,0,.6,0h.4c0,0,.1,0,.1,0,0,0,.2,0,.3,0s.2,0,.2.2c0,0,0,0,0,0,0,0,0,.2,0,.2,0,0,0,.1,0,.2h0c0,.2,0,.3,0,.4h0c0,.1,0,.2,0,.2,0,0,0,0,0,0s0,0,0,0c0,0,0,0,0,0s0,0,0,0c0,0,0,0-.2.1,0,0,0,0,0,0s0,0,0,0c0,0,0,0,0,0,0,0,0,0,0,0h0c0,.2-.1.2-.2.3,0,0-.2,0-.3,0h-.3c-.2,0-.3,0-.5,0h-.5c0,0-.2,0-.2,0s-.2,0-.2,0c0,0,0,0-.1,0,0,0,0,0-.1,0,0,0,0,0-.1,0h-.2s0,0,0,0h0c0,0,0,.2-.1.2h0s0,.1,0,.2,0,.1,0,.1c0,0,0,0,0,.1,0,0,0,0,0,0s0,0,0,0c0,0,0,0,0,0,0,0,0,0,0,0,0,0,0,.2,0,.2h0c0,.2,0,.2,0,.3h0s0,.1,0,.1c0,0,0,0,0,0,0,0,0,0,0,0v.4s0,0,0,0c0,0,0,0,0,0,0,0,0,.1,0,.2,0,0,0,.2,0,.2s0,0,0,0h0s0,0,0,0c0,0,0,0,0,0s0,0,0,0c0,.1,0,.2,0,.3,0,0,0,0,0,0,0,0,0,0,0,0,0,0,0,0,0,0,0,0,0,0,0,0,0,.1,0,.2,0,.3,0,.1,0,.2,0,.3v.2s0,0,0,0c0,0,0,0,0,0,0,0,0,0,0,0h0c0,0,0,0,0,.1,0,0,0,0,0,0s0,0,0,0c0,0,0,0-.1.1h-.1s0,0,0,0,0,0,0,0h0s0,0,0,0c0,0-.1,0-.1,0h0ZM727.3,570.4s0,0,0,0c0,0,0,0,0,0h0ZM737.7,741.9c0,0-.2,0-.3,0,0,0-.2,0-.3,0,0,0,0,0-.1,0,0,0,0,0-.1,0,0,0-.2-.2-.2-.2,0-.1,0-.2-.1-.3s0-.2,0-.3v-.2c0,0,0-.2,0-.2,0-.2,0-.3,0-.5,0-.2,0-.3,0-.5,0,0,0-.1,0-.2h0c0-.2,0-.3,0-.4,0,0,0-.2,0-.3,0-.2,0-.4,0-.6v-.4c0-.1,0-.2-.1-.3,0-.1,0-.2,0-.3v-.5c0-.2,0-.3,0-.5,0,0,0-.2,0-.3v-.2c0,0,0-.2,0-.2,0,0,0-.1,0-.2v-.5c0,0,0-.2,0-.3,0,0,0,0,0-.1s0,0,0-.1h0c0-.1,0-.4,0-.4v-.2c0-.2,0-.3,0-.4,0-.1,0-.3,0-.4s0-.1,0-.2c0,0,0-.2,0-.3v-.2c.2,0,.2-.2.3-.2s.1-.1.2-.2c0,0,.2,0,.2,0h.2c0,0,.2,0,.2.1.2,0,.3.2.3.4v.2c.1,0,.2.1.2.2s0,.2,0,.2c0,.1,0,.2,0,.4,0,.2,0,.3,0,.5,0,0,0,0,0,.2,0,0,0,.1,0,.2v.2c0,0,0,.2,0,.2,0,0,0,0,0,0h0c0,.1,0,.2,0,.2s0,0,0,.1c0,.1,0,.2,0,.3s0,.2,0,.3v.2h0c0,.2,0,.2,0,.3s0,.2,0,.2c0,.1,0,.3,0,.4,0,.1,0,.3,0,.4,0,0,0,0,0,.1,0,0,0,0,0,.1,0,0,0,.1,0,.2s0,0,0,.1c0,0,0,.1,0,.2,0,0,0,.1,0,.2v.5c0,.1,0,.2,0,.4,0,.1,0,.2,0,.4s0,.2,0,.4c0,0,0,0,0,0h0c0,.2,0,.2,0,.3v.2c0,0,0,.2,0,.3,0,0,0,.2,0,.3,0,.2,0,.3,0,.4,0,0,0,0,0,.1,0,0,0,0,0,0,0,0,0,.1,0,.2-.1.2-.3.3-.5.5h-.1c0,0,0,0,0,0ZM742.9,743.7s0,0,0,0c0,0,0,0,0,0,0,0,0,0,0,0,0,0-.2,0-.2-.1,0,0-.1-.1-.2-.2,0,0,0,0,0,0,0,0-.1-.1-.2-.2,0,0,0-.2,0-.3v-.3c0-.2,0-.3.2-.4.2-.2.4-.3.7-.3,0,0,.1,0,.2,0,0,0,.1,0,.2,0,0,0,.2,0,.2,0s.2,0,.2,0c.2,0,.4-.1.6-.2s.4-.1.6-.2c.3-.2.6-.3,1-.4s.6-.3.9-.5c.1,0,.3-.1.4-.2s.2-.1.3-.2c.3-.2.5-.5.7-.7.1-.2.2-.4.1-.7,0,0,0-.1,0-.2s0-.1,0-.2c0-.1-.1-.2-.2-.3,0-.1-.1-.2-.2-.3,0,0,0-.1-.1-.2s0-.1-.1-.2c0,0,0-.1-.2-.2h-.2c0-.2,0-.2-.1-.2,0,0,0,0-.1,0-.1,0-.2,0-.3,0-.1,0-.2,0-.4,0h-.4c-.1,0-.3,0-.4,0h-.1c-.2,0-.3,0-.4,0-.1,0-.3,0-.4,0-.1,0-.2,0-.4,0s-.2,0-.4,0c0,0-.1,0-.2,0s-.1,0-.2,0h0s0,0,0,0c0,0,0,0,0,0,0,0-.2,0-.2.2,0,0,0,0,0,0,0,0-.1,0-.2,0s-.1,0-.2,0c0,0,0,0,0,0,0,0,0,0,0,0,0,0,0,0,0,0,0,0,0,0,0,0h0s0,0,0,0c0,0,0,0-.1,0,0,0,0,0-.1,0-.2.1-.3.3-.4.5v.2c0,.1-.2.2-.3.2s-.2,0-.3,0c0,0-.1-.1-.1-.2,0,0,0-.1,0-.2,0,0,0-.1,0-.2,0-.2,0-.3,0-.4,0-.2-.1-.3-.1-.5s0-.3,0-.5c0,0,0-.1,0-.2,0,0,0-.1,0-.2,0,0,0-.1,0-.2v-.2s0-.1,0-.2v-.2c0-.7,0-1.4,0-2.1h0c0-.3,0-.5,0-.7v-.3c0-.1,0-.2,0-.3,0-.1,0-.2,0-.3,0-.1,0-.2,0-.3,0,0,0-.2,0-.3v-.5c0,0,0-.1,0-.2,0,0,0,0,0-.1.2-.2.3-.3.5-.4.2,0,.4,0,.6,0,.2,0,.3,0,.5,0,0,0,.2,0,.3,0s.2,0,.3,0h1.2c0,0,0,0,.2,0h.2c.2,0,.3,0,.4,0s.3,0,.4,0c0,0,.1,0,.2,0h.2c.1,0,.3,0,.4,0h.4c.2,0,.4,0,.5,0s.3,0,.5,0c0,0,0,0,.2,0,0,0,0,0,.1,0h.1c0,0,0,0,0,.1,0,0,0,0,0,0,0,0,0,.1.1.2s0,.1.1.2c0,0,0,0,0,0h0c0,0,0,.1,0,.1,0,0,0,0,0,.1h0c0,0,0,.2,0,.2h0c0,.1,0,.2,0,.2,0,0,0,0-.1.2,0,0-.1.2-.3.3,0,0-.1,0-.2.1,0,0-.1.1-.2.1-.1,0-.2,0-.3,0h-.2s-.2,0-.2,0c-.1,0-.2,0-.4,0-.1,0-.2,0-.4,0-.1,0-.3,0-.4,0h-.4c-.1,0-.3,0-.4,0h-.2c0,0-.1,0-.2,0,0,0,0,0,0,0,0,0,0,0,0,0,0,0-.1,0-.1,0,0,0,0,0,0,0h0s0,0,0,0,0,0,0,0h-.5c0,0-.2,0-.2,0s-.2,0-.2,0c0,0-.2,0-.3,0,0,0,0,0,0,0,0,0,0,0,0,0,0,0,0,0,0,.1,0,.2,0,.4,0,.6s0,.4,0,.6v.5c0,.2,0,.3,0,.5v1.2s0,0,0,0c0,0,0,0,0,0,0,0,0,0,0,0h0c.2,0,.3,0,.5,0,.2,0,.3,0,.5,0,0,0,.2,0,.3,0s.2,0,.3,0c.1,0,.2,0,.3,0h.3s.2,0,.2,0c0,0,.2,0,.2,0,.3,0,.6,0,1,0,.1,0,.3,0,.4,0,.1,0,.2,0,.4,0,.2,0,.5.2.7.3l.5.4c.1,0,.2.1.3.2.1.1.3.3.4.4s.2.3.3.4c0,0,0,.1,0,.2.2.3.4.6.4,1,0,.2,0,.4,0,.6,0,.1,0,.3,0,.4,0,.1,0,.3,0,.4v.4c-.2.3-.4.5-.6.8,0,0-.1.1-.2.2s-.1.1-.2.2c0,0,0,0-.2.1,0,0-.2,0-.2.2,0,0-.1.1-.2.2s-.2.1-.3.1h0c0,0,0,.1,0,.1,0,0-.2,0-.2.1s-.2,0-.2.2h-.2c-.1.2-.2.2-.3.3s-.2.1-.3.2l-.9.4s0,0,0,0c0,0,0,0,0,0,0,0-.1,0-.2,0,0,0-.1,0-.2,0,0,0,0,0-.1,0,0,0,0,0-.1,0-.2,0-.3.1-.5.2-.2,0-.3.1-.5.2h0s0,0-.1,0,0,0-.1,0-.1,0-.2,0c0,0,0,0-.2,0s0,0-.2,0h0ZM680.8,746.3c0,0-.2,0-.3,0,0,0-.2,0-.3,0,0,0,0,0-.1,0,0,0,0,0-.1,0,0,0-.2-.2-.2-.2,0-.1,0-.2-.1-.3s0-.2,0-.3v-.2c0,0,0-.2,0-.2,0-.2,0-.3,0-.5s0-.3,0-.5,0-.1,0-.2h0c0-.2,0-.3,0-.4,0,0,0-.2,0-.3,0-.2,0-.4,0-.6v-.4c0-.1,0-.2-.1-.3s0-.2,0-.3v-.5s0-.5,0-.5c0,0,0-.2,0-.3v-.2s0-.2,0-.2c0,0,0-.1,0-.2v-.5c0,0,0-.2,0-.3,0,0,0,0,0-.1v-.5c0,0,0-.1,0-.2,0-.2,0-.3,0-.4,0-.1,0-.3,0-.4s0-.1,0-.2c0,0,0-.2,0-.3v-.2c.2,0,.2-.2.3-.2s.1-.1.2-.2c0,0,.2,0,.2,0h.2c0,0,.2,0,.2.1.2,0,.3.2.3.4v.2c.1,0,.2.1.2.2s0,.2,0,.2c0,.1,0,.2,0,.4,0,.2,0,.3,0,.5,0,0,0,0,0,.2,0,0,0,.1,0,.2v.2c0,0,0,.2,0,.2,0,0,0,0,0,0h0c0,.1,0,.2,0,.2s0,0,0,.1c0,.1,0,.2,0,.3,0,.1,0,.2,0,.3v.2h0c0,.2,0,.2,0,.3s0,.2,0,.2c0,.1,0,.3,0,.4,0,.1,0,.3,0,.4,0,0,0,0,0,.1,0,0,0,0,0,.1,0,0,0,.1,0,.2s0,0,0,.1c0,0,0,.1,0,.2,0,0,0,.1,0,.2v.5c0,.1,0,.2,0,.4,0,.1,0,.2,0,.4s0,.2,0,.4c0,0,0,0,0,0h0c0,.2,0,.2,0,.3v.2c0,0,0,.2,0,.3,0,0,0,.2,0,.3,0,.2,0,.3,0,.4,0,0,0,0,0,.1s0,0,0,0c0,0,0,.1,0,.2-.1.2-.3.3-.5.5h-.1c0,0,0,0,0,0ZM690.2,747.9c-.2,0-.4,0-.6-.2-.2,0-.4-.1-.6-.2,0,0-.2-.1-.3-.2s-.2-.1-.3-.2l-.6-.4s0,0-.1,0c0,0,0,0-.1,0h-.1c0-.1,0-.2,0-.2s0,0-.1,0c0,0-.1,0-.2,0s-.1,0-.2,0c-.1,0-.3-.1-.4-.2s-.2-.2-.4-.2c-.5-.4-.9-.8-1.2-1.2,0,0,0,0,0-.1l-.2-.4c0-.1-.2-.2-.2-.4l-.3-.6c0-.2-.2-.3-.2-.5,0-.2-.1-.3-.2-.5,0,0,0,0,0-.1,0,0,0,0,0-.1,0-.1,0-.2-.1-.4,0,0,0,0,0-.1s0,0,0-.1c0,0,0,0,0,0h0c0-.1,0-.1,0-.1,0,0,0,0,0,0,0,0,0,0,0,0h0s0,0,0,0c0,0,0,0,0-.1h0c0-.2,0-.4,0-.5,0-.1,0-.3,0-.4,0,0,0-.2,0-.2,0,0,0-.2,0-.3,0,0,0,0,0-.1h0c0-.1,0-.1,0-.2,0-.1,0-.2,0-.3,0,0,0-.1,0-.2,0,0,0-.2,0-.2,0,0,0,0,0,0,.1-.2.2-.3.2-.5s0,0,0-.2c0,0,0,0,0-.2,0,0,0,0,0-.2,0-.1,0-.2.1-.2,0,0,0,0,0,0h0c0-.3,0-.4,0-.5,0-.1,0-.3.1-.4,0-.2.2-.3.3-.4l.2-.2c.1,0,.2-.2.2-.3,0,0,0,0,0-.1,0,0,0,0,.1-.1,0,0,0,0,0-.1,0-.1.1-.2.3-.3.1,0,.2,0,.3-.2s.2-.1.3-.2h.2c.1-.1.2-.2.4-.3s.2-.1.4-.2c0,0,0,0,.1,0s0,0,.2,0c0,0,0,0,.2,0,0,0,0,0,.2,0,0,0,.1,0,.2,0,0,0,.1,0,.2,0h.2c0,0,.1,0,.2,0,.1,0,.2,0,.3,0,0,0,.1,0,.2,0,0,0,.1,0,.2.1.1,0,.2.1.3.3.2.3.2.5,0,.8,0,0,0,0,0,0-.1,0-.2.1-.3.2s-.2.1-.3.2h-.1c-.2.2-.3.2-.5.3,0,0-.1,0-.2.1s-.1,0-.2.1c-.2.1-.4.3-.6.5-.4.4-.8.9-1,1.4,0,.1-.1.3-.2.4s-.1.2-.2.4h0s0,0,0,0c0,.2,0,.3-.2.5,0,.2,0,.3-.1.5v.2c0,.2-.1.5-.1.7s0,.5,0,.7v.4c0,.2.1.4.2.5s0,.4.2.5c0,0,0,0,0,.2,0,0,0,0,0,.1,0,0,.1.2.2.3s.1.2.2.3c0,0,0,0,0,0h0s0-.4,0-.4c0-.1,0-.2,0-.3,0-.1,0-.2,0-.3,0,0,0,0,0-.1s0,0,0-.1l.2-.4c0-.1.1-.2.2-.3,0-.1.1-.2.2-.3s.2-.2.2-.3l.4-.4c0,0,.2-.2.3-.2s.2-.1.3-.2l.4-.2c.1,0,.2,0,.4-.1s.3-.1.4-.2c0,0,.2-.2.3-.2,0,0,0,0,.1,0s0,0,0,0c.1,0,.2,0,.3,0,.1,0,.2,0,.3,0,0,0,.2,0,.3,0s.2,0,.3,0c.2,0,.5.2.7.4l.4.4s0,0,0,0c0,0,0,.1.1.2s0,.1.1.2h0c0,.1.1.2.2.3s0,.2.1.2c0,0,0,0,0,0,0,0,0,.1,0,.2s0,.1,0,.2c0,.1,0,.2.1.3,0,0,0,.2,0,.3,0,0,0,.1,0,.2,0,0,0,0,0,.1v1.6c0,.2,0,.3.1.4,0,0,0,0,0,0,0,0,.1.1.1.2,0,0,0,.2,0,.3,0,.1,0,.3,0,.4s0,.2-.2.4c0,.2-.2.3-.4.5,0,0-.2.2-.2.3s-.2.2-.2.3l-.6.7c-.1.2-.2.3-.3.5,0,0,0,0,0,.1h0s0,0,0,0c0,0,0,.1-.1.2s-.1,0-.2,0c0,0-.2,0-.3,0s-.2,0-.3,0c-.2,0-.4,0-.6,0h0ZM690.3,746.1c0,0,.2,0,.2,0,0,0,0,0,.1-.1h.1c.2-.3.3-.4.5-.6.2-.2.3-.3.5-.5,0,0,0,0,0-.1,0,0,0-.1,0-.2,0,0,0,0,0-.1s0,0,0,0c0-.2,0-.4,0-.5s0-.3,0-.5v-.5c.1,0,.1,0,.1,0v-.4c0-.1,0-.2,0-.3s0-.2-.1-.3c0-.1-.1-.3-.2-.4,0-.1-.1-.2-.2-.4,0,0,0,0,0,0,0,0,0,0,0,0s0,0,0,0h-.2c0,0-.1,0-.2,0h-.2c-.1.2-.3.2-.4.2-.1,0-.3,0-.4,0-.1,0-.2,0-.4.2,0,0,0,0,0,0,0,0,0,0,0,0-.2,0-.3.1-.4.2s-.3.2-.4.3c0,0-.1.1-.2.2s0,.2-.1.2c0,.1,0,.2-.1.4s0,.2,0,.3v.2c0,0,0,.1,0,.2v.2c.1.3.3.6.4.9,0,0,0,.1.1.2s0,.1.1.2c0,0,0,0,0,0,0,0,0,0,0,0,0,0,0,0,0,.2,0,0,0,0,.1.2.1.1.2.2.4.4.2.2.5.3.8.4h0ZM680.1,583.6c0,0-.2,0-.3,0,0,0-.2,0-.3,0,0,0,0,0-.1,0,0,0,0,0-.1,0,0,0-.2-.2-.2-.2,0-.1,0-.2-.1-.3s0-.2,0-.3v-.2c0,0,0-.2,0-.2,0-.2,0-.3,0-.5s0-.3,0-.5,0-.1,0-.2h0c0-.2,0-.3,0-.4s0-.2,0-.3c0-.2,0-.4,0-.6v-.4c0-.1,0-.2-.1-.3,0-.1,0-.2,0-.3v-.5s0-.5,0-.5c0,0,0-.2,0-.3v-.2s0-.2,0-.2c0,0,0-.1,0-.2v-.5c0,0,0-.2,0-.3,0,0,0,0,0-.1v-.5c0,0,0-.1,0-.2,0-.2,0-.3,0-.4,0-.1,0-.3,0-.4s0-.1,0-.2c0,0,0-.2,0-.3v-.2c.2,0,.2-.2.3-.2s.1-.1.2-.2c0,0,.2,0,.2,0h.2c0,0,.2,0,.2.1.2,0,.3.2.3.4v.2c.1,0,.2.1.2.2s0,.2,0,.2c0,.1,0,.2,0,.4,0,.2,0,.3,0,.5,0,0,0,0,0,.2,0,0,0,.1,0,.2v.2c0,0,0,.2,0,.2,0,0,0,0,0,0h0c0,.1,0,.2,0,.2s0,0,0,.1c0,.1,0,.2,0,.3,0,.1,0,.2,0,.3v.2h0c0,.2,0,.2,0,.3s0,.2,0,.2c0,.1,0,.3,0,.4s0,.3,0,.4c0,0,0,0,0,.1,0,0,0,0,0,.1,0,0,0,.1,0,.2s0,0,0,.1c0,0,0,.1,0,.2,0,0,0,.1,0,.2v.5c0,.1,0,.2,0,.4,0,.1,0,.2,0,.4s0,.2,0,.4c0,0,0,0,0,0s0,0,0,0c0,0,0,.1,0,.2v.2c0,0,0,.2,0,.3,0,0,0,.2,0,.3,0,.2,0,.3,0,.4,0,0,0,0,0,.1s0,0,0,0c0,0,0,.1,0,.2s0,0-.1.2c-.1.1-.3.2-.4.3h-.1c0,0,0,0,0,0ZM686.4,584.6c0,0-.2,0-.2,0,0,0,0,0-.1,0s0,0,0,0h-.2c0-.2,0-.2-.2-.3,0,0-.1,0-.1-.2,0-.1,0-.2-.1-.4,0-.2,0-.4,0-.6,0,0,0,0,0,0,0-.1.1-.2.2-.3s0-.2,0-.3c0-.2,0-.4.2-.5,0-.2,0-.4.1-.5,0-.2,0-.3,0-.4s0-.3,0-.4c0-.1,0-.2,0-.3s0-.2,0-.4c0,0,0-.2,0-.2v-.2s0-.1,0-.2c0,0,0-.1-.1,0h-.2c0,0-.2,0-.2.1,0,0-.2,0-.2,0,0,0-.2,0-.3.1s-.2.1-.3.2c0,0,0,0-.1,0-.2.1-.4.1-.5,0-.2-.2-.4-.4-.5-.6,0,0,0,0,0-.2,0,0,0,0,0-.2-.1-.3,0-.5,0-.8,0-.1.2-.2.2-.3,0,0,0,0,0,0,0,0,0,0,0,0s0,0,0,0c0,0,.1,0,.2,0,.1,0,.2,0,.4,0s.2,0,.4,0h.1c.1,0,.3,0,.4,0s.3,0,.4,0h.2c0,0,.1,0,.2,0,0,0,.2,0,.2,0,0,0,.1,0,.1-.1,0,0,0,0,0,0,0-.2,0-.4.1-.5l.2-.5c0,0,0-.1,0-.2,0,0,0-.1,0-.2,0-.1,0-.2,0-.3.1-.2.2-.5.2-.7,0,0,0-.1,0-.2s0-.1,0-.2l.2-.7s0,0,0,0,0,0,0,0c0,0,0,0,0,0-.1,0-.3,0-.4,0s-.2,0-.4.1h-.2c-.1,0-.3.2-.4.2s-.3.1-.4.2c0,0-.1,0-.2,0s-.1,0-.2,0c0,0,0,0-.1,0,0,0,0,0,0,0,0,0-.2.1-.3.2l-.2.2c0,0-.1.1-.2.2,0,0-.1.2-.2.3-.1.1-.2.2-.3.2-.1,0-.3,0-.4,0s-.3,0-.4,0c0,0,0,0-.1,0s0,0-.1,0c0,0-.2,0-.2-.2,0,0,0,0-.1-.1,0-.1-.1-.2-.2-.3,0,0,0,0,0,0s0,0,0,0c0,0,0-.2,0-.3,0,0,0-.2,0-.3,0-.2.2-.5.4-.6h.1c0,0,.2-.2.2-.2,0,0,0,0,.2,0,.1,0,.2,0,.4,0,.3,0,.6,0,.9-.1,0,0,.1,0,.2,0s.1,0,.2,0,.1,0,.2,0c0,0,.1,0,.2,0,.2,0,.4-.2.6-.2.2,0,.4-.2.6-.2,0,0,0,0,.1,0,0,0,0,0,0,0,0,0,0,0,0,0,.1,0,.3-.1.4-.2s.3-.1.4-.2c0,0,0,0,0,0s0,0,0,0c0,0,0,0,.1,0s0,0,0,0v-.2c.2,0,.2,0,.3-.1.2-.2.5-.3.9-.3.2,0,.3,0,.4.2.1,0,.2.2.3.3,0,0,0,.2.1.3s0,.2.1.3c0,.2.1.3,0,.5,0,.1,0,.2,0,.3s0,.2,0,.3c0,0,0,.1,0,.2s0,.1-.1.2c0,0,0,0,0,.2,0,0,0,.1,0,.2,0,0,0,.1-.1.2,0,0,0,0,0,0,0,0,0,.1,0,.2,0,0,0,0,0,.1s0,0,0,0c0,0,0,0,0,0s0,0,0,0c0,0,0,0,0,.2v.2s0,0-.1.1c0,0,0,.1,0,.2,0,0,0,0,0,.2s0,0-.2.1h0c0,0-.1.2,0,.3,0,0,0,0,0,.1s0,0,0,.2c0,0,0,.1,0,.2,0,0,0,.1,0,.2h0c0,0,0,.1,0,.2,0,0,0,0,0,.1,0,0,0,0,0,0,0,0,0,0,0,0,0,0,0,0,0,0,0,0,0,0,0,0,0,0,0,0,.1,0,0,0,0,0,0,0,0,0,0,0,0,0,0,0,.2,0,.2,0s.2,0,.2,0c0,0,.2,0,.2.2,0,0,0,0,0,0,0,0,.2.2.2.3,0,0,0,0,0,.1,0,0,0,0,0,.1,0,0,0,.1,0,.2,0,0,0,.1,0,.2,0,0,0,0,0,0,0,0,0,0,0,0,0,0,0,0,0,0h0c0,.1,0,.2,0,.2,0,0,0,0,0,0,0,0-.2,0-.3,0,0,0,0,0-.1,0,0,0-.1,0-.2.2,0,0-.1.1-.3.1h-.2s0,0-.2,0c-.1,0-.3,0-.4,0s0,0,0,0c0,0,0,0,0,0v.2s0,.2,0,.2c0,0,0,.1,0,.2v.2s0,.1,0,.2h0c0,.1,0,.2,0,.3h0v.3s0,0,0,0c0,0,0,0,0,0h0c0,.2,0,.2,0,.3,0,0,0,.1,0,.2,0,0,0,0,0,0h0c0,0-.1.5-.1.5,0,0,0,0,0,0,0,0,0,.2,0,.3s0,.2,0,.3c0,0,0,0,0,.1,0,0,0,0,0,.1,0,0,0,0,0,0,0,0,0,.2,0,.3,0,0,0,.2,0,.3,0,0,0,.1,0,.2,0,0,0,.1,0,.2,0,0,0,.2,0,.2h0c0,.2,0,.2-.1.3s-.1,0-.2.1c0,0,0,0,0,0,0,0,0,0,0,0,0,0-.1,0-.2.1s-.1,0-.2,0h0ZM643.1,583.6c0,0-.2,0-.3,0,0,0-.2,0-.3,0,0,0,0,0-.1,0,0,0,0,0-.1,0,0,0-.2-.2-.2-.2,0-.1,0-.2-.1-.3s0-.2,0-.3v-.2c0,0,0-.2,0-.2,0-.2,0-.3,0-.5,0-.2,0-.3,0-.5,0,0,0-.1,0-.2h0c0-.2,0-.3,0-.4,0,0,0-.2,0-.3,0-.2,0-.4,0-.6v-.4c0-.1,0-.2-.1-.3,0-.1,0-.2,0-.3v-.5c0-.2,0-.3,0-.5,0,0,0-.2,0-.3v-.2c0,0,0-.2,0-.2,0,0,0-.1,0-.2v-.5c0,0,0-.2,0-.3,0,0,0,0,0-.1s0,0,0-.1h0c0-.1,0-.4,0-.4v-.2c0-.2,0-.3,0-.4,0-.1,0-.3,0-.4s0-.1,0-.2c0,0,0-.2,0-.3v-.2c.2,0,.2-.2.3-.2s.1-.1.2-.2c0,0,.2,0,.2,0h.2c0,0,.2,0,.2.1.2,0,.3.2.3.4v.2c.1,0,.2.1.2.2s0,.2,0,.2c0,.1,0,.2,0,.4,0,.2,0,.3,0,.5,0,0,0,0,0,.2,0,0,0,.1,0,.2v.2c0,0,0,.2,0,.2,0,0,0,0,0,0h0c0,.1,0,.2,0,.2s0,0,0,.1c0,.1,0,.2,0,.3s0,.2,0,.3v.2h0c0,.2,0,.2,0,.3s0,.2,0,.2c0,.1,0,.3,0,.4,0,.1,0,.3,0,.4,0,0,0,0,0,.1,0,0,0,0,0,.1,0,0,0,.1,0,.2s0,0,0,.1c0,0,0,.1,0,.2,0,0,0,.1,0,.2v.5c0,.1,0,.2,0,.4,0,.1,0,.2,0,.4s0,.2,0,.4c0,0,0,0,0,0h0c0,.2,0,.2,0,.3v.2c0,0,0,.2,0,.3,0,0,0,.2,0,.3,0,.2,0,.3,0,.4,0,0,0,0,0,.1,0,0,0,0,0,0,0,0,0,.1,0,.2-.1.2-.3.3-.5.5h-.1c0,0,0,0,0,0ZM649.2,584.6h0s-.2,0-.2,0c0,0-.2,0-.3,0,0,0-.2,0-.2,0s-.1,0-.2,0c0,0-.2,0-.2-.1-.1-.1-.3-.2-.4-.3-.1-.1-.2-.2-.3-.4,0,0,0,0,0,0s0,0,0-.1l-.4-.6s0,0,0-.1l-.2-.5s0,0,0-.1c0-.1,0-.3,0-.4,0-.1,0-.3,0-.4v-1.2c-.2-.2-.2-.4-.1-.6,0-.4.2-.8.4-1.1.1-.2.3-.4.5-.6,0,0,0,0,0-.1,0,0,0,0,0-.1.1-.2.3-.3.5-.5h.2c0-.2,0-.2.2-.3l.4-.4c.1,0,.2-.2.2-.3,0,0,0-.2,0-.2,0,0-.2-.2-.2-.2s-.2-.2-.2-.2c0,0,0,0-.1-.1h-.2c-.2-.2-.4-.4-.6-.5h0c0-.2-.2-.3-.3-.4,0-.1-.1-.3-.2-.4,0,0,0,0,0,0s0,0,0,0c0-.2,0-.4,0-.6s.2-.3.3-.5c.1-.1.2-.2.3-.3s.2-.2.3-.2c.1,0,.3-.1.4-.2s.3-.1.4-.2c.2,0,.5-.2.8-.3s.5-.2.8-.2h.3c.1-.1.2-.2.3-.2.1,0,.3,0,.4,0,.1,0,.3,0,.4,0,.1,0,.3,0,.4,0h.3c.2.2.4.3.5.5.1.2.2.3.3.4.1.2.2.4.2.7h0c0,.2,0,.3,0,.4h.2c.4.4.5.9.4,1.4,0,0,0,.2-.1.2s-.1.1-.2.2c-.1,0-.2.1-.3.2s-.2.2-.3.3c0,0-.1.1-.2.2s-.1.1-.2.2c0,0-.1.2-.2.2s-.2.1-.3.2c0,0,0,.1,0,.2,0,0,0,.1,0,.2,0,0,0,0,0,0,0,0,0,0,0,0,0,0,0,0,0,0,0,0,0,0,0,0h0s.2.2.2.2c.3.2.5.4.7.7v.2c.3.2.3.3.4.6,0,.1,0,.3,0,.4s0,.3,0,.4h0c0,.4,0,.8,0,1.2v.5c0,0,0,0,0,0,0,0,0,0,0,0l-.2.5c0,.1,0,.2-.1.3h0c0,.2,0,.3-.1.4s-.1.2-.2.2c-.2.4-.5.7-.8,1.1,0,0,0,.1-.2.2,0,0,0,.1-.2.2,0,0-.2.2-.3.2-.2,0-.3.1-.5.2-.2,0-.3,0-.5.1,0,0-.1,0-.2,0s-.1,0-.2,0c0,0,0,0-.1,0,0,0,0,0-.1,0,0,0-.1,0-.2,0h-.2ZM649.9,582.4c.2,0,.3,0,.4-.2h0c.1-.2.2-.3.4-.4.1-.1.2-.3.4-.4h0c0-.2.2-.3.2-.4s.1-.2.2-.4c0-.2,0-.3.1-.5s0-.3,0-.5v-.3c0,0,0-.2,0-.3,0-.2,0-.3-.2-.5,0-.1-.2-.3-.4-.3h0c-.1,0-.2-.2-.3-.2-.1,0-.2-.2-.3-.3h0c0-.1-.2-.2-.3-.2,0,0,0,0,0,0,0,0,0,0,0,0,0,0,0,0,0,0,0,0,0,0-.1,0s0,0-.1,0c0,0-.2,0-.2.2s-.1,0-.2.2-.1,0-.2,0c0,0,0,0,0,0,0,0,0,0,0,0,0,0,0,.1,0,.2,0,0,0,0,0,.1,0,0-.1,0-.2.1,0,0,0,0,0,.1,0,0,0,0,0,.1,0,0,0,0,0,0,0,0,0,0,0,0,0,0,0,0,0,0,0,.1,0,.2,0,.3,0,0,0,.1,0,.2,0,0,0,0,0,.1,0,0,0,0,0,.1s0,.1,0,.2c0,0,0,0,0,0,0,0,0,0,0,0v.2c0,.1,0,.2,0,.3,0,0,0,.2,0,.3h0c0,.2,0,.2,0,.3,0,0,0,0,0,.1,0,0,.1.2.2.2,0,.1.2.2.3.3,0,0,0,0,.1,0,0,0,0,0,.1,0s0,0,.1,0h.2c0,0,.1,0,.2,0,0,0,.1,0,.2,0h0ZM650.5,574.7c0,0,.2,0,.2,0l.3-.2c0,0,0-.1,0-.2v-.2c0,0-.2-.2-.2-.2,0,0,0-.1-.2-.2,0,0-.1-.2-.2-.3,0-.1-.1-.2-.2-.3,0,0-.1,0-.2,0,0,0-.1,0-.2,0-.1,0-.2,0-.3,0,0,0-.1,0-.2,0,0,0-.1,0-.2,0s0,0-.1,0c0,0,0,0,0,0h0s0,0,0,0c.3.2.5.3.7.5,0,0,.1.1.2.2s.1.1.2.2c0,0,.1.1.2.2,0,0,0,0,0,0h0ZM649.1,755.2c0,0-.2,0-.3,0,0,0-.2,0-.3,0,0,0,0,0-.1,0,0,0,0,0-.1,0,0,0-.2-.2-.2-.2,0-.1,0-.2-.1-.3s0-.2,0-.3v-.2c0,0,0-.2,0-.2,0-.2,0-.3,0-.5s0-.3,0-.5,0-.1,0-.2h0c0-.2,0-.3,0-.4,0,0,0-.2,0-.3,0-.2,0-.4,0-.6v-.4c0-.1,0-.2-.1-.3s0-.2,0-.3v-.5s0-.5,0-.5c0,0,0-.2,0-.3v-.2c0,0,0-.2,0-.2,0,0,0-.1,0-.2v-.5c0,0,0-.2,0-.3,0,0,0,0,0-.1v-.5s0-.2,0-.2c0-.2,0-.3,0-.4,0-.1,0-.3,0-.4s0-.1,0-.2c0,0,0-.2,0-.3v-.2c.2,0,.2-.2.3-.2s.1-.1.2-.2c0,0,.2,0,.2,0h.2c0,0,.2,0,.2.1.2,0,.3.2.3.4v.2c.1,0,.2.1.2.2s0,.2,0,.2c0,.1,0,.2,0,.4,0,.2,0,.3,0,.5,0,0,0,0,0,.2,0,0,0,.1,0,.2s0,.2,0,.2c0,0,0,.2,0,.2,0,0,0,0,0,0h0c0,.1,0,.2,0,.2s0,0,0,.1c0,.1,0,.2,0,.3,0,.1,0,.2,0,.3s0,0,0,0h0c0,0,0,.2,0,.2,0,0,0,.2,0,.2v.2c0,.1,0,.3,0,.4,0,.1,0,.3,0,.4,0,0,0,0,0,.1,0,0,0,0,0,.1,0,0,0,.1,0,.2s0,0,0,.1c0,0,0,.1,0,.2,0,0,0,.1,0,.2v.5c0,.1,0,.2,0,.4,0,.1,0,.2,0,.4s0,.2,0,.4c0,0,0,0,0,0h0c0,.2,0,.2,0,.3v.2c0,0,0,.2,0,.3,0,0,0,.2,0,.3,0,.2,0,.3,0,.4,0,0,0,0,0,.1s0,0,0,0c0,0,0,.1,0,.2-.1.2-.3.3-.5.5h-.1c0,0,0,0,0,0ZM658.1,756.1s0,0-.2,0c0,0,0,0-.1,0-.1,0-.2-.1-.2-.1,0,0-.1-.1-.2-.2s0-.2-.1-.2h0c0-.1,0-.3,0-.4s0-.2,0-.4c0,0,0,0,0,0v-.3c0,0,0-.2,0-.3,0-.1,0-.2,0-.4,0-.1,0-.2,0-.4h0c0-.1,0-.4,0-.4v-.3c0-.1,0-.2,0-.4v-.4c0-.2.1-.5.2-.7v-.7c.1,0,.1-.3.1-.3,0,0,0-.1,0-.2,0,0,0-.1,0-.1,0,0,0,0,0,0,0,0,0-.1,0-.2,0,0,0-.2,0-.2,0-.1,0-.3,0-.5,0,0,0,0,0,0h0c-.1,0-.3.2-.4.2-.1,0-.3.1-.4.2-.3.1-.6.2-.8.3s-.6.1-.9.2h-.8c-.3.2-.5.2-.8,0,0,0,0,0,0,0,0,0,0,0,0,0,0,0-.1,0-.2-.1,0,0-.1,0-.2,0,0,0,0,0,0,0,0,0,0,0,0,0s0,0,0-.1c0,0,0-.1,0-.2,0,0,0-.1,0-.2,0,0,0,0,0,0,0,0-.1,0-.2-.1,0,0-.1-.1-.2-.2,0,0-.1-.2-.2-.2,0,0-.1-.2-.2-.2,0,0,0,0,0-.1,0,0,0,0,0-.2,0-.1,0-.2,0-.3s0-.2,0-.3l-.2-.5c0-.1,0-.2,0-.3,0-.1,0-.2,0-.4h0c0-.2,0-.3,0-.5s0-.2.1-.4c0-.1.1-.2.2-.3s.1-.2.2-.3c0-.2.2-.3.3-.4s.2-.3.2-.4l.2-.2c0,0,0-.2.2-.2,0,0,0,0,0,0,0,0,0,0,0,0,0,0,0,0,0,0,0,0,.1,0,.1,0l.3-.2c0,0,.1,0,.2,0s.1,0,.2,0c.1,0,.3,0,.4,0s.3,0,.4,0h.3c0,0,.2,0,.3,0,.2,0,.4,0,.5,0s.3,0,.5.2c.2,0,.5.2.7.3s.4.2.7.3c0,0,0,0,0,0,0,0,0,0,0,0,0,0,0,0,0,0,0,0,0,0,0,0,0,0,0,0,0,0,0-.1,0-.2,0-.3,0-.1,0-.2,0-.3,0,0,0-.2.1-.2,0,0,.1,0,.2,0s0,0,.1-.1c0,0,0,0,0,0,.2,0,.4-.1.5,0,0,0,0,0,0,0,.2,0,.4.2.5.4,0,0,0,0,0,0,0,0,0,0,0,0,0,.2,0,.3,0,.5v4.7s0,0,0,.1c0,.1,0,.3,0,.4s0,.3,0,.4v.4c0,.1,0,.3,0,.4v.8c0,0,0,.3,0,.3,0,0,0,.2,0,.3,0,.2,0,.3,0,.5s0,.3,0,.5c0,0,0,0,0,.1h0c0,.2,0,.3,0,.4s0,.2,0,.2v.2s0,.3,0,.3c0,0,0,0,0,.1v.6c0,0-.2.6-.2.6,0,0,0,.1,0,.2,0,0,0,.1,0,.2v.3c-.1.1-.2.2-.3.3,0,0-.1,0-.1.1,0,0,0,0-.1.1,0,0,0,0-.2,0h0s0,0,0,0c0,0,0,0,0,0h0ZM654.9,747.8c.1,0,.2,0,.3,0h.5s.1,0,.2,0,.1,0,.2,0c.1,0,.2,0,.3,0,0,0,0,0,.2,0,0,0,0,0,.2,0,0,0,.1,0,.2,0s.2,0,.2,0c.2,0,.3-.2.3-.5h0c0-.2,0-.2,0-.3v-.3c0-.1,0-.3,0-.4s0-.2,0-.4c0-.2-.1-.3-.2-.4s-.2-.2-.4-.3h-.1c-.2-.1-.3-.2-.5-.3s-.3-.1-.5-.2c0,0-.2,0-.3,0,0,0-.2,0-.3,0,0,0-.2,0-.3,0,0,0-.2,0-.3,0-.2,0-.3.1-.4.3v.2c0,0-.1,0-.1.1,0,0,0,0,0,0,0,0-.1.1-.2.2,0,0,0,.1-.1.2s0,.1-.1.2c0,0,0,.1,0,.2,0,0,0,.1,0,.1v.3c.1.1.2.2.2.3,0,.1,0,.2,0,.3,0,0,0,.1.2.2h.1c.1.2.2.3.3.4,0,0,0,0,.1.1s.1,0,.2.1c0,0,.1,0,.2,0h0ZM601.9,755.5s0,0,0,0h-.3c0,0,0,0,0,0,0,0,0,0,0,0,0,0,0,0-.1,0s-.1,0-.2,0c-.1,0-.3,0-.4,0-.1,0-.3,0-.4-.1h-.1c-.2-.1-.3-.3-.4-.4,0,0,0,0,0-.2,0,0,0,0,0-.2,0,0,0,0,0-.1,0-.3.2-.5.3-.7,0,0,.2-.2.2-.2s.2-.2.3-.2.2-.1.3-.2.2-.1.3-.2c.2-.1.4-.3.6-.4s.4-.3.5-.4c.3-.2.5-.5.7-.9,0-.2.2-.5.3-.7,0-.2.2-.4.2-.6,0-.2.1-.4.2-.5s.1-.4.2-.5c0-.2,0-.3.1-.5s0-.3,0-.5c0-.2,0-.4,0-.6,0,0,0-.1-.2-.2,0,0-.1,0-.2,0,0,0-.1,0-.2,0,0,0-.1,0-.2,0,0,0,0,0,0,0s0,0,0,0c-.3.1-.6.3-.8.5,0,0,0,0-.1.1h-.1c0,.2-.2.3-.3.4,0,0-.1.1-.2.2s-.1.1-.2.2c-.1.1-.2.3-.3.5,0,.2-.2.4-.4.5-.1,0-.2.2-.3.3,0,.1-.2.2-.3.3-.1,0-.2,0-.3,0l-.2-.2c0,0-.1-.1-.2-.2s-.1-.2-.2-.2c0,0,0,0,0,0,0,0,0,0,0,0,0,0,0-.1,0-.2s0-.1,0-.2c0,0,0,0,0-.1,0,0,0,0,0-.2v-.2h0c0-.2,0-.2,0-.2,0-.2.2-.4.4-.6.3-.3.7-.6,1-.8,0,0,0,0,.1,0s0,0,.2,0c.2-.1.3-.2.4-.3.1,0,.3-.2.4-.3.1,0,.2-.2.3-.3s.2-.2.4-.2c.2,0,.3-.2.4-.2s.3,0,.5-.1c0,0,0,0,0,0h0c.2,0,.3,0,.4,0,.2,0,.3,0,.4.1.2,0,.4.2.6.3,0,0,0,0,0,0,.1.1.2.2.3.4s.2.3.2.5c0,0,0,.2,0,.3s0,.2,0,.3v.2s0,0,0,.2c0,.4,0,.8-.2,1.2,0,0,0,.2,0,.2,0,0,0,.2,0,.3s0,.2,0,.3,0,.2-.1.3c0,.2-.1.3-.2.4s-.1.3-.2.4c0,.1,0,.3-.1.4v.4c-.2.2-.2.3-.3.5s-.1.3-.2.5c-.2.3-.4.6-.6.8,0,0,0,0-.2.1l-.2.2h0c0,0,0,0,0,0h.3s.2,0,.2,0h.9c0-.1,0-.1,0-.1.2,0,.3,0,.4,0,.2,0,.3,0,.4,0h0c.2,0,.3,0,.5,0h.7c0,0,.2,0,.2,0,0,0,.1,0,.2,0,0,0,.1,0,.2,0,0,0,.1,0,.2,0,.3,0,.6,0,.9.3.2.2.2.3.3.5h0c0,.4,0,.6-.1.8,0,0,0,.1-.1.2,0,0,0,0,0,0s-.1,0-.2,0-.1,0-.2,0c0,0,0,0,0,0s0,0,0,0c-.1,0-.2,0-.3,0-.1,0-.2,0-.3,0-.2,0-.4-.1-.6-.1h-.2s-.1,0-.2,0h-.1s-.6,0-.6,0c0,0-.1,0-.2,0,0,0-.2,0-.2,0s-.2,0-.2,0c0,0,0,0-.1,0,0,0,0,0-.1,0h0s0,0-.1,0c-.1,0-.2,0-.2,0,0,0-.1,0-.3,0h-.2c0,0-.1,0-.2,0,0,0-.1,0-.2,0,0,0,0,0-.1,0s0,0-.1,0c-.1,0-.3,0-.4,0,0,0,0,0-.1,0s0,0-.1,0c0,0,0,0,0,0,0,0,0,0,0,0,0,0,0,0-.1,0,0,0,0,0,0,0s0,0,0,0h-.2s-.1,0-.2,0-.2,0-.2,0h0ZM615.7,756.1c-.1,0-.3,0-.4,0-.1,0-.3,0-.4,0-.3,0-.7-.1-.9-.2h-.2c-.1,0-.2-.1-.3-.2s-.2,0-.3-.1c0,0-.2,0-.3-.1,0,0-.2,0-.3-.1h0c0-.1-.2-.2-.3-.2s-.2,0-.3-.1c-.1,0-.2-.1-.3-.2,0,0-.2-.2-.3-.2,0,0,0,0,0,0,0-.1-.1-.2-.2-.3s-.1-.2-.2-.3v-.3c-.2,0-.2-.1-.2-.2s0-.1,0-.2c0-.1,0-.3,0-.4s0-.2,0-.3c0,0,0-.2,0-.3,0,0,0-.1,0-.2,0,0,0-.1,0-.2v-.2c0,0,0-.1,0-.2,0,0,0-.1,0-.2,0,0,0,0,0,0s0,0,0,0c0,0,0,0,0-.1h0c0-.2,0-.4,0-.5,0,0,0,0,0,0,0,0,0,0,0,0v-.2c0-.1,0-.2.1-.3s0-.2.1-.3c0,0,0-.1,0-.2,0,0,0,0,0,0h0c0-.2,0-.2,0-.3,0,0,0,0,.2-.1,0,0,0,0,0,0,0,0,0,0,0,0h0c0-.1,0-.2,0-.3s0-.1,0-.2c0-.2,0-.3.2-.5,0,0,.1-.1.1-.2,0,0,0,0,0,0,0,0,0,0,0,0,.1-.2.2-.3.2-.5s.1-.3.2-.5c0,0,0,0,0,0,0,0,0-.2.2-.2,0,0,0,0,0,0s0,0,0,0c0,0,.1-.1,0-.2,0,0,0,0,0-.1s0,0,0-.1c0-.1,0-.2,0-.2h.1c0,0,.1-.1.2-.2s0,0,0-.1c0,0,0,0,0,0,0,0,0,0,0,0,0-.1,0-.2.2-.3,0,0,0,0,0,0,0,0-.1-.1-.2-.2,0,0-.1-.1-.2-.2,0,0,0,0-.2-.2,0,0,0-.1-.1-.2,0,0,0,0,0,0h0c0-.2,0-.2,0-.3h0c0-.1,0-.2,0-.3,0,0,0,0,0-.1,0,0,0,0,0-.1,0,0,0,0,0,0,0,0,0,0,0,0,0,0,0,0,.1,0,0,0,.1,0,.1-.1,0,0,0,0,0,0,0,0,.2,0,.2,0,0,0,.2,0,.2,0,0,0,.2,0,.2,0,.1,0,.2,0,.3.1,0,0,.2,0,.3.1h.2c0,0,.2,0,.2,0,0,0,0,0,.2-.1s0,0,.1-.1c.1-.1.2-.2.4-.2,0,0,0,0,0,0h.3c.1,0,.2,0,.3,0s.2,0,.3,0c0,0,0,0,0,0,0,0,0,.1.2.1s.1,0,.2,0c0,0,0,0,.2,0s.2,0,.2.1c0,0,0,0,0,.1,0,0,0,.1.1.1,0,0,0,0,0,0s0,0,0,0c0,0,0,.1,0,.2,0,.2-.2.4-.4.5,0,0,0,0-.1,0h-.2s0,0-.2,0c0,0,0,0,0,0,0,0,0,0,0,0h0c0,0,0,.1,0,.1,0,0,0,0,0,0,0,0,.2.1.2.2s.1.1.2.2c0,0,.1.2.2.2s.1.2.2.2c0,0,0,.2.2.2l.2.2.2.3c0,0,.1.2.2.3s.1.2.2.3c.1.2.2.3.3.5,0,.2.2.3.3.5.2.3.3.7.5,1,.1.2.2.5.3.8s.1.5.2.8l.2.8c0,0,0,.2,0,.3,0,0,0,.2,0,.3,0,.2,0,.4-.2.6,0,.2-.2.5-.3.7,0,.2-.1.3-.2.5s-.2.3-.2.5c-.1.2-.2.4-.4.6,0,0,0,.1-.1.2,0,0,0,.1-.1.2,0,0-.1.1-.2.2s-.1.1-.2.2l-.2.2c0,0-.2.1-.3.2s-.2.1-.3.2c-.2,0-.4.2-.6.2-.2,0-.5.1-.8.1h0s0,0,0,0h-.3ZM615.2,754.2h.2c0,0,.1,0,.2,0,0,0,.2,0,.2,0,0,0,.2,0,.2,0s.2,0,.2,0c0,0,.1,0,.2,0,.1,0,.3-.1.5-.2,0,0,.1,0,.2-.1,0-.1.2-.2.4-.3,0,0,0,0,.1-.1,0,0,0-.1.2-.2,0,0,0-.1.1-.2l.2-.5c0-.2.2-.3.2-.5,0-.2.1-.4,0-.5h0c0-.2,0-.3,0-.3,0,0,0-.2,0-.2,0-.2,0-.3-.1-.5v-.5c-.1-.2-.2-.5-.3-.7s-.2-.4-.3-.7c0-.2-.2-.3-.3-.5s-.2-.3-.3-.5c0,0,0-.2-.1-.2,0-.1-.1-.2-.2-.3s-.1-.2-.2-.3l-.5-.7c0-.1-.1-.2-.2-.3s-.2-.2-.2-.2c0,0,0,0,0,0,0,0,0,0,0,0h0s0,0,0,0l-.5.7c-.4.5-.7,1.1-1,1.8,0,.2-.2.4-.3.7s-.2.5-.3.7c0,.2-.2.5-.3.8s-.2.5-.2.8c-.1.3-.2.7-.2,1,0,0,0,0,0,.1,0,0,0,.2,0,.3s0,.2,0,.3c0,.2.2.4.3.6l.4.3c.1,0,.2.2.4.3s.3.2.4.2c.2,0,.3.1.5.2s.3,0,.5,0h0ZM597.1,581s0,0,0,0h-.3c0,0,0,0,0,0,0,0,0,0,0,0,0,0,0,0-.1,0s-.1,0-.2,0c-.1,0-.3,0-.4,0-.1,0-.3,0-.4-.1h-.1c-.2-.1-.3-.3-.4-.4,0,0,0,0,0-.2,0,0,0,0,0-.2,0,0,0,0,0-.1,0-.3.2-.5.3-.7,0,0,.2-.2.2-.2s.2-.2.3-.2.2-.1.3-.2.2-.1.3-.2c.2-.1.4-.3.6-.4s.4-.3.5-.4c.3-.2.5-.5.7-.9,0-.2.2-.5.3-.7,0-.2.2-.4.2-.6,0-.2.1-.4.2-.5s.1-.4.2-.5c0-.2,0-.3.1-.5s0-.3,0-.5c0-.2,0-.4,0-.6,0,0,0-.1-.2-.2,0,0-.1,0-.2,0,0,0-.1,0-.2,0,0,0-.1,0-.2,0,0,0,0,0,0,0s0,0,0,0c-.3.1-.6.3-.8.5,0,0,0,0-.1.1h-.1c0,.2-.2.3-.3.4,0,0-.1.1-.2.2s-.1.1-.2.2c-.1.1-.2.3-.3.5,0,.2-.2.4-.4.5-.1,0-.2.2-.3.3,0,.1-.2.2-.3.3-.1,0-.2,0-.3,0l-.2-.2c0,0-.1-.1-.2-.2s-.1-.2-.2-.2c0,0,0,0,0,0,0,0,0,0,0,0,0,0,0-.1,0-.2s0-.1,0-.2c0,0,0,0,0-.1,0,0,0,0,0-.2v-.2h0c0-.2,0-.2,0-.2,0-.2.2-.4.4-.6.3-.3.7-.6,1-.8,0,0,0,0,.1,0s0,0,.2,0c.2-.1.3-.2.4-.3.1,0,.3-.2.4-.3.1,0,.2-.2.3-.3s.2-.2.4-.2c.2,0,.3-.2.4-.2s.3,0,.5-.1c0,0,0,0,0,0h0c.2,0,.3,0,.4,0,.2,0,.3,0,.4.1.2,0,.4.2.6.3,0,0,0,0,0,0,.1.1.2.2.3.4s.2.3.2.5c0,0,0,.2,0,.3s0,.2,0,.3v.2s0,0,0,.2c0,.4,0,.8-.2,1.2,0,0,0,.2,0,.2,0,0,0,.2,0,.3s0,.2,0,.3,0,.2-.1.3c0,.2-.1.3-.2.4s-.1.3-.2.4c0,.1,0,.3-.1.4v.4c-.2.2-.2.3-.3.5s-.1.3-.2.5c-.2.3-.4.6-.6.8,0,0,0,0-.2.1l-.2.2h0c0,0,0,0,0,0h.3s.2,0,.2,0h.9c0-.1,0-.1,0-.1.2,0,.3,0,.4,0,.2,0,.3,0,.4,0h0c.2,0,.3,0,.5,0h.7c0,0,.2,0,.2,0,0,0,.1,0,.2,0,0,0,.1,0,.2,0,0,0,.1,0,.2,0,.3,0,.6,0,.9.3.2.2.2.3.3.5h0c0,.4,0,.6-.1.8,0,0,0,.1-.1.2,0,0,0,0,0,0s-.1,0-.2,0-.1,0-.2,0c0,0,0,0,0,0s0,0,0,0c-.1,0-.2,0-.3,0-.1,0-.2,0-.3,0-.2,0-.4-.1-.6-.1h-.2s-.1,0-.2,0h-.1s-.6,0-.6,0c0,0-.1,0-.2,0,0,0-.2,0-.2,0s-.2,0-.2,0c0,0,0,0-.1,0,0,0,0,0-.1,0h0s0,0-.1,0c-.1,0-.2,0-.2,0,0,0-.1,0-.3,0h-.2c0,0-.1,0-.2,0,0,0-.1,0-.2,0,0,0,0,0-.1,0s0,0-.1,0c-.1,0-.3,0-.4,0,0,0,0,0-.1,0s0,0-.1,0c0,0,0,0,0,0,0,0,0,0,0,0,0,0,0,0-.1,0,0,0,0,0,0,0s0,0,0,0h-.2s-.1,0-.2,0-.2,0-.2,0h0ZM607.7,581.8c0,0-.1,0-.2,0,0,0,0,0-.1,0,0,0,0,0-.1,0,0,0,0,0-.1,0s0,0,0-.1c0,0,0,0,0,0,0,0-.1,0-.1-.1,0,0,0-.2,0-.2,0,0,0-.2,0-.2v-.4c0-.1,0-.2,0-.3v-.3s0,0,0-.1c0,0,0-.1,0-.2,0-.2,0-.5,0-.7,0,0,0-.1,0-.2s0-.1,0-.2v-.4c0-.1,0-.3,0-.4v-.6c0,0,0-.2,0-.3v-.4c0-.1,0-.2,0-.4,0,0,0,0,0-.1v-.2s0-.2,0-.2v-1c0,0,0-.3,0-.3v-.3c0-.2,0-.3,0-.5s0-.3,0-.5h0c0-.1,0-.1,0-.1,0-.2,0-.3,0-.5,0-.2,0-.3,0-.5v-.6c0-.2-.1-.5,0-.7,0-.1,0-.2.1-.3,0,0,0,0,0,0s0,0,0,0c0,0,0,0,0-.1s0,0,0,0h0s0,0,0,0h0s0,0,0,0,0,0,0,0c0,0,0,0,0,0,0,0,0,0,0,0,0,0,0,0,0,0,0,0,.1,0,.2,0s.1,0,.2,0c0,0,.1,0,.2.2,0,.1,0,.2.1.3s0,.2,0,.3v.2c0,0,0,.2,0,.3v.6c0,0,0,.2,0,.2h0c0,.1,0,.2,0,.2v.2c0,0,0,.2,0,.3,0,.2,0,.3,0,.5s0,.3,0,.5v.2c0,0,0,.1,0,.2,0,0,0,0,0,.1v.5c0,0,0,.2,0,.2,0,0,0,.2,0,.3v1.2c0,0,0,.4,0,.4v.6c0,0,0,.1,0,.2,0,0,0,0,0,.1h0c0,.1,0,.2,0,.2h0c0,.2,0,.3,0,.4v.7c0,0,0,.1,0,.2v.2c0,0,0,.1,0,.2s0,.1,0,.2c0,0,0,0,0,0,0,.2,0,.3,0,.4,0,.2,0,.3,0,.4,0,0,0,0,0,.1h0c0,.1,0,.2,0,.2,0,0,0,.1-.1.2,0,0,0,0,0,0,0,0-.2,0-.2.2-.1,0-.2.1-.4.1h0ZM474.9,630.1s0,0,0,0h-.3c0,0,0,0,0,0,0,0,0,0,0,0,0,0,0,0-.1,0h-.2c-.1,0-.3,0-.4,0-.1,0-.3,0-.4-.1h-.1c-.2-.1-.3-.3-.4-.4,0,0,0,0,0-.2,0,0,0,0,0-.2,0,0,0,0,0-.1,0-.3.2-.5.3-.7,0,0,.2-.2.2-.2s.2-.2.3-.2.2-.1.3-.2.2-.1.3-.2c.2-.1.4-.3.6-.4s.4-.3.5-.4c.3-.2.5-.5.7-.9,0-.2.2-.5.3-.7,0-.2.2-.4.2-.6,0-.2.1-.4.2-.5s.1-.4.2-.5c0-.2,0-.3.1-.5s0-.3,0-.5c0-.2,0-.4,0-.6,0,0,0-.1-.2-.2,0,0-.1,0-.2,0,0,0-.1,0-.2,0,0,0-.1,0-.2,0,0,0,0,0,0,0s0,0,0,0c-.3.1-.6.3-.8.5,0,0,0,0-.1.1h-.1c0,.2-.2.3-.3.4,0,0-.1.1-.2.2s-.1.1-.2.2c-.1.1-.2.3-.3.5,0,.2-.2.4-.4.5-.1,0-.2.2-.3.3,0,.1-.2.2-.3.3-.1,0-.2,0-.3,0l-.2-.2c0,0-.1-.1-.2-.2,0,0-.1-.1-.2-.2,0,0,0,0,0,0,0,0,0,0,0,0,0,0,0-.1,0-.2s0-.1,0-.2c0,0,0,0,0-.1,0,0,0,0,0-.2v-.2h0c0-.1,0-.2,0-.2,0-.2.2-.4.4-.6.3-.3.7-.6,1-.8,0,0,0,0,.1,0s0,0,.2,0c.2-.1.3-.2.4-.3.1,0,.3-.2.4-.3.1,0,.2-.2.3-.3s.2-.2.4-.2c.2,0,.3-.2.4-.2s.3,0,.5-.1c0,0,0,0,0,0h0c.2,0,.3,0,.4,0,.2,0,.3,0,.4.1.2,0,.4.2.6.3,0,0,0,0,0,0,.1.1.2.2.3.4s.2.3.2.5c0,0,0,.2,0,.3s0,.2,0,.3v.2s0,.2,0,.2c0,.4,0,.8-.2,1.2,0,0,0,.2,0,.2,0,0,0,.2,0,.3s0,.2,0,.3,0,.2-.1.3c0,.2-.1.3-.2.4s-.1.3-.2.4c0,.1,0,.3-.1.4v.4c-.2.2-.2.3-.3.5s-.1.3-.2.5c-.2.3-.4.6-.6.8,0,0,0,0-.2.1l-.2.2h0c0,0,0,0,0,0h.3s.2,0,.2,0h.9c0-.1,0-.1,0-.1.2,0,.3,0,.4,0,.2,0,.3,0,.4,0h0c.2,0,.3,0,.5,0h.7c0,0,.2,0,.2,0,0,0,.1,0,.2,0,0,0,.1,0,.2,0,0,0,.1,0,.2,0,.3,0,.6,0,.9.3.2.2.2.3.3.5h0c0,.4,0,.6-.1.8,0,0,0,.1-.1.2,0,0,0,0,0,0s-.1,0-.2,0-.1,0-.2,0c0,0,0,0,0,0s0,0,0,0c-.1,0-.2,0-.3,0-.1,0-.2,0-.3,0-.2,0-.4-.1-.6-.1h-.2s-.1,0-.2,0h-.1s-.6,0-.6,0c0,0-.1,0-.2,0,0,0-.2,0-.2,0s-.2,0-.2,0c0,0,0,0-.1,0s0,0-.1,0h0s0,0-.1,0c-.1,0-.2,0-.2,0,0,0-.1,0-.3,0h-.2c0,0-.1,0-.2,0,0,0-.1,0-.2,0,0,0,0,0-.1,0s0,0-.1,0c-.1,0-.3,0-.4,0,0,0,0,0-.1,0s0,0-.1,0c0,0,0,0,0,0,0,0,0,0,0,0,0,0,0,0-.1,0,0,0,0,0,0,0s0,0,0,0h-.2s-.1,0-.2,0-.2,0-.2,0h0ZM486.6,630.1s0,0,0,0h-.3c0,0,0,0,0,0,0,0,0,0,0,0,0,0,0,0-.1,0h-.2c-.1,0-.3,0-.4,0-.1,0-.3,0-.4-.1h-.1c-.2-.1-.3-.3-.4-.4,0,0,0,0,0-.2,0,0,0,0,0-.2,0,0,0,0,0-.1,0-.3.2-.5.3-.7,0,0,.2-.2.2-.2s.2-.2.3-.2.2-.1.3-.2.2-.1.3-.2c.2-.1.4-.3.6-.4s.4-.3.5-.4c.3-.2.5-.5.7-.9,0-.2.2-.5.3-.7,0-.2.2-.4.2-.6,0-.2.1-.4.2-.5s.1-.4.2-.5c0-.2,0-.3.1-.5s0-.3,0-.5c0-.2,0-.4,0-.6,0,0,0-.1-.2-.2,0,0-.1,0-.2,0,0,0-.1,0-.2,0,0,0-.1,0-.2,0,0,0,0,0,0,0s0,0,0,0c-.3.1-.6.3-.8.5,0,0,0,0-.1.1h-.1c0,.2-.2.3-.3.4,0,0-.1.1-.2.2s-.1.1-.2.2c-.1.1-.2.3-.3.5,0,.2-.2.4-.4.5-.1,0-.2.2-.3.3,0,.1-.2.2-.3.3-.1,0-.2,0-.3,0l-.2-.2c0,0-.1-.1-.2-.2,0,0-.1-.1-.2-.2,0,0,0,0,0,0,0,0,0,0,0,0,0,0,0-.1,0-.2s0-.1,0-.2c0,0,0,0,0-.1,0,0,0,0,0-.2v-.2h0c0-.2,0-.2,0-.2,0-.2.2-.4.4-.6.3-.3.7-.6,1-.8,0,0,0,0,.1,0s0,0,.2,0c.2-.1.3-.2.4-.3.1,0,.3-.2.4-.3.1,0,.2-.2.3-.3s.2-.2.4-.2c.2,0,.3-.2.4-.2s.3,0,.5-.1c0,0,0,0,0,0h0c.2,0,.3,0,.4,0,.2,0,.3,0,.4.1.2,0,.4.2.6.3,0,0,0,0,0,0,.1.1.2.2.3.4s.2.3.2.5c0,0,0,.2,0,.3s0,.2,0,.3v.2s0,0,0,.2c0,.4,0,.8-.2,1.2,0,0,0,.2,0,.2,0,0,0,.2,0,.3s0,.2,0,.3,0,.2-.1.3c0,.2-.1.3-.2.4s-.1.3-.2.4c0,.1,0,.3-.1.4v.4c-.2.2-.2.3-.3.5s-.1.3-.2.5c-.2.3-.4.6-.6.8,0,0,0,0-.2.1l-.2.2h0c0,0,0,0,0,0h.3s.2,0,.2,0h.9c0-.1,0-.1,0-.1.2,0,.3,0,.4,0,.2,0,.3,0,.4,0h0c.2,0,.3,0,.5,0h.7c0,0,.2,0,.2,0,0,0,.1,0,.2,0,0,0,.1,0,.2,0,0,0,.1,0,.2,0,.3,0,.6,0,.9.3.2.2.2.3.3.5h0c0,.4,0,.6-.1.8,0,0,0,.1-.1.2,0,0,0,0,0,0s-.1,0-.2,0-.1,0-.2,0c0,0,0,0,0,0s0,0,0,0c-.1,0-.2,0-.3,0-.1,0-.2,0-.3,0-.2,0-.4-.1-.6-.1h-.2s-.1,0-.2,0h-.1s-.6,0-.6,0c0,0-.1,0-.2,0,0,0-.2,0-.2,0s-.2,0-.2,0c0,0,0,0-.1,0,0,0,0,0-.1,0h0s0,0-.1,0c-.1,0-.2,0-.2,0,0,0-.1,0-.3,0h-.2c0,0-.1,0-.2,0,0,0-.1,0-.2,0,0,0,0,0-.1,0s0,0-.1,0c-.1,0-.3,0-.4,0,0,0,0,0-.1,0s0,0-.1,0c0,0,0,0,0,0,0,0,0,0,0,0,0,0,0,0-.1,0,0,0,0,0,0,0s0,0,0,0h-.2s-.1,0-.2,0-.2,0-.2,0h0ZM302.6,622.1s0,0,0,0h-.3c0,0,0,0,0,0,0,0,0,0-.1,0,0,0,0,0-.1,0h-.2c-.1,0-.3,0-.4,0-.1,0-.3,0-.4-.1h-.1c-.2-.1-.3-.3-.4-.4,0,0,0,0,0-.2s0,0,0-.2c0,0,0,0,0-.1,0-.3.1-.5.3-.7,0,0,.2-.2.2-.2s.2-.2.3-.2.2-.1.3-.2.2-.1.3-.2c.2-.1.4-.3.6-.4s.4-.3.5-.4c.3-.2.5-.5.7-.9,0-.2.2-.5.3-.7,0-.2.2-.4.2-.6,0-.2.1-.4.2-.5s.1-.4.2-.5c0-.2.1-.3.1-.5s0-.3,0-.5c0-.2,0-.4,0-.6,0,0,0-.1-.2-.2,0,0-.1,0-.2,0,0,0-.1,0-.2,0,0,0-.1,0-.2,0,0,0,0,0,0,0s0,0,0,0c-.3.1-.6.3-.8.5,0,0,0,0-.1.1h-.1c0,.2-.2.3-.3.4,0,0-.1.1-.2.2,0,0-.1.1-.2.2-.1.1-.2.3-.3.5,0,.2-.2.4-.4.5-.1,0-.2.2-.3.3,0,.1-.2.2-.3.3-.1,0-.2,0-.3,0l-.2-.2c0,0-.1-.1-.2-.2,0,0-.1-.1-.2-.2,0,0,0,0,0,0s0,0,0,0c0,0,0-.1,0-.2s0-.1,0-.2c0,0,0,0,0-.1,0,0,0,0,0-.2v-.2h0c0-.1,0-.2,0-.2,0-.2.2-.4.4-.6.3-.3.7-.6,1-.8,0,0,0,0,.1,0s.1,0,.1,0c.1-.1.3-.2.4-.3s.3-.2.4-.3c.1,0,.2-.2.4-.3s.2-.2.4-.2c.1,0,.3-.2.4-.2s.3,0,.5-.1c0,0,0,0,.1,0h.1c.1,0,.3,0,.4,0,.1,0,.3,0,.4.1.2,0,.4.2.6.3,0,0,0,0,.1,0,.1.1.2.2.4.4.1.1.2.3.2.5,0,0,0,.2.1.3s0,.2,0,.3v.2s0,.2,0,.2c0,.4,0,.8-.2,1.2,0,0,0,.2,0,.2s0,.2,0,.3,0,.2,0,.3,0,.2-.1.3c0,.2-.1.3-.2.4s-.1.3-.2.4c0,.1-.1.3-.1.4v.4c-.2.2-.2.3-.3.5s-.1.3-.2.5c-.2.3-.4.6-.6.8,0,0-.1,0-.1.1v.2c-.1,0-.1,0-.1,0,0,0,0,0,0,0h.3s.2,0,.2,0h.9c0-.1,0-.1,0-.1.1,0,.3,0,.4,0,.1,0,.3,0,.4,0h.1c.2,0,.3,0,.5,0h.7c0,0,.2,0,.2,0,0,0,.1,0,.2,0,0,0,.1,0,.2,0,0,0,.1,0,.2,0,.3,0,.6,0,.9.3.1.2.2.3.3.5h0c0,.4,0,.6-.1.8,0,0-.1.1-.1.2,0,0,0,0-.1,0s-.1,0-.2,0c0,0-.1,0-.2,0,0,0,0,0,0,0s0,0,0,0c-.1,0-.2,0-.4,0-.1,0-.2,0-.3,0-.2,0-.4-.1-.6-.1h-.2s-.1,0-.2,0h-.1s-.6,0-.6,0c0,0-.1,0-.2,0,0,0-.2,0-.2,0s-.2,0-.2,0c0,0,0,0-.1,0s0,0-.1,0h0s0,0-.1,0c-.1,0-.2,0-.2,0,0,0-.1,0-.3,0h-.2c0,0-.1,0-.2,0,0,0-.1,0-.2,0,0,0-.1,0-.1,0s0,0-.1,0c-.1,0-.3,0-.4,0,0,0,0,0-.1,0s0,0-.1,0c0,0,0,0,0,0,0,0,0,0,0,0,0,0,0,0-.1,0,0,0,0,0,0,0,0,0,0,0,0,0h-.2s-.1,0-.2,0-.1,0-.2,0h0ZM315.2,622.9c-.1,0-.3,0-.4,0s-.3,0-.4-.2c0,0,0,0,0,0,0,0,0,0,0,0,0,0-.1,0-.2-.1s-.1,0-.2-.2l-.3-.3h0c0-.1,0-.2,0-.2,0,0,0,0,0-.1s0,0,0-.1c0,0,0-.2.2-.2,0,0,.1,0,.1-.1,0-.1,0-.2.2-.3,0,0,.2-.1.3-.2.1,0,.3-.1.5-.1h.1s0,0,.1,0h.1s0,0,.1,0c.1,0,.3,0,.4,0s.3,0,.5-.1l.5-.2.6-.2c.2,0,.3-.1.4-.2.1,0,.2,0,.3-.1l.3-.2c0,0,.2,0,.2-.2s.1-.1.2-.2c0,0,.1-.2.2-.2,0-.1.1-.3,0-.4,0,0,0-.2,0-.2,0,0,0-.2,0-.2,0,0,0-.2-.1-.2s0-.2-.1-.3c0,0,0,0,0,0,0,0-.1-.2-.2-.3s-.1-.2-.2-.3c0,0-.1-.1-.2-.2,0,0-.1,0-.2-.1,0,0-.1,0-.1,0,0,0-.1,0-.1,0,0,0-.1,0-.2,0,0,0-.1,0-.2,0-.2,0-.4,0-.5-.1h-.5c-.2-.1-.3-.2-.5-.2-.2,0-.2-.1-.3-.1h-.1s-.2,0-.4-.1c0,0-.1,0-.2,0s-.1,0-.3,0c0,0,0,0,0-.1s0,0,0-.1c0,0,0-.1,0-.2,0,0,0-.1,0-.2,0,0,0-.1,0-.2,0,0,0,0,0,0,0,0,0,0,0-.1s0,0,0,0c0,0,0-.1,0-.2v-.2c.2-.2.4-.4.5-.6.2-.2.4-.5.5-.7.2-.2.4-.4.5-.7,0-.1.2-.2.2-.3v-.2c.2,0,.2-.1.3-.2,0,0,0,0,0-.1,0,0,0,0,0-.1,0,0,0-.1,0-.2,0,0,0-.1,0-.2,0,0,0,0,0,0h0s0,0,0,0c-.1,0-.2,0-.4,0s-.2,0-.4,0h-.2s-.1,0-.1,0,0,0-.1,0c-.1,0-.3,0-.4,0s-.3,0-.4,0h0c-.2,0-.4.1-.6.2s-.4.1-.6.2c0,0-.2,0-.3,0,0,0-.2,0-.3,0,0,0-.1,0-.2,0s-.1,0-.1,0c-.1,0-.3.1-.4.2,0,0,0,0,0,0-.1,0-.2,0-.3,0s-.2,0-.3,0c-.1,0-.2,0-.3-.1,0,0,0,0-.1,0,0,0,0,0,0,0,0,0,0,0,0,0,0,0,0,0,0-.1s0,0,0-.1c0,0,0-.1,0-.2,0-.2,0-.4.1-.5,0,0,0-.1.1-.2s.1-.1.2-.2c.2-.2.4-.2.6-.3h.5c.1,0,.2,0,.3,0,0,0,.2,0,.3,0,.2,0,.3,0,.5,0s.3,0,.5,0c.2,0,.3,0,.5,0s.3,0,.5,0c.1,0,.2,0,.4,0h.5c.1,0,.2,0,.3,0,0,0,.1,0,.2,0,0,0,.2,0,.2,0,0,0,.2,0,.2,0,.1,0,.2,0,.3,0,0,0,.2,0,.3,0h.4c0,.1.1.2.1.2s0,0,.1,0c.1,0,.2.2.3.2s.1.2.2.3c.1.2.2.4.1.6,0,.2,0,.3,0,.4s0,.3-.1.4l-.3.6s0,.1,0,.2v.2c0,0-.3.3-.3.3,0,.1-.2.3-.2.4,0,.1-.2.3-.3.4h0c0,0,0,.1,0,.2,0,0,.1,0,.1,0,.2,0,.3,0,.5,0s.3,0,.5.1c.2,0,.4,0,.6.2s.4.2.5.3c.3.2.6.5.8.8.1.1.2.3.3.4s.2.3.3.5l.3.5c.2.4.3.8.3,1.2,0,.1,0,.2,0,.3s0,.2,0,.3c0,0,0,.1,0,.2,0,.1,0,.3-.1.4s-.1.2-.2.4c0,0-.2.2-.2.3,0,.1-.1.2-.3.3,0,0,0,0,0,0,0,0-.1,0-.2.2,0,0-.1,0-.2.2,0,0-.1,0-.2.1s-.1,0-.2.1c-.2.2-.4.2-.6.2-.2,0-.4,0-.5,0l-.5.2s-.1,0-.2,0c0,0-.1,0-.2,0-.1,0-.3,0-.4.1-.1,0-.3,0-.4.1s-.3.1-.4.2l-.2.2s-.1,0-.1.1c0,0-.2,0-.3,0h0ZM187.8,578s0,0,0,0h-.3c0,0,0,0,0,0,0,0,0,0-.1,0,0,0,0,0-.1,0h-.2c-.1,0-.3,0-.4,0-.1,0-.3,0-.4-.1h-.1c-.2-.1-.3-.3-.4-.4,0,0,0,0,0-.2,0,0,0,0,0-.2,0,0,0,0,0-.1,0-.3.1-.5.3-.7,0,0,.2-.2.2-.2s.2-.2.3-.2.2-.1.3-.2.2-.1.3-.2c.2-.1.4-.3.6-.4s.4-.3.5-.4c.3-.2.5-.5.7-.9,0-.2.2-.5.3-.7,0-.2.2-.4.2-.6,0-.2.1-.4.2-.5s.1-.4.2-.5c0-.2.1-.3.1-.5s0-.3,0-.5c0-.2,0-.4,0-.6,0,0,0-.1-.2-.2,0,0-.1,0-.2,0,0,0-.1,0-.2,0,0,0-.1,0-.2,0,0,0,0,0,0,0s0,0,0,0c-.3.1-.6.3-.8.5,0,0,0,0-.1.1h-.1c0,.2-.2.3-.3.4,0,0-.1.1-.2.2,0,0-.1.1-.2.2-.1.1-.2.3-.3.5,0,.2-.2.4-.4.5-.1,0-.2.2-.3.3,0,.1-.2.2-.3.3-.1,0-.2,0-.3,0l-.2-.2c0,0-.1-.1-.2-.2,0,0-.1-.1-.2-.2,0,0,0,0,0,0s0,0,0,0c0,0,0-.1,0-.2s0-.1,0-.2c0,0,0,0,0-.1,0,0,0,0,0-.2v-.2h0c0-.2,0-.2,0-.2,0-.2.2-.4.4-.6.3-.3.7-.6,1-.8,0,0,0,0,.1,0s.1,0,.1,0c.1-.1.3-.2.4-.3s.3-.2.4-.3c.1,0,.2-.2.4-.3s.2-.2.4-.2c.1,0,.3-.2.4-.2s.3,0,.5-.1c0,0,0,0,.1,0h.1c.1,0,.3,0,.4,0,.1,0,.3,0,.4.1.2,0,.4.2.6.3,0,0,0,0,.1,0,.1.1.2.2.4.4.1.1.2.3.2.5,0,0,0,.2.1.3s0,.2,0,.3v.2s0,0,0,.2c0,.4,0,.8-.2,1.2,0,0,0,.2,0,.2s0,.2,0,.3,0,.2,0,.3,0,.2-.1.3c0,.2-.1.3-.2.4s-.1.3-.2.4c0,.1-.1.3-.1.4v.4c-.2.2-.2.3-.3.5s-.1.3-.2.5c-.2.3-.4.6-.6.8,0,0-.1,0-.1.1v.2c-.1,0-.1,0-.1,0,0,0,0,0,0,0h.3s.2,0,.2,0h.9c0-.1,0-.1,0-.1.1,0,.3,0,.4,0,.1,0,.3,0,.4,0h.1c.2,0,.3,0,.5,0h.7c0,0,.2,0,.2,0,0,0,.1,0,.2,0,0,0,.1,0,.2,0,0,0,.1,0,.2,0,.3,0,.6,0,.9.3.1.2.2.3.3.5h0c0,.4,0,.6-.1.8,0,0-.1.1-.1.2,0,0,0,0-.1,0s-.1,0-.2,0c0,0-.1,0-.2,0,0,0,0,0,0,0s0,0,0,0c-.1,0-.2,0-.4,0-.1,0-.2,0-.3,0-.2,0-.4-.1-.6-.1h-.2s-.1,0-.2,0h-.1s-.6,0-.6,0c0,0-.1,0-.2,0,0,0-.2,0-.2,0s-.2,0-.2,0c0,0,0,0-.1,0,0,0,0,0-.1,0h0s0,0-.1,0c-.1,0-.2,0-.2,0,0,0-.1,0-.3,0h-.2c0,0-.1,0-.2,0,0,0-.1,0-.2,0,0,0-.1,0-.1,0s0,0-.1,0c-.1,0-.3,0-.4,0,0,0,0,0-.1,0s0,0-.1,0c0,0,0,0,0,0,0,0,0,0,0,0,0,0,0,0-.1,0,0,0,0,0,0,0,0,0,0,0,0,0h-.2s-.1,0-.2,0-.1,0-.2,0h0ZM203,578h-.3c-.1,0-.2,0-.3-.1,0,0,0,0-.1,0-.1,0-.2-.1-.2-.2h0c-.1-.3-.1-.5-.1-.8h0c0-.1,0-.2,0-.2v-.3s0-.4,0-.4c0,0,0,0,0-.2,0,0,0,0,0-.1v-.5c0-.1,0-.3,0-.4,0,0,0,0,0-.1v-.3c0,0,0-.2,0-.2,0,0,0,0,0-.1s0,0,0-.1h0c0-.2,0-.2-.1-.2h-.2c0,0-.1,0-.2,0h-.2c0,0-.2,0-.2,0h-.4c-.1,0-.2,0-.4,0h-.1c-.1,0-.2,0-.4,0-.1,0-.2,0-.4,0,0,0-.1,0-.2,0-.2,0-.4,0-.5.2,0,0-.1,0-.2,0s-.1,0-.2,0c0,0-.1.1-.1.2,0,0,0,.1,0,.2s0,.2,0,.2,0,.2-.1.3c0,0-.1.1-.3.1s-.2,0-.3-.1c0,0,0-.1-.1-.2,0-.1,0-.2,0-.3v-.3c-.1,0-.1-.2-.2-.3v-.2c-.3-.3-.4-.5-.4-.8s0-.2,0-.2v-.2c0,0,.1-.1.1-.2,0,0,0-.1,0-.2,0-.2,0-.5.1-.7,0-.2.1-.5.2-.8s.1-.5.2-.8v-.4c.2-.1.2-.3.2-.4,0-.2.1-.4.2-.6s.1-.4.2-.6c0,0,0,0,0-.1,0-.2.1-.3.2-.5s.1-.3.2-.5h0c0-.2,0-.2,0-.3s0,0,0-.1c0,0,.1-.1.2-.2s.1,0,.2-.1c0,0,.2,0,.3,0s.2,0,.3,0c0,0,.2,0,.2,0s.1,0,.2,0c0,0,.2,0,.3.2.2.2.3.5.3.8,0,.2,0,.5-.2.7,0,.1-.1.2-.1.4s0,.3-.1.4v.3c-.1.1-.2.2-.2.3,0,0,0,0,0,.1,0,0,0,0,0,.1,0,0,0,0,0,0,0,0,0,0,0,0,0,0-.1.2-.1.3,0,0,0,.1,0,.2s0,.1,0,.2c0,0,0,.1,0,.2,0,0,0,.1,0,.2,0,.1-.1.2-.2.4,0,0,0,.2,0,.2s0,.2,0,.2v.5c-.1,0,0,0,0,0h.3c0,0,.1,0,.2,0h.2c0,0,.2,0,.3,0,.1,0,.2,0,.3,0s.2,0,.3,0c0,0,0,0,.1,0h.4c0,0,.2,0,.3,0h.1s0,0,.1,0h.2s0,0,0,0v-1.4s0,0,0,0c0,0,0-.1,0-.2v-.2c0,0,0-.1,0-.2v-.2c0-.2,0-.5,0-.7,0-.2,0-.5,0-.7,0-.2,0-.3,0-.5,0-.2,0-.3,0-.5,0-.1,0-.2,0-.3,0,0,0-.2,0-.3,0-.1,0-.2.2-.4,0,0,0-.2.2-.2s.1-.1.2-.2h.1s0,0,0,0c0,0,0,0,0,0,0,0,.2,0,.3,0h.4c0,0,0,.1,0,.1h0c0,.1,0,.2,0,.2,0,0,0,0,0,.1,0,.1.1.2.1.4h0c0,.1,0,.2,0,.2,0,0,.1.1,0,.2h0c0,.1,0,.2,0,.3s0,.2,0,.3c0,0,0,0,0,0h0s0,0,0,0h0c0,.1,0,.2,0,.2,0,0,0,0,0,0,0,0,0,0,0,0v.2s0,.1,0,.2c0,0,0,0,0,0h0c0,.1,0,.2,0,.2,0,0,0,0,0,0v1.5c0,0,0,.1,0,.2,0,0,0,.1,0,.2,0,0,0,.1,0,.2h0c0,.1,0,.2,0,.2,0,0,0,.1,0,.2,0,0,0,.1,0,.2,0,0,0,.2,0,.2v.4s0,0,0,0c0,0,0,0,0,0s0,0,0,0h.5c0,0,.2,0,.3,0h.6c.2,0,.4,0,.6,0h.4c0,0,.1,0,.1,0,0,0,.2,0,.3,0,0,0,.1,0,.2.2,0,0,0,0,0,0,0,0,0,.2.1.2,0,0,0,.1,0,.2h0c0,.2,0,.3,0,.4h0c0,.1,0,.2,0,.2,0,0,0,0,0,0s0,0,0,0c0,0,0,0,0,0s0,0,0,0c0,0-.1,0-.2.1,0,0,0,0,0,0s0,0,0,0c0,0,0,0,0,0,0,0,0,0-.1,0h0c0,.2-.1.2-.2.3,0,0-.2,0-.3,0h-.3c-.1,0-.3,0-.5,0h-.5c0,0-.2,0-.2,0s-.1,0-.2,0c0,0,0,0-.1,0,0,0,0,0-.1,0,0,0,0,0-.1,0h-.1s0,0-.1,0h0c0,0,0,.2-.1.2h0s0,.1,0,.2,0,.1,0,.1c0,0,0,0,0,.1,0,0,0,0,0,0s0,0,0,0c0,0,0,0,0,0,0,0,0,0,0,0,0,0,0,.2,0,.2h0c0,.2,0,.2,0,.3h0s0,.1,0,.1c0,0,0,0,0,0,0,0,0,0,0,0v.4s0,0,0,0c0,0,0,0,0,0,0,0,0,.1.1.2s0,.2,0,.2,0,0,0,0h0s0,0,0,0c0,0,0,0,0,0s0,0,0,0c0,.1,0,.2,0,.3,0,0,0,0,0,0,0,0,0,0,0,0,0,0,0,0,0,0,0,0,0,0,0,0,0,.1,0,.2,0,.3,0,.1,0,.2,0,.3s0,0,0,0h0c0,.1,0,.1,0,.2,0,0,0,0-.1,0,0,0,0,0,0,0h0c0,0,0,0-.1.1,0,0,0,0,0,0s0,0,0,0c0,0,0,0-.1.1h-.1s0,0,0,0,0,0,0,0h0s0,0,0,0c0,0-.1,0-.1,0h0ZM203.8,577.4s0,0,0,0c0,0,0,0,0,0h0ZM187.8,746.7s0,0,0,0h-.3c0,0,0,0,0,0,0,0,0,0-.1,0,0,0,0,0-.1,0h-.2c-.1,0-.3,0-.4,0-.1,0-.3,0-.4-.1h-.1c-.2-.1-.3-.3-.4-.4,0,0,0,0,0-.2,0,0,0,0,0-.2,0,0,0,0,0-.1,0-.3.1-.5.3-.7,0,0,.2-.2.2-.2s.2-.2.3-.2.2-.1.3-.2.2-.1.3-.2c.2-.1.4-.3.6-.4s.4-.3.5-.4c.3-.2.5-.5.7-.9,0-.2.2-.5.3-.7,0-.2.2-.4.2-.6,0-.2.1-.4.2-.5s.1-.4.2-.5c0-.2.1-.3.1-.5s0-.3,0-.5c0-.2,0-.4,0-.6,0,0,0-.1-.2-.2,0,0-.1,0-.2,0,0,0-.1,0-.2,0,0,0-.1,0-.2,0,0,0,0,0,0,0s0,0,0,0c-.3.1-.6.3-.8.5,0,0,0,0-.1.1h-.1c0,.2-.2.3-.3.4,0,0-.1.1-.2.2,0,0-.1.1-.2.2-.1.1-.2.3-.3.5,0,.2-.2.4-.4.5-.1,0-.2.2-.3.3,0,.1-.2.2-.3.3-.1,0-.2,0-.3,0l-.2-.2c0,0-.1-.1-.2-.2,0,0-.1-.1-.2-.2,0,0,0,0,0,0s0,0,0,0c0,0,0-.1,0-.2s0-.1,0-.2c0,0,0,0,0-.1,0,0,0,0,0-.2v-.2h0c0-.2,0-.2,0-.2,0-.2.2-.4.4-.6.3-.3.7-.6,1-.8,0,0,0,0,.1,0s.1,0,.1,0c.1-.1.3-.2.4-.3s.3-.2.4-.3c.1,0,.2-.2.4-.3s.2-.2.4-.2c.1,0,.3-.2.4-.2s.3,0,.5-.1c0,0,0,0,.1,0h.1c.1,0,.3,0,.4,0,.1,0,.3,0,.4.1.2,0,.4.2.6.3,0,0,0,0,.1,0,.1.1.2.2.4.4.1.1.2.3.2.5,0,0,0,.2.1.3s0,.2,0,.3v.2s0,0,0,.2c0,.4,0,.8-.2,1.2,0,0,0,.2,0,.2s0,.2,0,.3,0,.2,0,.3,0,.2-.1.3c0,.2-.1.3-.2.4s-.1.3-.2.4c0,.1-.1.3-.1.4v.4c-.2.2-.2.3-.3.5s-.1.3-.2.5c-.2.3-.4.6-.6.8,0,0-.1,0-.1.1v.2c-.1,0-.1,0-.1,0,0,0,0,0,0,0h.3s.2,0,.2,0h.9c0-.1,0-.1,0-.1.1,0,.3,0,.4,0,.1,0,.3,0,.4,0h.1c.2,0,.3,0,.5,0h.7c0,0,.2,0,.2,0,0,0,.1,0,.2,0,0,0,.1,0,.2,0,0,0,.1,0,.2,0,.3,0,.6,0,.9.3.1.2.2.3.3.5h0c0,.4,0,.6-.1.8,0,0-.1.1-.1.2,0,0,0,0-.1,0s-.1,0-.2,0c0,0-.1,0-.2,0,0,0,0,0,0,0s0,0,0,0c-.1,0-.2,0-.4,0-.1,0-.2,0-.3,0-.2,0-.4-.1-.6-.1h-.2s-.1,0-.2,0h-.1s-.6,0-.6,0c0,0-.1,0-.2,0,0,0-.2,0-.2,0s-.2,0-.2,0c0,0,0,0-.1,0,0,0,0,0-.1,0h0s0,0-.1,0c-.1,0-.2,0-.2,0,0,0-.1,0-.3,0h-.2c0,0-.1,0-.2,0,0,0-.1,0-.2,0,0,0-.1,0-.1,0s0,0-.1,0c-.1,0-.3,0-.4,0,0,0,0,0-.1,0s0,0-.1,0c0,0,0,0,0,0,0,0,0,0,0,0,0,0,0,0-.1,0,0,0,0,0,0,0,0,0,0,0,0,0h-.2s-.1,0-.2,0-.1,0-.2,0h0ZM198.5,748.2s0,0,0,0c0,0,0,0,0,0,0,0,0,0,0,0,0,0-.2,0-.2-.1,0,0-.1-.1-.2-.2,0,0,0,0,0,0,0,0-.1-.1-.2-.2,0,0,0-.2,0-.3v-.3c0-.2,0-.3.2-.4.2-.2.4-.3.7-.3,0,0,.1,0,.2,0,0,0,.1,0,.2,0,0,0,.2,0,.2,0s.2,0,.2,0c.2,0,.4-.1.6-.2s.4-.1.6-.2c.3-.2.6-.3,1-.4s.6-.3.9-.5c.1,0,.3-.1.4-.2s.2-.1.4-.2c.3-.2.5-.5.7-.7.1-.2.2-.4.1-.7,0,0,0-.1,0-.2,0,0,0-.1,0-.2,0-.1-.1-.2-.2-.3s-.1-.2-.2-.3c0,0-.1-.1-.1-.2s0-.1-.1-.2c0,0-.1-.1-.1-.2h-.1c0-.2,0-.2-.1-.2,0,0,0,0-.1,0-.1,0-.2,0-.3,0s-.2,0-.4,0h-.4c-.1,0-.3,0-.4,0h-.1c-.1,0-.3,0-.4,0-.1,0-.3,0-.4,0-.1,0-.2,0-.4,0s-.2,0-.4,0c0,0-.1,0-.2,0s-.1,0-.2,0h0s0,0,0,0c0,0,0,0,0,0,0,0-.2,0-.2.2,0,0,0,0,0,0,0,0-.1,0-.2,0,0,0-.1,0-.2,0,0,0,0,0,0,0,0,0,0,0,0,0,0,0,0,0,0,0,0,0,0,0,0,0h0s0,0,0,0c0,0,0,0-.1,0,0,0,0,0-.1,0-.2.1-.3.3-.4.5v.2c-.1.1-.2.2-.3.2s-.2,0-.3,0c0,0-.1-.1-.1-.2,0,0,0-.1,0-.2s0-.1,0-.2c0-.2,0-.3-.1-.4,0-.2-.1-.3-.1-.5,0-.2,0-.3,0-.5,0,0,0-.1,0-.2,0,0,0-.1,0-.2,0,0,0-.1,0-.2v-.2s0-.1,0-.2v-.2c0-.7,0-1.4,0-2.1h0c0-.3,0-.5,0-.7v-.3c0-.1,0-.2,0-.3,0-.1,0-.2,0-.3s0-.2,0-.3c0,0,0-.2,0-.3v-.5c0,0,0-.1,0-.2s0,0,0-.1c.1-.2.3-.3.5-.4.2,0,.4,0,.6,0,.1,0,.3,0,.5,0,0,0,.2,0,.3,0s.2,0,.3,0h1.2c0,0,.1,0,.1,0h.1c.1,0,.3,0,.4,0s.3,0,.4,0c0,0,.1,0,.2,0h.2c.1,0,.3,0,.4,0h.4c.2,0,.4,0,.5,0s.4,0,.5,0c0,0,.1,0,.1,0,0,0,0,0,.1,0h.1c0,0,0,0,0,.1,0,0,0,0,0,0,0,0,0,.1.1.2,0,0,0,.1.1.2,0,0,0,0,0,0h0c0,0,0,.1,0,.1v.2h0c0,0,0,.2,0,.2,0,0,0,0,0,0,0,0,0,0-.1.2,0,0-.1.2-.3.3,0,0-.1,0-.2.1,0,0-.1.1-.2.1-.1,0-.2,0-.3,0h-.2s-.2,0-.2,0c-.1,0-.2,0-.4,0-.1,0-.2,0-.4,0-.1,0-.3,0-.4,0h-.4c-.1,0-.3,0-.4,0h-.2c0,0-.1,0-.2,0,0,0,0,0,0,0,0,0,0,0,0,0,0,0-.1,0-.1,0,0,0,0,0,0,0h0s0,0,0,0,0,0,0,0h-.5c0,0-.2,0-.2,0s-.2,0-.2,0c0,0-.2,0-.3,0,0,0,0,0,0,0,0,0,0,0,0,0,0,0,0,0,0,.1,0,.2,0,.4,0,.6s0,.4,0,.6,0,.3,0,.5v.5s0,1.2,0,1.2c0,0,0,0,0,0,0,0,0,0,0,0,0,0,0,0,0,0h0c.2,0,.3,0,.5,0s.3,0,.5,0c0,0,.2,0,.3,0s.2,0,.3,0c.1,0,.2,0,.3,0h.3s.2,0,.2,0c0,0,.2,0,.2,0,.3,0,.6,0,1,0,.1,0,.3,0,.4,0,.1,0,.2,0,.4,0,.2,0,.5.2.7.3l.5.4c.1,0,.2.1.3.2.1.1.3.3.4.4s.2.3.3.4c0,0,0,.1.1.2.2.3.4.6.4,1,0,.2,0,.4,0,.6,0,.1,0,.3,0,.4,0,.1,0,.3,0,.4v.4c-.2.3-.4.5-.6.8,0,0-.1.1-.2.2,0,0-.1.1-.2.2,0,0,0,0-.2.1,0,0-.1,0-.2.2,0,0-.1.1-.2.2s-.2.1-.3.1h-.1c0,0,0,.1,0,.1,0,0-.2,0-.2.1s-.1,0-.2.2h-.2c-.1.2-.2.2-.4.3-.1,0-.2.1-.4.2l-.9.4s0,0,0,0c0,0,0,0,0,0,0,0-.1,0-.2,0,0,0-.1,0-.2,0,0,0,0,0-.1,0,0,0,0,0-.1,0-.2,0-.4.1-.5.2-.2,0-.4.1-.5.2h0s0,0-.1,0,0,0-.1,0-.1,0-.2,0c0,0-.1,0-.1,0s-.1,0-.1,0h0ZM150.3,746.7s0,0,0,0h-.3c0,0,0,0,0,0,0,0,0,0-.1,0,0,0,0,0-.1,0h-.2c-.1,0-.3,0-.4,0-.1,0-.3,0-.4-.1h-.1c-.2-.1-.3-.3-.4-.4,0,0,0,0,0-.2,0,0,0,0,0-.2,0,0,0,0,0-.1,0-.3.1-.5.3-.7,0,0,.2-.2.2-.2s.2-.2.3-.2.2-.1.3-.2.2-.1.3-.2c.2-.1.4-.3.6-.4s.4-.3.5-.4c.3-.2.6-.5.7-.9,0-.2.2-.5.3-.7,0-.2.2-.4.2-.6,0-.2.1-.4.2-.5s.1-.4.2-.5c0-.2.1-.3.1-.5s0-.3,0-.5c0-.2,0-.4,0-.6,0,0,0-.1-.2-.2,0,0-.1,0-.2,0,0,0-.1,0-.2,0,0,0-.1,0-.2,0,0,0,0,0,0,0s0,0,0,0c-.3.1-.6.3-.8.5,0,0,0,0-.1.1h-.1c0,.2-.2.3-.3.4,0,0-.1.1-.2.2s-.1.1-.2.2c-.1.1-.2.3-.3.5,0,.2-.2.4-.4.5-.1,0-.2.2-.3.3,0,.1-.2.2-.3.3-.1,0-.2,0-.3,0l-.2-.2c0,0-.1-.1-.2-.2,0,0-.1-.1-.2-.2,0,0,0,0,0,0s0,0,0,0c0,0,0-.1,0-.2s0-.1,0-.2c0,0,0,0,0-.1,0,0,0,0,0-.2v-.2h0c0-.2,0-.2,0-.2,0-.2.2-.4.4-.6.3-.3.7-.6,1-.8,0,0,0,0,.1,0s.1,0,.1,0c.1-.1.3-.2.4-.3s.3-.2.4-.3c.1,0,.2-.2.4-.3s.2-.2.4-.2c.1,0,.3-.2.4-.2.1,0,.3,0,.5-.1,0,0,0,0,.1,0h.1c.1,0,.3,0,.4,0,.1,0,.3,0,.4.1.2,0,.4.2.6.3,0,0,0,0,.1,0,.1.1.2.2.4.4s.2.3.2.5c0,0,0,.2.1.3,0,0,0,.2,0,.3v.2s0,0,0,.2c0,.4,0,.8-.2,1.2,0,0,0,.2,0,.2s0,.2,0,.3,0,.2,0,.3,0,.2-.1.3c0,.2-.1.3-.2.4s-.1.3-.2.4c0,.1-.1.3-.1.4v.4c-.2.2-.2.3-.3.5s-.1.3-.2.5c-.2.3-.4.6-.6.8,0,0-.1,0-.1.1v.2c-.1,0-.1,0-.1,0,0,0,0,0,0,0h.3s.2,0,.2,0h.9c0-.1,0-.1,0-.1.1,0,.3,0,.4,0,.1,0,.3,0,.4,0h.1c.2,0,.3,0,.5,0h.7c0,0,.2,0,.2,0,0,0,.1,0,.2,0,0,0,.1,0,.2,0,0,0,.1,0,.2,0,.3,0,.6,0,.9.3.1.2.2.3.3.5h0c0,.4,0,.6-.1.8,0,0-.1.1-.1.2,0,0,0,0-.1,0s-.1,0-.2,0-.1,0-.2,0c0,0,0,0,0,0s0,0,0,0c-.1,0-.2,0-.4,0-.1,0-.2,0-.3,0-.2,0-.4-.1-.6-.1h-.2c0,0-.1,0-.2,0h-.1s-.6,0-.6,0c0,0-.1,0-.2,0,0,0-.2,0-.2,0s-.2,0-.2,0c0,0,0,0-.1,0,0,0,0,0-.1,0h0s0,0-.1,0c-.1,0-.2,0-.2,0,0,0-.1,0-.3,0h-.2c0,0-.1,0-.2,0,0,0-.1,0-.2,0,0,0-.1,0-.1,0s0,0-.1,0c-.1,0-.3,0-.4,0,0,0,0,0-.1,0s0,0-.1,0c0,0,0,0,0,0,0,0,0,0,0,0,0,0,0,0-.1,0,0,0,0,0,0,0s0,0,0,0h-.2c0,0-.1,0-.2,0,0,0-.1,0-.2,0h0ZM166.2,747.9c-.2,0-.4,0-.6-.2-.2,0-.4-.1-.6-.2,0,0-.2-.1-.3-.2s-.2-.1-.3-.2l-.6-.4s0,0-.1,0,0,0-.1,0h-.1c0-.1,0-.2-.1-.2s0,0-.1,0c0,0-.1,0-.2,0,0,0-.1,0-.2,0-.1,0-.3-.1-.4-.2s-.2-.2-.4-.2c-.5-.4-.9-.8-1.2-1.2,0,0,0,0-.1-.1l-.2-.4c0-.1-.1-.2-.2-.4l-.3-.6c0-.2-.2-.3-.2-.5,0-.2-.1-.3-.2-.5,0,0,0,0,0-.1s0,0,0-.1c0-.1,0-.2-.1-.4,0,0,0,0,0-.1,0,0,0,0,0-.1,0,0,0,0,0,0,0,0,0,0,0,0,0,0,0,0,0,0,0,0,0,0,0,0,0,0,0,0,0,0,0,0,0,0,0,0h0s0,0,0,0c0,0,0,0,0-.1h0c0,0,0-.1,0-.1,0-.1,0-.3,0-.4,0-.1,0-.3,0-.4,0,0,0-.2,0-.2,0,0,0-.2,0-.3,0,0,0,0,0-.1h0c0-.1,0-.1,0-.2,0-.1,0-.2,0-.3,0,0,0-.1,0-.2,0,0,0-.2,0-.2,0,0,0,0,0,0,.1-.2.2-.3.2-.5s0,0,0-.2c0,0,0,0,0-.2s0,0,0-.2c0-.1,0-.2.1-.2,0,0,0,0,.1,0h0c0-.3,0-.4,0-.5,0-.1,0-.3.1-.4,0-.2.1-.3.3-.4l.2-.2c.1,0,.2-.2.2-.3,0,0,0,0,.1-.1,0,0,0,0,.1-.1s0,0,0-.1c0-.1.1-.2.3-.3.1,0,.2,0,.3-.2s.2-.1.3-.2h.2c.1-.1.2-.2.4-.3s.2-.1.4-.2c0,0,0,0,.1,0s.1,0,.1,0c0,0,.1,0,.1,0,0,0,.1,0,.1,0,0,0,.1,0,.2,0,0,0,.1,0,.2,0h.2c0,0,.1,0,.2,0,.1,0,.2,0,.3,0,0,0,.1,0,.2,0,0,0,.1,0,.2.1.1,0,.2.1.3.3.2.3.2.5,0,.8,0,0,0,0-.1,0-.1,0-.2.1-.3.2s-.2.1-.3.2h-.1c-.1.2-.3.2-.5.3,0,0-.1,0-.2.1s-.1,0-.2.1c-.2.1-.4.3-.6.5-.4.4-.8.9-1,1.4,0,.1-.1.3-.2.4s-.1.2-.2.4h0s0,0,0,0c0,.2,0,.3-.1.5,0,.2-.1.3-.1.5v.2c0,.2-.1.5-.1.7s0,.5,0,.7v.4c0,.2.1.4.2.5s.1.4.2.5c0,0,0,0,0,.2,0,0,0,0,0,.1,0,0,.1.2.2.3s.1.2.2.3c0,0,0,0,0,0h0s0-.4,0-.4c0-.1,0-.2,0-.3s0-.2,0-.3c0,0,0,0,0-.1s0,0,0-.1l.2-.4c0-.1.1-.2.2-.3,0-.1.1-.2.2-.3s.2-.2.2-.3l.4-.4c0,0,.2-.2.3-.2s.2-.1.3-.2l.4-.2c.1,0,.2,0,.4-.1s.3-.1.4-.2c0,0,.2-.2.3-.2,0,0,0,0,.1,0s0,0,0,0c.1,0,.2,0,.3,0,.1,0,.2,0,.3,0,0,0,.2,0,.3,0s.2,0,.3,0c.2,0,.5.2.7.4l.4.4s0,0,0,0c0,0,0,.1.1.2s0,.1.1.2h0c0,.1.1.2.2.3s0,.2.1.2c0,0,0,0,0,0,0,0,0,.1,0,.2s0,.1,0,.2c0,.1,0,.2.1.3,0,0,0,.2,0,.3,0,0,0,.1,0,.2,0,0,0,0,0,.1v1.6c0,.2,0,.3.1.4,0,0,0,0,0,0,0,0,.1.1.1.2,0,0,0,.2,0,.3,0,.1,0,.3,0,.4s0,.2-.1.4c0,.2-.2.3-.4.5,0,0-.2.2-.2.3s-.2.2-.2.3l-.6.7c-.1.2-.2.3-.3.5,0,0,0,0,0,.1h0s0,0,0,0c0,0,0,.1-.1.2s-.1,0-.2,0c0,0-.2,0-.3,0s-.2,0-.3,0c-.2,0-.4,0-.6,0h0ZM166.2,746.1c0,0,.1,0,.2,0,0,0,.1,0,.1-.1h.1c.2-.3.3-.4.5-.6s.3-.3.5-.5c0,0,0,0,.1-.1,0,0,0-.1,0-.2,0,0,0,0,0-.1s0,0,0,0c0-.2,0-.4,0-.5s0-.3.1-.5v-.5c.1,0,.1,0,.1,0v-.4c0-.1,0-.2,0-.3,0,0,0-.2-.1-.3,0-.1-.1-.3-.2-.4,0-.1-.1-.2-.2-.4,0,0,0,0,0,0s0,0,0,0,0,0,0,0h-.2c0,0-.1,0-.2,0h-.2c-.1.2-.3.2-.4.2-.1,0-.3,0-.4,0-.1,0-.2,0-.4.2,0,0,0,0,0,0,0,0,0,0,0,0-.2,0-.3.1-.4.2s-.3.2-.4.3c0,0-.1.1-.2.2s-.1.2-.1.2c0,.1-.1.2-.1.4s0,.2,0,.3v.2c0,0,0,.1,0,.2v.2c.1.3.3.6.4.9,0,0,0,.1.1.2s0,.1.1.2c0,0,0,0,0,0,0,0,0,0,0,0,0,0,0,0,.1.2s0,0,.1.2c.1.1.2.2.4.4.2.2.5.3.8.4h0ZM154.1,584s0,0,0,0h-.3c0,0,0,0,0,0,0,0,0,0-.1,0,0,0,0,0-.1,0s-.1,0-.2,0c-.1,0-.3,0-.4,0-.1,0-.3,0-.4-.1h-.1c-.2-.1-.3-.3-.4-.4,0,0,0,0,0-.2,0,0,0,0,0-.2,0,0,0,0,0-.1,0-.3.1-.5.3-.7,0,0,.2-.2.2-.2s.2-.2.3-.2.2-.1.3-.2.2-.1.3-.2c.2-.1.4-.3.6-.4s.4-.3.5-.4c.3-.2.6-.5.7-.9,0-.2.2-.5.3-.7,0-.2.2-.4.2-.6,0-.2.1-.4.2-.5s.1-.4.2-.5c0-.2.1-.3.1-.5s0-.3,0-.5c0-.2,0-.4,0-.6,0,0,0-.1-.2-.2,0,0-.1,0-.2,0,0,0-.1,0-.2,0,0,0-.1,0-.2,0,0,0,0,0,0,0s0,0,0,0c-.3.1-.6.3-.8.5,0,0,0,0-.1.1h-.1c0,.2-.2.3-.3.4,0,0-.1.1-.2.2s-.1.1-.2.2c-.1.1-.2.3-.3.5,0,.2-.2.4-.4.5-.1,0-.2.2-.3.3,0,.1-.2.2-.3.3-.1,0-.2,0-.3,0l-.2-.2c0,0-.1-.1-.2-.2s-.1-.2-.2-.2c0,0,0,0,0,0s0,0,0,0c0,0,0-.1,0-.2s0-.1,0-.2c0,0,0,0,0-.1,0,0,0,0,0-.2v-.2h0c0-.2,0-.2,0-.2,0-.2.2-.4.4-.6.3-.3.7-.6,1-.8,0,0,0,0,.1,0s.1,0,.1,0c.1-.1.3-.2.4-.3s.3-.2.4-.3c.1,0,.2-.2.4-.3s.2-.2.4-.2c.1,0,.3-.2.4-.2.1,0,.3,0,.5-.1,0,0,0,0,.1,0h.1c.1,0,.3,0,.4,0,.1,0,.3,0,.4.1.2,0,.4.2.6.3,0,0,0,0,.1,0,.1.1.2.2.4.4s.2.3.2.5c0,0,0,.2.1.3,0,0,0,.2,0,.3v.2s0,0,0,.2c0,.4,0,.8-.2,1.2,0,0,0,.2,0,.2s0,.2,0,.3,0,.2,0,.3,0,.2-.1.3c0,.2-.1.3-.2.4s-.1.3-.2.4c0,.1-.1.3-.1.4v.4c-.2.2-.2.3-.3.5,0,.2-.1.3-.2.5-.2.3-.4.6-.6.8,0,0-.1,0-.1.1v.2c-.1,0-.1,0-.1,0,0,0,0,0,0,0h.3s.2,0,.2,0h.9c0-.1,0-.1,0-.1.1,0,.3,0,.4,0,.1,0,.3,0,.4,0h.1c.2,0,.3,0,.5,0h.7c0,0,.2,0,.2,0,0,0,.1,0,.2,0,0,0,.1,0,.2,0,0,0,.1,0,.2,0,.3,0,.6,0,.9.3.1.2.2.3.3.5h0c0,.4,0,.6-.1.8,0,0-.1.1-.1.2,0,0,0,0-.1,0s-.1,0-.2,0-.1,0-.2,0c0,0,0,0,0,0s0,0,0,0c-.1,0-.2,0-.4,0-.1,0-.2,0-.3,0-.2,0-.4-.1-.6-.1h-.2c0,0-.1,0-.2,0h-.1s-.6,0-.6,0c0,0-.1,0-.2,0,0,0-.2,0-.2,0s-.2,0-.2,0c0,0,0,0-.1,0,0,0,0,0-.1,0h0s0,0-.1,0c-.1,0-.2,0-.2,0,0,0-.1,0-.3,0h-.2c0,0-.1,0-.2,0,0,0-.1,0-.2,0,0,0-.1,0-.1,0s0,0-.1,0c-.1,0-.3,0-.4,0,0,0,0,0-.1,0s0,0-.1,0c0,0,0,0,0,0,0,0,0,0,0,0,0,0,0,0-.1,0,0,0,0,0,0,0s0,0,0,0h-.2c0,0-.1,0-.2,0,0,0-.1,0-.2,0h0ZM166,584.6c0,0-.1,0-.2,0,0,0,0,0-.1,0,0,0,0,0,0,0h-.1c0-.2-.1-.2-.1-.3,0,0-.1,0-.1-.2,0-.1-.1-.2-.1-.4,0-.2,0-.4.1-.6,0,0,0,0,0,0,0-.1.1-.2.2-.3,0-.1,0-.2.1-.3,0-.2.1-.4.1-.5,0-.2,0-.4.1-.5,0-.2,0-.3,0-.4,0-.1,0-.3,0-.4,0-.1,0-.2,0-.3s0-.2,0-.4c0,0,0-.2,0-.2v-.2s0-.1,0-.2c0,0,0-.1-.1,0h-.2c0,0-.2,0-.2.1,0,0-.1,0-.2,0,0,0-.2,0-.3.1s-.2.1-.3.2c0,0,0,0-.1,0-.2.1-.4.1-.5,0-.2-.2-.4-.4-.5-.6,0,0,0,0,0-.2,0,0,0,0,0-.2-.1-.3,0-.5,0-.8,0-.1.1-.2.2-.3,0,0,0,0,0,0,0,0,0,0,0,0,0,0,0,0,0,0,0,0,.1,0,.2,0,.1,0,.2,0,.4,0s.2,0,.4,0h.1c.1,0,.3,0,.4,0s.3,0,.4,0h.2c0,0,.1,0,.2,0,0,0,.1,0,.2,0,0,0,.1,0,.1-.1,0,0,0,0,0,0,0-.2,0-.4.1-.5v-.5c.2,0,.2-.1.2-.2,0,0,0-.1,0-.2,0-.1,0-.2.1-.3.1-.2.2-.5.2-.7,0,0,0-.1,0-.2s0-.1,0-.2l.2-.7s0,0,0,0,0,0,0,0c0,0,0,0,0,0-.1,0-.3,0-.4,0s-.2,0-.4.1h-.2c-.1,0-.3.2-.4.2s-.3.1-.4.2c0,0-.1,0-.2,0s-.1,0-.2,0c0,0,0,0-.1,0,0,0,0,0-.1,0,0,0-.2.1-.3.2l-.2.2c0,0-.1.1-.2.2,0,0-.1.2-.2.3-.1.1-.2.2-.3.2-.1,0-.3,0-.4,0s-.3,0-.4,0c0,0,0,0-.1,0s0,0-.1,0c0,0-.2,0-.2-.2,0,0,0,0-.1-.1,0-.1-.1-.2-.2-.3,0,0,0,0,0,0s0,0,0,0c0,0,0-.2,0-.3,0,0,0-.2,0-.3,0-.2.2-.5.4-.6h.1c0,0,.1-.2.1-.2,0,0,.1,0,.1,0,.1,0,.2,0,.4,0,.3,0,.6,0,.9-.1,0,0,.1,0,.2,0,0,0,.1,0,.2,0s.1,0,.2,0c0,0,.1,0,.2,0,.2,0,.4-.2.6-.2.2,0,.4-.2.6-.2,0,0,0,0,.1,0,0,0,0,0,0,0,0,0,0,0,.1,0,.1,0,.3-.1.4-.2s.3-.1.4-.2c0,0,0,0,0,0,0,0,0,0,0,0,0,0,0,0,.1,0,0,0,0,0,0,0v-.2c.2,0,.2,0,.3-.1.2-.2.5-.3.9-.3.2,0,.3,0,.4.2.1,0,.2.2.3.3,0,0,0,.2.1.3s0,.2.1.3c0,.2.1.3,0,.5,0,.1,0,.2,0,.3s0,.2-.1.3c0,0,0,.1,0,.2s0,.1-.1.2c0,0,0,0-.1.2,0,0,0,.1,0,.2s0,.1-.1.2c0,0,0,0,0,0,0,0,0,.1,0,.2,0,0,0,0,0,.1,0,0,0,0,0,0,0,0,0,0,0,0,0,0,0,0,0,0,0,0,0,0,0,.2v.2s0,0-.1.1c0,0,0,.1,0,.2,0,0,0,0,0,.2s0,0-.2.1h0c0,0-.1.2,0,.3,0,0,0,0,0,.1s0,0,0,.2c0,0,0,.1,0,.2s0,.1,0,.2h0c0,0,0,.1,0,.2s0,0,0,.1c0,0,0,0,0,0,0,0,0,0,0,0,0,0,0,0,0,0,0,0,0,0,0,0,0,0,0,0,.1,0,0,0,0,0,0,0,0,0,0,0,.1,0,0,0,.2,0,.2,0s.1,0,.2,0c0,0,.2,0,.2.2,0,0,0,0,0,0,0,0,.1.2.2.3,0,0,0,0,0,.1,0,0,0,0,0,.1,0,0,0,.1,0,.2,0,0,0,.1.1.2,0,0,0,0,0,0,0,0,0,0,0,0,0,0,0,0,0,0h0c0,.1,0,.2,0,.2,0,0,0,0,0,0,0,0-.2,0-.3,0,0,0-.1,0-.1,0,0,0-.1,0-.2.2,0,0-.1.1-.3.1,0,0-.1,0-.1,0,0,0-.1,0-.1,0-.1,0-.3,0-.4,0s0,0,0,0c0,0,0,0-.1,0v.2s0,.2,0,.2c0,0,0,.1,0,.2v.2s0,.1,0,.2h0c0,.1,0,.2,0,.3h0v.3s0,0,0,0c0,0,0,0,0,0h0c0,.2,0,.2,0,.3,0,0,0,.1,0,.2,0,0,0,0,0,0h0c0,0-.1.5-.1.5,0,0,0,0,0,0,0,0,0,.2,0,.3s0,.2,0,.3c0,0,0,0,0,.1s0,0,0,.1c0,0,0,0,0,0,0,0,0,.2-.1.3,0,0,0,.2,0,.3,0,0,0,.1,0,.2s0,.1,0,.2c0,0,0,.2,0,.2h0c0,.2,0,.2-.1.3s-.1,0-.2.1c0,0,0,0,0,0,0,0,0,0,0,0,0,0-.1,0-.2.1,0,0-.1,0-.2,0h0ZM125,584s0,0,0,0h-.3c0,0,0,0,0,0,0,0,0,0-.1,0,0,0,0,0-.1,0h-.2c-.1,0-.3,0-.4,0-.1,0-.3,0-.4-.1h-.1c-.2-.1-.3-.3-.4-.4,0,0,0,0,0-.2,0,0,0,0,0-.2,0,0,0,0,0-.1,0-.3.1-.5.3-.7,0,0,.2-.2.2-.2s.2-.2.3-.2.2-.1.3-.2.2-.1.3-.2c.2-.1.4-.3.6-.4s.4-.3.5-.4c.3-.2.6-.5.7-.9,0-.2.2-.5.3-.7,0-.2.2-.4.2-.6,0-.2.1-.4.2-.5s.1-.4.2-.5c0-.2.1-.3.1-.5s0-.3,0-.5c0-.2,0-.4,0-.6,0,0,0-.1-.2-.2,0,0-.1,0-.2,0,0,0-.1,0-.2,0,0,0-.1,0-.2,0,0,0,0,0,0,0s0,0,0,0c-.3.1-.6.3-.8.5,0,0,0,0-.1.1h-.1c0,.2-.2.3-.3.4,0,0-.1.1-.2.2s-.1.1-.2.2c-.1.1-.2.3-.3.5,0,.2-.2.4-.4.5-.1,0-.2.2-.3.3,0,.1-.2.2-.3.3-.1,0-.2,0-.3,0l-.2-.2c0,0-.1-.1-.2-.2,0,0-.1-.1-.2-.2,0,0,0,0,0,0s0,0,0,0c0,0,0-.1,0-.2s0-.1,0-.2c0,0,0,0,0-.1,0,0,0,0,0-.2v-.2h0c0-.2,0-.2,0-.2,0-.2.2-.4.4-.6.3-.3.7-.6,1-.8,0,0,0,0,.1,0s.1,0,.1,0c.1-.1.3-.2.4-.3s.3-.2.4-.3c.1,0,.2-.2.4-.3s.2-.2.4-.2c.1,0,.3-.2.4-.2.1,0,.3,0,.5-.1,0,0,0,0,.1,0h.1c.1,0,.3,0,.4,0,.1,0,.3,0,.4.1.2,0,.4.2.6.3,0,0,0,0,.1,0,.1.1.2.2.4.4s.2.3.2.5c0,0,0,.2.1.3,0,0,0,.2,0,.3v.2s0,0,0,.2c0,.4,0,.8-.2,1.2,0,0,0,.2,0,.2s0,.2,0,.3,0,.2,0,.3,0,.2-.1.3c0,.2-.1.3-.2.4s-.1.3-.2.4c0,.1-.1.3-.1.4v.4c-.2.2-.2.3-.3.5s-.1.3-.2.5c-.2.3-.4.6-.6.8,0,0-.1,0-.1.1v.2c-.1,0-.1,0-.1,0,0,0,0,0,0,0h.3s.2,0,.2,0h.9c0-.1,0-.1,0-.1.1,0,.3,0,.4,0,.1,0,.3,0,.4,0h.1c.2,0,.3,0,.5,0h.7c0,0,.2,0,.2,0,0,0,.1,0,.2,0,0,0,.1,0,.2,0,0,0,.1,0,.2,0,.3,0,.6,0,.9.3.1.2.2.3.3.5h0c0,.4,0,.6-.1.8,0,0-.1.1-.1.2,0,0,0,0-.1,0s-.1,0-.2,0-.1,0-.2,0c0,0,0,0,0,0s0,0,0,0c-.1,0-.2,0-.4,0-.1,0-.2,0-.3,0-.2,0-.4-.1-.6-.1h-.2c0,0-.1,0-.2,0h-.1s-.6,0-.6,0c0,0-.1,0-.2,0,0,0-.2,0-.2,0s-.2,0-.2,0c0,0,0,0-.1,0,0,0,0,0-.1,0h0s0,0-.1,0c-.1,0-.2,0-.2,0,0,0-.1,0-.3,0h-.2c0,0-.1,0-.2,0,0,0-.1,0-.2,0,0,0-.1,0-.1,0s0,0-.1,0c-.1,0-.3,0-.4,0,0,0,0,0-.1,0s0,0-.1,0c0,0,0,0,0,0,0,0,0,0,0,0,0,0,0,0-.1,0,0,0,0,0,0,0s0,0,0,0h-.2c0,0-.1,0-.2,0,0,0-.1,0-.2,0h0ZM137.1,584.6h0s-.2,0-.2,0c0,0-.2,0-.3,0,0,0-.2,0-.2,0s-.1,0-.2,0c0,0-.2,0-.2-.1-.1-.1-.3-.2-.4-.3-.1-.1-.2-.2-.3-.4,0,0,0,0,0,0s0,0,0-.1l-.4-.6s0,0,0-.1l-.2-.5s0,0,0-.1c0-.1,0-.3,0-.4,0-.1,0-.3,0-.4v-1.2c-.2-.2-.2-.4-.1-.6,0-.4.2-.8.4-1.1.1-.2.3-.4.5-.6,0,0,0,0,.1-.1,0,0,0,0,0-.1.1-.2.3-.3.5-.5h.1c0-.2.1-.2.1-.3l.4-.4c.1,0,.2-.2.2-.3,0,0,0-.2,0-.2,0,0-.2-.2-.2-.2s-.1-.2-.2-.2c0,0,0,0-.1-.1h-.1c-.2-.2-.4-.4-.6-.5h0c0-.2-.2-.3-.3-.4,0-.1-.1-.3-.2-.4,0,0,0,0,0,0s0,0,0,0c0-.2,0-.4,0-.6s.1-.3.3-.5c.1-.1.2-.2.3-.3s.2-.2.4-.2c.1,0,.3-.1.4-.2s.3-.1.4-.2c.2,0,.5-.2.8-.3s.5-.2.8-.2h.3c.1-.1.2-.2.4-.2.1,0,.3,0,.4,0s.3,0,.4,0c.1,0,.3,0,.4,0h.3c.2.2.4.3.5.5.1.2.2.3.3.4.1.2.2.4.2.7h0c0,.2,0,.3.1.4h.2c.4.4.5.9.4,1.4,0,0,0,.2-.1.2s-.1.1-.2.2c-.1,0-.2.1-.3.2s-.2.2-.3.3c0,0-.1.1-.2.2s-.1.1-.2.2c0,0-.1.2-.2.2s-.2.1-.3.2c0,0,0,.1-.1.2,0,0,0,.1,0,.2,0,0,0,0,0,0,0,0,0,0,0,0,0,0,0,0,0,0,0,0,0,0,0,0h0s.2.2.2.2c.3.2.5.4.7.7v.2c.3.2.3.3.4.6,0,.1,0,.3,0,.4s0,.3,0,.4h0c0,.4,0,.8,0,1.2v.5c0,0,0,0,0,0,0,0,0,0,0,0l-.2.5c0,.1,0,.2-.1.3h0c0,.2,0,.3-.1.4s-.1.2-.2.2c-.2.4-.5.7-.8,1.1,0,0-.1.1-.1.2,0,0-.1.1-.2.2,0,0-.2.2-.3.2-.1,0-.3.1-.5.2s-.3,0-.5.1c0,0-.1,0-.2,0s-.1,0-.2,0c0,0-.1,0-.1,0,0,0,0,0-.1,0,0,0-.1,0-.2,0h-.2ZM137.8,582.4c.1,0,.3,0,.4-.2h0c.1-.2.2-.3.4-.4.1-.1.2-.3.4-.4h0c0-.2.2-.3.2-.4s.1-.2.2-.4c0-.2,0-.3.1-.5s0-.3,0-.5v-.3c0,0,0-.2,0-.3,0-.2-.1-.3-.2-.5,0-.1-.2-.3-.4-.3h0c-.1,0-.2-.2-.3-.2-.1,0-.2-.2-.3-.3h0c0-.1-.1-.2-.3-.2,0,0,0,0-.1,0,0,0,0,0,0,0,0,0,0,0,0,0,0,0,0,0-.1,0s0,0-.1,0c0,0-.2,0-.2.2s-.1,0-.2.2c0,0-.1,0-.2,0,0,0,0,0,0,0s0,0,0,0c0,0,0,.1,0,.2,0,0,0,0,0,.1,0,0-.1,0-.2.1,0,0,0,0,0,.1s0,0,0,.1c0,0,0,0,0,0,0,0,0,0,0,0,0,0,0,0,0,0,0,.1,0,.2,0,.3,0,0,0,.1,0,.2,0,0,0,0,0,.1,0,0,0,0,0,.1s0,.1,0,.2c0,0,0,0,0,0,0,0,0,0,0,0v.2c0,.1,0,.2,0,.3s0,.2,0,.3h0c0,.2,0,.2,0,.3s0,0,0,.1c0,0,.1.2.2.2,0,.1.2.2.3.3,0,0,0,0,.1,0,0,0,0,0,.1,0s0,0,.1,0h.2c0,0,.1,0,.2,0,0,0,.1,0,.2,0h0ZM138.4,574.7c0,0,.1,0,.2,0l.3-.2c0,0,0-.1,0-.2v-.2c-.1,0-.2-.2-.2-.2,0,0-.1-.1-.2-.2,0,0-.1-.2-.2-.3,0-.1-.1-.2-.2-.3,0,0-.1,0-.2,0,0,0-.1,0-.2,0-.1,0-.2,0-.3,0,0,0-.1,0-.2,0,0,0-.1,0-.2,0s-.1,0-.1,0c0,0,0,0,0,0h0s0,0,0,0c.3.2.5.3.7.5,0,0,.1.1.2.2s.1.1.2.2c0,0,.1.1.2.2,0,0,0,0,.1,0h0ZM122.6,754.5s0,0,0,0h-.3c0,0,0,0,0,0,0,0,0,0-.1,0,0,0,0,0-.1,0h-.2c-.1,0-.3,0-.4,0-.1,0-.3,0-.4-.1h-.1c-.2-.1-.3-.3-.4-.4,0,0,0,0,0-.2s0,0,0-.2c0,0,0,0,0-.1,0-.3.1-.5.3-.7,0,0,.2-.2.2-.2s.2-.2.3-.2.2-.1.3-.2c.1,0,.2-.1.3-.2.2-.1.4-.3.6-.4s.4-.3.5-.4c.3-.2.6-.5.7-.9,0-.2.2-.5.3-.7,0-.2.2-.4.2-.6,0-.2.1-.4.2-.5s.1-.4.2-.5c0-.2.1-.3.1-.5s0-.3,0-.5c0-.2,0-.4,0-.6,0,0,0-.1-.2-.2,0,0-.1,0-.2,0,0,0-.1,0-.2,0,0,0-.1,0-.2,0,0,0,0,0,0,0s0,0,0,0c-.3.1-.6.3-.8.5,0,0,0,0-.1.1h-.1c0,.2-.2.3-.3.4,0,0-.1.1-.2.2s-.1.1-.2.2c-.1.1-.2.3-.3.5,0,.2-.2.4-.4.5-.1,0-.2.2-.3.3,0,.1-.2.2-.3.3-.1,0-.2,0-.3,0l-.2-.2c0,0-.1-.1-.2-.2,0,0-.1-.1-.2-.2,0,0,0,0,0,0s0,0,0,0c0,0,0-.1,0-.2s0-.1,0-.2c0,0,0,0,0-.1,0,0,0,0,0-.2v-.2h0c0-.2,0-.2,0-.2,0-.2.2-.4.4-.6.3-.3.7-.6,1-.8,0,0,0,0,.1,0s.1,0,.1,0c.1-.1.3-.2.4-.3s.3-.2.4-.3c.1,0,.2-.2.4-.3s.2-.2.4-.2c.1,0,.3-.2.4-.2.1,0,.3,0,.5-.1,0,0,0,0,.1,0h.1c.1,0,.3,0,.4,0,.1,0,.3,0,.4.1.2,0,.4.2.6.3,0,0,0,0,.1,0,.1.1.2.2.4.4s.2.3.2.5c0,0,0,.2.1.3,0,0,0,.2,0,.3v.2s0,0,0,.2c0,.4,0,.8-.2,1.2,0,0,0,.2,0,.2s0,.2,0,.3,0,.2,0,.3,0,.2-.1.3c0,.2-.1.3-.2.4s-.1.3-.2.4c0,.1-.1.3-.1.4v.4c-.2.2-.2.3-.3.5s-.1.3-.2.5c-.2.3-.4.6-.6.8,0,0-.1,0-.1.1v.2c-.1,0-.1,0-.1,0,0,0,0,0,0,0h.3s.2,0,.2,0h.9c0-.1,0-.1,0-.1.1,0,.3,0,.4,0,.1,0,.3,0,.4,0h.1c.2,0,.3,0,.5,0h.7c0,0,.2,0,.2,0,0,0,.1,0,.2,0,0,0,.1,0,.2,0,0,0,.1,0,.2,0,.3,0,.6,0,.9.3.1.2.2.3.3.5h0c0,.4,0,.6-.1.8,0,0-.1.1-.1.2,0,0,0,0-.1,0s-.1,0-.2,0-.1,0-.2,0c0,0,0,0,0,0s0,0,0,0c-.1,0-.2,0-.4,0-.1,0-.2,0-.3,0-.2,0-.4-.1-.6-.1h-.2c0,0-.1,0-.2,0h-.1s-.6,0-.6,0c0,0-.1,0-.2,0,0,0-.2,0-.2,0s-.2,0-.2,0c0,0,0,0-.1,0,0,0,0,0-.1,0h0s0,0-.1,0c-.1,0-.2,0-.2,0,0,0-.1,0-.3,0h-.2c0,0-.1,0-.2,0,0,0-.1,0-.2,0,0,0-.1,0-.1,0s0,0-.1,0c-.1,0-.3,0-.4,0,0,0,0,0-.1,0s0,0-.1,0c0,0,0,0,0,0,0,0,0,0,0,0,0,0,0,0-.1,0,0,0,0,0,0,0s0,0,0,0h-.2c0,0-.1,0-.2,0,0,0-.1,0-.2,0h0ZM138.1,755.1s-.1,0-.2,0c0,0,0,0-.1,0-.1,0-.2-.1-.2-.1,0,0-.1-.1-.2-.2s0-.2-.1-.2h0c0-.1,0-.3,0-.4s0-.2,0-.4c0,0,0,0,0,0v-.3c0,0,0-.2,0-.3,0-.1,0-.2,0-.4s0-.2,0-.4h0c0-.1,0-.4,0-.4v-.3c0-.1,0-.2,0-.4v-.4c0-.2.1-.5.2-.7v-.7c.1,0,.1-.3.1-.3,0,0,0-.1,0-.2,0,0,0-.1,0-.1,0,0,0,0,0,0,0,0,0-.1,0-.2,0,0,0-.2,0-.2,0-.1,0-.3,0-.5,0,0,0,0,0,0h0c-.1,0-.3.2-.4.2s-.3.1-.4.2c-.3.1-.6.2-.9.3s-.6.1-.9.2h-.8c-.3.2-.6.2-.8,0,0,0,0,0,0,0,0,0,0,0,0,0,0,0-.1,0-.2-.1,0,0-.1,0-.2,0,0,0,0,0,0,0,0,0,0,0,0,0s0,0,0-.1c0,0,0-.1,0-.2,0,0,0-.1,0-.2,0,0,0,0,0,0,0,0-.1,0-.2-.1,0,0-.1-.1-.2-.2,0,0-.1-.2-.2-.2,0,0-.1-.2-.2-.2,0,0,0,0,0-.1,0,0,0,0,0-.2,0-.1,0-.2,0-.3,0,0,0-.2,0-.3l-.2-.5c0-.1,0-.2,0-.3,0-.1,0-.2,0-.4h0c0-.2,0-.3,0-.5s0-.2.1-.4c0-.1.1-.2.2-.3s.1-.2.2-.3c0-.2.2-.3.3-.4,0-.1.2-.3.2-.4v-.2c.2,0,.2-.2.3-.2,0,0,0,0,0,0,0,0,0,0,0,0,0,0,0,0,0,0,0,0,.1,0,.1,0l.3-.2c0,0,.1,0,.2,0s.1,0,.2,0c.1,0,.3,0,.4,0s.3,0,.4,0h.3c0,0,.2,0,.3,0,.2,0,.4,0,.5,0s.4,0,.5.2c.2,0,.4.2.7.3s.4.2.6.3c0,0,0,0,0,0,0,0,0,0,0,0,0,0,0,0,0,0s0,0,0,0c0,0,0,0,0,0,0-.1,0-.2,0-.3,0-.1,0-.2,0-.3,0,0,0-.2.1-.2,0,0,.1,0,.2,0s0,0,.1-.1c0,0,0,0,.1,0,.2,0,.4-.1.5,0,0,0,0,0,.1,0,.2,0,.4.2.5.4,0,0,0,0,0,0s0,0,0,0c0,.2,0,.3,0,.5v4.7s0,0,0,.1c0,.1,0,.3,0,.4s0,.3,0,.4v.4c0,.1,0,.3,0,.4v.8c0,0,0,.3,0,.3,0,0,0,.2,0,.3,0,.2,0,.3,0,.5,0,.2,0,.3,0,.5,0,0,0,0,0,.1h0c0,.2,0,.3,0,.4s0,.2,0,.2v.2s0,.3,0,.3c0,0,0,0,0,.1v.6c0,0-.2.6-.2.6,0,0,0,.1,0,.2s0,.1,0,.2v.3c-.1.1-.2.2-.3.3,0,0-.1,0-.1.1,0,0,0,0-.1.1,0,0-.1,0-.2,0h0s0,0,0,0c0,0,0,0,0,0h0ZM134.9,746.8c.1,0,.2,0,.3,0h.5c0,0,.1,0,.2,0s.1,0,.2,0c.1,0,.2,0,.3,0,0,0,.1,0,.1,0,0,0,.1,0,.1,0,0,0,.1,0,.2,0s.1,0,.2,0c.2,0,.3-.2.3-.5h0c0-.2,0-.2,0-.3v-.3c0-.1,0-.3,0-.4s0-.2-.1-.4c0-.2-.1-.3-.2-.4s-.2-.2-.4-.3h-.1c-.1-.1-.3-.2-.5-.3s-.3-.1-.5-.2c0,0-.2,0-.3,0,0,0-.2,0-.3,0,0,0-.2,0-.3,0,0,0-.2,0-.3,0-.2,0-.3.1-.4.3v.2c-.1,0-.1,0-.2.1,0,0,0,0,0,0,0,0-.1.1-.2.2,0,0,0,.1-.1.2s0,.1-.1.2c0,0,0,.1,0,.2,0,0,0,.1,0,.1v.3c.1.1.1.2.2.3,0,.1,0,.2,0,.3,0,0,0,.1.2.2h.1c.1.2.2.3.3.4,0,0,0,0,.1.1s.1,0,.2.1c0,0,.1,0,.2,0h0ZM86.3,754.3c-.1,0-.3,0-.4,0s-.3,0-.4-.2c0,0,0,0,0,0,0,0,0,0,0,0,0,0-.1,0-.2-.1,0,0-.1,0-.2-.2l-.3-.3h0c0-.1,0-.2,0-.2,0,0,0,0,0-.1s0,0,0-.1c0,0,0-.2.2-.2,0,0,.1,0,.1-.1,0-.1,0-.2.2-.3,0,0,.2-.1.3-.2.1,0,.3-.1.5-.1h.1s0,0,.1,0h.1s0,0,.1,0c.1,0,.3,0,.4,0s.3,0,.4-.1l.4-.2.6-.2c.2,0,.3-.1.4-.2.1,0,.2,0,.3-.1l.3-.2c0,0,.2,0,.2-.2s.1-.1.2-.2c0,0,.1-.2.2-.2,0-.1.1-.3,0-.4,0,0,0-.2,0-.2,0,0,0-.2,0-.2,0,0,0-.2-.1-.2s0-.2-.1-.3c0,0,0,0,0,0,0,0-.1-.2-.2-.3s-.1-.2-.2-.3c0,0-.1-.1-.2-.2,0,0-.1,0-.2-.1,0,0-.1,0-.1,0,0,0-.1,0-.1,0,0,0-.1,0-.2,0,0,0-.1,0-.2,0-.2,0-.4,0-.5-.1h-.5c-.2-.1-.3-.2-.5-.2-.2,0-.2-.1-.3-.1h-.1s-.2,0-.4-.1c0,0-.1,0-.2,0s-.1,0-.3,0c0,0,0,0,0-.1s0,0,0-.1c0,0,0-.1,0-.2s0-.1,0-.2c0,0,0-.1,0-.2,0,0,0,0,0,0,0,0,0,0,0-.1s0,0,0,0c0,0,0-.1,0-.2v-.2c.2-.2.4-.4.6-.6.2-.2.4-.5.5-.7s.4-.4.5-.7c0-.1.2-.2.2-.3v-.2c.2,0,.2-.1.3-.2,0,0,0,0,0-.1,0,0,0,0,0-.1,0,0,0-.1,0-.2,0,0,0-.1,0-.2,0,0,0,0,0,0h0s0,0,0,0c-.1,0-.2,0-.4,0-.1,0-.2,0-.4,0h-.2c0,0-.1,0-.1,0,0,0,0,0-.1,0-.1,0-.3,0-.4,0s-.3,0-.4,0h0c-.2,0-.4.1-.6.2s-.4.1-.6.2c0,0-.2,0-.3,0,0,0-.2,0-.3,0,0,0-.1,0-.2,0s-.1,0-.1,0c-.1,0-.3.1-.4.2,0,0,0,0,0,0-.1,0-.2,0-.3,0s-.2,0-.3,0c-.1,0-.2,0-.3-.1,0,0,0,0-.1,0,0,0,0,0,0,0,0,0,0,0,0,0,0,0,0,0,0-.1s0,0,0-.1,0,0,0-.2c0-.2,0-.4.1-.5,0,0,0-.1.1-.2s.1-.1.2-.2c.2-.2.4-.2.6-.3h.5c.1,0,.2,0,.3,0,0,0,.2,0,.3,0,.2,0,.3,0,.5,0s.3,0,.5,0c.2,0,.3,0,.5,0s.3,0,.5,0c.1,0,.2,0,.4,0h.5c.1,0,.2,0,.3,0s.1,0,.2,0c0,0,.2,0,.2,0,0,0,.2,0,.2,0,.1,0,.2,0,.3,0,0,0,.2,0,.3,0h.4c0,.1.1.2.1.2s0,0,.1,0c.1,0,.2.2.3.2s.1.2.2.3c.1.2.2.4.1.6,0,.2,0,.3,0,.4s0,.3-.1.4l-.3.6s0,.1,0,.2v.2c0,0-.3.3-.3.3,0,.1-.2.3-.2.4,0,.1-.2.3-.3.4h0c0,0,0,.1,0,.2,0,0,.1,0,.1,0,.2,0,.3,0,.5,0s.3,0,.5.1c.2,0,.4,0,.6.2s.4.2.5.3c.3.2.6.5.8.8.1.1.2.3.3.4s.2.3.3.5l.3.5c.2.4.3.8.3,1.2,0,.1,0,.2,0,.3,0,.1,0,.2,0,.3,0,0,0,.1,0,.2,0,.1,0,.3-.1.4s-.1.2-.2.4c0,0-.2.2-.2.3s-.1.2-.3.3c0,0,0,0,0,0,0,0-.1,0-.2.2,0,0-.1,0-.2.2,0,0-.1,0-.2.1s-.1,0-.2.1c-.2.2-.4.2-.6.2-.2,0-.4,0-.5,0l-.5.2c0,0-.1,0-.2,0,0,0-.1,0-.2,0-.1,0-.3,0-.4.1-.1,0-.3,0-.4.1s-.3.1-.4.2l-.2.2c0,0-.1,0-.1.1,0,0-.2,0-.3,0h0ZM98.4,754.1c-.1,0-.3,0-.4,0-.1,0-.3,0-.4,0-.3,0-.6-.1-.9-.2h-.2c-.1,0-.2-.1-.3-.2-.1,0-.2,0-.3-.1,0,0-.2,0-.3-.1,0,0-.2,0-.3-.1h0c0-.1-.2-.2-.3-.2,0,0-.2,0-.3-.1-.1,0-.2-.1-.3-.2s-.2-.2-.3-.2c0,0,0,0,0,0,0-.1-.1-.2-.2-.3s-.1-.2-.2-.3v-.3c-.1,0-.2-.1-.2-.2s0-.1,0-.2c0-.1,0-.3,0-.4v-.3c0,0,0-.2,0-.3,0,0,0-.1,0-.2,0,0,0-.1,0-.2v-.2c0,0,0-.1,0-.2s0-.1,0-.2c0,0,0,0,0,0s0,0,0,0c0,0,0,0,0-.1s0,0,0-.1c0-.1,0-.3,0-.4,0,0,0,0,0,0s0,0,0,0v-.2c0-.1,0-.2.1-.3s0-.2.1-.3c0,0,0-.1,0-.2,0,0,0,0,0,0h0c0-.2,0-.2,0-.3,0,0,0,0,.2-.1,0,0,0,0,0,0s0,0,0,0h0c0-.1,0-.2,0-.3s0-.1,0-.2c0-.2,0-.3.2-.5,0,0,.1-.1.1-.2,0,0,0,0,0,0s0,0,0,0c.1-.2.2-.3.2-.5s.1-.3.2-.5c0,0,0,0,0,0,0,0,0-.2.2-.2,0,0,0,0,0,0s0,0,0,0c0,0,.1-.1,0-.2,0,0,0,0,0-.1h0c0-.2,0-.3.1-.3h.1c0,0,.1-.1.2-.2,0,0,0,0,.1-.1,0,0,0,0,0,0s0,0,0,0c0-.1,0-.2.2-.3,0,0,0,0,0,0,0,0-.1-.1-.2-.2,0,0-.1-.1-.2-.2,0,0-.1,0-.1-.2,0,0,0-.1-.1-.2,0,0,0,0,0,0v-.4s0,0,0-.1c0,0,0,0,0-.1,0,0,0,0,0-.1,0,0,0,0,0,0,0,0,0,0,0,0,0,0,0,0,.1,0,0,0,.1,0,.1-.1,0,0,0,0,.1,0,0,0,.2,0,.2,0,0,0,.2,0,.2,0,0,0,.1,0,.2,0,.1,0,.2,0,.3.1s.2,0,.3.1h.2c0,0,.1,0,.2,0,0,0,.1,0,.1-.1,0,0,0,0,.1-.1.1-.1.2-.2.4-.2,0,0,0,0,0,0h.3c.1,0,.2,0,.3,0s.2,0,.3,0c0,0,0,0,0,0,0,0,0,.1.1.1s.1,0,.2,0c0,0,.1,0,.2,0s.2,0,.2.1c0,0,0,0,0,.1,0,0,0,.1.1.1,0,0,0,0,0,0s0,0,0,0c0,0,0,.1,0,.2,0,.2-.2.4-.4.5,0,0,0,0-.1,0h-.1s-.1,0-.1,0c0,0,0,0,0,0,0,0,0,0,0,0s0,0,0,0h0s0,0,0,0c0,0,0,0,0,0,0,0,.1.1.2.2,0,0,.1.1.2.2,0,0,.1.2.2.2s.1.2.2.2c0,0,0,.2.1.2l.2.2.2.3c0,0,.1.2.2.3s.1.2.2.3c.1.2.2.3.3.5l.3.5c.2.3.3.7.5,1,.1.2.2.5.3.8s.1.5.2.8l.2.8c0,0,0,.2,0,.3,0,0,0,.2,0,.3,0,.2-.1.4-.2.6,0,.2-.2.5-.3.7,0,.2-.1.3-.2.5s-.1.3-.2.5c-.1.2-.2.4-.4.6,0,0-.1.1-.1.2s0,.1-.1.2c0,0-.1.1-.2.2,0,0-.1.1-.2.2l-.2.2c0,0-.2.1-.3.2s-.2.1-.3.2c-.2,0-.4.2-.6.2-.2,0-.5.1-.8.1h-.1s0,0-.1,0h-.3ZM97.9,752.2h.2c0,0,.1,0,.2,0,0,0,.2,0,.2,0,0,0,.2,0,.2,0s.1,0,.2,0c0,0,.1,0,.2,0,.1,0,.3-.1.5-.2,0,0,.1,0,.2-.1,0-.1.2-.2.4-.3,0,0,0,0,.1-.1,0,0,.1-.1.1-.2,0,0,0-.1.1-.2l.2-.5c0-.2.1-.3.2-.5,0-.2.1-.4.1-.5h0c0-.2,0-.3,0-.3,0,0,0-.2,0-.2,0-.2,0-.3-.1-.5v-.5c-.1-.2-.2-.5-.3-.7s-.2-.4-.3-.7c0-.2-.2-.3-.3-.5,0-.2-.2-.3-.3-.5,0,0,0-.2-.1-.2,0-.1-.1-.2-.2-.3,0,0-.1-.2-.2-.3l-.5-.7c0-.1-.1-.2-.2-.3s-.1-.2-.2-.2c0,0,0,0,0,0,0,0,0,0-.1,0h0s0,0,0,0l-.5.7c-.4.5-.7,1.1-1,1.8,0,.2-.2.4-.3.7s-.2.5-.3.7c0,.2-.2.5-.3.8,0,.3-.2.5-.2.8-.1.3-.2.7-.2,1,0,0,0,0,0,.1,0,0,0,.2,0,.3s0,.2,0,.3c0,.2.2.4.3.6l.4.3c.1,0,.2.2.4.3s.3.2.4.2c.2,0,.3.1.5.2s.4,0,.5,0h0ZM4.8,602.6c-.1,0-.3,0-.4,0s-.3,0-.4-.2c0,0,0,0,0,0,0,0,0,0,0,0,0,0-.1,0-.2-.1,0,0-.1,0-.2-.2l-.3-.3h0c0-.1,0-.2,0-.2,0,0,0,0,0-.1s0,0,0-.1c0,0,0-.2.2-.2,0,0,.1,0,.1-.1,0-.1,0-.2.2-.3,0,0,.2-.1.3-.2.2,0,.3-.1.5-.1h.1s0,0,.1,0h.1s0,0,.1,0c.1,0,.3,0,.4,0s.3,0,.4-.1l.4-.2.6-.2c.2,0,.3-.1.4-.2.1,0,.2,0,.3-.1l.3-.2c0,0,.2,0,.2-.2s.1-.1.2-.2c0,0,.2-.2.2-.2,0-.1.1-.3,0-.4,0,0,0-.2,0-.2,0,0,0-.2,0-.2,0,0,0-.2,0-.2s0-.2,0-.3c0,0,0,0,0,0,0,0-.2-.2-.2-.3s-.1-.2-.2-.3c0,0-.1-.1-.2-.2s-.1,0-.2-.1c0,0,0,0-.2,0,0,0,0,0-.2,0,0,0-.1,0-.2,0,0,0-.1,0-.2,0-.2,0-.3,0-.5-.1h-.5c-.2-.1-.3-.2-.5-.2-.2,0-.2-.1-.3-.1h0s-.2,0-.4-.1c0,0-.2,0-.2,0s-.2,0-.3,0c0,0,0,0,0-.1s0,0,0-.1c0,0,0-.1,0-.2s0-.1,0-.2c0,0,0-.1,0-.2,0,0,0,0,0,0,0,0,0,0,0-.1s0,0,0,0c0,0,0-.1,0-.2v-.2c.2-.2.4-.4.5-.6.2-.2.3-.5.5-.7s.3-.4.5-.7c0-.1.2-.2.2-.3l.2-.2c0,0,0-.1.1-.2,0,0,0,0,0-.1s0,0,0-.1c0,0,0-.1,0-.2,0,0,0-.1,0-.2,0,0,0,0,0,0h0s0,0,0,0c-.1,0-.2,0-.4,0-.1,0-.2,0-.4,0h-.2c0,0,0,0-.1,0,0,0,0,0-.1,0-.1,0-.3,0-.4,0s-.3,0-.4,0h0c-.2,0-.4.1-.6.2s-.4.1-.6.2c0,0-.2,0-.3,0,0,0-.2,0-.3,0,0,0-.1,0-.2,0s0,0-.1,0c-.1,0-.3.1-.4.2,0,0,0,0,0,0-.1,0-.2,0-.3,0s-.2,0-.3,0c-.1,0-.2,0-.3-.1,0,0,0,0,0,0,0,0,0,0,0,0,0,0,0,0,0,0,0,0,0,0,0-.1s0,0,0-.1,0,0,0-.2c0-.2,0-.4,0-.5,0,0,0-.1.1-.2s0-.1.2-.2c.2-.2.4-.2.6-.3h.5c.1,0,.2,0,.3,0,0,0,.2,0,.3,0,.2,0,.3,0,.5,0s.3,0,.5,0c.2,0,.3,0,.5,0s.3,0,.5,0c.1,0,.2,0,.4,0h.5c.1,0,.2,0,.3,0,0,0,.1,0,.2,0,0,0,.2,0,.2,0,0,0,.2,0,.2,0,.1,0,.2,0,.3,0,0,0,.2,0,.3,0h.4c0,.1,0,.2.1.2s0,0,.1,0c.1,0,.2.2.3.2s.1.2.2.3c.2.2.2.4.1.6,0,.2,0,.3,0,.4s0,.3-.2.4l-.3.6s0,.1,0,.2v.2c0,0-.3.3-.3.3,0,.1-.2.3-.2.4,0,.1-.2.3-.3.4h0c0,0,0,.1,0,.2s0,0,.1,0c.2,0,.3,0,.5,0s.3,0,.5.1c.2,0,.4,0,.6.2s.4.2.5.3c.3.2.6.5.8.8.1.1.2.3.3.4s.2.3.3.5l.3.5c.2.4.3.8.3,1.2,0,.1,0,.2,0,.3,0,.1,0,.2,0,.3,0,0,0,.1,0,.2,0,.1,0,.3-.2.4s-.1.2-.2.4c0,0-.2.2-.2.3s-.2.2-.3.3c0,0,0,0,0,0,0,0-.1,0-.2.2,0,0-.1,0-.2.2,0,0-.1,0-.2.1s-.1,0-.2.1c-.2.2-.4.2-.6.2-.2,0-.4,0-.5,0l-.5.2c0,0-.1,0-.2,0,0,0-.1,0-.2,0-.1,0-.3,0-.4.1-.1,0-.3,0-.4.1s-.3.1-.4.2l-.2.2c0,0,0,0-.1.1,0,0-.2,0-.3,0h0ZM14.6,601.8s0,0,0,0h-.3c0,0,0,0,0,0,0,0,0,0,0,0,0,0,0,0-.1,0h-.2c-.1,0-.3,0-.4,0-.1,0-.3,0-.4-.1h-.1c-.2-.1-.3-.3-.4-.4,0,0,0,0,0-.2s0,0,0-.2c0,0,0,0,0-.1,0-.3.2-.5.3-.7,0,0,.2-.2.2-.2,0,0,.2-.2.3-.2s.2-.1.3-.2.2-.1.3-.2c.2-.1.4-.3.6-.4.2-.1.4-.3.5-.4.3-.2.6-.5.7-.9,0-.2.2-.5.3-.7,0-.2.2-.4.2-.6,0-.2.1-.4.2-.5,0-.2.1-.4.2-.5,0-.2,0-.3.1-.5s0-.3,0-.5c0-.2,0-.4,0-.6,0,0,0-.1-.2-.2,0,0-.1,0-.2,0,0,0-.1,0-.2,0,0,0-.1,0-.2,0,0,0,0,0,0,0s0,0,0,0c-.3.1-.6.3-.8.5,0,0,0,0-.1.1h-.1c0,.2-.2.3-.3.4,0,0-.1.1-.2.2s-.1.1-.2.2c-.1.1-.2.3-.3.5,0,.2-.2.4-.4.5-.1,0-.2.2-.3.3,0,.1-.2.2-.3.3-.1,0-.2,0-.3,0l-.2-.2c0,0-.1-.1-.2-.2,0,0-.1-.1-.2-.2,0,0,0,0,0,0,0,0,0,0,0,0,0,0,0-.1,0-.2s0-.1,0-.2c0,0,0,0,0-.1,0,0,0,0,0-.2v-.2h0c0-.1,0-.2,0-.2,0-.2.2-.4.4-.6.3-.3.7-.6,1-.8,0,0,0,0,.1,0s0,0,.2,0c.2-.1.3-.2.4-.3.1,0,.3-.2.4-.3.1,0,.2-.2.3-.3s.2-.2.4-.2c.2,0,.3-.2.4-.2s.3,0,.5-.1c0,0,0,0,0,0h0c.2,0,.3,0,.4,0,.2,0,.3,0,.4.1.2,0,.4.2.6.3,0,0,0,0,0,0,.1.1.2.2.3.4s.2.3.2.5c0,0,0,.2,0,.3s0,.2,0,.3v.2s0,.2,0,.2c0,.4,0,.8-.2,1.2,0,0,0,.2,0,.2s0,.2,0,.3,0,.2,0,.3,0,.2-.1.3c0,.2-.1.3-.2.4s-.1.3-.2.4c0,.1,0,.3-.1.4v.4c-.2.2-.2.3-.3.5s-.1.3-.2.5c-.2.3-.4.6-.6.8,0,0,0,0-.2.1l-.2.2h0c0,0,0,0,0,0h.3s.2,0,.2,0h.9c0-.1,0-.1,0-.1.2,0,.3,0,.4,0,.2,0,.3,0,.4,0h0c.2,0,.3,0,.5,0h.7c0,0,.2,0,.2,0,0,0,.1,0,.2,0,0,0,.1,0,.2,0,0,0,.1,0,.2,0,.3,0,.6,0,.9.3.2.2.2.3.3.5h0c0,.4,0,.6-.1.8,0,0,0,.1-.1.2,0,0,0,0,0,0s-.1,0-.2,0-.1,0-.2,0c0,0,0,0,0,0s0,0,0,0c-.1,0-.2,0-.3,0-.1,0-.2,0-.3,0-.2,0-.4-.1-.6-.1h-.2c0,0-.1,0-.2,0h-.1s-.6,0-.6,0c0,0-.1,0-.2,0,0,0-.2,0-.2,0s-.2,0-.2,0,0,0-.1,0,0,0-.1,0h0s0,0-.1,0c-.1,0-.2,0-.2,0,0,0-.1,0-.3,0h-.2c0,0-.1,0-.2,0,0,0-.1,0-.2,0,0,0,0,0-.1,0s0,0-.1,0c-.1,0-.3,0-.4,0,0,0,0,0-.1,0s0,0-.1,0c0,0,0,0,0,0,0,0,0,0,0,0,0,0,0,0-.1,0,0,0,0,0,0,0s0,0,0,0h-.2c0,0-.1,0-.2,0s-.2,0-.2,0h0Z"/>
  </g>
  <g id="palle">
    <circle class="cls-1" cx="30.6" cy="445" r="6"/>
    <circle class="cls-1" cx="95" cy="433.1" r="6"/>
    <circle class="cls-1" cx="222.2" cy="245" r="6"/>
    <circle class="cls-1" cx="379.5" cy="109.4" r="6"/>
    <circle class="cls-1" cx="505.9" cy="58.6" r="6"/>
    <circle class="cls-1" cx="646.5" cy="34.3" r="6"/>
    <circle class="cls-1" cx="749.6" cy="46.7" r="6"/>
    <circle class="cls-1" cx="817.6" cy="103.4" r="6"/>
    <circle class="cls-1" cx="829.5" cy="182" r="6"/>
    <circle class="cls-1" cx="833.5" cy="271.8" r="6"/>
    <circle class="cls-1" cx="827.5" cy="380.7" r="6"/>
    <circle class="cls-1" cx="821.6" cy="456.9" r="6"/>
    <circle class="cls-1" cx="799.8" cy="554.1" r="6"/>
    <circle class="cls-1" cx="726.4" cy="584.6" r="6"/>
    <circle class="cls-1" cx="726.4" cy="724.8" r="6"/>
    <circle class="cls-1" cx="696.1" cy="724.8" r="6"/>
    <circle class="cls-1" cx="684.1" cy="596.5" r="6"/>
    <circle class="cls-1" cx="646.5" cy="596.5" r="6"/>
    <circle class="cls-1" cx="646.5" cy="730.7" r="6"/>
    <circle class="cls-1" cx="610.3" cy="730.7" r="6"/>
    <circle class="cls-1" cx="604.4" cy="596.5" r="6"/>
    <circle class="cls-1" cx="478.1" cy="602.4" r="6"/>
    <circle class="cls-1" cx="312.2" cy="596.5" r="6"/>
    <circle class="cls-1" cx="185.2" cy="590.5" r="6"/>
    <circle class="cls-1" cx="185.2" cy="724.8" r="6"/>
    <circle class="cls-1" cx="159.9" cy="724.8" r="6"/>
    <circle class="cls-1" cx="159.9" cy="596.5" r="6"/>
    <circle class="cls-1" cx="134.4" cy="596.5" r="6"/>
    <circle class="cls-1" cx="134.4" cy="730.7" r="6"/>
    <circle class="cls-1" cx="106.9" cy="730.7" r="6"/>
    <circle class="cls-1" cx="101" cy="584.6" r="6"/>
    <circle class="cls-1" cx="24.7" cy="584.6" r="6"/>
  </g>
</svg>