<svg xmlns="http://www.w3.org/2000/svg" version="1.1" xmlns:xlink="http://www.w3.org/1999/xlink" xmlns:svgjs="http://svgjs.dev/svgjs" width="800" height="800"><svg id="SvgjsSvg1082" data-name="Layer 1" xmlns="http://www.w3.org/2000/svg" viewBox="0 0 800 800">
  <defs>
    <style>
      .b {
        fill: #10069f;
      }

      .c {
        fill: #fffbc1;
      }
    </style>
  </defs>
  <rect class="c" x="0" width="800" height="800"></rect>
  <path class="b" d="M747.52692,317.63696c-.84735,2.23093-1.62403,4.23606-2.2735,5.95868-23.52411,62.48183-44.84573,116.26567-65.19314,164.44374-.31026.73419-.62121,1.45433-.93181,2.18861-3.50178,8.21796-6.80603,15.98406-7.20109,26.5318-.16961,4.47616-3.77032,7.99207-8.20391,7.99207-.18374,0-.353-.01413-.53675-.01413l-2.3721-.1553c-9.9124-.63543-18.41278-7.1025-21.64636-16.49237l-.56467-1.63799c-.93215-2.71105-.86114-5.66221.1834-8.31681l85.41335-216.75893c.31026-1.18613.21166-1.89214,0-2.17456-.22614-.29647-.87562-.48004-1.68056-.48004-1.52475,0-3.43111.59302-5.33747,1.65204-9.58766,5.63394-18.07356,19.1187-23.69337,28.04267-1.93463,3.06406-3.60072,5.71866-4.94207,7.48368-33.29551,43.49025-59.14966,86.82511-86.51442,132.70159-3.50178,5.85983-7.03183,11.76205-10.59014,17.72082-1.97703,3.27589-4.25054,7.46955-6.65055,11.90331-11.32442,20.82728-26.81457,49.37826-45.90509,53.06369-1.84948.36714-3.72758.55062-5.57741.55062-14.26118,0-26.15062-10.88661-27.66157-25.30335-.70601-6.80594,3.67139-25.26104,7.03217-38.53396,3.38871-13.37186,16.11101-46.52604,29.58172-81.64294,12.11523-31.57272,24.61139-64.16214,28.87572-78.98834-9.19226,13.62602-31.47395,51.22808-66.46382,112.19905-3.89684,6.76354-6.46681,11.23961-7.24349,12.56692-20.77074,34.7639-43.65951,74.38514-55.98641,104.68709-1.17209,2.89462-1.89223,6.39649-2.65477,10.11002-1.07315,5.29507-2.1887,10.77371-4.8714,14.96745-2.37244,3.71362-16.02655,18.75156-22.62057,19.10457-.59294.02827-1.18622.0424-1.76502.0424-7.07423,0-12.56683-2.17448-15.87108-6.2835-2.11803-2.6546-4.30673-7.4131-2.61237-15.06622,2.62651-11.87513,19.62727-44.12559,27.80291-59.62961l1.68022-3.19109c12.89157-24.54089,27.7743-48.92649,42.16269-72.49308,5.56327-9.12167,11.32442-18.55395,16.81736-27.77439,34.70719-58.11874,66.40694-110.29277,103.0491-160.10883l.15513-.21184.18374-.18348c1.86396-1.75098,4.40532-2.66874,7.38483-2.66874,10.1382,0,24.90786,11.09845,25.0916,18.85042l.01413.52244-.16961.48012c-8.89544,25.2469-21.91456,63.04659-32.20823,99.75908-.93181,3.30416-4.49012,14.19086-9.40392,29.27121-10.91488,33.50718-29.20045,89.56434-31.48809,102.52666-.07033.36714-.09859.72014-.12686,1.07315,7.39896-10.39244,31.67149-54.75813,49.44893-87.2487,11.18308-20.43187,20.0082-36.58537,22.36616-40.17187,26.72976-40.76498,48.29132-70.62921,65.94155-91.30118.4092-.48004,41.40014-48.24866,64.52885-48.24866.50848,0,1.00282.02827,1.49682.07058,8.38731.77659,19.20359,7.30011,22.02763,16.46419,5.01274,16.16755-11.43749,59.09295-20.2764,82.15124ZM410.43502,455.41112c21.34914-49.22397,53.74953-146.2362,34.17255-197.63791-7.69905-20.21478-19.32897-14.92292-33.04355-22.85899-10.4455-6.04439-12.12899-18.57206-28.93832-14.8592-5.87428,1.29752-36.82331,31.92432-40.12186,38.17686-6.97869,13.22837-.2294,17.69033-2.26304,28.90235-5.68059,31.31869-37.35266,88.54941-48.8816,123.23123-10.25619,30.85309-22.71496,79.64398-20.0272,111.66639,3.263,38.87581,41.9678,43.02657,71.73981,24.63266,19.96684-12.3356,52.62594-57.27364,67.36321-91.25339ZM419.15252,314.37406c-2.3587,44.97109-27.59914,114.89-50.65003,150.57197-5.80811,8.99075-31.48357,49.37741-43.50812,54.81359-19.38316,8.76294-23.9916-8.92497-22.35973-24.52182,1.60618-15.35128,12.45926-55.88445,17.20537-72.10491,12.30142-42.04173,26.23138-85.87577,51.01846-127.69701,7.12711-8.86775,15.52389-26.20545,27.47206-26.22528,29.2131-.04849,21.40407,34.06547,20.82199,45.16346ZM139.99674,339.97226c5.07625-10.47631,23.98542-39.04903,21.85827-48.18832-.54155-2.32678-4.08471-4.77364-4.08547-5.17154-.01051-5.48584,70.32208-18.79968,79.28784-19.44096,9.38917-.67157,25.20396-1.0653,34.248.17097,11.27998,1.54191,15.14836,10.54418,26.54433.83501,8.82937-7.52247,12.29997-26.95214-1.56715-30.31321-41.05502-9.95077-143.32922,14.8537-184.50349,30.4489-19.24781,7.29032-52.22937,17.18336-44.46441,41.99378,6.59307,21.06602,40.49911,1.36381,48.06806-1.68367.63649-.25627,1.28975.29937,1.09547.95743-2.79793,9.47685-15.75586,45.40797-18.58989,52.41319-1.10859,2.74025-7.379,24.12992-9.1455,25.41127-6.60672,4.79227-25.59624,2.18003-34.98819,6.3662-14.58116,6.4991-14.90665,26.0162-.27125,33.47416,9.02632,4.59967,12.85149-1.72643,21.51542,1.4487-7.94543,31.05311-41.49242,77.67265-35.78639,108.95471,5.28221,28.9586,34.10581,21.6043,55.95041,16.5389,52.10912-12.08324,103.21328-38.91721,151.58083-60.84667,9.84485-11.93333,4.36084-27.82591-11.85792-26.86659-5.72511.33863-26.91175,15.31086-34.22431,18.74052-41.27973,19.36059-84.26307,32.50592-130.27111,33.94622,7.40083-34.42495,22.48646-67.24829,34.97992-100.287,13.33655-4.34979,27.1609-7.64692,40.83739-10.84902,15.05358-3.52453,79.30493-13.3716,86.27988-19.38758,12.69997-10.95387,1.30918-20.34748-11.49706-21.84973l-100.03069,17.19307c-1.73597-1.65769,16.60105-38.98148,19.03699-44.00874Z"></path>
</svg><style>@media (prefers-color-scheme: light) { :root { filter: none; } }
@media (prefers-color-scheme: dark) { :root { filter: none; } }
</style></svg>