<?xml version="1.0" encoding="UTF-8"?>
<svg id="Layer_1" data-name="Layer 1" xmlns="http://www.w3.org/2000/svg" version="1.1" viewBox="0 0 925.4 1013.4">
  <defs>
    <style>
      .cls-1 {
        fill: #fdf8c4;
        stroke-width: 0px;
      }
    </style>
  </defs>
  <g id="numeri">
    <path class="cls-1" d="M18.8,954.3h-.8l-.2-.2c0,0,0-.2-.1-.3s0-.2,0-.3v-1.6h0v-1.7c0,0,0-.2-.1-.3s0-.2,0-.3v-2.7h0v-2.3c.2,0,.2-.2.3-.2s.1,0,.2-.2h.4s.2,0,.2,0c.2,0,.3.2.3.4v.2c.1,0,.2,0,.2.2v1.9h0v.2h0v.7c0,0,0,0,0,0h0v1.4h0v.4c0,.1,0,0,0,0v2.1h0v1.5h0c0,.2,0,0,0,0v.2c-.1.2-.3.3-.6.5h-.1.3ZM2.7,713.4h-1c-.1,0-.3,0-.4,0h-.1c-.2,0-.3-.3-.4-.4v-.4h0c0-.4.2-.6.3-.8l.2-.2s.2-.2.3-.2.2,0,.3-.2c0,0,.2,0,.3-.2.2,0,.4-.3.6-.4.2,0,.4-.3.5-.4.3-.2.5-.5.7-.9,0-.2.2-.5.3-.7,0-.2.2-.4.2-.6s0-.4.2-.5c0-.2,0-.4.2-.5,0-.2,0-.3,0-.5s0-.3,0-.5v-.6s0,0-.2-.2h-.6c-.3,0-.6.3-.8.5h0c0,0,0,0,0,0,0,.2-.2.3-.3.4,0,0,0,0-.2.2s0,0-.2.2c0,0-.2.3-.3.5,0,.2-.2.4-.4.5-.1,0-.2.2-.3.3,0,0-.2.2-.3.3h-.3l-.2-.2s-.1,0-.2-.2,0-.2-.2-.2H.3v-.4H.3v-.5H.3v-.2c0-.2.2-.4.4-.6.3-.3.7-.6,1-.8h.3c.2,0,.3-.2.4-.3s.3-.2.4-.3c0,0,.2-.2.3-.3s.2-.2.4-.2.3-.2.4-.2c.2,0,.3,0,.5,0h.4c.2,0,.3,0,.4,0,.2,0,.4.2.6.3h0c0,0,.2.2.3.4,0,0,.2.3.2.5v1c0,.4,0,.8-.2,1.2v.8c0,0,0,.2,0,.3,0,.2,0,.3-.2.4s0,.3-.2.4c0,0,0,.3,0,.4v.4c-.2.2-.2.3-.3.5s0,.3-.2.5c-.2.3-.4.6-.6.8h-.2c0,0-.2.3-.2.3h1.4c.2,0,.3,0,.4,0h2.4c.3,0,.6,0,.9.3.2.2.2.3.3.5h0c0,.4,0,.6-.1.8,0,0,0,0-.1.2h-1c-.2,0-.4,0-.6,0H2.7ZM15.2,536.1h-.4c0,0-.3,0-.4-.2h0s-.1,0-.2,0-.1,0-.2-.2l-.3-.3h0v-.2h0v-.2s0-.2.2-.2c0,0,.1,0,.1,0s0-.2.2-.3c0,0,.2,0,.3-.2.2,0,.3,0,.5,0h.8c0,0,.3,0,.4,0l.4-.2.6-.2c.2,0,.3,0,.4-.2.1,0,.2,0,.3,0l.3-.2s.2,0,.2-.2.1,0,.2-.2l.2-.2c0,0,.1-.3,0-.4v-.9h0s-.2-.2-.2-.3-.1-.2-.2-.3c0,0-.1,0-.2-.2,0,0-.1,0-.2,0h-.8c-.2,0-.3,0-.5,0h-.5c-.2,0-.3-.2-.5-.2s-.2,0-.3,0h0s-.2,0-.4,0h-.5v-.8h0c0-.2,0,0,0,0v-.4c.2-.2.4-.4.5-.6.2-.2.3-.5.5-.7s.3-.4.5-.7c0,0,.2-.2.2-.3l.2-.2s0,0,.1-.2h0v-.6h-2c-.2,0-.4,0-.6.2s-.4,0-.6.2h-.9c-.1,0-.3,0-.4.2h-.6c-.1,0-.2,0-.3,0h0v-.9s0,0,.1-.2,0,0,.2-.2c.2-.2.4-.2.6-.3h5.9c0,0,0,.2.1.2h.1c.1,0,.2.2.3.2s.1.2.2.3c.2.2.2.4.1.6v.4c0,.1,0,.3-.2.4l-.3.6v.4l-.3.3c0,0-.2.3-.2.4s-.2.3-.3.4h0v.2c0,.1,0,0,.1,0h.5c.2,0,.3,0,.5,0,.2,0,.4,0,.6.2s.4.2.5.3c.3.2.6.5.8.8.1,0,.2.3.3.4s.2.3.3.5l.3.5c.2.4.3.8.3,1.2v.8c0,0,0,.3-.2.4s-.1.2-.2.4c0,0-.2.2-.2.3s-.2.2-.3.3h0s-.1,0-.2.2c0,0-.1,0-.2.2,0,0-.1,0-.2,0s-.1,0-.2,0c-.2.2-.4.2-.6.2h-.5l-.5.2h-.4c-.1,0-.3,0-.4,0-.1,0-.3,0-.4,0s-.3,0-.4.2l-.2.2h-.1c0,0-.2,0-.3,0h0l-.9-.2ZM263.7,372.5h-.3c-.1,0-.2,0-.3-.1h-.1c-.1,0-.2-.1-.2-.2h0c-.1-.3-.1-.5-.1-.8h0v-.8h0v-.3h0v-1h0v-.7h0v-.4s0-.1-.1-.1h-2.7c-.2,0-.4,0-.5.2,0,0-.1,0-.2.1,0,0-.1,0-.2.1,0,0-.1.1-.1.2v.4c0,.1,0,.2-.1.3,0,0-.1.1-.3.1s-.2,0-.3-.1c0,0,0-.1-.1-.2v-.6c-.1,0-.1-.2-.2-.3v-.2c-.3-.3-.4-.5-.4-.8s0-.2,0-.2v-.2s.1-.1.1-.2v-.2c0-.2,0-.5.1-.7,0-.2.1-.5.2-.8s.1-.5.2-.8v-.4c.2-.1.2-.3.2-.4,0-.2.1-.4.2-.6s.1-.4.2-.6h0c0-.3.1-.4.2-.6,0-.2.1-.3.2-.5h0v-.3h0c0-.1.1-.2.2-.3s.1,0,.2-.1h.8s.1,0,.2.1c0,0,.2.1.3.2.2.2.3.5.3.8s0,.5-.2.7c0,.1-.1.2-.1.4s0,.3-.1.4v.3c-.1.1-.2.2-.2.3h0v.2h0s-.1.2-.1.3v.8c0,.1-.1.2-.2.4v.9c-.1,0,0,0,0,0h2.8v-1.5h0v-3.8c0-.1,0-.2.2-.4,0,0,0-.2.2-.2s.1-.1.2-.2h.7v.3h0c0,.2.1.3.1.5h0v.2s.1.1,0,.2h0v.6h0v.2h0v.4h0v.2h0v2.2h0v1.2h0c0,.1.5.1.5.1h2s.2,0,.3.1l.2.2h0s0,.1.1.2,0,.1,0,.2h0v.4h0c0,.1-.1.1-.2.2h-.1c0,.2-.1.2-.2.3h-2.5c0,.2,0,.3-.1.3h0v.2h0v.2h0v.2h0v.3h0v.5h0s0,.1.1.2v.2c0,.1,0,0,0,0h0v.3h0v.7c0,0,0,0,0,0h0v.2h-.2q0,.1-.1.2h-.2l-.3,1.2ZM264.5,372h0ZM403.6,297s-.2,0-.2-.1h0s0-.1-.1-.2h0c0-.1-.1-.2-.2-.2h0v-.3h0v-.5h0c0-.3,0-.4.1-.5h.1c0-.2.1-.2.2-.3h.8c.1,0,.2,0,.3.1h.1c0,.1.1.1.2,0,.2,0,.4-.1.5-.2.2,0,.4-.1.5-.2l1.1-.4c.4-.1.8-.3,1.2-.5,0,0,.2-.1.3-.2.1-.1.3-.3.3-.4v-2.7c0-.2-.2-.3-.3-.4h-1.4c-.2,0-.5,0-.7.2,0,0-.2.1-.3.2,0,0-.2.1-.3.2v.2c-.1,0-.1.2-.1.2h-.1c-.1.2,0,.1,0,.2-.1.1-.3.2-.4.1-.1,0-.2-.1-.2-.2v-.8c-.2-.1-.3-.2-.3-.4v-.8h0v-1c0-.2,0-.1,0-.1v-3.9h0v-.2s0-.2.2-.3.2-.2.4-.2h4.7l.6.2c.2,0,.3.1.5.2h.2c0,.2.1.3.2.4,0,0,0,.1.1.2h0v.2h0s0,.1-.1.2c0,0,0,.1-.1.1,0,0-.1,0-.2.1h-3.8c-.1,0-.2,0-.3.1s0,.1,0,.2v2.2h.1c.1,0,0,0,0,0h1.7q0,.1.1.1h.5s.1,0,.2.1h0c0,.1.1.1.3.1h.2s.2.1.3.2h.1c0,.1.1.3.1.4s0,.2.1.4v.9c.1,0,.1.2.1.2,0,.2,0,.5.1.8s0,.5.1.7v1.2c0,.2-.1.4-.2.6h0c-.2.4-.4.6-.6.8h-.1c-.1.2-.3.3-.4.4s-.3.2-.5.3l-.5.3h-.2c-.2,0-.4.1-.5.2-.2,0-.4.1-.5.2h-.4c-.2,0-.3,0-.5.1-.1,0-.3.1-.5.2h-.5c-.2.2-.3.2-.5.3h-.7l-.9,1ZM440.9,143.8c-.2,0-.4,0-.6-.2s-.4-.1-.6-.2c0,0-.2-.1-.3-.2s-.2-.1-.3-.2l-.6-.4h-.1q0-.1-.1-.2h-.1c0-.1,0-.2-.1-.2h-.5c-.1,0-.3-.1-.4-.2s-.2-.2-.4-.2c-.5-.4-.9-.8-1.2-1.2h-.1c0-.1-.2-.5-.2-.5,0-.1-.1-.2-.2-.4l-.3-.6c0-.1-.2-.3-.2-.5s-.1-.3-.2-.5h0v-.2c0-.1,0-.2-.1-.4h0v-.2h0v-.2h0v-1.4h0v-1h0c.1-.1.2-.3.2-.5v-.2h0v-.2c0-.1,0-.2.1-.2h.1v-.5c0-.1,0-.3.1-.4,0-.2.1-.3.3-.4l.2-.2c.1,0,.2-.2.2-.3h.1c0-.1,0-.2.1-.2s0,0,0-.1.1-.2.3-.3c.1,0,.2,0,.3-.1.1,0,.2-.1.3-.2h.2c.1-.1.2-.2.4-.3s.2-.1.4-.2h1.7s.1,0,.2.1c.1,0,.2.1.3.3.2.3.2.6,0,.8h-.1c-.1.1-.2.2-.3.3-.1,0-.2.1-.3.2h-.1c-.1.1-.3.2-.5.3,0,0-.1,0-.2.1s-.1,0-.2.1c-.2.1-.4.3-.6.5-.4.4-.8.9-1,1.4,0,.1-.1.3-.2.4s-.1.2-.2.4h0c0,.2,0,.3-.1.5s-.1.3-.1.5v.2c-.1.2-.1.4-.1.7v1.1c.1.2.1.4.2.6s.1.4.2.5h0v.2s.1.2.2.3.1.2.2.3h0v-1h0v-.2l.2-.4c0-.1.1-.2.2-.3,0-.1.1-.2.2-.3s.2-.2.2-.3l.4-.4s.2-.2.3-.2.2-.1.3-.2h.4c.1-.2.2-.2.4-.3s.3-.1.4-.2c0,0,.2-.1.3-.2h.1c.1,0,0,0,0,0h1.2c.2,0,.5.2.7.4l.4.4h0s0,.1.1.2,0,.1.1.2h0c0,.2.1.2.2.3,0,0,0,.2.1.2h0v.5c0,.1,0,.2.1.3v.5h0v1.7c0,.1,0,.3.1.4h0s.1.1.1.2v.7c0,.1,0,.2-.1.4,0,.2-.2.3-.4.5,0,0-.2.2-.2.3s-.2.2-.2.3l-.6.7c-.1.2-.2.3-.3.5h0c0,.1,0,.2-.1.2h-1.4l1.1-1.3ZM441,142h.2s.1,0,.1-.1h.1c.2-.3.3-.4.5-.6s.3-.3.5-.5h.1v-.3h0v-.7c0-.1,0-.3.1-.5v-.5q.1,0,.1-.1v-.7c0-.1,0-.2-.1-.3,0-.1-.1-.3-.2-.4,0-.1-.1-.2-.2-.4h-.6c-.1.2-.3.2-.4.2h-.4c-.1,0-.2,0-.4.1h0c-.2,0-.3.1-.4.2s-.3.2-.4.4c0,0-.1.1-.2.2s-.1.1-.1.2-.1.2-.1.4v.9c.1.3.3.6.4.9,0,0,0,.1.1.2s0,.1.1.2h0s0,.1.1.1,0,.1.1.1c.1.1.2.2.4.4.2.2.5.3.8.4h0l-.2.2ZM511.4,46h-.3c-.1,0,0,0,0,0h-.2q0-.2-.2-.3s-.1,0-.1-.2,0-.2-.1-.4v-.6h0c0,0,.1-.2.2-.3s0-.2,0-.3c0-.2,0-.4.2-.6,0-.2,0-.4.1-.5v-2.1s0,0-.1,0h-.2s-.2,0-.2,0h-.2s-.2,0-.3,0-.2,0-.3.2h-.1c-.2,0-.4,0-.5,0-.2-.2-.4-.4-.5-.6v-.4c-.1-.3,0-.5,0-.8s.2-.2.2-.3h2.5s.1,0,.1,0h0c0-.2,0-.4.1-.5l.2-.5v-.7c.1-.2.2-.5.2-.7v-.4l.2-.7h-.4c-.1,0-.2,0-.4,0h-.2c-.1,0-.3.2-.4.2s-.3,0-.4.2h-.5s-.2,0-.3.2l-.2.2s-.1,0-.2.2c0,0-.1.2-.2.3s-.2.2-.3.2h-1s-.2,0-.2-.2h-.1c0-.2-.1-.3-.2-.4h0v-.6c0-.2.2-.5.4-.6h.1l.2-.2h.6c.3,0,.6,0,.9,0h.8c.2,0,.4-.2.6-.2s.4-.2.6-.2h.1c.1,0,.3,0,.4-.2s.3,0,.4-.2h0c0,0,0,0,0,0v-.2q.2,0,.3,0c.2-.2.5-.3.9-.3s.3,0,.4.2c0,0,.2.2.3.3,0,0,0,.2,0,.3s0,.2,0,.3c0,.2,0,.3,0,.5v.8q0,.1,0,.2v.4s0,0,0,.2h0v.2h0v.5h0v.5h-.2c0,0,0,.3,0,.4h0v.7h0v.2c0,.1,0,0,0,0h.5s.2,0,.2.2h0c0,0,.2.3.2.4h0v.6h0v.2h-.4s0,0-.2.2c0,0,0,0-.3,0h-.8c-.1,0,0,0,0,0h0v1h0v.3h0v.3h0v.5h0v.5h0v.6h0v.2h0v1.2h0q0,.2,0,.3c0,0,0,0-.2,0h0s0,0-.2,0,0,0-.2,0h-1ZM627.5,13.7h-.9s-.2,0-.2-.1c0-.1-.3-.2-.4-.3s-.2-.2-.3-.4h0c0-.1-.4-.7-.4-.7h0c0-.1-.2-.6-.2-.6h0v-2.1c-.2-.2-.2-.4,0-.6,0-.4.2-.8.4-1.1,0-.2.3-.4.5-.6h0v-.2c0-.2.3-.4.5-.5h.2q0-.2.2-.3l.4-.4c0,0,.2-.2.2-.3v-.2l-.2-.2s-.2,0-.2-.2h0c0,0-.2,0-.2,0-.2-.2-.4-.4-.6-.5h0c0-.2-.2-.3-.3-.4s0-.3-.2-.4h0v-.6c0-.2.2-.4.3-.5s.2-.2.3-.3.2-.2.3-.2.3-.1.4-.2.3-.1.4-.2c.2,0,.5-.2.8-.3s.5-.2.8-.2h.3c0-.1.2-.1.3-.2h1.5c.2.2.4.3.5.5,0,.2.2.3.3.4,0,.2.2.4.2.7h0v.4h.2c.4.4.5.9.4,1.4,0,0,0,.2,0,.2s0,0-.2.2c0,0-.2,0-.3.2s-.2.2-.3.3c0,0,0,0-.2.2s0,0-.2.2c0,0,0,.2-.2.2,0,0-.2,0-.3.2v.4h0c0,0,.2.3.2.3.3.2.5.4.7.7v.2c.3.2.3.3.4.6v.8h0v1.7h0l-.2.5c0,.1,0,.2,0,.3h0c0,.2,0,.3,0,.4,0,0,0,.2-.2.2-.2.4-.5.7-.8,1.1,0,0,0,.1-.2.2s0,.1-.2.2c0,0-.2.2-.3.2-.2,0-.3.1-.5.2-.2,0-.3,0-.5.1h-1l-.5-.3ZM628.3,11.6c.2,0,.3,0,.4-.2h0c0-.2.2-.3.4-.4s.2-.3.4-.4h0c0-.2.2-.3.2-.4s0-.2.2-.4c0-.2,0-.3,0-.5v-1.1c0-.2,0-.3-.2-.5,0,0-.2-.3-.4-.3h0c0,0-.2-.2-.3-.2s-.2-.2-.3-.3h0c0,0-.2-.2-.3-.2h-.2s-.2,0-.2.2,0,0-.2.2h-.2v.2h0c0,0,0,0-.2.2h0v.2h0v.5h0v.4h0v.8h0v.3h0c0,.1,0,.3.2.3,0,.1.2.2.3.3h.9l-.6,1.3ZM628.9,3.9h.2l.3-.2v-.4l-.2-.2s0,0-.2-.2c0,0,0-.2-.2-.3,0,0,0-.2-.2-.3h-1.1c-.1,0,0,0,0,0h0c.3.3.5.4.7.6,0,0,0,0,.2.2,0,0,0,0,.2.2,0,0,0,0,.2.2h0l.2.4ZM739.9,69.1h-.3c0,0-.2,0-.2,0,0,0,0,0-.2-.2,0,0,0-.2,0-.2h0v-.8h0v-1.4h0v-1.5c0-.2,0-.5.2-.7v-.7c0,0,0-.3,0-.3v-.2h0v-1h0c0,0-.3.2-.4.2s-.3,0-.4.2c-.3,0-.6.2-.8.3s-.6,0-.9.2h-.8c-.3.2-.5.2-.8,0h0s0,0-.2,0h-.2v-.5h0s0,0-.2,0c0,0,0,0-.2-.2,0,0,0-.2-.2-.2,0,0,0-.2-.2-.2h0v-.9l-.2-.5v-.7h0v-.4c0-.1,0-.2,0-.4,0,0,0-.2.2-.3s0-.2.2-.3c0-.2.2-.3.3-.4s.2-.3.2-.4l.2-.2s0-.2.2-.2h0l.3-.2h2.3c0,0,.3,0,.5.2.2,0,.5.2.7.3s.4.2.7.3h0v-.6s0-.2,0-.2h.2c.1,0,0,0,0,0h0c.2,0,.4,0,.5,0h0c.2,0,.4.2.5.4h0v5.2h0v4.1h0v1.1h0v.8l-.2.6v.7c0,0-.2.2-.3.3,0,0,0,0,0,0h0c0,.2,0,0-.2,0h0l-.5-.9ZM736.7,60.8h2.3c.2,0,.3-.2.3-.5h0v-1.4c0-.2,0-.3-.2-.4,0,0-.2-.2-.4-.3h0c-.2,0-.3-.2-.5-.3-.2,0-.3,0-.5-.2h-1.2c-.2,0-.3,0-.4.3v.2s0,0,0,0h0s0,0-.2.2c0,0,0,0,0,.2s0,0,0,.2v.2h0v.4c0,0,.2.2.2.3v.3q0,0,.2.2h0c0,.2.2.3.3.4h0c0,.2,0,0,.2.2h.2-.1ZM799.6,151.7h-.8s-.2-.1-.2-.2,0-.2,0-.3,0-.2,0-.3v-1.6h0v-1.7c0-.1,0-.2,0-.3s0-.2,0-.3v-2.7h0v-.2h0v-2.1c.2,0,.2-.2.3-.2s0-.1.2-.2h.4s.2,0,.2.1c.2,0,.3.2.3.4v.2c0,0,.2.1.2.2v1.9h0v.3h0v.9h0v.2h0v1.3h0v.4h0v2.2h0v1.4h0c0,.2,0,.1,0,.1v.2c0,.2-.3.3-.5.4h0,.2ZM807,152.6h-.8c-.3,0-.7-.1-.9-.2h-.2c0,0-.2-.1-.3-.2s-.2,0-.3-.1c0,0-.2-.1-.3-.1s-.2,0-.3-.1h0c0-.1-.2-.2-.3-.2s-.2,0-.3-.1c0,0-.2-.1-.3-.2,0,0-.2-.1-.3-.2h0c0-.1,0-.2-.2-.3s0-.2-.2-.3v-.3c-.2,0-.2-.1-.2-.2v-2.2h0v-.6h0v-.2c0-.1,0-.2,0-.3s0-.2,0-.3v-.2h0v-.2h.2v-.6c0-.2,0-.3.2-.5,0,0,0-.1,0-.2h0c0-.1.2-.3.2-.4s0-.3.2-.5h0s0-.2.2-.2h0s0-.1,0-.2h0v-.4h0s0-.1.2-.2,0,0,0-.1h0c0-.1,0-.2.2-.3h0c0-.1,0-.2-.2-.3s0-.1-.2-.2h-.2c0-.1,0-.2,0-.3h0v-.4h0v-.2h0q0-.1,0-.1s0,0,0-.1h.6c0,0,.2.1.3.1s.2,0,.3.1h.4s0-.1.2-.1h0c0-.2.2-.3.4-.3h.6s.2,0,.3.1h0s0,.1.2.1h.4q.2,0,.2.1h0c0,.1,0,.2,0,.2h0c0,.2,0,.1,0,.1v.2c0,.2-.2.4-.4.5h-.5s.2.1.2.2,0,.1.2.2c0,0,0,.2.2.2s0,.1.2.2c0,0,0,.2.2.2l.2.2.2.3s0,.2.2.3,0,.2.2.3c0,.2.2.3.3.5,0,.2.2.3.3.5.2.4.3.7.5,1,0,.2.2.5.3.8s0,.5.2.8l.2.8v.6c0,.2,0,.4-.2.6,0,.2-.2.5-.3.7,0,.2,0,.3-.2.5s-.2.3-.2.5c0,.2-.2.4-.4.6,0,0,0,.1,0,.2s0,.1,0,.2c0,0,0,.1-.2.2,0,0,0,.1-.2.2l-.2.2s-.2.1-.3.2-.2.1-.3.2c-.2,0-.4.2-.6.2s-.5.1-.8.1h-.4l1.3-1.1ZM806.5,150.7h1.2c0,0,.3-.1.5-.2,0,0,0,0,.2-.1,0-.1.2-.2.4-.3h0c0-.1,0-.2.2-.3,0,0,0-.1,0-.2l.2-.5c0-.2.2-.3.2-.5s0-.4,0-.5h0v-.5c0-.2,0-.3,0-.5v-.5c0-.2-.2-.4-.3-.7s-.2-.4-.3-.6c0-.2-.2-.3-.3-.5s-.2-.3-.3-.5c0,0,0-.2,0-.2,0-.1,0-.2-.2-.3,0-.1,0-.2-.2-.3l-.5-.7c0-.1,0-.2-.2-.3s-.2-.2-.2-.2h0l-.5.7c-.4.5-.7,1.1-1,1.8,0,.2-.2.4-.3.7s-.2.5-.3.7c0,.2-.2.5-.3.8s-.2.5-.2.8c0,.4-.2.7-.2,1h0v.7c0,.2.2.4.3.6l.4.3c0,0,.2.2.4.3s.3.2.4.2c.2,0,.3.1.5.2h.5v-.4ZM844.9,243.1h-.8s-.2-.1-.2-.2,0-.2,0-.3,0-.2,0-.3v-1.6h0v-1.7c0-.1,0-.2,0-.3s0-.2,0-.3v-2.7h0v-.2h0v-2.1c.2,0,.2-.2.3-.2s0-.1.2-.2h.4s.2,0,.2.1c.2,0,.3.2.3.4v.2c0,0,.2.1.2.2v1.9h0v.3h0v.9h0v.2h0v1.3h0v.4h0v2.2h0v1.4h0c0,.2,0,.1,0,.1v.2c0,.2-.3.3-.5.5h0l.2-.2ZM849.8,243.1h-.8s-.2-.1-.2-.2,0-.2,0-.3,0-.2,0-.3v-1.6h0v-1.7c0-.1,0-.2,0-.3s0-.2,0-.3v-2.7h0v-.2h0v-2.1c.2,0,.2-.2.3-.2s0-.1.2-.2h.4s.2,0,.2.1c.2,0,.3.2.3.4v.2c0,0,.2.1.2.2v1.9h0v.3h0v.9h0v.2h0v1.3h0v.4h0v2.2h0v1.4h0c0,.2,0,.1,0,.1v.2c0,.2-.3.3-.5.5h0l.2-.2ZM869.4,360.9h-.8s-.2-.1-.2-.2,0-.2,0-.3,0-.2,0-.3v-1.6h0v-1.7c0-.1,0-.2,0-.3s0-.2,0-.3v-2.7h0v-.2h0v-2.1c.2,0,.2-.2.3-.2s0-.1.2-.2h.4s.2,0,.2.1c.2,0,.3.2.3.4v.2c0,0,.2.1.2.2v1.9h0v.3h0v.9h0v.2h0v1.3h0v.4h0v2.2h0v1.4h0c0,.2,0,.1,0,.1v.2c0,.2-.3.3-.5.5h0l.2-.2ZM874.9,361.3h-.2c0-.1,0,0,0,0h-.7c0,0-.3,0-.4-.1h0c-.2-.1-.3-.3-.4-.4h0v-.2h0c0-.4.2-.6.3-.8l.2-.2s.2-.2.3-.2.2-.1.3-.2c0,0,.2-.1.3-.2.2-.1.4-.3.6-.4s.4-.3.5-.4c.3-.2.5-.5.7-.9,0-.2.2-.5.3-.7s.2-.4.2-.6,0-.4.2-.5,0-.4.2-.5c0-.1,0-.3,0-.5v-1.1s0-.1-.2-.2h-.6c-.3.1-.6.3-.8.5h0c0,.1,0,.1,0,.1,0,.2-.2.3-.3.4,0,0,0,.1-.2.2s0,.1-.2.2c0,.1-.2.3-.3.5,0,.2-.2.4-.4.5,0,0-.2.2-.3.3,0,.1-.2.2-.3.3h-.3l-.2-.2s0-.1-.2-.2c0,0,0-.1-.2-.2h0v-.5h0v-.2h0v-.3h0c0-.4.2-.5.4-.7.3-.3.7-.6,1-.8h0c0-.2,0-.1.2-.2s.3-.2.4-.3c0-.1.3-.2.4-.3,0,0,.2-.2.3-.3s.2-.2.4-.2.3-.1.4-.2.3-.1.5-.1h.4c.1,0,.3,0,.4.1.2,0,.4.2.6.3h0c0,.1.2.2.3.4s.2.3.2.5v.6h0v.3c0,.4,0,.8-.2,1.2v.8c0,0,0,.2,0,.3,0,.1,0,.3-.2.4s0,.3-.2.4c0,.1,0,.3,0,.4v.4c-.2.1-.2.3-.3.5,0,.1,0,.3-.2.5-.2.3-.4.6-.6.8h-.2c0,.1-.2.1-.2.1v.2h1.4c.2-.1.3-.1.4-.1h2.4c.3,0,.6,0,.9.3.2.1.2.3.3.5h0c0,.4,0,.6,0,.8,0,0,0,.1,0,.2h-1c-.2,0-.4-.1-.6-.1h-5ZM888.1,555.1h-.8l-.2-.2c0,0,0-.2,0-.3s0-.2,0-.3v-1.6h0v-1.7c0,0,0-.2,0-.3s0-.2,0-.3v-2.7h0v-.2h0v-2.1c.2,0,.2-.2.3-.2s0,0,.2-.2h.4s.2,0,.2,0c.2,0,.3.2.3.4v.2c0,0,.2,0,.2.2v1.9h0v.2h0v.7h0v.2h0v1.3h0v.4c0,.1,0,0,0,0v2.1h0v1.5h0c0,.2,0,0,0,0v.2c0,.2-.3.3-.5.5h0,.2ZM895.2,556.2h-.4c-.1,0-.3,0-.4-.2h0s0,0-.2,0c0,0,0,0-.2-.2l-.3-.3h0v-.2h0v-.2s0-.2.2-.2c0,0,0,0,0,0s0-.2.2-.3c0,0,.2,0,.3-.2.2,0,.3,0,.5,0h.8c.1,0,.3,0,.5,0l.5-.2.6-.2c.2,0,.3,0,.4-.2,0,0,.2,0,.3,0l.3-.2s.2,0,.2-.2,0,0,.2-.2l.2-.2c0,0,0-.3,0-.4v-.9h0s-.2-.2-.2-.3c0,0,0-.2-.2-.3l-.2-.2c-.1-.1,0,0-.2,0h-.8c-.2,0-.3,0-.5,0h-.5c-.2,0-.3-.2-.5-.2s-.2,0-.3,0h0s-.2,0-.4,0h-.5v-.8h0c0-.2,0,0,0,0v-.4l.6-.6c.2-.2.3-.5.5-.7s.3-.4.5-.7c0,0,.2-.2.2-.3l.2-.2s0,0,0-.2h0v-.6h-2c-.2,0-.4,0-.6.2-.2,0-.4,0-.6.2h-.8c-.1,0,0,0,0,0s-.3,0-.4.2h-.6c0,0-.2,0-.3,0h0v-.9s0,0,0-.2,0,0,.2-.2c.2-.2.4-.2.6-.3h5.9c0,0,0,.2,0,.2h0c0,0,.2.2.3.2s0,.2.2.3c.2.2.2.4,0,.6v.4c0,.1,0,.3-.2.4l-.3.6v.4l-.3.3c0,0-.2.3-.2.4s-.2.3-.3.4h0v.2c0,.1,0,0,0,0h.5c.2,0,.3,0,.5,0,.2,0,.4,0,.6.2s.4.2.5.3c.3.2.6.5.8.8,0,0,.2.3.3.4,0,.2.2.3.3.5l.3.5c.2.4.3.8.3,1.2v.8c0,0,0,.3-.2.4s0,.2-.2.4c0,0-.2.2-.2.3s-.2.2-.3.3h0s0,0-.2.2c0,0,0,0-.2.2,0,0,0,0-.2,0s0,0-.2,0c-.2.2-.4.2-.6.2h-.5l-.5.2h-.4c0,0-.3,0-.4,0,0,0-.3,0-.4,0s-.3,0-.4.2l-.2.2h0c0,0-.2,0-.3,0h0l-1.2-.2ZM912,718.2h-.8l-.2-.2c0,0,0-.2,0-.3s0-.2,0-.3v-1.6h0v-1.7c0,0,0-.2,0-.3s0-.2,0-.3v-2.7h0v-.2h0v-2.1c.2,0,.2-.2.3-.2s0,0,.2-.2h.4s.2,0,.2,0c.2,0,.3.2.3.4v.2c0,0,.2,0,.2.2v1.9h0v.2h0v.7h0v.2h0v1.3h0v.4c0,.1,0,0,0,0v2.1h0v1.5h0c0,.2,0,0,0,0v.2c0,.2-.3.3-.5.5h0,.2ZM921.5,718.5h-.3c0,0-.2,0-.3,0h0c0,0-.2,0-.2-.2h0c0-.3,0-.5,0-.8h0v-1.2h0v-1h0v-.6h0v-.2h0q0-.2,0-.2h-2.6c-.2,0-.4,0-.5.2h-.4s0,0,0,.2v.4s0,.2,0,.3c0,0,0,0-.3,0s-.2,0-.3,0c0,0,0,0,0-.2v-.6s-.2-.2-.2-.3v-.2c-.3-.3-.4-.5-.4-.8s0-.2,0-.2v-.2s0,0,0-.2v-.2c0-.2,0-.5,0-.7,0-.2,0-.5.2-.8s0-.5.2-.8v-.4c.2,0,.2-.3.2-.4,0-.2,0-.4.2-.6s0-.4.2-.6h0c0-.3,0-.4.2-.6s0-.3.2-.5h0v-.3h0c0,0,0-.2.2-.3s0,0,.2,0h1s.2,0,.3.2c.2.2.3.5.3.8s0,.5-.2.7c0,0,0,.2-.2.4s0,.3,0,.4v.3c0,0-.2.2-.2.3h0v.2h0s0,.2,0,.3v.8c0,0,0,.2-.2.4v.9h2.8v-5.3c0,0,0-.2.2-.4,0,0,0-.2.2-.2s0,0,.2-.2h.7v.3h0c0,.2,0,.3,0,.5h0v.2s0,0,0,.2h0v.6h0v.2h0v.4h0v.2h0v2.2c0,.1,0,0,0,0h0v1.1h2.8c0,0,.2,0,.2.2h0v.4h0v.4h-.2c0,.3,0,.3-.2.4h-2.5s0,.2,0,.2h0v.2q0,.1,0,0h0v.3h0v.3h0v.5h0v.4h0v.3h0v.6h0v.2h0q0,0,0,.2h-.2l-.3,1.9ZM922.3,717.9h0ZM814.3,808.8h-.8l-.2-.2c0,0,0-.2,0-.3s0-.2,0-.3v-1.6h0v-1.7c0,0,0-.2,0-.3s0-.2,0-.3v-2.7h0v-.2h0v-2.1c.2,0,.2-.2.3-.2s0,0,.2-.2h.4s.2,0,.2,0c.2,0,.3.2.3.4v.2c0,0,.2,0,.2.2v1.9h0v.2h0v.7h0v.2h0v1.3h0v.4c0,.1,0,0,0,0v2.1h0v1.5h0c0,.2,0,0,0,0v.2c0,.2-.3.3-.5.5h0,.2ZM819.5,810.6h0s-.2,0-.2,0l-.2-.2h0l-.2-.2v-.6c0-.2,0-.3.2-.4.2-.2.4-.3.7-.3h.8c.2,0,.4,0,.6-.2s.4,0,.6-.2c.3-.2.6-.3,1-.4s.6-.3.9-.5c0,0,.3,0,.4-.2s.2,0,.3-.2c.3-.2.5-.5.7-.7,0-.2.2-.4,0-.7v-.4c0,0,0-.2-.2-.3,0,0,0-.2-.2-.3,0,0,0,0,0-.2s0,0,0-.2c0,0,0,0-.2-.2h-.2q0-.2,0-.2h-3.7s-.2,0-.2.2h-.6c-.2,0-.3.3-.4.5v.2c0,0-.2.2-.3.2h-.3s0,0,0-.2v-.8c0-.2,0-.3,0-.5v-3.8h0v-2.9h0c.2-.3.3-.4.5-.5h6.7c0,0,0,.2,0,.3s0,0,0,.2h0v.3h0v.2h0v.2c0,0-.2.2-.4.3,0,0,0,0-.2,0,0,0,0,0-.2,0h-4.4v3.5h4.4c.2,0,.5.2.7.3l.5.4c0,0,.2,0,.3.2l.4.4c.1.1.2.3.3.4v.2c.2.3.4.6.4,1v1.8c-.2.3-.4.5-.6.8l-.2.2-.2.2h-.2c0,0-.2,0-.2.3l-.2.2c-.1.1-.2,0-.3,0h0c0,0-.2,0-.2.2s-.2,0-.2.2h-.2c0,.2-.2.2-.3.3s-.2,0-.3.2l-.9.4h-.6c-.2,0-.3,0-.5.2-.2,0-.3,0-.5.2h-.8l-1.7.9ZM799.2,605.1h-.8l-.2-.2c0,0,0-.2,0-.3s0-.2,0-.3v-1.6h0v-1.7c0,0,0-.2,0-.3s0-.2,0-.3v-2.7h0v-.2h0v-2.1c.2,0,.2-.2.3-.2s0,0,.2-.2h.4s.2,0,.2,0c.2,0,.3.2.3.4v.2c0,0,.2,0,.2.2v1.9h0v.2h0v.7h0v.2h0v1.3h0v.4c0,.1,0,0,0,0v2.1h0v1.5h0c0,.2,0,0,0,0v.2c0,.2-.3.3-.5.5h0,.2ZM808.7,606.7c-.2,0-.4,0-.6-.2-.2,0-.4,0-.6-.2,0,0-.2,0-.3-.2s-.2,0-.3-.2l-.6-.4h-.3v-.2h-.5c0,0-.3,0-.4-.2s-.2-.2-.4-.2c-.5-.4-.9-.8-1.2-1.2h0c0,0-.2-.5-.2-.5,0,0-.2-.2-.2-.4l-.3-.6c0-.2-.2-.3-.2-.5s0-.3-.2-.5h0v-.2c0,0,0-.2,0-.4h0v-.2h0v-.3c0-.2,0,0,0,0h0v-1.3h0v-.8h0c0-.2.2-.3.2-.5v-.6c0,0,0-.2,0-.2h0v-.5c0,0,0-.3,0-.4,0-.2.2-.3.3-.4l.2-.2c0,0,.2-.2.2-.3h0q0,0,0-.2c0,0,0,0,0,0s0-.2.3-.3c0,0,.2,0,.3-.2s.2,0,.3-.2h.2c0,0,.2-.2.4-.3s.2,0,.4-.2h2s0,0,.2,0c0,0,.2,0,.3.3.2.3.2.5,0,.8h0c0,0-.2,0-.3.2s-.2,0-.3.2h0c-.2.2-.3.2-.5.3,0,0,0,0-.2,0s0,0-.2,0c-.2,0-.4.3-.6.5-.4.4-.8.9-1,1.4,0,0,0,.3-.2.4s0,.2-.2.4h0c0,.2,0,.4-.2.5,0,.2,0,.3,0,.5v.2c0,.2,0,.5,0,.7v1.1c0,.2,0,.4.2.5s0,.4.2.5v.2h0c0,0,0,.3.2.4s0,.2.2.3h0v-1h0v-.2l.2-.4c0,0,0-.2.2-.3,0,0,0-.2.2-.3s.2-.2.2-.3l.4-.4s.2-.2.3-.2.2,0,.3-.2l.4-.2c0,0,.2,0,.4,0s.3,0,.4-.2c0,0,.2-.2.3-.2h0c0,0,0,0,0,0h1.2c.2,0,.5.2.7.4l.4.4h0s0,0,0,.2,0,0,0,.2h0c0,0,0,.2.2.3s0,.2,0,.2h0v.4c0,0,0,.2,0,.3v.5h0v1.7c0,.2,0,.3,0,.4h0s0,0,0,.2v.7c0,.1,0,.2-.2.4,0,.2-.2.3-.4.5,0,0-.2.2-.2.3s-.2.2-.2.3l-.6.7c0,.2-.2.3-.3.5h0c0,0,0,.2,0,.3s0,0-.2,0h-1.2l.9-1.3ZM808.8,604.9h.3c0,0,0,0,0,0,.2-.3.3-.4.5-.6l.5-.5h0v-.3h0c0-.2,0,0,0,0v-1.5h0v-.7s0-.2,0-.3c0,0,0-.3-.2-.4s0-.2-.2-.4h-.6c0,.2-.3.2-.4.2h-.4c-.1,0-.2,0-.4.2h0c-.2,0-.3,0-.4.2s-.3.2-.4.3l-.2.2c-.1.1,0,.2,0,.2,0,0,0,.2,0,.4s0,.2,0,.3v.6c0,.3.3.6.4.9,0,0,0,0,0,.2s0,0,0,.2h0v.2c0,.2,0,0,0,.2l.4.4c.2.2.5.3.8.4h0v-.2ZM733.4,541.9h-.8l-.2-.2c0,0,0-.2,0-.3s0-.2,0-.3v-1.6h0v-1.7c0,0,0-.2,0-.3s0-.2,0-.3v-2.7h0v-.2h0v-2.1c.2,0,.2-.2.3-.2s0,0,.2-.2h.4s.2,0,.2,0c.2,0,.3.2.3.4v.2c0,0,.2,0,.2.2v1.9h0v.2h0v.7h0v.2h0v1.3h0v.4c0,.1,0,0,0,0v2.1h0v1.5h0c0,.2,0,0,0,0v.2c0,.2-.3.3-.5.5h0,.2ZM739.5,542.9h-.9s-.2,0-.2,0c0,0-.3-.2-.4-.3,0,0-.2-.2-.3-.4h0c0,0-.4-.7-.4-.7h0c0,0-.2-.6-.2-.6h0v-2.1c-.2-.2-.2-.4,0-.6,0-.4.2-.8.4-1.1,0-.2.3-.4.5-.6h0v-.2c0-.2.3-.3.5-.5h.2q0-.2.2-.3l.4-.4c0,0,.2-.2.2-.3v-.2l-.2-.2-.2-.2h0c0,0-.2,0-.2,0-.2-.2-.4-.4-.6-.5h0c0-.2-.2-.3-.3-.4,0,0,0-.3-.2-.4h0v-.6c0-.2.2-.3.3-.5l.3-.3c0,0,.2-.2.3-.2s.3,0,.4-.2.3,0,.4-.2c.2,0,.5-.2.8-.3s.5-.2.8-.2h.3c0,0,.2-.2.3-.2h1.5c.2.2.4.3.5.5s.2.3.3.4c0,.2.2.4.2.7h0v.4h.2c.4.4.5.9.4,1.4,0,0,0,.2,0,.2s0,0-.2.2c0,0-.2,0-.3.2s-.2.2-.3.3l-.2.2-.2.2s0,.2-.2.2c0,0-.2,0-.3.2v.4h0l.2.2c.3.2.5.4.7.7v.2c.3.2.3.3.4.6v.8h0v1.7h0l-.2.5c0,0,0,.2,0,.3h0c0,.2,0,.3,0,.4s0,.2-.2.2c-.2.4-.5.7-.8,1.1,0,0,0,0-.2.2,0,0,0,0-.2.2,0,0-.2.2-.3.2-.2,0-.3,0-.5.2-.2,0-.3,0-.5,0h-1l-.5-.2ZM740.2,540.7c.2,0,.3,0,.4-.2h0c0-.2.2-.3.4-.4,0,0,.2-.3.4-.4h0c0-.2.2-.3.2-.4s0-.2.2-.4c0-.2,0-.3,0-.5s0-.3,0-.5v-.6c0-.2,0-.3-.2-.5,0,0-.2-.3-.4-.3h0c0,0-.2-.2-.3-.2s-.2-.2-.3-.3h0c0,0-.2-.2-.3-.2h-.2s-.2,0-.2.2,0,0-.2.2,0,0-.2,0h0v.2h0c0,0,0,0-.2.2h0v.2h0v.5h0v.4h0v.8h0v.3h0c0,0,0,.3.2.3,0,0,.2.2.3.3h.9l-.6,1.3ZM740.8,533h.2l.3-.2v-.4l-.2-.2s0,0-.2-.2c0,0,0-.2-.2-.3,0,0,0-.2-.2-.3h-1.1c-.1,0,0,0,0,0h0c.3.2.5.3.7.5l.2.2.2.2.2.2h0l.2.5ZM706.5,792.3h-.8l-.2-.2c0,0,0-.2,0-.3s0-.2,0-.3v-1.6h0v-1.7c0,0,0-.2,0-.3s0-.2,0-.3v-2.7h0v-.2h0v-2.1c.2,0,.2-.2.3-.2s0,0,.2-.2h.4s.2,0,.2,0c.2,0,.3.2.3.4v.2c0,0,.2,0,.2.2v1.9h0v.2h0v.7h0v.2h0v1.3h0v.4c0,.1,0,0,0,0v2.1h0v1.5h0c0,.2,0,0,0,0v.2c0,.2-.3.3-.5.5h0,.2ZM716.4,793.3h-.7c0,0,0,0,0,0s0,0,0-.2h0v-.3h0v-3.6h0v-2.6h0c0-.2,0,0,0-.3v-.4h-.3l-.4.2c0,0-.2,0-.4.2h-2.3s0,0-.2,0h-.2v-.2s0,0-.2-.2c0,0,0,0-.2-.2h0s-.2,0-.2-.2-.2-.2-.2-.2h0v-.2h0c0-.2,0-.3-.2-.3s0-.2-.2-.2v-.6c-.2-.2-.2-.3-.2-.5v-.5c0-.4,0-.8.4-1.1,0-.2.2-.3.3-.4l.4-.4c.4-.3.8-.7,1.2-.9,0,0,.2-.2.3-.2s.2,0,.4,0h.2s.2,0,.2-.2.2,0,.2,0c.2,0,.4-.2.6-.2s.4,0,.6,0h1.6v-.2c0-.2.2-.3.3-.5h0s.2,0,.3-.2.2,0,.3,0h.4c.2,0,.4.2.5.4s0,.2.2.2v1h0v1.7h0v.7c0,.4,0,.8,0,1.2v2.6h0v6.8h0v.2q-.2,0-.3,0h-.5l-1.3.2ZM712.8,784.5c.3,0,.5,0,.7-.2h0l.2-.3s.2,0,.3-.2h0c0,0,0-.4,0-.4,0-.2.2-.3.2-.5s.2-.3.2-.5h0v-.7h0q0-.2-.2-.3l-.2-.2c0,0-.2-.2-.2-.3h-.4c0,0-.2,0-.3,0l-.4.2c-.2,0-.4.2-.6.4h0l-.4.4-.3.3-.3.3c0,.2-.2.3-.3.5v.5q0,.1,0,.2l.5.5c.2,0,.4.2.6.3h.6ZM708.3,962.8h-1c0,0-.3,0-.4,0h0c-.2,0-.3-.3-.4-.4v-.4h0c0-.4.2-.6.3-.8l.2-.2s.2-.2.3-.2.2,0,.3-.2.2,0,.3-.2c.2,0,.4-.3.6-.4s.4-.3.5-.4c.3-.2.5-.5.7-.9,0-.2.2-.5.3-.7,0-.2.2-.4.2-.6s0-.4.2-.5,0-.4.2-.5c0-.2,0-.3,0-.5s0-.3,0-.5v-.6s0,0-.2-.2h-.6c-.3,0-.6.3-.8.5h0c0,0,0,0,0,0,0,.2-.2.3-.3.4l-.2.2-.2.2c0,0-.2.3-.3.5,0,.2-.2.4-.4.5,0,0-.2.2-.3.3,0,0-.2.2-.3.3h-.3l-.2-.2-.2-.2-.2-.2h0v-.4h0v-.5h0v-.2c0-.2.2-.4.4-.6.3-.3.7-.6,1-.8h.3c.2,0,.3-.2.4-.3,0,0,.3-.2.4-.3,0,0,.2-.2.3-.3s.2-.2.4-.2.3-.2.4-.2.3,0,.5,0h.4c.2,0,.3,0,.4,0,.2,0,.4.2.6.3h0c0,0,.2.2.3.4s.2.3.2.5v1c0,.4,0,.8-.2,1.2v.8c0,0,0,.2,0,.3,0,.2,0,.3-.2.4s0,.3-.2.4c0,0,0,.3,0,.4v.4c-.2.2-.2.3-.3.5s0,.3-.2.5c-.2.3-.4.6-.6.8h-.2c0,0-.2.3-.2.3h1.4c.2,0,.3,0,.4,0h2.4c.3,0,.6,0,.9.3.2.2.2.3.3.5h0c0,.4,0,.6,0,.8,0,0,0,0,0,.2h-1c-.2,0-.4,0-.6,0h-4.9ZM722.1,963.4h-.8c-.3,0-.7,0-.9-.2h-.2c0,0-.2,0-.3-.2s-.2,0-.3,0c0,0-.2,0-.3,0,0,0-.2,0-.3,0h0c0,0-.2-.2-.3-.2s-.2,0-.3,0c0,0-.2,0-.3-.2,0,0-.2-.2-.3-.2h0c0,0,0-.2-.2-.3s0-.2-.2-.3v-.3c-.2,0-.2,0-.2-.2v-2.2h0v-.6h0v-.2c0,0,0-.2,0-.3s0-.2,0-.3v-.2h0v-.2h.2v-.6c0-.2,0-.3.2-.5,0,0,0,0,0-.2h0c0-.2.2-.3.2-.5s0-.3.2-.5h0s0-.2.2-.2h0s0,0,0-.2h0v-.4h0l.2-.2c.1-.1,0,0,0,0h0c0,0,0-.2.2-.3h0l-.2-.2-.2-.2-.2-.2s0,0,0-.2h0v-.4h0v-.2h0q0,0,0,0s0,0,0,0h.6c0,0,.2,0,.3,0,0,0,.2,0,.3,0h.6c.2-.2,0,0,0-.2s.2-.2.4-.2h.9s0,0,.2,0h.4q.2,0,.2,0h0c0,0,0,.2,0,.2h0v.2c0,.2-.2.4-.4.5h-.5s.2,0,.2.2,0,0,.2.2c0,0,0,.2.2.2s0,.2.2.2c0,0,0,.2.2.2l.2.2.2.3s0,.2.2.3,0,.2.2.3c0,.2.2.3.3.5,0,.2.2.3.3.5.2.3.3.7.5,1,0,.2.2.5.3.8s0,.5.2.8l.2.8v.6c0,.2,0,.4-.2.6,0,.2-.2.5-.3.7,0,.2,0,.3-.2.5s-.2.3-.2.5c0,.2-.2.4-.4.6,0,0,0,0,0,.2,0,0,0,0,0,.2l-.2.2-.2.2-.2.2s-.2,0-.3.2-.2,0-.3.2c-.2,0-.4.2-.6.2s-.5,0-.8,0h-.3l1.2-.8ZM721.6,961.5h1.2c0,0,.3,0,.5-.2,0,0,0,0,.2,0,0,0,.2-.2.4-.3h0c0,0,0-.2.2-.3,0,0,0,0,0-.2l.2-.5c0-.2.2-.3.2-.5s0-.4,0-.5h0v-.5c0-.2,0-.3,0-.5v-.5c0-.2-.2-.5-.3-.7s-.2-.4-.3-.7c0-.2-.2-.3-.3-.5s-.2-.3-.3-.5c0,0,0-.2,0-.2,0,0,0-.2-.2-.3s0-.2-.2-.3l-.5-.7c0,0,0-.2-.2-.3s-.2-.2-.2-.2h0l-.5.7c-.4.5-.7,1.1-1,1.8,0,.2-.2.4-.3.7s-.2.5-.3.7c0,.2-.2.5-.3.8s-.2.5-.2.8c0,.3-.2.7-.2,1h0v.7c0,.2.2.4.3.6l.4.3c0,0,.2.2.4.3s.3.2.4.2c.2,0,.3,0,.5.2s.3,0,.5,0h0v-.3ZM649.8,997.1h-1c0,0-.3,0-.4,0h0c-.2,0-.3-.3-.4-.4v-.4h0c0-.4.2-.6.3-.8l.2-.2s.2-.2.3-.2.2,0,.3-.2.2,0,.3-.2c.2,0,.4-.3.6-.4s.4-.3.5-.4c.3-.2.5-.5.7-.9,0-.2.2-.5.3-.7,0-.2.2-.4.2-.6s0-.4.2-.5,0-.4.2-.5c0-.2,0-.3,0-.5s0-.3,0-.5v-.6s0,0-.2-.2h-.6c-.3,0-.6.3-.8.5h0c0,0,0,0,0,0,0,.2-.2.3-.3.4l-.2.2-.2.2c0,0-.2.3-.3.5,0,.2-.2.4-.4.5,0,0-.2.2-.3.3,0,0-.2.2-.3.3h-.3l-.2-.2-.2-.2-.2-.2h0v-.4h0v-.5h0v-.2c0-.2.2-.4.4-.6.3-.3.7-.6,1-.8h.3c.2,0,.3-.2.4-.3,0,0,.3-.2.4-.3,0,0,.2-.2.3-.3s.2-.2.4-.2.3-.2.4-.2.3,0,.5,0h.4c.2,0,.3,0,.4,0,.2,0,.4.2.6.3h0c0,0,.2.2.3.4s.2.3.2.5v1c0,.4,0,.8-.2,1.2v.8c0,0,0,.2,0,.3,0,.2,0,.3-.2.4s0,.3-.2.4c0,0,0,.3,0,.4v.4c-.2.2-.2.3-.3.5s0,.3-.2.5c-.2.3-.4.6-.6.8h-.2c0,0-.2.3-.2.3h1.4c.2,0,.3,0,.4,0h2.4c.3,0,.6,0,.9.3.2.2.2.3.3.5h0c0,.4,0,.6,0,.8,0,0,0,0,0,.2h-1c-.2,0-.4,0-.6,0h-4.9ZM660.3,997.9h-.5c0,0,0,0,0,0h0s0,0,0,0v-5.4h0v-3.1h0v-1.6c0-.2,0-.5,0-.7,0,0,0-.2,0-.3h0c0-.2,0,0,0,0h.4s0,0,.2.2c0,0,0,.2,0,.3s0,.2,0,.3v1.3h0v2.1h0v3.5h0v.3h0v1.9h0v.8h0v.3s0,0,0,.2h0s-.2,0-.2.2c0,0-.2,0-.4,0h.5ZM611.4,803h-1c0,0-.3,0-.4,0h0c-.2,0-.3-.3-.4-.4v-.4h0c0-.4.2-.6.3-.8l.2-.2s.2-.2.3-.2.2,0,.3-.2.2,0,.3-.2c.2,0,.4-.3.6-.4s.4-.3.5-.4c.3-.2.5-.5.7-.9,0-.2.2-.5.3-.7,0-.2.2-.4.2-.6s0-.4.2-.5,0-.4.2-.5c0-.2,0-.3,0-.5s0-.3,0-.5v-.6s0,0-.2-.2h-.6c-.3,0-.6.3-.8.5h0c0,0,0,0,0,0,0,.2-.2.3-.3.4l-.2.2-.2.2c0,0-.2.3-.3.5,0,.2-.2.4-.4.5,0,0-.2.2-.3.3,0,0-.2.2-.3.3h-.3l-.2-.2-.2-.2-.2-.2h0v-.4h0v-.5h0v-.2c0-.2.2-.4.4-.6.3-.3.7-.6,1-.8h.3c.2,0,.3-.2.4-.3,0,0,.3-.2.4-.3,0,0,.2-.2.3-.3s.2-.2.4-.2.3-.2.4-.2.3,0,.5,0h.4c.2,0,.3,0,.4,0,.2,0,.4.2.6.3h0c0,0,.2.2.3.4s.2.3.2.5v1c0,.4,0,.8-.2,1.2v.8c0,0,0,.2,0,.3,0,.2,0,.3-.2.4s0,.3-.2.4c0,0,0,.3,0,.4v.4c-.2.2-.2.3-.3.5s0,.3-.2.5c-.2.3-.4.6-.6.8h-.2c0,0-.2.3-.2.3h1.4c.2,0,.3,0,.4,0h2.4c.3,0,.6,0,.9.3.2.2.2.3.3.5h0c0,.4,0,.6,0,.8,0,0,0,0,0,.2h-1c-.2,0-.4,0-.6,0h-4.9ZM623.1,803h-1c0,0-.3,0-.4,0h0c-.2,0-.3-.3-.4-.4v-.4h0c0-.4.2-.6.3-.8l.2-.2s.2-.2.3-.2.2,0,.3-.2.2,0,.3-.2c.2,0,.4-.3.6-.4s.4-.3.5-.4c.3-.2.5-.5.7-.9,0-.2.2-.5.3-.7,0-.2.2-.4.2-.6s0-.4.2-.5,0-.4.2-.5c0-.2,0-.3,0-.5s0-.3,0-.5v-.6s0,0-.2-.2h-.6c-.3,0-.6.3-.8.5h0c0,0,0,0,0,0,0,.2-.2.3-.3.4l-.2.2-.2.2c0,0-.2.3-.3.5,0,.2-.2.4-.4.5,0,0-.2.2-.3.3,0,0-.2.2-.3.3h-.3l-.2-.2-.2-.2-.2-.2h0v-.4h0v-.5h0v-.2c0-.2.2-.4.4-.6.3-.3.7-.6,1-.8h.3c.2,0,.3-.2.4-.3,0,0,.3-.2.4-.3,0,0,.2-.2.3-.3s.2-.2.4-.2.3-.2.4-.2.3,0,.5,0h.4c.2,0,.3,0,.4,0,.2,0,.4.2.6.3h0c0,0,.2.2.3.4s.2.3.2.5v1c0,.4,0,.8-.2,1.2v.8c0,0,0,.2,0,.3,0,.2,0,.3-.2.4s0,.3-.2.4c0,0,0,.3,0,.4v.4c-.2.2-.2.3-.3.5s0,.3-.2.5c-.2.3-.4.6-.6.8h-.2c0,0-.2.3-.2.3h1.4c.2,0,.3,0,.4,0h2.4c.3,0,.6,0,.9.3.2.2.2.3.3.5h0c0,.4,0,.6,0,.8,0,0,0,0,0,.2h-1c-.2,0-.4,0-.6,0h-4.9ZM595.8,761.2h-1c0,0-.3,0-.4,0h0c-.2,0-.3-.3-.4-.4v-.4h0c0-.4.2-.6.3-.8l.2-.2s.2-.2.3-.2.2,0,.3-.2.2,0,.3-.2c.2,0,.4-.3.6-.4s.4-.3.5-.4c.3-.2.5-.5.7-.9,0-.2.2-.5.3-.7,0-.2.2-.4.2-.6s0-.4.2-.5,0-.4.2-.5c0-.2,0-.3,0-.5s0-.3,0-.5v-.6s0,0-.2-.2h-.6c-.3,0-.6.3-.8.5h0c0,0,0,0,0,0,0,.2-.2.3-.3.4l-.2.2-.2.2c0,0-.2.3-.3.5,0,.2-.2.4-.4.5,0,0-.2.2-.3.3,0,0-.2.2-.3.3h-.3l-.2-.2-.2-.2-.2-.2h0v-.4h0v-.5h0v-.2c0-.2.2-.4.4-.6.3-.3.7-.6,1-.8h.3c.2,0,.3-.2.4-.3,0,0,.3-.2.4-.3,0,0,.2-.2.3-.3s.2-.2.4-.2.3-.2.4-.2.3,0,.5,0h.4c.2,0,.3,0,.4,0,.2,0,.4.2.6.3h0c0,0,.2.2.3.4s.2.3.2.5v1c0,.4,0,.8-.2,1.2v.8c0,0,0,.2,0,.3,0,.2,0,.3-.2.4s0,.3-.2.4c0,0,0,.3,0,.4v.4c-.2.2-.2.3-.3.5s0,.3-.2.5c-.2.3-.4.6-.6.8h-.2c0,0-.2.3-.2.3h1.4c.2,0,.3,0,.4,0h2.4c.3,0,.6,0,.9.3.2.2.2.3.3.5h0c0,.4,0,.6,0,.8,0,0,0,0,0,.2h-1c-.2,0-.4,0-.6,0h-4.9ZM611,761.2h-.3c0,0-.2,0-.3,0h0c0,0-.2,0-.2-.2h0c0-.3,0-.5,0-.8h0v-1.2h0v-1h0v-.6h0v-.2h0q0-.2,0-.2h-2.6c-.2,0-.4,0-.5.2h-.4s0,0,0,.2v.4s0,.2,0,.3c0,0,0,0-.3,0s-.2,0-.3,0c0,0,0,0,0-.2v-.6s-.2-.2-.2-.3v-.2c-.3-.3-.4-.5-.4-.8s0-.2,0-.2v-.2s0,0,0-.2v-.2c0-.2,0-.5,0-.7,0-.2,0-.5.2-.8s0-.5.2-.8v-.4c.2,0,.2-.3.2-.4,0-.2,0-.4.2-.6s0-.4.2-.6h0c0-.3,0-.4.2-.6s0-.3.2-.5h0v-.3h0c0,0,0-.2.2-.3s0,0,.2,0h1s.2,0,.3.2c.2.2.3.5.3.8s0,.5-.2.7c0,0,0,.2-.2.4s0,.3,0,.4v.3c0,0-.2.2-.2.3h0v.2h0s0,.2,0,.3v.8c0,0,0,.2-.2.4v.9h2.8v-5.3c0,0,0-.2.2-.4,0,0,0-.2.2-.2s0,0,.2-.2h.7v.3h0c0,.2,0,.3,0,.5h0v.2s0,0,0,.2h0v.6h0v.2h0v.4h0v.2h0v2.2c0,.1,0,0,0,0h0v1.1h2.8c0,0,.2,0,.2.2h0v.4h0v.4h-.2c0,.3,0,.3-.2.4h-2.5s0,.2,0,.2h0v.2q0,.1,0,0h0v.3h0v.3h0v.5h0v.4h0v.3h0v.6h0v.2h0q0,0,0,.2h-.2l-.3,1.9ZM611.8,760.6h0ZM612.2,1011.7h-1c0,0-.3,0-.4,0h0c-.2,0-.3-.3-.4-.4v-.4h0c0-.4.2-.6.3-.8l.2-.2s.2-.2.3-.2.2,0,.3-.2.2,0,.3-.2c.2,0,.4-.3.6-.4s.4-.3.5-.4c.3-.2.5-.6.7-.9,0-.2.2-.4.3-.7,0-.2.2-.4.2-.6s0-.4.2-.6,0-.4.2-.5c0-.2,0-.3,0-.4v-1s0,0-.2-.2h-.6c-.3,0-.6.3-.8.5h0c0,0,0,0,0,0,0,.2-.2.3-.3.3l-.2.2-.2.2c0,0-.2.3-.3.5,0,.2-.2.4-.4.5,0,0-.2.2-.3.3,0,0-.2.2-.3.3h-.3l-.2-.2-.2-.2-.2-.2h0v-.4h0v-.5h0v-.2c0-.2.2-.4.4-.6.3-.3.7-.6,1-.8h.3c.2,0,.3-.2.4-.3,0,0,.3-.2.4-.3,0,0,.2-.2.3-.3s.2-.2.4-.2.3-.2.4-.2c.2,0,.3,0,.5,0h.4c.1,0,.3,0,.4,0,.2,0,.4.2.6.3h0c0,0,.2.2.3.4s.2.3.2.5v1c0,.4,0,.8-.2,1.2v.8c0,0,0,.2,0,.3,0,.2,0,.3-.2.4s0,.3-.2.4c0,0,0,.3,0,.4v.4c-.2.2-.2.3-.3.4s0,.3-.2.4c-.2.3-.4.6-.6.8h-.2c0,0-.2.3-.2.3h1.4c.2,0,.3,0,.4,0h2.4c.3,0,.6,0,.9.3.2.2.2.3.3.5h0c0,.4,0,.6,0,.8,0,0,0,0,0,.2h-1c-.2,0-.4,0-.6,0h-4.9ZM621.9,1013.4h-.2q0,0,0-.2h0c0,0,0-.2-.2-.2h0v-.3h0v-.4h0v-.5h0c0-.2,0-.2.2-.3h.8c0,0,.2,0,.3,0h0c0,0,0,0,.2,0,.2,0,.3,0,.5-.2.2,0,.3,0,.5-.2l1.1-.4c.4,0,.8-.3,1.2-.5,0,0,.2,0,.3-.2,0,0,.3-.3.3-.4v-2.7c0-.2-.2-.3-.3-.4h-1.2c-.2,0-.5,0-.7.2,0,0-.2,0-.3.2s-.2,0-.3.2v.2c0,0,0,.2,0,.2h0c0,.2,0,0,0,.2,0,0-.3.2-.4,0,0,0-.2,0-.2-.2v-.8c-.2,0-.3-.2-.3-.4v-.8h0v-1c0-.2,0,0,0,0v-3.9h0v-.2s0-.2.2-.3.2-.2.3-.2h4.7l.6.2c.2,0,.3,0,.5.2h.2c0,.3,0,.3.2.4v.2h0v.2h0s0,0,0,.2c0,0,0,0,0,0,0,0,0,0-.2,0h-3.9q-.2,0-.3,0c0,0,0,0,0,.2v2.2h2.4s0,0,.2,0h0c0,0,.2,0,.3,0h.2s.2,0,.3.2h0s0,.2,0,.3v1.1s0,.2,0,.2v.2c0,.2,0,.5,0,.8s0,.5,0,.7v1.2c0,.2,0,.4-.2.6h0c-.2.4-.4.6-.6.8h0c0,0-.3.2-.4.3-.2,0-.3.2-.5.3l-.5.3h-.2c-.2,0-.3,0-.5.2-.2,0-.3,0-.5.2h-.4c-.2,0-.3,0-.5,0-.2,0-.3,0-.5.2l-.5.2c-.2,0-.3,0-.5,0h-.8l-.6,1.1ZM527.3,998.9h-1c0,0-.3,0-.4,0h0c-.2,0-.3-.3-.4-.4v-.4h0c0-.4.2-.6.3-.8l.2-.2s.2-.2.3-.2.2,0,.3-.2.2,0,.3-.2c.2,0,.4-.3.6-.4s.4-.3.5-.4c.3-.2.5-.5.7-.9,0-.2.2-.5.3-.7,0-.2.2-.4.2-.6s0-.4.2-.5,0-.4.2-.5c0-.2,0-.3,0-.5s0-.3,0-.5v-.6s0,0-.2-.2h-.6c-.3,0-.6.3-.8.5h0c0,0,0,0,0,0,0,.2-.2.3-.3.4l-.2.2-.2.2c0,0-.2.3-.3.5,0,.2-.2.4-.4.5,0,0-.2.2-.3.3,0,0-.2.2-.3.3h-.3l-.2-.2-.2-.2-.2-.2h0v-.4h0v-.5h0v-.2c0-.2.2-.4.4-.6.3-.3.7-.6,1-.8h.3c.2,0,.3-.2.4-.3,0,0,.3-.2.4-.3,0,0,.2-.2.3-.3s.2-.2.4-.2.3-.2.4-.2.3,0,.5,0h.4c.2,0,.3,0,.4,0,.2,0,.4.2.6.3h0c0,0,.2.2.3.4s.2.3.2.5v1c0,.4,0,.8-.2,1.2v.8c0,0,0,.2,0,.3,0,.2,0,.3-.2.4s0,.3-.2.4c0,0,0,.3,0,.4v.4c-.2.2-.2.3-.3.5s0,.3-.2.5c-.2.3-.4.6-.6.8h-.2c0,0-.2.3-.2.3h1.4c.2,0,.3,0,.4,0h2.4c.3,0,.6,0,.9.3.2.2.2.3.3.5h0c0,.4,0,.6,0,.8,0,0,0,0,0,.2h-1c-.2,0-.4,0-.6,0h-4.9ZM543.2,1000.1c-.2,0-.4,0-.6-.2-.2,0-.4,0-.6-.2,0,0-.2,0-.3-.2s-.2,0-.3-.2l-.6-.4h-.3v-.2h-.5c0,0-.3,0-.4-.2s-.2-.2-.4-.2c-.5-.4-.9-.8-1.2-1.2h0c0,0-.2-.5-.2-.5,0,0-.2-.2-.2-.4l-.3-.6c0-.2-.2-.3-.2-.5s0-.3-.2-.5h0v-.2c0,0,0-.2,0-.4h0v-.2h0v-.3c0-.2,0,0,0,0h0v-1.3h0v-.8h0c0-.2.2-.3.2-.5v-.6c0,0,0-.2,0-.2h0v-.5c0,0,0-.3,0-.4,0-.2.2-.3.3-.4l.2-.2c0,0,.2-.2.2-.3h0q0,0,0-.2c0,0,0,0,0,0s0-.2.3-.3c0,0,.2,0,.3-.2s.2,0,.3-.2h.2c0,0,.2-.2.4-.3s.2,0,.4-.2h2s0,0,.2,0c0,0,.2,0,.3.3.2.3.2.5,0,.8h0c0,0-.2,0-.3.2s-.2,0-.3.2h0c-.2.2-.3.2-.5.3,0,0,0,0-.2,0s0,0-.2,0c-.2,0-.4.3-.6.5-.4.4-.8.9-1,1.4,0,0,0,.3-.2.4s0,.2-.2.4h0c0,.2,0,.4-.2.5,0,.2,0,.3,0,.5v.2c0,.2,0,.5,0,.7v1.1c0,.2,0,.4.2.5s0,.4.2.5v.2h0c0,0,0,.3.2.4s0,.2.2.3h0v-1h0v-.2l.2-.4c0,0,0-.2.2-.3,0,0,0-.2.2-.3s.2-.2.2-.3l.4-.4s.2-.2.3-.2.2,0,.3-.2l.4-.2c0,0,.2,0,.4,0s.3,0,.4-.2c0,0,.2-.2.3-.2h0c0,0,0,0,0,0h1.2c.2,0,.5.2.7.4l.4.4h0s0,0,0,.2,0,0,0,.2h0c0,0,0,.2.2.3s0,.2,0,.2h0v.4c0,0,0,.2,0,.3v.5h0v1.7c0,.2,0,.3,0,.4h0s0,0,0,.2v.7c0,.1,0,.2-.2.4,0,.2-.2.3-.4.5,0,0-.2.2-.2.3s-.2.2-.2.3l-.6.7c0,.2-.2.3-.3.5h0c0,0,0,.2,0,.3s0,0-.2,0h-1.2l.9-1.3ZM543.3,998.3h.3c0,0,0,0,0,0,.2-.3.3-.4.5-.6l.5-.5h0v-.3h0c0-.2,0,0,0,0v-1.5h0v-.7s0-.2,0-.3c0,0,0-.3-.2-.4s0-.2-.2-.4h-.6c0,.2-.3.2-.4.2h-.4c-.1,0-.2,0-.4.2h0c-.2,0-.3,0-.4.2s-.3.2-.4.3l-.2.2c-.1.1,0,.2,0,.2,0,0,0,.2,0,.4s0,.2,0,.3v.6c0,.3.3.6.4.9,0,0,0,0,0,.2s0,0,0,.2h0v.2c0,.2,0,0,0,.2l.4.4c.2.2.5.3.8.4h0v-.2ZM499.8,769.9h-1c-.1,0-.3,0-.4,0h-.1c-.2,0-.3-.3-.4-.4v-.4h0c0-.4.2-.6.3-.8l.2-.2s.2-.2.3-.2.2,0,.3-.2.2,0,.3-.2c.2,0,.4-.3.6-.4s.4-.3.5-.4c.3-.2.5-.5.7-.9,0-.2.2-.5.3-.7,0-.2.2-.4.2-.6s.1-.4.2-.5.1-.4.2-.5c0-.2,0-.3.1-.5s0-.3,0-.5v-.6s0,0-.2-.2h-.6c-.3,0-.6.3-.8.5h-.1c0,0-.1,0-.1,0,0,.2-.2.3-.3.4,0,0-.1,0-.2.2s-.1,0-.2.2c-.1,0-.2.3-.3.5,0,.2-.2.4-.4.5-.1,0-.2.2-.3.3,0,0-.2.2-.3.3h-.3l-.2-.2s-.1,0-.2-.2c0,0-.1,0-.2-.2h0v-.4h0v-.5h0v-.2c0-.2.2-.4.4-.6.3-.3.7-.6,1-.8h.3c.2,0,.3-.2.4-.3.1,0,.3-.2.4-.3.1,0,.2-.2.3-.3s.2-.2.4-.2.3-.2.4-.2.3,0,.5,0h.4c.2,0,.3,0,.4,0,.2,0,.4.2.6.3h0c.1,0,.2.2.3.4s.2.3.2.5v1c0,.4,0,.8-.2,1.2v.8c0,0,0,.2-.1.3,0,.2-.1.3-.2.4s-.1.3-.2.4c0,0,0,.3-.1.4v.4c-.2.2-.2.3-.3.5s-.1.3-.2.5c-.2.3-.4.6-.6.8h-.2c0,0-.2.3-.2.3h1.4c.2,0,.3,0,.4,0h2.4c.3,0,.6,0,.9.3s.2.3.3.5h0c0,.4,0,.6-.1.8,0,0,0,0-.1.2h-1c-.2,0-.4,0-.6,0h-4.9ZM511.8,770.5h-.5q0-.2-.2-.3s-.1,0-.1-.2,0-.2-.1-.4v-.6h0c0,0,.1-.2.2-.3s0-.2,0-.3c0-.2,0-.4.2-.5,0-.2,0-.4.1-.5v-2.1s0,0-.1,0h-.2s-.2,0-.2,0h-.2s-.2,0-.3,0-.2,0-.3.2h-.1c-.2,0-.4,0-.5,0-.2-.2-.4-.4-.5-.6v-.4c-.1-.3,0-.5,0-.8s.2-.2.2-.3h2.5s.1,0,.1,0h0c0-.2,0-.4.1-.5l.2-.5v-.7c0-.2.2-.5.2-.7v-.4l.2-.7h-.4c-.1,0-.2,0-.4,0h-.2c-.1,0-.3.2-.4.2s-.3,0-.4.2h-.5s-.2,0-.3.2l-.2.2s-.1,0-.2.2c0,0-.1.2-.2.3s-.2.2-.3.2h-1s-.2,0-.2-.2h-.1c0-.2-.1-.3-.2-.4h0v-.6c0-.2.2-.5.4-.6h.1l.2-.2h.6c.3,0,.6,0,.9,0h.8c.2,0,.4-.2.6-.2s.4-.2.6-.2h.1c.1,0,.3,0,.4-.2s.3,0,.4-.2h0c0,0,0,0,0,0v-.2q.2,0,.3,0c.2-.2.5-.3.9-.3s.3,0,.4.2c0,0,.2.2.3.3,0,0,0,.2,0,.3s0,.2,0,.3c0,.2,0,.3,0,.5v.8q0,.1,0,.2v.4s0,0,0,.2h0v.2h0c0,.2,0,0,0,0h0v.4h0v.5c0,.2,0,0-.2,0h0s0,.2,0,.3h0v.7h0v.2c0,.1,0,0,0,0h.5s.2,0,.2.2h0s.2.2.2.3h0v.6h0v.2h-.4s0,0-.2.2c0,0,0,0-.3,0h-.8c-.1,0,0,0,0,0h0v1h0v.3h0v.3h0v.5h0v.5h0v.6h0v.2h0v1.2h0q0,.2,0,.3c0,0,0,0-.2,0h0s0,0-.2,0h-1.1ZM485.2,591.3h-1c-.1,0-.3,0-.4,0h-.1c-.2,0-.3-.3-.4-.4v-.4h0c0-.4.2-.6.3-.8l.2-.2s.2-.2.3-.2.2,0,.3-.2.2,0,.3-.2c.2,0,.4-.3.6-.4s.4-.3.5-.4c.3-.2.5-.5.7-.9,0-.2.2-.5.3-.7,0-.2.2-.4.2-.6s.1-.4.2-.5.1-.4.2-.5c0-.2,0-.3.1-.5s0-.3,0-.5v-.6s0,0-.2-.2h-.6c-.3,0-.6.3-.8.5h-.1c0,0-.1,0-.1,0,0,.2-.2.3-.3.4,0,0-.1,0-.2.2s-.1,0-.2.2c-.1,0-.2.3-.3.5,0,.2-.2.4-.4.5-.1,0-.2.2-.3.3,0,0-.2.2-.3.3h-.3l-.2-.2s-.1,0-.2-.2c0,0-.1,0-.2-.2h0v-.4h0v-.5h0v-.2c0-.2.2-.4.4-.6.3-.3.7-.6,1-.8h.3c.2,0,.3-.2.4-.3.1,0,.3-.2.4-.3.1,0,.2-.2.3-.3s.2-.2.4-.2.3-.2.4-.2.3,0,.5,0h.4c.2,0,.3,0,.4,0,.2,0,.4.2.6.3h0c.1,0,.2.2.3.4s.2.3.2.5v1c0,.4,0,.8-.2,1.2v.8c0,0,0,.2-.1.3,0,.2-.1.3-.2.4s-.1.3-.2.4c0,0,0,.3-.1.4v.4c-.2.2-.2.3-.3.5s-.1.3-.2.5c-.2.3-.4.6-.6.8h-.2c0,0-.2.3-.2.3h1.4c.2,0,.3,0,.4,0h2.4c.3,0,.6,0,.9.3s.2.3.3.5h0c0,.4,0,.6-.1.8,0,0,0,0-.1.2h-1c-.2,0-.4,0-.6,0h-4.9ZM497.3,591.9h-.9s-.2,0-.2,0c-.1,0-.3-.2-.4-.3s-.2-.2-.3-.4h0c0,0-.4-.7-.4-.7h0c0,0-.2-.6-.2-.6h0v-2.1c-.2-.2-.2-.4-.1-.6,0-.4.2-.8.4-1.1.1-.2.3-.4.5-.6h0v-.2c.1-.2.3-.3.5-.5h.2q0-.2.2-.3l.4-.4c.1,0,.2-.2.2-.3v-.2l-.2-.2-.2-.2h-.1c0,0-.2,0-.2,0-.2-.2-.4-.4-.6-.5h0c0-.2-.2-.3-.3-.4,0,0-.1-.3-.2-.4h0v-.6c0-.2.2-.3.3-.5.1,0,.2-.2.3-.3s.2-.2.3-.2.3,0,.4-.2.3,0,.4-.2c.2,0,.5-.2.8-.3s.5-.2.8-.2h.3c.1,0,.2-.2.3-.2h1.5c.2.2.4.3.5.5s.2.3.3.4c.1.2.2.4.2.7h0v.4h.2c.4.4.5.9.4,1.4,0,0,0,.2-.1.2s-.1,0-.2.2c-.1,0-.2,0-.3.2s-.2.2-.3.3c0,0-.1,0-.2.2s-.1,0-.2.2c0,0-.1.2-.2.2,0,0-.2,0-.3.2v.4h0l.2.2c.3.2.5.4.7.7v.2c.3.2.3.3.4.6v.8h0v1.7h0l-.2.5c0,0,0,.2-.1.3h0c0,.2,0,.3-.1.4s-.1.2-.2.2c-.2.4-.5.7-.8,1.1,0,0,0,0-.2.2,0,0,0,0-.2.2,0,0-.2.2-.3.2-.2,0-.3,0-.5.2-.2,0-.3,0-.5,0h-1l-.5-.2ZM498,589.8c.2,0,.3,0,.4-.2h0c.1-.2.2-.3.4-.4.1,0,.2-.3.4-.4h0c0-.2.2-.3.2-.4s.1-.2.2-.4c0-.2,0-.3.1-.5s0-.3,0-.5v-.6c0-.2,0-.3-.2-.5,0,0-.2-.3-.4-.3h0c-.1,0-.2-.2-.3-.2s-.2-.2-.3-.3h0c0,0-.2-.2-.3-.2h-.2s-.2,0-.2.2-.1,0-.2.2-.1,0-.2,0h0v.2h0c0,0-.1,0-.2.2h0v.2h0v.5h0v.4h0v.8h0v.3h0c0,0,.1.3.2.3,0,0,.2.2.3.3h.9l-.6,1.3ZM498.6,582.1h.2l.3-.2v-.4l-.2-.2s0,0-.2-.2c0,0-.1-.2-.2-.3,0,0-.1-.2-.2-.3h-1.2c.3.2.5.3.7.5,0,0,.1,0,.2.2s.1,0,.2.2c0,0,.1,0,.2.2h0l.2.5ZM307.7,579.1h-1.1c-.1,0-.3,0-.4,0h-.1c-.2,0-.3-.3-.4-.4v-.4h0c0-.4.1-.6.3-.8l.2-.2s.2-.2.3-.2.2,0,.3-.2.2,0,.3-.2c.2,0,.4-.3.6-.4s.4-.3.5-.4c.3-.2.5-.5.7-.9,0-.2.2-.5.3-.7,0-.2.2-.4.2-.6s.1-.4.2-.5.1-.4.2-.5c0-.2.1-.3.1-.5v-1.1s0,0-.2-.2h-.6c-.3,0-.6.3-.8.5h-.1c0,0-.1,0-.1,0,0,.2-.2.3-.3.4,0,0-.1,0-.2.2s-.1,0-.2.2c-.1,0-.2.3-.3.5,0,.2-.2.4-.4.5-.1,0-.2.2-.3.3,0,0-.2.2-.3.3h-.3l-.2-.2s-.1,0-.2-.2-.1-.2-.2-.2h0v-.4h0v-.5h0v-.2c0-.2.2-.4.4-.6.3-.3.7-.6,1-.8h.2c.1,0,.3-.2.4-.3s.3-.2.4-.3c.1,0,.2-.2.4-.3s.2-.2.4-.2.3-.2.4-.2.3,0,.5,0h.6c.1,0,.3,0,.4,0,.2,0,.4.2.6.3h.1c.1,0,.2.2.4.4.1,0,.2.3.2.5,0,0,0,.2.1.3s0,.2,0,.3v.4c0,.4,0,.8-.2,1.2v.8c0,0,0,.2-.1.3,0,.2-.1.3-.2.4s-.1.3-.2.4c0,0-.1.3-.1.4v.4c-.2.2-.2.3-.3.5s-.1.3-.2.5c-.2.3-.4.6-.6.8,0,0-.1,0-.1,0v.2h-.1,1.4c.1,0,.3,0,.4,0h2.5c.3,0,.6,0,.9.3.1.2.2.3.3.5h0c0,.4,0,.6-.1.8,0,0-.1,0-.1.2h-1.2c-.2,0-.4,0-.6,0h-5.4ZM323.2,579.7h-.3c-.1,0-.2,0-.2,0,0,0-.1,0-.2-.2s0-.2-.1-.2h0v-.8h0v-1.4h0v-1.5c.1-.2.1-.5.2-.7v-.7c.1,0,.1-.3.1-.3v-.2h0v-1h0c-.1,0-.3.2-.4.2s-.3,0-.4.2c-.3,0-.6.2-.9.3s-.6,0-.9.2h-.8c-.3.2-.5.2-.8,0h0s-.1,0-.2,0h-.2v-.5h0s-.1,0-.2,0c0,0-.1,0-.2-.2,0,0-.1-.2-.2-.2,0,0-.1-.2-.2-.2h0v-.9l-.2-.5v-.7h0v-.5q0-.2.1-.4c0,0,.1-.2.2-.3s.1-.2.2-.3c0-.2.2-.3.3-.4s.2-.3.2-.4v-.2c.2,0,.2-.2.3-.2h.1l.3-.2h2.3c.2,0,.4,0,.5.2.2,0,.5.2.7.3s.4.2.6.3h0v-.6s0-.2.1-.2h.3q0,0,.1,0c.2,0,.4,0,.5,0h.1c.2,0,.4.2.5.4h0v5.2h0v4.1h0v1.1h0v.7l-.2.6v.7c-.1,0-.2.2-.3.3,0,0-.1,0-.1,0h-.1c0,0-.1,0-.2,0h0l-.4-.7ZM320,571.4h2.1c.2,0,.3-.2.3-.5h0v-1c0-.1,0-.2-.1-.4,0-.2-.1-.3-.2-.4s-.2-.2-.4-.3h-.1c-.1,0-.3-.2-.5-.3-.2,0-.3,0-.5-.2h-1.2c-.2,0-.3,0-.4.3v.2q-.1,0-.1,0h0s-.1,0-.2.2c0,0,0,0-.1.2s0,0-.1.2v.2h0v.4c.1,0,.1.2.2.3v.3q0,0,.2.2h.1c.1.2.2.3.3.4h.1c0,0,.1,0,.2.2h.4ZM113.8,556.5h-.4c0,0-.3,0-.4-.2h0s0,0-.2,0,0,0-.2-.2l-.3-.3h0v-.2h0v-.2s0-.2.2-.2c0,0,0,0,0,0s0-.2.2-.3c0,0,.2,0,.3-.2,0,0,.3,0,.5,0h.8c0,0,.3,0,.4,0l.4-.2.6-.2c.2,0,.3,0,.4-.2,0,0,.2,0,.3,0l.3-.2s.2,0,.2-.2,0,0,.2-.2c0,0,0-.2.2-.2,0,0,0-.3,0-.4v-.4s0-.2,0-.2,0-.2,0-.3h0s0-.2-.2-.3,0-.2-.2-.3c0,0,0,0-.2-.2,0,0,0,0-.2,0h-.6c-.2,0-.4,0-.5,0h-.5c-.2,0-.3-.2-.5-.2s-.2,0-.3,0h0s-.2,0-.4,0h-.5v-.8h0c0-.2,0,0,0,0v-.4c.2-.2.4-.4.6-.6.2-.2.4-.5.5-.7s.4-.4.5-.7c0,0,.2-.2.2-.3v-.2c.2,0,.2,0,.3-.2h0v-.6h-2c-.2,0-.4,0-.6.2-.2,0-.4,0-.6.2h-.9c0,0-.3,0-.4.2h-.6c0,0-.2,0-.3,0h0v-.4c0-.2,0-.4,0-.5,0,0,0,0,0-.2s0,0,.2-.2c.2-.2.4-.2.6-.3h5.9c0,0,0,.2,0,.2h0c0,0,.2.2.3.2,0,0,0,.2.2.3,0,.2.2.4,0,.6v.4c0,.1,0,.3,0,.4l-.3.6v.4l-.3.3c0,0-.2.3-.2.4s-.2.3-.3.4h0v.2h.6c.2,0,.3,0,.5,0,.2,0,.4,0,.6.2s.4.2.5.3c.3.2.6.5.8.8,0,0,.2.3.3.4s.2.3.3.5l.3.5c.2.4.3.8.3,1.2v.8c0,0,0,.3,0,.4s0,.2-.2.4c0,0-.2.2-.2.3s0,.2-.3.3h0s0,0-.2.2c0,0,0,0-.2.2,0,0,0,0-.2,0s0,0-.2,0c-.2.2-.4.2-.6.2h-.5l-.5.2h-.4c0,0-.3,0-.4,0,0,0-.3,0-.4,0s-.3,0-.4.2l-.2.2s0,0,0,0h-.3l-1.1-.2ZM125.9,556.3h-.8c-.3,0-.6,0-.9-.2h-.2c0,0-.2,0-.3-.2,0,0-.2,0-.3,0,0,0-.2,0-.3,0s-.2,0-.3,0h0c0,0-.2-.2-.3-.2,0,0-.2,0-.3,0,0,0-.2,0-.3-.2s-.2-.2-.3-.2h0c0,0,0-.2-.2-.3s0-.2-.2-.3v-.3c0,0-.2,0-.2-.2v-2.2h0v-.6h0v-.2c0,0,0-.2,0-.3s0-.2,0-.3v-.2h0v-.2h.2v-.6c0-.2,0-.3.2-.5,0,0,0,0,0-.2h0v-.2c0-.2.2-.3.2-.5s0-.3.2-.5h0s0-.2.2-.2h0s0,0,0-.2h0c0-.3,0-.4,0-.4h0s0,0,.2-.2,0,0,0,0h0c0,0,0-.2.2-.3h0s0,0-.2-.2c0,0,0,0-.2-.2,0,0,0,0,0-.2,0,0,0,0,0-.2h0v-.3h0v-.3h0v-.2h0s0,0,0,0h.7c0,0,.2,0,.3,0,0,0,.2,0,.3,0h.4s0,0,0,0h0c0-.2.2-.3.4-.3h.9s0,0,0,0h.4c0,0,.2,0,.2,0h0c0,0,0,.2,0,.2h0v.2c0,.2-.2.4-.4.5h-.3s0,0,.2.2c0,0,0,0,.2.2,0,0,0,.2.2.2,0,0,0,.2.2.2,0,0,0,.2,0,.2l.2.2.2.3s0,.2.2.3,0,.2.2.3c0,.2.2.3.3.5s.2.3.3.5c.2.3.3.7.5,1,.1.2.2.5.3.8s.1.5.2.8l.2.8v.6c0,.2-.1.4-.2.6,0,.2-.2.5-.3.7,0,.2-.1.3-.2.5s-.1.3-.2.5c-.1.2-.2.4-.4.6,0,0,0,0,0,.2s0,0,0,.2c0,0,0,0-.2.2,0,0,0,0-.2.2l-.2.2s-.2,0-.3.2-.2,0-.3.2c-.2,0-.4.2-.6.2s-.5,0-.8,0h-.5l1.1-.5ZM125.4,554.3h1.2c0,0,.3,0,.5-.2,0,0,0,0,.2,0,0,0,.2-.2.4-.3h0c0,0,0-.2,0-.3,0,0,0,0,0-.2l.2-.5c0-.2.1-.3.2-.5,0-.2.1-.4.1-.5h0v-.5c0-.2,0-.3-.1-.5v-.5c-.1-.2-.2-.5-.3-.7s-.2-.4-.3-.7c0-.2-.2-.3-.3-.5,0-.2-.2-.3-.3-.5,0,0,0-.2,0-.2,0,0,0-.2-.2-.3,0,0,0-.2-.2-.3l-.5-.7c0,0,0-.2-.2-.3s0-.2-.2-.2h0l-.5.7c-.4.5-.7,1.1-1,1.8,0,.2-.2.4-.3.7s-.2.5-.3.7c0,.2-.2.5-.3.8s-.2.5-.2.8c0,.3-.2.7-.2,1h0v.7c0,.2.2.4.3.6l.4.3c0,0,.2.2.4.3s.3.2.4.2c.2,0,.3,0,.5.2s.4,0,.5,0h0v-.3ZM109.8,713.3h-.4c0,0-.3,0-.4-.2h0s0,0-.2,0,0,0-.2-.2l-.3-.3h0v-.2h0v-.2s0-.2.2-.2c0,0,0,0,0,0s0-.2.2-.3c0,0,.2,0,.3-.2,0,0,.3,0,.5,0h.8c0,0,.3,0,.4,0l.4-.2.6-.2c.2,0,.3,0,.4-.2,0,0,.2,0,.3,0l.3-.2s.2,0,.2-.2,0,0,.2-.2c0,0,0-.2.2-.2,0,0,0-.3,0-.4v-.4s0-.2,0-.2,0-.2,0-.3h0s0-.2-.2-.3,0-.2-.2-.3c0,0,0,0-.2-.2,0,0,0,0-.2,0h-.6c-.2,0-.4,0-.5,0h-.5c-.2,0-.3-.2-.5-.2s-.2,0-.3,0h0s-.2,0-.4,0h-.5v-.8h0c0-.2,0,0,0,0v-.4c.2-.2.4-.4.6-.6.2-.2.4-.5.5-.7s.4-.4.5-.7c0,0,.2-.2.2-.3v-.2c.2,0,.2,0,.3-.2h0v-.6h-2c-.2,0-.4,0-.6.2-.2,0-.4,0-.6.2h-.9c0,0-.3,0-.4.2h-.6c0,0-.2,0-.3,0h0v-.4c0-.2,0-.4,0-.5,0,0,0,0,0-.2s0,0,.2-.2c.2-.2.4-.2.6-.3h5.9c0,0,0,.2,0,.2h0c0,0,.2.2.3.2,0,0,0,.2.2.3,0,.2.2.4,0,.6v.4c0,.1,0,.3,0,.4l-.3.6v.4l-.3.3c0,0-.2.3-.2.4s-.2.3-.3.4h0v.2h.6c.2,0,.3,0,.5,0,.2,0,.4,0,.6.2s.4.2.5.3c.3.2.6.5.8.8,0,0,.2.3.3.4s.2.3.3.5l.3.5c.2.4.3.8.3,1.2v.8c0,0,0,.3,0,.4s0,.2-.2.4c0,0-.2.2-.2.3s0,.2-.3.3h0s0,0-.2.2c0,0,0,0-.2.2,0,0,0,0-.2,0s0,0-.2,0c-.2.2-.4.2-.6.2h-.5l-.5.2h-.4c0,0-.3,0-.4,0,0,0-.3,0-.4,0s-.3,0-.4.2l-.2.2s0,0,0,0h-.3l-1.1-.2ZM118.8,713.3h-.5c0,0,0,0,0,0h0s0,0,0,0v-1.4h0v-3.9h0v-3.1h0v-1.7c0-.2,0-.5,0-.7,0,0,0-.2,0-.3h0s0,0,0,0,0,0,0,0h.5s0,0,.2.2c0,0,0,.2,0,.3s0,.2,0,.3v1.3h0v2.1h0v3.5h0v.3h0v1.9h0v.8h0v.3s0,0,0,.2h0s-.2,0-.2.2c0,0-.2,0-.4,0h.3ZM96.9,957.2h-.4c0,0-.3,0-.4-.2h0s0,0-.2,0,0,0-.2-.2l-.3-.3h0v-.2h0v-.2s0-.2.2-.2c0,0,0,0,0,0s0-.2.2-.3c0,0,.2,0,.3-.2,0,0,.3,0,.5,0h.8c0,0,.3,0,.4,0l.4-.2.6-.2c.2,0,.3,0,.4-.2,0,0,.2,0,.3,0l.3-.2s.2,0,.2-.2,0,0,.2-.2c0,0,0-.2.2-.2,0,0,0-.3,0-.4v-.4s0-.2,0-.2,0-.2,0-.3h0s0-.2-.2-.3,0-.2-.2-.3c0,0,0,0-.2-.2,0,0,0,0-.2,0h-.6c-.2,0-.4,0-.5,0h-.5c-.2,0-.3-.2-.5-.2s-.2,0-.3,0h0s-.2,0-.4,0h-.5v-.8h0c0-.2,0,0,0,0v-.4c.2-.2.4-.4.6-.6.2-.2.4-.5.5-.7s.4-.4.5-.7c0,0,.2-.2.2-.3v-.2c.2,0,.2,0,.3-.2h0v-.6h-2c-.2,0-.4,0-.6.2-.2,0-.4,0-.6.2h-.9c0,0-.3,0-.4.2h-.6c0,0-.2,0-.3,0h0v-.4c0-.2,0-.4,0-.5,0,0,0,0,0-.2s0,0,.2-.2c.2-.2.4-.2.6-.3h5.9c0,0,0,.2,0,.2h0c0,0,.2.2.3.2,0,0,0,.2.2.3,0,.2.2.4,0,.6v.4c0,.1,0,.3,0,.4l-.3.6v.4l-.3.3c0,0-.2.3-.2.4s-.2.3-.3.4h0v.2h.6c.2,0,.3,0,.5,0,.2,0,.4,0,.6.2s.4.2.5.3c.3.2.6.5.8.8,0,0,.2.3.3.4s.2.3.3.5l.3.5c.2.4.3.8.3,1.2v.8c0,0,0,.3,0,.4s0,.2-.2.4c0,0-.2.2-.2.3s0,.2-.3.3h0s0,0-.2.2c0,0,0,0-.2.2,0,0,0,0-.2,0s0,0-.2,0c-.2.2-.4.2-.6.2h-.5l-.5.2h-.4c0,0-.3,0-.4,0,0,0-.3,0-.4,0s-.3,0-.4.2l-.2.2s0,0,0,0h-.3l-1.1-.2ZM106.7,956.4h-1.1c0,0-.3,0-.4,0h0c-.2,0-.3-.3-.4-.4v-.4h0c0-.4,0-.6.3-.8l.2-.2s.2-.2.3-.2.2,0,.3-.2c0,0,.2,0,.3-.2.2,0,.4-.3.6-.4s.4-.3.5-.4c.3-.2.6-.5.7-.9,0-.2.2-.5.3-.7,0-.2.2-.4.2-.6s0-.4.2-.5,0-.4.2-.5c0-.2,0-.3,0-.5v-1.1s0,0-.2-.2h-.6c-.3,0-.6.3-.8.5h0c0,0,0,0,0,0,0,.2-.2.3-.3.4,0,0,0,0-.2.2s0,0-.2.2c0,0-.2.3-.3.5,0,.2-.2.4-.4.5,0,0-.2.2-.3.3,0,0-.2.2-.3.3h-.3l-.2-.2s0,0-.2-.2,0-.2-.2-.2h0v-.4h0v-.5h0v-.2c0-.2.2-.4.4-.6.3-.3.7-.6,1-.8h.2c0,0,.3-.2.4-.3s.3-.2.4-.3c0,0,.2-.2.4-.3s.2-.2.4-.2.3-.2.4-.2.3,0,.5,0h.6c0,0,.3,0,.4,0,.2,0,.4.2.6.3h0c0,0,.2.2.4.4s.2.3.2.5c0,0,0,.2,0,.3v.7c0,.4,0,.8-.2,1.2v.8c0,0,0,.2,0,.3,0,.2,0,.3-.2.4s0,.3-.2.4c0,0,0,.3,0,.4v.4c-.2.2-.2.3-.3.5,0,.2,0,.3-.2.5-.2.3-.4.6-.6.8,0,0,0,0,0,0v.2h0,1.4c0,0,.3,0,.4,0h2.5c.3,0,.6,0,.9.3,0,.2.2.3.3.5h0c0,.4,0,.6,0,.8,0,0,0,0,0,.2h-1.2c-.2,0-.4,0-.6,0h-5.4ZM599.5,585.8h-1c0,0-.3,0-.4,0h0c-.2,0-.3-.3-.4-.4v-.4h0c0-.4.2-.6.3-.8l.2-.2s.2-.2.3-.2.2,0,.3-.2.2,0,.3-.2c.2,0,.4-.3.6-.4s.4-.3.5-.4c.3-.2.5-.5.7-.9,0-.2.2-.5.3-.7,0-.2.2-.4.2-.6s0-.4.2-.5,0-.4.2-.5c0-.2,0-.3,0-.5s0-.3,0-.5v-.6s0,0-.2-.2h-.6c-.3,0-.6.3-.8.5h0c0,0,0,0,0,0,0,.2-.2.3-.3.4l-.2.2-.2.2c0,0-.2.3-.3.5,0,.2-.2.4-.4.5,0,0-.2.2-.3.3,0,0-.2.2-.3.3h-.3l-.2-.2-.2-.2-.2-.2h0v-.4h0v-.5h0v-.2c0-.2.2-.4.4-.6.3-.3.7-.6,1-.8h.3c.2,0,.3-.2.4-.3,0,0,.3-.2.4-.3,0,0,.2-.2.3-.3s.2-.2.4-.2.3-.2.4-.2.3,0,.5,0h.4c.2,0,.3,0,.4,0,.2,0,.4.2.6.3h0c0,0,.2.2.3.4s.2.3.2.5v1c0,.4,0,.8-.2,1.2v.8c0,0,0,.2,0,.3,0,.2,0,.3-.2.4s0,.3-.2.4c0,0,0,.3,0,.4v.4c-.2.2-.2.3-.3.5s0,.3-.2.5c-.2.3-.4.6-.6.8h-.2c0,0-.2.3-.2.3h1.4c.2,0,.3,0,.4,0h2.4c.3,0,.6,0,.9.3.2.2.2.3.3.5h0c0,.4,0,.6,0,.8,0,0,0,0,0,.2h-1c-.2,0-.4,0-.6,0h-4.9ZM612.1,586.6h-.4c-.1,0-.3,0-.4-.2h0s0,0-.2,0c0,0,0,0-.2-.2l-.3-.3h0v-.2h0v-.2s0-.2.2-.2c0,0,0,0,0,0s0-.2.2-.3c0,0,.2,0,.3-.2.2,0,.3,0,.5,0h.8c.1,0,.3,0,.5,0l.5-.2.6-.2c.2,0,.3,0,.4-.2,0,0,.2,0,.3,0l.3-.2s.2,0,.2-.2,0,0,.2-.2l.2-.2c0,0,0-.3,0-.4v-.9h0s-.2-.2-.2-.3c0,0,0-.2-.2-.3l-.2-.2c-.1-.1,0,0-.2,0h-.8c-.2,0-.3,0-.5,0h-.5c-.2,0-.3-.2-.5-.2s-.2,0-.3,0h0s-.2,0-.4,0h-.5v-.8h0c0-.2,0,0,0,0v-.4l.6-.6c.2-.2.3-.5.5-.7s.3-.4.5-.7c0,0,.2-.2.2-.3l.2-.2s0,0,0-.2h0v-.6h-2c-.2,0-.4,0-.6.2-.2,0-.4,0-.6.2h-.8c-.1,0,0,0,0,0s-.3,0-.4.2h-.6c0,0-.2,0-.3,0h0v-.9s0,0,0-.2,0,0,.2-.2c.2-.2.4-.2.6-.3h5.9c0,0,0,.2,0,.2h0c0,0,.2.2.3.2s0,.2.2.3c.2.2.2.4,0,.6v.4c0,.1,0,.3-.2.4l-.3.6v.4l-.3.3c0,0-.2.3-.2.4s-.2.3-.3.4h0v.2c0,.1,0,0,0,0h.5c.2,0,.3,0,.5,0,.2,0,.4,0,.6.2s.4.2.5.3c.3.2.6.5.8.8,0,0,.2.3.3.4,0,.2.2.3.3.5l.3.5c.2.4.3.8.3,1.2v.8c0,0,0,.3-.2.4s0,.2-.2.4c0,0-.2.2-.2.3s-.2.2-.3.3h0s0,0-.2.2c0,0,0,0-.2.2,0,0,0,0-.2,0s0,0-.2,0c-.2.2-.4.2-.6.2h-.5l-.5.2h-.4c0,0-.3,0-.4,0,0,0-.3,0-.4,0s-.3,0-.4.2l-.2.2h0c0,0-.2,0-.3,0h0l-1.2-.2ZM783,375.1h-.8s-.2-.1-.2-.2,0-.2,0-.3,0-.2,0-.3v-1.6h0v-1.7c0-.1,0-.2,0-.3s0-.2,0-.3v-2.7h0v-.2h0v-2.1c.2,0,.2-.2.3-.2s0-.1.2-.2h.4s.2,0,.2.1c.2,0,.3.2.3.4v.2c0,0,.2.1.2.2v1.9h0v.3h0v.9h0v.2h0v1.3h0v.4h0v2.2h0v1.4h0c0,.2,0,.1,0,.1v.2c0,.2-.3.3-.5.5h0l.2-.2ZM789.4,376h-.3c0,0,0,0,0,0h-.2q0-.2-.2-.3s0,0,0-.2,0-.2,0-.4v-.6h0c0-.1,0-.2.2-.3v-.3c0-.2,0-.4.2-.5,0-.2,0-.4,0-.5v-2.2s0-.1,0-.1h-.2s-.2,0-.2.1-.2,0-.2,0c0,0-.2,0-.3.1s-.2.1-.3.2h0c-.2.1-.4.1-.5,0-.2-.2-.4-.4-.5-.6h0v-.2c0-.3,0-.5,0-.8s.2-.2.2-.3h0s0-.1.2-.1h2.3s0,0,0-.1h0c0-.3,0-.5,0-.6l.2-.5v-.7c0-.2.2-.5.2-.7v-.4l.2-.7h0c0,0-.3,0-.4.1s-.2,0-.4.1h-.2c0,.1-.3.1-.4.2s-.3.1-.4.2h-.5c0,0,0,0,0,0,0,0-.2.1-.3.2l-.2.2s0,.1-.2.2c0,0,0,.2-.2.3,0,.1-.2.2-.3.2s-.3,0-.4.1-.3,0-.4,0h-.2s-.2,0-.2-.2c0,0,0-.1,0-.1,0-.1,0-.2-.2-.3h0v-.6c0-.2.2-.5.4-.6h0l.2-.2h.6c.3,0,.6,0,.9-.1h.8c.2,0,.4-.2.6-.2s.4-.2.6-.2h0v-.2c0,0,.3-.1.4-.2s.3-.1.4-.2h0c0,0,0,0,0,0h0q0-.2,0-.3c.2-.2.5-.3.9-.3s.3,0,.4.2c0,0,.2.2.3.3,0,0,0,.2,0,.3s0,.2,0,.3c0,.1,0,.3,0,.5v.8q0,.1,0,.2v.4s0,.1,0,.2h0v.3h0v.2h0v.4h0q0,.1-.2.2h0s0,.2,0,.3h0v.6h0v.2h0q0,.1,0,.1h.4s.2,0,.2.2h0c0,.1.2.3.2.4h0v.6h0v.2h0s-.2.1-.3,0h0s0,.1-.2.2c0,0,0,.1-.3.1h-.8c-.1,0,0,0,0,0h0v1h0v.3h0v.3h0v.6h0c0,.1,0,.6,0,.6h0v.7h0v.2h0v1.2h0q0,.2,0,.3c0,0,0,0-.2.1h0s0,0-.2.1,0,0-.2,0h-.9Z"/>
  </g>
  <g id="palle">
    <circle class="cls-1" cx="433.1" cy="289.9" r="6"/>
    <circle class="cls-1" cx="458.9" cy="143.2" r="6"/>
    <circle class="cls-1" cx="525.7" cy="58.1" r="6"/>
    <circle class="cls-1" cx="623.7" cy="33.6" r="6"/>
    <circle class="cls-1" cx="719.8" cy="80.2" r="6"/>
    <circle class="cls-1" cx="783" cy="155.1" r="6"/>
    <circle class="cls-1" cx="823.1" cy="244" r="6"/>
    <circle class="cls-1" cx="848.3" cy="361.9" r="6"/>
    <circle class="cls-1" cx="870.2" cy="555.8" r="6"/>
    <circle class="cls-1" cx="889.6" cy="719.1" r="6"/>
    <circle class="cls-1" cx="842.3" cy="799.2" r="6"/>
    <circle class="cls-1" cx="821" cy="579.7" r="6"/>
    <circle class="cls-1" cx="803" cy="395.1" r="6"/>
    <circle class="cls-1" cx="736.8" cy="561.8" r="6"/>
    <circle class="cls-1" cx="689" cy="787.3" r="6"/>
    <circle class="cls-1" cx="689" cy="961.6" r="6"/>
    <circle class="cls-1" cx="661.8" cy="973.5" r="6"/>
    <circle class="cls-1" cx="635.9" cy="787.3" r="6"/>
    <circle class="cls-1" cx="607.9" cy="600.2" r="6"/>
    <circle class="cls-1" cx="581.3" cy="764.6" r="6"/>
    <circle class="cls-1" cx="602" cy="990.7" r="6"/>
    <circle class="cls-1" cx="558.9" cy="979.4" r="6"/>
    <circle class="cls-1" cx="529" cy="758.6" r="6"/>
    <circle class="cls-1" cx="512.7" cy="573.7" r="6"/>
    <circle class="cls-1" cx="49.5" cy="519.1" r="6"/>
    <circle class="cls-1" cx="278.6" cy="382.6" r="6"/>
    <circle class="cls-1" cx="102.2" cy="531" r="6"/>
    <circle class="cls-1" cx="317.4" cy="550.1" r="6"/>
    <circle class="cls-1" cx="90.3" cy="703.2" r="6"/>
    <circle class="cls-1" cx="78.9" cy="945.8" r="6"/>
    <circle class="cls-1" cx="43.6" cy="937" r="6"/>
    <circle class="cls-1" cx="40.3" cy="703.2" r="6"/>
  </g>
</svg>