<?xml version="1.0" encoding="UTF-8"?>
<svg id="Layer_1" data-name="Layer 1" xmlns="http://www.w3.org/2000/svg" version="1.1" viewBox="0 0 633.3 906.1">
  <defs>
    <style>
      .cls-1 {
        fill: #10069f;
        stroke-width: 0px;
      }
    </style>
  </defs>
  <g id="numeri">
    <path class="cls-1" d="M1.8,716.7c0,0-.2,0-.3,0,0,0-.2,0-.3,0,0,0-.1,0-.1,0s0,0-.1,0c0,0-.1-.2-.2-.2,0-.1,0-.2-.1-.3s0-.2,0-.3v-.2c0,0,0-.2,0-.2,0-.2,0-.3,0-.5,0-.2,0-.3,0-.5,0,0,0-.1,0-.2h0c0-.2,0-.3,0-.4,0,0,0-.2,0-.3,0-.2,0-.4,0-.6v-.4c0-.1,0-.2-.1-.3,0-.1,0-.2,0-.3v-.5c0-.2,0-.3,0-.5,0,0,0-.2,0-.3v-.2s0-.2,0-.2c0,0,0-.1,0-.2v-.5c0,0,0-.2,0-.3,0,0,0,0,0-.1v-.5c0,0,0-.1,0-.2,0-.2,0-.3,0-.4,0-.1,0-.3,0-.4s0-.1,0-.2c0,0,0-.2.1-.3v-.2c.1,0,.2-.2.3-.2s.1-.1.2-.2c0,0,.1,0,.2,0h.2c0,0,.1,0,.2.1.2,0,.3.2.3.4v.2c.1,0,.2.1.2.2s0,.2,0,.2c0,.1,0,.2,0,.4,0,.2,0,.3,0,.5,0,0,0,0,0,.2,0,0,0,.1,0,.2s0,.2,0,.2v.2s0,0,0,0h0c0,.1,0,.2,0,.2s0,0,0,.1c0,.1,0,.2,0,.3s0,.2,0,.3,0,0,0,0,0,0,0,0h0c0,.2,0,.2,0,.3v.2c0,.1,0,.3,0,.4s0,.3,0,.4c0,0,0,0,0,.1s0,0,0,.1c0,0,0,.1,0,.2s0,0,0,.1c0,0,0,.1,0,.2,0,0,0,.1,0,.2v.5s0,.4,0,.4c0,.1,0,.2,0,.4s0,.2,0,.4c0,0,0,0,0,0h0c0,.2,0,.2,0,.3v.2c0,0,0,.2,0,.3s0,.2,0,.3c0,.2,0,.3,0,.4,0,0,0,0,0,.1,0,0,0,0,0,0,0,0,0,.1,0,.2-.1.2-.3.3-.6.5h-.1c0,0,0,0,0,0ZM3.7,497.6s0,0,0,0h-.3c0,0,0,0,0,0,0,0,0,0-.1,0,0,0,0,0-.1,0s-.1,0-.2,0c-.1,0-.3,0-.4,0-.1,0-.3,0-.4-.1h-.1c-.2-.1-.3-.3-.4-.4,0,0,0,0,0-.2,0,0,0,0,0-.2,0,0,0,0,0-.1,0-.3.1-.5.3-.7,0,0,.2-.2.2-.2s.2-.2.3-.2.2-.1.3-.2c.1,0,.2-.1.3-.2.2-.1.4-.3.6-.4s.4-.3.5-.4c.3-.2.6-.5.7-.9,0-.2.2-.5.3-.7,0-.2.2-.4.2-.6,0-.2.1-.4.2-.5s.1-.4.2-.5c0-.2.1-.3.1-.5s0-.3,0-.5c0-.2,0-.4,0-.6,0,0,0-.1-.2-.2,0,0-.1,0-.2,0,0,0-.1,0-.2,0,0,0-.1,0-.2,0,0,0,0,0,0,0s0,0,0,0c-.3.1-.6.3-.8.5,0,0,0,0-.1.1h-.1c0,.2-.2.3-.3.4,0,0-.1.1-.2.2s-.1.1-.2.2c-.1.1-.2.3-.3.5,0,.2-.2.4-.4.5-.1,0-.2.2-.3.3,0,.1-.2.2-.3.3-.1,0-.2,0-.3,0l-.2-.2c0,0-.1-.1-.2-.2s-.1-.2-.2-.2c0,0,0,0,0,0s0,0,0,0c0,0,0-.1,0-.2s0-.1,0-.2c0,0,0,0,0-.1,0,0,0,0,0-.2v-.2h0c0-.2,0-.2,0-.2,0-.2.2-.4.4-.6.3-.3.7-.6,1-.8,0,0,0,0,.1,0s.1,0,.1,0c.1-.1.3-.2.4-.3s.3-.2.4-.3c.1,0,.2-.2.4-.3s.2-.2.4-.2c.1,0,.3-.2.4-.2.1,0,.3,0,.5-.1,0,0,0,0,.1,0h.1c.1,0,.3,0,.4,0,.1,0,.3,0,.4.1.2,0,.4.2.6.3,0,0,0,0,.1,0,.1.1.2.2.4.4s.2.3.2.5c0,0,0,.2.1.3,0,0,0,.2,0,.3v.2s0,.2,0,.2c0,.4,0,.8-.2,1.2,0,0,0,.2,0,.2s0,.2,0,.3,0,.2,0,.3,0,.2-.1.3c0,.2-.1.3-.2.4s-.1.3-.2.4c0,.1-.1.3-.1.4v.4c-.2.2-.2.3-.3.5s-.1.3-.2.5c-.2.3-.4.6-.6.8,0,0-.1,0-.1.1v.2c-.1,0-.1,0-.1,0,0,0,0,0,0,0h.3s.2,0,.2,0h.9c0-.1,0-.1,0-.1.1,0,.3,0,.4,0,.1,0,.3,0,.4,0h.1c.2,0,.3,0,.5,0h.7c0,0,.2,0,.2,0,0,0,.1,0,.2,0,0,0,.1,0,.2,0,0,0,.1,0,.2,0,.3,0,.6,0,.9.3.1.2.2.3.3.5h0c0,.4,0,.6-.1.8,0,0-.1.1-.1.2,0,0,0,0-.1,0s-.1,0-.2,0-.1,0-.2,0c0,0,0,0,0,0s0,0,0,0c-.1,0-.2,0-.4,0-.1,0-.2,0-.3,0-.2,0-.4-.1-.6-.1h-.2c0,0-.1,0-.2,0h-.1s-.6,0-.6,0c0,0-.1,0-.2,0,0,0-.2,0-.2,0s-.2,0-.2,0c0,0,0,0-.1,0s0,0-.1,0h0s0,0-.1,0c-.1,0-.2,0-.2,0,0,0-.1,0-.3,0h-.2c0,0-.1,0-.2,0,0,0-.1,0-.2,0,0,0-.1,0-.1,0s0,0-.1,0c-.1,0-.3,0-.4,0,0,0,0,0-.1,0s0,0-.1,0c0,0,0,0,0,0,0,0,0,0,0,0,0,0,0,0-.1,0,0,0,0,0,0,0s0,0,0,0h-.2c0,0-.1,0-.2,0,0,0-.1,0-.2,0h0ZM16.6,296.5c-.1,0-.3,0-.4,0s-.3,0-.4-.2c0,0,0,0,0,0,0,0,0,0,0,0,0,0-.1,0-.2-.1,0,0-.1-.1-.2-.1l-.3-.3h0c0-.1,0-.2,0-.2,0,0,0,0,0-.1s0,0,0-.1c0,0,0-.1.2-.2,0,0,.1,0,.1-.1,0-.1,0-.2.2-.3,0,0,.2-.1.3-.2.1,0,.3-.1.5-.1h.1s0,0,.1,0h.1s0,0,.1,0c.1,0,.3,0,.4,0s.3,0,.4-.1h.4c0-.1.6-.4.6-.4.2,0,.3-.1.4-.2.1,0,.2,0,.3-.1h.3c0-.2.2-.2.2-.3s.1-.1.2-.2c0,0,.1-.2.2-.2,0-.1.1-.3,0-.4,0,0,0-.2,0-.2s0-.1,0-.2,0-.2-.1-.2,0-.2-.1-.3c0,0,0,0,0-.1,0,0-.1-.2-.2-.3s-.1-.2-.2-.3c0,0-.1-.1-.2-.2,0,0-.1,0-.2-.1,0,0-.1,0-.1,0,0,0-.1,0-.1,0,0,0-.1,0-.2,0,0,0-.1,0-.2,0-.2,0-.4,0-.5-.1h-.5c-.2-.1-.3-.2-.5-.2-.2,0-.2-.1-.3-.1h-.1s-.2,0-.4-.1c0,0-.1,0-.2,0s-.1,0-.3,0c0,0,0,0,0-.1s0,0,0-.1c0,0,0-.1,0-.2,0,0,0-.1,0-.2,0,0,0-.1,0-.2,0,0,0,0,0,0,0,0,0,0,0-.1s0,0,0,0c0,0,0-.1,0-.2h0c.1-.4.3-.5.5-.7.2-.2.4-.5.5-.7s.4-.4.5-.6c0-.1.2-.2.2-.3v-.2c.2,0,.2-.1.3-.2,0,0,0,0,0-.1,0,0,0,0,0-.1,0,0,0-.1,0-.2,0,0,0-.1,0-.2,0,0,0,0,0,0h0s0,0,0,0c-.1,0-.2,0-.4,0-.1,0-.2,0-.4,0h-.2c0,0-.1,0-.1,0s0,0-.1,0c-.1,0-.3,0-.4,0s-.3,0-.4,0h0c-.2,0-.4.1-.6.2-.2,0-.4.1-.6.2,0,0-.2,0-.3.1s-.2,0-.3,0c0,0-.1,0-.2,0s-.1,0-.1,0c-.1,0-.3.1-.4.2,0,0,0,0,0,0-.1,0-.2,0-.3,0s-.2,0-.3,0c-.1,0-.2,0-.3-.1,0,0,0,0-.1,0,0,0,0,0,0,0,0,0,0,0,0,0,0,0,0,0,0-.1s0-.1,0-.1,0,0,0-.2c0-.2,0-.4.1-.5,0,0,0-.1.1-.2,0,0,.1-.1.2-.2.2-.1.4-.2.6-.3h.5c.1,0,.2,0,.3,0,0,0,.2,0,.3,0,.2,0,.3,0,.5,0,.2,0,.3,0,.5,0,.2,0,.3,0,.5,0s.3,0,.5,0c.1,0,.2,0,.4,0h.5c.1,0,.2,0,.3-.1s.1,0,.2,0c0,0,.2,0,.2,0s.2,0,.2,0c.1,0,.2,0,.3,0s.2,0,.3,0h.4c0,.1.1.2.1.2s0,0,.1,0c.1,0,.2.2.3.2s.1.2.2.3c.1.2.2.4.1.6,0,.1,0,.3,0,.4s0,.3-.1.4l-.3.6s0,.1,0,.2v.2c0,0-.3.3-.3.3,0,.1-.2.3-.2.4s-.2.3-.3.4h0c0,0,0,.1,0,.2,0,0,.1,0,.1,0,.2,0,.3,0,.5.1.2,0,.3.1.5.1.2,0,.4.1.6.2s.4.2.5.3c.3.2.6.5.8.8.1.1.2.3.3.4s.2.3.3.5l.3.5c.2.4.3.8.3,1.2,0,.1,0,.2,0,.4s0,.2,0,.3c0,0,0,.1,0,.2,0,.1,0,.3-.1.4s-.1.2-.2.4c0,0-.2.2-.2.3s-.1.2-.3.3c0,0,0,0,0,0,0,0-.1.1-.2.1s-.1.1-.2.1c0,0-.1,0-.2.1s-.1,0-.2.1c-.2.1-.4.2-.6.2-.2,0-.4,0-.5,0l-.5.2c0,0-.1,0-.2,0s-.1,0-.2,0c-.1,0-.3.1-.4.1s-.3,0-.4.1-.3.1-.4.2l-.2.2c0,0-.1,0-.1.1,0,0-.2,0-.3,0h0ZM51.4,133.2h-.3c-.1,0-.2,0-.3-.1,0,0,0,0-.1,0-.1,0-.2-.1-.2-.2h0c-.1-.3-.1-.5-.1-.8h0c0-.1,0-.2,0-.2v-.3c0,0,0-.2,0-.3v-.3s0,0,0-.1v-.5c0-.1,0-.3,0-.4,0,0,0,0,0-.1v-.4c0,0,0-.2,0-.2,0,0,0,0,0-.1s0,0,0-.1h0c0-.2,0-.2-.1-.2h-.2c0,0-.1,0-.2,0h-.2c0,0-.2,0-.2,0h-.4c-.1,0-.2,0-.4,0h-.1c-.1,0-.2,0-.4,0-.1,0-.2,0-.4,0,0,0-.1,0-.2,0-.2,0-.4,0-.5.2,0,0-.1,0-.2.1,0,0-.1,0-.2.1,0,0-.1.1-.1.2,0,0,0,.1,0,.2s0,.1,0,.2,0,.2-.1.3c0,0-.1.1-.3.1s-.2,0-.3-.1c0,0,0-.1-.1-.2,0-.1,0-.2,0-.3v-.3c-.1,0-.1-.2-.2-.3v-.2c-.3-.3-.4-.6-.4-.8s0-.2,0-.2v-.2c0,0,.1-.1.1-.2,0,0,0-.1,0-.2,0-.2,0-.5.1-.7,0-.2.1-.5.2-.8s.1-.5.2-.8v-.4c.2-.1.2-.3.2-.4,0-.2.1-.4.2-.6s.1-.4.2-.6c0,0,0,0,0-.1,0-.2.1-.3.2-.5s.1-.3.2-.5h0c0-.2,0-.2,0-.3s0,0,0-.1c0,0,.1-.1.2-.2s.1,0,.2-.1c0,0,.2,0,.3,0s.2,0,.3,0c0,0,.2,0,.2,0s.1,0,.2.1c0,0,.2.1.3.2.2.2.3.5.3.8,0,.2,0,.5-.2.7,0,.1-.1.2-.1.4,0,.1,0,.3-.1.4v.3c-.1.1-.2.2-.2.3,0,0,0,0,0,.1s0,0,0,.1c0,0,0,0,0,0,0,0,0,0,0,0,0,0-.1.2-.1.3,0,0,0,.1,0,.2s0,.1,0,.2c0,0,0,.1,0,.2,0,0,0,.1,0,.2,0,.1-.1.2-.2.4,0,0,0,.2,0,.2s0,.1,0,.2v.5c-.1,0,0,0,0,0h.3c0,0,.1,0,.2,0h.2c0,0,.2,0,.3,0,.1,0,.2,0,.3,0s.2,0,.3,0c0,0,0,0,.1,0h.4c0,0,.2,0,.3,0h.1s0,0,.1,0h.2s0,0,0,0h0c0,0,0,0,0,0v-1.4c0,0,0-.1,0-.2v-.2c0,0,0-.1,0-.2,0,0,0-.1,0-.2,0-.2,0-.5,0-.7,0-.2,0-.5,0-.7,0-.2,0-.4,0-.5,0-.2,0-.4,0-.5,0-.1,0-.2,0-.3,0-.1,0-.2,0-.3,0-.1,0-.2.2-.4,0,0,0-.2.2-.2s.1-.1.2-.2h.1s0,0,0,0,0,0,0,0c0,0,.2,0,.3,0h.4c0,0,0,.1,0,.1,0,0,0,0,0,0h0c0,0,0,.1,0,.2,0,0,0,0,0,.1,0,.1.1.2.1.4h0c0,.1,0,.2,0,.2,0,0,.1.1,0,.2h0c0,.1,0,.2,0,.3s0,.2,0,.3c0,0,0,0,0,0h0s0,0,0,0h0c0,.1,0,.2,0,.2,0,0,0,0,0,0,0,0,0,0,0,0v.2c0,0,0,.1,0,.2,0,0,0,0,0,0h0c0,.1,0,.2,0,.2,0,0,0,0,0,.1v.3c0,.1,0,.2,0,.3v.9c0,0,0,.1,0,.2,0,0,0,.1,0,.2,0,0,0,.1,0,.2v.2c0,0,0,.1,0,.2v.2c0,0,0,.2,0,.2v.4c0,0,0,0,0,.1,0,0,0,0,0,0h.5c0,0,.2,0,.3,0h.6c.2,0,.4,0,.6,0h.4c0,0,.1,0,.1,0,0,0,.2,0,.3.1s.1.1.2.2c0,0,0,0,0,0,0,0,0,.1.1.2s0,.1,0,.2h0c0,.2,0,.3,0,.4,0,0,0,0,0,0s0,0,0,0c0,0,0,0,0,.1,0,0,0,0,0,0s0,0,0,0c0,0,0,0,0,0s0,0,0,0c0,0-.1,0-.2.1,0,0,0,0,0,0s0,0,0,0c0,0,0,0,0,0,0,0,0,0-.1,0h0c0,.2-.1.2-.2.3,0,0-.2,0-.3,0h-.3c-.1,0-.3,0-.5,0h-.5c0,0-.2,0-.2,0s-.1,0-.2,0c0,0,0,0-.1,0,0,0,0,0-.1,0,0,0,0,0-.1,0h-.1s0,0-.1.1h0c0,.1,0,.2-.1.2h0s0,.1,0,.2,0,.1,0,.1c0,0,0,0,0,.1,0,0,0,0,0,0s0,0,0,0c0,0,0,0,0,0,0,0,0,0,0,0,0,0,0,.1,0,.2h0c0,.2,0,.2,0,.3h0s0,.1,0,.1c0,0,0,0,0,0s0,0,0,0v.4s0,0,0,0c0,0,0,0,0,0,0,0,0,.1.1.2s0,.1,0,.2,0,0,0,0h0s0,0,0,0c0,0,0,0,0,0s0,0,0,0c0,.1,0,.2,0,.3,0,0,0,0,0,0,0,0,0,0,0,0,0,0,0,0,0,0,0,0,0,0,0,.1,0,.1,0,.2,0,.3,0,.1,0,.2,0,.3v.2s0,0,0,0c0,0,0,0-.1,0,0,0,0,0,0,0h0c0,0,0,0-.1.1,0,0,0,0,0,0s0,0,0,0c0,0,0,0-.1.1h-.1s0,0,0,0,0,0,0,0h0s0,0,0,0c0,0-.1,0-.1,0h0ZM52.2,132.6s0,0,0,0c0,0,0,0,0,0h0ZM109.4,38.8s0,0,0,0c0,0,0,0,0,0s0,0,0,0c0,0-.2,0-.2-.1,0,0-.1-.1-.2-.2,0,0,0,0,0,0,0,0-.1-.1-.2-.2,0,0,0-.2,0-.3v-.3c0-.2,0-.3.2-.4.2-.2.4-.3.7-.3,0,0,.1,0,.2,0,0,0,.1,0,.2,0,0,0,.2,0,.2,0s.2,0,.2,0c.2,0,.4-.1.6-.2.2,0,.4-.1.6-.2.3-.2.6-.3,1-.4s.6-.3.9-.5c.1,0,.3-.1.4-.2s.2-.1.4-.2c.3-.2.5-.4.7-.7.1-.2.2-.4.1-.7,0,0,0-.1,0-.2,0,0,0-.1,0-.2,0-.1-.1-.2-.2-.3,0-.1-.1-.2-.2-.3,0,0-.1-.1-.1-.2,0,0,0-.1-.1-.2,0,0,0-.1-.1-.2h-.1c0-.2,0-.2-.1-.2,0,0,0,0-.1,0-.1,0-.2,0-.3,0s-.2,0-.4,0h-.4c-.1,0-.3,0-.4,0h-.1c-.1,0-.3,0-.4,0-.1,0-.3,0-.4,0-.1,0-.2,0-.4,0s-.2,0-.4,0c0,0-.1,0-.2,0s-.1,0-.2,0h0s0,0,0,0,0,0,0,0c0,0-.2,0-.2.2,0,0,0,0,0,0,0,0-.1,0-.2,0s-.1,0-.2,0c0,0,0,0,0,0,0,0,0,0,0,0,0,0,0,0,0,0,0,0,0,0,0,0h0s0,0,0,0c0,0,0,0-.1,0s0,0-.1,0c-.2.1-.3.3-.4.5v.2c-.1.1-.2.2-.3.2s-.2,0-.3,0c0,0-.1-.1-.1-.2,0,0,0-.1,0-.2s0-.1,0-.2c0-.2,0-.3-.1-.4,0-.2-.1-.3-.1-.5,0-.2,0-.3,0-.5,0,0,0-.1,0-.2v-.2c0,0,0-.1,0-.2v-.2c0,0,0-.1,0-.2v-.2c0-.7,0-1.4,0-2.1h0c0-.3,0-.5,0-.7v-.3c0-.1,0-.2,0-.3,0-.1,0-.2,0-.3s0-.2,0-.3c0,0,0-.2,0-.3v-.4c0,0,0-.1,0-.2,0,0,0,0,0-.1.1-.2.3-.3.5-.4.2,0,.4,0,.6,0,.1,0,.3,0,.5,0,0,0,.2,0,.3,0s.2,0,.3,0h1.2c0,0,.1,0,.1,0h.1c.1,0,.3,0,.4,0s.3,0,.4,0c0,0,.1,0,.2,0h.2c.1,0,.3,0,.4,0h.4c.2,0,.4,0,.5,0s.4,0,.5,0c0,0,.1,0,.1,0s0,0,.1,0h.1c0,0,0,0,0,.1,0,0,0,0,0,0,0,0,0,.1.1.2,0,0,0,.1.1.2,0,0,0,0,0,0h0c0,0,0,.1,0,.1,0,0,0,0,0,.1s0,0,0,0h0c0,0,0,.2,0,.2,0,0,0,0,0,0,0,0,0,0-.1.2,0,0-.1.2-.3.3,0,0-.1,0-.2.1,0,0-.1.1-.2.1-.1,0-.2,0-.3,0h-.2s-.2,0-.2,0c-.1,0-.2,0-.4,0s-.2,0-.4,0c-.1,0-.3,0-.4,0h-.4c-.1,0-.3,0-.4,0h-.2c0,0-.1,0-.2,0,0,0,0,0,0,0,0,0,0,0,0,0,0,0-.1,0-.1,0,0,0,0,0,0,0h0c0,0,0,0,0,0s0,0,0,0h-.5c0,0-.2,0-.2,0s-.2,0-.2,0c0,0-.2,0-.3,0,0,0,0,0,0,0,0,0,0,0,0,0,0,0,0,0,0,.1,0,.2,0,.4,0,.6s0,.4,0,.6,0,.3,0,.4c0,.2,0,.3,0,.4v1.2s0,0,0,0c0,0,0,0,0,0,0,0,0,0,0,0h0c.2,0,.3,0,.5,0s.3,0,.5,0c0,0,.2,0,.3,0,0,0,.2,0,.3,0,.1,0,.2,0,.3,0h.3s.2,0,.2,0c0,0,.2,0,.2,0,.3,0,.6,0,1,0,.1,0,.3,0,.4,0,.1,0,.2,0,.4,0,.2,0,.5.2.7.3l.5.4c.1,0,.2.1.3.2.1.1.3.3.4.4s.2.3.3.4c0,0,0,.1.1.2.2.3.4.6.4,1,0,.2,0,.4,0,.6,0,.1,0,.3,0,.4,0,.1,0,.3,0,.4v.4c-.2.3-.4.5-.6.8,0,0-.1.1-.2.2,0,0-.1.1-.2.2,0,0,0,0-.2.1,0,0-.1,0-.2.2,0,0-.1.1-.2.2s-.2.1-.3.1h-.1c0,0,0,.1,0,.1,0,0-.2,0-.2.1s-.1,0-.2.2h-.2c-.1.2-.2.2-.4.3-.1,0-.2.1-.4.2l-.9.4s0,0,0,0,0,0,0,0c0,0-.1,0-.2,0,0,0-.1,0-.2,0,0,0,0,0-.1,0s0,0-.1,0c-.2,0-.4.1-.5.2-.2,0-.4.1-.5.2h0s0,0-.1,0,0,0-.1,0-.1,0-.2,0c0,0-.1,0-.1,0s-.1,0-.1,0h0ZM253.7,14.7c-.2,0-.4,0-.6-.2-.2,0-.4-.1-.6-.2,0,0-.2-.1-.3-.2s-.2-.1-.3-.2l-.6-.4s0,0-.1,0,0,0-.1,0h-.1c0-.1,0-.2-.1-.2,0,0,0,0-.1,0,0,0-.1,0-.2,0s-.1,0-.2,0c-.1,0-.3-.1-.4-.2s-.2-.2-.4-.2c-.5-.4-.9-.8-1.2-1.2,0,0,0,0-.1-.1l-.2-.4c0-.1-.1-.2-.2-.4l-.3-.6c0-.2-.2-.3-.2-.5s-.1-.3-.2-.5c0,0,0,0,0-.1s0,0,0-.1c0-.1,0-.2-.1-.4,0,0,0,0,0-.1s0,0,0-.1c0,0,0,0,0,0h0c0-.1,0-.1,0-.1s0,0,0,0c0,0,0,0,0,0h0s0,0,0,0c0,0,0,0,0-.1h0c0-.2,0-.4,0-.5,0-.1,0-.3,0-.4,0,0,0-.2,0-.2,0,0,0-.2,0-.3,0,0,0,0,0-.1h0c0-.1,0-.1,0-.2,0-.1,0-.2,0-.3,0,0,0-.1,0-.2,0,0,0-.2,0-.2,0,0,0,0,0,0,.1-.2.2-.3.2-.5s0,0,0-.2c0,0,0,0,0-.2s0,0,0-.2c0-.1,0-.2.1-.2,0,0,0,0,.1,0h0c0-.2,0-.4,0-.5,0-.1,0-.3.1-.4,0-.2.1-.3.3-.4l.2-.2c.1,0,.2-.2.2-.3,0,0,0,0,.1-.1,0,0,0,0,.1-.1s0,0,0-.1c0-.1.1-.2.3-.3.1,0,.2,0,.3-.2.1,0,.2-.1.3-.2h.2c.1-.1.2-.2.4-.3s.2-.1.4-.2c0,0,0,0,.1,0,0,0,.1,0,.1,0s.1,0,.1,0,.1,0,.1,0,.1,0,.2,0c0,0,.1,0,.2,0h.2c0,0,.1,0,.2,0,.1,0,.2,0,.3,0,0,0,.1,0,.2,0,0,0,.1,0,.2.1.1,0,.2.1.3.3.2.3.2.6,0,.8,0,0,0,0-.1,0-.1,0-.2.1-.3.2-.1,0-.2.1-.3.2h-.1c-.1.1-.3.2-.5.3,0,0-.1,0-.2.1s-.1,0-.2.1c-.2.1-.4.3-.6.5-.4.4-.8.9-1,1.4,0,.1-.1.3-.2.4s-.1.2-.2.4h0s0,0,0,0c0,.2,0,.3-.1.5s-.1.3-.1.5v.2c-.1.2-.1.4-.1.7s0,.4,0,.7v.4c.1.2.1.4.2.6s.1.4.2.5c0,0,0,0,0,.2,0,0,0,0,0,.1,0,0,.1.2.2.3s.1.2.2.3c0,0,0,0,0,0h0s0-.4,0-.4c0-.1,0-.2,0-.3s0-.2,0-.3c0,0,0,0,0-.1s0,0,0-.1l.2-.4c0-.1.1-.2.2-.3,0-.1.1-.2.2-.3s.2-.2.2-.3l.4-.4c0,0,.2-.2.3-.2s.2-.1.3-.2l.4-.2c.1,0,.2,0,.4-.1s.3-.1.4-.2c0,0,.2-.2.3-.2,0,0,0,0,.1,0s0,0,0,0c.1,0,.2,0,.3,0,.1,0,.2,0,.3,0,0,0,.2,0,.3,0s.2,0,.3,0c.2,0,.5.2.7.4l.4.4s0,0,0,0c0,0,0,.1.1.2s0,.1.1.2h0c0,.2.1.2.2.3s0,.2.1.2c0,0,0,0,0,0,0,0,0,.1,0,.2s0,.1,0,.2c0,.1,0,.2.1.3,0,0,0,.2,0,.3,0,0,0,.1,0,.2,0,0,0,0,0,.1,0,.1,0,.3,0,.4v1.2c0,.2,0,.3.1.4,0,0,0,0,0,0,0,0,.1.1.1.2,0,0,0,.2,0,.3,0,.1,0,.3,0,.4s0,.2-.1.4c0,.2-.2.3-.4.5,0,0-.2.2-.2.3s-.2.2-.2.3l-.6.7c-.1.2-.2.3-.3.5,0,0,0,0,0,.1h0s0,0,0,0c0,0,0,.1-.1.2s-.1,0-.2,0c0,0-.2,0-.3,0s-.2,0-.3,0c-.2,0-.4,0-.6,0h0ZM253.8,12.9c0,0,.1,0,.2,0,0,0,.1,0,.1-.1h.1c.2-.3.3-.4.5-.6s.3-.3.5-.5c0,0,0,0,.1-.1,0,0,0-.1,0-.2,0,0,0,0,0-.1s0,0,0,0c0-.2,0-.4,0-.5s0-.3.1-.5v-.5c.1,0,.1,0,.1,0v-.4c0-.1,0-.2,0-.3s0-.2-.1-.3c0-.1-.1-.3-.2-.4,0-.1-.1-.2-.2-.4,0,0,0,0,0,0s0,0,0,0,0,0,0,0h-.2c0,0-.1,0-.2,0h-.2c-.1.2-.3.2-.4.2-.1,0-.3,0-.4,0-.1,0-.2,0-.4.2,0,0,0,0,0,0s0,0,0,0c-.2,0-.3.1-.4.2s-.3.2-.4.3c0,0-.1.1-.2.2s-.1.2-.1.2c0,.1-.1.2-.1.4s0,.2,0,.3v.2c0,0,0,.1,0,.2v.2c.1.3.3.6.4.9,0,0,0,.1.1.2s0,.1.1.2c0,0,0,0,0,0,0,0,0,0,0,0,0,0,0,0,.1.2s0,0,.1.2c.1.1.2.2.4.4.2.2.5.3.8.4h0ZM326,121.9c0,0-.2,0-.2,0,0,0,0,0-.1,0,0,0,0,0,0,0h-.2c0-.2,0-.2-.2-.3,0,0-.1,0-.1-.2,0-.1,0-.2-.1-.4,0-.2,0-.4,0-.6,0,0,0,0,0,0,0-.1.1-.2.2-.3s0-.2,0-.3c0-.2,0-.4.2-.6,0-.2,0-.4.1-.5,0-.1,0-.3,0-.4s0-.3,0-.4c0-.1,0-.2,0-.4s0-.2,0-.4c0,0,0-.1,0-.2v-.2c0,0,0-.1,0-.2,0,0,0-.1-.1-.1h-.2c0,0-.2,0-.2.1s-.2,0-.2,0c0,0-.2,0-.3.1s-.2.1-.3.2c0,0,0,0-.1,0-.2.1-.4.1-.5,0-.2-.2-.4-.4-.5-.6,0,0,0-.1,0-.1,0,0,0-.1,0-.1-.1-.3,0-.5,0-.8,0-.1.2-.2.2-.3,0,0,0,0,0,0,0,0,0,0,0,0,0,0,0,0,0,0,0,0,.1-.1.2-.1.1,0,.2,0,.4,0s.2,0,.4,0h.1c.1,0,.3,0,.4,0s.3,0,.4,0h.2c0,0,.1,0,.2,0,0,0,.2,0,.2,0,0,0,.1,0,.1-.1,0,0,0,0,0-.1,0-.2,0-.4.1-.5l.2-.5c0,0,0-.1,0-.2,0,0,0-.1,0-.2,0-.1,0-.2,0-.3.1-.2.2-.5.2-.7,0,0,0-.1,0-.2s0-.1,0-.2l.2-.7s0,0,0,0,0,0,0,0c0,0,0,0,0,0-.1,0-.3,0-.4.1s-.2,0-.4.1h-.2c-.1,0-.3.1-.4.2s-.3.1-.4.2c0,0-.1,0-.2,0s-.1,0-.2,0c0,0,0,0-.1,0s0,0,0,0c0,0-.2.1-.3.2l-.2.2c0,0-.1.1-.2.2,0,0-.1.2-.2.3-.1.1-.2.2-.3.2-.1,0-.3,0-.4.1s-.3,0-.4,0c0,0,0,0-.1,0s0,0-.1,0c0,0-.2,0-.2-.2,0,0,0-.1-.1-.1,0-.1-.1-.2-.2-.3,0,0,0,0,0,0s0,0,0,0c0,0,0-.2,0-.3,0,0,0-.2,0-.3,0-.2.2-.4.4-.6h.1c0,0,.2-.2.2-.2,0,0,0,0,.2,0,.1,0,.2,0,.4,0,.3,0,.6,0,.9-.1,0,0,.1,0,.2,0s.1,0,.2,0,.1,0,.2,0c0,0,.1,0,.2,0,.2,0,.4-.2.6-.2.2,0,.4-.2.6-.2,0,0,0,0,.1,0,0,0,0,0,0-.1,0,0,0,0,0-.1.1,0,.3-.1.4-.2.1,0,.3-.1.4-.2,0,0,0,0,0,0s0,0,0,0c0,0,0,0,.1,0s0,0,0,0h.1c0-.2,0-.2.1-.3.2-.2.5-.3.9-.3.2,0,.3,0,.4.2.1,0,.2.2.3.3,0,0,0,.2.1.3s0,.2.1.3c0,.1.1.3,0,.5,0,.1,0,.2,0,.3s0,.2,0,.3c0,0,0,.1,0,.2s0,.1-.1.2c0,0,0,0,0,.2,0,0,0,.1,0,.2,0,0,0,.1-.1.2,0,0,0,0,0,.1,0,0,0,.1,0,.2,0,0,0,0,0,.1,0,0,0,0,0,0,0,0,0,0,0,0,0,0,0,0,0,0,0,0,0,.1,0,.1h0c0,.2,0,.2,0,.3,0,0,0,.1,0,.2,0,0,0,.1,0,.1s0,0-.2.1h0c0,0-.1.2,0,.3,0,0,0,.1,0,.1s0,0,0,.1c0,0,0,.1,0,.2,0,0,0,.1,0,.2h0c0,0,0,.1,0,.2,0,0,0,0,0,.1,0,0,0,0,0,.1,0,0,0,0,0,0,0,0,0,0,0,0,0,0,0,0,0,0s0,0,.1,0c0,0,0,0,0,0,0,0,0,0,0,0,0,0,.2,0,.2,0s.2,0,.2,0c0,0,.2,0,.2.2,0,0,0,0,0,.1,0,0,.2.2.2.3,0,0,0,0,0,.1,0,0,0,0,0,.1,0,0,0,.1,0,.2,0,0,0,.1,0,.2,0,0,0,0,0,0,0,0,0,0,0,0,0,0,0,0,0,0h0c0,.1,0,.2,0,.2,0,0,0,0,0,0,0,0-.2.1-.3,0,0,0,0,0-.1,0,0,0-.1.1-.2.2,0,0-.1.1-.3.1,0,0,0,0-.2,0,0,0,0,0-.2,0-.1,0-.3,0-.4,0s0,0,0,0c0,0,0,0,0,0v.2s0,.2,0,.2c0,0,0,.1,0,.2v.2c0,0,0,.1,0,.2h0c0,.1,0,.2,0,.3h0v.3s0,0,0,0c0,0,0,0,0,.1h0c0,.2,0,.2,0,.3,0,0,0,.1,0,.2,0,0,0,0,0,.1h0c0,0-.1.5-.1.5,0,0,0,0,0,.1,0,0,0,.2,0,.3s0,.2,0,.3c0,0,0,0,0,.1,0,0,0,0,0,.1,0,0,0,0,0,0,0,0,0,.2,0,.3,0,0,0,.2,0,.3,0,0,0,.1,0,.2,0,0,0,.1,0,.2,0,0,0,.1,0,.2h0c0,.2,0,.2-.1.3s-.1,0-.2.1c0,0,0,0,0,0,0,0,0,0,0,0,0,0-.1,0-.2.1,0,0-.1,0-.2,0h0ZM351.5,275.1h0s-.2,0-.2,0c0,0-.2,0-.3,0,0,0-.2,0-.2-.1s-.1,0-.2-.1c0,0-.2,0-.2-.1-.1-.1-.3-.2-.4-.3s-.2-.2-.3-.4c0,0,0,0,0,0s0,0,0-.1l-.4-.6s0,0,0-.1l-.2-.5s0,0,0-.1c0-.1,0-.3,0-.4s0-.3,0-.4v-1.2c-.2-.2-.2-.4-.1-.6,0-.4.2-.8.4-1.1.1-.2.3-.4.5-.6,0,0,0,0,0-.1,0,0,0,0,0-.1.1-.2.3-.4.5-.5h.2c0-.2,0-.2.2-.3l.4-.4c.1,0,.2-.2.2-.3,0,0,0-.1,0-.2,0,0-.2-.2-.2-.2s-.2-.1-.2-.2c0,0,0,0-.1-.1h-.2c-.2-.2-.4-.4-.6-.5h0c0-.2-.2-.3-.3-.4,0-.1-.1-.3-.2-.4,0,0,0,0,0,0s0,0,0,0c0-.2,0-.4,0-.6s.2-.4.3-.5c.1-.1.2-.2.3-.3s.2-.2.3-.2c.1,0,.3-.1.4-.2s.3-.1.4-.2c.2,0,.5-.2.8-.3s.5-.2.8-.2h.3c.1-.1.2-.1.3-.2.1,0,.3,0,.4,0,.1,0,.3,0,.4,0,.1,0,.3,0,.4,0h.3c.2.2.4.3.5.5.1.2.2.3.3.4.1.2.2.4.2.7h0c0,.2,0,.3,0,.4h.2c.4.4.5.9.4,1.4,0,0,0,.2-.1.2,0,0-.1.1-.2.2-.1,0-.2.1-.3.2s-.2.2-.3.3c0,0-.1.1-.2.2s-.1.1-.2.2c0,0-.1.2-.2.2s-.2.1-.3.2c0,0,0,.1,0,.2,0,0,0,.1,0,.2,0,0,0,0,0,0,0,0,0,0,0,0,0,0,0,0,0,.1,0,0,0,0,0,0h0s.2.2.2.2c.3.2.5.4.7.7v.2c.3.2.3.4.4.6,0,.1,0,.3,0,.4s0,.3,0,.4h0c0,.4,0,.8,0,1.2v.5c0,0,0,0,0,.1s0,0,0,.1l-.2.5c0,.1,0,.2-.1.3h0c0,.2,0,.3-.1.4,0,0-.1.2-.2.2-.2.4-.5.7-.8,1.1,0,0,0,.1-.2.2,0,0,0,.1-.2.2,0,0-.2.2-.3.2-.2,0-.3.1-.5.2-.2,0-.3,0-.5.1,0,0-.1,0-.2,0s-.1,0-.2,0c0,0,0,0-.1,0,0,0,0,0-.1,0s-.1,0-.2,0h-.2ZM352.3,273c.2,0,.3,0,.4-.2h0c.1-.1.2-.3.4-.4s.2-.3.4-.4h0c0-.2.2-.3.2-.4s.1-.2.2-.4c0-.2,0-.3.1-.5,0-.2,0-.3,0-.5v-.3c0,0,0-.2,0-.3,0-.2,0-.3-.2-.5,0-.1-.2-.3-.4-.4h0c-.1,0-.2-.2-.3-.2s-.2-.2-.3-.3h0c0-.1-.2-.2-.3-.2,0,0,0,0,0,0,0,0,0,0,0,0s0,0,0,0c0,0,0,0-.1.1s0,0-.1.1c0,0-.2.1-.2.1s-.1.1-.2.2-.1,0-.2.1c0,0,0,0,0,0,0,0,0,0,0,0,0,0,0,.1,0,.2,0,0,0,0,0,.1,0,0-.1,0-.2.1,0,0,0,.1,0,.1,0,0,0,0,0,.1,0,0,0,0,0,.1s0,0,0,0c0,0,0,0,0,0,0,.1,0,.2,0,.3,0,0,0,.1,0,.2,0,0,0,0,0,.1,0,0,0,0,0,.1s0,.1,0,.2c0,0,0,0,0,0s0,0,0,0h0c0,0,0,.1,0,.1h0c0,.2,0,.3,0,.4,0,.1,0,.2,0,.3h0c0,.2,0,.2,0,.3,0,0,0,0,0,.1,0,0,.1.2.2.2,0,.1.2.2.3.3,0,0,0,0,.1,0,0,0,0,0,.1,0s0,0,.1,0h.2c0,0,.1,0,.2,0,0,0,.1,0,.2,0h0ZM352.9,265.2c0,0,.2,0,.2,0l.3-.2c0,0,0-.1,0-.2v-.2c0,0-.2-.2-.2-.2,0,0,0-.1-.2-.2,0,0-.1-.2-.2-.3,0-.1-.1-.2-.2-.3,0,0-.1,0-.2,0,0,0-.1,0-.2,0-.1,0-.2,0-.3,0,0,0-.1,0-.2,0,0,0-.1,0-.2,0s0,0-.1,0c0,0,0,0,0,.1h0s0,0,0,0c.3.2.5.3.7.5,0,0,.1.1.2.2s.1.1.2.2c0,0,.1.1.2.2,0,0,0,0,0,0h0ZM353,412s0,0-.2,0c0,0,0,0-.1,0-.1,0-.2-.1-.2-.1,0,0-.1-.1-.2-.2s0-.2-.1-.2h0c0-.1,0-.3,0-.4s0-.2,0-.4c0,0,0,0,0,0v-.3c0,0,0-.2,0-.3,0-.1,0-.2,0-.4,0-.1,0-.2,0-.4h0c0-.1,0-.4,0-.4v-.3c0-.1,0-.2,0-.4v-.4c0-.2.1-.5.2-.7v-.7c.1,0,.1-.3.1-.3,0,0,0-.1,0-.2,0,0,0-.1,0-.1,0,0,0,0,0,0,0,0,0-.1,0-.2,0,0,0-.1,0-.2,0-.1,0-.3,0-.5,0,0,0,0,0,0h0c-.1,0-.3.1-.4.2-.1,0-.3.1-.4.2-.3.1-.6.2-.8.3s-.6.1-.9.2h-.8c-.3.2-.5.1-.8,0,0,0,0,0,0,0,0,0,0,0,0,0,0,0-.1,0-.2-.1,0,0-.1,0-.2-.1,0,0,0,0,0-.1,0,0,0,0,0,0s0,0,0-.1c0,0,0-.1,0-.2,0,0,0-.1,0-.2,0,0,0,0,0-.1,0,0-.1,0-.2-.1,0,0-.1-.1-.2-.2,0,0-.1-.2-.2-.2,0,0-.1-.2-.2-.2,0,0,0,0,0-.1,0,0,0-.1,0-.1,0-.1,0-.2,0-.3s0-.2,0-.3l-.2-.5c0-.1,0-.2,0-.3,0-.1,0-.2,0-.4h0c0-.2,0-.3,0-.5s0-.2.1-.4c0-.1.1-.2.2-.3s.1-.2.2-.3c0-.1.2-.3.3-.4,0-.1.2-.3.2-.4l.2-.2c0,0,0-.1.2-.2,0,0,0,0,0,0,0,0,0,0,0,0,0,0,0,0,0,0,0,0,.1,0,.1,0l.3-.2c0,0,.1,0,.2-.1s.1,0,.2,0c.1,0,.3,0,.4,0s.3,0,.4,0h.3c0,0,.2,0,.3,0,.2,0,.4,0,.5,0s.3,0,.5.2c.2,0,.5.2.7.3s.4.2.7.3c0,0,0,0,0,0s0,0,0,0,0,0,0,0c0,0,0,0,0,0,0,0,0,0,0,0,0-.1,0-.2,0-.3,0-.1,0-.2,0-.3,0,0,0-.1.1-.2,0,0,.1,0,.2,0s0,0,.1-.1c0,0,0,0,0-.1.2,0,.4-.1.5-.1,0,0,0,0,0,0,.2,0,.4.2.5.4,0,0,0,0,0,0,0,0,0,0,0,0,0,.2,0,.3,0,.5v4.7s0,0,0,.1c0,.1,0,.3,0,.4s0,.3,0,.4v.4c0,.1,0,.3,0,.4v.8c0,0,0,.3,0,.3,0,0,0,.2,0,.3,0,.2,0,.3,0,.5,0,.2,0,.3,0,.5,0,0,0,0,0,.1h0c0,.2,0,.3,0,.4s0,.2,0,.2v.2s0,.3,0,.3c0,0,0,0,0,.1v.6c0,0-.2.6-.2.6,0,0,0,.1,0,.2,0,0,0,.1,0,.2v.3c-.1.1-.2.2-.3.3,0,0-.1,0-.1.1,0,0,0,.1-.1.1s0,0-.2.1h0s0,0,0,0c0,0,0,0,0,0h0ZM349.8,403.7c.1,0,.2,0,.3,0h.5s.1,0,.2,0,.1,0,.2,0c.1,0,.2,0,.3,0,0,0,0,0,.2,0,0,0,0,0,.2,0,0,0,.1,0,.2-.1s.2,0,.2-.1c.2,0,.3-.2.3-.5h0c0-.2,0-.2,0-.3v-.3c0-.1,0-.3,0-.4s0-.2,0-.4c0-.1-.1-.3-.2-.4s-.2-.2-.4-.3h-.1c-.2-.1-.3-.2-.5-.3s-.3-.1-.5-.2c0,0-.2,0-.3,0,0,0-.2,0-.3,0,0,0-.2,0-.3,0,0,0-.2,0-.3,0-.2,0-.3.1-.4.3v.2c0,0-.1,0-.1.1,0,0,0,0,0,0,0,0-.1.1-.2.2,0,0,0,.1-.1.2s0,.1-.1.2c0,0,0,.1,0,.2,0,0,0,.1,0,.1v.3c.1.1.2.2.2.3,0,.1,0,.2,0,.3s0,.1.2.2h.1c.1.2.2.3.3.4,0,0,0,.1.1.1s.1,0,.2.1c0,0,.1,0,.2,0h0ZM596.6,434.8c0,0-.2,0-.3,0,0,0-.2,0-.3,0,0,0,0,0-.1,0,0,0,0,0-.1,0,0,0-.2-.1-.2-.2,0-.1,0-.2-.1-.3s0-.2,0-.3v-.2c0,0,0-.1,0-.2,0-.2,0-.3,0-.5,0-.2,0-.3,0-.5,0,0,0-.1,0-.2h0c0-.2,0-.3,0-.4,0,0,0-.2,0-.3,0-.2,0-.4,0-.6v-.4c0-.1,0-.2-.1-.3s0-.2,0-.3v-.5s0-.5,0-.5c0,0,0-.2,0-.3v-.2c0,0,0-.1,0-.2,0,0,0-.1,0-.2v-.5c0-.1,0-.2,0-.3,0,0,0-.1,0-.1s0,0,0-.1h0c0-.1,0-.4,0-.4,0,0,0-.1,0-.2,0-.1,0-.3,0-.4s0-.3,0-.4,0-.1,0-.2c0,0,0-.2,0-.3v-.2c.2,0,.2-.2.3-.2s.1-.1.2-.2c0,0,.2,0,.2,0h.2c0,0,.2,0,.2.1.2,0,.3.2.3.4v.2c.1,0,.2.1.2.2,0,0,0,.1,0,.2,0,.1,0,.2,0,.4,0,.2,0,.3,0,.5,0,0,0,.1,0,.2,0,0,0,.1,0,.2v.2c0,0,0,.1,0,.2,0,0,0,0,0,.1h0c0,.1,0,.2,0,.2s0,0,0,.1c0,.1,0,.2,0,.4,0,.1,0,.2,0,.4v.2h0c0,.2,0,.2,0,.3v.2c0,.1,0,.3,0,.4,0,.1,0,.3,0,.4,0,0,0,0,0,.1,0,0,0,0,0,.1,0,0,0,.1,0,.2s0,0,0,.1c0,0,0,.1,0,.2,0,0,0,.1,0,.2v.5s0,.4,0,.4c0,.1,0,.2,0,.4s0,.2,0,.4c0,0,0,0,0,0h0c0,.1,0,.2,0,.3v.2c0,0,0,.2,0,.3,0,0,0,.2,0,.3,0,.2,0,.3,0,.4,0,0,0,0,0,.1,0,0,0,0,0,0,0,0,0,.1,0,.2-.1.2-.3.3-.5.5h-.1c0,0,0,0,0,0ZM604,435.7c-.1,0-.3,0-.4,0s-.3,0-.4,0c-.3,0-.7-.1-.9-.2h-.2c-.1-.1-.2-.1-.3-.2s-.2,0-.3-.1c0,0-.2-.1-.3-.1s-.2,0-.3-.1h0c0-.1-.2-.2-.3-.2s-.2,0-.3-.1c-.1,0-.2-.1-.3-.2,0,0-.2-.1-.3-.2,0,0,0,0,0,0,0-.1-.1-.2-.2-.3s-.1-.2-.2-.3v-.3c-.2,0-.2-.1-.2-.2s0-.1,0-.2c0-.1,0-.3,0-.4v-.3c0,0,0-.2,0-.3,0,0,0-.1,0-.2,0,0,0-.1,0-.2v-.2c0,0,0-.1,0-.2,0,0,0-.1,0-.2,0,0,0,0,0,0s0,0,0,0c0,0,0,0,0-.1s0,0,0-.1c0-.1,0-.3,0-.4,0,0,0,0,0,0,0,0,0,0,0,0v-.2c0-.1,0-.2.1-.3s0-.2.1-.3c0,0,0-.1,0-.2,0,0,0,0,0,0s0,0,0,0c0,0,0-.2,0-.2,0,0,0,0,.2-.1,0,0,0,0,0,0,0,0,0,0,0,0h0c0-.1,0-.2,0-.3s0-.1,0-.2c0-.2,0-.3.2-.5,0,0,.1-.1.1-.2,0,0,0,0,0,0,0,0,0,0,0,0,.1-.1.2-.3.2-.5,0-.1.1-.3.2-.5,0,0,0,0,0,0,0,0,0-.2.2-.2,0,0,0,0,0,0s0,0,0,0c0,0,.1-.1,0-.2,0,0,0,0,0-.1s0,0,0-.1c0-.1,0-.2,0-.2h.1c0,0,.1-.1.2-.2s0,0,0-.1c0,0,0,0,0,0,0,0,0,0,0,0,0-.1,0-.2.2-.3,0,0,0,0,0-.1,0,0-.1-.1-.2-.2,0,0-.1-.1-.2-.2,0,0,0,0-.2-.1,0,0,0-.1-.1-.2,0,0,0,0,0,0v-.4s0,0,0-.1c0,0,0-.1,0-.1s0,0,0-.1c0,0,0,0,0,0,0,0,0,0,0,0,0,0,0,0,.1,0,0,0,.1,0,.1-.1,0,0,0,0,0,0,0,0,.2,0,.2,0,0,0,.2,0,.2,0s.2,0,.2,0c.1,0,.2.1.3.1s.2,0,.3.1h.2c0,0,.2,0,.2,0,0,0,0-.1.2-.1s0,0,.1-.1c.1-.1.2-.2.4-.2,0,0,0,0,0,0h.3c.1,0,.2,0,.3,0s.2,0,.3.1c0,0,0,0,0,0,0,0,0,.1.2.1,0,0,.1,0,.2,0,0,0,0,0,.2,0s.2,0,.2.1c0,0,0,0,0,.1,0,0,0,.1.1.1,0,0,0,0,0,.1s0,0,0,0c0,0,0,.1,0,.2,0,.2-.2.4-.4.5,0,0,0,0-.1,0h-.2s0,0-.2,0c0,0,0,0,0,0,0,0,0,0,0,0s0,0,0,0h0c0,0,0,0,0,0s0,0,0,0c0,0,.2.1.2.2,0,0,.1.1.2.2,0,0,.1.2.2.2s.1.1.2.2c0,0,0,.2.2.2l.2.2.2.3c0,0,.1.2.2.3s.1.2.2.3c.1.2.2.3.3.5,0,.2.2.3.3.5.2.4.3.7.5,1,.1.2.2.5.3.8s.1.5.2.8l.2.8c0,0,0,.2,0,.3,0,0,0,.2,0,.3,0,.2,0,.4-.2.6,0,.2-.2.5-.3.7,0,.2-.1.3-.2.5s-.2.3-.2.5c-.1.2-.2.4-.4.6,0,0,0,.1-.1.2,0,0,0,.1-.1.2,0,0-.1.1-.2.2s-.1.1-.2.2l-.2.2c0,0-.2.1-.3.2s-.2.1-.3.2c-.2,0-.4.2-.6.2-.2,0-.5.1-.8.1h0s0,0,0,0h-.3ZM603.4,433.8h.2c0,0,.1,0,.2,0,0,0,.2,0,.2,0,0,0,.2,0,.2,0s.2,0,.2,0c0,0,.1,0,.2,0,.1,0,.3-.1.5-.2,0,0,.1,0,.2-.1,0-.1.2-.2.4-.3,0,0,0,0,.1-.1,0,0,0-.1.2-.2,0,0,0-.1.1-.2l.2-.5c0-.2.2-.3.2-.5,0-.2.1-.4,0-.5h0c0-.2,0-.3,0-.3,0,0,0-.1,0-.2,0-.2,0-.3-.1-.5v-.5c-.1-.2-.2-.5-.3-.7s-.2-.4-.3-.6c0-.2-.2-.3-.3-.5s-.2-.3-.3-.5c0,0,0-.2-.1-.2,0-.1-.1-.2-.2-.3s-.1-.2-.2-.3l-.5-.7c0-.1-.1-.2-.2-.3s-.2-.2-.2-.2c0,0,0,0,0,0,0,0,0,0,0,0h0s0,.1,0,.1l-.5.7c-.4.5-.7,1.1-1,1.8,0,.2-.2.4-.3.7s-.2.5-.3.7c0,.2-.2.5-.3.8s-.2.5-.2.8c-.1.4-.2.7-.2,1,0,0,0,0,0,.1,0,0,0,.2,0,.3s0,.2,0,.3c0,.2.2.4.3.6l.4.3c.1,0,.2.2.4.3s.3.2.4.2c.2,0,.3.1.5.2s.3,0,.5,0h0ZM605.3,671.1c0,0-.1,0-.2,0,0,0,0,0-.1,0,0,0,0,0-.1,0,0,0,0,0-.1,0s0,0,0-.1c0,0,0,0,0,0,0,0-.1,0-.1-.1,0,0,0-.2,0-.2,0,0,0-.2,0-.2v-.4c0-.1,0-.2,0-.3v-.3s0,0,0-.1c0,0,0-.1,0-.2,0-.2,0-.5,0-.7,0,0,0-.1,0-.2s0-.1,0-.2v-.4c0-.1,0-.3,0-.4v-.6c0,0,0-.2,0-.3v-.4c0-.1,0-.2,0-.4,0,0,0,0,0-.1v-.2s0-.2,0-.2v-1c0,0,0-.3,0-.3v-.3c0-.2,0-.3,0-.5s0-.3,0-.5h0c0-.1,0-.1,0-.1,0-.2,0-.3,0-.5,0-.2,0-.3,0-.5v-.6c0-.2-.1-.5,0-.7,0-.1,0-.2.1-.3,0,0,0,0,0,0s0,0,0,0c0,0,0,0,0-.1s0,0,0,0h0s0,0,0,0h0s0,0,0,0,0,0,0,0c0,0,0,0,0,0,0,0,0,0,0,0,0,0,0,0,0,0,0,0,.1,0,.2,0s.1,0,.2,0c0,0,.1,0,.2.2,0,.1,0,.2.1.3s0,.2,0,.3v.2c0,0,0,.2,0,.3v.6c0,0,0,.2,0,.2h0c0,.1,0,.2,0,.2v.2c0,0,0,.2,0,.3,0,.2,0,.3,0,.5s0,.3,0,.5v.2c0,0,0,.1,0,.2,0,0,0,0,0,.1v.5c0,0,0,.2,0,.2,0,0,0,.2,0,.3v1.2c0,0,0,.4,0,.4v.6c0,0,0,.1,0,.2,0,0,0,0,0,.1h0c0,.1,0,.2,0,.2h0c0,.2,0,.3,0,.4v.7c0,0,0,.1,0,.2v.2c0,0,0,.1,0,.2s0,.1,0,.2c0,0,0,0,0,0,0,.2,0,.3,0,.4,0,.2,0,.3,0,.4,0,0,0,0,0,.1h0c0,.1,0,.2,0,.2,0,0,0,.1-.1.2,0,0,0,0,0,0,0,0-.2,0-.2.2-.1,0-.2.1-.4.1h0ZM610.1,670c0,0-.2,0-.3,0,0,0-.2,0-.3,0,0,0,0,0-.1,0,0,0,0,0-.1,0,0,0-.2-.2-.2-.2,0-.1,0-.2-.1-.3s0-.2,0-.3v-.2c0,0,0-.2,0-.2,0-.2,0-.3,0-.5,0-.2,0-.3,0-.5,0,0,0-.1,0-.2h0c0-.2,0-.3,0-.4,0,0,0-.2,0-.3,0-.2,0-.4,0-.6v-.4c0-.1,0-.2-.1-.3,0-.1,0-.2,0-.3v-.5c0-.2,0-.3,0-.5,0,0,0-.2,0-.3v-.2s0-.2,0-.2c0,0,0-.1,0-.2v-.5c0,0,0-.2,0-.3,0,0,0,0,0-.1v-.5c0,0,0-.1,0-.2,0-.2,0-.3,0-.4,0-.1,0-.3,0-.4s0-.1,0-.2c0,0,0-.2,0-.3v-.2c.2,0,.2-.2.3-.2s.1-.1.2-.2c0,0,.2,0,.2,0h.2c0,0,.2,0,.2.1.2,0,.3.2.3.4v.2c.1,0,.2.1.2.2s0,.2,0,.2c0,.1,0,.2,0,.4,0,.2,0,.3,0,.5,0,0,0,0,0,.2,0,0,0,.1,0,.2s0,.2,0,.2v.2s0,0,0,0h0c0,.1,0,.2,0,.2s0,0,0,.1c0,.1,0,.2,0,.3s0,.2,0,.3,0,0,0,0,0,0,0,0h0c0,.2,0,.2,0,.3v.2c0,.1,0,.3,0,.4,0,.1,0,.3,0,.4,0,0,0,0,0,.1,0,0,0,0,0,.1,0,0,0,.1,0,.2s0,0,0,.1c0,0,0,.1,0,.2,0,0,0,.1,0,.2v.5s0,.4,0,.4c0,.1,0,.2,0,.4s0,.2,0,.4c0,0,0,0,0,0h0c0,.2,0,.2,0,.3v.2c0,0,0,.2,0,.3,0,0,0,.2,0,.3,0,.2,0,.3,0,.4,0,0,0,0,0,.1,0,0,0,0,0,0,0,0,0,.1,0,.2-.1.2-.3.3-.5.5h-.1c0,0,0,0,0,0ZM620.5,900c0,0-.1,0-.2,0,0,0,0,0-.1,0,0,0,0,0-.1,0,0,0,0,0-.1,0s0,0,0-.1c0,0,0,0,0,0,0,0-.1,0-.1-.1,0,0,0-.2,0-.2,0,0,0-.2,0-.2v-.4c0-.1,0-.2,0-.3v-.3s0,0,0-.1c0,0,0-.1,0-.2,0-.2,0-.5,0-.7,0,0,0-.1,0-.2s0-.1,0-.2v-.4c0-.1,0-.3,0-.4v-.6c0,0,0-.2,0-.3v-.4c0-.1,0-.2,0-.4,0,0,0,0,0-.1v-.2c0,0,0-.1,0-.2v-1c0,0,0-.3,0-.3v-.3c0-.2,0-.3,0-.5s0-.3,0-.5h0c0-.3,0-.5,0-.6,0-.2,0-.3,0-.5v-.6c0-.2-.1-.5,0-.7,0-.1,0-.2.1-.3,0,0,0,0,0,0s0,0,0,0c0,0,0,0,0-.1s0,0,0,0h0s0,0,0,0h0s0,0,0,0c0,0,0,0,0,0,0,0,0,0,0,0s0,0,0,0c0,0,0,0,0,0,0,0,.1,0,.2,0,0,0,.1,0,.2,0,0,0,.1,0,.2.2,0,.1,0,.2.1.3s0,.2,0,.3v.2c0,0,0,.2,0,.3v.6c0,0,0,.2,0,.2h0c0,.1,0,.2,0,.2v.2c0,0,0,.2,0,.3,0,.2,0,.3,0,.5s0,.3,0,.5v.2c0,0,0,.1,0,.2,0,0,0,0,0,.1v.5c0,0,0,.2,0,.2,0,0,0,.2,0,.3v1.2c0,0,0,.4,0,.4v.6c0,0,0,.1,0,.2,0,0,0,0,0,.1h0c0,.1,0,.2,0,.2h0c0,.2,0,.3,0,.4v.7c0,0,0,.1,0,.2v.2c0,0,0,.1,0,.2s0,.1,0,.2c0,0,0,0,0,0,0,.2,0,.3,0,.4,0,.2,0,.3,0,.4,0,0,0,0,0,.1h0c0,.1,0,.2,0,.2,0,0,0,.1-.1.2,0,0,0,0,0,0,0,0-.2,0-.2.2-.1,0-.2.1-.4.1h0ZM625.9,899.2s0,0,0,0h-.3c0,0,0,0,0,0,0,0,0,0,0,0,0,0,0,0-.1,0h-.2c-.1,0-.3,0-.4,0-.1,0-.3,0-.4-.1h-.1c-.2-.1-.3-.3-.4-.4,0,0,0,0,0-.2,0,0,0,0,0-.2,0,0,0,0,0-.1,0-.3.2-.5.3-.7,0,0,.2-.2.2-.2s.2-.2.3-.2.2-.1.3-.2.2-.1.3-.2c.2-.1.4-.3.6-.4s.4-.3.5-.4c.3-.2.5-.5.7-.9,0-.2.2-.5.3-.7,0-.2.2-.4.2-.6,0-.2.1-.4.2-.5s.1-.4.2-.5c0-.2,0-.3.1-.5s0-.3,0-.5c0-.2,0-.4,0-.6,0,0,0-.1-.2-.2,0,0-.1,0-.2,0,0,0-.1,0-.2,0,0,0-.1,0-.2,0,0,0,0,0,0,0s0,0,0,0c-.3.1-.6.3-.8.5,0,0,0,0-.1.1h-.1c0,.2-.2.3-.3.4,0,0-.1.1-.2.2s-.1.1-.2.2c-.1.1-.2.3-.3.5,0,.2-.2.4-.4.5-.1,0-.2.2-.3.3,0,.1-.2.2-.3.3-.1,0-.2,0-.3,0l-.2-.2c0,0-.1-.1-.2-.2,0,0-.1-.1-.2-.2,0,0,0,0,0,0,0,0,0,0,0,0,0,0,0-.1,0-.2s0-.1,0-.2c0,0,0,0,0-.1,0,0,0,0,0-.2v-.2h0c0-.2,0-.2,0-.2,0-.2.2-.4.4-.6.3-.3.7-.6,1-.8,0,0,0,0,.1,0s0,0,.2,0c.2-.1.3-.2.4-.3.1,0,.3-.2.4-.3.1,0,.2-.2.3-.3s.2-.2.4-.2c.2,0,.3-.2.4-.2s.3,0,.5-.1c0,0,0,0,0,0h0c.2,0,.3,0,.4,0,.2,0,.3,0,.4.1.2,0,.4.2.6.3,0,0,0,0,0,0,.1.1.2.2.3.4s.2.3.2.5c0,0,0,.2,0,.3s0,.2,0,.3v.2s0,0,0,.2c0,.4,0,.8-.2,1.2,0,0,0,.2,0,.2,0,0,0,.2,0,.3s0,.2,0,.3,0,.2-.1.3c0,.2-.1.3-.2.4s-.1.3-.2.4c0,.1,0,.3-.1.4v.4c-.2.2-.2.3-.3.5s-.1.3-.2.5c-.2.3-.4.6-.6.8,0,0,0,0-.2.1l-.2.2h0c0,0,0,0,0,0h.3s.2,0,.2,0h.9c0-.1,0-.1,0-.1.2,0,.3,0,.4,0,.2,0,.3,0,.4,0h0c.2,0,.3,0,.5,0h.7c0,0,.2,0,.2,0,0,0,.1,0,.2,0,0,0,.1,0,.2,0,0,0,.1,0,.2,0,.3,0,.6,0,.9.3.2.2.2.3.3.5h0c0,.4,0,.6-.1.8,0,0,0,.1-.1.2,0,0,0,0,0,0s-.1,0-.2,0-.1,0-.2,0c0,0,0,0,0,0s0,0,0,0c-.1,0-.2,0-.3,0-.1,0-.2,0-.3,0-.2,0-.4-.1-.6-.1h-.2s-.1,0-.2,0h-.1s-.6,0-.6,0c0,0-.1,0-.2,0,0,0-.2,0-.2,0s-.2,0-.2,0c0,0,0,0-.1,0,0,0,0,0-.1,0h0s0,0-.1,0c-.1,0-.2,0-.2,0,0,0-.1,0-.3,0h-.2c0,0-.1,0-.2,0,0,0-.1,0-.2,0,0,0,0,0-.1,0s0,0-.1,0c-.1,0-.3,0-.4,0,0,0,0,0-.1,0s0,0-.1,0c0,0,0,0,0,0,0,0,0,0,0,0,0,0,0,0-.1,0,0,0,0,0,0,0s0,0,0,0h-.2s-.1,0-.2,0-.2,0-.2,0h0ZM526.2,904.8c0,0-.2,0-.3,0,0,0-.2,0-.3,0,0,0,0,0-.1,0,0,0,0,0-.1,0,0,0-.2-.2-.2-.2,0-.1,0-.2-.1-.3s0-.2,0-.3v-.2c0,0,0-.2,0-.2,0-.2,0-.3,0-.5,0-.2,0-.3,0-.5,0,0,0-.1,0-.2h0c0-.2,0-.3,0-.4,0,0,0-.2,0-.3,0-.2,0-.4,0-.6v-.4c0-.1,0-.2-.1-.3s0-.2,0-.3v-.5s0-.5,0-.5c0,0,0-.2,0-.3v-.2c0,0,0-.2,0-.2,0,0,0-.1,0-.2v-.5c0,0,0-.2,0-.3,0,0,0,0,0-.1v-.5c0,0,0-.1,0-.2,0-.2,0-.3,0-.4,0-.1,0-.3,0-.4s0-.1,0-.2c0,0,0-.2,0-.3v-.2c.2,0,.2-.2.3-.2s.1-.1.2-.2c0,0,.2,0,.2,0h.2c0,0,.2,0,.2.1.2,0,.3.2.3.4v.2c.1,0,.2.1.2.2s0,.2,0,.2c0,.1,0,.2,0,.4,0,.2,0,.3,0,.5,0,0,0,0,0,.2,0,0,0,.1,0,.2s0,.2,0,.2c0,0,0,.2,0,.2,0,0,0,0,0,0h0c0,.1,0,.2,0,.2s0,0,0,.1c0,.1,0,.2,0,.3,0,.1,0,.2,0,.3s0,0,0,0h0c0,0,0,.2,0,.2,0,0,0,.2,0,.2s0,.2,0,.2c0,.1,0,.3,0,.4,0,.1,0,.3,0,.4,0,0,0,0,0,.1,0,0,0,0,0,.1,0,0,0,.1,0,.2s0,0,0,.1c0,0,0,.1,0,.2,0,0,0,.1,0,.2v.5c0,.1,0,.2,0,.4,0,.1,0,.2,0,.4s0,.2,0,.4c0,0,0,0,0,0h0c0,.2,0,.2,0,.3v.2c0,0,0,.2,0,.3,0,0,0,.2,0,.3,0,.2,0,.3,0,.4,0,0,0,0,0,.1,0,0,0,0,0,0,0,0,0,.1,0,.2-.1.2-.3.3-.5.5h-.1c0,0,0,0,0,0ZM533.3,905.9c-.1,0-.3,0-.4,0s-.3,0-.4-.2c0,0,0,0,0,0,0,0,0,0,0,0,0,0-.1,0-.2-.1,0,0-.1,0-.2-.2l-.3-.3h0c0-.1,0-.2,0-.2,0,0,0,0,0-.1s0,0,0-.1c0,0,0-.2.2-.2,0,0,.1,0,.1-.1,0-.1,0-.2.2-.3,0,0,.2-.1.3-.2.2,0,.3-.1.5-.1h.1s0,0,.1,0h.1s0,0,.1,0c.1,0,.3,0,.4,0,.2,0,.3,0,.5-.1l.5-.2.6-.2c.2,0,.3-.1.4-.2.1,0,.2,0,.3-.1l.3-.2c0,0,.2,0,.2-.2s.1-.1.2-.2c0,0,.2-.2.2-.2,0-.1.1-.3,0-.4,0,0,0-.2,0-.2,0,0,0-.2,0-.2,0,0,0-.2,0-.2s0-.2,0-.3c0,0,0,0,0,0,0,0-.2-.2-.2-.3s-.1-.2-.2-.3c0,0-.1-.1-.2-.2s-.1,0-.2-.1c0,0,0,0-.2,0,0,0,0,0-.2,0,0,0-.1,0-.2,0,0,0-.1,0-.2,0-.2,0-.3,0-.5-.1h-.5c-.2-.1-.3-.2-.5-.2-.2,0-.2-.1-.3-.1h0s-.2,0-.4-.1c0,0-.2,0-.2,0,0,0-.2,0-.3,0,0,0,0,0,0-.1s0,0,0-.1c0,0,0-.1,0-.2,0,0,0-.1,0-.2,0,0,0-.1,0-.2,0,0,0,0,0,0,0,0,0,0,0-.1s0,0,0,0c0,0,0-.1,0-.2v-.2c.2-.2.4-.4.6-.6.2-.2.3-.5.5-.7.2-.2.3-.4.5-.7,0-.1.2-.2.2-.3l.2-.2c0,0,0-.1.1-.2,0,0,0,0,0-.1,0,0,0,0,0-.1,0,0,0-.1,0-.2,0,0,0-.1,0-.2,0,0,0,0,0,0h0s0,0,0,0c-.1,0-.2,0-.4,0s-.2,0-.4,0h-.2s0,0-.1,0,0,0-.1,0c-.1,0-.3,0-.4,0s-.3,0-.4,0h0c-.2,0-.4.1-.6.2s-.4.1-.6.2c0,0-.2,0-.3,0,0,0-.2,0-.3,0,0,0-.1,0-.2,0s0,0-.1,0c-.1,0-.3.1-.4.2,0,0,0,0,0,0-.1,0-.2,0-.3,0s-.2,0-.3,0c-.1,0-.2,0-.3-.1,0,0,0,0,0,0,0,0,0,0,0,0,0,0,0,0,0,0,0,0,0,0,0-.1s0,0,0-.1,0,0,0-.2c0-.2,0-.4,0-.5,0,0,0-.1.1-.2s0-.1.2-.2c.2-.2.4-.2.6-.3h.5c.1,0,.2,0,.3,0,0,0,.2,0,.3,0,.2,0,.3,0,.5,0s.3,0,.5,0c.2,0,.3,0,.5,0s.3,0,.5,0c.1,0,.2,0,.4,0h.5c.1,0,.2,0,.3,0s.1,0,.2,0c0,0,.2,0,.2,0,0,0,.2,0,.2,0,.1,0,.2,0,.3,0,0,0,.2,0,.3,0h.4c0,.1,0,.2.1.2s0,0,.1,0c.1,0,.2.2.3.2s.1.2.2.3c.2.2.2.4.1.6,0,.2,0,.3,0,.4s0,.3-.2.4l-.3.6s0,.1,0,.2v.2c0,0-.3.3-.3.3,0,.1-.2.3-.2.4,0,.1-.2.3-.3.4h0c0,0,0,.1,0,.2s0,0,.1,0c.2,0,.3,0,.5,0s.3,0,.5.1c.2,0,.4,0,.6.2s.4.2.5.3c.3.2.6.5.8.8.1.1.2.3.3.4,0,.2.2.3.3.5l.3.5c.2.4.3.8.3,1.2,0,.1,0,.2,0,.3,0,.1,0,.2,0,.3,0,0,0,.1,0,.2,0,.1,0,.3-.2.4s-.1.2-.2.4c0,0-.2.2-.2.3s-.2.2-.3.3c0,0,0,0,0,0,0,0-.1,0-.2.2,0,0-.1,0-.2.2,0,0-.1,0-.2.1s-.1,0-.2.1c-.2.2-.4.2-.6.2-.2,0-.4,0-.5,0l-.5.2s-.1,0-.2,0c0,0-.1,0-.2,0-.1,0-.3,0-.4.1-.1,0-.3,0-.4.1-.2,0-.3.1-.4.2l-.2.2s0,0-.1.1c0,0-.2,0-.3,0h0ZM514.8,689.2c0,0-.1,0-.2,0,0,0,0,0-.1,0,0,0,0,0-.1,0,0,0,0,0-.1,0s0,0,0-.1c0,0,0,0,0,0,0,0-.1,0-.1-.1,0,0,0-.2,0-.2,0,0,0-.2,0-.2v-.4c0-.1,0-.2,0-.3v-.3s0,0,0-.1c0,0,0-.1,0-.2,0-.2,0-.5,0-.7,0,0,0-.1,0-.2s0-.1,0-.2v-.4c0-.1,0-.3,0-.4v-.6c0,0,0-.2,0-.3v-.4s0-.4,0-.4c0,0,0,0,0-.1v-.2c0,0,0-.1,0-.2v-1c0,0,0-.3,0-.3v-.3c0-.2,0-.3,0-.5,0-.2,0-.3,0-.5h0c0-.3,0-.5,0-.6,0-.2,0-.3,0-.5v-.6c0-.2-.1-.5,0-.7,0-.1,0-.2.1-.3,0,0,0,0,0,0,0,0,0,0,0,0,0,0,0,0,0-.1s0,0,0,0h0s0,0,0,0h0s0,0,0,0c0,0,0,0,0,0,0,0,0,0,0,0,0,0,0,0,0,0,0,0,0,0,0,0,0,0,.1,0,.2,0,0,0,.1,0,.2,0,0,0,.1,0,.2.2,0,.1,0,.2.1.3,0,.1,0,.2,0,.3v.2c0,0,0,.2,0,.3v.6c0,0,0,.2,0,.2h0c0,.1,0,.2,0,.2v.2c0,0,0,.2,0,.3,0,.2,0,.3,0,.5,0,.2,0,.3,0,.5v.2c0,0,0,.1,0,.2,0,0,0,0,0,.1v.5c0,0,0,.2,0,.2,0,0,0,.2,0,.3v1.2c0,0,0,.4,0,.4v.6c0,0,0,.1,0,.2,0,0,0,0,0,.1h0c0,.1,0,.2,0,.2h0c0,.2,0,.3,0,.4v.5c0,0,0,.1,0,.2,0,0,0,.1,0,.2v.2c0,0,0,.1,0,.2s0,.1,0,.2c0,0,0,0,0,0,0,.2,0,.3,0,.4,0,.2,0,.3,0,.4,0,0,0,0,0,.1h0c0,.1,0,.2,0,.2,0,0,0,.1-.1.2,0,0,0,0,0,0,0,0-.2,0-.2.2-.1,0-.2.1-.4.1h0ZM524.3,688.4h-.3c-.1,0-.2,0-.3-.1,0,0,0,0-.1,0-.1,0-.2-.1-.2-.2h0c-.1-.3-.1-.5-.1-.8h0c0-.1,0-.2,0-.2v-.3c0,0,0-.2,0-.3v-.2s0,0,0-.2c0,0,0,0,0-.1v-.5c0-.1,0-.3,0-.4,0,0,0,0,0-.1v-.3c0,0,0-.2,0-.2,0,0,0,0,0-.1h0c0-.1,0-.3,0-.3,0,0,0,0-.1,0h-.2c0,0-.2,0-.2,0h-.2c0,0-.2,0-.2,0h-.4c-.1,0-.2,0-.4,0h0c-.1,0-.2,0-.4,0-.1,0-.2,0-.4,0,0,0-.2,0-.2,0-.2,0-.4,0-.5.2,0,0-.1,0-.2,0s-.1,0-.2,0c0,0-.1.1-.1.2,0,0,0,.1,0,.2,0,0,0,.2,0,.2s0,.2-.1.3c0,0-.1.1-.3.1s-.2,0-.3-.1c0,0,0-.1-.1-.2,0-.1,0-.2,0-.3v-.3c0,0-.2-.2-.2-.3v-.2c-.3-.3-.4-.5-.4-.8s0-.2,0-.2v-.2c0,0,.1-.1.1-.2s0-.1,0-.2c0-.2,0-.5.1-.7,0-.2.1-.5.2-.8s.1-.5.2-.8v-.4c.2-.1.2-.3.2-.4,0-.2.1-.4.2-.6s.1-.4.2-.6c0,0,0,0,0-.1,0-.2.1-.3.2-.5s.1-.3.2-.5h0c0-.2,0-.2,0-.3,0,0,0,0,0-.1,0,0,.1-.1.2-.2s.1,0,.2-.1c0,0,.2,0,.3,0s.2,0,.3,0c0,0,.2,0,.2,0s.2,0,.2,0c0,0,.2,0,.3.2.2.2.3.5.3.8,0,.2,0,.5-.2.7,0,.1,0,.2-.2.4,0,.1,0,.3-.1.4v.3c-.1.1-.2.2-.2.3,0,0,0,0,0,.1,0,0,0,0,0,.1,0,0,0,0,0,0,0,0,0,0,0,0,0,0-.1.2-.1.3,0,0,0,.1,0,.2,0,0,0,.1,0,.2,0,0,0,.1,0,.2,0,0,0,.1,0,.2,0,.1-.1.2-.2.4,0,0,0,.2,0,.2,0,0,0,.2,0,.2v.5c0,0,0,0,0,0h.3c0,0,.1,0,.2,0h.2c0,0,.2,0,.3,0,.1,0,.2,0,.3,0s.2,0,.3,0c0,0,0,0,.1,0h.4c0,0,.2,0,.3,0h.1s0,0,.1,0h.2s0,0,0,0v-1.4s0,0,0,0c0,0,0-.1,0-.2v-.2c0,0,0-.1,0-.2,0,0,0-.1,0-.2,0-.2,0-.5,0-.7,0-.2,0-.5,0-.7,0-.2,0-.3,0-.5,0-.2,0-.3,0-.5,0-.1,0-.2,0-.3s0-.2,0-.3c0-.1,0-.2.2-.4,0,0,0-.2.2-.2s.1-.1.2-.2h0s0,0,0,0,0,0,0,0c0,0,.2,0,.3,0h.4c0,0,0,.1,0,.1,0,0,0,0,0,0h0c0,0,0,.1,0,.2s0,0,0,.1c0,.1.1.2,0,.4h0c0,.1,0,.2,0,.2,0,0,.1.1,0,.2h0c0,.1,0,.2,0,.3s0,.2,0,.3c0,0,0,0,0,0h0s0,0,0,0h0c0,.1,0,.2,0,.2,0,0,0,0,0,0,0,0,0,0,0,0v.2s0,.1,0,.2c0,0,0,0,0,0h0c0,.1,0,.2,0,.2,0,0,0,0,0,0v1.5c0,0,0,.1,0,.2,0,0,0,.1,0,.2,0,0,0,.1,0,.2v.2s0,.1,0,.2c0,0,0,.1,0,.2,0,0,0,.2,0,.2v.4s0,0,0,0c0,0,0,0,0,0s0,0,0,0h.5c0,0,.2,0,.3,0h.6c.2,0,.4,0,.6,0h.4c0,0,.1,0,.1,0,0,0,.2,0,.3,0s.2,0,.2.2c0,0,0,0,0,0,0,0,0,.2,0,.2,0,0,0,.1,0,.2h0c0,.2,0,.3,0,.4,0,0,0,0,0,0s0,0,0,0c0,0,0,0,0,0,0,0,0,0,0,0s0,0,0,0c0,0,0,0,0,0s0,0,0,0c0,0,0,0-.2.1,0,0,0,0,0,0s0,0,0,0c0,0,0,0,0,0,0,0,0,0,0,0h0c0,.2-.1.2-.2.3,0,0-.2,0-.3,0h-.3c-.2,0-.3,0-.5,0h-.5c0,0-.2,0-.2,0s-.2,0-.2,0c0,0,0,0-.1,0,0,0,0,0-.1,0,0,0,0,0-.1,0h-.2s0,0,0,0h0c0,0,0,.2-.1.2h0s0,.1,0,.2,0,.1,0,.1c0,0,0,0,0,.1,0,0,0,0,0,0s0,0,0,0c0,0,0,0,0,0,0,0,0,0,0,0,0,0,0,.2,0,.2h0c0,.2,0,.2,0,.3h0s0,.1,0,.1c0,0,0,0,0,0,0,0,0,0,0,0v.4s0,0,0,0c0,0,0,0,0,0,0,0,0,.1,0,.2,0,0,0,.2,0,.2s0,0,0,0h0s0,0,0,0c0,0,0,0,0,0s0,0,0,0c0,.1,0,.2,0,.3,0,0,0,0,0,0,0,0,0,0,0,0,0,0,0,0,0,0,0,0,0,0,0,0,0,.1,0,.2,0,.3,0,.1,0,.2,0,.3s0,0,0,0,0,0,0,0,0,0,0,0c0,0,0,0,0,0,0,0,0,0,0,0h0c0,0,0,0,0,.1,0,0,0,0,0,0s0,0,0,0c0,0,0,0-.1.1h-.1s0,0,0,0,0,0,0,0h0s0,0,0,0c0,0-.1,0-.1,0h0ZM525.1,687.8s0,0,0,0c0,0,0,0,0,0h0ZM529.2,508.2c0,0-.1,0-.2,0,0,0,0,0-.1,0,0,0,0,0-.1,0,0,0,0,0-.1,0s0,0,0-.1c0,0,0,0,0,0,0,0-.1,0-.1-.1,0,0,0-.2,0-.2,0,0,0-.2,0-.2v-.4c0-.1,0-.2,0-.3v-.3s0,0,0-.1c0,0,0-.1,0-.2,0-.2,0-.5,0-.7,0,0,0-.1,0-.2s0-.1,0-.2v-.4c0-.1,0-.3,0-.4v-.6c0,0,0-.2,0-.3v-.4s0-.4,0-.4c0,0,0,0,0-.1v-.2c0,0,0-.1,0-.2v-1c0,0,0-.3,0-.3v-.3c0-.2,0-.3,0-.5,0-.2,0-.3,0-.5h0c0-.3,0-.5,0-.6,0-.2,0-.3,0-.5v-.6c0-.2-.1-.5,0-.7,0-.1,0-.2.1-.3,0,0,0,0,0,0,0,0,0,0,0,0,0,0,0,0,0-.1s0,0,0,0h0s0,0,0,0h0s0,0,0,0c0,0,0,0,0,0,0,0,0,0,0,0,0,0,0,0,0,0,0,0,0,0,0,0,0,0,.1,0,.2,0,0,0,.1,0,.2,0,0,0,.1,0,.2.2,0,.1,0,.2.1.3,0,.1,0,.2,0,.3v.2c0,0,0,.2,0,.3v.6c0,0,0,.2,0,.2h0c0,.1,0,.2,0,.2v.2c0,0,0,.2,0,.3,0,.2,0,.3,0,.5,0,.2,0,.3,0,.5v.2c0,0,0,.1,0,.2,0,0,0,0,0,.1v.5c0,0,0,.2,0,.2,0,0,0,.2,0,.3v1.2c0,0,0,.4,0,.4v.6c0,0,0,.1,0,.2,0,0,0,0,0,.1h0c0,.1,0,.2,0,.2h0c0,.2,0,.3,0,.4v.5c0,0,0,.1,0,.2,0,0,0,.1,0,.2v.2c0,0,0,.1,0,.2s0,.1,0,.2c0,0,0,0,0,0,0,.2,0,.3,0,.4,0,.2,0,.3,0,.4,0,0,0,0,0,.1h0c0,.1,0,.2,0,.2,0,0,0,.1-.1.2,0,0,0,0,0,0,0,0-.2,0-.2.2-.1,0-.2.1-.4.1h0ZM534.4,508.9s0,0,0,0c0,0,0,0,0,0,0,0,0,0,0,0,0,0-.2,0-.2-.1,0,0-.1-.1-.2-.2,0,0,0,0,0,0,0,0-.1-.1-.2-.2,0,0,0-.2,0-.3v-.3c0-.2,0-.3.2-.4.2-.2.4-.3.7-.3,0,0,.1,0,.2,0,0,0,.1,0,.2,0,0,0,.2,0,.2,0s.2,0,.2,0c.2,0,.4-.1.6-.2s.4-.1.6-.2c.3-.2.6-.3,1-.4s.6-.3.9-.5c.1,0,.3-.1.4-.2s.2-.1.3-.2c.3-.2.5-.5.7-.7.1-.2.2-.4.1-.7,0,0,0-.1,0-.2s0-.1,0-.2c0-.1-.1-.2-.2-.3s-.1-.2-.2-.3c0,0,0-.1-.1-.2s0-.1-.1-.2c0,0,0-.1-.2-.2h-.2c0-.2,0-.2-.1-.2,0,0,0,0-.1,0-.1,0-.2,0-.3,0-.1,0-.2,0-.4,0h-.4c-.1,0-.3,0-.4,0h-.1c-.2,0-.3,0-.4,0-.1,0-.3,0-.4,0-.1,0-.2,0-.4,0s-.2,0-.4,0c0,0-.1,0-.2,0s-.1,0-.2,0h0s0,0,0,0c0,0,0,0,0,0,0,0-.2,0-.2.2,0,0,0,0,0,0,0,0-.1,0-.2,0s-.1,0-.2,0c0,0,0,0,0,0,0,0,0,0,0,0,0,0,0,0,0,0,0,0,0,0,0,0h0s0,0,0,0c0,0,0,0-.1,0,0,0,0,0-.1,0-.2.1-.3.3-.4.5v.2c0,.1-.2.2-.3.2s-.2,0-.3,0c0,0-.1-.1-.1-.2,0,0,0-.1,0-.2,0,0,0-.1,0-.2,0-.2,0-.3,0-.4,0-.2-.1-.3-.1-.5s0-.3,0-.5c0,0,0-.1,0-.2v-.2c0,0,0-.1,0-.2v-.2s0-.1,0-.2v-.2c0-.7,0-1.4,0-2.1h0c0-.3,0-.5,0-.7v-.3c0-.1,0-.2,0-.3,0-.1,0-.2,0-.3,0-.1,0-.2,0-.3,0,0,0-.2,0-.3v-.5c0,0,0-.1,0-.2,0,0,0,0,0-.1.2-.2.3-.3.5-.4.2,0,.4,0,.6,0,.2,0,.3,0,.5,0,0,0,.2,0,.3,0s.2,0,.3,0h1.2c0,0,0,0,.2,0h.2c.2,0,.3,0,.4,0s.3,0,.4,0c0,0,.1,0,.2,0h.2c.1,0,.3,0,.4,0h.4c.2,0,.4,0,.5,0s.3,0,.5,0c0,0,0,0,.2,0,0,0,0,0,.1,0h.1c0,0,0,0,0,.1,0,0,0,0,0,0,0,0,0,.1.1.2s0,.1.1.2c0,0,0,0,0,0h0c0,0,0,.1,0,.1v.2h0c0,0,0,.2,0,.2,0,0,0,0,0,0,0,0,0,0-.1.2,0,0-.1.2-.3.3,0,0-.1,0-.2.1,0,0-.1.1-.2.1-.1,0-.2,0-.3,0h-.2s-.2,0-.2,0c-.1,0-.2,0-.4,0-.1,0-.2,0-.4,0-.1,0-.3,0-.4,0h-.4c-.1,0-.3,0-.4,0h-.2c0,0-.1,0-.2,0,0,0,0,0,0,0,0,0,0,0,0,0,0,0-.1,0-.1,0,0,0,0,0,0,0h0s0,0,0,0,0,0,0,0h-.5c0,0-.2,0-.2,0s-.2,0-.2,0c0,0-.2,0-.3,0,0,0,0,0,0,0,0,0,0,0,0,0,0,0,0,0,0,.1,0,.2,0,.4,0,.6s0,.4,0,.6,0,.3,0,.5v.5s0,1.2,0,1.2c0,0,0,0,0,0,0,0,0,0,0,0,0,0,0,0,0,0h0c.2,0,.3,0,.5,0,.2,0,.3,0,.5,0,0,0,.2,0,.3,0s.2,0,.3,0c.1,0,.2,0,.3,0h.3s.2,0,.2,0c0,0,.2,0,.2,0,.3,0,.6,0,1,0,.1,0,.3,0,.4,0,.1,0,.2,0,.4,0,.2,0,.5.2.7.3l.5.4c.1,0,.2.1.3.2.1.1.3.3.4.4s.2.3.3.4c0,0,0,.1,0,.2.2.3.4.6.4,1,0,.2,0,.4,0,.6,0,.1,0,.3,0,.4,0,.1,0,.3,0,.4v.4c-.2.3-.4.5-.6.8,0,0-.1.1-.2.2s-.1.1-.2.2c0,0,0,0-.2.1,0,0-.2,0-.2.2,0,0-.1.1-.2.2s-.2.1-.3.1h0c0,0,0,.1,0,.1,0,0-.2,0-.2.1s-.2,0-.2.2h-.2c-.1.2-.2.2-.3.3s-.2.1-.3.2l-.9.4s0,0,0,0c0,0,0,0,0,0,0,0-.1,0-.2,0,0,0-.1,0-.2,0,0,0,0,0-.1,0,0,0,0,0-.1,0-.2,0-.3.1-.5.2-.2,0-.3.1-.5.2h0s0,0-.1,0,0,0-.1,0-.1,0-.2,0c0,0,0,0-.2,0s0,0-.2,0h0ZM417.3,501.5c0,0-.1,0-.2,0,0,0,0,0-.1,0,0,0,0,0-.1,0,0,0,0,0-.1,0s0,0,0-.1c0,0,0,0,0,0,0,0-.1,0-.1-.1,0,0,0-.2,0-.2,0,0,0-.2,0-.2v-.4c0-.1,0-.2,0-.3v-.3s0,0,0-.1c0,0,0-.1,0-.2,0-.2,0-.5,0-.7,0,0,0-.1,0-.2s0-.1,0-.2v-.4c0-.1,0-.3,0-.4v-.6c0,0,0-.2,0-.3v-.4c0-.1,0-.2,0-.4,0,0,0,0,0-.1v-.2c0,0,0-.1,0-.2v-1c0,0,0-.3,0-.3v-.3c0-.2,0-.3,0-.5s0-.3,0-.5h0c0-.3,0-.5,0-.6,0-.2,0-.3,0-.5v-.6c0-.2-.1-.5,0-.7,0-.1,0-.2.1-.3,0,0,0,0,0,0s0,0,0,0c0,0,0,0,0-.1s0,0,0,0h0s0,0,0,0h0s0,0,0,0c0,0,0,0,0,0,0,0,0,0,0,0s0,0,0,0c0,0,0,0,0,0,0,0,.1,0,.2,0,0,0,.1,0,.2,0,0,0,.1,0,.2.2,0,.1,0,.2.1.3s0,.2,0,.3v.2c0,0,0,.2,0,.3v.6c0,0,0,.2,0,.2h0c0,.1,0,.2,0,.2v.2c0,0,0,.2,0,.3,0,.2,0,.3,0,.5s0,.3,0,.5v.2c0,0,0,.1,0,.2,0,0,0,0,0,.1v.5c0,0,0,.2,0,.2,0,0,0,.2,0,.3v1.2c0,0,0,.4,0,.4v.6c0,0,0,.1,0,.2,0,0,0,0,0,.1h0c0,.1,0,.2,0,.2h0c0,.2,0,.3,0,.4v.7c0,0,0,.1,0,.2v.2c0,0,0,.1,0,.2s0,.1,0,.2c0,0,0,0,0,0,0,.2,0,.3,0,.4,0,.2,0,.3,0,.4,0,0,0,0,0,.1h0c0,.1,0,.2,0,.2,0,0,0,.1-.1.2,0,0,0,0,0,0,0,0-.2,0-.2.2-.1,0-.2.1-.4.1h0ZM426.8,501.9c-.2,0-.4,0-.6-.2-.2,0-.4-.1-.6-.2,0,0-.2-.1-.3-.2s-.2-.1-.3-.2l-.6-.4s0,0-.1,0c0,0,0,0-.1,0h-.1c0-.1,0-.2,0-.2s0,0-.1,0c0,0-.1,0-.2,0s-.1,0-.2,0c-.1,0-.3-.1-.4-.2s-.2-.2-.4-.2c-.5-.4-.9-.8-1.2-1.2,0,0,0,0,0-.1l-.2-.4c0-.1-.2-.2-.2-.4l-.3-.6c0-.2-.2-.3-.2-.5,0-.2-.1-.3-.2-.5,0,0,0,0,0-.1,0,0,0,0,0-.1,0-.1,0-.2-.1-.4,0,0,0,0,0-.1,0,0,0,0,0-.1,0,0,0,0,0,0h0c0-.1,0-.1,0-.1,0,0,0,0,0,0,0,0,0,0,0,0h0s0,0,0,0c0,0,0,0,0-.1h0c0-.2,0-.4,0-.5,0-.1,0-.3,0-.4,0,0,0-.2,0-.2,0,0,0-.2,0-.3,0,0,0,0,0-.1h0c0-.1,0-.1,0-.2,0-.1,0-.2,0-.3,0,0,0-.1,0-.2,0,0,0-.2,0-.2,0,0,0,0,0,0,.1-.2.2-.3.2-.5s0,0,0-.2c0,0,0,0,0-.2,0,0,0,0,0-.2,0-.1,0-.2.1-.2,0,0,0,0,0,0h0c0-.3,0-.4,0-.5,0-.1,0-.3.1-.4,0-.2.2-.3.3-.4l.2-.2c.1,0,.2-.2.2-.3,0,0,0,0,0-.1,0,0,0,0,.1-.1s0,0,0-.1c0-.1.1-.2.3-.3.1,0,.2,0,.3-.2s.2-.1.3-.2h.2c.1-.1.2-.2.4-.3s.2-.1.4-.2c0,0,0,0,.1,0s0,0,.2,0c0,0,0,0,.2,0s0,0,.2,0c0,0,.1,0,.2,0,0,0,.1,0,.2,0h.2c0,0,.1,0,.2,0,.1,0,.2,0,.3,0,0,0,.1,0,.2,0,0,0,.1,0,.2.1.1,0,.2.1.3.3.2.3.2.5,0,.8,0,0,0,0,0,0-.1,0-.2.1-.3.2s-.2.1-.3.2h-.1c-.2.2-.3.2-.5.3,0,0-.1,0-.2.1s-.1,0-.2.1c-.2.1-.4.3-.6.5-.4.4-.8.9-1,1.4,0,.1-.1.3-.2.4s-.1.2-.2.4h0c0,.2,0,.4-.2.5,0,.2,0,.3-.1.5v.2c0,.2-.1.5-.1.7s0,.5,0,.7v.4c0,.2.1.4.2.5s0,.4.2.5c0,0,0,0,0,.2,0,0,0,0,0,.1,0,0,.1.2.2.3s.1.2.2.3c0,0,0,0,0,0h0s0-.4,0-.4c0-.1,0-.2,0-.3,0-.1,0-.2,0-.3,0,0,0,0,0-.1s0,0,0-.1l.2-.4c0-.1.1-.2.2-.3,0-.1.1-.2.2-.3s.2-.2.2-.3l.4-.4c0,0,.2-.2.3-.2s.2-.1.3-.2l.4-.2c.1,0,.2,0,.4-.1s.3-.1.4-.2c0,0,.2-.2.3-.2,0,0,0,0,.1,0s0,0,0,0c.1,0,.2,0,.3,0,.1,0,.2,0,.3,0,0,0,.2,0,.3,0s.2,0,.3,0c.2,0,.5.2.7.4l.4.4s0,0,0,0c0,0,0,.1.1.2s0,.1.1.2h0c0,.1.1.2.2.3s0,.2.1.2c0,0,0,0,0,0,0,0,0,.1,0,.2s0,.1,0,.2c0,.1,0,.2.1.3,0,0,0,.2,0,.3,0,0,0,.1,0,.2,0,0,0,0,0,.1,0,.1,0,.3,0,.4s0,.3,0,.4v.8c0,.2,0,.3.1.4,0,0,0,0,0,0,0,0,.1.1.1.2,0,0,0,.2,0,.3,0,.1,0,.3,0,.4s0,.2-.2.4c0,.2-.2.3-.4.5,0,0-.2.2-.2.3s-.2.2-.2.3l-.6.7c-.1.2-.2.3-.3.5,0,0,0,0,0,.1h0s0,0,0,0c0,0,0,.1-.1.2s-.1,0-.2,0c0,0-.2,0-.3,0s-.2,0-.3,0c-.2,0-.4,0-.6,0h0ZM426.8,500.1c0,0,.2,0,.2,0,0,0,0,0,.1-.1h.1c.2-.3.3-.4.5-.6.2-.2.3-.3.5-.5,0,0,0,0,0-.1,0,0,0-.1,0-.2,0,0,0,0,0-.1s0,0,0,0c0-.2,0-.4,0-.5s0-.3,0-.5v-.5c.1,0,.1,0,.1,0v-.4c0-.1,0-.2,0-.3s0-.2-.1-.3c0-.1-.1-.3-.2-.4s-.1-.2-.2-.4c0,0,0,0,0,0,0,0,0,0,0,0s0,0,0,0h-.2c0,0-.1,0-.2,0h-.2c-.1.2-.3.2-.4.2-.1,0-.3,0-.4,0s-.2,0-.4.2c0,0,0,0,0,0,0,0,0,0,0,0-.2,0-.3.1-.4.2s-.3.2-.4.3c0,0-.1.1-.2.2s0,.2-.1.2c0,.1,0,.2-.1.4s0,.2,0,.3v.2c0,0,0,.1,0,.2v.2c.1.3.3.6.4.9,0,0,0,.1.1.2s0,.1.1.2c0,0,0,0,0,0,0,0,0,0,0,0,0,0,0,0,0,.2s0,0,.1.2c.1.1.2.2.4.4.2.2.5.3.8.4h0ZM437.6,722.9c0,0-.1,0-.2,0,0,0,0,0-.1,0,0,0,0,0-.1,0,0,0,0,0-.1,0s0,0,0-.1c0,0,0,0,0,0,0,0-.1,0-.1-.1,0,0,0-.2,0-.2,0,0,0-.2,0-.2v-.4c0-.1,0-.2,0-.3v-.3s0,0,0-.1c0,0,0-.1,0-.2,0-.2,0-.5,0-.7,0,0,0-.1,0-.2s0-.1,0-.2v-.4c0-.1,0-.3,0-.4v-.6c0,0,0-.2,0-.3v-.4c0-.1,0-.2,0-.4,0,0,0,0,0-.1v-.2c0,0,0-.1,0-.2v-1c0,0,0-.3,0-.3v-.3c0-.2,0-.3,0-.5s0-.3,0-.5h0c0-.3,0-.5,0-.6,0-.2,0-.3,0-.5v-.6c0-.2-.1-.5,0-.7,0-.1,0-.2.1-.3,0,0,0,0,0,0s0,0,0,0c0,0,0,0,0-.1s0,0,0,0h0s0,0,0,0h0s0,0,0,0c0,0,0,0,0,0,0,0,0,0,0,0s0,0,0,0c0,0,0,0,0,0,0,0,.1,0,.2,0,0,0,.1,0,.2,0,0,0,.1,0,.2.2,0,.1,0,.2.1.3s0,.2,0,.3v.2c0,0,0,.2,0,.3v.6c0,0,0,.2,0,.2h0c0,.1,0,.2,0,.2v.2c0,0,0,.2,0,.3,0,.2,0,.3,0,.5s0,.3,0,.5v.2c0,0,0,.1,0,.2,0,0,0,0,0,.1v.5c0,0,0,.2,0,.2,0,0,0,.2,0,.3v1.2c0,0,0,.4,0,.4v.6c0,0,0,.1,0,.2,0,0,0,0,0,.1h0c0,.1,0,.2,0,.2h0c0,.2,0,.3,0,.4v.7c0,0,0,.1,0,.2v.2c0,0,0,.1,0,.2s0,.1,0,.2c0,0,0,0,0,0,0,.2,0,.3,0,.4,0,.2,0,.3,0,.4,0,0,0,0,0,.1h0c0,.1,0,.2,0,.2,0,0,0,.1-.1.2,0,0,0,0,0,0,0,0-.2,0-.2.2-.1,0-.2.1-.4.1h0ZM443.9,722.6c0,0-.2,0-.2,0,0,0,0,0-.1,0,0,0,0,0,0,0h-.2c0-.2,0-.2-.2-.3,0,0-.1,0-.1-.2,0-.1,0-.2-.1-.4,0-.2,0-.4,0-.6,0,0,0,0,0,0,0-.1.1-.2.2-.3s0-.2,0-.3c0-.2,0-.4.2-.5,0-.2,0-.4.1-.5,0-.2,0-.3,0-.4s0-.3,0-.4c0-.1,0-.2,0-.3s0-.2,0-.4c0,0,0-.2,0-.2v-.2s0-.1,0-.2c0,0,0-.1-.1,0h-.2c0,0-.2,0-.2.1,0,0-.2,0-.2,0,0,0-.2,0-.3.1s-.2.1-.3.2c0,0,0,0-.1,0-.2.1-.4.1-.5,0-.2-.2-.4-.4-.5-.6,0,0,0,0,0-.2s0,0,0-.2c-.1-.3,0-.5,0-.8,0-.1.2-.2.2-.3,0,0,0,0,0,0,0,0,0,0,0,0,0,0,0,0,0,0,0,0,.1,0,.2,0,.1,0,.2,0,.4,0s.2,0,.4,0h.1c.1,0,.3,0,.4,0s.3,0,.4,0h.2c0,0,.1,0,.2,0,0,0,.2,0,.2,0,0,0,.1,0,.1-.1,0,0,0,0,0,0,0-.2,0-.4.1-.5l.2-.5c0,0,0-.1,0-.2,0,0,0-.1,0-.2,0-.1,0-.2,0-.3.1-.2.2-.5.2-.7,0,0,0-.1,0-.2s0-.1,0-.2l.2-.7s0,0,0,0,0,0,0,0c0,0,0,0,0,0-.1,0-.3,0-.4,0s-.2,0-.4.1h-.2c-.1,0-.3.2-.4.2s-.3.1-.4.2c0,0-.1,0-.2,0s-.1,0-.2,0c0,0,0,0-.1,0,0,0,0,0,0,0,0,0-.2.1-.3.2l-.2.2c0,0-.1.1-.2.2,0,0-.1.2-.2.3-.1.1-.2.2-.3.2-.1,0-.3,0-.4,0s-.3,0-.4,0c0,0,0,0-.1,0s0,0-.1,0c0,0-.2,0-.2-.2,0,0,0,0-.1-.1,0-.1-.1-.2-.2-.3,0,0,0,0,0,0s0,0,0,0c0-.1,0-.2,0-.3s0-.2,0-.3c0-.2.2-.5.4-.6h.1c0,0,.2-.2.2-.2,0,0,0,0,.2,0,.1,0,.2,0,.4,0,.3,0,.6,0,.9-.1,0,0,.1,0,.2,0s.1,0,.2,0,.1,0,.2,0c0,0,.1,0,.2,0,.2,0,.4-.2.6-.2.2,0,.4-.2.6-.2,0,0,0,0,.1,0,0,0,0,0,0,0,0,0,0,0,0,0,.1,0,.3-.1.4-.2s.3-.1.4-.2c0,0,0,0,0,0,0,0,0,0,0,0,0,0,0,0,.1,0s0,0,0,0v-.2c.2,0,.2,0,.3-.1.2-.2.5-.3.9-.3.2,0,.3,0,.4.2.1,0,.2.2.3.3,0,0,0,.2.1.3s0,.2.1.3c0,.2.1.3,0,.5,0,.1,0,.2,0,.3s0,.2,0,.3c0,0,0,.1,0,.2s0,.1-.1.2c0,0,0,0,0,.2,0,0,0,.1,0,.2,0,0,0,.1-.1.2,0,0,0,0,0,0,0,0,0,.1,0,.2,0,0,0,0,0,.1s0,0,0,0c0,0,0,0,0,0s0,0,0,0c0,0,0,0,0,.2v.2s0,0-.1.1c0,0,0,.1,0,.2,0,0,0,0,0,.2,0,0,0,0-.2.1h0c0,0-.1.2,0,.3,0,0,0,0,0,.1s0,0,0,.2c0,0,0,.1,0,.2,0,0,0,.1,0,.2h0c0,0,0,.1,0,.2s0,0,0,.1c0,0,0,0,0,0,0,0,0,0,0,0,0,0,0,0,0,0,0,0,0,0,0,0,0,0,0,0,.1,0,0,0,0,0,0,0,0,0,0,0,0,0,0,0,.2,0,.2,0s.2,0,.2,0c0,0,.2,0,.2.2,0,0,0,0,0,0,0,0,.2.2.2.3,0,0,0,0,0,.1,0,0,0,0,0,.1,0,0,0,.1,0,.2,0,0,0,.1,0,.2,0,0,0,0,0,0,0,0,0,0,0,0,0,0,0,0,0,0h0c0,.1,0,.2,0,.2,0,0,0,0,0,0,0,0-.2,0-.3,0,0,0,0,0-.1,0,0,0-.1,0-.2.2,0,0-.1.1-.3.1,0,0,0,0-.2,0,0,0,0,0-.2,0-.1,0-.3,0-.4,0s0,0,0,0c0,0,0,0,0,0v.2s0,.1,0,.2c0,0,0,.1,0,.2v.2s0,.1,0,.2h0c0,.1,0,.2,0,.3h0c0,.2,0,.2,0,.3,0,0,0,0,0,0,0,0,0,0,0,0h0c0,.2,0,.2,0,.3,0,0,0,.1,0,.2,0,0,0,0,0,0h0c0,0-.1.5-.1.5,0,0,0,0,0,0,0,0,0,.2,0,.3s0,.2,0,.3c0,0,0,0,0,.1,0,0,0,0,0,.1,0,0,0,0,0,0,0,0,0,.2,0,.3,0,0,0,.2,0,.3,0,0,0,.1,0,.2,0,0,0,.1,0,.2,0,0,0,.2,0,.2h0c0,.2,0,.2-.1.3,0,0-.1,0-.2.1,0,0,0,0,0,0,0,0,0,0,0,0,0,0-.1,0-.2.1,0,0-.1,0-.2,0h0ZM450.2,906.1c0,0-.1,0-.2,0,0,0,0,0-.1,0,0,0,0,0-.1,0,0,0,0,0-.1,0s0,0,0-.1c0,0,0,0,0,0,0,0-.1,0-.1-.1,0,0,0-.2,0-.2,0,0,0-.2,0-.2v-.4c0-.1,0-.2,0-.3v-.5c0,0,0-.1,0-.2,0-.2,0-.5,0-.7,0,0,0-.1,0-.2s0-.1,0-.2v-.4c0-.1,0-.3,0-.4v-.6c0,0,0-.2,0-.3v-.4s0-.4,0-.4c0,0,0,0,0-.1v-.2c0,0,0-.1,0-.2v-1c0,0,0-.3,0-.3v-.3c0-.2,0-.3,0-.5,0-.2,0-.3,0-.5h0c0-.1,0-.1,0-.1,0-.2,0-.3,0-.5,0-.2,0-.3,0-.5v-.6c0-.2-.1-.5,0-.7,0-.1,0-.2.1-.3,0,0,0,0,0,0,0,0,0,0,0,0,0,0,0,0,0-.1s0,0,0,0h0s0,0,0,0h0s0,0,0,0c0,0,0,0,0,0,0,0,0,0,0,0,0,0,0,0,0,0,0,0,0,0,0,0,0,0,.1,0,.2,0s.1,0,.2,0c0,0,.1,0,.2.2,0,.1,0,.2.1.3,0,.1,0,.2,0,.3v.2c0,0,0,.2,0,.3v.6c0,0,0,.2,0,.2h0c0,.1,0,.2,0,.2v.2c0,0,0,.2,0,.3,0,.2,0,.3,0,.5,0,.2,0,.3,0,.5v.2c0,0,0,.1,0,.2,0,0,0,0,0,.1v.5c0,0,0,.2,0,.2,0,0,0,.2,0,.3s0,.2,0,.3v.9c0,0,0,.4,0,.4v.6c0,0,0,.1,0,.2,0,0,0,0,0,.1h0c0,.1,0,.2,0,.2h0c0,.2,0,.3,0,.4v.5c0,0,0,.1,0,.2,0,0,0,.1,0,.2v.2c0,0,0,.1,0,.2s0,.1,0,.2c0,0,0,0,0,0,0,.2,0,.3,0,.4,0,.2,0,.3,0,.4,0,0,0,0,0,.1h0c0,.1,0,.2,0,.2,0,0,0,.1-.1.2,0,0,0,0,0,0,0,0-.2,0-.2.2-.1,0-.2.1-.4.1h0ZM456.2,905.9h0s-.2,0-.2,0c0,0-.2,0-.3,0,0,0-.2,0-.2,0s-.1,0-.2,0c0,0-.2,0-.2-.1-.1-.1-.3-.2-.4-.3-.1-.1-.2-.2-.3-.4,0,0,0,0,0,0s0,0,0-.1l-.4-.6s0,0,0-.1l-.2-.5s0,0,0-.1c0-.1,0-.3,0-.4,0-.1,0-.3,0-.4v-1.2c-.2-.2-.2-.4-.1-.6,0-.4.2-.8.4-1.1.1-.2.3-.4.5-.6,0,0,0,0,0-.1,0,0,0,0,0-.1.1-.2.3-.3.5-.5h.2c0-.2,0-.2.2-.3l.4-.4c.1,0,.2-.2.2-.3,0,0,0-.2,0-.2,0,0-.2-.2-.2-.2s-.2-.2-.2-.2c0,0,0,0-.1-.1h-.2c-.2-.2-.4-.4-.6-.5h0c0-.2-.2-.3-.3-.4,0-.1-.1-.3-.2-.4,0,0,0,0,0,0s0,0,0,0c0-.2,0-.4,0-.6s.2-.3.3-.5c.1-.1.2-.2.3-.3s.2-.2.3-.2c.1,0,.3-.1.4-.2s.3-.1.4-.2c.2,0,.5-.2.8-.3s.5-.2.8-.2h.3c.1-.1.2-.2.3-.2.1,0,.3,0,.4,0,.1,0,.3,0,.4,0,.1,0,.3,0,.4,0h.3c.2.2.4.3.5.5.1.2.2.3.3.4.1.2.2.4.2.7h0c0,.2,0,.3,0,.4h.2c.4.4.5.9.4,1.4,0,0,0,.2-.1.2s-.1.1-.2.2c-.1,0-.2.1-.3.2s-.2.2-.3.3c0,0-.1.1-.2.2s-.1.1-.2.2c0,0-.1.2-.2.2s-.2.1-.3.2c0,0,0,.1,0,.2,0,0,0,.1,0,.2,0,0,0,0,0,0,0,0,0,0,0,0,0,0,0,0,0,0,0,0,0,0,0,0h0s.2.2.2.2c.3.2.5.4.7.7v.2c.3.2.3.3.4.6,0,.1,0,.3,0,.4s0,.3,0,.4h0c0,.4,0,.8,0,1.2v.5c0,0,0,0,0,0,0,0,0,0,0,0l-.2.5c0,.1,0,.2-.1.3h0c0,.2,0,.3-.1.4s-.1.2-.2.2c-.2.4-.5.7-.8,1.1,0,0,0,.1-.2.2,0,0,0,.1-.2.2,0,0-.2.2-.3.2-.2,0-.3.1-.5.2-.2,0-.3,0-.5.1,0,0-.1,0-.2,0s-.1,0-.2,0c0,0,0,0-.1,0,0,0,0,0-.1,0,0,0-.1,0-.2,0h-.2ZM456.9,903.8c.2,0,.3,0,.4-.2h0c.1-.2.2-.3.4-.4.1-.1.2-.3.4-.4h0c0-.2.2-.3.2-.4s.1-.2.2-.4c0-.2,0-.3.1-.5,0-.2,0-.3,0-.5v-.3c0,0,0-.2,0-.3,0-.2,0-.3-.2-.5,0-.1-.2-.3-.4-.3h0c-.1,0-.2-.2-.3-.2-.1,0-.2-.2-.3-.3h0c0-.1-.2-.2-.3-.2,0,0,0,0,0,0,0,0,0,0,0,0,0,0,0,0,0,0,0,0,0,0-.1,0s0,0-.1,0c0,0-.2,0-.2.2s-.1,0-.2.2-.1,0-.2,0c0,0,0,0,0,0s0,0,0,0c0,0,0,.1,0,.2,0,0,0,0,0,.1,0,0-.1,0-.2.1,0,0,0,0,0,.1s0,0,0,.1c0,0,0,0,0,0,0,0,0,0,0,0,0,0,0,0,0,0,0,.1,0,.2,0,.3,0,0,0,.1,0,.2,0,0,0,0,0,.1,0,0,0,0,0,.1s0,.1,0,.2c0,0,0,0,0,0,0,0,0,0,0,0v.2c0,.1,0,.2,0,.3,0,0,0,.2,0,.3h0c0,.2,0,.2,0,.3s0,0,0,.1c0,0,.1.2.2.2,0,.1.2.2.3.3,0,0,0,0,.1,0,0,0,0,0,.1,0s0,0,.1,0h.2c0,0,.1,0,.2,0,0,0,.1,0,.2,0h0ZM457.5,896c0,0,.2,0,.2,0l.3-.2c0,0,0-.1,0-.2v-.2c0,0-.2-.2-.2-.2,0,0,0-.1-.2-.2,0,0-.1-.2-.2-.3,0-.1-.1-.2-.2-.3,0,0-.1,0-.2,0,0,0-.1,0-.2,0-.1,0-.2,0-.3,0,0,0-.1,0-.2,0,0,0-.1,0-.2,0s0,0-.1,0c0,0,0,0,0,0h0s0,0,0,0c.3.2.5.3.7.5,0,0,.1.1.2.2s.1.1.2.2c0,0,.1.1.2.2,0,0,0,0,0,0h0ZM340.8,905.2c0,0-.2,0-.3,0,0,0-.2,0-.3,0,0,0,0,0-.1,0,0,0,0,0-.1,0,0,0-.2-.2-.2-.2,0-.1,0-.2-.1-.3s0-.2,0-.3v-.2c0,0,0-.2,0-.2,0-.2,0-.3,0-.5,0-.2,0-.3,0-.5,0,0,0-.1,0-.2h0c0-.2,0-.3,0-.4,0,0,0-.2,0-.3,0-.2,0-.4,0-.6v-.4c0-.1,0-.2-.1-.3,0-.1,0-.2,0-.3v-.5c0-.2,0-.3,0-.5,0,0,0-.2,0-.3v-.2c0,0,0-.2,0-.2,0,0,0-.1,0-.2v-.5c0,0,0-.2,0-.3,0,0,0,0,0-.1s0,0,0-.1h0c0-.1,0-.4,0-.4v-.2c0-.2,0-.3,0-.4,0-.1,0-.3,0-.4s0-.1,0-.2c0,0,0-.2,0-.3v-.2c.2,0,.2-.2.3-.2s.1-.1.2-.2c0,0,.2,0,.2,0h.2c0,0,.2,0,.2.1.2,0,.3.2.3.4v.2c.1,0,.2.1.2.2s0,.2,0,.2c0,.1,0,.2,0,.4,0,.2,0,.3,0,.5,0,0,0,0,0,.2,0,0,0,.1,0,.2v.2c0,0,0,.2,0,.2,0,0,0,0,0,0h0c0,.1,0,.2,0,.2s0,0,0,.1c0,.1,0,.2,0,.3s0,.2,0,.3v.2h0c0,.2,0,.2,0,.3s0,.2,0,.2c0,.1,0,.3,0,.4,0,.1,0,.3,0,.4,0,0,0,0,0,.1,0,0,0,0,0,.1,0,0,0,.1,0,.2s0,0,0,.1c0,0,0,.1,0,.2,0,0,0,.1,0,.2v.5c0,.1,0,.2,0,.4,0,.1,0,.2,0,.4s0,.2,0,.4c0,0,0,0,0,0h0c0,.2,0,.2,0,.3v.2c0,0,0,.2,0,.3,0,0,0,.2,0,.3,0,.2,0,.3,0,.4,0,0,0,0,0,.1,0,0,0,0,0,0,0,0,0,.1,0,.2-.1.2-.3.3-.5.5h-.1c0,0,0,0,0,0ZM349.9,906.1s0,0-.2,0c0,0,0,0-.1,0-.1,0-.2-.1-.2-.1,0,0-.1-.1-.2-.2s0-.2-.1-.2h0s0-.4,0-.4c0-.1,0-.2,0-.4,0,0,0,0,0,0v-.3c0,0,0-.2,0-.3,0-.1,0-.2,0-.4,0-.1,0-.2,0-.4h0c0-.1,0-.4,0-.4,0,0,0-.2,0-.3,0-.1,0-.2,0-.4v-.4c0-.2.1-.5.2-.7v-.7c.1,0,.1-.3.1-.3,0,0,0-.1,0-.2,0,0,0-.1,0-.1,0,0,0,0,0,0,0,0,0-.1,0-.2,0,0,0-.2,0-.2,0-.1,0-.3,0-.5,0,0,0,0,0,0h0c-.1,0-.3.2-.4.2-.1,0-.3.1-.4.2-.3.1-.6.2-.8.3s-.6.1-.9.2h-.8c-.3.2-.5.2-.8,0,0,0,0,0,0,0,0,0,0,0,0,0,0,0-.1,0-.2-.1,0,0-.1,0-.2,0,0,0,0,0,0,0,0,0,0,0,0,0s0,0,0-.1c0,0,0-.1,0-.2,0,0,0-.1,0-.2,0,0,0,0,0,0,0,0-.1,0-.2-.1,0,0-.1-.1-.2-.2,0,0-.1-.2-.2-.2,0,0-.1-.2-.2-.2,0,0,0,0,0-.1,0,0,0,0,0-.2,0-.1,0-.2,0-.3s0-.2,0-.3l-.2-.5c0-.1,0-.2,0-.3s0-.2,0-.4h0c0-.2,0-.3,0-.5s0-.2.1-.4c0-.1.1-.2.2-.3s.1-.2.2-.3c0-.2.2-.3.3-.4s.2-.3.2-.4l.2-.2c0,0,0-.2.2-.2,0,0,0,0,0,0s0,0,0,0c0,0,0,0,0,0,0,0,.1,0,.1,0l.3-.2c0,0,.1,0,.2,0s.1,0,.2,0c.1,0,.3,0,.4,0s.3,0,.4,0h.3c0,0,.2,0,.3,0,.2,0,.4,0,.5,0,.2,0,.3,0,.5.2.2,0,.5.2.7.3s.4.2.7.3c0,0,0,0,0,0,0,0,0,0,0,0,0,0,0,0,0,0,0,0,0,0,0,0,0,0,0,0,0,0,0-.1,0-.2,0-.3s0-.2,0-.3c0,0,0-.2.1-.2,0,0,.1,0,.2,0s0,0,.1-.1c0,0,0,0,0,0,.2,0,.4-.1.5,0,0,0,0,0,0,0,.2,0,.4.2.5.4,0,0,0,0,0,0s0,0,0,0c0,.2,0,.3,0,.5v4.7s0,0,0,.1c0,.1,0,.3,0,.4s0,.3,0,.4v.4c0,.1,0,.3,0,.4v.8c0,0,0,.3,0,.3,0,0,0,.2,0,.3,0,.2,0,.3,0,.5s0,.3,0,.5c0,0,0,0,0,.1h0c0,.2,0,.3,0,.4s0,.2,0,.2v.2s0,.3,0,.3c0,0,0,0,0,.1v.6c0,0-.2.6-.2.6,0,0,0,.1,0,.2s0,.1,0,.2v.3c-.1.1-.2.2-.3.3,0,0-.1,0-.1.1,0,0,0,0-.1.1,0,0,0,0-.2,0h0s0,0,0,0c0,0,0,0,0,0h0ZM346.6,897.8c.1,0,.2,0,.3,0h.5s.1,0,.2,0,.1,0,.2,0c.1,0,.2,0,.3,0,0,0,0,0,.2,0,0,0,0,0,.2,0,0,0,.1,0,.2,0s.2,0,.2,0c.2,0,.3-.2.3-.5h0c0-.2,0-.2,0-.3v-.3c0-.1,0-.3,0-.4s0-.2,0-.4c0-.2-.1-.3-.2-.4,0-.1-.2-.2-.4-.3h-.1c-.2-.1-.3-.2-.5-.3s-.3-.1-.5-.2c0,0-.2,0-.3,0,0,0-.2,0-.3,0,0,0-.2,0-.3,0,0,0-.2,0-.3,0-.2,0-.3.1-.4.3v.2c0,0-.1,0-.1.1,0,0,0,0,0,0,0,0-.1.1-.2.2,0,0,0,.1-.1.2s0,.1-.1.2c0,0,0,.1,0,.2,0,0,0,.1,0,.1v.3c.1.1.2.2.2.3,0,.1,0,.2,0,.3s0,.1.2.2h.1c.1.2.2.3.3.4,0,0,0,0,.1.1,0,0,.1,0,.2.1,0,0,.1,0,.2,0h0ZM328,728s0,0,0,0h-.3c0,0,0,0,0,0,0,0,0,0,0,0,0,0,0,0-.1,0h-.2c-.1,0-.3,0-.4,0-.1,0-.3,0-.4-.1h-.1c-.2-.1-.3-.3-.4-.4,0,0,0,0,0-.2,0,0,0,0,0-.2,0,0,0,0,0-.1,0-.3.2-.5.3-.7,0,0,.2-.2.2-.2s.2-.2.3-.2.2-.1.3-.2.2-.1.3-.2c.2-.1.4-.3.6-.4s.4-.3.5-.4c.3-.2.5-.5.7-.9,0-.2.2-.5.3-.7,0-.2.2-.4.2-.6,0-.2.1-.4.2-.5s.1-.4.2-.5c0-.2,0-.3.1-.5s0-.3,0-.5c0-.2,0-.4,0-.6,0,0,0-.1-.2-.2,0,0-.1,0-.2,0,0,0-.1,0-.2,0,0,0-.1,0-.2,0,0,0,0,0,0,0s0,0,0,0c-.3.1-.6.3-.8.5,0,0,0,0-.1.1h-.1c0,.2-.2.3-.3.4,0,0-.1.1-.2.2s-.1.1-.2.2c-.1.1-.2.3-.3.5,0,.2-.2.4-.4.5-.1,0-.2.2-.3.3,0,.1-.2.2-.3.3-.1,0-.2,0-.3,0l-.2-.2c0,0-.1-.1-.2-.2,0,0-.1-.1-.2-.2,0,0,0,0,0,0,0,0,0,0,0,0,0,0,0-.1,0-.2s0-.1,0-.2c0,0,0,0,0-.1,0,0,0,0,0-.2v-.2h0c0-.2,0-.2,0-.2,0-.2.2-.4.4-.6.3-.3.7-.6,1-.8,0,0,0,0,.1,0s0,0,.2,0c.2-.1.3-.2.4-.3.1,0,.3-.2.4-.3.1,0,.2-.2.3-.3s.2-.2.4-.2c.2,0,.3-.2.4-.2s.3,0,.5-.1c0,0,0,0,0,0h0c.2,0,.3,0,.4,0,.2,0,.3,0,.4.1.2,0,.4.2.6.3,0,0,0,0,0,0,.1.1.2.2.3.4s.2.3.2.5c0,0,0,.2,0,.3s0,.2,0,.3v.2s0,0,0,.2c0,.4,0,.8-.2,1.2,0,0,0,.2,0,.2,0,0,0,.2,0,.3s0,.2,0,.3,0,.2-.1.3c0,.2-.1.3-.2.4s-.1.3-.2.4c0,.1,0,.3-.1.4v.4c-.2.2-.2.3-.3.5s-.1.3-.2.5c-.2.3-.4.6-.6.8,0,0,0,0-.2.1l-.2.2h0c0,0,0,0,0,0h.3s.2,0,.2,0h.9c0-.1,0-.1,0-.1.2,0,.3,0,.4,0,.2,0,.3,0,.4,0h0c.2,0,.3,0,.5,0h.7c0,0,.2,0,.2,0,0,0,.1,0,.2,0,0,0,.1,0,.2,0,0,0,.1,0,.2,0,.3,0,.6,0,.9.3.2.2.2.3.3.5h0c0,.4,0,.6-.1.8,0,0,0,.1-.1.2,0,0,0,0,0,0s-.1,0-.2,0-.1,0-.2,0c0,0,0,0,0,0s0,0,0,0c-.1,0-.2,0-.3,0-.1,0-.2,0-.3,0-.2,0-.4-.1-.6-.1h-.2s-.1,0-.2,0h-.1s-.6,0-.6,0c0,0-.1,0-.2,0,0,0-.2,0-.2,0s-.2,0-.2,0c0,0,0,0-.1,0,0,0,0,0-.1,0h0s0,0-.1,0c-.1,0-.2,0-.2,0,0,0-.1,0-.3,0h-.2c0,0-.1,0-.2,0,0,0-.1,0-.2,0,0,0,0,0-.1,0s0,0-.1,0c-.1,0-.3,0-.4,0,0,0,0,0-.1,0s0,0-.1,0c0,0,0,0,0,0,0,0,0,0,0,0,0,0,0,0-.1,0,0,0,0,0,0,0s0,0,0,0h-.2s-.1,0-.2,0-.2,0-.2,0h0ZM341.8,728.6c-.1,0-.3,0-.4,0-.1,0-.3,0-.4,0-.3,0-.7-.1-.9-.2h-.2c-.1,0-.2-.1-.3-.2s-.2,0-.3-.1c0,0-.2,0-.3-.1,0,0-.2,0-.3-.1h0c0-.1-.2-.2-.3-.2s-.2,0-.3-.1c-.1,0-.2-.1-.3-.2,0,0-.2-.2-.3-.2,0,0,0,0,0,0,0-.1-.1-.2-.2-.3s-.1-.2-.2-.3v-.3c-.2,0-.2-.1-.2-.2s0-.1,0-.2c0-.1,0-.3,0-.4v-.3c0,0,0-.2,0-.3,0,0,0-.1,0-.2,0,0,0-.1,0-.2v-.2c0,0,0-.1,0-.2,0,0,0-.1,0-.2,0,0,0,0,0,0s0,0,0,0c0,0,0,0,0-.1s0,0,0-.1c0-.1,0-.3,0-.4,0,0,0,0,0,0,0,0,0,0,0,0v-.2c0-.1,0-.2.1-.3s0-.2.1-.3c0,0,0-.1,0-.2,0,0,0,0,0,0s0,0,0,0c0,0,0-.2,0-.2,0,0,0,0,.2-.1,0,0,0,0,0,0,0,0,0,0,0,0h0c0-.1,0-.2,0-.3s0-.1,0-.2c0-.2,0-.3.2-.5,0,0,.1-.1.1-.2,0,0,0,0,0,0,0,0,0,0,0,0,.1-.2.2-.3.2-.5s.1-.3.2-.5c0,0,0,0,0,0,0,0,0-.2.2-.2,0,0,0,0,0,0s0,0,0,0c0,0,.1-.1,0-.2,0,0,0,0,0-.1s0,0,0-.1c0-.1,0-.2,0-.2h.1c0,0,.1-.1.2-.2s0,0,0-.1c0,0,0,0,0,0,0,0,0,0,0,0,0-.1,0-.2.2-.3,0,0,0,0,0,0,0,0-.1-.1-.2-.2,0,0-.1-.1-.2-.2,0,0,0,0-.2-.2,0,0,0-.1-.1-.2,0,0,0,0,0,0v-.4s0,0,0-.1c0,0,0,0,0-.1,0,0,0,0,0-.1,0,0,0,0,0,0,0,0,0,0,0,0,0,0,0,0,.1,0,0,0,.1,0,.1-.1,0,0,0,0,0,0,0,0,.2,0,.2,0,0,0,.2,0,.2,0,0,0,.2,0,.2,0,.1,0,.2,0,.3.1,0,0,.2,0,.3.1h.2c0,0,.2,0,.2,0,0,0,0,0,.2-.1s0,0,.1-.1c.1-.1.2-.2.4-.2,0,0,0,0,0,0h.3c.1,0,.2,0,.3,0s.2,0,.3,0c0,0,0,0,0,0,0,0,0,.1.2.1s.1,0,.2,0c0,0,0,0,.2,0s.2,0,.2.1c0,0,0,0,0,.1,0,0,0,.1.1.1,0,0,0,0,0,0s0,0,0,0c0,0,0,.1,0,.2,0,.2-.2.4-.4.5,0,0,0,0-.1,0h-.2s0,0-.2,0c0,0,0,0,0,0,0,0,0,0,0,0s0,0,0,0h0s0,0,0,0c0,0,0,0,0,0,0,0,.2.1.2.2s.1.1.2.2c0,0,.1.2.2.2s.1.2.2.2c0,0,0,.2.2.2l.2.2.2.3c0,0,.1.2.2.3s.1.2.2.3c.1.2.2.3.3.5,0,.2.2.3.3.5.2.3.3.7.5,1,.1.2.2.5.3.8s.1.5.2.8l.2.8c0,0,0,.2,0,.3,0,0,0,.2,0,.3,0,.2,0,.4-.2.6,0,.2-.2.5-.3.7,0,.2-.1.3-.2.5s-.2.3-.2.5c-.1.2-.2.4-.4.6,0,0,0,.1-.1.2,0,0,0,.1-.1.2,0,0-.1.1-.2.2s-.1.1-.2.2l-.2.2c0,0-.2.1-.3.2s-.2.1-.3.2c-.2,0-.4.2-.6.2-.2,0-.5.1-.8.1h0s0,0,0,0h-.3ZM341.3,726.7h.2c0,0,.1,0,.2,0,0,0,.2,0,.2,0,0,0,.2,0,.2,0s.2,0,.2,0c0,0,.1,0,.2,0,.1,0,.3-.1.5-.2,0,0,.1,0,.2-.1,0-.1.2-.2.4-.3,0,0,0,0,.1-.1,0,0,0-.1.2-.2,0,0,0-.1.1-.2l.2-.5c0-.2.2-.3.2-.5,0-.2.1-.4,0-.5h0c0-.2,0-.3,0-.3,0,0,0-.2,0-.2,0-.2,0-.3-.1-.5v-.5c-.1-.2-.2-.5-.3-.7s-.2-.4-.3-.7c0-.2-.2-.3-.3-.5s-.2-.3-.3-.5c0,0,0-.2-.1-.2,0-.1-.1-.2-.2-.3s-.1-.2-.2-.3l-.5-.7c0-.1-.1-.2-.2-.3s-.2-.2-.2-.2c0,0,0,0,0,0,0,0,0,0,0,0h0s0,0,0,0l-.5.7c-.4.5-.7,1.1-1,1.8,0,.2-.2.4-.3.7s-.2.5-.3.7c0,.2-.2.5-.3.8s-.2.5-.2.8c-.1.3-.2.7-.2,1,0,0,0,0,0,.1,0,0,0,.2,0,.3s0,.2,0,.3c0,.2.2.4.3.6l.4.3c.1,0,.2.2.4.3s.3.2.4.2c.2,0,.3.1.5.2s.3,0,.5,0h0ZM328.6,564.9s0,0,0,0h-.3c0,0,0,0,0,0,0,0,0,0,0,0,0,0,0,0-.1,0h-.2c-.1,0-.3,0-.4,0-.1,0-.3,0-.4-.1h-.1c-.2-.1-.3-.3-.4-.4,0,0,0,0,0-.2,0,0,0,0,0-.2,0,0,0,0,0-.1,0-.3.2-.5.3-.7,0,0,.2-.2.2-.2s.2-.2.3-.2.2-.1.3-.2.2-.1.3-.2c.2-.1.4-.3.6-.4s.4-.3.5-.4c.3-.2.5-.5.7-.9,0-.2.2-.5.3-.7,0-.2.2-.4.2-.6,0-.2.1-.4.2-.5s.1-.4.2-.5c0-.2,0-.3.1-.5s0-.3,0-.5c0-.2,0-.4,0-.6,0,0,0-.1-.2-.2,0,0-.1,0-.2,0,0,0-.1,0-.2,0,0,0-.1,0-.2,0,0,0,0,0,0,0s0,0,0,0c-.3.1-.6.3-.8.5,0,0,0,0-.1.1h-.1c0,.2-.2.3-.3.4,0,0-.1.1-.2.2s-.1.1-.2.2c-.1.1-.2.3-.3.5,0,.2-.2.4-.4.5-.1,0-.2.2-.3.3,0,.1-.2.2-.3.3-.1,0-.2,0-.3,0l-.2-.2c0,0-.1-.1-.2-.2,0,0-.1-.1-.2-.2,0,0,0,0,0,0,0,0,0,0,0,0,0,0,0-.1,0-.2s0-.1,0-.2c0,0,0,0,0-.1,0,0,0,0,0-.2v-.2h0c0-.1,0-.2,0-.2,0-.2.2-.4.4-.6.3-.3.7-.6,1-.8,0,0,0,0,.1,0s0,0,.2,0c.2-.1.3-.2.4-.3.1,0,.3-.2.4-.3.1,0,.2-.2.3-.3s.2-.2.4-.2c.2,0,.3-.2.4-.2s.3,0,.5-.1c0,0,0,0,0,0h0c.2,0,.3,0,.4,0,.2,0,.3,0,.4.1.2,0,.4.2.6.3,0,0,0,0,0,0,.1.1.2.2.3.4s.2.3.2.5c0,0,0,.2,0,.3s0,.2,0,.3v.2s0,.2,0,.2c0,.4,0,.8-.2,1.2,0,0,0,.2,0,.2,0,0,0,.2,0,.3s0,.2,0,.3,0,.2-.1.3c0,.2-.1.3-.2.4s-.1.3-.2.4c0,.1,0,.3-.1.4v.4c-.2.2-.2.3-.3.5s-.1.3-.2.5c-.2.3-.4.6-.6.8,0,0,0,0-.2.1l-.2.2h0c0,0,0,0,0,0h.3s.2,0,.2,0h.9c0-.1,0-.1,0-.1.2,0,.3,0,.4,0,.2,0,.3,0,.4,0h0c.2,0,.3,0,.5,0h.7c0,0,.2,0,.2,0,0,0,.1,0,.2,0,0,0,.1,0,.2,0,0,0,.1,0,.2,0,.3,0,.6,0,.9.3.2.2.2.3.3.5h0c0,.4,0,.6-.1.8,0,0,0,.1-.1.2,0,0,0,0,0,0s-.1,0-.2,0-.1,0-.2,0c0,0,0,0,0,0s0,0,0,0c-.1,0-.2,0-.3,0-.1,0-.2,0-.3,0-.2,0-.4-.1-.6-.1h-.2s-.1,0-.2,0h-.1s-.6,0-.6,0c0,0-.1,0-.2,0,0,0-.2,0-.2,0s-.2,0-.2,0c0,0,0,0-.1,0s0,0-.1,0h0s0,0-.1,0c-.1,0-.2,0-.2,0,0,0-.1,0-.3,0h-.2c0,0-.1,0-.2,0,0,0-.1,0-.2,0,0,0,0,0-.1,0s0,0-.1,0c-.1,0-.3,0-.4,0,0,0,0,0-.1,0s0,0-.1,0c0,0,0,0,0,0,0,0,0,0,0,0,0,0,0,0-.1,0,0,0,0,0,0,0s0,0,0,0h-.2s-.1,0-.2,0-.2,0-.2,0h0ZM339.2,565.7c0,0-.1,0-.2,0,0,0,0,0-.1,0,0,0,0,0-.1,0,0,0,0,0-.1,0s0,0,0-.1c0,0,0,0,0,0,0,0-.1,0-.1-.1,0,0,0-.2,0-.2,0,0,0-.2,0-.2v-.4c0-.1,0-.2,0-.3v-.5c0,0,0-.1,0-.2,0-.2,0-.5,0-.7,0,0,0-.1,0-.2s0-.1,0-.2v-.4c0-.1,0-.3,0-.4v-.6c0,0,0-.2,0-.3v-.4s0-.4,0-.4c0,0,0,0,0-.1v-.2c0,0,0-.1,0-.2v-1c0,0,0-.3,0-.3v-.3c0-.2,0-.3,0-.5,0-.2,0-.3,0-.5h0c0-.1,0-.1,0-.1,0-.2,0-.3,0-.5,0-.2,0-.3,0-.5v-.6c0-.2-.1-.5,0-.7,0-.1,0-.2.1-.3,0,0,0,0,0,0,0,0,0,0,0,0,0,0,0,0,0-.1s0,0,0,0h0s0,0,0,0h0s0,0,0,0c0,0,0,0,0,0,0,0,0,0,0,0,0,0,0,0,0,0,0,0,0,0,0,0,0,0,.1,0,.2,0s.1,0,.2,0c0,0,.1,0,.2.2,0,.1,0,.2.1.3,0,.1,0,.2,0,.3v.2c0,0,0,.2,0,.3v.6c0,0,0,.2,0,.2h0c0,.1,0,.2,0,.2v.2c0,0,0,.2,0,.3,0,.2,0,.3,0,.5,0,.2,0,.3,0,.5v.2c0,0,0,.1,0,.2,0,0,0,0,0,.1v.5c0,0,0,.2,0,.2,0,0,0,.2,0,.3s0,.2,0,.3v.9c0,0,0,.4,0,.4v.6c0,0,0,.1,0,.2,0,0,0,0,0,.1h0c0,.1,0,.2,0,.2h0c0,.2,0,.3,0,.4v.5c0,0,0,.1,0,.2,0,0,0,.1,0,.2v.2c0,0,0,.1,0,.2s0,.1,0,.2c0,0,0,0,0,0,0,.2,0,.3,0,.4,0,.2,0,.3,0,.4,0,0,0,0,0,.1h0c0,.1,0,.2,0,.2,0,0,0,.1-.1.2,0,0,0,0,0,0,0,0-.2,0-.2.2-.1,0-.2.1-.4.1h0ZM140.4,401.7s0,0,0,0h-.3c0-.1,0,0,0,0,0,0,0,0-.1,0,0,0,0,0-.1,0h-.2c-.1,0-.3,0-.4,0-.1,0-.3,0-.4-.1h-.1c-.2-.1-.3-.3-.4-.4,0,0,0-.1,0-.1,0,0,0-.1,0-.1,0,0,0,0,0-.1,0-.3.1-.5.3-.7,0,0,.2-.2.2-.2s.2-.2.3-.2.2-.1.3-.2c.1,0,.2-.1.3-.2.2-.1.4-.3.6-.4s.4-.3.5-.4c.3-.2.5-.5.7-.9,0-.2.2-.5.3-.7,0-.2.2-.4.2-.6,0-.2.1-.4.2-.5s.1-.4.2-.5c0-.1.1-.3.1-.5s0-.3,0-.5c0-.2,0-.4,0-.6,0,0,0-.1-.2-.2,0,0-.1,0-.2,0,0,0-.1,0-.2,0,0,0-.1,0-.2,0,0,0,0,0,0,0s0,0,0,0c-.3.1-.6.3-.8.5,0,0,0,0-.1.1h-.1c0,.2-.2.3-.3.4,0,0-.1.1-.2.2,0,0-.1.1-.2.2-.1.1-.2.3-.3.5,0,.2-.2.4-.4.5-.1,0-.2.2-.3.3,0,.1-.2.2-.3.3-.1,0-.2,0-.3,0l-.2-.2c0,0-.1-.1-.2-.2,0,0-.1-.1-.2-.2,0,0,0,0,0,0s0,0,0-.1c0,0,0-.1,0-.2s0-.1,0-.2c0,0,0,0,0-.1,0,0,0-.1,0-.1h0c0-.1,0-.3,0-.3h0c0-.4.2-.5.4-.7.3-.3.7-.6,1-.8,0,0,0,0,.1-.1,0,0,.1,0,.1-.1.1-.1.3-.2.4-.3s.3-.2.4-.3c.1,0,.2-.2.4-.3s.2-.2.4-.2c.1,0,.3-.1.4-.2s.3-.1.5-.1c0,0,0,0,.1,0h.1c.1,0,.3,0,.4,0s.3,0,.4.1c.2,0,.4.2.6.3,0,0,0,0,.1,0,.1.1.2.2.4.4.1.1.2.3.2.5,0,0,0,.2.1.3s0,.2,0,.3h0v.3c0,.4,0,.8-.2,1.2,0,0,0,.2,0,.2s0,.2,0,.3,0,.2,0,.3,0,.2-.1.3c0,.1-.1.3-.2.4s-.1.3-.2.4c0,.1-.1.3-.1.4v.4c-.2.1-.2.3-.3.5,0,.1-.1.3-.2.5-.2.3-.4.6-.6.8,0,0-.1,0-.1.1h-.1v.2s0,0,0,0h.3s.2,0,.2,0h.9c0-.1,0-.1,0-.1.1,0,.3,0,.4,0,.1,0,.3,0,.4,0h.1c.2,0,.3,0,.5,0h.7c0,0,.2,0,.2,0,0,0,.1,0,.2,0,0,0,.1,0,.2,0,0,0,.1,0,.2,0,.3,0,.6,0,.9.3.1.1.2.3.3.5h0c0,.4,0,.6-.1.8,0,0-.1.1-.1.2,0,0,0,0-.1,0s-.1,0-.2,0c0,0-.1,0-.2,0,0,0,0,0,0,0s0,0,0,0c-.1,0-.2,0-.4,0-.1,0-.2,0-.3,0-.2,0-.4-.1-.6-.1h-.2s-.1,0-.2,0h-.1s-.6,0-.6,0c0,0-.1,0-.2,0,0,0-.2,0-.2,0s-.2,0-.2,0c0,0,0,0-.1,0s0,0-.1,0h0s0,0-.1,0c-.1,0-.2,0-.2,0,0,0-.1,0-.3,0h-.2c0,0-.1,0-.2,0,0,0-.1,0-.2,0,0,0-.1,0-.1,0s0,0-.1,0c-.1,0-.3,0-.4,0,0,0,0,0-.1,0s0,0-.1,0c0,0,0,0,0,0,0,0,0,0,0,0,0,0,0,0-.1,0,0,0,0,0,0,0,0,0,0,0,0,0h-.2s-.1,0-.2,0-.1,0-.2,0h0ZM152.1,401.7s0,0,0,0h-.3c0-.1,0,0,0,0,0,0,0,0-.1,0,0,0,0,0-.1,0h-.2c-.1,0-.3,0-.4,0-.1,0-.3,0-.4-.1h-.1c-.2-.1-.3-.3-.4-.4,0,0,0-.1,0-.1,0,0,0-.1,0-.1,0,0,0,0,0-.1,0-.3.1-.5.3-.7,0,0,.2-.2.2-.2s.2-.2.3-.2.2-.1.3-.2.2-.1.3-.2c.2-.1.4-.3.6-.4s.4-.3.5-.4c.3-.2.5-.5.7-.9,0-.2.2-.5.3-.7,0-.2.2-.4.2-.6,0-.2.1-.4.2-.5s.1-.4.2-.5c0-.1.1-.3.1-.5s0-.3,0-.5c0-.2,0-.4,0-.6,0,0,0-.1-.2-.2,0,0-.1,0-.2,0,0,0-.1,0-.2,0,0,0-.1,0-.2,0,0,0,0,0,0,0s0,0,0,0c-.3.1-.6.3-.8.5,0,0,0,0-.1.1h-.1c0,.2-.2.3-.3.4,0,0-.1.1-.2.2,0,0-.1.1-.2.2-.1.1-.2.3-.3.5,0,.2-.2.4-.4.5-.1,0-.2.2-.3.3,0,.1-.2.2-.3.3-.1,0-.2,0-.3,0l-.2-.2c0,0-.1-.1-.2-.2,0,0-.1-.1-.2-.2,0,0,0,0,0,0s0,0,0-.1c0,0,0-.1,0-.2s0-.1,0-.2c0,0,0,0,0-.1,0,0,0-.1,0-.1h0c0-.1,0-.3,0-.3,0,0,0,0,0-.1,0-.2.2-.4.4-.6.3-.3.7-.6,1-.8,0,0,0,0,.1-.1s.1,0,.1-.1c.1-.1.3-.2.4-.3s.3-.2.4-.3c.1,0,.2-.2.4-.3s.2-.2.4-.2c.1,0,.3-.1.4-.2s.3-.1.5-.1c0,0,0,0,.1,0h.1c.1,0,.3,0,.4,0s.3,0,.4.1c.2,0,.4.2.6.3,0,0,0,0,.1,0,.1.1.2.2.4.4.1.1.2.3.2.5,0,0,0,.2.1.3s0,.2,0,.3h0c0,.2,0,.2,0,.3,0,.4,0,.8-.2,1.2,0,0,0,.2,0,.2s0,.2,0,.3,0,.2,0,.3,0,.2-.1.3c0,.1-.1.3-.2.4s-.1.3-.2.4c0,.1-.1.3-.1.4v.4c-.2.1-.2.3-.3.5s-.1.3-.2.5c-.2.3-.4.6-.6.8,0,0-.1,0-.1.1h-.1v.2s0,0,0,0h.3s.2,0,.2,0h.9c0-.1,0-.1,0-.1.1,0,.3,0,.4,0,.1,0,.3,0,.4,0h.1c.2,0,.3,0,.5,0h.7c0,0,.2,0,.2,0,0,0,.1,0,.2,0,0,0,.1,0,.2,0,0,0,.1,0,.2,0,.3,0,.6,0,.9.3.1.1.2.3.3.5h0c0,.4,0,.6-.1.8,0,0-.1.1-.1.2,0,0,0,0-.1,0s-.1,0-.2,0c0,0-.1,0-.2,0,0,0,0,0,0,0s0,0,0,0c-.1,0-.2,0-.4,0-.1,0-.2,0-.3,0-.2,0-.4-.1-.6-.1h-.2s-.1,0-.2,0h-.1s-.6,0-.6,0c0,0-.1,0-.2,0,0,0-.2,0-.2,0s-.2,0-.2,0c0,0,0,0-.1,0,0,0,0,0-.1,0h0s0,0-.1,0c-.1,0-.2,0-.2,0,0,0-.1,0-.3,0h-.2c0,0-.1,0-.2,0,0,0-.1,0-.2,0,0,0-.1,0-.1,0s0,0-.1,0c-.1,0-.3,0-.4,0,0,0,0,0-.1,0s0,0-.1,0c0,0,0,0,0,0,0,0,0,0,0,0,0,0,0,0-.1,0,0,0,0,0,0,0,0,0,0,0,0,0h-.2s-.1,0-.2,0-.1,0-.2,0h0ZM169.5,593.3s0,0,0,0h-.3c0,0,0,0,0,0,0,0,0,0-.1,0,0,0,0,0-.1,0h-.2c-.1,0-.3,0-.4,0-.1,0-.3,0-.4-.1h-.1c-.2-.1-.3-.3-.4-.4,0,0,0,0,0-.2,0,0,0,0,0-.2,0,0,0,0,0-.1,0-.3.1-.5.3-.7,0,0,.2-.2.2-.2s.2-.2.3-.2.2-.1.3-.2.2-.1.3-.2c.2-.1.4-.3.6-.4s.4-.3.5-.4c.3-.2.5-.5.7-.9,0-.2.2-.5.3-.7,0-.2.2-.4.2-.6,0-.2.1-.4.2-.5s.1-.4.2-.5c0-.2.1-.3.1-.5s0-.3,0-.5c0-.2,0-.4,0-.6,0,0,0-.1-.2-.2,0,0-.1,0-.2,0,0,0-.1,0-.2,0,0,0-.1,0-.2,0,0,0,0,0,0,0s0,0,0,0c-.3.1-.6.3-.8.5,0,0,0,0-.1.1h-.1c0,.2-.2.3-.3.4,0,0-.1.1-.2.2,0,0-.1.1-.2.2-.1.1-.2.3-.3.5,0,.2-.2.4-.4.5-.1,0-.2.2-.3.3,0,.1-.2.2-.3.3-.1,0-.2,0-.3,0l-.2-.2c0,0-.1-.1-.2-.2,0,0-.1-.1-.2-.2,0,0,0,0,0,0s0,0,0,0c0,0,0-.1,0-.2s0-.1,0-.2c0,0,0,0,0-.1,0,0,0,0,0-.2v-.2h0c0-.2,0-.2,0-.2,0-.2.2-.4.4-.6.3-.3.7-.6,1-.8,0,0,0,0,.1,0s.1,0,.1,0c.1-.1.3-.2.4-.3s.3-.2.4-.3c.1,0,.2-.2.4-.3s.2-.2.4-.2c.1,0,.3-.2.4-.2s.3,0,.5-.1c0,0,0,0,.1,0h.1c.1,0,.3,0,.4,0,.1,0,.3,0,.4.1.2,0,.4.2.6.3,0,0,0,0,.1,0,.1.1.2.2.4.4.1.1.2.3.2.5,0,0,0,.2.1.3s0,.2,0,.3v.2s0,0,0,.2c0,.4,0,.8-.2,1.2,0,0,0,.2,0,.2s0,.2,0,.3,0,.2,0,.3,0,.2-.1.3c0,.2-.1.3-.2.4s-.1.3-.2.4c0,.1-.1.3-.1.4v.4c-.2.2-.2.3-.3.5s-.1.3-.2.5c-.2.3-.4.6-.6.8,0,0-.1,0-.1.1v.2c-.1,0-.1,0-.1,0,0,0,0,0,0,0h.3s.2,0,.2,0h.9c0-.1,0-.1,0-.1.1,0,.3,0,.4,0,.1,0,.3,0,.4,0h.1c.2,0,.3,0,.5,0h.7c0,0,.2,0,.2,0,0,0,.1,0,.2,0,0,0,.1,0,.2,0,0,0,.1,0,.2,0,.3,0,.6,0,.9.3.1.2.2.3.3.5h0c0,.4,0,.6-.1.8,0,0-.1.1-.1.2,0,0,0,0-.1,0s-.1,0-.2,0c0,0-.1,0-.2,0,0,0,0,0,0,0s0,0,0,0c-.1,0-.2,0-.4,0-.1,0-.2,0-.3,0-.2,0-.4-.1-.6-.1h-.2s-.1,0-.2,0h-.1s-.6,0-.6,0c0,0-.1,0-.2,0,0,0-.2,0-.2,0s-.2,0-.2,0c0,0,0,0-.1,0,0,0,0,0-.1,0h0s0,0-.1,0c-.1,0-.2,0-.2,0,0,0-.1,0-.3,0h-.2c0,0-.1,0-.2,0,0,0-.1,0-.2,0,0,0-.1,0-.1,0s0,0-.1,0c-.1,0-.3,0-.4,0,0,0,0,0-.1,0s0,0-.1,0c0,0,0,0,0,0,0,0,0,0,0,0,0,0,0,0-.1,0,0,0,0,0,0,0,0,0,0,0,0,0h-.2s-.1,0-.2,0-.1,0-.2,0h0ZM182,594.1c-.1,0-.3,0-.4,0s-.3,0-.4-.2c0,0,0,0,0,0,0,0,0,0,0,0,0,0-.1,0-.2-.1,0,0-.1,0-.2-.2l-.3-.3h0c0-.1,0-.2,0-.2,0,0,0,0,0-.1s0,0,0-.1c0,0,0-.2.2-.2,0,0,.1,0,.1-.1,0-.1,0-.2.2-.3,0,0,.2-.1.3-.2.1,0,.3-.1.5-.1h.1s0,0,.1,0h.1s0,0,.1,0c.1,0,.3,0,.4,0,.1,0,.3,0,.5-.1l.5-.2.6-.2c.2,0,.3-.1.4-.2.1,0,.2,0,.3-.1l.3-.2c0,0,.2,0,.2-.2s.1-.1.2-.2c0,0,.1-.2.2-.2,0-.1.1-.3,0-.4,0,0,0-.2,0-.2,0,0,0-.2,0-.2,0,0,0-.2-.1-.2s0-.2-.1-.3c0,0,0,0,0,0,0,0-.1-.2-.2-.3s-.1-.2-.2-.3c0,0-.1-.1-.2-.2s-.1,0-.2-.1c0,0-.1,0-.1,0,0,0-.1,0-.1,0,0,0-.1,0-.2,0,0,0-.1,0-.2,0-.2,0-.4,0-.5-.1h-.5c-.2-.1-.3-.2-.5-.2-.2,0-.2-.1-.3-.1h-.1s-.2,0-.4-.1c0,0-.1,0-.2,0s-.1,0-.3,0c0,0,0,0,0-.1s0,0,0-.1c0,0,0-.1,0-.2,0,0,0-.1,0-.2,0,0,0-.1,0-.2,0,0,0,0,0,0,0,0,0,0,0-.1s0,0,0,0c0,0,0-.1,0-.2v-.2c.2-.2.4-.4.5-.6.2-.2.4-.5.5-.7.2-.2.4-.4.5-.7,0-.1.2-.2.2-.3v-.2c.2,0,.2-.1.3-.2,0,0,0,0,0-.1,0,0,0,0,0-.1,0,0,0-.1,0-.2,0,0,0-.1,0-.2,0,0,0,0,0,0h0s0,0,0,0c-.1,0-.2,0-.4,0s-.2,0-.4,0h-.2s-.1,0-.1,0,0,0-.1,0c-.1,0-.3,0-.4,0s-.3,0-.4,0h0c-.2,0-.4.1-.6.2s-.4.1-.6.2c0,0-.2,0-.3,0,0,0-.2,0-.3,0,0,0-.1,0-.2,0s-.1,0-.1,0c-.1,0-.3.1-.4.2,0,0,0,0,0,0-.1,0-.2,0-.3,0s-.2,0-.3,0c-.1,0-.2,0-.3-.1,0,0,0,0-.1,0,0,0,0,0,0,0,0,0,0,0,0,0,0,0,0,0,0-.1s0,0,0-.1,0,0,0-.2c0-.2,0-.4.1-.5,0,0,0-.1.1-.2s.1-.1.2-.2c.2-.2.4-.2.6-.3h.5c.1,0,.2,0,.3,0,0,0,.2,0,.3,0,.2,0,.3,0,.5,0s.3,0,.5,0c.2,0,.3,0,.5,0s.3,0,.5,0c.1,0,.2,0,.4,0h.5c.1,0,.2,0,.3,0s.1,0,.2,0c0,0,.2,0,.2,0,0,0,.2,0,.2,0,.1,0,.2,0,.3,0,0,0,.2,0,.3,0h.4c0,.1.1.2.1.2s0,0,.1,0c.1,0,.2.2.3.2s.1.2.2.3c.1.2.2.4.1.6,0,.2,0,.3,0,.4s0,.3-.1.4l-.3.6s0,.1,0,.2v.2c0,0-.3.3-.3.3,0,.1-.2.3-.2.4,0,.1-.2.3-.3.4h0c0,0,0,.1,0,.2,0,0,.1,0,.1,0,.2,0,.3,0,.5,0s.3,0,.5.1c.2,0,.4,0,.6.2s.4.2.5.3c.3.2.6.5.8.8.1.1.2.3.3.4s.2.3.3.5l.3.5c.2.4.3.8.3,1.2,0,.1,0,.2,0,.3,0,.1,0,.2,0,.3,0,0,0,.1,0,.2,0,.1,0,.3-.1.4s-.1.2-.2.4c0,0-.2.2-.2.3,0,.1-.1.2-.3.3,0,0,0,0,0,0,0,0-.1,0-.2.2,0,0-.1,0-.2.2,0,0-.1,0-.2.1,0,0-.1,0-.2.1-.2.2-.4.2-.6.2-.2,0-.4,0-.5,0l-.5.2s-.1,0-.2,0c0,0-.1,0-.2,0-.1,0-.3,0-.4.1-.1,0-.3,0-.4.1s-.3.1-.4.2l-.2.2s-.1,0-.1.1c0,0-.2,0-.3,0h0ZM185,786.3s0,0,0,0h-.3c0,0,0,0,0,0,0,0,0,0-.1,0,0,0,0,0-.1,0h-.2c-.1,0-.3,0-.4,0-.1,0-.3,0-.4-.1h-.1c-.2-.1-.3-.3-.4-.4,0,0,0,0,0-.2,0,0,0,0,0-.2,0,0,0,0,0-.1,0-.3.1-.5.3-.7,0,0,.2-.2.2-.2s.2-.2.3-.2.2-.1.3-.2.2-.1.3-.2c.2-.1.4-.3.6-.4s.4-.3.5-.4c.3-.2.5-.5.7-.9,0-.2.2-.5.3-.7,0-.2.2-.4.2-.6,0-.2.1-.4.2-.5s.1-.4.2-.5c0-.2.1-.3.1-.5s0-.3,0-.5c0-.2,0-.4,0-.6,0,0,0-.1-.2-.2,0,0-.1,0-.2,0,0,0-.1,0-.2,0,0,0-.1,0-.2,0,0,0,0,0,0,0s0,0,0,0c-.3.1-.6.3-.8.5,0,0,0,0-.1.1h-.1c0,.2-.2.3-.3.4,0,0-.1.1-.2.2,0,0-.1.1-.2.2-.1.1-.2.3-.3.5,0,.2-.2.4-.4.5-.1,0-.2.2-.3.3,0,.1-.2.2-.3.3-.1,0-.2,0-.3,0l-.2-.2c0,0-.1-.1-.2-.2,0,0-.1-.1-.2-.2,0,0,0,0,0,0s0,0,0,0c0,0,0-.1,0-.2s0-.1,0-.2c0,0,0,0,0-.1,0,0,0,0,0-.2v-.2h0c0-.1,0-.2,0-.2,0-.2.2-.4.4-.6.3-.3.7-.6,1-.8,0,0,0,0,.1,0,0,0,.1,0,.1,0,.1-.1.3-.2.4-.3s.3-.2.4-.3c.1,0,.2-.2.4-.3s.2-.2.4-.2c.1,0,.3-.2.4-.2s.3,0,.5-.1c0,0,0,0,.1,0h.1c.1,0,.3,0,.4,0,.1,0,.3,0,.4.1.2,0,.4.2.6.3,0,0,0,0,.1,0,.1.1.2.2.4.4.1.1.2.3.2.5,0,0,0,.2.1.3s0,.2,0,.3v.2s0,.2,0,.2c0,.4,0,.8-.2,1.2,0,0,0,.2,0,.2s0,.2,0,.3,0,.2,0,.3,0,.2-.1.3c0,.2-.1.3-.2.4s-.1.3-.2.4c0,.1-.1.3-.1.4v.4c-.2.2-.2.3-.3.5s-.1.3-.2.5c-.2.3-.4.6-.6.8,0,0-.1,0-.1.1v.2c-.1,0-.1,0-.1,0,0,0,0,0,0,0h.3s.2,0,.2,0h.9c0-.1,0-.1,0-.1.1,0,.3,0,.4,0,.1,0,.3,0,.4,0h.1c.2,0,.3,0,.5,0h.7c0,0,.2,0,.2,0,0,0,.1,0,.2,0,0,0,.1,0,.2,0,0,0,.1,0,.2,0,.3,0,.6,0,.9.3.1.2.2.3.3.5h0c0,.4,0,.6-.1.8,0,0-.1.1-.1.2,0,0,0,0-.1,0s-.1,0-.2,0c0,0-.1,0-.2,0,0,0,0,0,0,0s0,0,0,0c-.1,0-.2,0-.4,0-.1,0-.2,0-.3,0-.2,0-.4-.1-.6-.1h-.2s-.1,0-.2,0h-.1s-.6,0-.6,0c0,0-.1,0-.2,0,0,0-.2,0-.2,0s-.2,0-.2,0c0,0,0,0-.1,0s0,0-.1,0h0s0,0-.1,0c-.1,0-.2,0-.2,0,0,0-.1,0-.3,0h-.2c0,0-.1,0-.2,0,0,0-.1,0-.2,0,0,0-.1,0-.1,0s0,0-.1,0c-.1,0-.3,0-.4,0,0,0,0,0-.1,0s0,0-.1,0c0,0,0,0,0,0,0,0,0,0,0,0,0,0,0,0-.1,0,0,0,0,0,0,0,0,0,0,0,0,0h-.2s-.1,0-.2,0-.1,0-.2,0h0ZM200.2,786.3h-.3c-.1,0-.2,0-.3-.1,0,0,0,0-.1,0-.1,0-.2-.1-.2-.2h0c-.1-.3-.1-.5-.1-.8h0c0-.1,0-.2,0-.2v-.3c0,0,0-.2,0-.3v-.3s0,0,0-.1v-.5c0-.1,0-.3,0-.4,0,0,0,0,0-.1v-.3c0,0,0-.2,0-.2,0,0,0,0,0-.1s0,0,0-.1h0c0-.2,0-.2-.1-.2h-.2c0,0-.1,0-.2,0h-.2c0,0-.2,0-.2,0h-.4c-.1,0-.2,0-.4,0h-.1c-.1,0-.2,0-.4,0-.1,0-.2,0-.4,0,0,0-.1,0-.2,0-.2,0-.4,0-.5.2,0,0-.1,0-.2,0,0,0-.1,0-.2,0,0,0-.1.1-.1.2,0,0,0,.1,0,.2s0,.2,0,.2,0,.2-.1.3c0,0-.1.1-.3.1s-.2,0-.3-.1c0,0,0-.1-.1-.2,0-.1,0-.2,0-.3v-.3c-.1,0-.1-.2-.2-.3v-.2c-.3-.3-.4-.5-.4-.8s0-.2,0-.2v-.2c0,0,.1-.1.1-.2,0,0,0-.1,0-.2,0-.2,0-.5.1-.7,0-.2.1-.5.2-.8s.1-.5.2-.8v-.4c.2-.1.2-.3.2-.4,0-.2.1-.4.2-.6s.1-.4.2-.6c0,0,0,0,0-.1,0-.2.1-.3.2-.5s.1-.3.2-.5h0c0-.2,0-.2,0-.3,0,0,0,0,0-.1,0,0,.1-.1.2-.2s.1,0,.2-.1c0,0,.2,0,.3,0s.2,0,.3,0c0,0,.2,0,.2,0s.1,0,.2,0c0,0,.2,0,.3.2.2.2.3.5.3.8,0,.2,0,.5-.2.7,0,.1-.1.2-.1.4s0,.3-.1.4v.3c-.1.1-.2.2-.2.3,0,0,0,0,0,.1,0,0,0,0,0,.1,0,0,0,0,0,0,0,0,0,0,0,0,0,0-.1.2-.1.3,0,0,0,.1,0,.2s0,.1,0,.2c0,0,0,.1,0,.2,0,0,0,.1,0,.2,0,.1-.1.2-.2.4,0,0,0,.2,0,.2s0,.2,0,.2v.5c-.1,0,0,0,0,0h.3c0,0,.1,0,.2,0h.2c0,0,.2,0,.3,0,.1,0,.2,0,.3,0s.2,0,.3,0c0,0,0,0,.1,0h.4c0,0,.2,0,.3,0h.1s0,0,.1,0h.2s0,0,0,0h0c0,0,0,0,0,0v-1.4c0,0,0-.1,0-.2v-.2c0,0,0-.1,0-.2,0,0,0-.1,0-.2,0-.2,0-.5,0-.7,0-.2,0-.5,0-.7,0-.2,0-.3,0-.5,0-.2,0-.3,0-.5,0-.1,0-.2,0-.3,0,0,0-.2,0-.3,0-.1,0-.2.2-.4,0,0,0-.2.2-.2s.1-.1.2-.2h.1s0,0,0,0,0,0,0,0c0,0,.2,0,.3,0h.4c0,0,0,.1,0,.1,0,0,0,0,0,0h0c0,0,0,.1,0,.2,0,0,0,0,0,.1,0,.1.1.2.1.4h0c0,.1,0,.2,0,.2,0,0,.1.1,0,.2h0c0,.1,0,.2,0,.3s0,.2,0,.3c0,0,0,0,0,0h0s0,0,0,0h0c0,.1,0,.2,0,.2,0,0,0,0,0,0,0,0,0,0,0,0v.2s0,.1,0,.2c0,0,0,0,0,0h0c0,.1,0,.2,0,.2,0,0,0,0,0,0v.3c0,.1,0,.2,0,.3v.9c0,0,0,.1,0,.2,0,0,0,.1,0,.2,0,0,0,.1,0,.2v.2s0,.1,0,.2v.2c0,0,0,.2,0,.2v.4s0,0,0,0c0,0,0,0,0,0h.5c0,0,.2,0,.3,0h.6c.2,0,.4,0,.6,0h.4c0,0,.1,0,.1,0,0,0,.2,0,.3,0s.1,0,.2.2c0,0,0,0,0,0,0,0,0,.2.1.2,0,0,0,.1,0,.2h0c0,.2,0,.3,0,.4,0,0,0,0,0,0s0,0,0,0c0,0,0,0,0,0,0,0,0,0,0,0s0,0,0,0c0,0,0,0,0,0s0,0,0,0c0,0-.1,0-.2.1,0,0,0,0,0,0s0,0,0,0c0,0,0,0,0,0,0,0,0,0-.1,0h0c0,.2-.1.2-.2.3,0,0-.2,0-.3,0h-.3c-.1,0-.3,0-.5,0h-.5c0,0-.2,0-.2,0s-.1,0-.2,0c0,0,0,0-.1,0,0,0,0,0-.1,0,0,0,0,0-.1,0h-.1s0,0-.1,0h0c0,0,0,.2-.1.2h0s0,.1,0,.2,0,.1,0,.1c0,0,0,0,0,.1,0,0,0,0,0,0s0,0,0,0c0,0,0,0,0,0,0,0,0,0,0,0,0,0,0,.2,0,.2h0c0,.2,0,.2,0,.3h0s0,.1,0,.1c0,0,0,0,0,0,0,0,0,0,0,0v.4s0,0,0,0c0,0,0,0,0,0,0,0,0,.1.1.2s0,.2,0,.2,0,0,0,0h0s0,0,0,0c0,0,0,0,0,0s0,0,0,0c0,.1,0,.2,0,.3,0,0,0,0,0,0,0,0,0,0,0,0,0,0,0,0,0,0,0,0,0,0,0,0,0,.1,0,.2,0,.3,0,.1,0,.2,0,.3v.2s0,0,0,0c0,0,0,0-.1,0,0,0,0,0,0,0h0c0,0,0,0-.1.1,0,0,0,0,0,0s0,0,0,0c0,0,0,0-.1.1h-.1s0,0,0,0,0,0,0,0h0s0,0,0,0c0,0-.1,0-.1,0h0ZM201,785.7s0,0,0,0c0,0,0,0,0,0h0ZM80.7,779.8s0,0,0,0h-.3c0,0,0,0,0,0,0,0,0,0-.1,0,0,0,0,0-.1,0h-.2c-.1,0-.3,0-.4,0-.1,0-.3,0-.4-.1h-.1c-.2-.1-.3-.3-.4-.4,0,0,0,0,0-.2,0,0,0,0,0-.2,0,0,0,0,0-.1,0-.3.1-.5.3-.7,0,0,.2-.2.2-.2s.2-.2.3-.2.2-.1.3-.2.2-.1.3-.2c.2-.1.4-.3.6-.4s.4-.3.5-.4c.3-.2.5-.5.7-.9,0-.2.2-.5.3-.7,0-.2.2-.4.2-.6,0-.2.1-.4.2-.5s.1-.4.2-.5c0-.2.1-.3.1-.5s0-.3,0-.5c0-.2,0-.4,0-.6,0,0,0-.1-.2-.2,0,0-.1,0-.2,0,0,0-.1,0-.2,0,0,0-.1,0-.2,0,0,0,0,0,0,0s0,0,0,0c-.3.1-.6.3-.8.5,0,0,0,0-.1.1h-.1c0,.2-.2.3-.3.4,0,0-.1.1-.2.2,0,0-.1.1-.2.2-.1.1-.2.3-.3.5,0,.2-.2.4-.4.5-.1,0-.2.2-.3.3,0,.1-.2.2-.3.3-.1,0-.2,0-.3,0l-.2-.2c0,0-.1-.1-.2-.2,0,0-.1-.1-.2-.2,0,0,0,0,0,0s0,0,0,0c0,0,0-.1,0-.2s0-.1,0-.2c0,0,0,0,0-.1,0,0,0,0,0-.2v-.2h0c0-.2,0-.2,0-.2,0-.2.2-.4.4-.6.3-.3.7-.6,1-.8,0,0,0,0,.1,0s.1,0,.1,0c.1-.1.3-.2.4-.3s.3-.2.4-.3c.1,0,.2-.2.4-.3s.2-.2.4-.2c.1,0,.3-.2.4-.2s.3,0,.5-.1c0,0,0,0,.1,0h.1c.1,0,.3,0,.4,0,.1,0,.3,0,.4.1.2,0,.4.2.6.3,0,0,0,0,.1,0,.1.1.2.2.4.4.1.1.2.3.2.5,0,0,0,.2.1.3s0,.2,0,.3v.2s0,0,0,.2c0,.4,0,.8-.2,1.2,0,0,0,.2,0,.2s0,.2,0,.3,0,.2,0,.3,0,.2-.1.3c0,.2-.1.3-.2.4s-.1.3-.2.4c0,.1-.1.3-.1.4v.4c-.2.2-.2.3-.3.5s-.1.3-.2.5c-.2.3-.4.6-.6.8,0,0-.1,0-.1.1v.2c-.1,0-.1,0-.1,0,0,0,0,0,0,0h.3s.2,0,.2,0h.9c0-.1,0-.1,0-.1.1,0,.3,0,.4,0,.1,0,.3,0,.4,0h.1c.2,0,.3,0,.5,0h.7c0,0,.2,0,.2,0,0,0,.1,0,.2,0,0,0,.1,0,.2,0,0,0,.1,0,.2,0,.3,0,.6,0,.9.3.1.2.2.3.3.5h0c0,.4,0,.6-.1.8,0,0-.1.1-.1.2,0,0,0,0-.1,0s-.1,0-.2,0c0,0-.1,0-.2,0,0,0,0,0,0,0s0,0,0,0c-.1,0-.2,0-.4,0-.1,0-.2,0-.3,0-.2,0-.4-.1-.6-.1h-.2s-.1,0-.2,0h-.1s-.6,0-.6,0c0,0-.1,0-.2,0,0,0-.2,0-.2,0s-.2,0-.2,0c0,0,0,0-.1,0,0,0,0,0-.1,0h0s0,0-.1,0c-.1,0-.2,0-.2,0,0,0-.1,0-.3,0h-.2c0,0-.1,0-.2,0,0,0-.1,0-.2,0,0,0-.1,0-.1,0s0,0-.1,0c-.1,0-.3,0-.4,0,0,0,0,0-.1,0s0,0-.1,0c0,0,0,0,0,0,0,0,0,0,0,0,0,0,0,0-.1,0,0,0,0,0,0,0,0,0,0,0,0,0h-.2s-.1,0-.2,0-.1,0-.2,0h0ZM91.4,781.3s0,0,0,0c0,0,0,0,0,0,0,0,0,0,0,0,0,0-.2,0-.2-.1,0,0-.1-.1-.2-.2,0,0,0,0,0,0,0,0-.1-.1-.2-.2,0,0,0-.2,0-.3v-.3c0-.2,0-.3.2-.4.2-.2.4-.3.7-.3,0,0,.1,0,.2,0,0,0,.1,0,.2,0,0,0,.2,0,.2,0s.2,0,.2,0c.2,0,.4-.1.6-.2s.4-.1.6-.2c.3-.2.6-.3,1-.4s.6-.3.9-.5c.1,0,.3-.1.4-.2s.2-.1.4-.2c.3-.2.5-.5.7-.7.1-.2.2-.4.1-.7,0,0,0-.1,0-.2,0,0,0-.1,0-.2,0-.1-.1-.2-.2-.3s-.1-.2-.2-.3c0,0-.1-.1-.1-.2s0-.1-.1-.2c0,0-.1-.1-.1-.2h-.1c0-.2,0-.2-.1-.2,0,0,0,0-.1,0-.1,0-.2,0-.3,0s-.2,0-.4,0h-.4c-.1,0-.3,0-.4,0h-.1c-.1,0-.3,0-.4,0-.1,0-.3,0-.4,0-.1,0-.2,0-.4,0s-.2,0-.4,0c0,0-.1,0-.2,0s-.1,0-.2,0h0s0,0,0,0c0,0,0,0,0,0,0,0-.2,0-.2.2,0,0,0,0,0,0,0,0-.1,0-.2,0,0,0-.1,0-.2,0,0,0,0,0,0,0,0,0,0,0,0,0,0,0,0,0,0,0,0,0,0,0,0,0h0s0,0,0,0c0,0,0,0-.1,0,0,0,0,0-.1,0-.2.1-.3.3-.4.5v.2c-.1.1-.2.2-.3.2s-.2,0-.3,0c0,0-.1-.1-.1-.2,0,0,0-.1,0-.2s0-.1,0-.2c0-.2,0-.3-.1-.4,0-.2-.1-.3-.1-.5,0-.2,0-.3,0-.5,0,0,0-.1,0-.2,0,0,0-.1,0-.2,0,0,0-.1,0-.2v-.2s0-.1,0-.2v-.2c0-.7,0-1.4,0-2.1h0c0-.3,0-.5,0-.7v-.3c0-.1,0-.2,0-.3,0-.1,0-.2,0-.3s0-.2,0-.3c0,0,0-.2,0-.3v-.5c0,0,0-.1,0-.2s0,0,0-.1c.1-.2.3-.3.5-.4.2,0,.4,0,.6,0,.1,0,.3,0,.5,0,0,0,.2,0,.3,0s.2,0,.3,0h1.2c0,0,.1,0,.1,0h.1c.1,0,.3,0,.4,0s.3,0,.4,0c0,0,.1,0,.2,0h.2c.1,0,.3,0,.4,0h.4c.2,0,.4,0,.5,0s.4,0,.5,0c0,0,.1,0,.1,0,0,0,0,0,.1,0h.1c0,0,0,0,0,.1,0,0,0,0,0,0,0,0,0,.1.1.2,0,0,0,.1.1.2,0,0,0,0,0,0h0c0,0,0,.1,0,.1v.2h0c0,0,0,.2,0,.2,0,0,0,0,0,0,0,0,0,0-.1.2,0,0-.1.2-.3.3,0,0-.1,0-.2.1,0,0-.1.1-.2.1-.1,0-.2,0-.3,0h-.2s-.2,0-.2,0c-.1,0-.2,0-.4,0-.1,0-.2,0-.4,0-.1,0-.3,0-.4,0h-.4c-.1,0-.3,0-.4,0h-.2c0,0-.1,0-.2,0,0,0,0,0,0,0,0,0,0,0,0,0,0,0-.1,0-.1,0,0,0,0,0,0,0h0s0,0,0,0,0,0,0,0h-.5c0,0-.2,0-.2,0s-.2,0-.2,0c0,0-.2,0-.3,0,0,0,0,0,0,0,0,0,0,0,0,0,0,0,0,0,0,.1,0,.2,0,.4,0,.6s0,.4,0,.6,0,.3,0,.5v.5s0,1.2,0,1.2c0,0,0,0,0,0,0,0,0,0,0,0,0,0,0,0,0,0h0c.2,0,.3,0,.5,0s.3,0,.5,0c0,0,.2,0,.3,0s.2,0,.3,0c.1,0,.2,0,.3,0h.3s.2,0,.2,0c0,0,.2,0,.2,0,.3,0,.6,0,1,0,.1,0,.3,0,.4,0,.1,0,.2,0,.4,0,.2,0,.5.2.7.3l.5.4c.1,0,.2.1.3.2.1.1.3.3.4.4s.2.3.3.4c0,0,0,.1.1.2.2.3.4.6.4,1,0,.2,0,.4,0,.6,0,.1,0,.3,0,.4,0,.1,0,.3,0,.4v.4c-.2.3-.4.5-.6.8,0,0-.1.1-.2.2,0,0-.1.1-.2.2,0,0,0,0-.2.1,0,0-.1,0-.2.2,0,0-.1.1-.2.2s-.2.1-.3.1h-.1c0,0,0,.1,0,.1,0,0-.2,0-.2.1s-.1,0-.2.2h-.2c-.1.2-.2.2-.4.3-.1,0-.2.1-.4.2l-.9.4s0,0,0,0c0,0,0,0,0,0,0,0-.1,0-.2,0,0,0-.1,0-.2,0,0,0,0,0-.1,0,0,0,0,0-.1,0-.2,0-.4.1-.5.2-.2,0-.4.1-.5.2h0s0,0-.1,0,0,0-.1,0-.1,0-.2,0c0,0-.1,0-.1,0s-.1,0-.1,0h0ZM83.5,616.1s0,0,0,0h-.3c0,0,0,0,0,0,0,0,0,0-.1,0,0,0,0,0-.1,0s-.1,0-.2,0c-.1,0-.3,0-.4,0-.1,0-.3,0-.4-.1h-.1c-.2-.1-.3-.3-.4-.4,0,0,0,0,0-.2,0,0,0,0,0-.2,0,0,0,0,0-.1,0-.3.1-.5.3-.7,0,0,.2-.2.2-.2s.2-.2.3-.2.2-.1.3-.2.2-.1.3-.2c.2-.1.4-.3.6-.4s.4-.3.5-.4c.3-.2.5-.5.7-.9,0-.2.2-.5.3-.7,0-.2.2-.4.2-.6,0-.2.1-.4.2-.5s.1-.4.2-.5c0-.2.1-.3.1-.5s0-.3,0-.5c0-.2,0-.4,0-.6,0,0,0-.1-.2-.2,0,0-.1,0-.2,0,0,0-.1,0-.2,0,0,0-.1,0-.2,0,0,0,0,0,0,0s0,0,0,0c-.3.1-.6.3-.8.5,0,0,0,0-.1.1h-.1c0,.2-.2.3-.3.4,0,0-.1.1-.2.2s-.1.1-.2.2c-.1.1-.2.3-.3.5,0,.2-.2.4-.4.5-.1,0-.2.2-.3.3,0,.1-.2.2-.3.3-.1,0-.2,0-.3,0l-.2-.2c0,0-.1-.1-.2-.2s-.1-.2-.2-.2c0,0,0,0,0,0s0,0,0,0c0,0,0-.1,0-.2s0-.1,0-.2c0,0,0,0,0-.1,0,0,0,0,0-.2v-.2h0c0-.2,0-.2,0-.2,0-.2.2-.4.4-.6.3-.3.7-.6,1-.8,0,0,0,0,.1,0s.1,0,.1,0c.1-.1.3-.2.4-.3s.3-.2.4-.3c.1,0,.2-.2.4-.3s.2-.2.4-.2c.1,0,.3-.2.4-.2s.3,0,.5-.1c0,0,0,0,.1,0h.1c.1,0,.3,0,.4,0,.1,0,.3,0,.4.1.2,0,.4.2.6.3,0,0,0,0,.1,0,.1.1.2.2.4.4.1.1.2.3.2.5,0,0,0,.2.1.3s0,.2,0,.3v.2s0,0,0,.2c0,.4,0,.8-.2,1.2,0,0,0,.2,0,.2s0,.2,0,.3,0,.2,0,.3,0,.2-.1.3c0,.2-.1.3-.2.4s-.1.3-.2.4c0,.1-.1.3-.1.4v.4c-.2.2-.2.3-.3.5s-.1.3-.2.5c-.2.3-.4.6-.6.8,0,0-.1,0-.1.1v.2c-.1,0-.1,0-.1,0,0,0,0,0,0,0h.3s.2,0,.2,0h.9c0-.1,0-.1,0-.1.1,0,.3,0,.4,0,.1,0,.3,0,.4,0h.1c.2,0,.3,0,.5,0h.7c0,0,.2,0,.2,0,0,0,.1,0,.2,0,0,0,.1,0,.2,0,0,0,.1,0,.2,0,.3,0,.6,0,.9.3.1.2.2.3.3.5h0c0,.4,0,.6-.1.8,0,0-.1.1-.1.2,0,0,0,0-.1,0s-.1,0-.2,0c0,0-.1,0-.2,0,0,0,0,0,0,0s0,0,0,0c-.1,0-.2,0-.4,0-.1,0-.2,0-.3,0-.2,0-.4-.1-.6-.1h-.2s-.1,0-.2,0h-.1s-.6,0-.6,0c0,0-.1,0-.2,0,0,0-.2,0-.2,0s-.2,0-.2,0c0,0,0,0-.1,0,0,0,0,0-.1,0h0s0,0-.1,0c-.1,0-.2,0-.2,0,0,0-.1,0-.3,0h-.2c0,0-.1,0-.2,0,0,0-.1,0-.2,0,0,0-.1,0-.1,0s0,0-.1,0c-.1,0-.3,0-.4,0,0,0,0,0-.1,0s0,0-.1,0c0,0,0,0,0,0,0,0,0,0,0,0,0,0,0,0-.1,0,0,0,0,0,0,0s0,0,0,0h-.2s-.1,0-.2,0-.1,0-.2,0h0ZM99.4,617.3c-.2,0-.4,0-.6-.2-.2,0-.4-.1-.6-.2,0,0-.2-.1-.3-.2s-.2-.1-.3-.2l-.6-.4s0,0-.1,0,0,0-.1,0h-.1c0-.1,0-.2-.1-.2,0,0,0,0-.1,0,0,0-.1,0-.2,0s-.1,0-.2,0c-.1,0-.3-.1-.4-.2s-.2-.2-.4-.2c-.5-.4-.9-.8-1.2-1.2,0,0,0,0-.1-.1l-.2-.4c0-.1-.1-.2-.2-.4l-.3-.6c0-.2-.2-.3-.2-.5s-.1-.3-.2-.5c0,0,0,0,0-.1,0,0,0,0,0-.1,0-.1,0-.2-.1-.4,0,0,0,0,0-.1,0,0,0,0,0-.1,0,0,0,0,0,0,0,0,0,0,0,0,0,0,0,0,0,0s0,0,0,0,0,0,0,0c0,0,0,0,0,0h0s0,0,0,0c0,0,0,0,0-.1h0c0,0,0-.1,0-.1,0-.1,0-.3,0-.4,0-.1,0-.3,0-.4,0,0,0-.2,0-.2,0,0,0-.2,0-.3,0,0,0,0,0-.1h0c0-.1,0-.1,0-.2,0-.1,0-.2,0-.3,0,0,0-.1,0-.2,0,0,0-.2,0-.2,0,0,0,0,0,0,.1-.2.2-.3.2-.5s0,0,0-.2c0,0,0,0,0-.2,0,0,0,0,0-.2,0-.1,0-.2.1-.2,0,0,0,0,.1,0h0c0-.3,0-.4,0-.5,0-.1,0-.3.1-.4,0-.2.1-.3.3-.4l.2-.2c.1,0,.2-.2.2-.3,0,0,0,0,.1-.1,0,0,0,0,.1-.1s0,0,0-.1c0-.1.1-.2.3-.3.1,0,.2,0,.3-.2.1,0,.2-.1.3-.2h.2c.1-.1.2-.2.4-.3s.2-.1.4-.2c0,0,0,0,.1,0,0,0,.1,0,.1,0s.1,0,.1,0,.1,0,.1,0,.1,0,.2,0c0,0,.1,0,.2,0h.2c0,0,.1,0,.2,0,.1,0,.2,0,.3,0,0,0,.1,0,.2,0,0,0,.1,0,.2.1.1,0,.2.1.3.3.2.3.2.5,0,.8,0,0,0,0-.1,0-.1,0-.2.1-.3.2-.1,0-.2.1-.3.2h-.1c-.1.2-.3.2-.5.3,0,0-.1,0-.2.1s-.1,0-.2.1c-.2.1-.4.3-.6.5-.4.4-.8.9-1,1.4,0,.1-.1.3-.2.4s-.1.2-.2.4h0c0,.2,0,.4-.1.5,0,.2-.1.3-.1.5v.2c-.1.2-.1.5-.1.7s0,.5,0,.7v.4c.1.2.1.4.2.5s.1.4.2.5c0,0,0,0,0,.2,0,0,0,0,0,.1,0,0,.1.2.2.3s.1.2.2.3c0,0,0,0,0,0h0s0-.4,0-.4c0-.1,0-.2,0-.3s0-.2,0-.3c0,0,0,0,0-.1s0,0,0-.1l.2-.4c0-.1.1-.2.2-.3,0-.1.1-.2.2-.3s.2-.2.2-.3l.4-.4c0,0,.2-.2.3-.2s.2-.1.3-.2l.4-.2c.1,0,.2,0,.4-.1s.3-.1.4-.2c0,0,.2-.2.3-.2,0,0,0,0,.1,0s0,0,0,0c.1,0,.2,0,.3,0,.1,0,.2,0,.3,0,0,0,.2,0,.3,0s.2,0,.3,0c.2,0,.5.2.7.4l.4.4s0,0,0,0c0,0,0,.1.1.2s0,.1.1.2h0c0,.1.1.2.2.3s0,.2.1.2c0,0,0,0,0,0,0,0,0,.1,0,.2s0,.1,0,.2c0,.1,0,.2.1.3,0,0,0,.2,0,.3,0,0,0,.1,0,.2,0,0,0,0,0,.1v1.6c0,.2,0,.3.1.4,0,0,0,0,0,0,0,0,.1.1.1.2,0,0,0,.2,0,.3,0,.1,0,.3,0,.4s0,.2-.1.4c0,.2-.2.3-.4.5,0,0-.2.2-.2.3s-.2.2-.2.3l-.6.7c-.1.2-.2.3-.3.5,0,0,0,0,0,.1h0s0,0,0,0c0,0,0,.1-.1.2s-.1,0-.2,0c0,0-.2,0-.3,0s-.2,0-.3,0c-.2,0-.4,0-.6,0h0ZM99.4,615.5c0,0,.1,0,.2,0,0,0,.1,0,.1-.1h.1c.2-.3.3-.4.5-.6s.3-.3.5-.5c0,0,0,0,.1-.1,0,0,0-.1,0-.2,0,0,0,0,0-.1s0,0,0,0c0-.2,0-.4,0-.5s0-.3.1-.5v-.5c.1,0,.1,0,.1,0v-.4c0-.1,0-.2,0-.3,0,0,0-.2-.1-.3,0-.1-.1-.3-.2-.4l-.2-.4s0,0,0,0,0,0,0,0,0,0,0,0h-.2c0,0-.1,0-.2,0h-.2c-.1.2-.3.2-.4.2-.1,0-.3,0-.4,0s-.2,0-.4.2c0,0,0,0,0,0,0,0,0,0,0,0-.2,0-.3.1-.4.2s-.3.2-.4.3c0,0-.1.1-.2.2s-.1.2-.1.2c0,.1-.1.2-.1.4s0,.2,0,.3v.2c0,0,0,.1,0,.2v.2c.1.3.3.6.4.9,0,0,0,.1.1.2s0,.1.1.2c0,0,0,0,0,0,0,0,0,0,0,0,0,0,0,0,.1.2s0,0,.1.2c.1.1.2.2.4.4.2.2.5.3.8.4h0ZM100.3,427.3s0,0,0,0h-.3c0-.1,0,0,0,0,0,0,0,0-.1,0,0,0,0,0-.1,0s-.1,0-.2,0c-.1,0-.3,0-.4,0-.1,0-.3,0-.4-.1h-.1c-.2-.1-.3-.3-.4-.4,0,0,0-.1,0-.1,0,0,0-.1,0-.1,0,0,0,0,0-.1,0-.3.1-.5.3-.7,0,0,.2-.2.2-.2s.2-.2.3-.2.2-.1.3-.2.2-.1.3-.2c.2-.1.4-.3.6-.4s.4-.3.5-.4c.3-.2.5-.5.7-.9,0-.2.2-.5.3-.7,0-.2.2-.4.2-.6,0-.2.1-.4.2-.5s.1-.4.2-.5c0-.1.1-.3.1-.5s0-.3,0-.5c0-.2,0-.4,0-.6,0,0,0-.1-.2-.2,0,0-.1,0-.2,0,0,0-.1,0-.2,0,0,0-.1,0-.2,0,0,0,0,0,0,0s0,0,0,0c-.3.1-.6.3-.8.5,0,0,0,0-.1.1h-.1c0,.2-.2.3-.3.4,0,0-.1.1-.2.2s-.1.1-.2.2c-.1.1-.2.3-.3.5,0,.2-.2.4-.4.5-.1,0-.2.2-.3.3,0,.1-.2.2-.3.3-.1,0-.2,0-.3,0l-.2-.2c0,0-.1-.1-.2-.2s-.1-.1-.2-.2c0,0,0,0,0,0s0,0,0-.1c0,0,0-.1,0-.2s0-.1,0-.2c0,0,0,0,0-.1,0,0,0-.1,0-.1h0c0-.1,0-.3,0-.3,0,0,0,0,0-.1,0-.2.2-.4.4-.6.3-.3.7-.6,1-.8,0,0,0,0,.1-.1s.1,0,.1-.1c.1-.1.3-.2.4-.3s.3-.2.4-.3c.1,0,.2-.2.4-.3s.2-.2.4-.2c.1,0,.3-.1.4-.2s.3-.1.5-.1c0,0,0,0,.1,0h.1c.1,0,.3,0,.4,0s.3,0,.4.1c.2,0,.4.2.6.3,0,0,0,0,.1,0,.1.1.2.2.4.4.1.1.2.3.2.5,0,0,0,.2.1.3s0,.2,0,.3h0c0,.2,0,.2,0,.3,0,.4,0,.8-.2,1.2,0,0,0,.2,0,.2s0,.2,0,.3,0,.2,0,.3,0,.2-.1.3c0,.1-.1.3-.2.4s-.1.3-.2.4c0,.1-.1.3-.1.4v.4c-.2.1-.2.3-.3.5,0,.1-.1.3-.2.5-.2.3-.4.6-.6.8,0,0-.1,0-.1.1h-.1v.2s0,0,0,0h.3s.2,0,.2,0h.9c0-.1,0-.1,0-.1.1,0,.3,0,.4,0,.1,0,.3,0,.4,0h.1c.2,0,.3,0,.5,0h.7c0,0,.2,0,.2,0,0,0,.1,0,.2,0,0,0,.1,0,.2,0,0,0,.1,0,.2,0,.3,0,.6,0,.9.3.1.1.2.3.3.5h0c0,.4,0,.6-.1.8,0,0-.1.1-.1.2,0,0,0,0-.1,0s-.1,0-.2,0c0,0-.1,0-.2,0,0,0,0,0,0,0s0,0,0,0c-.1,0-.2,0-.4,0-.1,0-.2,0-.3,0-.2,0-.4-.1-.6-.1h-.2s-.1,0-.2,0h-.1s-.6,0-.6,0c0,0-.1,0-.2,0,0,0-.2,0-.2,0s-.2,0-.2,0c0,0,0,0-.1,0,0,0,0,0-.1,0h0s0,0-.1,0c-.1,0-.2,0-.2,0,0,0-.1,0-.3,0h-.2c0,0-.1,0-.2,0,0,0-.1,0-.2,0,0,0-.1,0-.1,0s0,0-.1,0c-.1,0-.3,0-.4,0,0,0,0,0-.1,0s0,0-.1,0c0,0,0,0,0,0,0,0,0,0,0,0,0,0,0,0-.1,0,0,0,0,0,0,0s0,0,0,0h-.2s-.1,0-.2,0-.1,0-.2,0h0ZM112.3,427.9c0,0-.1,0-.2,0,0,0,0,0-.1,0,0,0,0,0,0,0h-.1c0-.2-.1-.2-.1-.3,0,0-.1,0-.1-.2,0-.1-.1-.2-.1-.4,0-.2,0-.4.1-.6,0,0,0,0,0,0,0-.1.1-.2.2-.3,0-.1,0-.2.1-.3,0-.2.1-.4.1-.5s0-.4.1-.5c0-.1,0-.3,0-.4,0-.1,0-.3,0-.4,0-.1,0-.2,0-.4s0-.2,0-.4c0,0,0-.1,0-.2v-.2s0-.1,0-.2c0,0,0-.1-.1-.1h-.2c0,0-.2,0-.2.1s-.1,0-.2,0c0,0-.2,0-.3.1s-.2.1-.3.2c0,0,0,0-.1,0-.2.1-.4.1-.5,0-.2-.2-.4-.4-.5-.6,0,0,0-.1,0-.1s0-.1,0-.1c-.1-.3,0-.5,0-.8,0-.1.1-.2.2-.3,0,0,0,0,0,0,0,0,0,0,0,0,0,0,0,0,0,0,0,0,.1-.1.2-.1.1,0,.2,0,.4,0s.2,0,.4,0h.1c.1,0,.3,0,.4,0s.3,0,.4,0h.2c0,0,.1,0,.2,0,0,0,.1,0,.2,0,0,0,.1,0,.1-.1,0,0,0,0,0-.1,0-.2,0-.4.1-.5v-.5c.2,0,.2-.1.2-.2,0,0,0-.1,0-.2,0-.1,0-.2.1-.3.1-.2.2-.5.2-.7,0,0,0-.1,0-.2s0-.1,0-.2l.2-.7s0,0,0,0,0,0,0,0c0,0,0,0,0,0-.1,0-.3,0-.4.1s-.2,0-.4.1h-.2c-.1.1-.3.1-.4.2s-.3.1-.4.2c0,0-.1,0-.2,0,0,0-.1,0-.2,0,0,0,0,0-.1,0s0,0-.1,0c0,0-.2.1-.3.2l-.2.2c0,0-.1.1-.2.2,0,0-.1.2-.2.3s-.2.2-.3.2c-.1,0-.3,0-.4.1s-.3,0-.4,0c0,0,0,0-.1,0s0,0-.1,0c0,0-.2,0-.2-.2,0,0,0-.1-.1-.1,0-.1-.1-.2-.2-.3,0,0,0,0,0,0s0,0,0,0c0,0,0-.2,0-.3,0,0,0-.2,0-.3,0-.2.2-.5.4-.6h.1c0,0,.1-.2.1-.2,0,0,.1,0,.1,0,.1,0,.2,0,.4,0,.3,0,.6,0,.9-.1,0,0,.1,0,.2,0s.1,0,.2,0,.1,0,.2,0c0,0,.1,0,.2,0,.2,0,.4-.2.6-.2s.4-.2.6-.2c0,0,0,0,.1,0,0,0,0,0,0-.1,0,0,0,0,.1-.1.1,0,.3-.1.4-.2s.3-.1.4-.2c0,0,0,0,0,0s0,0,0,0c0,0,0,0,.1,0,0,0,0,0,0,0h.1c0-.2,0-.2.1-.3.2-.2.5-.3.9-.3.2,0,.3,0,.4.2.1,0,.2.2.3.3,0,0,0,.2.1.3s0,.2.1.3c0,.1.1.3,0,.5,0,.1,0,.2,0,.3s0,.2-.1.3c0,0,0,.1,0,.2s0,.1-.1.2c0,0,0,0-.1.2,0,0,0,.1,0,.2s0,.1-.1.2c0,0,0,0,0,.1,0,0,0,.1,0,.2,0,0,0,0,0,.1s0,0,0,0c0,0,0,0,0,0s0,0,0,0c0,0,0,.1,0,.1h0c0,.2,0,.2-.1.3,0,0,0,.1,0,.2,0,0,0,.1,0,.1s0,0-.2.1h0c0,0-.1.2,0,.3,0,0,0,.1,0,.1s0,0,0,.1c0,0,0,.1,0,.2,0,0,0,.1,0,.2h0c0,0,0,.1,0,.1s0,0,0,.1c0,0,0,0,0,.1,0,0,0,0,0,0,0,0,0,0,0,0,0,0,0,0,0,0s0,0,.1,0c0,0,0,0,0,0,0,0,0,0,.1,0,0,0,.2,0,.2,0s.1,0,.2,0c0,0,.2,0,.2.2,0,0,0,0,0,.1,0,0,.1.2.2.3,0,0,0,0,0,.1s0,0,0,.1c0,0,0,.1,0,.2,0,0,0,.1.1.2,0,0,0,0,0,0,0,0,0,0,0,0,0,0,0,0,0,0h0c0,.1,0,.2,0,.2,0,0,0,0,0,0,0,0-.2.1-.3,0,0,0-.1,0-.1,0,0,0-.1.1-.2.2,0,0-.1.1-.3.1,0,0-.1,0-.1,0,0,0-.1,0-.1,0-.1,0-.3,0-.4,0s0,0,0,0c0,0,0,0-.1,0v.2s0,.2,0,.2c0,0,0,.1,0,.2v.2s0,.1,0,.2h0c0,.1,0,.2,0,.3h0v.3s0,0,0,0c0,0,0,0,0,.1h0c0,.1,0,.2,0,.3,0,0,0,.1,0,.2,0,0,0,0,0,.1h0c0,0-.1.5-.1.5,0,0,0,0,0,.1,0,0,0,.2,0,.3s0,.2,0,.3c0,0,0,0,0,.1s0,0,0,.1c0,0,0,0,0,0,0,0,0,.2-.1.3,0,0,0,.2,0,.3,0,0,0,.1,0,.2,0,0,0,.1,0,.2,0,0,0,.1,0,.2h0c0,.2,0,.2-.1.3s-.1,0-.2.1c0,0,0,0,0,0,0,0,0,0,0,0,0,0-.1,0-.2.1,0,0-.1,0-.2,0h0ZM58.5,401.7s0,0,0,0h-.3c0-.1,0,0,0,0,0,0,0,0-.1,0,0,0,0,0-.1,0s-.1,0-.2,0c-.1,0-.3,0-.4,0-.1,0-.3,0-.4-.1h-.1c-.2-.1-.3-.3-.4-.4,0,0,0-.1,0-.1,0,0,0-.1,0-.1,0,0,0,0,0-.1,0-.3.1-.5.3-.7,0,0,.2-.2.2-.2s.2-.2.3-.2.2-.1.3-.2c.1,0,.2-.1.3-.2.2-.1.4-.3.6-.4s.4-.3.5-.4c.3-.2.5-.5.7-.9,0-.2.2-.5.3-.7,0-.2.2-.4.2-.6,0-.2.1-.4.2-.5s.1-.4.2-.5c0-.1.1-.3.1-.5s0-.3,0-.5c0-.2,0-.4,0-.6,0,0,0-.1-.2-.2,0,0-.1,0-.2,0,0,0-.1,0-.2,0,0,0-.1,0-.2,0,0,0,0,0,0,0s0,0,0,0c-.3.1-.6.3-.8.5,0,0,0,0-.1.1h-.1c0,.2-.2.3-.3.4,0,0-.1.1-.2.2s-.1.1-.2.2c-.1.1-.2.3-.3.5,0,.2-.2.4-.4.5-.1,0-.2.2-.3.3,0,.1-.2.2-.3.3-.1,0-.2,0-.3,0l-.2-.2c0,0-.1-.1-.2-.2s-.1-.1-.2-.2c0,0,0,0,0,0s0,0,0-.1c0,0,0-.1,0-.2s0-.1,0-.2c0,0,0,0,0-.1,0,0,0-.1,0-.1h0c0-.1,0-.3,0-.3,0,0,0,0,0-.1,0-.2.2-.4.4-.6.3-.3.7-.6,1-.8,0,0,0,0,.1-.1,0,0,.1,0,.1-.1.1-.1.3-.2.4-.3s.3-.2.4-.3c.1,0,.2-.2.4-.3s.2-.2.4-.2c.1,0,.3-.1.4-.2s.3-.1.5-.1c0,0,0,0,.1,0h.1c.1,0,.3,0,.4,0s.3,0,.4.1c.2,0,.4.2.6.3,0,0,0,0,.1,0,.1.1.2.2.4.4.1.1.2.3.2.5,0,0,0,.2.1.3s0,.2,0,.3h0v.3c0,.4,0,.8-.2,1.2,0,0,0,.2,0,.2s0,.2,0,.3,0,.2,0,.3,0,.2-.1.3c0,.1-.1.3-.2.4s-.1.3-.2.4c0,.1-.1.3-.1.4v.4c-.2.1-.2.3-.3.5s-.1.3-.2.5c-.2.3-.4.6-.6.8,0,0-.1,0-.1.1h-.1v.2s0,0,0,0h.3s.2,0,.2,0h.9c0-.1,0-.1,0-.1.1,0,.3,0,.4,0,.1,0,.3,0,.4,0h.1c.2,0,.3,0,.5,0h.7c0,0,.2,0,.2,0,0,0,.1,0,.2,0,0,0,.1,0,.2,0,0,0,.1,0,.2,0,.3,0,.6,0,.9.3.1.1.2.3.3.5h0c0,.4,0,.6-.1.8,0,0-.1.1-.1.2,0,0,0,0-.1,0s-.1,0-.2,0c0,0-.1,0-.2,0,0,0,0,0,0,0s0,0,0,0c-.1,0-.2,0-.4,0-.1,0-.2,0-.3,0-.2,0-.4-.1-.6-.1h-.2s-.1,0-.2,0h-.1s-.6,0-.6,0c0,0-.1,0-.2,0,0,0-.2,0-.2,0s-.2,0-.2,0c0,0,0,0-.1,0s0,0-.1,0h0s0,0-.1,0c-.1,0-.2,0-.2,0,0,0-.1,0-.3,0h-.2c0,0-.1,0-.2,0,0,0-.1,0-.2,0,0,0-.1,0-.1,0s0,0-.1,0c-.1,0-.3,0-.4,0,0,0,0,0-.1,0s0,0-.1,0c0,0,0,0,0,0,0,0,0,0,0,0,0,0,0,0-.1,0,0,0,0,0,0,0s0,0,0,0h-.2s-.1,0-.2,0-.1,0-.2,0h0ZM70.6,402.3h0s-.2,0-.2,0c0,0-.2,0-.3,0,0,0-.2,0-.2-.1s-.1,0-.2-.1c0,0-.2,0-.2-.1-.1-.1-.3-.2-.4-.3s-.2-.2-.3-.4c0,0,0,0,0,0s0,0,0-.1l-.4-.6s0,0,0-.1l-.2-.5s0,0,0-.1c0-.1,0-.3,0-.4s0-.3,0-.4v-1.2c-.2-.2-.2-.4-.1-.6,0-.4.2-.8.4-1.1.1-.2.3-.4.5-.6,0,0,0,0,.1-.1,0,0,0,0,0-.1.1-.2.3-.4.5-.5h.1c0-.2.1-.2.1-.3l.4-.4c.1,0,.2-.2.2-.3,0,0,0-.1,0-.2s-.2-.2-.2-.2-.1-.1-.2-.2c0,0,0,0-.1-.1h-.1c-.2-.2-.4-.4-.6-.5h0c0-.2-.2-.3-.3-.4,0-.1-.1-.3-.2-.4,0,0,0,0,0,0s0,0,0,0c0-.2,0-.4,0-.6s.1-.4.3-.5c.1-.1.2-.2.3-.3s.2-.2.4-.2c.1,0,.3-.1.4-.2s.3-.1.4-.2c.2,0,.5-.2.8-.3s.5-.2.8-.2h.3c.1-.1.2-.1.4-.2.1,0,.3,0,.4,0,.1,0,.3,0,.4,0,.1,0,.3,0,.4,0h.3c.2.2.4.3.5.5.1.2.2.3.3.4.1.2.2.4.2.7h0c0,.2,0,.3.1.4h.2c.4.4.5.9.4,1.4,0,0,0,.2-.1.2,0,0-.1.1-.2.2-.1,0-.2.1-.3.2s-.2.2-.3.3c0,0-.1.1-.2.2,0,0-.1.1-.2.2,0,0-.1.2-.2.2s-.2.1-.3.2c0,0,0,.1-.1.2,0,0,0,.1,0,.2,0,0,0,0,0,0,0,0,0,0,0,0,0,0,0,0,0,.1,0,0,0,0,0,0h0s.2.2.2.2c.3.2.5.4.7.7v.2c.3.2.3.4.4.6,0,.1,0,.3,0,.4s0,.3,0,.4h0c0,.4,0,.8,0,1.2v.5c0,0,0,0,0,.1s0,0,0,.1l-.2.5c0,.1,0,.2-.1.3h0c0,.2,0,.3-.1.4s-.1.2-.2.2c-.2.4-.5.7-.8,1.1,0,0-.1.1-.1.2,0,0-.1.1-.2.2,0,0-.2.2-.3.2-.1,0-.3.1-.5.2s-.3,0-.5.1c0,0-.1,0-.2,0s-.1,0-.2,0c0,0-.1,0-.1,0s0,0-.1,0c0,0-.1,0-.2,0h-.2ZM71.4,400.2c.1,0,.3,0,.4-.2h0c.1-.1.2-.3.4-.4s.2-.3.4-.4h0c0-.2.2-.3.2-.4s.1-.2.2-.4c0-.2,0-.3.1-.5s0-.3,0-.5v-.3c0,0,0-.2,0-.3,0-.2-.1-.3-.2-.5,0-.1-.2-.3-.4-.4h0c-.1,0-.2-.2-.3-.2-.1,0-.2-.2-.3-.3h0c0-.1-.1-.2-.3-.2,0,0,0,0-.1,0,0,0,0,0,0,0s0,0,0,0c0,0,0,0-.1.1s0,0-.1.1c0,0-.2.1-.2.1s-.1.1-.2.2c0,0-.1,0-.2.1,0,0,0,0,0,0s0,0,0,0c0,0,0,.1,0,.2,0,0,0,0,0,.1,0,0-.1,0-.2.1,0,0,0,.1,0,.1s0,0,0,.1c0,0,0,0,0,.1s0,0,0,0,0,0,0,0c0,.1,0,.2,0,.3,0,0,0,.1,0,.2,0,0,0,0,0,.1,0,0,0,0,0,.1s0,.1,0,.2c0,0,0,0,0,0s0,0,0,0h0c0,0,0,.1,0,.1h0c0,.2,0,.3,0,.4s0,.2,0,.3h0c0,.2,0,.2,0,.3s0,0,0,.1c0,0,.1.2.2.2,0,.1.2.2.3.3,0,0,0,0,.1,0,0,0,0,0,.1,0s0,0,.1,0h.2c0,0,.1,0,.2,0,0,0,.1,0,.2,0h0ZM72,392.4c0,0,.1,0,.2,0l.3-.2c0,0,0-.1,0-.2v-.2c-.1,0-.2-.2-.2-.2,0,0-.1-.1-.2-.2,0,0-.1-.2-.2-.3,0-.1-.1-.2-.2-.3,0,0-.1,0-.2,0,0,0-.1,0-.2,0-.1,0-.2,0-.3,0,0,0-.1,0-.2,0,0,0-.1,0-.2,0s-.1,0-.1,0c0,0,0,0,0,.1h0s0,0,0,0c.3.2.5.3.7.5,0,0,.1.1.2.2,0,0,.1.1.2.2,0,0,.1.1.2.2,0,0,0,0,.1,0h0ZM67.4,576.4s0,0,0,0h-.3c0,0,0,0,0,0,0,0,0,0-.1,0,0,0,0,0-.1,0h-.2c-.1,0-.3,0-.4,0-.1,0-.3,0-.4-.1h-.1c-.2-.1-.3-.3-.4-.4,0,0,0,0,0-.2s0,0,0-.2c0,0,0,0,0-.1,0-.3.1-.5.3-.7,0,0,.2-.2.2-.2s.2-.2.3-.2.2-.1.3-.2.2-.1.3-.2c.2-.1.4-.3.6-.4s.4-.3.5-.4c.3-.2.5-.5.7-.9,0-.2.2-.5.3-.7,0-.2.2-.4.2-.6,0-.2.1-.4.2-.5s.1-.4.2-.5c0-.2.1-.3.1-.5s0-.3,0-.5c0-.2,0-.4,0-.6,0,0,0-.1-.2-.2,0,0-.1,0-.2,0,0,0-.1,0-.2,0,0,0-.1,0-.2,0,0,0,0,0,0,0s0,0,0,0c-.3.1-.6.3-.8.5,0,0,0,0-.1.1h-.1c0,.2-.2.3-.3.4,0,0-.1.1-.2.2,0,0-.1.1-.2.2-.1.1-.2.3-.3.5,0,.2-.2.4-.4.5-.1,0-.2.2-.3.3,0,.1-.2.2-.3.3-.1,0-.2,0-.3,0l-.2-.2c0,0-.1-.1-.2-.2,0,0-.1-.1-.2-.2,0,0,0,0,0,0s0,0,0,0c0,0,0-.1,0-.2s0-.1,0-.2c0,0,0,0,0-.1,0,0,0,0,0-.2v-.2h0c0-.1,0-.2,0-.2,0-.2.2-.4.4-.6.3-.3.7-.6,1-.8,0,0,0,0,.1,0s.1,0,.1,0c.1-.1.3-.2.4-.3s.3-.2.4-.3c.1,0,.2-.2.4-.3s.2-.2.4-.2c.1,0,.3-.2.4-.2s.3,0,.5-.1c0,0,0,0,.1,0h.1c.1,0,.3,0,.4,0,.1,0,.3,0,.4.1.2,0,.4.2.6.3,0,0,0,0,.1,0,.1.1.2.2.4.4.1.1.2.3.2.5,0,0,0,.2.1.3s0,.2,0,.3v.2s0,.2,0,.2c0,.4,0,.8-.2,1.2,0,0,0,.2,0,.2s0,.2,0,.3,0,.2,0,.3,0,.2-.1.3c0,.2-.1.3-.2.4s-.1.3-.2.4c0,.1-.1.3-.1.4v.4c-.2.2-.2.3-.3.5s-.1.3-.2.5c-.2.3-.4.6-.6.8,0,0-.1,0-.1.1v.2c-.1,0-.1,0-.1,0,0,0,0,0,0,0h.3s.2,0,.2,0h.9c0-.1,0-.1,0-.1.1,0,.3,0,.4,0,.1,0,.3,0,.4,0h.1c.2,0,.3,0,.5,0h.7c0,0,.2,0,.2,0,0,0,.1,0,.2,0,0,0,.1,0,.2,0,0,0,.1,0,.2,0,.3,0,.6,0,.9.3.1.2.2.3.3.5h0c0,.4,0,.6-.1.8,0,0-.1.1-.1.2,0,0,0,0-.1,0s-.1,0-.2,0c0,0-.1,0-.2,0,0,0,0,0,0,0s0,0,0,0c-.1,0-.2,0-.4,0-.1,0-.2,0-.3,0-.2,0-.4-.1-.6-.1h-.2s-.1,0-.2,0h-.1s-.6,0-.6,0c0,0-.1,0-.2,0,0,0-.2,0-.2,0s-.2,0-.2,0c0,0,0,0-.1,0s0,0-.1,0h0s0,0-.1,0c-.1,0-.2,0-.2,0,0,0-.1,0-.3,0h-.2c0,0-.1,0-.2,0,0,0-.1,0-.2,0,0,0-.1,0-.1,0s0,0-.1,0c-.1,0-.3,0-.4,0,0,0,0,0-.1,0s0,0-.1,0c0,0,0,0,0,0,0,0,0,0,0,0,0,0,0,0-.1,0,0,0,0,0,0,0,0,0,0,0,0,0h-.2s-.1,0-.2,0-.1,0-.2,0h0ZM82.5,577c0,0-.2,0-.3,0s-.2,0-.3,0c0,0,0,0-.1,0s0,0-.1-.1c0,0,0-.1-.1-.2h0c0-.1,0-.2,0-.3s0,0,0-.1c0,0,0-.2,0-.2,0,0,0-.1,0-.2v-3.1s0,0,0-.1c0-.2,0-.4,0-.5s0-.3,0-.5c0,0,0-.1,0-.2v-.2c0-.2,0-.3,0-.5v-.5c0,0,0-.1,0-.1,0,0,0,0,0-.2,0,0,0-.2,0-.2,0,0,0-.2,0-.2,0,0,0,0-.1,0,0,0,0,0,0,0,0,0,0,0-.1,0,0,0,0,0-.1,0l-.4.2c-.1,0-.2.1-.4.2,0,0-.2,0-.2,0s-.2,0-.2,0c0,0-.2,0-.3,0h-.7c0,0-.1,0-.2,0,0,0,0,0,0,0,0,0,0,0,0,0-.2,0-.3,0-.5,0,0,0-.1,0-.2,0,0,0-.1,0-.2-.1h-.2c0-.2,0-.2-.1-.2,0,0-.1,0-.2-.2,0,0-.1,0-.1-.2,0,0,0,0,0,0,0,0-.2-.1-.2-.2,0,0-.1-.2-.2-.2,0,0,0,0-.1-.1s0,0-.1-.1h-.1c0-.2-.1-.3-.2-.3s-.1-.2-.2-.2c0,0,0-.2-.1-.3v-.3c-.2-.2-.2-.3-.2-.5s0-.3,0-.5c0-.4.1-.8.4-1.1.1-.2.2-.3.4-.4l.4-.4c.4-.3.8-.7,1.2-.9.1,0,.2-.2.3-.2.1,0,.2-.1.4-.1h.2c0,0,.2-.1.2-.2s.1,0,.2-.1c.2,0,.4-.2.6-.2s.4,0,.6-.1c0,0,.1,0,.1,0h1.2c0,0,.1,0,.2,0,0,0,0,0,.1,0,0,0,0,0,0-.2,0-.2.2-.3.3-.5,0,0,0,0,0,0h0c0,0,.2-.1.3-.2s.2,0,.3,0c.1,0,.3,0,.4,0,.2,0,.4.2.5.4,0,0,.1.2.2.2,0,0,0,.2,0,.3,0,.2,0,.4,0,.7h0c0,.2,0,.4,0,.5s0,.2,0,.4c0,0,0,.1,0,.2,0,.1,0,.2,0,.3s0,.2,0,.3h0c0,.2,0,.3,0,.4s0,.2,0,.3c0,.4,0,.8-.1,1.2v.5c0,0,0,.2,0,.2,0,0,0,.1,0,.2v1.8c0,0,0,.1,0,.1,0,.1,0,.3,0,.4v1.3c0,0,0,.2,0,.3v1.1c0,.3,0,.6,0,.9v1.5c0,0,0,.1,0,.2,0,0,0,.2,0,.3v.3s0,.1,0,.2c0,0,0,.1,0,.2,0,0,0,0,0,0v.2c-.2,0-.2,0-.3.1,0,0,0,0,0,0,0,0,0,0-.2,0h-.3c0,0,0,0,0,0ZM78.9,568.2c.3,0,.5,0,.7-.2h.1c0,0,.2-.3.2-.3,0,0,.2-.1.3-.2,0,0,.1,0,.1,0h0c0-.1.1-.4.1-.4,0-.2.2-.3.2-.5s.1-.3.2-.5c0,0,0,0,0,0s0,0,0-.1c0,0,0,0,0-.1v-.2c0,0,0-.2,0-.3h0c0-.2-.1-.2-.1-.3v-.2c-.2-.1-.3-.2-.4-.3,0,0,0,0,0,0s0,0,0,0c0,0,0,0,0,0h-.1c-.1,0-.2,0-.4,0-.1,0-.2,0-.3.1l-.4.2c-.2,0-.4.2-.6.4,0,0,0,0,0,0s0,0-.1,0l-.4.4c0,0-.2.2-.3.3s-.2.2-.3.3c-.1.2-.2.3-.3.5,0,.1,0,.2,0,.3,0,0,0,.1,0,.2s0,.1.1.2c.2.2.3.3.5.5.2.1.4.2.6.3,0,0,.2,0,.2,0s.2,0,.2,0h0ZM70.3,742.4c-.1,0-.3,0-.4,0s-.3,0-.4-.2c0,0,0,0,0,0,0,0,0,0,0,0,0,0-.1,0-.2-.1,0,0-.1,0-.2-.2l-.3-.3h0c0-.1,0-.2,0-.2,0,0,0,0,0-.1s0,0,0-.1c0,0,0-.2.2-.2,0,0,.1,0,.1-.1,0-.1,0-.2.2-.3,0,0,.2-.1.3-.2.1,0,.3-.1.5-.1h.1s0,0,.1,0h.1s0,0,.1,0c.1,0,.3,0,.4,0s.3,0,.5-.1l.5-.2.6-.2c.2,0,.3-.1.4-.2.1,0,.2,0,.3-.1l.3-.2c0,0,.2,0,.2-.2s.1-.1.2-.2c0,0,.1-.2.2-.2,0-.1.1-.3,0-.4,0,0,0-.2,0-.2,0,0,0-.2,0-.2,0,0,0-.2-.1-.2s0-.2-.1-.3c0,0,0,0,0,0,0,0-.1-.2-.2-.3s-.1-.2-.2-.3c0,0-.1-.1-.2-.2s-.1,0-.2-.1c0,0-.1,0-.1,0,0,0-.1,0-.1,0,0,0-.1,0-.2,0,0,0-.1,0-.2,0-.2,0-.4,0-.5-.1h-.5c-.2-.1-.3-.2-.5-.2-.2,0-.2-.1-.3-.1h-.1s-.2,0-.4-.1c0,0-.1,0-.2,0s-.1,0-.3,0c0,0,0,0,0-.1s0,0,0-.1c0,0,0-.1,0-.2s0-.1,0-.2c0,0,0-.1,0-.2,0,0,0,0,0,0,0,0,0,0,0-.1s0,0,0,0c0,0,0-.1,0-.2v-.2c.2-.2.4-.4.5-.6.2-.2.4-.5.5-.7.2-.2.4-.4.5-.7,0-.1.2-.2.2-.3v-.2c.2,0,.2-.1.3-.2,0,0,0,0,0-.1s0,0,0-.1c0,0,0-.1,0-.2,0,0,0-.1,0-.2,0,0,0,0,0,0h0s0,0,0,0c-.1,0-.2,0-.4,0s-.2,0-.4,0h-.2s-.1,0-.1,0c0,0,0,0-.1,0-.1,0-.3,0-.4,0s-.3,0-.4,0h0c-.2,0-.4.1-.6.2s-.4.1-.6.2c0,0-.2,0-.3,0,0,0-.2,0-.3,0,0,0-.1,0-.2,0s-.1,0-.1,0c-.1,0-.3.1-.4.2,0,0,0,0,0,0-.1,0-.2,0-.3,0s-.2,0-.3,0c-.1,0-.2,0-.3-.1,0,0,0,0-.1,0,0,0,0,0,0,0,0,0,0,0,0,0,0,0,0,0,0-.1s0,0,0-.1,0,0,0-.2c0-.2,0-.4.1-.5,0,0,0-.1.1-.2s.1-.1.2-.2c.2-.2.4-.2.6-.3h.5c.1,0,.2,0,.3,0,0,0,.2,0,.3,0,.2,0,.3,0,.5,0s.3,0,.5,0c.2,0,.3,0,.5,0s.3,0,.5,0c.1,0,.2,0,.4,0h.5c.1,0,.2,0,.3,0,0,0,.1,0,.2,0,0,0,.2,0,.2,0,0,0,.2,0,.2,0,.1,0,.2,0,.3,0,0,0,.2,0,.3,0h.4c0,.1.1.2.1.2s0,0,.1,0c.1,0,.2.2.3.2s.1.2.2.3c.1.2.2.4.1.6,0,.2,0,.3,0,.4s0,.3-.1.4l-.3.6s0,.1,0,.2v.2c0,0-.3.3-.3.3,0,.1-.2.3-.2.4,0,.1-.2.3-.3.4h0c0,0,0,.1,0,.2,0,0,.1,0,.1,0,.2,0,.3,0,.5,0s.3,0,.5.1c.2,0,.4,0,.6.2s.4.2.5.3c.3.2.6.5.8.8.1.1.2.3.3.4s.2.3.3.5l.3.5c.2.4.3.8.3,1.2,0,.1,0,.2,0,.3,0,.1,0,.2,0,.3,0,0,0,.1,0,.2,0,.1,0,.3-.1.4s-.1.2-.2.4c0,0-.2.2-.2.3,0,.1-.1.2-.3.3,0,0,0,0,0,0,0,0-.1,0-.2.2,0,0-.1,0-.2.2,0,0-.1,0-.2.1,0,0-.1,0-.2.1-.2.2-.4.2-.6.2-.2,0-.4,0-.5,0l-.5.2s-.1,0-.2,0c0,0-.1,0-.2,0-.1,0-.3,0-.4.1-.1,0-.3,0-.4.1s-.3.1-.4.2l-.2.2s-.1,0-.1.1c0,0-.2,0-.3,0h0ZM82.4,742.2c-.1,0-.3,0-.4,0-.1,0-.3,0-.4,0-.3,0-.6-.1-.9-.2h-.2c-.1,0-.2-.1-.3-.2s-.2,0-.3-.1c0,0-.2,0-.3-.1,0,0-.2,0-.3-.1h0c0-.1-.2-.2-.3-.2s-.2,0-.3-.1c-.1,0-.2-.1-.3-.2s-.2-.2-.3-.2c0,0,0,0,0,0,0-.1-.1-.2-.2-.3s-.1-.2-.2-.3v-.3c-.1,0-.2-.1-.2-.2s0-.1,0-.2c0-.1,0-.3,0-.4s0-.2,0-.3c0,0,0-.2,0-.3,0,0,0-.1,0-.2,0,0,0-.1,0-.2v-.2c0,0,0-.1,0-.2s0-.1,0-.2c0,0,0,0,0,0s0,0,0,0c0,0,0,0,0-.1h0c0-.2,0-.4,0-.5,0,0,0,0,0,0s0,0,0,0v-.2c0-.1.1-.2.1-.3s0-.2.1-.3c0,0,0-.1,0-.2,0,0,0,0,0,0h0c0-.2,0-.2,0-.3,0,0,0,0,.2-.1,0,0,0,0,0,0s0,0,0,0h0c0-.1,0-.2,0-.3s0-.1,0-.2c0-.2,0-.3.2-.5,0,0,.1-.1.1-.2,0,0,0,0,0,0s0,0,0,0c.1-.2.2-.3.2-.5s.1-.3.2-.5c0,0,0,0,0,0,0,0,0-.2.2-.2,0,0,0,0,0,0s0,0,0,0c0,0,.1-.1,0-.2,0,0,0,0,0-.1s0,0,0-.1c0-.1,0-.2.1-.2h.1c0,0,.1-.1.2-.2s0,0,.1-.1c0,0,0,0,0,0s0,0,0,0c0-.1,0-.2.2-.3,0,0,0,0,0,0,0,0-.1-.1-.2-.2,0,0-.1-.1-.2-.2,0,0-.1,0-.1-.2s0-.1-.1-.2c0,0,0,0,0,0h0c0-.2,0-.2,0-.3h0c0-.1,0-.2,0-.3,0,0,0,0,0-.1,0,0,0,0,0-.1,0,0,0,0,0,0,0,0,0,0,0,0,0,0,0,0,.1,0,0,0,.1,0,.1-.1,0,0,0,0,.1,0,0,0,.2,0,.2,0,0,0,.2,0,.2,0,0,0,.1,0,.2,0,.1,0,.2,0,.3.1.1,0,.2,0,.3.1h.2c0,0,.1,0,.2,0,0,0,.1,0,.1-.1s0,0,.1-.1c.1-.1.2-.2.4-.2,0,0,0,0,0,0h.3c.1,0,.2,0,.3,0s.2,0,.3,0c0,0,0,0,0,0,0,0,0,.1.1.1s.1,0,.2,0c0,0,.1,0,.2,0s.2,0,.2.1c0,0,0,0,0,.1,0,0,0,.1.1.1,0,0,0,0,0,0s0,0,0,0c0,0,0,.1,0,.2,0,.2-.2.4-.4.5,0,0,0,0-.1,0h-.1s-.1,0-.1,0c0,0,0,0,0,0,0,0,0,0,0,0h0c0,0,0,.1,0,.1,0,0,0,0,0,0,0,0,.1.1.2.2s.1.1.2.2c0,0,.1.2.2.2s.1.2.2.2c0,0,0,.2.1.2l.2.2.2.3c0,0,.1.2.2.3s.1.2.2.3c.1.2.2.3.3.5s.2.3.3.5c.2.3.3.7.5,1,.1.2.2.5.3.8s.1.5.2.8l.2.8c0,0,0,.2,0,.3,0,0,0,.2,0,.3,0,.2-.1.4-.2.6,0,.2-.2.5-.3.7,0,.2-.1.3-.2.5s-.1.3-.2.5c-.1.2-.2.4-.4.6,0,0-.1.1-.1.2s0,.1-.1.2c0,0-.1.1-.2.2s-.1.1-.2.2l-.2.2c0,0-.2.1-.3.2s-.2.1-.3.2c-.2,0-.4.2-.6.2-.2,0-.5.1-.8.1h-.1s0,0-.1,0h-.3ZM81.9,740.3h.2c0,0,.1,0,.2,0,0,0,.2,0,.2,0,0,0,.2,0,.2,0s.1,0,.2,0c0,0,.1,0,.2,0,.1,0,.3-.1.5-.2,0,0,.1,0,.2-.1,0-.1.2-.2.4-.3,0,0,0,0,.1-.1,0,0,.1-.1.1-.2s0-.1.1-.2l.2-.5c0-.2.1-.3.2-.5,0-.2.1-.4.1-.5h0c0-.2,0-.3,0-.3,0,0,0-.2,0-.2,0-.2,0-.3-.1-.5v-.5c-.1-.2-.2-.5-.3-.7,0-.2-.2-.4-.3-.7,0-.2-.2-.3-.3-.5s-.2-.3-.3-.5c0,0,0-.2-.1-.2,0-.1-.1-.2-.2-.3s-.1-.2-.2-.3l-.5-.7c0-.1-.1-.2-.2-.3s-.1-.2-.2-.2c0,0,0,0,0,0,0,0,0,0-.1,0h0s0,0,0,0l-.5.7c-.4.5-.7,1.1-1,1.8,0,.2-.2.4-.3.7s-.2.5-.3.7c0,.2-.2.5-.3.8s-.2.5-.2.8c-.1.3-.2.7-.2,1,0,0,0,0,0,.1,0,0,0,.2,0,.3s0,.2,0,.3c0,.2.2.4.3.6l.4.3c.1,0,.2.2.4.3s.3.2.4.2c.2,0,.3.1.5.2s.4,0,.5,0h0Z"/>
  </g>
  <g id="palle">
    <circle class="cls-1" cx="15.8" cy="703.5" r="6"/>
    <circle class="cls-1" cx="61" cy="748.2" r="6"/>
    <circle class="cls-1" cx="61" cy="584.5" r="6"/>
    <circle class="cls-1" cx="61" cy="413" r="6"/>
    <circle class="cls-1" cx="97.8" cy="438.5" r="6"/>
    <circle class="cls-1" cx="106.7" cy="596.4" r="6"/>
    <circle class="cls-1" cx="109.7" cy="771.5" r="6"/>
    <circle class="cls-1" cx="169" cy="777.5" r="6"/>
    <circle class="cls-1" cx="152" cy="590.5" r="6"/>
    <circle class="cls-1" cx="146.1" cy="418.9" r="6"/>
    <circle class="cls-1" cx="353.6" cy="550.7" r="6"/>
    <circle class="cls-1" cx="359.6" cy="722.7" r="6"/>
    <circle class="cls-1" cx="365.5" cy="899.8" r="6"/>
    <circle class="cls-1" cx="435.2" cy="899.8" r="6"/>
    <circle class="cls-1" cx="423.3" cy="716.7" r="6"/>
    <circle class="cls-1" cx="423.3" cy="513.9" r="6"/>
    <circle class="cls-1" cx="532.8" cy="519.9" r="6"/>
    <circle class="cls-1" cx="538.8" cy="679" r="6"/>
    <circle class="cls-1" cx="550.7" cy="899.8" r="6"/>
    <circle class="cls-1" cx="606.8" cy="893.8" r="6"/>
    <circle class="cls-1" cx="591" cy="667.1" r="6"/>
    <circle class="cls-1" cx="585.1" cy="441.7" r="6"/>
    <circle class="cls-1" cx="335.1" cy="418.9" r="6"/>
    <circle class="cls-1" cx="335.1" cy="272.1" r="6"/>
    <circle class="cls-1" cx="310" cy="121.9" r="6"/>
    <circle class="cls-1" cx="246" cy="25.9" r="6"/>
    <circle class="cls-1" cx="125.2" cy="43.9" r="6"/>
    <circle class="cls-1" cx="66.9" cy="133.8" r="6"/>
    <circle class="cls-1" cx="34.4" cy="290.3" r="6"/>
    <circle class="cls-1" cx="21.8" cy="492.2" r="6"/>
  </g>
</svg>