<svg xmlns="http://www.w3.org/2000/svg" version="1.1" xmlns:xlink="http://www.w3.org/1999/xlink" xmlns:svgjs="http://svgjs.dev/svgjs" width="1000" height="1000"><style>
    #light-icon {
      display: inline;
    }
    #dark-icon {
      display: none;
    }

    @media (prefers-color-scheme: dark) {
      #light-icon {
        display: none;
      }
      #dark-icon {
        display: inline;
      }
    }
  </style><g id="light-icon"><svg xmlns="http://www.w3.org/2000/svg" version="1.1" xmlns:xlink="http://www.w3.org/1999/xlink" xmlns:svgjs="http://svgjs.dev/svgjs" width="1000" height="1000"><g clip-path="url(#SvgjsClipPath1203)"><rect width="1000" height="1000" fill="#ffffff"></rect><g transform="matrix(0.9259259259259259,0,0,0.9259259259259259,0,0)"><svg xmlns="http://www.w3.org/2000/svg" version="1.1" xmlns:xlink="http://www.w3.org/1999/xlink" xmlns:svgjs="http://svgjs.dev/svgjs" width="1080" height="1080"><svg id="a" data-name="Layer 1" xmlns="http://www.w3.org/2000/svg" viewBox="0 0 1080 1080">
  <defs>
    <style>
      .b {
        fill: #000;
        stroke: #000;
        stroke-miterlimit: 10;
        stroke-width: 20px;
      }
    </style>
  <clipPath id="SvgjsClipPath1203"><rect width="1000" height="1000" x="0" y="0" rx="0" ry="0"></rect></clipPath></defs>
  <path class="b" d="M145.71674,518.14171l127.51895-21.9177c16.32538,1.91506,30.84634,13.89002,14.65644,27.854-8.89165,7.66916-90.79917,20.22219-109.98945,24.71525-17.43476,4.08204-35.05802,8.28521-52.05943,13.83032-15.92665,42.11769-35.15778,83.96083-44.59235,127.84571,58.65097-1.8361,113.44605-18.59375,166.06939-43.27459,9.32204-4.37212,36.33073-23.4587,43.62909-23.89039,20.67564-1.22293,27.66665,19.0369,15.11645,34.24949-61.65888,27.95563-126.80637,62.16354-193.23499,77.56723-27.84746,6.45736-64.59173,15.8326-71.32549-21.08377-7.27403-39.87831,35.49162-99.30883,45.62043-138.89528-11.04476-4.04766-15.92108,4.01684-27.42783-1.84681-18.65718-9.5074-18.24226-34.38776.34579-42.6728,11.97285-5.33652,36.18065-2.00644,44.60289-8.11562,2.25193-1.63347,10.24543-28.90098,11.65867-32.39425,3.61281-8.93024,20.13156-54.73518,23.69836-66.81625.24767-.83889-.58511-1.54722-1.3965-1.22053-9.64889,3.88492-52.87225,29.00127-61.27709,2.14634-9.89876-31.62828,32.14607-44.23992,56.68315-53.5336,52.48889-19.88073,182.86787-51.50143,235.20474-38.8162,17.67778,4.28468,13.25347,29.05359,1.9978,38.64323-14.52756,12.37724-19.45897.90115-33.83866-1.06447-11.52933-1.57599-31.68999-1.07406-43.65929-.21795-11.42953.81751-101.0894,17.78997-101.076,24.78331.00097.50724,4.51778,3.6265,5.20815,6.59267,2.71168,11.65075-21.39369,48.07521-27.86489,61.43039-3.10533,6.40874-26.48134,53.98905-24.26832,56.10227ZM542.51126,613.77283c26.71615-61.59848,67.26173-182.99881,42.76325-247.32249-9.63453-25.29661-24.18812-18.67442-41.35043-28.60556-13.07142-7.5639-15.17812-23.24093-36.21318-18.59468-7.35103,1.6237-46.08039,39.94983-50.20818,47.77421-8.73308,16.55387-.28707,22.13753-2.83194,36.16817-7.10864,39.19196-46.74282,110.81001-61.17004,154.21057-12.83451,38.60931-28.42532,99.66583-25.06187,139.73842,4.08329,48.64887,52.51817,53.8431,89.77462,30.82511,24.98634-15.43668,65.85567-71.67178,84.29778-114.19376ZM553.42028,437.28018c-2.95166,56.27646-34.53735,143.77243-63.38304,188.42455-7.26822,11.25095-39.39828,61.7905-54.44571,68.59329-24.25593,10.96587-30.0229-11.16864-27.98079-30.68641,2.00996-19.21047,15.59141-69.93335,21.53066-90.2315,15.3939-52.61069,32.82574-107.46425,63.84409-159.79901,8.91881-11.09703,19.42647-32.79329,34.37831-32.81811,36.55704-.06068,26.78489,42.62925,26.05647,56.51719ZM923.93392,682.76966c.39584-15.96829,5.67025-27.51101,10.5433-39.4859,29.25406-71.88808,56.85925-145.31722,83.35479-218.55445,8.91345-24.63796,35.44493-92.41941,28.27624-114.56118-3.25922-10.0667-15.9325-18.013-26.19897-18.82683-23.62684-1.87291-68.34908,45.49226-83.34979,63.54402-28.46292,34.2521-60.9253,83.16802-85.38355,121.56939-7.97237,12.51725-78.31706,149.45911-93.23109,170.46317-1.81204,2.55197-4.35973,6.83519-5.77726,3.25239,0,0-1.18272-3.6466-.48842-7.90437,4.03687-24.75572,47.98313-160.86198,51.88108-175.46372,11.73126-43.9453,26.33378-89.45401,40.96262-132.76714-.34534-9.86006-27.29325-27.61582-36.91806-18.30618-48.95885,68.4336-91.23764,140.62745-133.37631,213.36444-25.37533,43.80122-53.14862,88.18031-76.21539,133.50164-8.99355,17.67043-34.18485,66.25181-37.58204,82.69027-3.39074,16.40723,7.18948,24.35604,23.2584,23.34117,6.39834-.4041,23.09367-18.13242,26.6691-23.89942,5.3765-8.67204,5.35632-22.83289,9.22277-32.70164,16.65875-42.51985,49.14319-99.7173,72.4933-140.00501,5.95856-10.28075,95.64696-173.44213,102.30168-175.16454,5.1707-1.18941,1.40721,5.31015.88019,7.86504-8.37062,35.24714-67.0843,182.05603-75.50588,217.23232-2.57061,10.73724-9.65152,40.54218-8.56177,49.8032,2.31522,19.6754,20.19191,33.06353,39.93954,28.9715,28.78454-5.96463,51.95487-61.05159,65.9416-85.10417,40.90074-70.33586,77.15838-135.34899,126.10644-201.07488,6.70998-9.00995,20.60385-37.71898,38.33894-48.44466,8.9898-5.19553,17.15679-3.21746,14.81123,5.5083l-109.32981,288.48298c-1.0283,2.71332-1.05497,5.70446-.07523,8.43569l.76576,2.13472c3.91668,10.91854,14.01635,18.40953,25.60165,18.98891l3.14664.15736c4.03776.20193,7.3981-3.00089,7.49829-7.04245Z"></path>
</svg></svg></g></g></svg></g><g id="dark-icon"><svg xmlns="http://www.w3.org/2000/svg" version="1.1" xmlns:xlink="http://www.w3.org/1999/xlink" xmlns:svgjs="http://svgjs.dev/svgjs" width="1000" height="1000"><g><g transform="matrix(0.9259259259259259,0,0,0.9259259259259259,0,0)" style="filter: invert(100%)"><svg xmlns="http://www.w3.org/2000/svg" version="1.1" xmlns:xlink="http://www.w3.org/1999/xlink" xmlns:svgjs="http://svgjs.dev/svgjs" width="1080" height="1080"><svg id="a" data-name="Layer 1" xmlns="http://www.w3.org/2000/svg" viewBox="0 0 1080 1080">
  <defs>
    <style>
      .b {
        fill: #000;
        stroke: #000;
        stroke-miterlimit: 10;
        stroke-width: 20px;
      }
    </style>
  </defs>
  <path class="b" d="M145.71674,518.14171l127.51895-21.9177c16.32538,1.91506,30.84634,13.89002,14.65644,27.854-8.89165,7.66916-90.79917,20.22219-109.98945,24.71525-17.43476,4.08204-35.05802,8.28521-52.05943,13.83032-15.92665,42.11769-35.15778,83.96083-44.59235,127.84571,58.65097-1.8361,113.44605-18.59375,166.06939-43.27459,9.32204-4.37212,36.33073-23.4587,43.62909-23.89039,20.67564-1.22293,27.66665,19.0369,15.11645,34.24949-61.65888,27.95563-126.80637,62.16354-193.23499,77.56723-27.84746,6.45736-64.59173,15.8326-71.32549-21.08377-7.27403-39.87831,35.49162-99.30883,45.62043-138.89528-11.04476-4.04766-15.92108,4.01684-27.42783-1.84681-18.65718-9.5074-18.24226-34.38776.34579-42.6728,11.97285-5.33652,36.18065-2.00644,44.60289-8.11562,2.25193-1.63347,10.24543-28.90098,11.65867-32.39425,3.61281-8.93024,20.13156-54.73518,23.69836-66.81625.24767-.83889-.58511-1.54722-1.3965-1.22053-9.64889,3.88492-52.87225,29.00127-61.27709,2.14634-9.89876-31.62828,32.14607-44.23992,56.68315-53.5336,52.48889-19.88073,182.86787-51.50143,235.20474-38.8162,17.67778,4.28468,13.25347,29.05359,1.9978,38.64323-14.52756,12.37724-19.45897.90115-33.83866-1.06447-11.52933-1.57599-31.68999-1.07406-43.65929-.21795-11.42953.81751-101.0894,17.78997-101.076,24.78331.00097.50724,4.51778,3.6265,5.20815,6.59267,2.71168,11.65075-21.39369,48.07521-27.86489,61.43039-3.10533,6.40874-26.48134,53.98905-24.26832,56.10227ZM542.51126,613.77283c26.71615-61.59848,67.26173-182.99881,42.76325-247.32249-9.63453-25.29661-24.18812-18.67442-41.35043-28.60556-13.07142-7.5639-15.17812-23.24093-36.21318-18.59468-7.35103,1.6237-46.08039,39.94983-50.20818,47.77421-8.73308,16.55387-.28707,22.13753-2.83194,36.16817-7.10864,39.19196-46.74282,110.81001-61.17004,154.21057-12.83451,38.60931-28.42532,99.66583-25.06187,139.73842,4.08329,48.64887,52.51817,53.8431,89.77462,30.82511,24.98634-15.43668,65.85567-71.67178,84.29778-114.19376ZM553.42028,437.28018c-2.95166,56.27646-34.53735,143.77243-63.38304,188.42455-7.26822,11.25095-39.39828,61.7905-54.44571,68.59329-24.25593,10.96587-30.0229-11.16864-27.98079-30.68641,2.00996-19.21047,15.59141-69.93335,21.53066-90.2315,15.3939-52.61069,32.82574-107.46425,63.84409-159.79901,8.91881-11.09703,19.42647-32.79329,34.37831-32.81811,36.55704-.06068,26.78489,42.62925,26.05647,56.51719ZM923.93392,682.76966c.39584-15.96829,5.67025-27.51101,10.5433-39.4859,29.25406-71.88808,56.85925-145.31722,83.35479-218.55445,8.91345-24.63796,35.44493-92.41941,28.27624-114.56118-3.25922-10.0667-15.9325-18.013-26.19897-18.82683-23.62684-1.87291-68.34908,45.49226-83.34979,63.54402-28.46292,34.2521-60.9253,83.16802-85.38355,121.56939-7.97237,12.51725-78.31706,149.45911-93.23109,170.46317-1.81204,2.55197-4.35973,6.83519-5.77726,3.25239,0,0-1.18272-3.6466-.48842-7.90437,4.03687-24.75572,47.98313-160.86198,51.88108-175.46372,11.73126-43.9453,26.33378-89.45401,40.96262-132.76714-.34534-9.86006-27.29325-27.61582-36.91806-18.30618-48.95885,68.4336-91.23764,140.62745-133.37631,213.36444-25.37533,43.80122-53.14862,88.18031-76.21539,133.50164-8.99355,17.67043-34.18485,66.25181-37.58204,82.69027-3.39074,16.40723,7.18948,24.35604,23.2584,23.34117,6.39834-.4041,23.09367-18.13242,26.6691-23.89942,5.3765-8.67204,5.35632-22.83289,9.22277-32.70164,16.65875-42.51985,49.14319-99.7173,72.4933-140.00501,5.95856-10.28075,95.64696-173.44213,102.30168-175.16454,5.1707-1.18941,1.40721,5.31015.88019,7.86504-8.37062,35.24714-67.0843,182.05603-75.50588,217.23232-2.57061,10.73724-9.65152,40.54218-8.56177,49.8032,2.31522,19.6754,20.19191,33.06353,39.93954,28.9715,28.78454-5.96463,51.95487-61.05159,65.9416-85.10417,40.90074-70.33586,77.15838-135.34899,126.10644-201.07488,6.70998-9.00995,20.60385-37.71898,38.33894-48.44466,8.9898-5.19553,17.15679-3.21746,14.81123,5.5083l-109.32981,288.48298c-1.0283,2.71332-1.05497,5.70446-.07523,8.43569l.76576,2.13472c3.91668,10.91854,14.01635,18.40953,25.60165,18.98891l3.14664.15736c4.03776.20193,7.3981-3.00089,7.49829-7.04245Z"></path>
</svg></svg></g></g></svg></g></svg>